<?xml version="1.0" encoding="UTF-8"?>
<svg id="Layer_11" data-name="Layer 11" xmlns="http://www.w3.org/2000/svg" viewBox="0 0 272.38 244.4">
  <defs>
    <style>
      .cls-1 {
        fill: #1c5c7d;
      }
    </style>
  </defs>
  <path class="cls-1" d="M271.56,190.62c-1.21-11.3-3.18-24.18-5.44-35.31-2.39-11.76-6.65-21.86-10.92-32.95-.31-4.57,9.56-1.55,12.21-1.55,2.81,0,4.74-1.56,4.06-4.52-.42-1.82-9.26-9.67-11.21-11.83-6.65-7.35-14.53-16.76-20.58-24.61-1.6-2.07-6.79-7.91-1.91-8.98,5.13-1.12,11.68-1.1,17.06-1.99,2.02-.33,11.22-2.05,12.19-3.08,1.17-1.25.59-3.24-.8-4.06-2.07-1.22-7.9-1.45-10.69-2.16-9.04-2.29-30.8-13.6-35.53-21.62-.46-.77-.99-1.5-1.15-2.42l.74-1.02c4.71-.38,17.86.97,20.98-2.94,1.21-1.52,1.05-3.17-.72-4.16-1.09-.62-7.03-1.14-9.04-1.6-10.54-2.38-16.31-7.47-25.24-12.42C182.35.52,146.81-5.76,122.42,6.92c-7.42,3.85-12.95,10.11-21.18,12.93-8.2,2.81-17,2.43-25.4,4.28-14.03,3.09-45.59,17.35-49.89,32.06-2.12,7.23,1.58,6.86,7.53,6.64,23.88-.87,47.83-6.69,67.75,10.18,9.87,8.36,14.42,17.24,6.18,29.2-5.64,8.18-24.32,14.77-33.55,20.05-20.48,11.72-33.37,24.28-46.74,43.63-3.88,5.61-10.07,14.69-12.26,20.97-1.13,3.25-.52,6.93,3.54,7.11,4.81.21,16.82-10.24,21.79-12.79,1.85-.95,6.25-3.06,5.89.54-.34,3.42-13.09,15.83-16.15,18.88-7.64,7.59-15.65,15.22-23.71,22.37-1.16,1.03-2.36,2.01-3.57,2.98-1.1.88-2.51,1.55-2.63,3.09-.07.94.14,1.97.84,2.61.26.24.58.41.89.58,1.68.9,3.35,1.85,5.04,2.72,1.79.93,3.45,1.49,5.47.88,2.05-.62,3.61-2.18,5.24-3.47,1.75-1.38,3.47-2.78,5.17-4.21,3.33-2.79,6.58-5.68,9.73-8.67,6.17-5.87,11.96-12.13,17.33-18.74,5.49-6.76,10.53-13.88,15.19-21.23,1.46-2.3,2.88-4.63,4.26-6.97,2.25-3.8,6.11-13.97,10.44-14.83,5.45-1.08,2.35,7.45,1.38,9.82-10.48,25.38-34.39,49.85-56,66.27-1.99,1.51-3.97,3-6,4.46-.45.32-.93.71-.97,1.26-.02.25.06.49.17.71,1,2.04,4.15,1.83,6.06,2.04,2.59.28,5.2.47,7.8.6,2.26.11,4.52.2,6.78.35.17-.03.34-.05.53-.05,2.58,0,5.1.17,7.6-.73,2.04-.74,3.53-2.06,5.18-3.4s3.35-2.76,5-4.17c3.35-2.86,6.64-5.79,9.85-8.81,6.48-6.08,12.65-12.5,18.32-19.34,5.54-6.68,10.62-13.77,14.9-21.33,4.09-7.24,7.45-14.92,9.59-22.96,2.1-7.89,3-16.09,2.39-24.24-.04-.54-.09-1.07-.14-1.61-.27-2.79-1.16-5.61-1.34-8.41-.09-1.35-.46-6.08,1.19-6.37,4.52-.81,7.67,13.03,8.08,16.16,1.16,8.88.88,17.91-.55,26.74-1.46,9-4.1,17.78-7.52,26.23s-7.9,17.12-12.79,25.16c-2.43,4-5,7.93-7.68,11.77-1.34,1.93-2.71,3.83-4.1,5.72-1.22,1.65-3.02,3.39-3.3,5.5.03-.11.07-.23.1-.34-.11.54-.13,1.11-.04,1.66-.02-.09-.03-.18-.05-.27-.03.73.49,1.4,1.13,1.76,1.13.62,2.75.58,4.01.74,1.61.21,3.23.39,4.85.55,6.53.64,13.12.86,19.69.86,10.51.16,21.02.09,31.53.18,4.87-.34,9.75-.33,14.62-.48,2.37-.07,4.67-.11,7.04,0,2.36.11,4.73.25,7.09.26,4.3.02,8.57.41,12.87.42,6.67,0,13.26-1,19.92-1.18,2.43-.07,4.86.02,7.29.02,1.97,0,4.68.3,6.49-.59,2.14-1.04,2.93-3.81,3.67-5.86,4.89-13.61,10.01-24.47,10.97-39.54.38-5.99-1.15-14.51.11-19.82.1-.42.71-2.43.82-2.5,1.39-.98,2.68,1.3,3.14,2.31,2.45,5.35,3.13,11.52,3.38,17.34.31,7.24-.23,14.54-1.45,21.67-1.14,6.67-2.86,13.38-5.81,19.49-.92,1.91-2.1,3.6-2.72,5.64-.07.23-.14.48-.1.72.09.45.55.72.98.85,1.19.36,2.55.2,3.78.2,1.43,0,2.83-.09,4.23-.22.28-.1.56-.2.84-.3.56-.19,1.12-.38,1.68-.59.92-.35,2.08-.77,2.75-1.52.2-.22.35-.47.49-.73,1.07-1.91,1.82-4.04,2.71-6.03.84-1.89,1.66-3.79,2.42-5.71,1.42-3.61,2.62-7.32,3.4-11.13,1.04-5.05,1.32-10.22,1.14-15.37-.03-.95.65-2.21,1.69-1.66,1.6.85,3.53,7.37,7.51,8.46,8.57,2.34,5.83-12.99,5.33-17.73ZM151.63,42.77c-16.35,2.79-17.49-20.25-1.96-21.05,13.77-.71,14.47,18.92,1.96,21.05ZM208.12,54.27c-.47-1.47-.83-2.99.86-3.8,1.17-.32,2.24.55,3.19,1.08,3.23,1.83,12,7.99,13.96,10.84,1.55,2.26,2.52,6.06-1.31,6.2-4.22.15-15.42-10.3-16.69-14.33ZM239.22,109.99c-4.79-3.89-9.83-10.34-12.4-15.95-.69-1.51-4.03-8.76-1.92-9.47.72-.24,1.67-.07,2.39.15,3.05.93,16.5,16.67,18.5,20.04,1.31,2.21,3.25,5.41,1.87,7.89-1.93,1.95-6.74-1.28-8.43-2.66ZM255.3,186.78c-1.9.29-3.85-2.57-4.56-4.13-3.13-6.79-4.92-20.27-7.2-28.24-1.41-4.9-4.97-11.24-3.77-16.42.22-.95,1-1.86,2-2.02,1.3-.2,2.92,1.39,3.66,2.37,4.72,6.18,11.86,32.71,12.42,40.74.19,2.67.41,6.65-2.55,7.7Z"/>
</svg>