<?xml version="1.0" encoding="UTF-8"?>
<svg id="Layer_11" data-name="Layer 11" xmlns="http://www.w3.org/2000/svg" viewBox="0 0 314.01 287.9">
  <defs>
    <style>
      .cls-1 {
        fill: #1c5c7d;
      }
    </style>
  </defs>
  <path class="cls-1" d="M271.02,230.64c2.96-1.04,2.73-5.02,2.55-7.68-.56-8.01-7.69-34.5-12.4-40.67-.74-.97-2.35-2.56-3.66-2.36-1,.15-1.78,1.07-2,2.01-1.21,5.17,2.36,11.5,3.76,16.4,2.28,7.95,4.07,21.41,7.19,28.19.71,1.55,2.66,4.41,4.56,4.12Z"/>
  <path class="cls-1" d="M97.37,285.08c.26-.24.5-.5.71-.77,1.18-1.51,2.35-3.02,3.5-4.55,2.4-3.18,4.72-6.4,6.97-9.69,4.47-6.54,8.63-13.3,12.33-20.3,3.62-6.85,6.82-13.95,9.38-21.27,2.49-7.11,4.38-14.45,5.44-21.91,1.05-7.36,1.28-14.84.53-22.24-.08-.82-.18-1.64-.28-2.45-.41-3.13-3.55-16.94-8.06-16.13-1.64.29-1.27,5.01-1.18,6.36.18,2.79,1.07,5.6,1.34,8.39.67,6.84.28,13.75-1.03,20.49-1.32,6.78-3.55,13.36-6.41,19.64s-6.6,12.7-10.67,18.59c-4.2,6.08-8.86,11.84-13.81,17.32-5,5.54-10.31,10.8-15.83,15.83-2.63,2.4-5.32,4.73-8.04,7.03-1.36,1.15-2.73,2.29-4.1,3.42-1.1.91-2.78,1.86-3.44,3.17-.13.25-.22.55-.13.82.06.17.2.31.34.42.83.67,1.9.56,2.91.58,1.13.03,2.25.05,3.38.06.47,0,.94,0,1.4,0,.02-.02.03-.04.05-.06,3.19.04,6.36-.07,9.42-.76,2.05-.46,3.94-.87,6.12-.78,1.91.07,3.81.15,5.72.22,1.27.05,2.49-.58,3.43-1.44Z"/>
  <path class="cls-1" d="M243.06,128.75c-.72-.22-1.67-.39-2.39-.15-2.11.71,1.23,7.95,1.92,9.46,2.57,5.59,7.61,12.04,12.38,15.92,1.69,1.37,6.5,4.6,8.42,2.66,1.38-2.48-.56-5.67-1.87-7.88-2-3.37-15.43-19.08-18.47-20.01Z"/>
  <path class="cls-1" d="M255.07,221.12c-.46-1.01-1.75-3.28-3.14-2.31-.11.08-.71,2.08-.82,2.5-1.26,5.3.26,13.81-.11,19.79-.95,15.04-6.07,25.88-10.95,39.47-.61,1.71-1.34,3.34-1.25,5.2.01.22.03.45.14.65.42.75,1.51.76,2.26.77,1.11.03,2.23.2,3.34.06,2.09-.26,3.32-2.02,4.38-3.64.85-1.31,1.6-2.68,2.28-4.09,1.54-3.2,2.72-6.57,3.68-9.99,1.06-3.78,1.86-7.64,2.44-11.53s.98-7.98,1.12-12c.14-3.8.08-7.61-.27-11.4-.3-3.28-.81-6.56-1.74-9.73-.38-1.28-.82-2.55-1.38-3.76Z"/>
  <path class="cls-1" d="M313.94,236.38c-.1-2.72-.32-5.43-.58-8.13-.52-5.39-1.22-10.76-1.58-16.18-.3-4.52-.79-9.03-.9-13.56-.13-5.16-.02-10.31-.77-15.41-.39-2.65-.83-5.49-.6-8.11.57-6.71,0-13.06-1.72-19.17-1.13-4-1.05-7.97-.33-12.06.26-1.46.5-2.96.56-4.46.21-5.92.35-11.85.5-17.77.03-1.07.14-2.17,0-3.19-.82-6-.68-11.95-.38-18.08.51-10.47.37-21.01.56-31.52.03-1.63.34-3.25.52-4.88.18-1.64.49-3.27.52-4.91l.14-8.42.04-4.21c0-.16,0-.4,0-.6v-.62s-.04-1.24-.04-1.24c-.06-.83-.11-1.66-.2-2.48-.73-6.61-3.09-13.06-6.87-18.43-1.46-2.1-3.07-4.08-4.91-5.77-1.83-1.69-3.88-3.09-6.09-4-3.23-1.31-6.19-2.82-9.28-4.24-3.07-1.43-6.24-2.83-9.6-3.79-2.47-.72-5.03-1.3-7.62-1.59-2.31-.29-4.62-.52-6.93-.54-5.01-.05-10.05-.21-15.07-.04-3.97.07-7.94.32-11.87.97-.44.07-.89.12-1.35.15-1.48-.01-2.99-.11-4.47-.13-7.15-.1-14.3-.33-21.45-.34-2.3,0-4.61.05-6.91.12-1.31.03-2.61.07-3.92.11-2.48.06-4.95.09-7.42.02-4.65-.14-9.25-.42-13.88-.23-2.35.03-4.71.17-7.07.48-5.32.7-10.72,1.12-16.1,1.64-.17.02-.34.02-.52.03-.23,0-.45.01-.68.03-.66.01-1.32.01-1.98.05-.15,0-.3.01-.45.02-5.45,0-10.71-1.07-16.09-1.48-4.5-.34-8.98-1.05-13.31-1.93C106.8.67,97.64-.1,88.28.24c-1.92.04-3.85.12-5.79.25-.71.05-1.42.1-2.13.13-.63,0-1.25-.02-1.86-.07-4.09-.33-8.16-.7-12.19-.5-3.03.03-6.03.31-9.02,1.13-.09.03-.2.04-.3.06-.32-.01-.63-.02-.94,0-2.16.07-4.32.08-6.48.06l-1.62-.02h-.82s-.97,0-.97,0c-.59,0-1.18.02-1.77.05h-.17c-1.29,0-2.58.09-3.87.2-5.14.5-10.24,2.01-14.69,4.61-4.64,2.71-8.85,6.02-12.51,9.87-3.66,3.85-6.77,8.27-9.05,13.15-1,2.11-1.61,4.44-2.4,6.57-.16.45-.32.9-.47,1.36-.14.46-.26.92-.38,1.39-.26.93-.41,1.88-.57,2.82-.14.95-.22,1.91-.28,2.86-.01.48-.02.95-.03,1.43v.7s.02.59.02.59c.13,3.16.5,6.27,1.05,9.26.8,4.35.72,8.39.35,12.46-.45,5-.83,9.85-.23,14.91.34,2.86.51,6.04.09,8.83-.01,1.7-.04,3.4.02,5.1.11,3.02.86,5.68,1.63,8.54.13.49.14,1.01.14,1.51.02,1.74.04,3.48.06,5.22,0,.32,0,.64.11.94.09.26.24.5.39.73,3.87,6.09,4.33,14.62,2.88,21.5-1.11,5.28-1.32,10.64-1.8,15.95-.13.64-.26,1.27-.4,1.9-.29,1.32-.56,2.64-.8,3.97-.06.58-.11,1.15-.16,1.73-1.31,13.79-2.09,27.52-1.97,41.46.08,9.74.41,19.48.48,29.23.03,3.87.13,7.74.06,11.6-.02,2.17.04,4.43.22,6.65.19,2.23.47,4.46.82,6.73.35,2.11.97,4.33,1.88,6.43.96,2.2,2.21,4.29,3.79,6.11.98,1.13,2.03,2.26,3.31,3.06,1.44.9,2.9,1.17,4.42.33,2.15-1.19,4.15-2.66,5.98-4.28,8.04-7.14,16.04-14.75,23.67-22.33,3.06-3.04,15.78-15.43,16.12-18.85.36-3.59-4.03-1.49-5.88-.54-4.96,2.55-16.95,12.98-21.75,12.77-4.06-.18-4.67-3.86-3.54-7.1,2.19-6.27,8.37-15.33,12.24-20.93,13.35-19.32,26.22-31.86,46.67-43.56,9.21-5.27,27.87-11.85,33.49-20.02,8.22-11.94,3.68-20.8-6.18-29.15-19.89-16.85-43.8-11.04-67.64-10.17-5.94.22-9.63.59-7.52-6.63,4.3-14.69,35.81-28.93,49.81-32.01,8.38-1.85,17.17-1.46,25.36-4.27,8.22-2.82,13.74-9.06,21.15-12.91,24.35-12.65,59.83-6.38,83.01,6.48,8.91,4.94,14.68,10.03,25.19,12.4,2,.45,7.93.98,9.02,1.59,1.76.99,1.93,2.64.72,4.16-3.11,3.91-16.24,2.56-20.94,2.94l-.74,1.01c.16.91.69,1.64,1.15,2.41,4.72,8,26.45,19.3,35.47,21.58,2.79.71,8.6.94,10.67,2.16,1.39.82,1.97,2.81.8,4.05-.98,1.04-10.16,2.75-12.17,3.08-5.37.89-11.9.87-17.03,1.99-4.86,1.06.31,6.89,1.91,8.96,6.04,7.83,13.91,17.23,20.55,24.56,1.95,2.16,10.77,9.98,11.19,11.81.68,2.95-1.25,4.51-4.05,4.51-2.65,0-12.5-3.01-12.19,1.55,4.26,11.08,8.52,21.16,10.9,32.9,2.25,11.11,4.22,23.98,5.43,35.26.51,4.73,3.24,20.04-5.32,17.7-3.97-1.08-5.9-7.6-7.5-8.44-1.04-.55-1.72.71-1.69,1.66.48,13.68-2.39,22.04-7.34,33.04,0,.01-.01.03-.02.04-.29.64-.58,1.28-.88,1.94-.15.46-.31.92-.46,1.38-.34,1.02-.84,2.45.15,3.26.35.29.79.44,1.23.54.9.2,1.83.19,2.76.17,1.57-.03,3.15-.09,4.71.14,1.52.22,3,.25,4.54.24.05,0,.1,0,.14,0,.8,0,1.6-.02,2.4-.06,2.55-.04,5.13-.31,7.75-.96,1.11-.25,2.19-.62,3.31-1.01,1.08-.44,2.2-.9,3.27-1.49,2.17-1.15,4.29-2.65,6.24-4.59,2.01-1.98,3.96-4.14,5.62-6.46,1.66-2.32,3-4.81,3.8-7.29,1.02-3.12,1.74-6.25,2.33-9.38.58-3.13,1.02-6.26,1.42-9.48.13-.89.18-1.78.23-2.67.05-.98.06-1.56.06-2.27.01-1.37-.01-2.74-.07-4.1Z"/>
  <path class="cls-1" d="M95.65,201.61c-4.33.86-8.18,11.01-10.43,14.81-2.51,4.25-5.14,8.43-7.89,12.53-2.67,3.98-5.47,7.87-8.39,11.66-2.87,3.72-5.87,7.35-8.99,10.86-3.12,3.51-6.37,6.9-9.74,10.18-3.43,3.33-6.97,6.54-10.62,9.63-1.87,1.58-3.77,3.13-5.69,4.65-1.94,1.53-4,2.94-5.87,4.55-.34.29-.66.61-.93.96-.19.26-.37.61-.2.89.08.14.24.22.38.29.79.41,1.58.81,2.38,1.2,1.93.92,4.39-1.1,5.87-2.1,1.92-1.3,3.74-2.75,5.58-4.15,21.57-16.4,45.44-40.83,55.9-66.16.98-2.36,4.07-10.88-1.38-9.8Z"/>
  <path class="cls-1" d="M165.57,65.85c-15.5.8-14.36,23.8,1.96,21.02,12.48-2.13,11.78-21.72-1.96-21.02Z"/>
  <path class="cls-1" d="M227.97,95.63c-.94-.53-2.01-1.4-3.18-1.08-1.69.81-1.32,2.32-.85,3.8,1.27,4.02,12.45,14.46,16.67,14.3,3.82-.14,2.86-3.94,1.31-6.19-1.96-2.85-10.71-9-13.94-10.83Z"/>
</svg>