<?xml version="1.0" encoding="UTF-8"?>
<svg id="Layer_11" data-name="Layer 11" xmlns="http://www.w3.org/2000/svg" viewBox="0 0 314.01 288">
  <defs>
    <style>
      .cls-1 {
        fill: #1c5c7d;
      }
    </style>
  </defs>
  <path class="cls-1" d="M313.94,236.38c-.1-2.72-.32-5.43-.58-8.13-.52-5.4-1.22-10.76-1.58-16.18-.3-4.52-.79-9.03-.9-13.56-.13-5.16-.02-10.31-.77-15.41-.39-2.65-.83-5.49-.6-8.11.57-6.71,0-13.06-1.72-19.17-1.13-4-1.05-7.97-.33-12.06.26-1.46.5-2.96.56-4.46.21-5.92.35-11.85.5-17.77.03-1.06.14-2.17,0-3.19-.82-6-.68-11.95-.38-18.08.51-10.47.38-21.01.56-31.52.03-1.63.34-3.25.52-4.88.18-1.64.49-3.27.52-4.91l.14-8.42.04-4.21c0-.16,0-.4,0-.6v-.62s-.04-1.24-.04-1.24c-.06-.83-.11-1.66-.2-2.48-.73-6.61-3.09-13.06-6.87-18.44-1.46-2.1-3.07-4.08-4.91-5.77-1.83-1.69-3.88-3.09-6.09-4-3.23-1.31-6.19-2.82-9.28-4.24-3.07-1.43-6.24-2.83-9.6-3.79-2.47-.72-5.03-1.3-7.62-1.59-2.31-.29-4.62-.52-6.93-.54-5.01-.05-10.05-.21-15.07-.04-3.97.07-7.94.32-11.87.97-.44.07-.89.12-1.35.15-1.48-.01-2.99-.11-4.47-.13-7.15-.1-14.3-.33-21.45-.34-2.3,0-4.61.05-6.91.12-1.31.03-2.61.07-3.92.11-2.48.06-4.95.09-7.42.02-4.65-.14-9.26-.42-13.88-.23-2.35.03-4.71.17-7.08.48-5.32.71-10.72,1.12-16.1,1.64-.17.02-.34.02-.52.03-.23,0-.45.01-.68.03-.66.01-1.32.01-1.98.05-.15,0-.3.01-.45.02-5.45,0-10.71-1.07-16.09-1.48-4.5-.34-8.98-1.05-13.31-1.93C106.8.67,97.64-.1,88.28.24c-1.92.04-3.85.12-5.79.25-.71.05-1.42.1-2.13.13-.62,0-1.25-.02-1.86-.07-4.09-.33-8.16-.7-12.19-.5-3.02.03-6.03.31-9.02,1.13-.09.03-.2.04-.3.06-.32-.01-.63-.02-.94,0-2.16.07-4.32.08-6.48.06l-1.62-.02h-.82s-.97,0-.97,0c-.59,0-1.18.02-1.77.05h-.17c-1.29,0-2.58.09-3.87.2-5.14.5-10.24,2.01-14.69,4.61-4.64,2.71-8.85,6.02-12.51,9.87-3.66,3.85-6.77,8.27-9.05,13.15-1,2.11-1.61,4.44-2.4,6.57-.16.45-.32.9-.47,1.36-.14.46-.26.92-.38,1.39-.26.93-.41,1.88-.57,2.82-.14.95-.22,1.91-.28,2.86-.01.48-.02.95-.03,1.43v.7s.02.59.02.59c.13,3.16.5,6.27,1.05,9.26.8,4.35.72,8.39.35,12.46-.45,5-.83,9.85-.23,14.91.34,2.86.51,6.04.09,8.83-.01,1.7-.04,3.4.02,5.1.11,3.02.86,5.68,1.63,8.54.13.49.14,1.01.14,1.51.02,1.74.04,3.48.06,5.22,0,.32,0,.64.11.94.09.26.24.5.39.73,3.87,6.09,4.33,14.62,2.88,21.5-1.11,5.28-1.32,10.64-1.8,15.95-.13.64-.26,1.27-.4,1.9-.29,1.32-.56,2.64-.8,3.97-.05.58-.11,1.15-.16,1.73-1.31,13.79-2.09,27.52-1.97,41.46.08,9.74.41,19.48.48,29.23.03,3.87.13,7.74.05,11.6-.02,2.17.04,4.43.22,6.65.19,2.23.47,4.46.82,6.73.35,2.11.97,4.33,1.88,6.43.91,2.1,2.13,4.08,3.52,5.74,3.5,4.17,7.39,7.76,11.66,10.84,4.27,3.08,8.92,5.65,13.99,7.6l1.38.48.7.23.71.2,1.43.38c.48.11.96.2,1.45.3.97.21,1.95.31,2.94.44.49.06.99.08,1.48.11l.74.04.37.02h.31c.97.04,1.94.06,2.91.06,2.05.02,4.11-.02,6.18-.1.89-.03,1.77-.06,2.66-.1.36-.02.73-.03,1.09-.04.79-.02,1.58-.03,2.38-.04,1.53,0,3.07.01,4.6.05,1.96.05,3.94.12,5.9.13.47,0,.94,0,1.4,0,.02-.02.03-.04.05-.06,3.19.04,6.36-.07,9.42-.76,2.05-.46,3.94-.87,6.12-.78,4.99.2,9.99.43,14.99.45,6.19.03,12.33.2,18.52.53,7.37.39,14.85-.18,22.29-.34,3.32-.07,6.65-.24,9.97-.18.27,0,.55.02.82.04-.05.05-.1.11-.15.16,1.82.19,3.64.49,5.44.44,2.47-.07,4.94-.15,7.41-.24,2.2-.08,4.4-.16,6.6-.24,7.45-.26,14.89-.47,22.36-.28l-.06-.08c2.19.04,4.38.11,6.58.22,2.05.11,4.11.2,6.17.28.03.04.05.07.08.11,4.53.16,9.06.27,13.59.3,1.1,0,2.19-.02,3.29-.07,3.03-.08,6.07-.37,9.11-.56.36,0,.71.03,1.07.05,3.17.17,6.34.4,9.51.51.38.01.75.01,1.12.01-.09-.03-.17-.05-.25-.08-.01,0-.02,0-.03-.01.2,0,.41.02.61.03,4.09.13,7.35-.39,9.93-1.37.82.02,1.62.17,2.44.23,1.36.11,2.77-.34,4.15-.42,1.59-.09,3.18-.02,4.76.2.29.04.59.09.88.05.25-.04.49-.14.73-.2,1.17-.31,2.33.16,3.49.25,1.25.1,2.54.09,3.8.09.05,0,.1,0,.14,0,.8,0,1.6-.02,2.4-.06,2.55-.04,5.13-.31,7.75-.96,1.11-.25,2.19-.62,3.31-1.01,1.08-.44,2.2-.9,3.27-1.49,2.17-1.15,4.29-2.65,6.24-4.59,2.01-1.98,3.96-4.14,5.62-6.46,1.66-2.32,3-4.81,3.8-7.29,1.02-3.12,1.75-6.25,2.33-9.38.58-3.13,1.02-6.26,1.42-9.48.13-.89.18-1.78.23-2.67.05-.98.06-1.56.06-2.27.01-1.37-.01-2.74-.07-4.1ZM253.84,162.12c-.06,1.09-.22,2.3-.51,3.42-.27,1.13-.7,2.23-1.25,3.29-.45.85-1.01,1.66-1.71,2.35-.35.34-.73.66-1.14.94-.1.08-.25.17-.36.22l-.3.15-.61.3-1.25.62-.42.21c-.16.01-.32,0-.48,0h-.72s-2.67,0-2.67,0c-3.56-.02-7.11-.04-10.65-.06-4.14-.04-8.17-.06-12.23.06-.69.02-1.44,0-2.16,0-4.01-.02-8.02-.05-12.02-.07-1.01,0-2.03-.04-3.02-.08-1.38-.05-2.75-.08-4.1-.08-.68,0-1.35.01-2.03.03-.67.02-1.37.04-1.97.13-1.89.29-3.66,1.21-4.97,2.63-1.31,1.41-2.15,3.31-2.2,5.35-.04,1.75.03,3.69.08,5.47.11,3.45.09,6.93.11,10.42.02,3.06.09,6.11.13,9.17.11,7.33.41,14.51.3,22.02-.01.85-.01,1.7,0,2.53.01.86.03,1.72.04,2.57,0,.19.01.39-.07.56-.05.18-.06.38-.16.55l-.25.52c-.09.17-.2.3-.28.41-.34.47-.68.81-1.03,1.15-.69.66-1.41,1.21-2.16,1.74-1.2.81-2.59,1.53-4.13,2.05-.38.14-.79.23-1.19.35-.42.08-.82.18-1.25.23-.92.12-1.57.13-2.31.18-5.61.29-9.78-.08-14.35-.37-3.1-.21-4.05-.52-4.5-.93-.04-.04-.14-.07-.24-.11-.21,0-.43,0-.64,0-.25,0-.5,0-.75,0-.48.23-1.19.44-2.2.61-1.93.31-4.93.51-9.35.29-2.16-.11-4.32-.28-6.49-.55-.4-.05-.81-.11-1.21-.17-.34-.05-.68-.1-1.05-.18-.08-.02-.21-.04-.31-.08l-.31-.11c-.22-.07-.37-.16-.56-.24-.69-.35-1.27-.74-1.84-1.16-1.13-.84-2.15-1.77-3.08-2.86-.21-.25-.41-.52-.61-.8l-.15-.23c-.05-.08-.13-.19-.18-.3-.1-.22-.25-.42-.3-.65,0-.24,0-.49,0-.71v-.45s0-.9,0-.9l.02-3.6c.02-2.4.04-4.8.06-7.2.1-9.38-.03-18.7-.08-28.04,0-1.69.08-3.41.09-5.12,0-1.12,0-2.25,0-3.37v-1.69c-.01-.5-.06-.99-.16-1.47-.21-1.08-.67-2.12-1.32-3.01-.16-.22-.34-.44-.52-.64-.09-.1-.19-.2-.29-.3l-.33-.33-.67-.65c-.2-.19-.4-.37-.62-.54-.86-.67-1.87-1.16-2.93-1.42-.53-.13-1.07-.2-1.62-.22-.61,0-1.23-.01-1.84-.02-4.19-.05-8.34-.07-12.53-.08-3.38-.02-6.77-.04-10.14-.07-1.48-.01-2.75.05-4.14.11-3.23.16-6.66.11-10.04.09-2.25-.01-4.52-.01-6.76.01-1.11,0-2.22.01-3.33.02h-1.66s-.93,0-.93,0c-.11,0-.22-.01-.34-.02-.11,0-.21-.07-.32-.11-.21-.08-.42-.15-.62-.29-.7-.45-1.09-.88-1.51-1.35-.41-.46-.75-.94-1.08-1.43-.65-.98-1.2-2-1.65-3.06-.63-1.48-1.11-3.03-1.26-4.72-.09-1.54-.16-3.06-.22-4.59-.11-3.05-.22-6.1-.33-9.2-.08-2.46-.05-5.22.06-7.65.24-5.21.28-10.45.65-15.71.14-1.67.24-3.29.63-5.05.06-.42.29-.95.5-1.34.22-.4.46-.78.71-1.13.5-.71,1.05-1.38,1.63-2.01.59-.63,1.2-1.24,1.9-1.79.18-.14.35-.27.56-.4.25-.17.52-.31.79-.44h.84s.62-.01.62-.01l4.94-.02c5.53,0,11.07,0,16.61.01,4.4.01,8.92-.02,13.14.11,4.69.15,9.49.13,14.2.35.6.02,1.23.06,1.83.06.59,0,1.2-.06,1.78-.2,1.17-.27,2.28-.83,3.2-1.58.92-.76,1.64-1.71,2.09-2.72.46-1.02.66-2.08.63-3.06-.01-.24-.08-.47-.06-.66.08-4.65-.15-9.36.03-14.08.07-1.92.04-4.14,0-6.13-.09-3.42-.03-6.71.03-10.09.05-2.76.06-5.49-.05-8.43-.16-4.06-.22-8.39-.09-12.76.02-.25-.02-.51.05-.74.12-.22.23-.45.37-.66.13-.2.22-.34.33-.49.11-.15.22-.3.34-.44.46-.57.94-1.09,1.45-1.57.59-.56,1.2-1.08,1.86-1.56.68-.49,1.3-.94,2.27-1.31.14-.06.28-.09.42-.1l.31-.04c.2-.03.4-.05.59-.07.39-.05.78-.09,1.17-.12.78-.07,1.55-.14,2.32-.19,3.09-.22,6.16-.38,9.23-.54,5.87-.3,11.74-.24,17.61-.18.72,0,1.53.06,2.15.03,2.16-.07,4.33-.02,6.53.12,1.1.08,2.2.17,3.31.3.56.07,1.11.14,1.68.24.28.05.57.1.88.17.31.07.69.2.99.33,1.41.67,2.54,1.51,3.63,2.42.73.63,1.42,1.28,2.07,2.07.17.22.3.38.49.68.11.15.18.32.27.48l.13.25c.05.08.02.18.03.27v1.57c0,1.79,0,3.57-.03,5.34-.05,3.54-.15,7.04-.31,10.52-.13,2.93-.23,5.96-.28,9-.07,4.17-.26,8.23-.21,12.5,0,.71.01,1.44.02,2.15.08,3.64.14,7.3.24,10.89.07,2,.84,3.92,2.15,5.38,1.31,1.47,3.16,2.46,5.13,2.68.91.08,2,.04,3.01.05h3.09c2.06-.02,4.12-.03,6.18-.04l14.51.05c1.75,0,3.6.05,5.24-.01,5.6-.2,11.28-.14,16.92-.13l2.35.02,1.28.03h.2s.1.01.1.01l.09.05.36.19c.25.15.44.27.6.4,1.33,1.05,2.36,2.27,3.31,3.58.31.45.62.91.87,1.43.13.26.25.52.35.82.1.29.12.55.19.83.13.55.18,1.08.25,1.61.08.53.13,1.06.18,1.59.22,2.11.37,4.19.62,6.21.31,2.76.42,5.72.49,8.68.17,7.61.09,15.22-.41,22.85Z"/>
</svg>