<?xml version="1.0" encoding="UTF-8"?>
<svg id="Layer_11" data-name="Layer 11" xmlns="http://www.w3.org/2000/svg" viewBox="0 0 314.01 288">
  <defs>
    <style>
      .cls-1 {
        fill: #1c5c7d;
      }
    </style>
  </defs>
  <path class="cls-1" d="M186.84,127.3c-.45-.2-.91-.3-1.37-.3-.29,0-.49.04-.53.05-.35.09-.42.18-.65.41-.19.21-.37.38-.53.5-.69.55-1.45.68-2.01.77-.16.03-.39.07-.5.1-.56.47-1.13.9-1.7,1.32-.92.69-1.79,1.33-2.48,2.11-.45.51-.99.95-1.51,1.38-.19.15-.37.3-.55.46-1,.86-1.97,1.74-2.93,2.62-1.21,1.1-2.46,2.25-3.76,3.33l-1.75,1.43-1.19.9c-.28.21-1.12.84-2.3.87-.05,0-.09,0-.14,0-.74,0-1.48-.34-1.97-.9-.28-.32-.71-1-.61-2.01,0,0,.01-.24.01-.24,0-.08,0-.16,0-.22l-.05-.81-.02-.51-.02-1.13c-.02-1.95,0-3.55.06-5.04.01-.3.03-.61.04-.92.03-.62.07-1.23.05-1.83l-.29-10.67c-.02-.9-.05-1.8-.07-2.7-.06-2.06-.13-4.18-.08-6.3.02-1,.63-1.9,1.56-2.29.16-.07.32-.16.4-.21.3-.23.41-.31.47-.34l.15-.1c.06-.05.12-.12.19-.19.19-.19.39-.38.56-.53,2.99-2.57,5.81-4.72,8.61-6.58,1.5-.99,2.84-1.97,4.1-2.98.8-.65,1.41-1.16,2-1.73.3-.27.6-.58.9-.9l.18-.19s.49-.6.51-.63c.03-.06.06-.12.1-.17.56-.88.76-2.22.47-3.33-.16-.7-.57-1.37-1.14-1.84-.55-.47-1.29-.78-2.03-.87-.22-.02-.43-.04-.65-.04-.16,0-.31,0-.46.03-.06,0-.11.01-.17.02-.18.01-.27.03-.35.05l-.36.09c-.12.03-.25.05-.36.09-.14.06-.28.12-.36.17l-.36.24-.18.13-.97.76c-1.04.85-1.99,1.74-2.98,2.69-.4.38-.8.76-1.23,1.16l-1.08.99c-.23.2-.74.65-1.06.89-.39.3-.76.53-1.13.69l-.04.03c-.32.27-.81.67-1.47.94-.29.12-.6.18-.91.18-.8,0-1.61-.38-2.12-1.01-.35-.43-.56-.97-.57-1.53l-.03-1.1v-.9s.02-1.02.02-1.02c.03-1.45.1-2.91.18-4.34.18-2.93.26-6.17.25-10.19,0-1.6-.08-3.25-.14-4.85-.07-1.54-.13-3.09-.15-4.64-.02-1.7,0-3.41.03-5.12l.05-2.57c.02-.59.07-1.82-.28-2.27-.33-.42-.86-.77-1.46-.99l-.19-.06c-.43-.14-.67-.22-.96-.25-.07,0-.15-.02-.22-.03-.16-.03-.33-.03-.62-.04-.1,0-.21,0-.31,0-.75.05-1.34.13-1.89.37-.04.02-.17.06-.21.08-.13.05-.46.26-.68.4l-.03.02-.09.08c-.2.17-.45.39-.51.5-.05.08-.1.15-.15.23-.32.42-.5,1.06-.54,1.9,0,.02,0,.14,0,.16l.03,1.73c.03,1.32.07,2.63.13,3.95.04.99.03,1.99,0,2.95,0,0-.04,2.34-.06,3.18-.03,1.37-.06,2.75-.06,4.12,0,.84.02,1.68.05,2.53.03.94.06,1.87.05,2.81-.01,1.99-.05,3.98-.09,5.96l-.04,2.05-.04,2.87-.04.99c-.02.21-.04.4-.07.66l-.03.16c-.06.31-.2.66-.36.93-.37.61-.99,1.04-1.69,1.18-.16.03-.33.05-.49.05-.54,0-1.08-.17-1.52-.5,0,0-.18-.14-.21-.16-.51-.42-.95-.94-1.28-1.51-.07-.13-.14-.25-.19-.35-.98-.93-1.87-1.71-2.73-2.39-1.15-.91-2.45-1.86-4.06-2.65-.36-.18-.75-.34-1.12-.46-.45-.15-.79-.25-1.37-.34-.23-.04-.46-.06-.7-.06-.64,0-1.29.14-1.88.41-.16.09-.3.19-.38.25-.44.38-.84.93-1.18,1.64-.3.64-.53,1.41-.58,2.01-.04.39.08.83.31,1.21.36.58,1.01,1.26,1.29,1.5,1.22,1.12,2.42,2.08,3.69,3.09.64.51,1.27,1.01,1.9,1.53.12.1.25.17.38.26.21.14.42.28.63.43,1.22.91,2.45,1.8,3.67,2.69,1.92,1.39,3.9,2.83,5.82,4.34l.79.64c.32.27.73.64.84.75,1.06,1,1.16,2.04,1.05,2.76v.25s-.03,1.02-.03,1.02l-.03,2.05c0,.82.05,1.65.1,2.54.02.42.11,1.98.11,1.98.03.58.06,1.16.07,1.75l.03,6.83c0,.53,0,1.07-.02,1.58-.12,2.05-.18,4.21-.17,6.42,0,1.07.02,2.14.05,3.13.03.48.08.94.14,1.58.05.4.12.99-.12,1.68,0,.09,0,.19,0,.31.05.99-.47,1.92-1.35,2.39-.38.2-.79.3-1.21.3-.54,0-1.07-.17-1.52-.5-.14-.11-.29-.19-.44-.29-.35-.22-.72-.46-1.13-.79l-.22-.17c-.36-.27-.85-.64-1.31-1.19-.01-.02-.03-.04-.04-.05-.07-.07-1.15-1.16-1.15-1.16-.48-.47-.97-.93-1.47-1.37-1.07-.95-2.09-1.72-3.11-2.36-.96-.6-1.96-1.46-2.84-2.22l-6.45-5.54c-.13-.11-.27-.22-.4-.34-.05-.05-.1-.09-.15-.14-.05-.02-.11-.03-.16-.05-.38-.14-.79-.22-1.17-.22-.24,0-.48.03-.72.1-.55.15-1.12.53-1.49,1.03-.39.5-.62,1.12-.69,1.75-.06.75.04,1.35.32,1.99.04.08.08.15.17.26.09.11.21.25.27.31l.36.37c.23.22.46.43.69.63.47.41.94.78,1.37,1.1,1.82,1.4,3.41,2.89,5.15,4.83.69.77,1.09,1.1,1.29,1.24,1.59,1.17,2.52,2.24,3.47,3.41,1.8,2.21,3.51,4.04,5.97,5.78.64.45,1.33,1.03,2.07,1.71l2.54,2.33,1.17,1.09.38.37c.49.47.77,1.12.78,1.8l.03,2.17.09,3.49c.09,2.74.11,5.53.13,8.23,0,1.43.02,2.87.04,4.28l.14,6.67.09,4v.32c-.01.37-.06.7-.14.98v.23c.02.93-.37,1.55-.71,1.91-.48.51-1.17.81-1.88.81-.35,0-.72-.08-1.06-.23-.52-.21-1.01-.5-1.57-.93l-.4-.32-.26-.21-.65-.57-2.55-2.27-.48-.42c-.72-.63-1.4-1.23-2.14-1.81l-.14-.11c-.44-.34-.82-.62-1.31-.91-.07-.04-.08-.05-.15-.09-.13-.07-.52-.24-.67-.3-.23-.09-.46-.13-.69-.19l-.23-.05c-.15-.02-.31-.04-.48-.04-.82,0-1.75.28-2.5.78-.62.39-1.17.98-1.55,1.65-.35.62-.57,1.42-.64,2.17-.01.27-.02.62.02.82.02.08.03.16.04.24.02.18.17.55.26.76.28.68.54,1.08.87,1.29.07.05.15.1.22.16,2.58,2.09,5.38,4.28,8.29,6.06.27.17.56.39.85.61l.21.16c2.7,2.06,5.19,3.91,7.69,5.73l.15.09c.06.04.12.07.18.12l.14.1c.45.32.79.78.96,1.32l.05.17s.1.37.1.39c.02.08.05.18.09.57l.16,1.65c.14,1.38.27,2.69.77,4.1.01.04.03.08.04.12.05.15.12.32.2.49l.14.33c.13.27.29.55.47.79.36.51,1.04.93,1.74,1.09.38.08.77.12,1.14.12.5,0,.97-.08,1.43-.24.49-.17.98-.69,1.33-1.49.07-.14.12-.28.16-.46,0,0,.13-.48.14-.52,0-.05.01-.09.02-.14.07-.48.11-.87.13-1.23l.12-2.47c.05-.83.16-1.7.31-2.38.02-.09.04-.18.07-.26.31-.92.83-1.47,1.32-1.79h0c.15-.15.31-.28.45-.4.2-.16.39-.33.63-.55,1.86-1.62,4.03-3.27,6.63-5.07.53-.37,1.06-.73,1.59-1.09,2-1.36,4.07-2.77,5.94-4.35l.21-.19c.31-.28.62-.56.93-.89l.68-.72.26-.32c.26-.32.48-.69.66-1.11.38-.88.53-1.76.42-2.66-.09-.89-.52-1.84-1.11-2.45-.6-.63-1.47-1.06-2.29-1.17-.28-.03-.57-.04-.77-.04-.13,0-.25.04-.37.06l-.36.07c-.12.03-.25.05-.32.07l-.77.3c-.24.09-.44.21-.73.37l-.28.16c-.31.17-.57.35-.84.54-.02.01-.11.07-.12.08-.18.12-.38.29-.61.49-.19.16-.37.32-.54.46-1.13.91-2.18,1.89-3.21,2.86l-1.55,1.42c-.42.39-.66.55-.72.59-.31.21-.6.38-.89.53-.07.04-.15.07-.23.1l-.31.12c-.3.12-.61.17-.93.17-.49,0-.97-.14-1.39-.41-.69-.45-1.12-1.2-1.16-2.02,0,0-.02-.42-.02-.47,0-.16,0-.3,0-.4l-.04-.36c0-.06-.01-.12-.01-.18l-.06-1.67c-.1-2.47-.17-5.09,0-7.48.17-2.34.2-4.64.24-7.07l.03-1.98.07-6.39.06-2.93.03-1.25c0-.16.02-.32.05-.47l.03-.15c.15-.71.6-1.33,1.23-1.69l3.53-2.85c.36-.29.73-.6,1.07-.92,2.54-2.41,5.25-4.73,7.86-6.98,1.13-.97,2.25-1.93,3.37-2.91.52-.46.97-.8,1.37-1.05,2.35-1.47,4.66-3.35,6.62-5,.04-.03.07-.06.11-.09.32-.24.64-.51.98-.79.54-.52.93-1.01,1.21-1.51.3-.53.51-1.2.6-1.88.05-.72-.02-1.38-.22-1.95-.43-1.3-1.41-2.12-2.13-2.44Z"/>
  <path class="cls-1" d="M313.94,236.38c-.1-2.72-.32-5.43-.58-8.13-.52-5.4-1.22-10.76-1.58-16.18-.3-4.52-.79-9.03-.9-13.56-.13-5.16-.02-10.31-.77-15.41-.39-2.65-.83-5.49-.6-8.11.57-6.71,0-13.06-1.72-19.17-1.13-4-1.05-7.97-.33-12.06.26-1.46.5-2.96.56-4.46.21-5.92.35-11.84.5-17.77.03-1.07.14-2.17,0-3.19-.82-6-.68-11.95-.38-18.08.51-10.47.37-21.01.56-31.52.03-1.63.34-3.25.52-4.88.18-1.64.49-3.27.52-4.91l.14-8.42.04-4.21c0-.16,0-.4,0-.6v-.62s-.04-1.24-.04-1.24c-.06-.83-.11-1.66-.2-2.48-.73-6.61-3.09-13.06-6.87-18.43-1.46-2.1-3.07-4.08-4.91-5.77-1.83-1.69-3.88-3.09-6.09-4-3.23-1.31-6.19-2.82-9.28-4.24-3.07-1.43-6.24-2.83-9.6-3.79-2.46-.72-5.03-1.3-7.62-1.59-2.31-.29-4.62-.52-6.93-.54-5.01-.04-10.05-.21-15.07-.04-3.97.07-7.94.32-11.87.97-.44.07-.89.12-1.35.15-1.48-.01-2.99-.11-4.47-.13-7.15-.1-14.3-.33-21.45-.34-2.3,0-4.61.05-6.91.12-1.31.03-2.61.07-3.92.11-2.48.06-4.95.09-7.42.02-4.65-.14-9.25-.42-13.88-.23-2.35.03-4.71.17-7.07.48-5.32.7-10.72,1.12-16.1,1.64-.17.02-.34.02-.52.03-.23,0-.45.01-.68.03-.66.01-1.32.01-1.98.05-.15,0-.3.01-.45.02-5.45,0-10.71-1.07-16.09-1.48-4.5-.34-8.98-1.05-13.31-1.93C106.8.67,97.64-.1,88.28.24c-1.92.04-3.85.12-5.79.25-.71.05-1.42.1-2.13.13-.63,0-1.25-.02-1.86-.07-4.09-.33-8.16-.7-12.19-.5-3.02.03-6.03.31-9.02,1.13-.09.03-.2.04-.3.05-.32-.01-.63-.02-.94,0-2.16.07-4.32.08-6.48.06l-1.62-.02h-.82s-.97,0-.97,0c-.59,0-1.18.02-1.77.05h-.17c-1.29,0-2.58.09-3.87.2-5.14.5-10.24,2.01-14.69,4.61-4.64,2.71-8.85,6.02-12.51,9.87-3.66,3.85-6.77,8.27-9.05,13.15-1,2.11-1.61,4.44-2.4,6.57-.16.45-.32.9-.47,1.36-.14.46-.26.92-.38,1.39-.26.93-.41,1.88-.57,2.82-.14.95-.22,1.91-.27,2.86-.01.48-.02.95-.03,1.43v.7s.02.59.02.59c.13,3.16.5,6.27,1.05,9.26.8,4.35.72,8.39.35,12.46-.45,5-.83,9.85-.23,14.91.34,2.86.51,6.04.09,8.83-.01,1.7-.04,3.4.02,5.1.11,3.02.86,5.68,1.63,8.54.13.49.14,1.01.14,1.51.02,1.74.04,3.48.06,5.22,0,.32,0,.64.11.94.09.26.24.5.39.73,3.87,6.09,4.33,14.62,2.88,21.5-1.11,5.28-1.32,10.64-1.8,15.95-.13.64-.26,1.27-.4,1.9-.29,1.32-.56,2.64-.8,3.97-.06.58-.11,1.15-.16,1.73-1.31,13.79-2.09,27.52-1.97,41.46.09,9.74.41,19.48.48,29.23.03,3.87.13,7.74.05,11.6-.02,2.17.04,4.43.22,6.65.19,2.23.47,4.46.82,6.73.35,2.11.97,4.33,1.88,6.43.91,2.1,2.13,4.08,3.52,5.73,3.5,4.17,7.39,7.76,11.66,10.84,4.27,3.08,8.92,5.65,13.99,7.6l1.38.48.7.23.71.2,1.43.38c.48.11.96.2,1.45.3.97.21,1.95.31,2.94.44.49.06.99.08,1.48.11l.74.04.37.02h.31c.97.04,1.94.06,2.91.06,2.05.02,4.11-.02,6.18-.1.89-.03,1.77-.06,2.66-.1.36-.02.73-.03,1.09-.04.79-.02,1.58-.03,2.38-.04,1.53,0,3.07.01,4.6.05,1.96.05,3.94.12,5.9.13.47,0,.94,0,1.4,0,.02-.02.03-.04.05-.06,3.19.04,6.36-.07,9.42-.76,2.05-.46,3.94-.87,6.12-.78,4.99.2,9.99.43,14.99.45,6.19.03,12.33.2,18.52.53,7.37.39,14.85-.18,22.29-.34,3.32-.07,6.65-.24,9.97-.18.27,0,.55.02.82.04-.05.05-.1.11-.15.16,1.82.19,3.64.49,5.44.44,2.47-.07,4.94-.15,7.41-.24,2.2-.08,4.4-.16,6.6-.24,7.45-.26,14.89-.47,22.36-.28-.02-.03-.04-.05-.06-.08,2.19.04,4.38.11,6.58.22,2.05.11,4.11.2,6.17.28.03.04.05.07.08.11,4.53.16,9.06.27,13.59.3,1.1,0,2.19-.02,3.29-.07,3.03-.08,6.07-.37,9.11-.56.36,0,.71.03,1.07.05,3.17.17,6.34.4,9.51.51.38.01.75.01,1.12.01-.09-.03-.17-.05-.25-.08-.01,0-.02,0-.03-.01.2,0,.41.02.61.03,4.09.13,7.35-.39,9.93-1.37.82.02,1.62.17,2.44.23,1.36.11,2.77-.34,4.15-.42,1.59-.09,3.18-.02,4.76.2.29.04.59.09.88.04.25-.04.49-.14.73-.2,1.17-.31,2.33.16,3.49.25,1.25.1,2.54.09,3.8.09.05,0,.09,0,.14,0,.8,0,1.6-.02,2.4-.06,2.55-.04,5.13-.31,7.75-.96,1.11-.25,2.19-.62,3.31-1.01,1.08-.44,2.2-.9,3.27-1.49,2.17-1.15,4.29-2.65,6.24-4.59,2.01-1.98,3.96-4.14,5.61-6.46,1.66-2.32,3-4.81,3.8-7.29,1.02-3.12,1.75-6.25,2.33-9.38.58-3.13,1.02-6.26,1.42-9.48.13-.89.18-1.78.23-2.67.05-.98.06-1.56.06-2.27.01-1.37-.01-2.74-.07-4.1ZM233,128.2c-.5,4.37-2.39,8.83-5.47,12.02-.72.74-1.5,1.49-2.24,2.07-.75.62-1.51,1.24-2.29,1.78-.77.57-1.56,1.12-2.35,1.63-.79.53-1.59,1.03-2.4,1.5-3.22,1.94-6.49,3.63-9.76,5.25-5.11,2.52-10.27,4.71-15.05,7.43-.87.51-1.75,1.01-2.57,1.58l-1.25.83-1.19.88c-.82.59-1.52,1.18-2,1.71-.5.56-.6.89-.63,1.2-.01.27.07.71.33,1.25.3.56.62,1.14.91,1.37.3.27.38.32.68.35.31.03.91-.08,1.61-.31.99-.33,2.14-.84,3.59-1.21.36-.08.79-.17,1.14-.21l1-.09,1-.08h1.02c2.71.04,5.53.7,7.97,2.11,2.45,1.4,4.39,3.52,5.77,5.83,1.39,2.32,2.23,4.86,2.68,7.41.2,1.09.33,2.19.42,3.29.21,3.4-.14,6.8-1.09,10.07-.48,1.63-1.08,3.24-1.88,4.76-.77,1.54-1.73,2.99-2.86,4.32-1.16,1.42-2.55,2.65-4.11,3.69-.82.56-1.53.93-2.25,1.33l-2.17,1.19-8.68,4.77c-2.34,1.3-4.65,2.69-6.99,4.01-1.01.57-2.13,1.17-3.09,1.63-4.06,1.92-8.16,3.89-12.06,5.65-1.49.7-2.54,1.88-3.12,2.03-.61.17-1.06.58-1.41,1.1-.15.22-.19,1.21-.06,1.75.1.41.16.84.22,1.26.35,2.41.63,4.89.6,7.32-.02,1.78-.04,3.56-.06,5.62.13,1.07.29,2.3.44,3.53.04.46.07.92.09,1.39.01.5.07.81,0,1.63-.13,1.42-.79,2.8-1.81,3.82-.99,1.03-2.46,1.69-3.79,1.83-.87.1-1.8.27-2.82.43-.72.1-1.45.22-2.34.22-.85.01-2.05-.14-3.03-.69-.98-.53-1.75-1.46-2.22-2.43-.2-.45-.4-.94-.49-1.34-.12-.43-.21-.85-.25-1.24-.19-1.27-.15-2.37-.16-3.42l.07-3.14.17-6.18c.04-2.8.09-5.66-.11-8.29l-.04-.49-.04-.24c-.04-.15-.09-.31-.17-.45-.15-.29-.39-.54-.67-.73l-3.57-1.96c-5.15-2.8-10.18-5.6-15.23-8.56-3.83-2.25-7.91-4.41-11.88-6.62l-2.65-1.51-2.89-1.61.19.09c-1.67-.76-3.23-1.75-4.61-2.93-1.34-1.22-2.52-2.59-3.51-4.06-1.93-2.98-3.17-6.29-3.8-9.69-.79-4.25-.76-8.64.33-12.89.31-1.24.72-2.46.94-2.95.32-.8.65-1.4.94-1.92.26-.53.55-.94.81-1.36,1.82-3.05,4.85-5.61,8.42-6.71,1.78-.51,3.62-.75,5.42-.66.91,0,1.98.18,2.85.44.9.26,1.71.58,2.43.85,1.23.48,2.19.73,2.9.62.37-.03.72-.18,1.11-.35l.3-.17c.11-.05.19-.11.23-.15.12-.07.2-.18.3-.27.29-.37.54-.94.54-1.61.04-.66-.17-1.33-.47-1.81-.17-.22-.32-.43-.53-.55l-.11-.08-.37-.21-.75-.42-2.98-1.68c-8.71-4.93-17.24-9.99-25.6-15.18-.86-.51-1.76-1.04-2.63-1.56-.85-.51-1.67-1.04-2.47-1.58l-.31-.18c-.1-.06-.3-.17-.43-.27-.3-.2-.57-.43-.82-.67-.25-.24-.47-.5-.68-.76l-.42-.54c-.54-.7-1.13-1.39-1.75-2.09-1.23-1.4-2.57-2.88-3.74-4.65-1.16-1.77-2.05-3.93-2.26-6.15-.09-.55-.07-1.1-.09-1.65,0-.54.06-1.06.09-1.59.02-.53.08-1.05.2-1.57.11-.52.18-1.05.32-1.56.55-2.06,1.5-4.02,2.73-5.76,1.23-1.75,2.85-3.19,4.58-4.38,1.74-1.2,3.69-2.05,5.7-2.61,1-.32,2.03-.46,3.05-.64,1.03-.08,2.07-.21,3.11-.16l-.04-.08c.9,0,1.8.19,2.66.27.81.06,1.79.29,2.59.55.83.26,1.6.59,2.34.93,1.47.68,2.79,1.43,4.06,2.03,1.99.93,3.8,1.46,5.4.94.81-.23,1.67-.64,2.32-1.22.67-.57,1.19-1.26,1.54-2.05.92-1.98.49-4.48-.9-6.27-.17-.23-.38-.43-.56-.65l-.72-.65c-.45-.45-1.04-.83-1.57-1.25-1.13-.79-2.34-1.53-3.6-2.24-4-2.24-8.39-4.2-12.6-6.85-1.62-1.08-3.25-2.18-4.73-3.63-.39-.33-.73-.73-1.08-1.12-.34-.4-.71-.76-1.01-1.22l-.91-1.33-.69-1.38c-1.48-2.96-2.35-6.4-2-9.83.3-3.41,1.62-6.7,3.71-9.37,1.8-2.26,4.08-4.19,6.74-5.36,2.64-1.17,5.53-1.8,8.42-1.71.64-.02,1.27.12,1.91.18.63.1,1.29.1,1.89.31,1.22.37,2.45.58,3.68,1.17,2.31,1.07,4.18,2.28,6.08,3.22,1.19.59,2.36,1.09,3.39,1.27,1.04.2,1.78.03,2.45-.47.39-.31.59-.64.75-1.25.15-.6.17-1.43.13-2.32-.04-.9-.13-1.89-.17-2.98-.02-.54-.02-1.12.03-1.74.05-.61.14-1.07.21-1.61.59-4.16,1.91-8.35,4.28-12.03,3.1-4.92,8.13-8.6,13.65-10.33.79-.28,1.59-.49,2.41-.69.8-.23,1.63-.34,2.45-.46,2.05-.24,4.1-.22,6.15.01,1.93.16,3.84.59,5.71,1.12,2.13.66,4.17,1.6,6.1,2.75,1.91,1.18,3.66,2.63,5.23,4.25,4.18,4.4,6.68,10.48,6.47,16.47-.04,1.98-.12,3.8.02,5.44.08.79.2,1.58.42,2.12.21.56.45.89.66,1.06.2.13.73.32,1.22.34.52.04,1.18-.1,1.87-.3,1.41-.45,2.96-1.28,4.59-2.21,1.41-.78,2.84-1.67,4.67-2.41,1.8-.67,3.53-1.15,5.43-1.35,3.72-.49,7.72.2,11.12,2.05,3.9,2.1,6.94,5.63,8.54,9.72,1.62,4.08,1.76,8.81.24,13.01-.7,1.97-1.72,3.81-2.97,5.44-.39.47-.78.96-1.19,1.41l-1.29,1.3-1.38,1.18c-.46.37-.9.69-1.35,1.03-1.81,1.32-3.67,2.5-5.53,3.6-1.21.72-2.51,1.3-3.76,1.97-2.2,1.19-4.37,2.34-6.46,3.56-1.05.6-2.06,1.24-3.05,1.88l-1.3.89-.14.13c-.11.18-.25.34-.35.53-.65,1.06-.81,2.4-.75,3.55.06,1,.37,1.88.89,2.53.13.17.27.32.44.47.15.15.43.32.64.49.22.19.44.29.66.41l.32.18.32.1c.63.24,1.24.3,2.01.18.76-.11,1.63-.37,2.59-.79,1.93-.79,4.02-2.06,6.64-2.98,2.28-.79,4.52-1.1,6.84-1.12,2.31,0,4.62.44,6.65,1.27,4.74,1.88,8.59,5.51,10.73,9.95.75,1.56,1.39,3.26,1.77,5l.13.42c.24,1.5.41,3.25.21,4.52Z"/>
</svg>