<?xml version="1.0" encoding="UTF-8"?>
<svg id="Layer_11" data-name="Layer 11" xmlns="http://www.w3.org/2000/svg" viewBox="0 0 252 214.14">
  <defs>
    <style>
      .cls-1 {
        fill: #1c5c7d;
      }
    </style>
  </defs>
  <path class="cls-1" d="M74.01,120.59c-.15-.3-.35-.51-.54-.64-.2-.14-.37-.21-.53-.25-.35-.11-.64-.03-.78.1,0,0-.01.02-.02.03-.07,0-.13,0-.21,0-.06,0-.12.02-.19.04-.03-.01-.06-.03-.08-.05-.2-.21-.6-.3-1.49.04-1.3.51-2.45,1.02-3.74,2.01-.66.51-1.36,1.05-1.91,1.59-.69.69-1.36,1.36-2.13,2-1.68,1.4-3.06,2.98-4.54,4.5-.61.64-1.21,1.29-1.83,1.91-.71.72-1.43,1.42-2.09,2.16-.34.39-.71.8-1.09,1.15-.97.88-1.82,1.77-2.57,2.7-.49.61-1.07,1.13-1.7,1.61-.23.17-.46.35-.68.54l-2.63,2.25c-.16.13-.33.27-.47.41-.83.83-1.71,1.59-2.61,2.39-1.54,1.35-3.01,2.84-4.41,4.33-.22.23-.46.44-.68.66-.23.22-.47.44-.69.67-1.5,1.6-2.99,3.22-4.39,4.9-.54.66-1.09,1.31-1.52,1.99-.62,1-1.47,1.9-2.3,2.81-.62.66-1.24,1.31-1.82,2.01-1.03,1.26-2.08,2.53-2.96,3.89-.26.4-.6.81-.91,1.21-.84,1.12-1.68,2.24-2.49,3.38-.68.98-1.32,1.99-1.98,2.97-.7,1.03-1.39,2.06-1.95,3.18-.47.93-.95,1.88-1.4,2.83-.09.18-.19.37-.28.56-.53,1.12-1.15,2.12-1.66,3.22-.37.8-.77,1.6-1.12,2.38-.85,1.85-1.48,3.9-1.53,6.11-.02.4.01.83,0,1.23.03.68.07,1.37.28,2.04.08.34.23.66.37.98.08.16.17.31.26.45.09.15.18.3.3.42.14.15.25.38.41.56l.48.52.53.46c.36.28.74.54,1.15.77.81.45,1.76.74,2.72.71.99-.02,1.96-.25,2.83-.65.87-.39,1.67-.89,2.4-1.45.32-.24.62-.52.92-.76,1-.81,1.84-1.81,2.51-2.79.49-.71.98-1.34,1.49-1.95.62-.76,1.2-1.5,1.75-2.32.32-.48.69-1,1.05-1.43.89-1.04,1.57-2.22,2.39-3.3.04-.05.04-.13.07-.21.46-1.19,1.27-2.5,2.18-3.58.88-1.04,1.65-2.19,2.49-3.26.75-.96,1.46-2.06,2.17-3.1.9-1.32,1.79-2.64,2.67-3.97l3.14-4.75c.84-1.25,1.66-2.52,2.6-3.7.44-.55.91-1.19,1.27-1.8.92-1.53,1.9-2.96,2.97-4.35.77-1,1.48-2.05,2.17-3.13.35-.55.71-1.09,1.08-1.63.55-.8,1.12-1.61,1.56-2.44.19-.36.36-.68.6-1.04.55-.8,1.11-1.6,1.65-2.42.67-1.01,1.34-2,2.02-2.99.82-1.18,1.57-2.43,2.35-3.66.35-.55.69-1.1,1.04-1.64.27-.41.59-.8.85-1.21,1.43-2.29,2.8-4.6,4.3-6.85.77-1.15,1.52-2.32,2.25-3.49l.3-.49.13-.22.14-.21c.2-.29.43-.6.66-.91.07-.09.14-.18.22-.27.39-.5.8-1.02,1.1-1.68.15-.34.27-.69.29-1.05.03-.36-.04-.74-.19-1.03Z"/>
  <path class="cls-1" d="M66.56,115.95c0-.11-.01-.21-.02-.32-.07-.59-.37-1.19-.84-1.58-.47-.4-.97-.55-1.35-.57-.39-.05-.68.05-.9.13-.23.12-.38.26-.46.41-.05,0-.1,0-.15,0-.04,0-.09.01-.13.02-.02-.02-.05-.04-.06-.06-.13-.24-.37-.43-1.07-.41-1.03.04-2,.14-3.06.6-.54.24-1.11.45-1.55.69-.27.15-.6.3-.9.43-.31.13-.64.25-.97.35-1.49.42-2.84,1.05-4.27,1.58-.59.22-1.18.45-1.78.66-.68.23-1.37.44-2.03.73-.34.15-.71.31-1.06.4-.91.24-1.74.57-2.5.99-.5.27-1.03.45-1.59.57-.2.04-.41.09-.61.15-.79.26-1.58.51-2.37.78-.14.05-.29.09-.42.15-.77.35-1.55.63-2.37.91-1.39.48-2.77,1.02-4.14,1.58-.21.09-.43.15-.65.22-.22.07-.44.14-.65.23-1.46.6-2.91,1.25-4.3,1.99-.54.29-1.08.59-1.54.95-.66.55-1.48.91-2.27,1.29-.59.28-1.19.53-1.75.87-.51.3-1.01.6-1.5.94-.25.16-.49.33-.73.5-.23.18-.46.37-.68.56-.26.23-.6.42-.88.64-.4.3-.81.6-1.21.91l-1.17.96c-.64.58-1.26,1.19-1.86,1.8-.33.31-.64.64-.94.97-.15.17-.3.34-.44.51-.14.17-.27.36-.39.55-.2.32-.43.62-.63.95l-.59.98c-.08.12-.16.25-.23.38-.44.77-.94,1.47-1.35,2.25-.15.29-.3.57-.44.86-.15.28-.29.57-.42.86-.32.68-.58,1.4-.73,2.16-.15.76-.23,1.56-.14,2.37.03.3.07.6.1.9.1.98.41,2.02,1.12,2.77.09.11.21.26.32.39.46.51.99.97,1.6,1.29.6.31,1.25.55,1.91.62,1.37.18,2.71.09,4.02-.11.14-.02.28-.05.43-.07.14-.03.28-.06.42-.08.92-.13,1.8-.47,2.56-.87.28-.14.55-.26.82-.37.27-.11.55-.2.82-.31.66-.26,1.31-.52,1.93-.87.35-.23.75-.46,1.13-.62.46-.2.9-.42,1.31-.69.41-.27.81-.55,1.24-.79.04-.02.06-.09.1-.13.15-.18.32-.36.5-.53.18-.18.37-.35.57-.51.4-.32.85-.61,1.3-.84.88-.46,1.67-1.07,2.51-1.57.74-.48,1.47-1.08,2.19-1.64.89-.73,1.79-1.45,2.65-2.21,1.03-.9,2.04-1.82,3.05-2.74.81-.73,1.58-1.48,2.46-2.11.41-.3.85-.66,1.2-1.03.88-.93,1.81-1.75,2.82-2.51.72-.54,1.4-1.14,2.07-1.77.34-.32.69-.62,1.04-.92.53-.46,1.09-.87,1.53-1.38.19-.22.37-.41.61-.6l1.65-1.26c.68-.53,1.37-1.03,2.08-1.52.84-.58,1.66-1.24,2.49-1.85.37-.27.74-.56,1.12-.82.29-.2.61-.36.89-.57,1.56-1.15,3.08-2.33,4.69-3.43.41-.28.82-.57,1.22-.86l.18-.13c.08-.06.14-.13.19-.18l.29-.31c.18-.23.37-.44.51-.71.33-.55.53-1.23.48-1.94Z"/>
  <path class="cls-1" d="M251.91,19.43c-.1-.4-.25-.79-.45-1.14-.41-.7-.98-1.27-1.66-1.68-.66-.4-1.36-.65-2.05-.84-2.03-.54-4.11-.66-6.09-.72-3.31-.08-6.59.17-9.81.48-3.23.31-6.43.72-9.58,1.26-.91.14-2.1.33-3.16.49-4.3.71-8.58,1.55-12.82,2.61-4.23,1.07-8.42,2.28-12.55,3.73-1.08.38-2.15.78-3.22,1.19l-1.6.63c-.5.2-1.18.49-1.31.54-.07.06-.12-.03-.17-.06l-.16-.13-.67-.55-1.36-1.06-1.4-1.02c-.48-.32-.95-.66-1.44-.97-3.87-2.52-8.19-4.45-12.74-5.42-1.96-.42-4.04-.65-5.97-.72-.81-.03-1.62-.05-2.44-.08-.81-.01-1.63.05-2.44.07l-1.22.05c-.4.03-.81.09-1.21.13-.8.1-1.61.17-2.41.29-1.58.3-3.16.55-4.68,1-1.54.36-2.99.92-4.43,1.42-4.13,1.6-7.76,3.61-11.09,6.09-.27.17-.51.38-.75.58l-.73.6c-.48.41-.99.79-1.45,1.22l-1.36,1.31-.68.66c-.23.21-.42.46-.64.69-.83.95-1.71,1.86-2.44,2.9-.38.51-.76,1.02-1.14,1.53-.37.52-.69,1.07-1.04,1.61-.2.32-.4.64-.61.96-.1.16-.21.32-.31.49l-.28.51c-.37.68-.75,1.38-1.12,2.07-.39.68-.7,1.43-1,2.12-.29.7-.58,1.38-.86,2.04-.69,1.61-1.36,3.22-2.17,4.72-.41.75-.85,1.47-1.35,2.12-.5.64-1.08,1.21-1.74,1.51-.71.27-1.51.52-2.3.53-.8.03-1.6-.08-2.39-.31-.78-.24-1.55-.57-2.31-.96-.75-.39-1.49-.83-2.22-1.29-.28-.17-.61-.33-.96-.51-.7-.39-1.45-.78-2.22-1.14-.76-.36-1.54-.73-2.33-1.11-1.58-.77-3.21-1.56-4.87-2.37-3.31-1.62-6.69-3.32-9.9-4.98-6.22-3.21-12.64-6.31-18.82-9.51-5.57-2.88-11.55-5.93-17.26-9.07-3.59-1.98-7.17-4.01-10.68-6.12-3.5-2.13-6.93-4.39-10.37-6.63-2.05-1.34-4.11-2.67-6.19-3.96-1.04-.65-2.08-1.29-3.16-1.91-1.09-.6-2.2-1.16-3.34-1.65-1.15-.49-2.33-.9-3.55-1.21C10.01.16,8.75-.03,7.46,0c-.64,0-1.29.1-1.93.24-.63.18-1.26.39-1.84.73-.59.32-1.1.76-1.55,1.25-.21.26-.44.5-.6.79l-.27.42-.22.44c-.46.94-.73,1.93-.88,2.93C.03,7.81-.03,8.81.01,9.81c.06,1.99.39,3.95.84,5.86.28.95.49,1.93.87,2.84.18.46.33.93.53,1.38l.62,1.34c.11.22.2.45.32.67l.36.65.71,1.29.79,1.24c.26.42.52.83.81,1.22,2.09,3.01,4.95,6.07,7.85,8.37,1.84,1.42,3.75,2.74,5.77,3.86,2.04,1.1,4.14,2.02,6.39,2.68,1.14.27,2.22.47,3.3.74.53.14,1.08.28,1.52.47.06.02.11.05.16.08,0,.02.01.04.01.05.01.06.01.11,0,.13-.03.02-.22.06-.42.05l-.82-.04c-.55-.04-1.1-.09-1.65-.16-1.1-.13-2.2-.31-3.32-.49-1.6-.25-3.25-.47-4.95-.48-1.69-.02-3.43.25-5.06.85-.41.13-.8.33-1.2.5-.39.21-.78.4-1.15.65-.75.48-1.45,1.08-2.01,1.82-.57.73-.98,1.6-1.18,2.51-.21.91-.22,1.84-.09,2.73.26,1.81,1,3.45,1.91,4.94.92,1.49,2.04,2.83,3.29,4.04,3.84,3.53,8.63,5.83,13.33,7.15,2.02.55,3.91.95,6.11,1.29,2.52.38,5.07.54,7.63.43l.96-.05c.37-.03.68-.09,1-.15.63-.12,1.25-.24,1.86-.37.61-.12,1.22-.25,1.83-.35.3-.05.6-.1.89-.13.15-.02.29-.03.42-.03.07,0,.12,0,.17,0h0s-.06.05-.1.07c-.05.03-.12.07-.21.11l-.25.12-.5.23-.52.2c-.34.14-.71.25-1.07.37-1.44.47-2.95.82-4.46,1.28-1.5.45-3.03.99-4.44,1.84-1.41.84-2.69,2.05-3.47,3.55-.48.88-.82,1.86-.93,2.89-.11,1.03,0,2.09.34,3.06.68,1.95,2,3.52,3.45,4.8,1.47,1.28,3.1,2.32,4.81,3.2.85.44,1.73.83,2.62,1.18.9.33,1.79.65,2.72.91,1.64.47,3.33.81,5.04.97,1.71.17,3.42.16,5.12.03,2.59-.21,5.13-.63,7.6-1.18.86-.19,1.68-.37,2.56-.59.86-.23,1.7-.49,2.53-.75l1-.31.51-.15c.35-.09.7-.19,1.08-.21.18,0,.39.02.52.16.07.07.05.18,0,.25-.04.08-.11.14-.19.18-.31.17-.66.3-1,.44l-.52.21-.32.14c-.22.1-.42.22-.61.33-.79.44-1.55.95-2.24,1.55-1.39,1.19-2.53,2.78-2.98,4.64-.47,1.85-.11,3.86.78,5.49.9,1.65,2.26,2.96,3.77,3.96,1.53,1,3.18,1.71,4.85,2.3,3.44,1.19,7.02,1.81,10.61,2.16,3.59.34,7.21.34,10.81.1,3.95-.29,7.89-.94,11.72-2.01.57-.15,1.14-.33,1.71-.5,1.54-.49,3.07-1.06,4.54-1.75,1.47-.69,2.91-1.53,4.22-2.51,1.35-1,2.49-2.08,3.41-3.17.93-1.09,1.64-2.17,2.24-3.15,1.19-1.98,2.02-3.59,2.7-4.85.65-1.24,1.22-2.07,1.78-2.52.03-.03.07-.05.1-.07.35-.15.7-.17,1.03.04.08.05.24.62.24.77,0,.03,0,.07,0,.11-.04.16-.1.3-.14.36-.42.58-.99,1.85-2.83,6.03-1.35,3.06-3.02,5.74-5.21,8.23-.28.31-.54.63-.83.94-.3.29-.6.59-.9.89-.59.62-1.27,1.17-1.93,1.76-.33.3-.7.56-1.06.84-.36.28-.73.56-1.1.84-.39.26-.79.53-1.19.79-.2.13-.4.27-.61.41-.21.12-.43.25-.64.38-.44.26-.88.53-1.34.78-.46.23-.93.47-1.39.7-.46.25-.94.44-1.42.65-.48.2-.95.43-1.44.6-.98.35-1.94.73-2.91,1-.48.14-.95.31-1.43.42-.48.12-.95.24-1.41.36-2.33.55-4.68.93-7.09,1.1-1.21.1-2.42.14-3.69.21-1.26.08-2.58.18-3.93.56-1.49.4-2.86,1.18-4,2.1-1.15.92-2.15,1.95-3.07,3-1.84,2.1-3.5,4.28-5.1,6.49-1.6,2.21-3.13,4.45-4.64,6.7-1.51,2.25-3.01,4.52-4.5,6.8-2.48,3.81-4.89,7.66-7.29,11.53-2.74,4.41-5.44,8.83-8.02,13.25-1.34,2.3-2.77,4.77-4.13,7.03-1.75,2.88-3.42,5.71-5.03,8.48-1.6,2.78-3.19,5.45-4.77,8.09-2.06,3.45-4.22,6.82-6.32,10.35-.77,1.24-1.6,2.53-2.2,3.97-.29.71-.55,1.45-.65,2.25-.11.79-.06,1.66.31,2.44.18.39.43.74.72,1.04.3.29.63.55.99.75.72.41,1.53.61,2.31.69,1.58.14,3.11-.13,4.58-.47.74-.18,1.46-.38,2.18-.58l2.16-.68c1.01-.38,2.08-.76,3.01-1.21,5.55-2.55,10.53-6.03,15.24-10.03,4.03-3.43,7.74-7.23,11.22-11.23,3.47-4.01,6.73-8.21,9.76-12.55.95-1.34,1.88-2.68,2.79-4.04.92-1.37,1.82-2.75,2.69-4.15,1.48-2.41,2.9-4.86,4.25-7.36.68-1.26,1.29-2.56,1.87-3.84.59-1.28,1.15-2.56,1.89-3.66.73-1.11,1.67-2.02,2.85-2.63,1.16-.63,2.49-.98,3.83-1.24,2.72-.51,5.53-.79,8.32-1.11,2.18-.24,4.37-.48,6.51-.86,2.14-.38,4.23-.88,6.2-1.54,5.69-2.03,11.57-4.51,17.06-7.67l1.51-.88c.5-.29,1.01-.58,1.49-.91l2.92-1.93c.5-.31.95-.68,1.42-1.02l1.4-1.05,1.4-1.06,1.33-1.14c.79-.69,1.61-1.36,2.39-2.07l2.28-2.2c.37-.37.78-.72,1.13-1.11l1.08-1.16,1.08-1.16c.35-.39.73-.76,1.06-1.18,1.34-1.63,2.72-3.23,3.93-4.95l.93-1.27c.31-.42.62-.84.9-1.29.57-.88,1.14-1.76,1.7-2.64.17-.26.34-.52.51-.78.16-.27.32-.55.48-.82.33-.55.66-1.12,1-1.69.34-.57.68-1.14,1.01-1.71.31-.59.62-1.17.93-1.75l1.26-2.39,1.15-2.45.57-1.22c.19-.41.39-.82.55-1.24l1.03-2.5c1.38-3.33,2.53-6.76,3.55-10.21,1.72-5.89,3-11.91,4.18-17.9,1.24-6.28,2.34-12.51,3.51-18.79.11-.66.26-1.3.41-1.94.07-.32.19-.63.28-.95l.14-.47.18-.46c.13-.3.23-.62.38-.91l.43-.89c.33-.57.66-1.14,1.06-1.67.78-1.06,1.71-2.02,2.73-2.88,1.03-.85,2.15-1.58,3.31-2.26.89-.53,1.86-1,2.81-1.46,5.72-2.71,11.46-4.62,17.43-6.12,4.36-1.11,8.8-1.87,13.09-2.41,2.55-.31,5.12-.56,7.71-.77.65-.05,1.29-.09,1.94-.14.64-.05,1.26-.06,1.91-.07,1.29-.01,2.62,0,3.95-.05,1.34-.05,2.69-.16,4.06-.46.68-.15,1.37-.35,2.04-.66.67-.3,1.33-.73,1.86-1.32.53-.59.93-1.37,1.02-2.21.04-.42.02-.84-.07-1.25ZM31.24,42.23s0,0,0,0c.16-.05.11-.04,0,0ZM48.49,67.23s0-.02.01-.03c.02-.05.05-.11.08-.16l.02-.04s-.05.1-.11.23ZM166.81,38.72c-8.19,1.4-8.75-10.14-.98-10.54,6.89-.35,7.24,9.47.98,10.54Z"/>
</svg>