<?xml version="1.0" encoding="UTF-8"?>
<svg id="Layer_11" data-name="Layer 11" xmlns="http://www.w3.org/2000/svg" viewBox="0 0 314.01 288">
  <defs>
    <style>
      .cls-1 {
        fill: #1c5c7d;
      }
    </style>
  </defs>
  <path class="cls-1" d="M313.94,236.38c-.1-2.72-.32-5.43-.58-8.13-.52-5.4-1.22-10.76-1.58-16.18-.3-4.52-.79-9.03-.9-13.56-.13-5.16-.02-10.31-.77-15.41-.39-2.65-.83-5.49-.6-8.11.57-6.71,0-13.06-1.72-19.17-1.13-4-1.05-7.97-.33-12.06.26-1.46.5-2.96.56-4.46.21-5.92.35-11.85.5-17.77.03-1.07.14-2.17,0-3.19-.82-6-.68-11.95-.38-18.08.51-10.47.37-21.01.56-31.52.03-1.63.34-3.25.52-4.88.18-1.64.49-3.27.52-4.91l.14-8.42.04-4.21c0-.16,0-.4,0-.6v-.62s-.04-1.24-.04-1.24c-.06-.83-.11-1.66-.2-2.48-.73-6.61-3.09-13.06-6.87-18.43-1.46-2.1-3.07-4.08-4.91-5.77-1.83-1.69-3.88-3.09-6.09-4-3.23-1.31-6.19-2.82-9.28-4.24-3.07-1.43-6.24-2.83-9.6-3.79-2.47-.72-5.03-1.3-7.62-1.59-2.31-.29-4.62-.52-6.93-.54-5.01-.04-10.05-.21-15.07-.04-3.97.07-7.94.32-11.87.97-.44.07-.89.12-1.35.15-1.48-.01-2.99-.11-4.47-.13-7.15-.1-14.3-.33-21.45-.34-2.3,0-4.61.05-6.91.12-1.31.03-2.61.07-3.92.11-2.48.06-4.95.09-7.42.02-4.65-.14-9.26-.42-13.88-.23-2.35.03-4.71.17-7.07.48-5.32.7-10.72,1.12-16.1,1.64-.17.02-.34.02-.52.03-.23,0-.45.01-.68.03-.66.01-1.32.01-1.98.05-.15,0-.3.01-.45.02-5.45,0-10.71-1.07-16.09-1.48-4.5-.34-8.98-1.05-13.31-1.93C106.8.67,97.64-.1,88.28.24c-1.92.04-3.85.12-5.79.25-.71.05-1.42.1-2.13.13-.63,0-1.25-.02-1.86-.07-4.09-.33-8.16-.7-12.19-.5-3.03.03-6.03.31-9.02,1.13-.09.03-.2.04-.3.05-.32-.01-.63-.02-.94,0-2.16.07-4.32.08-6.48.06l-1.62-.02h-.82s-.97,0-.97,0c-.59,0-1.18.02-1.77.05h-.17c-1.29,0-2.58.09-3.87.2-5.14.5-10.24,2.01-14.69,4.61-4.64,2.71-8.85,6.02-12.51,9.87-3.66,3.85-6.77,8.27-9.05,13.15-1,2.11-1.61,4.44-2.4,6.57-.16.45-.32.9-.47,1.36-.14.46-.26.92-.38,1.39-.26.93-.41,1.88-.57,2.82-.14.95-.22,1.91-.27,2.86-.01.48-.02.95-.03,1.43v.7s.02.59.02.59c.13,3.16.5,6.27,1.05,9.26.8,4.35.72,8.39.35,12.46-.45,5-.83,9.85-.23,14.91.34,2.86.51,6.04.09,8.83-.01,1.7-.04,3.4.02,5.1.11,3.02.86,5.68,1.63,8.54.13.49.14,1.01.14,1.51.02,1.74.04,3.48.06,5.22,0,.32,0,.64.11.94.09.26.24.5.39.73,3.87,6.09,4.33,14.62,2.88,21.5-1.11,5.28-1.32,10.64-1.8,15.95-.13.64-.26,1.27-.4,1.9-.29,1.32-.56,2.64-.8,3.97-.05.58-.11,1.15-.16,1.73-1.31,13.79-2.09,27.52-1.97,41.46.09,9.74.41,19.48.48,29.23.03,3.87.13,7.74.05,11.6-.02,2.17.04,4.43.22,6.65.19,2.23.47,4.46.82,6.73.35,2.11.97,4.33,1.88,6.43.91,2.1,2.13,4.08,3.52,5.74,3.5,4.17,7.39,7.76,11.66,10.84,4.27,3.08,8.92,5.65,13.99,7.6l1.38.48.7.23.71.2,1.43.38c.48.11.96.2,1.45.3.97.21,1.95.31,2.94.44.49.06.99.08,1.48.11l.74.04.37.02h.31c.97.04,1.94.06,2.91.06,2.05.02,4.11-.02,6.18-.1.89-.03,1.77-.06,2.66-.1.36-.02.73-.03,1.09-.04.79-.02,1.58-.03,2.38-.04,1.53,0,3.07.01,4.6.05,1.96.05,3.94.12,5.9.13.47,0,.94,0,1.4,0,.02-.02.03-.04.05-.06,3.19.04,6.36-.07,9.42-.76,2.05-.46,3.94-.87,6.12-.78,4.99.2,9.99.43,14.99.45,6.19.03,12.33.2,18.52.53,7.37.39,14.85-.18,22.29-.34,3.32-.07,6.65-.24,9.97-.18.27,0,.55.02.82.04-.05.05-.1.11-.15.16,1.82.19,3.64.49,5.44.44,2.47-.07,4.94-.15,7.41-.24,2.2-.08,4.4-.16,6.6-.24,7.45-.26,14.89-.47,22.36-.28-.02-.03-.04-.05-.06-.08,2.19.04,4.38.11,6.58.22,2.05.11,4.11.2,6.17.28.03.04.05.07.08.11,4.53.16,9.06.27,13.59.3,1.1,0,2.19-.02,3.29-.07,3.03-.08,6.07-.37,9.11-.56.36,0,.71.03,1.07.05,3.17.17,6.34.4,9.51.51.38.01.75.01,1.12.01-.09-.03-.17-.05-.25-.08-.01,0-.02,0-.03-.01.2,0,.41.02.61.03,4.09.13,7.35-.39,9.93-1.37.82.02,1.62.17,2.44.23,1.36.11,2.77-.34,4.15-.42,1.59-.09,3.18-.02,4.76.2.29.04.59.09.88.05.25-.04.49-.14.73-.2,1.17-.31,2.33.16,3.49.25,1.25.1,2.54.09,3.8.09.05,0,.09,0,.14,0,.8,0,1.6-.02,2.4-.06,2.55-.04,5.13-.31,7.75-.96,1.11-.25,2.19-.62,3.31-1.01,1.08-.44,2.2-.9,3.27-1.49,2.17-1.15,4.29-2.65,6.24-4.59,2.01-1.98,3.96-4.14,5.62-6.46,1.66-2.32,3-4.81,3.8-7.29,1.02-3.12,1.74-6.25,2.33-9.38.58-3.13,1.02-6.26,1.42-9.48.13-.89.18-1.78.23-2.67.05-.98.06-1.56.06-2.27.01-1.37-.01-2.74-.07-4.1ZM258.52,175.17c.2-.07.38-.16.56-.23l3.48-1.54c1.23-.53,2.48-1.03,3.73-1.54.51-.21,1-.46,1.51-.68.22-.09.47-.18.69-.22.93-.17,1.87-.33,2.79-.38.35-.01.7.08.87.21.47.36,1.76-1.06,2.6-1.09.38-.01.77,0,1.21,0,.23-.07.5-.15.78-.22.82-.14,1.64.14,2.44.35.55.15,1.15.2,1.7.38.85.27,1.69.67,2.47,1.07.55.28,1.1.57,1.7,1.02l.23.18.26.25c.19.16.32.36.48.54.27.39.48.82.54,1.29.17.99-.42,1.92-1.11,2.59-.16.15-.38.32-.57.48-.22.1-.5.21-.59.25l-.83.31c-.85.3-1.69.72-2.53,1.08l-.57.23-4.19,1.84-2.23,1.02c-.21.1-.43.21-.51.25-.3.11-.47.17-.63.25-1.16.56-2.32,1.13-3.46,1.71-.48.25-.93.54-1.41.8-.81.43-1.64.86-2.46,1.27-1.81.91-3.65,1.72-5.53,2.41-.19.07-.38.17-.57.25-.19.08-.37.14-.57.19l-8.32,3.96.03.04c-.16.06-.33.09-.47.17-.54.29-1.07.61-1.61.89l-2.58,1.31-3.25,1.65-2.59,1.27-2.02.98-3.28,1.56-2.81,1.32-2.47,1.25c-.53.26-1.1.44-1.61.71-1.43.74-2.85,1.47-4.28,2.21-.95.47-1.93.9-2.9,1.36-.28.13-.54.31-.81.43-.61.31-1.23.57-1.81.76-.55.18-1.08.28-1.55.26-.45-.03-.88-.14-1.28-.48-.41-.37-.49-.73-.6-1.13-.01-.15-.02-.29-.03-.45-.04-.77.25-1.78.48-2.73.08-.31.16-.61.23-.91.07-.26.15-.52.23-.76.12-.35.23-.72.32-1.04l.05-.23.06-.28.11-.56c.13-.73.24-1.46.29-2.11.04-.51-.03-1.09-.08-1.81-.04-.7-.08-1.6.24-2.56.17-.55.48-1.06.82-1.5.35-.42.74-.79,1.13-1.07l.4-.29.42-.19.52-.23,1.03-.46c.32-.14.64-.3.96-.46.77-.37,1.53-.75,2.3-1.12.25-.12.54-.17.81-.27.94-.37,1.88-.74,2.81-1.14.34-.14.64-.37.98-.53.58-.27,1.17-.52,1.76-.77l2.65-1.1c.73-.31,1.47-.68,2.19-.9.84-.26,1.61-.64,2.42-.95.28-.11.56-.27.83-.41l.06-.05c.24-.1.51-.24.73-.29.77-.14,1.48-.52,2.19-.84,1.35-.6,2.66-1.27,4.02-1.85,1.06-.45,2.16-.79,3.23-1.21.79-.31,1.57-.67,2.36-.99.65-.26,1.31-.51,1.96-.75l5.45-2.03ZM225.58,167.95c.75-.21,1.43-.55,2.15-.82.25-.09.49-.24.74-.36l.05-.05c.22-.09.45-.22.65-.25.68-.11,1.31-.45,1.94-.74,1.19-.54,2.33-1.17,3.52-1.69.92-.42,1.89-.74,2.83-1.14.69-.29,1.35-.65,2.04-.97l.85-.38.31-.14c.12-.07.26-.08.38-.11l.51-.11c1.84-.36,3.68-.43,5.49-.3l.58.03c1.19.06,2.38.19,3.55.44,1.23.25,2.41.65,3.57,1.05.48.18.99.31,1.5.55.22.1.45.25.63.4.37.33.74.73,1.03,1.27.28.53.31,1.12.18,1.61-.1.4-.41.64-.6.7-.06.02-.12.02-.18.03-.07.16-.16.32-.27.49-.02,0-.03.01-.05.02.1.05.14.15.14.25,0,.24-.82,1.06-1.22,1.25-.29.13-.58.27-.92.42-.14.16-.3.34-.46.51-.51.47-1.2.62-1.84.89-.44.19-.83.49-1.27.69-.67.32-1.37.59-2.04.9-.93.42-1.87.84-2.79,1.3-.95.47-1.9.89-2.89,1.26-.75.28-1.49.67-2.24,1l-.51.21-3.72,1.67-1.98.91c-.19.09-.38.19-.46.23-.27.1-.42.15-.57.22-1.03.5-2.06,1.01-3.09,1.51-.43.22-.83.49-1.25.71-.73.38-1.46.75-2.2,1.11-1.61.8-3.3,1.46-4.91,2.06-.17.06-.33.15-.49.22-.16.07-.33.13-.5.17-2.42,1.22-4.85,2.52-7.42,3.63l.02.04c-.14.05-.3.07-.43.13-.51.24-1,.51-1.53.71-.41.17-.83.33-1.26.46-.42.15-.86.27-1.3.4-.54.17-1.13.27-1.7.39-.59.07-1.17.18-1.79.17-.98.04-1.84-.08-2.72-.17-.68-.08-1.35-.17-2.01-.27-1.08-.16-2.13-.33-3.22-.53-.93-.18-1.83-.38-2.75-.58l-1.23-.25-.66-.14c-.34-.08-.67-.17-1.01-.27-.85-.25-1.58-.61-2.15-.97-1.37-.94-1.03-2.05.04-3.09.39-.38.85-.74,1.39-1.07.34-.2.74-.42,1.06-.59l.63-.34,1.26-.68c.24-.13.46-.3.71-.42.3-.15.62-.27.93-.42.29-.14.57-.3.86-.45.65-.33,1.31-.67,1.96-1,.87-.46,1.7-1.01,2.59-1.37,1.28-.53,2.51-1.14,3.76-1.71l3.18-1.54c1.22-.57,2.46-1.1,3.68-1.66l.86-.41c.68-.33,1.36-.68,2.05-1,.22-.1.49-.14.72-.23.84-.32,1.68-.63,2.52-.98.3-.12.57-.33.87-.47.52-.23,1.05-.45,1.58-.66l2.37-.95c.65-.26,1.31-.59,1.95-.77ZM213.85,158.32c.83.03,1.66.11,2.5.19.75.07,1.5.11,2.26.25.49.09.96.27,1.45.41.35.1.67.19,1.08.37.48.21.94.49,1.32.85l.26.29c.07.1.14.22.21.32.07.11.12.23.18.34.28.55-.08,1.69-.18,2.24-.2,1.16-1.78,1.48-2.71,1.91-.22.1-.41.25-.63.35-.27.12-.55.21-.83.33-.26.11-.51.24-.76.36-.58.28-1.16.55-1.73.84-.76.39-1.49.88-2.27,1.18-1.13.44-2.19.99-3.28,1.51-.93.44-1.83.95-2.75,1.41l-3.18,1.54c-.25.12-.49.25-.74.39-.59.32-1.17.64-1.76.95-.19.1-.42.13-.63.21-.73.3-1.46.6-2.18.93-.26.12-.48.32-.74.45-.45.23-.91.43-1.36.63l-2.05.9c-.57.25-1.13.57-1.7.74-.66.2-1.25.52-1.88.77-.22.09-.43.23-.64.35l-.04.05c-.19.08-.39.2-.57.23-.61.1-1.15.41-1.7.68-1.03.51-2.04,1.07-3.08,1.56-.81.38-1.67.65-2.51.99-.61.26-1.2.57-1.81.84-1.6.68-2.76.84-4.5.57-.79-.12-1.58-.27-2.34-.46-.16-.04-.33-.06-.49-.1-1.01-.21-2-.43-2.97-.7l-3-.86c-.4-.1-.82-.16-1.23-.24-.18-.03-.36-.09-.51-.16-.95-.45-2.35-.83-3.25-1.42-.06-.04-.12-.08-.18-.13-.54-.41-.52-1.04-.2-1.58.11-.2.23-.34.33-.42.29-.24.56-.41.88-.59.12-.16.27-.35.42-.53.49-.47,1.15-.57,1.74-.77.41-.14.79-.38,1.2-.52l.82-.27.9-.37c.82-.36,1.64-.72,2.44-1.12.83-.41,1.66-.79,2.53-1.1.66-.24,1.31-.59,1.96-.89l.45-.19,3.27-1.48,1.75-.79c.17-.08.34-.16.4-.2.24-.08.38-.12.5-.18l2.75-1.29c.38-.18.72-.42,1.1-.62.64-.33,1.28-.65,1.94-.96,1.43-.69,2.89-1.26,4.4-1.73.15-.05.3-.12.45-.18.15-.05.3-.09.46-.12,2.21-.94,4.44-1.87,6.69-2.74l-.02-.04c.13-.03.27-.04.38-.1.44-.2.87-.42,1.32-.62.71-.29,1.41-.57,2.13-.83.9-.34,1.82-.67,2.76-.95.75-.23,1.5-.41,2.36-.56.67-.09,1.27-.13,1.88-.15.98-.03,1.95-.03,2.92.01ZM151.51,135.24c0-1.38.02-2.77.05-4.15.06-2.7-.02-5.38-.05-8.07,0-.49.04-.98.05-1.47,0-.65,0-1.29-.01-1.94-.01-1.45-.06-2.91-.03-4.34.03-1.21.04-2.4.04-3.61,0-.97.02-1.95.04-2.92,0-.43-.03-.79-.06-1.19-.09-.93-.06-1.92-.05-2.89,0-.65,0-1.3,0-1.95-.03-1.28-.02-2.55.06-3.8.1-1.75.12-3.49.04-5.26-.03-.71,0-1.5.04-2.2.03-.38.04-.74.06-1.14.02-.44.13-.87.31-1.27.37-.8,1.05-1.44,1.89-1.74.26-.1.53-.15.81-.18.29-.02.52-.02.75-.02h1.42s2.85-.03,2.85-.03c1.59,0,3.19,0,4.78,0,1.27,0,2.57-.01,3.79.06,1.35.08,2.73.07,4.09.2,1.4.13,2.94.05,4.18-.23.08-.02.15-.06.21-.06,1.35.03,2.7-.09,4.06,0,.55.04,1.19.02,1.77,0,.99-.05,1.93-.02,2.91.02.79.03,1.58.04,2.43-.03,1.17-.09,2.42-.12,3.67-.05.37.02.76.01,1.15.02.88.02,1.77.03,2.66.03.44,0,.88,0,1.33,0h.67c.08-.02.17-.02.25-.01.08.02.17.02.24.06.08.02.16.06.23.1.08.04.15.08.2.11.42.26.75.55,1.08.87.16.16.32.33.47.52.08.09.15.19.22.3.07.1.16.25.21.41.04.07.05.16.07.24.03.08.02.16.02.24v.34s.02.63.02.63c0,.42.02.84.03,1.26,0,.21,0,.44.02.62.17,1.23.14,2.49.11,3.76,0,.38,0,.77.03,1.16.09,2.09.06,4.12-.1,6.13-.07.84-.12,1.72-.14,2.6-.03,1.2-.14,2.37-.1,3.6,0,.21,0,.42.01.62.05,1.05.09,2.1.14,3.14.07,1.24.04,2.47.02,3.71-.02,1.18.02,2.37.01,3.56l-.05,4.18c0,.5-.03,1.04,0,1.51.1,1.61.06,3.25.04,4.88-.01.9-.09,1.8-.14,2.7-.07,1.22-.14,2.45.01,3.62.1.8.11,1.65.12,2.5v1.64s0,.82,0,.82c0,.25,0,.62-.08.93-.07.32-.18.63-.34.92-.08.14-.17.28-.27.41-.05.07-.1.13-.16.19l-.16.16c-.21.21-.43.41-.68.6-.25.18-.5.35-.83.49-.1.04-.22.08-.34.1-.06.01-.12.01-.18.02-.06,0-.13,0-.16,0l-.48-.03c-.32-.01-.63-.04-.95-.04-2.05-.02-4.1,0-6.14-.05-1.19-.02-2.35-.04-3.52.03-.2.01-.41,0-.62,0-1.15-.01-2.31-.03-3.46-.04-.29,0-.58-.02-.87-.05-.8-.06-1.57-.07-2.35.03-1.19.14-2.43.19-3.74.14-.51-.02-1.06.02-1.58.05-.99.06-2,.05-3,.06-.88,0-1.76.05-2.64.07-2.11.06-4.18.23-6.34.17-.98-.03-1.92.04-2.87.12-.76.07-1.63.04-2.45.05-.4,0-.78-.01-1.13-.04-.08,0-.21-.02-.33-.03-.12-.01-.23-.04-.35-.06-.11-.02-.22-.05-.33-.1-.11-.04-.21-.07-.31-.13-.72-.38-1.31-.91-1.66-1.65-.35-.73-.26-1.53-.36-2.32-.13-1.03-.24-2.06-.23-3.1.01-.62.03-1.24.04-1.85,0-.11,0-.23,0-.34-.02-.76-.05-1.52-.05-2.28ZM188.72,62.99l3.83-.04c1.07,0,2.14,0,3.21,0,.85,0,1.73-.01,2.54.06.91.08,1.84.07,2.75.2.94.13,1.97.05,2.81-.23.05-.02.1-.06.14-.06.45.02.91,0,1.36-.02h.34c.15,0,.32,0,.46.05.3.06.55.2.77.35.36.25.73.56,1.03.86.52.52.89,1.15,1.06,1.9.04.15.05.32.07.48,0,.14.02.28.03.41.02.27.05.55.09.84.13.79.18,1.64.12,2.48-.02.25,0,.52,0,.77-.02,1.2-.05,2.39-.01,3.59.02.57,0,1.15-.05,1.73-.03.3-.06.58-.12.92,0,.07-.05.18-.07.28-.03.1-.07.17-.11.26-.08.16-.16.31-.26.45-.09.14-.21.26-.28.38-.25.4-.58.74-.96,1.03-.39.28-.81.53-1.41.65-.08.02-.2.02-.3.03-.06,0-.09,0-.12,0h-.1c-.13,0-.26.01-.39.02-1.4.06-2.77,0-4.11-.17-.57-.07-1.15-.13-1.74-.16-.81-.04-1.59-.15-2.42-.12-.14,0-.28,0-.42,0-.7.04-1.41.08-2.11.14-.83.07-1.66.03-2.49.02-.79-.01-1.59.02-2.39.02l-2.81-.03c-.34,0-.7-.03-1.01,0-1.08.11-2.18.08-3.27.07-.61,0-1.21-.08-1.81-.12-.82-.06-1.65-.11-2.43.05-.53.11-1.11.13-1.68.15-1.47.06-2.94.04-4.41.02-.21,0-.43-.03-.64-.04-.21-.01-.42-.04-.64-.04-1.38-.02-2.76,0-4.13-.05-.8-.02-1.58-.04-2.37.03-.13.01-.28,0-.42,0-.78-.01-1.55-.03-2.33-.04-.2,0-.39-.02-.58-.05-.53-.06-1.05-.07-1.58.03-.8.14-1.63.19-2.51.14-.34-.02-.71.02-1.06.05l-.25.02c-.08,0-.16.01-.27,0-.2,0-.41-.02-.61-.05-.41-.08-.79-.24-1.15-.45-.62-.38-1.14-.93-1.45-1.61-.19-.4-.3-.85-.33-1.29-.02-.36-.05-.72-.07-1.08-.04-.71-.07-1.42-.04-2.14.03-.66-.04-1.29-.12-1.93-.07-.51-.04-1.09-.05-1.65,0-1.34.51-2.55.7-3.86.06-.46-.01-1,.13-1.44.11-.34.33-.74.72-1.09.38-.34.84-.58,1.32-.73.09-.03.18-.04.27-.07.15-.05.3-.06.46-.09l.23-.02h.12s.1-.01.1-.01c.26-.01.51-.02.77-.02.93,0,1.86.02,2.79.05,1.81.06,3.62-.02,5.42-.05.33,0,.66.04.99.05.43,0,.87,0,1.3-.01.97-.01,1.95-.06,2.92-.03.81.03,1.61.04,2.42.04.65,0,1.31.02,1.96.04.29,0,.53-.03.8-.06.63-.09,1.29-.06,1.94-.05.44,0,.87,0,1.31,0,.86-.03,1.71-.02,2.56.06,1.17.1,2.34.12,3.53.04.47-.03,1.01,0,1.48.04,1.01.11,2.02.08,3.03.08ZM115.48,40.25c.51-1.36,1.34-2.57,2.37-3.52.86-.8,1.86-1.5,2.92-2.05,1.45-.77,3.01-1.16,4.63-1.48.27-.05.55-.1.82-.15,1.39-.25,2.82-.32,4.23-.23.42.03.84.07,1.25.14.42.06.82.16,1.23.26.81.23,1.61.49,2.38.84,1.48.64,2.88,1.46,4.16,2.43,1.5,1.15,2.83,2.49,4.04,3.92.44.52.86,1.09,1.27,1.58.68.82,1.31,1.71,1.89,2.62.29.46.57.92.84,1.39.26.45.57,1.01.69,1.26l.02.04c.04.07.08.16.12.23.05.07.13.12.22.14.09.02.18,0,.25-.04.07-.04.12-.13.18-.21l.37-.53.52-.74c.93-1.34,1.91-2.66,2.7-4.01.54-.93,1.23-1.83,1.94-2.73,1.83-2.29,3.92-4.42,6.3-6.19.34-.27.72-.48,1.08-.72.36-.23.75-.43,1.11-.66,1.2-.7,2.47-1.3,3.81-1.73,1.33-.43,2.73-.68,4.13-.71,1.64-.03,3.22.2,4.77.6.27.05.54.17.81.27,1.48.55,2.9,1.26,4.15,2.24.16.13.31.25.46.38.15.13.28.28.42.42.76.79,1.43,1.61,2.02,2.52.13.17.23.35.33.53.1.18.21.37.3.56.16.39.34.79.44,1.21.26.83.35,1.73.36,2.63-.01.35,0,.72-.02,1.09,0,.18-.01.37-.02.55,0,.18-.03.36-.05.54-.13,1.37-.51,2.71-.99,4-.43,1.13-.91,2.24-1.49,3.3-.69,1.27-1.46,2.48-2.34,3.63-.88,1.14-1.87,2.22-3.01,3.18-.1.08-.19.16-.29.24-.11.1-.23.19-.34.29-.18.15-.4.26-.63.31-.12.03-.23.04-.35.04h-.25c-.26.01-.52.02-.77.03-.51.02-1.03.05-1.54.09-1.01.07-2.17.04-3.26.05-2.13,0-3.72-.25-5.46-.45-.15-.02-.28-.04-.41-.05-.04,0-.07-.01-.11-.02-.05,0-.11-.02-.16-.03-.1-.03-.2-.07-.28-.12-.17-.1-.28-.24-.35-.37-.07-.13-.09-.25-.1-.36,0-.22.07-.36.14-.46.19-.21.61-.29.83-.47.14-.12.23-.29.37-.42.21-.2.45-.37.68-.53.75-.5,1.57-.9,2.39-1.27l.03-.02s.04-.02.07-.04c.05-.03.09-.05.14-.08.69-.37,1.36-.8,2.01-1.27.12-.09.24-.17.35-.27.76-.62,1.48-1.31,2.17-2,1.26-1.27,2.41-2.66,3.31-4.18.44-.74.81-1.52,1.06-2.33.13-.4.22-.81.29-1.22.05-.41.09-.82.07-1.23,0-.2-.04-.4-.05-.6-.02-.08-.04-.14-.05-.22l-.1-.22c-.16-.29-.42-.56-.73-.8-.62-.48-1.39-.85-2.17-1.1-.29-.09-.57-.18-.86-.24-.27-.06-.58-.1-.88-.1-.4-.02-.79.02-1.19.07-.39.07-.79.15-1.17.27-1.73.53-3.29,1.6-4.72,2.77-1.2.99-2.29,2.11-3.32,3.32-.83.97-1.63,1.97-2.39,3-.33.45-.58.87-.84,1.32-.61,1.06-1.33,2.15-1.99,3.24-.44.73-.87,1.48-1.27,2.23-.56,1.05-1.12,2.09-1.68,3.12-.1.19-.23.36-.41.48-.17.12-.38.2-.58.22-.1.01-.21,0-.32,0h-.26s-.4-.03-.4-.03c-1.08-.06-2.16-.11-3.24-.13-.54-.01-1.08-.02-1.63-.02-.27,0-.54,0-.82,0-.3,0-.6,0-.91,0-.25,0-.49-.04-.7-.18-.15-.09-.28-.23-.37-.38-.05-.08-.09-.16-.12-.25l-.1-.24c-.09-.22-.19-.45-.28-.68-.19-.46-.37-.91-.53-1.34-.71-1.84-1.65-3.61-2.68-5.29-1.31-2.12-2.83-4.11-4.68-5.72-1.55-1.33-3.38-2.36-5.37-2.63-1.58-.23-3.23.09-4.69.6-.8.28-1.56.71-1.82,1.43-.14.35-.17.77-.14,1.19.04.42.11.87.24,1.25.14.42.38.82.66,1.19.28.38.6.72.94,1.05.69.64,1.44,1.17,2.16,1.56.09.05.19.08.25.13,1.38,1.12,2.92,2,4.4,3.03.6.41,1.34.83,2.01,1.18.58.3,1.14.6,1.7.9l.42.22c.51.28.99.66,1.48.97.44.27,1.17.71.93,1.34-.06.15-.15.28-.25.36-.11.09-.21.12-.31.15-.22.07-.46.17-.83.22-.54.04-1.16.05-1.77.06-.4.01-.81.03-1.22.03-.82.01-1.65,0-2.48-.04-.49-.02-1.02-.01-1.53-.02-1.18-.02-2.36-.03-3.53-.03h-.88c-.11,0-.38.02-.59-.03-.11-.03-.21-.07-.3-.13-.05-.03-.09-.06-.14-.09l-.11-.08c-.48-.34-.96-.69-1.44-1.03-1.84-1.32-3.56-2.86-5.03-4.65-.18-.23-.36-.49-.52-.68-.56-.65-1.02-1.41-1.39-2.2-.37-.8-.65-1.64-.83-2.51-.05-.26-.11-.53-.15-.8-.05-.27-.08-.54-.12-.81-.16-1.47,0-2.97.53-4.33ZM144.82,139.85c.03.7,0,1.5-.04,2.19-.03.37-.05.75-.06,1.12v.14s-.02.16-.02.16c0,.11-.02.22-.04.33-.02.11-.04.22-.07.32-.03.11-.06.21-.1.31-.31.82-.96,1.51-1.78,1.86-.26.1-.53.19-.8.22-.14.03-.28.02-.41.03h-.36s-1.42.02-1.42.02l-2.84.02c-1.59,0-3.18,0-4.77,0-1.26,0-2.56.01-3.78-.06-1.35-.08-2.73-.07-4.08-.2-1.4-.13-2.93-.05-4.17.23-.08.02-.15.06-.21.06-1.35-.03-2.69.09-4.06,0-.55-.04-1.19-.02-1.76,0-.98.05-1.93.02-2.9-.02-.79-.03-1.58-.04-2.42.03-1.16.09-2.42.12-3.66.05-.37-.02-.76-.01-1.15-.02-.88-.02-1.77-.03-2.65-.03-.44,0-.88,0-1.32,0h-.33s-.17,0-.17,0h-.08s-.08,0-.13,0c-.16,0-.34-.05-.48-.1-.14-.05-.26-.11-.38-.17-.44-.24-.8-.53-1.13-.86-.08-.08-.16-.16-.24-.26-.09-.1-.17-.2-.24-.31-.15-.21-.26-.45-.36-.69-.09-.24-.15-.49-.19-.74-.02-.13-.03-.25-.03-.38v-.33c0-.42,0-.84-.01-1.26,0-.21.01-.44,0-.62-.15-1.23-.1-2.49-.06-3.75.01-.38,0-.77-.01-1.15-.07-2.08-.01-4.11.15-6.11.07-.84.13-1.71.15-2.59.03-1.2.14-2.37.11-3.59,0-.2,0-.41-.01-.62-.05-1.05-.08-2.1-.15-3.13-.07-1.24-.04-2.46-.03-3.7.01-1.18-.03-2.37-.03-3.55l.02-4.17c0-.5.02-1.03-.01-1.51-.12-1.61-.09-3.24-.09-4.87,0-.9.07-1.8.11-2.7.05-1.22.11-2.45-.06-3.61-.11-.79-.13-1.64-.15-2.49-.03-.89-.04-1.78-.05-2.68v.1c0-.13-.02-.27,0-.38.01-.11.02-.24.05-.33.05-.21.12-.39.2-.56.16-.34.35-.64.56-.93.21-.29.45-.55.71-.8.13-.12.27-.24.42-.36.16-.11.32-.22.54-.31.12-.03.23-.09.35-.09l.18-.02s.06,0,.09,0h.06s.48.03.48.03c.32.01.63.04.95.04,2.04.02,4.1,0,6.13.05,1.19.02,2.35.04,3.52-.03.2-.01.41,0,.62,0,1.15.01,2.31.03,3.46.04.29,0,.58.02.87.05.79.06,1.57.07,2.35-.03,1.19-.14,2.42-.19,3.73-.14.51.02,1.06-.02,1.58-.05.99-.06,1.99-.05,3-.06.88,0,1.76-.05,2.64-.07,2.11-.06,4.17-.23,6.33-.17.98.03,1.92-.04,2.87-.12.76-.07,1.63-.04,2.45-.05.4,0,.77.01,1.13.04.15.01.42.03.64.08.23.05.44.12.65.2.82.36,1.41.99,1.75,1.72.35.78.25,1.77.34,2.62.1.9.22,1.79.21,2.7-.01.62-.03,1.23-.04,1.85,0,.11,0,.23,0,.34.02.76.05,1.52.05,2.28,0,1.38-.02,2.76-.05,4.14-.06,2.7.02,5.38.05,8.06,0,.49-.04.98-.05,1.47,0,.65,0,1.29.01,1.94.01,1.45.06,2.9.03,4.34-.03,1.2-.04,2.4-.04,3.6,0,.97-.02,1.95-.04,2.92,0,.42.03.79.06,1.19.09.93.06,1.91.05,2.89,0,.65,0,1.3,0,1.94.03,1.28.01,2.55-.06,3.8-.1,1.75-.12,3.48-.04,5.25ZM87.37,67.86c.04-.29.08-.59.12-.89.05-.32.13-.63.24-.93.14-.41.36-.79.62-1.13.13-.17.28-.33.44-.48.18-.17.36-.27.53-.39.12-.08.24-.15.36-.23.15-.1.3-.2.46-.29.16-.09.3-.18.51-.27.2-.11.46-.09.62-.11.18-.01.35-.03.52-.04.83-.07,1.66-.03,2.49-.02.8.01,1.6-.02,2.39-.02l2.81.03c.34,0,.7.03,1.02,0,1.09-.11,2.19-.08,3.28-.07.61,0,1.21.08,1.82.12.82.06,1.65.11,2.43-.05.54-.11,1.11-.13,1.68-.15,1.47-.06,2.94-.04,4.42-.02.22,0,.43.03.64.04.21.01.43.04.64.04,1.38.02,2.76,0,4.13.05.8.02,1.58.04,2.37-.03.13-.01.28,0,.42,0,.78.01,1.55.03,2.33.04.2,0,.39.02.58.05.54.06,1.06.07,1.58-.03.8-.14,1.63-.19,2.51-.14.34.02.72-.02,1.06-.05.67-.06,1.34-.05,2.02-.06.59,0,1.19-.05,1.78-.07,1.42-.06,2.81-.23,4.27-.17.66.03,1.29-.04,1.93-.12.26-.03.53-.04.81-.05.12,0,.33,0,.52.02.19.03.38.05.57.1.73.17,1.27.58,1.64,1.05.59.73.68,1.49.65,2.38-.02.48.15.96.21,1.43.05.44.09.89.08,1.33-.01.42-.03.83-.04,1.25,0,.08,0,.15,0,.23.02.51.05,1.02.05,1.54,0,.93-.02,1.86-.05,2.79-.01.45-.02.91-.02,1.36v.68s0,.35,0,.35c0,.14,0,.27-.02.41-.06.54-.25,1.07-.56,1.53-.31.46-.72.84-1.21,1.12-.35.2-.76.28-1.16.33-.13.02-.26.03-.39.03-.14,0-.23,0-.35,0h-.65c-.97.02-1.96.07-2.92.04-.81-.03-1.62-.04-2.43-.04-.66,0-1.31-.02-1.97-.04-.29,0-.53.03-.8.06-.63.09-1.29.06-1.95.05-.44,0-.88,0-1.31,0-.86.03-1.72.02-2.56-.06-1.18-.1-2.35-.12-3.54-.04-.47.03-1.01,0-1.48-.04-1.01-.11-2.02-.08-3.04-.08l-3.83.04c-1.07,0-2.15,0-3.22,0-.85,0-1.73.01-2.55-.06-.91-.08-1.84-.07-2.75-.2-.94-.13-1.98-.05-2.81.23-.05.02-.1.06-.14.06-.91-.03-1.82.09-2.73,0-.37-.04-.8-.02-1.19,0-.66.05-1.3.02-1.96-.02-.53-.03-1.06-.04-1.63.03-.78.09-1.63.12-2.47.05-.25-.02-.51-.01-.77-.02l-.89-.02h-.45c-.21,0-.45-.06-.64-.14-.31-.13-.58-.27-.86-.41-.28-.15-.54-.28-.84-.48-.05-.03-.12-.09-.19-.14-.23-.22-.45-.44-.62-.72-.18-.27-.32-.58-.4-.9-.17-.65-.13-1.26-.11-1.8,0-.14.03-.29.01-.41-.03-.2-.05-.39-.07-.59-.02-.21-.03-.41-.03-.62-.01-.42,0-.84,0-1.27,0-.25-.02-.52-.04-.78-.11-1.4-.11-2.78.08-4.15ZM293.92,193.06c-.08.2-.2.41-.27.53-.07.13-.22.34-.33.49-.67.8-1.36,1.32-2.07,1.91-.7.56-1.42,1.1-2.14,1.63-1.44,1.05-2.9,2.07-4.37,3.07-.51.34-1.04.71-1.53,1.06-2.6,1.88-5.21,3.73-7.86,5.54-1.1.75-2.35,1.62-3.39,2.21-3.48,2.01-6.84,4.3-10.25,6.45l-3.01,1.9c-2.05,1.3-4.11,2.58-6.14,3.91-3.38,2.19-6.87,4.41-10.04,6.61-5.35,3.7-10.69,7.45-16.12,11.08-1,.67-2.05,1.42-2.87,2.04-2.03,1.56-4.34,2.97-6.69,4.34-3.81,2.23-7.67,4.35-11.62,6.34-1.96,1.01-3.99,1.98-6.11,2.77-2.11.8-4.36,1.39-6.64,1.62-3.24.36-6.71.13-9.78-.04-.45-.03-1.13.02-1.7.03-4.38.13-8.79.29-13.18.46-.83.03-1.74.09-2.47.16-3.4.36-7.11.51-10.81.64-1.02.03-2.06-.02-3.09-.04-.91-.02-1.82-.08-2.72-.05-3.07.1-6.15.19-9.18.32-5.91.24-11.81.37-17.73.22-1.69-.04-3.29-.19-4.96-.23-3.92-.08-7.86-.22-11.78-.34-2.84-.11-5.66-.17-8.52-.37-2.85-.23-5.69-.54-8.5-1.02-4.79-.79-9.5-1.97-14.16-3.23-2.95-.81-5.87-1.59-8.79-2.49-3.52-1.08-7.02-2.3-10.51-3.33-.41-.12-.82-.25-1.24-.38-.55-.03-1.11-.09-1.69-.24-4.09-1.06-8.18-2.11-12.28-3.17-1.86-.48-4.11-1-6.16-1.82-2.05-.81-3.92-1.92-5.01-3.61-1.21-1.88-1.74-3.8-2.42-5.87-.49-1.48-.81-3.18-.99-4.72-.19-1.63-.25-3.16-.25-4.62,0-2.45.17-4.74.19-7.11.04-4.19.55-8.35.82-12.5.25-3.9.51-7.82,1.14-11.7.45-2.74,1.1-5.5,2.45-7.96.96-1.75,2.31-3.34,4.01-4.44.9-.59,1.56-.76,2.56-.98.7-.15,1.42-.42,2.19-.53,4.07-1.36,8.29-2.66,12.72-3.8,2.38-.72,4.76-1.44,7.19-2.04,4.08-.93,8.19-1.77,12.33-2.39.84-.14,1.66-.19,2.49-.3,5.15-.8,10.36-1.3,15.56-1.46,1.82-.11,3.63-.06,5.44-.11,1.81,0,3.62.09,5.45.18,1.35.14,2.71.28,4.07.43,1.36.18,2.71.43,4.06.64l3.83.79c1.26.32,2.53.63,3.78.97l3.4,1.03,3.35,1.15c3.49,1.26,6.9,2.68,10.28,4.15,3.06,1.34,6.08,2.74,9.11,4.09,2.35,1.04,4.7,2.08,7.08,3.03,1.07.44,2.15.87,3.24,1.26,1.08.41,2.17.82,3.27,1.18,6.1,2.07,12.38,3.7,18.63,5.49,3.41.97,7.1,1.73,10.67,2.52,3.23.71,6.48,1.46,9.7,2.01,4.09.68,8.26,1.06,12.4,1.82.27.05.55.1.83.15.33.07.73.1,1.02.28.62.37.98,1.05,1.06,1.68.14,1-.09,1.77-.32,2.56-.25.77-.57,1.5-.9,2.21-.34.71-.7,1.39-1.08,2.06-.21.34-.41.67-.62,1-.24.31-.47.63-.72.94-.82.95-1.88,1.74-3.06,2.22-1.18.48-2.43.67-3.64.75-2.43.14-4.75-.03-7.14.06-1.32.02-2.67.08-4.04.13-1.37.01-2.75.06-4.11.05-4.57-.03-9.09-.35-13.58-.51-1.91-.06-4.22-.32-6.27-.57-3.41-.42-6.78-.87-10.23-1.24-6.94-.74-13.86-1.61-20.84-1.84l-2.61-.07c-.18,0-.36.02-.53.04-.34.05-.87.16-1.15.35-.47.32-.05.8.2,1.11,0,0,.15.18.15.18l.28.33c.41.46.85.92,1.31,1.35,1.61,1.49,3.92,1.74,6.02,2.23,2.23.52,4.47.97,6.73,1.37,2.11.38,4.36.73,6.36,1.11,5.89,1.11,11.88,1.56,17.85,2.12,3.54.34,7.07.68,10.61.96,1.3.11,2.6.23,3.91.31,5.18.3,10.35.35,15.46.21,2.31-.07,4.96-.46,7.4-1,1.55-.38,3.12-.71,4.67-1.13,1.54-.44,3.08-.82,4.58-1.27,1.1-.33,2.13-.66,3.15-1,1.02-.34,1.99-.75,3-1.15,5.23-2.15,10.51-4.38,15.81-6.73,2.1-.94,4.21-2,6.31-3.03,2.75-1.36,5.51-2.71,8.26-4.07,1.11-.54,2.23-1.08,3.34-1.63,3.71-1.85,7.45-3.66,11.21-5.41,3.77-1.73,7.59-3.38,11.46-4.89,1.15-.43,2.33-.89,3.59-1.2,1.25-.31,2.57-.49,3.86-.47.64.01,1.28.06,1.91.15.61.08,1.3.2,1.89.39,1.21.36,2.37.79,3.52,1.34.67.33,1.36.67,2.01,1.16.56.42,1.2,1.11,1.29,1.9.04.43-.05.87-.23,1.27Z"/>
</svg>