<?xml version="1.0" encoding="UTF-8"?>
<svg id="Layer_11" data-name="Layer 11" xmlns="http://www.w3.org/2000/svg" viewBox="0 0 314.01 288">
  <defs>
    <style>
      .cls-1 {
        fill: #1c5c7d;
      }
    </style>
  </defs>
  <path class="cls-1" d="M257.71,139.12c.11-1.22.05-2.48-.02-4.08-.13-2.89-.3-6.49.49-10.96.05-.26.07-.5.07-.73.05-6.43-.15-8.85-1.76-14.83l-.06-.24-.06-.24c-.18-.79-.67-1.91-1.07-2.8l-.06-.13-.05-.13c-.39-.91-1.1-2.11-1.79-3.26l-.07-.12-.07-.12c-.55-.96-1.34-2.1-2.17-3.29l-.29-.42c-.26-.38-.52-.76-.78-1.14-.24-.35-.46-.68-.61-.89-.7-.95-1.31-1.81-1.87-2.63l-1.1-1.57-1.23-1.56-.06-.08-.06-.08-2.84-3.72c-.52-.68-1-1.32-1.41-1.9-.49-.67-.96-1.31-1.28-1.69-.61-.7-1.42-1.65-1.84-2.01-2.13-1.7-4.35-3.62-6.29-6.1-5.09,5.38-10.18,10.75-15.27,16.13-6.13,6.47-12.25,12.95-18.38,19.42-.42.42-.83.87-1.24,1.31-2.16,2.28-4.32,4.57-6.48,6.85-2.13,2.25-3.28,3.5-5.4,5.77-.05.06-.11.12-.18.15-.09.04-.19.04-.29.04-2.72-.05-5.44.04-8.16.04-2.05,0-4.08-.14-6.12-.13-2.62,0-5.18.08-7.8-.18-.48-.05-.96-.1-1.43-.15-.34-.04-.85,0-1.17-.12-.15-.06-.23-.24-.28-.39-.02-.05-.04-.11-.02-.16.01-.05.05-.09.09-.13.21-.23.45-.59.71-.76.13-.09.24-.2.32-.34,4.7-5.04,8.42-9.08,13.15-14.1,12.96-13.74,26.04-27.38,39.32-40.83,1.14-1.15,2.28-2.29,3.43-3.44-.5-.53-.99-1.07-1.46-1.64-.07-.08-.13-.14-.17-.18-.19-.15-.37-.29-.56-.44-.41-.32-.79-.62-1.1-.84l-2.36-1.64-.11-.07-.11-.08c-.9-.64-2.03-1.34-3.23-2.08-.32-.2-.64-.4-.96-.59l-.07-.04c-1.91-.67-3.59-1.42-5-2.04l-.72-.32c-1.08-.47-2.2-.99-3.41-1.59l-.05-.02-.05-.02-1.16-.58-.46-.21-.72-.33-.1-.05-.1-.05c-4.49-2.16-9.77-3.87-17.11-5.53-1.7-.36-3.1-.86-4.04-1.2-.19-.07-.38-.14-.57-.2-.43-.14-.86-.29-1.29-.44l-.16-.06c-4.28-.69-8.15-1.03-11.83-1.03-2.24,0-4.4.13-6.44.39l-.53.08c-1.01.15-1.97.29-2.69.45l-.08.04-.04.02-.04.02c-3.25,1.79-6.81,3.04-10.57,3.7l-.18.03-.18.03c-2.7.41-5.1.69-7.36.87h-.1s-.1.01-.1.01c-.73.05-1.62.15-2.55.26-.48.06-.95.11-1.43.16-.38.05-.79.1-1.05.14-.26.06-.49.13-.68.19l-.14.05-.15.04c-1.98.6-4.05,1.35-6.33,2.28-1.52.72-2.99,1.48-3.81,2.16l-.11.09-.11.09c-1.88,1.51-3.74,2.49-5,3.1-.59.29-1.26.63-1.84.95l-.06.03-.06.03c-3.39,1.79-6.85,3.96-10.28,6.42-1.31,1.04-2.57,2.06-3.65,3.06l-.03.03-.03.03-2.29,2.09-.11.1-.11.1-1.05.92-1.04.95-.12.1-.12.1-.56.49-1.88,1.64-.05.04-.05.04c-.19.17-.61.58-.97.95-.14.14-.28.29-.43.43-.39.4-.83.87-1.11,1.18-.32.42-.58.8-.81,1.17l-.07.12-.08.12c-.51.8-1.04,1.69-1.6,2.63-.35.59-.71,1.18-1.06,1.77l-.07.12-.07.12c-.71,1.13-1.46,2.51-2.18,3.84-.55,1.01-1.1,1.82-1.43,2.31-1.49,2.68-3.15,4.74-4.5,6.43l-.29.37-1.89,2.36-.67.85c-.1.15-.21.32-.29.44-.96,1.51-1.93,2.85-2.79,4.04l-.28.38c-.94,1.34-1.96,2.71-3.11,4.17-2.84,3.75-4.67,8.21-5.3,12.9v.05s-.01.05-.01.05c-.09.63-.21,1.46-.36,2.34-.2,1.34-.46,2.56-.79,3.72l-.11.4c-.24.86-.48,1.67-.68,2.44-.11.46-.2,1.07-.27,1.59-.05.45-.07.68-.08.81.02.15.04.25.05.31.73,2.89.52,5.36.38,6.61,0,1.24-.03,2.44-.06,3.61-.08,3.87-.15,7.53.43,10.45.81,3.73,1.46,7.39,2.08,10.93.45,2.59.88,5.03,1.37,7.47.04.16.12.44.17.65.29,1.06.72,2.65.95,4.53.1.67.33,1.48.68,2.4.53,1.11,1.01,1.96,1.43,2.53,1.44,1.91,2.66,3.91,3.72,6.12.9,1.8,1.65,3.51,2.29,5.21l.04.1.03.1c.28.8.68,1.67,1.24,2.74.2.38.35.64.44.79.16.22.31.41.47.59.91,1.03,1.81,2.17,2.77,3.49,1.31,1.78,2.39,3.6,3.19,5.42l.04.08c.27.4,1.01,1.25,1.57,1.88l.05.06c.18.2.49.51.81.83.22.22.46.46.7.71,5.36-5.8,10.65-11.67,15.99-17.48,2.34-2.54,4.67-5.09,7.01-7.64,1.19-1.3,2.38-2.59,3.56-3.89.7-.77,1.22-1.88,2.54-1.04.95.6,1.06,2.29,1.22,3.3.22,1.36.31,2.74.49,4.11.32,2.46.35,4.93.51,7.4.2,3.02,1.25,4.73-.37,7.41-.17.28-.35.56-.54.82-.04.06-.09.12-.13.18-.02.03-.03.04-.04.05,0,0,0,0-.02.02-.1.13-.21.25-.31.37-.13.15-.22.32-.27.51-4.99,5.27-9.97,10.54-14.96,15.81,1,1.09,1.9,2.23,2.72,3.42,1.13,1.48,2.99,3.08,5.13,4.92.96.83,1.96,1.69,2.99,2.62l.13.12.13.12c1.28,1.21,3.96,2.61,6.56,3.96.41.21.81.42,1.22.63,4.68,2.33,8.97,4.08,13.11,5.34,4.87,1.48,10.28,2.57,17.02,3.44l3.48.39c1.16.08,2.62.18,4.12.33h.06s.06.01.06.01l3.94.43h.12s.12.03.12.03c1.71.21,3.43.51,5.12.9.49.08.99.14,1.44.16.08,0,.15,0,.23,0h.05s.1-.03.1-.03c6.71-1.34,13.42-2.2,20.51-2.61.64-.04,1.35-.09,1.86-.17.74-.13,1.49-.3,2.25-.48l.16-.04.16-.03c1.08-.24,2.65-.86,4.16-1.46l.09-.04.09-.03c.3-.12.72-.29,1.16-.48.55-.24,1.17-.5,1.87-.77.98-.4,1.91-.74,2.8-1.08l.48-.18c.35-.15.7-.29,1.05-.43.96-.39,1.87-.77,2.63-1.12.51-.27.74-.47.8-.52l.06-.05.06-.05c.15-.13.3-.27.44-.4,1.19-1.1,3.16-2.93,6.1-4.42.28-.14.56-.29.84-.43.32-.17.65-.33.97-.5l1.97-1.14,1.93-1.15c.31-.2.69-.47,1.1-.75l.36-.25,2.46-1.71,2.39-1.76.14-.11.15-.1c1.05-.74,2.16-1.6,3.35-2.51.43-.33.86-.66,1.29-.99l.08-.06c.23-.18.51-.39.66-.52.29-.27.6-.55.91-.85.75-.73,1.43-1.38,1.99-1.98l.69-.79c1.33-1.52,2.59-2.96,3.68-4.34l.07-.09.07-.09.03-.03c.64-.78,1.24-1.53,1.8-2.24.67-.91,1.54-2.06,2.5-3.23l.09-.11.09-.11c.76-.89,1.48-1.61,2.05-2.19.18-.19.42-.43.57-.58.67-.99,1.38-2.23,2.14-3.54.3-.53.6-1.05.91-1.57l.03-.06.03-.06c.13-.22.37-.69.6-1.14.22-.42.43-.85.65-1.26.22-.44.45-.87.68-1.3.26-.49.5-.95.64-1.25.47-1.01.93-1.96,1.38-2.88.56-1.16,1.1-2.25,1.52-3.24l.06-.13.06-.13c.52-1.15,1.06-2.27,1.53-3.26.5-1.16,1.02-2.3,1.53-3.39l.68-1.47c.08-.18.14-.36.22-.54.07-.18.14-.35.21-.53l1.3-3.35c2.19-5.63,3.5-12.92,3.54-19.54-.03-.67-.32-2.53-.51-3.77-.55-3.53-1.17-7.54-.81-11.36ZM196.88,193.62c-.29.6-.19,1.2-.2,1.78,0,1.1.08,2.19-.04,3.25-.09.83-.39,1.63-.56,2.44-.13.6-.16,1.21-.28,1.81-.09.49-.23.98-.36,1.46-.35,1.33-.78,2.71-1.14,3.94-.04.14-.06.28-.09.43-.17.9-.33,1.85-.7,2.86-.05.13-.1.26-.16.41-.07.18-.15.35-.24.52-.17.34-.36.66-.59.96-.45.59-1.01,1.1-1.69,1.37-.86.34-1.5.64-2.45.63-1.92-.03-3.84-.2-5.76-.08-1.26.08-2.33-.3-2.73-1.61-.06-.2-.1-.38-.11-.52-.03-.28-.03-.51-.04-.77,0-.67-.07-1.33.14-1.97.08-.24.19-.48.34-.74.07-.13.16-.26.27-.41.07-.08.11-.14.2-.24.09-.09.15-.17.3-.29.07-.06.13-.1.22-.17.11-.08.23-.15.36-.21l.09-.04h.02s.04-.02.04-.02l.07-.03.31-.11c.21-.07.44-.14.67-.19.31-.07.6-.11.81-.14.12-.01.18-.03.24-.04l.2-.04c.14-.02.23-.07.35-.1.11-.04.18-.09.28-.13.14-.12.26-.18.34-.26.1-.08.22-.16.37-.32.24-.24.29-.73.38-1.24.02-.11.07-.23.09-.35.07-.45.13-.96.17-1.45.02-.48.06-.95.07-1.43-.03-.51-.02-1.02-.08-1.52-.02-.15-.06-.29-.07-.35.01-.2.04-.32.02-.43-.16-.79-.35-1.57-.65-2.33-.06-.16-.14-.31-.23-.46-.1-.15-.2-.29-.27-.44l-.37-.78c-.14-.26-.27-.52-.39-.78-.58-1.13-1.04-2.32-1.46-3.6-.04-.13-.12-.24-.17-.37-.05-.13-.09-.26-.1-.4-1.04-1.75-2.23-3.45-3.48-5.16l-.06.05c-.04-.11-.06-.24-.13-.33-.29-.31-.62-.59-.9-.91-.44-.5-.85-1.03-1.28-1.56-.54-.66-1.1-1.32-1.63-2-.42-.54-.81-1.11-1.21-1.68-.31-.45-.61-.9-.9-1.37-.24-.37-.46-.76-.69-1.15l-.42-.76c-.17-.31-.32-.63-.47-.94-.28-.53-.48-1.07-.71-1.6l-.29-.79c-.1-.26-.2-.53-.27-.78-.31-.92-.58-1.83-.79-2.72-.08-.34-.09-.65-.13-.98.15-.08.47-.09.65-.14l2.11-.46c.72-.13,1.53-.21,2.43-.17,1.19.05,2.51.33,3.74.65.17.04.36.07.51.1.13.02.25.03.37.07.3.1.57.28.87.41.28.13.59.24.91.4.35.19.67.4,1,.61.18.11.31.21.44.31l.41.3.56.38.53.38c.35.26.69.53.92.85.36.47.75.89,1.12,1.32.38.42.78.83,1.13,1.26.63.73,1.32,1.4,1.94,2.13.69.84,1.35,1.72,1.99,2.59.15.21.33.4.49.59.4.48.82.94,1.19,1.43.12.16.13.4.22.59.35.65.68,1.31,1.04,1.96.13.23.41.38.55.62.25.4.47.83.69,1.25.16.32.31.66.46.98.15.33.3.66.44,1.01.12.29.26.57.39.86.12.3.22.63.26.95.01.09.03.19.04.28l.06.3.14.7.08.6.03.3v.27c0,.25.11.52.14.77l.05.06c0,.21.05.45-.03.63ZM238.53,123.5c-.19,2.99-.77,5.95-1.7,8.8-.68,2.06-1.4,4.16-2.53,6.12-1.92,3.38-4.7,6.43-8.16,8.56-2.17,1.33-4.58,2.28-7.06,2.78-.62.14-1.34.24-2.06.28-.72.04-1.46.01-2.11-.06-.66-.07-1.25-.17-1.8-.26l-1.28-.21s-.1-.01-.14.02l-.06.08v.04s-.02.04-.02.14l-.02.28c-.04.83,0,1.87.06,2.91.03.53.06,1.06.09,1.58.01.28.03.56.04.84.01.3.02.61.03.91,0,.3.02.6.02.9v.45c.02.15.01.3,0,.43-.06.54-.12,1.06-.18,1.59-.14,1.19-.28,2.37-.42,3.55-.13,1.12-.21,2.18-.21,3.23,0,1.05.06,2.09.19,3.15.13,1.06.3,2.13.52,3.15.32,1.45.85,2.88,1.48,4.26l.19.32c.51,1.19,1.28,2.54,1.76,3.63.83,1.88,1.85,3.98,2.58,6.21.77,2.44,1.01,4.78,1.1,7.03.13,4.26-.27,8.35-.83,12.4-.14,1.01-.3,2.02-.46,2.99-.08.48-.15.99-.25,1.53l-.09.48c-.04.2-.07.35-.13.58l-.18.67-.23.65c-.35.83-.86,1.57-1.6,2.08-.36.26-.76.44-1.19.57-.2.07-.45.12-.64.15l-.49.03-1.95.11-.98.05c-2.04.11-4.25.08-6.18-.68-.5-.2-.99-.45-1.36-.84-.6-.63-.74-1.5-.67-2.34.03-.38.1-.68.18-.97.17-.58.39-1.07.69-1.54.3-.47.65-.92,1.25-1.39.15-.12.32-.24.54-.35.11-.06.19-.1.27-.13l.23-.1c.29-.12.55-.19.75-.24.42-.11.68-.15.89-.2.2-.05.37-.09.5-.14.28-.1.43-.2.56-.31.24-.22.49-.63.57-1.55l.12-1.59v-1.58c-.1-2.04-.5-4.06-1.21-6-.7-1.94-1.69-3.8-2.86-5.6-.97-1.48-2.04-2.92-3.19-4.35-1.15-1.43-2.37-2.83-3.6-4.29l-2.56-3.07c-.42-.52-.86-1.01-1.27-1.55l-1.18-1.64c-1.64-2.21-2.97-4.36-4.54-6.22-1.56-1.84-3.27-3.39-5.3-4.34-2.02-.98-4.31-1.42-6.71-1.45-1.03,0-2.08.06-3.14.18-6.56.72-13.16,2.81-19.56,4.95-1.56.57-2.92,1.25-3.87,2.23-.97.96-1.6,2.23-1.92,3.74l-.12.56c-.04.2-.07.42-.1.62-.06.42-.12.85-.16,1.28-.09.86-.17,1.73-.22,2.61-.12,1.77-.14,3.54-.23,5.38-.07,1.49-.12,2.99-.16,4.5-.05,1.5-.18,2.96-.31,4.45-.11,1.28-.28,2.67-.49,3.84-.44,2.45-.93,4.92-1.53,7.33-.15.6-.31,1.19-.46,1.78-.15.59-.31,1.19-.49,1.79-.18.6-.38,1.21-.63,1.81-.12.3-.26.6-.42.91-.08.15-.16.3-.26.45-.09.16-.21.32-.33.47-.81,1.04-2.24,1.24-3.49,1.32-1.73.11-3.48.07-5.19.4-.8.16-1.54.16-2.33-.07-.13-.04-.26-.08-.41-.15-.08-.03-.15-.07-.24-.13-.05-.03-.09-.05-.15-.1-.03-.03-.04-.03-.1-.08-.07-.07-.13-.14-.17-.21-.08-.13-.12-.25-.15-.32l-.04-.11c-.03-.07-.05-.14-.07-.22-.05-.15-.09-.32-.11-.5-.05-.36-.07-.79.12-1.3.19-.48.48-.82.76-1.09.28-.27.57-.47.86-.65.58-.35,1.16-.58,1.73-.76.21-.06.42-.12.62-.18.12-.04.23-.09.33-.15.2-.12.35-.27.46-.4.16-.19.28-.43.32-.68.01-.06.02-.12.03-.19l.04-.32c.03-.24.06-.49.09-.74.12-.99.24-2.02.35-3.13-.03-1.16-.09-2.49-.18-3.82-.07-1.98-.04-3.98-.04-6,0-2.01-.02-4.1-.14-6.15-.17-2.83-.66-5.66-1.28-8.31-.24-1.02-.52-2.01-.88-2.92-.08-.24-.18-.45-.28-.67-.09-.21-.2-.44-.32-.68-.23-.46-.49-.92-.75-1.38-1.05-1.82-2.33-3.57-3.7-5.31-1.89-2.39-3.98-4.76-5.86-7.47-.94-1.35-1.82-2.79-2.56-4.33-.45-.94-.67-1.74-.91-2.43-.24-.69-.48-1.29-.76-1.81l-.09-.15-.05-.08-.08-.12c-.06-.07-.11-.15-.18-.21-.13-.13-.3-.22-.49-.24-.38-.05-.76.18-.91.53-.08.17-.11.35-.12.55-.02.45.01,1,.08,1.6.21,2.25.87,4.5,1.81,6.73.88,2.12,2.06,4.21,3.33,6.34,1.26,2.13,2.62,4.3,3.77,6.67.02.04.04.09.06.13.14.23.28.46.41.7.54,1,.87,2.02,1.08,3.08.28.91.51,1.86.63,2.85l.06.45.04.42c.03.28.04.55.06.82.04.55.05,1.08.07,1.62.05,2.14,0,4.25-.11,6.36-.22,4.21-.66,8.39-1.39,12.57-.36,1.95-.76,3.9-1.36,5.86-.3.98-.64,1.97-1.11,2.98-.24.5-.5,1.01-.85,1.54-.43.66-.95,1.25-1.56,1.73-.18.13-.37.27-.58.34-.21.07-.42.13-.65.16-.44.06-.95.1-1.36.12-1.36.08-2.68.09-3.23.1-.98,0-1.95-.1-2.93-.15-.56-.02-1.12.03-1.67,0-.41-.02-.83-.12-1.13-.4-.4-.4-.46-1.03-.55-1.56-.02-.13-.04-.25-.04-.37-.02-.23-.01-.43,0-.63.04-.4.11-.74.23-1.09.12-.35.27-.68.48-1.02.11-.17.23-.34.4-.53.18-.19.34-.38.78-.63.07-.04.09-.05.2-.1l.13-.05.08-.03c.1-.03.16-.05.21-.06l.26-.06.38-.07.6-.1c.35-.06.63-.14.88-.23.5-.2.83-.43,1.11-.81.28-.37.51-.9.67-1.53.16-.63.24-1.35.28-2.11.04-.77.03-1.55.02-2.42v-1.42s.09-1.25.09-1.25c.05-.83.09-1.66.12-2.49.11-2.88,0-5.69-.18-8.52-.14-2.41-.41-4.8-.82-7.15-.2-1.18-.46-2.34-.73-3.49-.29-1.17-.61-2.35-.96-3.51-.75-2.56-1.62-5.11-2.48-7.72-.86-2.61-1.7-5.29-2.34-8.06-.64-2.77-1.07-5.6-1.25-8.42-.06-.71-.07-1.41-.1-2.12-.02-.74,0-1.46.02-2.16.05-1.41.15-2.78.25-4.13.09-1.1.13-2.24.2-3.34.08-1.08.16-2.13.26-3.16.06-1.96.07-3.9-.04-5.8-.11-1.9-.36-3.75-.86-5.42-.27-.83-.57-1.57-1.01-2.3-.43-.72-.92-1.4-1.51-1.97-.28-.31-.61-.55-.92-.83-.34-.24-.67-.49-1.04-.7-.73-.44-1.51-.81-2.36-1.11-1.68-.62-3.55-1-5.5-1.38-1.95-.39-4.02-.74-6.16-1.61-1.06-.44-2.15-1.05-3.09-1.9-.95-.83-1.71-1.91-2.23-2.98-.51-1.05-.86-2.06-1.18-3.1-.07-.26-.15-.51-.22-.79-.11-.39-.18-.77-.27-1.16-.15-.77-.24-1.54-.21-2.27.04-.47.14-.88.35-1.29.29-.34.64-.58,1.05-.8l-.11-.03c.59-.28,1.3-.45,2-.6.35-.08.7-.13,1.05-.2.25-.04.5-.09.74-.13,1.68-.33,3.38-.56,4.83-.89,1.39-.34,2.68-.89,3.63-1.67.76-.61,1.33-1.4,1.88-2.42.28-.51.55-1.08.88-1.71.33-.62.72-1.3,1.2-1.94.98-1.28,2.19-2.33,3.47-3.11,1.28-.8,2.64-1.39,4.01-1.84,1.73-.58,3.51-.9,5.28-1.08,1.77-.17,3.55-.18,5.32-.02,3.53.32,7.04,1.2,10.3,3.01,1.28.73,2.52,1.63,3.61,2.8,1.09,1.15,2.02,2.68,2.41,4.37.41,1.68.3,3.42-.1,4.94-.39,1.54-1.03,2.89-1.76,4.16-.61,1.02-1.23,1.86-1.87,2.72-.64.84-1.3,1.66-1.98,2.46-.68.8-1.38,1.58-2.13,2.36-.38.39-.77.77-1.2,1.16-.23.2-.43.39-.72.6-.14.1-.25.2-.45.32-.18.11-.4.25-.54.31-.25.12-.51.24-.78.34-.14.05-.26.1-.42.15-.16.05-.33.1-.5.14-.67.16-1.37.2-2.04.11-1.36-.16-2.61-.92-3.41-2.04-.2-.28-.38-.57-.53-.88-.08-.16-.15-.3-.22-.48-.07-.16-.11-.28-.16-.42-.09-.27-.17-.55-.23-.8-.05-.25-.11-.49-.15-.74-.17-.99-.2-1.95-.18-2.87.05-1.84.33-3.53.57-5.14.24-1.61.47-3.14.52-4.63.06-1.26-.02-2.51-.24-3.63-.23-1.1-.67-2.03-1.19-2.48-.27-.23-.55-.38-.9-.47-.45-.11-.83-.11-1.11-.05-.29.07-.49.19-.65.37-.16.2-.27.4-.32.76-.04.33-.03.74.05,1.27.03.18.12.81.13,1.19,0,.36,0,.69,0,1.03-.03,1.33-.12,2.6-.22,3.85-.19,2.5-.37,4.92-.37,7.28,0,1.5.05,2.98.25,4.39.2,1.41.55,2.76,1.15,3.9.81,1.59,2,2.79,3.55,3.56.76.38,1.64.69,2.5.86.86.17,1.71.24,2.55.14.83-.09,1.64-.29,2.42-.62.78-.35,1.54-.81,2.27-1.37.73-.55,1.43-1.22,2.11-1.93.17-.18.34-.36.5-.55l.25-.28c.19-.2.32-.37.48-.56l.92-1.11.91-1.14c.11-.14.22-.28.33-.42l.61-.56c.1-.09.2-.2.3-.27l.28-.14.55-.28c.1-.06.18-.08.25-.1l.23-.06c.15-.04.3-.09.46-.12.17-.03.51.03.63.11l.77.54.1.07.11.13.22.28.44.56.22.28s.06.13.09.2l.08.23.33.91.34.91.36.86.36.86.09.21c.04.09.04.09.06.13l.11.22c.56,1.17,1.21,2.27,1.94,3.29.73,1.03,1.55,1.98,2.47,2.81,1.08.98,2.29,1.79,3.57,2.49.79.43,1.6.85,2.45,1.19.41.19.87.35,1.32.52.45.17.91.32,1.37.46,1.74.54,3.55.94,5.38,1.26.43.07.85.14,1.28.2.9.35,1.9.52,2.85.72,1.24.26,2.45.58,3.71.74,1.27.16,2.56.12,3.84.1,2.73-.04,5.45-.16,8.17-.35,1.08-.07,2.17-.11,3.25-.12,2.56.07,5.13.21,7.68.53,4.31.55,8.65,1.42,12.85,3.11,2.06.85,3.94,1.79,5.8,2.65,1.85.86,3.66,1.67,5.46,2.26,3.08,1.03,6.15,1.36,8.85.5.68-.21,1.33-.49,1.96-.83.31-.17.62-.35.92-.56.3-.2.61-.46.92-.68.64-.43,1.17-1,1.75-1.5.28-.27.52-.57.78-.85l.39-.43c.13-.14.23-.31.35-.46,1.11-1.36,1.95-2.93,2.62-4.57l.24-.62.12-.31.09-.32.38-1.28c.17-.87.39-1.74.46-2.63.14-.88.12-1.78.16-2.67-.05-.9-.06-1.79-.22-2.68-.08-.9-.33-1.77-.51-2.65-.29-.86-.49-1.74-.87-2.56l-.24-.59c-.08-.19-.16-.42-.23-.56-.16-.32-.36-.69-.58-1.06-.44-.76-.95-1.55-1.47-2.46l-.92-1.59-.23-.4-.12-.2-.03-.05v-.02s-.02-.01-.02-.01l-.04-.07c-.17-.36-.3-.79-.32-1.25-.06-.94.3-1.86.86-2.46.55-.61,1.33-1.04,2.26-1.11.46-.04.94.03,1.36.18.22.07.41.17.58.27.08.05.19.11.25.16l.03.02.22.15c.29.2.57.42.85.64.14.12.28.23.43.36.14.13.3.27.4.38.46.48.96.95,1.39,1.45,1.76,2.02,3.14,4.31,4.16,6.71.32.79.61,1.59.82,2.43.25.82.41,1.67.6,2.51.64,2.97.83,6,.64,8.99Z"/>
  <path class="cls-1" d="M313.94,236.38c-.1-2.72-.32-5.43-.58-8.13-.52-5.4-1.22-10.76-1.58-16.18-.3-4.52-.79-9.03-.9-13.56-.13-5.16-.02-10.31-.77-15.41-.39-2.65-.83-5.49-.6-8.11.57-6.71,0-13.06-1.72-19.17-1.13-4-1.05-7.97-.33-12.06.26-1.46.5-2.96.56-4.46.21-5.92.35-11.84.5-17.77.03-1.06.14-2.17,0-3.19-.82-6-.68-11.95-.38-18.08.51-10.47.37-21.01.56-31.52.03-1.63.34-3.25.52-4.88.18-1.64.49-3.27.52-4.91l.14-8.42.04-4.21c0-.16,0-.4,0-.6v-.62s-.04-1.24-.04-1.24c-.06-.83-.11-1.66-.2-2.48-.73-6.61-3.09-13.06-6.87-18.43-1.46-2.1-3.07-4.08-4.91-5.77-1.83-1.69-3.88-3.09-6.09-4-3.23-1.31-6.19-2.82-9.28-4.24-3.07-1.43-6.24-2.83-9.6-3.79-2.46-.72-5.03-1.3-7.62-1.59-2.31-.29-4.62-.52-6.93-.54-5.01-.04-10.05-.21-15.07-.04-3.97.07-7.94.32-11.87.97-.44.07-.89.12-1.35.15-1.48-.01-2.99-.11-4.47-.13-7.15-.1-14.3-.33-21.45-.34-2.3,0-4.61.05-6.91.12-1.31.03-2.61.07-3.92.11-2.48.06-4.95.09-7.42.02-4.65-.14-9.26-.42-13.88-.23-2.35.03-4.71.17-7.07.48-5.32.71-10.72,1.12-16.1,1.64-.17.02-.34.02-.52.03-.23,0-.45.01-.68.03-.66.01-1.32.01-1.98.05-.15,0-.3.01-.45.02-5.45,0-10.71-1.07-16.09-1.48-4.5-.34-8.98-1.05-13.31-1.93C106.8.67,97.64-.1,88.28.24c-1.92.04-3.85.12-5.79.25-.71.05-1.42.1-2.13.13-.63,0-1.25-.02-1.86-.07-4.09-.33-8.16-.7-12.19-.5-3.03.03-6.03.31-9.02,1.13-.09.03-.2.04-.3.05-.32-.01-.63-.02-.94,0-2.16.07-4.32.08-6.48.06l-1.62-.02h-.82s-.97,0-.97,0c-.59,0-1.18.02-1.77.05h-.17c-1.29,0-2.58.09-3.87.2-5.14.5-10.24,2.01-14.69,4.61-4.64,2.71-8.85,6.02-12.51,9.87-3.66,3.85-6.77,8.27-9.05,13.15-1,2.11-1.61,4.44-2.4,6.57-.16.45-.32.9-.47,1.36-.14.46-.26.92-.38,1.39-.26.93-.41,1.88-.57,2.82-.14.95-.22,1.91-.28,2.86-.01.48-.02.95-.03,1.43v.7s.02.59.02.59c.13,3.16.5,6.27,1.05,9.26.8,4.35.72,8.39.35,12.46-.45,5-.83,9.85-.23,14.91.34,2.86.51,6.04.09,8.83-.01,1.7-.04,3.4.02,5.1.11,3.02.86,5.68,1.63,8.54.13.49.14,1.01.14,1.51.02,1.74.04,3.48.06,5.22,0,.32,0,.64.11.94.09.26.24.5.39.73,3.87,6.09,4.33,14.62,2.88,21.5-1.11,5.28-1.32,10.64-1.8,15.95-.13.64-.26,1.27-.4,1.9-.29,1.32-.56,2.64-.8,3.97-.05.58-.11,1.15-.16,1.73-1.31,13.79-2.09,27.52-1.97,41.46.09,9.74.41,19.48.48,29.23.03,3.87.13,7.74.05,11.6-.02,2.17.04,4.43.22,6.65.19,2.23.47,4.46.82,6.73.35,2.11.97,4.33,1.88,6.43.91,2.1,2.13,4.08,3.52,5.74,3.5,4.17,7.39,7.76,11.66,10.84,4.27,3.08,8.92,5.65,13.99,7.6l1.38.48.7.23.71.2,1.43.38c.48.11.96.2,1.45.3.97.21,1.95.31,2.94.44.49.06.99.08,1.48.11l.74.04.37.02h.31c.97.04,1.94.06,2.91.06,2.05.02,4.11-.02,6.18-.1.89-.03,1.77-.06,2.66-.1.36-.02.73-.03,1.09-.04.79-.02,1.58-.03,2.38-.04,1.53,0,3.07.01,4.6.05,1.96.05,3.94.12,5.9.13.47,0,.94,0,1.4,0,.02-.02.03-.04.05-.06,3.19.04,6.36-.07,9.42-.76,2.05-.46,3.94-.87,6.12-.78,4.99.2,9.99.43,14.99.45,6.19.03,12.33.2,18.52.53,7.37.39,14.85-.18,22.29-.34,3.32-.07,6.65-.24,9.97-.18.27,0,.55.02.82.04-.05.05-.1.11-.15.16,1.82.19,3.64.49,5.44.44,2.47-.07,4.94-.15,7.41-.24,2.2-.08,4.4-.16,6.6-.24,7.45-.26,14.89-.47,22.36-.28-.02-.03-.04-.06-.06-.08,2.19.04,4.38.11,6.58.22,2.05.11,4.11.2,6.17.28.03.04.05.07.08.11,4.53.16,9.06.27,13.59.3,1.1,0,2.19-.02,3.29-.07,3.03-.08,6.07-.37,9.11-.56.36,0,.71.03,1.07.05,3.17.17,6.34.4,9.51.51.38.01.75.01,1.12.01-.09-.03-.17-.05-.25-.08-.01,0-.02,0-.03-.01.2,0,.41.02.61.03,4.09.13,7.35-.39,9.93-1.37.82.02,1.62.17,2.44.23,1.36.11,2.77-.34,4.15-.42,1.59-.09,3.18-.02,4.76.2.29.04.59.09.88.05.25-.04.49-.14.73-.2,1.17-.31,2.33.16,3.49.25,1.25.1,2.54.09,3.8.09.05,0,.1,0,.14,0,.8,0,1.6-.01,2.4-.06,2.55-.04,5.13-.31,7.75-.96,1.11-.25,2.19-.62,3.31-1.01,1.08-.44,2.2-.9,3.27-1.49,2.17-1.15,4.29-2.65,6.24-4.59,2.01-1.98,3.96-4.14,5.61-6.46,1.66-2.32,3-4.81,3.8-7.29,1.02-3.12,1.75-6.25,2.33-9.38.58-3.13,1.02-6.26,1.42-9.48.13-.89.18-1.78.23-2.67.05-.98.06-1.56.06-2.27.01-1.37-.01-2.74-.07-4.1ZM269.46,179.18l-1.33,3.45c-.23.57-.45,1.15-.69,1.71l-.78,1.67c-.51,1.09-1,2.18-1.47,3.28-.52,1.08-1.03,2.16-1.52,3.24-.95,2.19-2.06,4.3-3.06,6.47-.5,1.08-1.1,2.12-1.63,3.18-.56,1.05-1.07,2.14-1.68,3.17-1.21,2.06-2.35,4.17-3.71,6.15-.96,1.45-2.37,2.6-3.51,3.92-.73.88-1.42,1.8-2.1,2.73-.7.91-1.43,1.8-2.16,2.69-1.59,2.02-3.32,3.95-5.02,5.9-.88.95-1.8,1.85-2.73,2.74-.47.44-.94.88-1.41,1.31-.49.42-1,.81-1.5,1.2-1.71,1.31-3.38,2.63-5.13,3.86l-2.57,1.9-2.64,1.83c-.71.49-1.41.99-2.14,1.45l-2.23,1.32-2.24,1.29c-.76.41-1.53.79-2.3,1.19-1.35.67-2.27,1.67-3.37,2.65-1.26,1.15-2.71,2.1-4.26,2.89-1.57.75-3.2,1.38-4.81,2.05-1.08.41-2.18.81-3.25,1.25-1.08.42-2.14.92-3.21,1.33-2.13.85-4.26,1.69-6.48,2.18-1.1.27-2.21.5-3.33.7-1.12.18-2.25.26-3.38.34-6.3.37-12.29,1.11-18.52,2.35-.62.13-1.26.23-1.91.29-.36.02-.73.03-1.09.03-.3,0-.59,0-.89-.02-1.33-.05-2.65-.21-3.89-.45-1.32-.31-2.63-.54-3.95-.71l-3.94-.43c-1.31-.13-2.63-.23-3.95-.31l-3.94-.44c-6.6-.84-13.19-2.03-19.6-3.98-5.37-1.63-10.57-3.83-15.58-6.34-3.93-2.07-8.1-4.07-11.26-7.06-3.54-3.21-7.43-6.07-10.27-9.97-1.39-2.09-3.24-3.76-5.24-5.2-1.01-.71-2.13-1.29-3.28-1.81-1.14-.53-2.35-.94-3.63-1.23-.32-.07-.79.02-.93-.15-.78-.91-1.52-1.83-2.35-2.68-.81-.87-1.69-1.69-2.48-2.58-1.57-1.8-3.18-3.6-4.13-5.88-.4-.91-.96-1.8-1.59-2.65-.62-.86-1.27-1.7-1.95-2.47-.58-.66-1.11-1.35-1.6-2.05-.48-.71-.88-1.46-1.29-2.21-.79-1.51-1.51-3.05-2.09-4.68-.49-1.32-1.06-2.59-1.7-3.85-.61-1.27-1.34-2.52-2.27-3.74-1.26-1.69-2.3-3.61-3.22-5.6-.81-2.03-1.46-4.17-1.76-6.39-.15-1.33-.63-2.64-.92-3.97-1.24-6.17-2.12-12.32-3.46-18.45-1.22-5.91-.7-11.93-.7-17.89.02-.73.25-1.55.08-2.19-.28-1.12-.44-2.24-.51-3.37-.05-1.12.06-2.24.2-3.35.15-1.11.33-2.22.6-3.32.29-1.1.6-2.19.91-3.28.18-.65.31-1.33.41-2.01.12-.68.23-1.37.32-2.04,1-7.41,3.9-14.31,8.31-20.08.95-1.2,1.88-2.43,2.76-3.69.9-1.24,1.82-2.48,2.63-3.77.28-.44.57-.87.87-1.3l.96-1.23,1.94-2.43c1.29-1.62,2.61-3.21,3.6-5.08.36-.61.81-1.17,1.15-1.79.86-1.59,1.73-3.2,2.7-4.73.95-1.56,1.86-3.15,2.83-4.68.57-.93,1.19-1.82,1.85-2.67.68-.84,1.42-1.61,2.17-2.39.76-.76,1.5-1.54,2.32-2.24.81-.71,1.62-1.42,2.44-2.13l1.14-1.04,1.16-1.02,2.29-2.09c1.52-1.4,3.13-2.7,4.75-3.99,3.93-2.85,8.04-5.46,12.33-7.73.77-.42,1.58-.82,2.37-1.22.8-.38,1.56-.8,2.22-1.33,2.21-1.85,4.76-3.14,7.34-4.36,2.64-1.09,5.32-2.09,8.04-2.92.75-.24,1.52-.45,2.29-.62.78-.15,1.57-.25,2.36-.35,1.58-.17,3.15-.38,4.73-.49,2.14-.17,4.24-.44,6.31-.75,2.06-.36,4.03-1.02,5.94-2.07,1.3-.73,2.69-1.29,4.14-1.59,1.45-.32,2.93-.52,4.42-.74,2.82-.37,5.65-.53,8.49-.53,4.89,0,9.79.49,14.61,1.29,1.12.15,2.18.62,3.26.97,1.07.35,2.11.8,3.21,1.02,7,1.58,13.97,3.57,20.41,6.66.47.22.94.44,1.42.65l1.38.7c.92.46,1.85.89,2.78,1.3,1.87.82,3.71,1.68,5.71,2.28.68.2,1.28.69,1.9,1.07,1.72,1.07,3.46,2.1,5.1,3.28l2.49,1.72c.82.59,1.6,1.22,2.4,1.84.8.63,1.52,1.38,2.18,2.14,1.8,2.21,3.87,3.85,6.51,4.94,1.02.41,2.04.85,2.98,1.4.94.56,1.85,1.17,2.72,1.84,1.79,1.3,3.29,3,4.71,4.82,1.09,1.44,2.61,2.7,4.07,3.86,1.39,1.13,2.55,2.48,3.72,3.83,1.17,1.35,2.15,2.85,3.25,4.26.96,1.25,1.91,2.51,2.87,3.76l1.46,1.87,1.37,1.94c.54.78,1.09,1.56,1.66,2.32.56.77,1.07,1.57,1.62,2.35,1.08,1.57,2.19,3.14,3.14,4.8.99,1.65,1.96,3.32,2.72,5.1.79,1.77,1.53,3.58,1.98,5.51,2.03,7.52,2.34,11.24,2.28,18.85,0,1.03-.1,2.11-.3,3.23-.9,5.04.16,8.67-.3,13.78-.33,3.59,1.4,10.16,1.38,13.77-.03,8.13-1.58,17.31-4.54,24.93Z"/>
</svg>