<?xml version="1.0" encoding="UTF-8"?>
<svg id="Layer_11" data-name="Layer 11" xmlns="http://www.w3.org/2000/svg" viewBox="0 0 148.12 210.2">
  <defs>
    <style>
      .cls-1 {
        fill: #1c5c7d;
      }
    </style>
  </defs>
  <path class="cls-1" d="M148.11,80.16c-.02-1.18-.02-2.35,0-3.51-.01-1.16-.08-2.32-.1-3.48-.02-.58-.01-1.16-.05-1.73l-.11-1.73c-.09-1.15-.08-2.31-.22-3.47-.18-1.65-.3-3.33-.65-4.98-.16-.83-.33-1.66-.49-2.49-.16-.83-.42-1.64-.64-2.46-.23-.83-.44-1.66-.68-2.49-.26-.82-.52-1.65-.78-2.47-.36-1.24-.81-2.46-1.28-3.66-.23-.6-.47-1.2-.72-1.78-.27-.58-.56-1.13-.86-1.68-.52-.93-.94-1.81-1.45-2.81-.58-1.15-1.14-2.31-1.75-3.45l-1.95-3.35c-.88-1.34-1.75-2.67-2.66-3.98l-1.42-1.92c-.47-.64-.94-1.3-1.46-1.9-.61-.73-1.23-1.46-1.85-2.2-.62-.73-1.32-1.4-1.99-2.09-1.31-1.41-2.8-2.66-4.2-3.97-.65-.57-1.33-1.09-1.99-1.64-.68-.53-1.31-1.12-2.01-1.61-1.05-.78-2.03-1.66-3.11-2.39-5.97-3.95-12.48-6.97-19.26-9.27-3.49-1.1-7.05-2.08-10.69-2.62-1-.14-1.99-.35-3-.4l-3.02-.24c-.3-.03-.6-.06-.9-.09-1.63-.09-3.27-.23-4.91-.28-1.68,0-3.09.08-4.26.21-1.17.17-2.09.42-2.8.67-.74.27-1.25.56-1.58.86-.19.02-.38.03-.56.05-.16.02-.32.04-.48.06-.08-.03-.16-.07-.19-.11-.2-.23-.49-.41-1.02-.53-.54-.12-1.33-.21-2.52-.13-3.51.18-6.81.41-10.89,1.86-2.08.76-4.28,1.59-6.07,2.6-2.27,1.22-4.38,2.57-6.68,3.84-5.01,2.91-9.21,6.59-13.18,10.56-1.67,1.65-3.21,3.4-4.76,5.16-1.73,2.03-3.43,4.08-4.85,6.31-.39.57-.75,1.18-1.12,1.77-.37.6-.78,1.17-1.15,1.74-1.97,2.85-3.45,5.8-4.53,8.76-.37.96-.73,1.92-1.13,2.87-.42.94-.81,1.89-1.25,2.85-.32.68-.61,1.39-.86,2.12-1.03,2.87-1.86,5.81-2.46,8.81-.11.54-.26,1.09-.3,1.62-.16,1.54-.42,3.05-.56,4.58-.09.77-.18,1.53-.28,2.3-.07.77-.13,1.55-.2,2.34-.24,2.68-.25,5.39-.19,8.09.14,2.7.35,5.41.77,8.09.13.83.18,1.67.33,2.49.14.83.24,1.67.41,2.5,1.26,5.66,3.14,11.19,5.65,16.38.96,2.03,1.99,4.02,3.17,5.76,1.73,2.53,3.21,5.4,4.79,8.18,1.15,2.06,2.28,4.12,3.56,6.11,2.31,3.57,4.66,7.14,7.24,10.48.76.98,1.5,2.15,2.23,3.24,2.04,3.01,4.04,6.04,6.03,9.07,1.7,2.58,3.41,5.15,5.03,7.78,1.7,2.75,3.35,5.5,5.2,8.15,1.55,2.22,3.07,4.5,4.6,6.77.29.45.58.91.87,1.36,1.76,2.68,3.17,5.4,4.74,8.1,1.15,1.98,2.22,3.99,3.23,5.94,2.38,4.65,4.96,9.27,7.74,13.93.49.81,1.07,1.83,1.73,2.71,1.09,1.46,2.49,2.83,4.43,3.55.96.35,2.06.48,3.11.29,1.05-.16,2.01-.65,2.76-1.26.44-.35.99-.79,1.41-1.23.84-.91,1.51-1.87,2.13-2.82l1.78-2.79c1.18-1.85,2.36-3.71,3.48-5.6,2.34-3.95,4.86-7.84,7.39-11.7.55-.83,1.08-1.71,1.64-2.51,1.86-2.66,3.56-5.47,5.03-8.14,1.06-1.94,2.18-3.67,3.34-5.38,1.43-2.1,2.8-4.15,4.09-6.38.75-1.3,1.61-2.72,2.45-3.89,2.07-2.9,3.74-6,5.69-8.94.09-.14.12-.34.2-.53,1.23-3.05,3.24-6.52,5.42-9.46,2.11-2.85,4.02-5.91,6.06-8.78,1.85-2.58,3.67-5.46,5.44-8.26,2.23-3.53,4.39-7.12,6.3-10.86,2.27-4.46,4.25-9.09,5.64-13.93l.41-1.44c.13-.48.23-.97.35-1.46l.35-1.46.29-1.47.29-1.47.23-1.47c.16-.98.33-1.95.52-2.93.16-.91.26-1.9.36-2.88.08-.99.2-1.97.17-2.91ZM70.63,46.81c1.22.34,2.3.7,3.68.76.72,0,1.47.05,2.14-.08.83-.08,1.67-.12,2.51.03.23.04.47.07.7.11.23.05.45.1.68.14.45.09.91.15,1.37.21.93.07,1.81.3,2.71.54l1.13.3c.36.14.72.29,1.07.45.81.37,1.61.73,2.4,1.13.42.19.88.38,1.24.66.48.32.89.73,1.36,1.02.46.31.95.56,1.47.79.63.35,1.12.86,1.54,1.45.14.22.32.41.47.63l.95,1.24c.31.42.66.8.92,1.26.1.16.19.33.31.47.35.4.67.82.96,1.26.28.45.5.94.73,1.42l.61,1.24.52,1.28.53,1.28.42,1.32c.08.27.12.56.18.84l.16.85c.19.96.45,1.91.61,2.88.13.97.36,1.93.48,2.91.1.76.18,1.52.47,2.23.33,1.05.23,2.19.05,3.29-.16.81-.39,1.61-.47,2.42-.27,1.45-.54,2.89-.73,4.35-.05.43-.21.89-.34,1.33l-.67,1.77c-.12.29-.21.59-.34.88l-.41.85c-.23.48-.44.98-.65,1.47-.24.48-.52.94-.79,1.39-.31.47-.57.96-.92,1.39-.33.44-.65.9-.92,1.4l-.35.62c-.13.2-.28.38-.42.57l-.86,1.15c-.11.15-.25.28-.36.43-.37.42-.83.74-1.27,1.06-.45.3-.88.64-1.35.91-.68.41-1.4.76-2.1,1.06-.85.32-1.71.6-2.52.99-.4.21-.83.33-1.25.51-.42.17-.84.36-1.25.56-.31.14-.61.32-.95.37-.55.1-1.1.2-1.64.35-.53.14-1.04.37-1.56.58-.15.07-.36.07-.54.1-.74.14-1.48.25-2.23.35-.76.04-1.51.09-2.27.2-.39.06-.79.11-1.19.15-.4.03-.79,0-1.19-.01-.8-.03-1.59-.09-2.38-.15-.34-.06-.69-.09-1.01-.18-1.08-.32-2.2-.33-3.24-.45-.76-.05-1.46-.22-2.12-.47-.79-.38-1.56-.73-2.42-.93-.51-.12-1.01-.39-1.42-.67-.49-.37-1.06-.59-1.58-.88-.52-.3-1.05-.59-1.53-.95-.05-.03-.15,0-.22,0-.65-.03-1.24-.31-1.8-.65-.54-.36-1.09-.77-1.44-1.33-.69-1.07-1.62-1.9-2.21-2.99-.28-.48-.64-.91-.95-1.39-.31-.48-.63-.96-.94-1.43-.41-.59-.72-1.23-1.06-1.86-.33-.63-.7-1.25-.96-1.92l-.52-1.17c-.18-.39-.35-.78-.48-1.19-.27-.81-.59-1.61-.81-2.43-.16-.66-.34-1.32-.48-1.98-.16-.66-.17-1.35-.17-2.03,0-.64-.05-1.34-.14-1.97-.13-.79-.27-1.57-.25-2.36.02-.79.09-1.57.21-2.35.13-.55.22-1.11.29-1.67.07-.56.09-1.13.18-1.69.07-.57.17-1.14.28-1.71.18-.85.5-1.67.51-2.53,0-.37.03-.71.18-1.06.34-.8.62-1.63.98-2.42.23-.48.47-.97.7-1.45.12-.24.23-.48.37-.71l.44-.67c.35-.53.65-1.1.98-1.65l1.07-1.6c.31-.49.68-.93,1.07-1.35.3-.32.66-.58.94-.91.38-.46.84-.84,1.25-1.26.44-.4.82-.87,1.32-1.2.95-.72,1.88-1.47,2.99-1.96.55-.26,1.07-.58,1.64-.81.57-.22,1.14-.45,1.7-.69.31-.12.6-.3.92-.41l.95-.36c.09-.03.19-.06.29-.08l1.6-.38c1.69-.26,3.63-1,4.46-.78Z"/>
</svg>