<?xml version="1.0" encoding="UTF-8"?>
<svg id="Layer_11" data-name="Layer 11" xmlns="http://www.w3.org/2000/svg" viewBox="0 0 277.48 252">
  <defs>
    <style>
      .cls-1 {
        fill: #1c5c7d;
      }
    </style>
  </defs>
  <path class="cls-1" d="M202.1,239.56l-.04-.31c0-.12-.06-.3-.09-.44-.08-.31-.19-.6-.31-.89l-.09-.13-.06-.06-.05-.06c-.06-.09-.13-.17-.22-.24-.08-.08-.16-.15-.25-.2-.09-.06-.18-.13-.28-.17l-.3-.14-.32-.11c-.1-.04-.22-.08-.32-.1l-.23-.06c-.55-.12-1.05-.18-1.54-.23-.98-.1-1.92-.15-2.86-.19-1.51-.07-3.02-.09-4.42-.2-.34-.03-.69-.07-.95-.11-.07-.02-.07-.01-.2-.05l-.22-.06c-.07-.02-.18-.02-.26-.03l-.62-.04c-.76-.04-1.52-.1-2.28-.12-1.76-.07-3.5-.03-5.23-.03-4.77-.02-9.5.14-14.2.21-1.33.02-2.65-.02-3.94,0-1.98.02-3.95.04-5.92-.01-.98,0-1.96-.07-2.94-.11l-1.46-.1-.37-.03h-.08s-.02,0-.02,0h-.05s-.04-.05-.04-.05v-.04s.04-.61.04-.61l.16-2.49c.42-7.07.58-14.15.59-21.21.02-6.18-.1-12.33-.13-18.49-.04-7.17-.02-14.32.06-21.56.06-5-.03-10.18-.04-15.29,0-3.82,0-7.66.01-11.49,0-1.68,0-3.36.01-5.03.02-1.77.04-3.54.06-5.31,0-1.43-.02-2.86-.03-4.29.01-4.98.02-9.97.04-14.93-.03-7.49-.05-14.95-.08-22.44,0-2.72.07-5.48.08-8.22,0-4.31-.02-8.62-.03-12.93-.05-4.84-.15-9.68-.28-14.51-.15-5.65-.3-11.28-.35-16.92l-.02-2.61v-.65s.01-.59.01-.59c.03-.38.07-.75.16-1.09.17-.69.5-1.28.99-2,.47-.7,1.03-1.54,1.39-2.38,2.04-4.19,2.98-9.07,2.11-13.77-.57-2.95-1.79-5.76-3.54-8.19-1.79-2.4-4.06-4.44-6.66-5.9-4.12-2.33-9.11-3.18-13.76-2.17-2.97.65-5.72,2.01-8.1,3.81-.65.44-1.25.99-1.88,1.49h.05c-2.76,2.46-5.05,5.61-6.23,9.21-1.2,3.59-1.21,7.55-.19,11.16.11.46.27.9.42,1.34.14.45.32.88.49,1.32.36.86.78,1.7,1.21,2.5.43.8.85,1.56,1.18,2.33.33.77.58,1.55.75,2.36.18.82.25,1.65.31,2.53.05.88.08,1.76.09,2.64.03,1.77,0,3.55-.03,5.34-.05.91-.09,1.83-.12,2.77-.02.96-.04,1.96-.06,2.91-.11,9.35-.1,18.72-.06,28.2.03,4.32.06,8.64.09,12.95.04,2.53.07,5.01.11,7.55.02,6.01.04,12.04.06,18.06,0,.84-.02,1.69-.04,3.17,0,.46,0,1.57.01,2.68v11.45s0,21.42,0,21.42v2.89c.01,4.3.06,8.67.05,12.88-.03,5.54.02,11,.1,16.55.09,5.37.18,10.76.26,16.14.03,1.96.07,3.91.06,5.85-.02,1.95-.04,3.91-.06,5.86,0,1.29.01,2.52.05,3.86.11,1.27.21,2.53.29,3.78.1,1.82.21,3.63.31,5.42.05.9.12,1.79.19,2.67.04.44.08.88.12,1.32l.02.16v.08s.01.03.01.03l.02.12.05.25.06.27c-.15.03-.32.07-.52.1-.06,0-.09.02-.17.03l-.34.03-.68.06c-1.94.03-3.63.06-5.32.08-2.23.04-7.53.43-8.46.64-.87-.09-1.75-.2-2.63-.3-1.57-.18-3.18-.31-4.8-.29l-4.69.05c-3.12.04-6.25.08-9.37.11l-4.47.07-2.24.04-1.12.02h-.73c-.15.04-.3.03-.44.09-.14.05-.28.12-.4.2-.5.3-.91.93-1.09,1.27-.22.4-.38.79-.52,1.19-.07.19-.13.45-.17.65-.04.2-.08.4-.11.59-.07.39-.12.77-.17,1.15-.19,1.52-.32,3.02-.39,4.55-.02.49-.03.98-.02,1.49,0,.25.02.52.04.78,0,.06.01.14.02.21l.04.3c.04.19.11.37.16.56l.03.06c.21.41.55.73.95.97.1.06.2.12.31.16.09.04.17.08.26.11.17.06.34.12.51.16.32.09.72.15.98.17.29.03.58.07.87.09,1.16.1,2.31.15,3.45.18,2.29.06,4.55.03,6.79.07,2.21.05,4.51.16,6.76.23l6.79.19c3.27.08,6.54.14,9.81.17,3.98,0,7.98.01,11.94.02,5.38.01,10.73.06,16.1,0,6.87-.08,13.75-.25,20.62-.35,3.62-.06,7.34-.08,10.88.11,1.02.05,2.42.05,3.65.07l.35-.02c1.45,0,2.92-.01,4.34,0,4.04.06,8.08.01,12.18-.07,1.46-.03,2.98-.1,4.53-.21l.58-.04c.22-.02.44-.04.65-.07.43-.06.87-.14,1.31-.25.45-.12.91-.26,1.41-.53.13-.08.25-.14.39-.23.15-.1.32-.23.44-.35.14-.12.26-.27.37-.42.1-.15.18-.32.27-.48l.15-.43c.04-.13.05-.2.08-.31.05-.2.09-.39.12-.56.07-.36.12-.7.17-1.04.19-1.37.3-2.71.35-4.07.02-.68.04-1.36,0-2.07-.01-.36-.03-.71-.08-1.1Z"/>
  <path class="cls-1" d="M277.35,128.86c-.1-.27-.22-.52-.4-.75-.11-.14-.16-.21-.23-.28-.07-.07-.14-.16-.21-.22-.27-.28-.54-.52-.81-.76-.54-.47-1.09-.9-1.64-1.33-1.32-1.02-2.66-1.98-4-2.93-.87-.59-1.73-1.17-2.6-1.76-.22-.15-.44-.35-.65-.52v.04c-.54-.39-1.04-.75-1.51-1.16-.49-.41-.97-.84-1.45-1.27l-2.89-2.63c-1.94-1.76-3.91-3.52-6-5.16-.24-.24-.51-.46-.79-.67-.29-.22-.58-.44-.86-.65-1.4-1.06-2.88-2.06-4.72-2.73l-.74-.19-.41-.1c-.09-.03-.19-.02-.28-.02h-.22s-1.29,0-1.29,0c-.86,0-1.72.02-2.58.03-1.57.03-3.14.05-4.71.08-.92.02-1.82.08-2.75.09-2.19.02-4.38.02-6.57.02-.31,0-.61-.02-1.15-.05-.17,0-.57,0-.98,0l-4.17-.05-7.8-.13-1.05-.03c-1.57-.02-3.16,0-4.69-.07-2.02-.09-4.01-.11-6.03-.1-1.96,0-3.92,0-5.89,0-1.43,0-2.86-.02-4.28,0-.93.01-1.85.12-2.77.12-1.33,0-2.65-.1-3.92.11-.2.04-.4.08-.59.13-.03,0-.06,0-.1.01h-.05c-.15-.05-.3-.1-.45-.15-.05-.02-.11-.04-.16-.05-.07,0-.13.02-.19,0-.09-.03-.18-.12-.27-.12-.11,0-.22.09-.33.11-.06.01-.12.07-.18-.08l-.06-.02v.02s-.07.04-.07.04c-.07-.03-.13.01-.2-.07-.06-.07-.12-.02-.18-.03-.07,0-.15-.02-.22-.03h-.15s-.08.09-.08.09c-.08,0-.16-.03-.24-.05l-.07-.06c-.06.03-.13.07-.19.11l-.08.04c-.11.02-.23.03-.34.07-.1.03-.2.1-.3.11-.12.01-.23.06-.35,0-.08-.04-.16.08-.24.11-.06.02-.12.02-.19.04h-.08s-.09-.03-.09-.03l-.07.05c-.08.01-.16,0-.24.03-.12.04-.24.13-.36.17l-.14-.04c-.07,0-.14.06-.21.07-.08,0-.16,0-.24-.01-.09,0-.18,0-.28,0-.06,0-.11,0-.17,0-.07,0-.15,0-.22.02-.09.02-.18.04-.27.07-.07.02-.15.02-.22.05l-.14.09-.04-.04v.04c-.23,0-.47-.01-.7-.02l-.05-.06-.05-.02c-.16-.14-.32-.19-.47-.14-.07.02-.14.05-.21.1l-.12.12s-.05.02-.08.03c-1.24-.1-2.53-.16-3.82-.18-.38,0-.82.02-1.23.07-.95.11-1.9.28-2.9.56-.32.12-.63.19-.99.4-.08.04-.19.1-.25.14l-.22.15c-.19.13-.37.27-.52.43-.31.33-.49.76-.5,1.22l-.05.98c-.05,1.15-.07,2.3-.07,3.45.02,2.17.04,4.35.06,6.52,0,.35,0,.7,0,1.05-.11,3.26-.29,6.56-.44,9.85-.05,1.19-.11,2.38-.14,3.58-.04,1.45-.03,2.92-.06,4.37-.04,1.97-.11,3.94-.05,5.91.04,1.26.12,2.53.23,3.8l.08.95c.03.35.08.68.13,1.01.11.67.23,1.32.47,2.07.08.23.15.42.32.74.26.46.69.83,1.05,1.04.37.23.72.37,1.05.5.67.24,1.29.38,1.89.54.4.1.95.14,1.42.18h.14c.56.01,1.11,0,1.64.02,1.51.06,3.01-.02,4.46.05.62.03,1.26.06,1.92.09.68.02,1.37.05,2.05.07l4.89.19c1.09.03,2.19.07,3.28.08.63,0,1.26-.06,1.89-.05,1.73.05,3.45.09,5.17.14.49.02.97.08,1.45.07,1.46-.01,2.91-.04,4.37-.08.6-.01,1.21-.02,1.81-.03,2.57-.02,5.14-.04,7.71-.09,2.25-.07,4.49-.13,6.74-.2,2.62-.06,5.23-.16,7.87-.18,1.83,0,3.71-.18,5.57-.28,1.39-.06,2.79-.12,4.19-.19.61-.03,1.22-.05,1.83-.08.64,0,1.28-.02,1.91-.03.51,0,1.02-.07,1.54-.07.9-.02,1.81-.01,2.75-.05.94-.03,1.94-.12,2.92-.37,1.51-.36,2.85-1.09,4.04-1.86,1.19-.78,2.31-1.64,3.38-2.48.78-.61,1.62-1.18,2.41-1.8,1.24-.98,2.44-2,3.66-3,1.36-1.12,2.74-2.23,4.09-3.38,1.57-1.34,3.14-2.7,4.66-4.11.94-.87,1.87-1.76,2.79-2.67,1.16-1.18,2.33-2.41,3.36-3.76l.33-.42c.14-.18.33-.47.43-.73.23-.55.21-1.17.05-1.73Z"/>
  <path class="cls-1" d="M77.79,126.86c1.39.02,2.79.03,4.19.05.61,0,1.22.01,1.83.02.65.01,1.29.06,1.94.07.52,0,1.04-.04,1.57-.04,1.82,0,3.64.02,5.45-.03,2.74-.07,5.46-.2,8.2-.37.99-.06,2.01-.05,3.01-.11.79-.05,1.57-.11,2.4-.21.82-.11,1.68-.22,2.61-.65.26-.1.52-.29.77-.46.23-.2.48-.42.65-.66l.26-.37.19-.38c.14-.26.2-.5.29-.75.3-.99.39-1.91.49-2.82.17-2.1.26-4.16.3-6.23.03-1.28.03-2.56.02-3.84,0-1.64-.04-3.29-.09-4.93l-.26-6.2c-.07-1.63-.14-3.27-.21-4.9-.05-1.04-.11-2.08-.16-3.12-.01-.27.02-.56.03-.84h-.04c-.02-1.28-.03-2.61,0-3.86.03-1.23.25-2.45.39-3.84.05-.69.12-1.46-.17-2.34-.09-.21-.19-.43-.3-.63-.13-.19-.28-.38-.43-.56-.32-.31-.68-.59-1.04-.75-.72-.39-1.43-.55-2.12-.7-.69-.13-1.38-.24-2.03-.27-.33-.06-.67-.1-1.01-.14-.35-.03-.72-.06-1.06-.09-.86-.09-1.71-.18-2.57-.27-.86-.08-1.71-.12-2.57-.17-1.72-.1-3.44-.15-5.17-.16-1.58-.03-3.16,0-4.73,0-.93,0-1.83.08-2.75.09-2.19.03-4.39.06-6.58.09-.31,0-.62-.01-1.16-.02-.17,0-.57.01-.98.03l-4.17.05-7.8.11h-1.05c-1.56.03-3.16.1-4.69.08-2.02-.03-4,0-6.02.06-1.95.06-3.91.07-5.87.09-1.42,0-2.84,0-4.26,0-.92,0-1.85.09-2.75.08-1.32-.01-2.63-.15-3.9.02-.42.08-.85.15-1.21.22-.71-.01-1.32-.02-1.93-.03-.85-.02-2.93.28-3.13.46-.08.07-.1.17.02.24,0,0,0,0,0,0-.03,0-.06,0-.1,0-.33.13-.65.28-.97.42-.08-.02-.15-.03-.24-.05-.27-.04-.79.06-1.34.26-1.41.54-2.84,1.27-4.21,2.07-.32.19-.69.45-1.01.7-.75.58-1.46,1.2-2.18,1.8-1.78,1.47-3.49,2.98-5.19,4.48l-2.43,2.13-1.22,1.02c-.39.31-.84.63-1.27.95-.29.2-.57.41-.86.61-1.35.93-2.72,1.87-4.07,2.84-1.35.99-2.68,1.94-3.99,3.21-.24.25-.47.48-.73.87-.06.08-.14.23-.2.36-.06.1-.14.42-.16.59-.03.28-.01.53.04.8.1.54.35.96.55,1.26l.27.39.29.38c.93,1.26,1.98,2.32,3,3.38,1.39,1.44,2.77,2.85,4.24,4.15,1.89,1.68,3.86,3.24,5.81,4.83,1.03.84,2.12,1.66,3.04,2.59.26.27.68.57,1.03.85l.11.06c.42.32.86.63,1.26.96,1.13.93,2.29,1.82,3.46,2.81,1.01.84,2.26,1.69,3.64,2.33,1.66.81,3.49,1.18,5.17,1.37,1.14.14,2.25.2,3.36.25.64.02,1.27-.03,1.9,0,1.73.07,3.46.13,5.18.2.49.02.97.08,1.45.08,1.46,0,2.91-.04,4.37-.07.6,0,1.21-.02,1.81-.03,2.56-.01,5.13-.03,7.69-.04,2.24-.02,4.47-.07,6.71-.04,2.61.03,5.21.05,7.84.17,1.82.08,3.71.01,5.57.02Z"/>
  <path class="cls-1" d="M164.73,89.87c.09,1.12.21,2.17.35,3.28.04.29.08.59.14.9l.05.24c.02.09.03.15.07.29.06.25.15.49.28.72.24.44.68.84,1.01,1.06.46.31.76.4,1.09.55.36.15.85.24,1.25.32h.12c.48.07.96.1,1.42.17,1.29.19,2.6.23,3.85.38,1.09.13,2.3.15,3.46.2,1.4.08,2.8.13,4.2.18.94.04,1.88.06,2.81.07.54,0,1.08-.06,1.62-.05,1.48.04,2.96.07,4.43.11.42.01.83.07,1.24.07,1.25-.02,2.49-.07,3.74-.1l1.55-.05c2.2-.03,4.41-.07,6.61-.14,1.92-.08,3.84-.15,5.77-.23,2.24-.07,4.48-.18,6.73-.2,1.56-.01,3.17-.19,4.77-.28,1.19-.06,2.39-.12,3.58-.18.52-.03,1.03-.06,1.56-.07.56-.01,1.13,0,1.7-.05.47-.04.93-.13,1.41-.2.83-.13,1.67-.31,2.5-.62.82-.3,1.64-.75,2.32-1.27,1.01-.76,1.87-1.57,2.73-2.4.86-.82,1.67-1.68,2.5-2.52.59-.62,1.24-1.2,1.83-1.82.93-.98,1.82-2,2.72-3l3.05-3.36c1.18-1.31,2.35-2.68,3.46-4.04.7-.84,1.38-1.7,2.06-2.57.36-.46.71-.92,1.06-1.4.17-.25.35-.48.52-.75.09-.14.15-.22.29-.47.14-.22.19-.44.28-.67.08-.42.04-.86-.09-1.27-.11-.37-.23-.59-.37-.85-.14-.24-.28-.46-.43-.66-.3-.41-.62-.77-.95-1.11-.65-.68-1.34-1.29-2.02-1.88l-1.62-1.36c-.26-.22-.53-.44-.77-.66-.22-.2-.47-.46-.72-.7-.63-.62-1.28-1.23-1.9-1.86-.16-.17-.31-.37-.46-.55l-.02.03c-3.03-3.26-6.01-6.66-9.44-9.67-.2-.21-.41-.42-.63-.62-.22-.21-.47-.4-.7-.6-.55-.5-1.13-.97-1.73-1.44-.29-.23-.61-.45-.91-.67-.22-.14-.5-.38-.78-.51h-.91c-1.47-.04-2.94-.04-4.41-.02-1.35.03-2.7.06-4.04.08-.79.02-1.56.09-2.35.11-1.87.03-3.75.05-5.63.08-.26,0-.53-.02-.99-.03-.14,0-.49,0-.84.01h-3.57s-6.68-.02-6.68-.02l-.9-.02c-1.34,0-2.7.04-4.02-.01-1.73-.07-3.43-.07-5.16-.05-1.67.03-3.35.02-5.03.02-1.22,0-2.44-.03-3.66-.03-.79,0-1.58.1-2.36.09-1.13-.01-2.26-.14-3.35.04-.36.08-.73.16-1.04.23-.61,0-1.13,0-1.66,0-.25,0-.63.04-1.02.1,0,0,0,0-.01-.02-.03-.07-.06-.03-.09-.04l-.11-.04h-.07s-.04.08-.04.08l-.12-.07-.03-.06-.1.1-.04.03c-.06.02-.12.02-.17.05l-.15.1c-.06,0-.12.05-.18-.01l-.12.1-.09.03h-.04s-.04-.04-.04-.04l-.03.04-.12.02c-.06.04-.12.11-.18.15l-.07-.05-.11.06-.12-.02h-.14s-.09-.01-.09-.01h-.11s-.14.06-.14.06l-.11.04-.07.08-.02-.04v.04c-.12-.02-.24-.04-.36-.05l-.02-.06-.02-.02c-.08-.15-.16-.21-.24-.17l-.1.08-.06.11-.03.02c-.11-.02-.23-.03-.35-.04-.09,0-.19,0-.28-.01,0,0-.02,0-.03,0-.56-.02-1.18,0-1.82.18-.74.2-1.55.7-2.06,1.47-.13.17-.21.39-.31.6-.08.21-.13.44-.18.65-.16.97-.05,1.85.04,2.67.11,1.01.29,1.97.29,2.8l-.03,2.91c-.02,1.85-.05,3.7-.1,5.56,0,.3-.02.6-.03.9l-.46,8.45c-.05,1.02-.11,2.04-.14,3.06-.02,1.25-.04,2.5-.06,3.74-.03,1.69-.13,3.37-.08,5.06.02,1.08.1,2.17.17,3.25Z"/>
</svg>