<?xml version="1.0" encoding="UTF-8"?>
<svg id="Layer_11" data-name="Layer 11" xmlns="http://www.w3.org/2000/svg" viewBox="0 0 314.01 288">
  <defs>
    <style>
      .cls-1 {
        fill: #1c5c7d;
      }
    </style>
  </defs>
  <path class="cls-1" d="M313.94,236.38c-.1-2.72-.32-5.43-.58-8.13-.52-5.4-1.22-10.76-1.58-16.18-.3-4.52-.79-9.03-.9-13.56-.13-5.16-.02-10.31-.77-15.41-.39-2.65-.83-5.49-.6-8.11.57-6.71,0-13.06-1.72-19.17-1.13-4-1.05-7.97-.33-12.06.26-1.46.5-2.96.56-4.46.21-5.92.35-11.85.5-17.77.03-1.07.14-2.17,0-3.19-.82-6-.68-11.95-.38-18.08.51-10.47.37-21.01.56-31.52.03-1.63.34-3.25.52-4.88.18-1.64.49-3.27.52-4.91l.14-8.42.04-4.21c0-.16,0-.4,0-.6v-.62s-.04-1.24-.04-1.24c-.06-.83-.11-1.66-.2-2.48-.73-6.61-3.09-13.06-6.87-18.43-1.46-2.1-3.07-4.08-4.91-5.77-1.83-1.69-3.88-3.09-6.09-4-3.23-1.31-6.19-2.82-9.28-4.24-3.07-1.43-6.24-2.83-9.6-3.79-2.47-.72-5.03-1.3-7.62-1.59-2.31-.29-4.62-.52-6.93-.54-5.01-.04-10.05-.21-15.07-.04-3.97.07-7.94.32-11.87.97-.44.07-.89.12-1.35.15-1.48-.01-2.99-.11-4.47-.13-7.15-.1-14.3-.33-21.45-.34-2.3,0-4.61.05-6.91.12-1.31.03-2.61.07-3.92.11-2.48.06-4.95.09-7.42.02-4.65-.14-9.26-.42-13.88-.23-2.35.03-4.71.17-7.07.48-5.32.7-10.72,1.12-16.1,1.64-.17.02-.34.02-.52.03-.23,0-.45.01-.68.03-.66.01-1.32.01-1.98.05-.15,0-.3.01-.45.02-5.45,0-10.71-1.07-16.09-1.48-4.5-.34-8.98-1.05-13.31-1.93C106.8.67,97.64-.1,88.28.24c-1.92.04-3.85.12-5.79.25-.71.05-1.42.1-2.13.13-.63,0-1.25-.02-1.86-.07-4.09-.33-8.16-.7-12.19-.5-3.03.03-6.03.31-9.02,1.13-.09.03-.2.04-.3.05-.32-.01-.63-.02-.94,0-2.16.07-4.32.08-6.48.06l-1.62-.02h-.82s-.97,0-.97,0c-.59,0-1.18.02-1.77.05h-.17c-1.29,0-2.58.09-3.87.2-5.14.5-10.24,2.01-14.69,4.61-4.64,2.71-8.85,6.02-12.51,9.87-3.66,3.85-6.77,8.27-9.05,13.15-1,2.11-1.61,4.44-2.4,6.57-.16.45-.32.9-.47,1.36-.14.46-.26.92-.38,1.39-.26.93-.41,1.88-.57,2.82-.14.95-.22,1.91-.27,2.86-.01.48-.02.95-.03,1.43v.7s.02.59.02.59c.13,3.16.5,6.27,1.05,9.26.8,4.35.72,8.39.35,12.46-.45,5-.83,9.85-.23,14.91.34,2.86.51,6.04.09,8.83-.01,1.7-.04,3.4.02,5.1.11,3.02.86,5.68,1.63,8.54.13.49.14,1.01.14,1.51.02,1.74.04,3.48.06,5.22,0,.32,0,.64.11.94.09.26.24.5.39.73,3.87,6.09,4.33,14.62,2.88,21.5-1.11,5.28-1.32,10.64-1.8,15.95-.13.64-.26,1.27-.4,1.9-.29,1.32-.56,2.64-.8,3.97-.05.58-.11,1.15-.16,1.73-1.31,13.79-2.09,27.52-1.97,41.46.09,9.74.41,19.48.48,29.23.03,3.87.13,7.74.05,11.6-.02,2.17.04,4.43.22,6.65.19,2.23.47,4.46.82,6.73.35,2.11.97,4.33,1.88,6.43.91,2.1,2.13,4.08,3.52,5.74,3.5,4.17,7.39,7.76,11.66,10.84,4.27,3.08,8.92,5.65,13.99,7.6l1.38.48.7.23.71.2,1.43.38c.48.11.96.2,1.45.3.97.21,1.95.31,2.94.44.49.06.99.08,1.48.11l.74.04.37.02h.31c.97.04,1.94.06,2.91.06,2.05.02,4.11-.02,6.18-.1.89-.03,1.77-.06,2.66-.1.36-.02.73-.03,1.09-.04.79-.02,1.58-.03,2.38-.04,1.53,0,3.07.01,4.6.05,1.96.05,3.94.12,5.9.13.47,0,.94,0,1.4,0,.02-.02.03-.04.05-.06,3.19.04,6.36-.07,9.42-.76,2.05-.46,3.94-.87,6.12-.78,4.99.2,9.99.43,14.99.45,6.19.03,12.33.2,18.52.53,7.37.39,14.85-.18,22.29-.34,3.32-.07,6.65-.24,9.97-.18.27,0,.55.02.82.04-.05.05-.1.11-.15.16,1.82.19,3.64.49,5.44.44,2.47-.07,4.94-.15,7.41-.24,2.2-.08,4.4-.16,6.6-.24,7.45-.26,14.89-.47,22.36-.28-.02-.03-.04-.05-.06-.08,2.19.04,4.38.11,6.58.22,2.05.11,4.11.2,6.17.28.03.04.05.07.08.11,4.53.16,9.06.27,13.59.3,1.1,0,2.19-.02,3.29-.07,3.03-.08,6.07-.37,9.11-.56.36,0,.71.03,1.07.05,3.17.17,6.34.4,9.51.51.38.01.75.01,1.12.01-.09-.03-.17-.05-.25-.08-.01,0-.02,0-.03-.01.2,0,.41.02.61.03,4.09.13,7.35-.39,9.93-1.37.82.02,1.62.17,2.44.23,1.36.11,2.77-.34,4.15-.42,1.59-.09,3.18-.02,4.76.2.29.04.59.09.88.05.25-.04.49-.14.73-.2,1.17-.31,2.33.16,3.49.25,1.25.1,2.54.09,3.8.09.05,0,.09,0,.14,0,.8,0,1.6-.02,2.4-.06,2.55-.04,5.13-.31,7.75-.96,1.11-.25,2.19-.62,3.31-1.01,1.08-.44,2.2-.9,3.27-1.49,2.17-1.15,4.29-2.65,6.24-4.59,2.01-1.98,3.96-4.14,5.62-6.46,1.66-2.32,3-4.81,3.8-7.29,1.02-3.12,1.74-6.25,2.33-9.38.58-3.13,1.02-6.26,1.42-9.48.13-.89.18-1.78.23-2.67.05-.98.06-1.56.06-2.27.01-1.37-.01-2.74-.07-4.1ZM179.78,104.9c.02-1.09.04-2.19.05-3.29.03-.9.07-1.8.12-2.7l.41-7.43c0-.26.02-.53.02-.79.04-1.63.07-3.26.08-4.89l.03-2.56c0-.73-.15-1.58-.25-2.46-.08-.72-.18-1.49-.04-2.35.04-.19.09-.38.16-.57.09-.19.15-.38.27-.53.45-.67,1.16-1.11,1.81-1.29.57-.16,1.11-.18,1.6-.16,0,0,.02,0,.03,0,.08,0,.17,0,.25.01.11,0,.21.02.31.04h.02s.05-.11.05-.11l.09-.07c.07-.04.14.01.21.15l.02.02.02.06c.1.02.21.03.31.05v-.03s.02.04.02.04l.06-.07.1-.03.12-.05h.1s.08,0,.08,0h.12s.11.03.11.03l.09-.05.06.04c.05-.03.11-.1.16-.14h.11s.03-.05.03-.05l.04.04h.04s.08-.03.08-.03l.11-.08c.05.06.1.02.16.01l.13-.08c.05-.02.1-.03.15-.04l.04-.03.08-.09.03.05.1.06.04-.07h.07s.1.04.1.04c.03,0,.05-.03.08.04,0,0,0,.01,0,.02.34-.05.68-.09.9-.09.46,0,.93,0,1.46,0,.28-.06.6-.13.92-.21.95-.16,1.95-.05,2.94-.04.69,0,1.38-.07,2.08-.08,1.07,0,2.15.02,3.22.02,1.48,0,2.95,0,4.43-.01,1.52-.02,3.02-.02,4.54.04,1.15.05,2.35,0,3.53.01h.79s5.87.03,5.87.03h3.14c.3,0,.61-.01.74-.01.41.01.64.03.87.03,1.65-.02,3.31-.05,4.95-.07.69-.01,1.38-.08,2.07-.1,1.18-.02,2.37-.05,3.55-.07,1.3-.02,2.59-.01,3.88.01h.8c.24.13.49.34.68.46.27.2.55.38.8.59.52.41,1.03.83,1.52,1.27.2.17.42.34.62.53.2.18.38.36.56.55,3.02,2.65,5.63,5.64,8.3,8.51l.02-.03c.13.16.26.34.4.49.55.56,1.12,1.09,1.67,1.64.22.21.44.44.63.61.21.19.44.38.67.58l1.43,1.2c.6.52,1.2,1.05,1.78,1.65.29.3.57.62.83.98.13.18.26.37.38.58.12.22.23.42.33.74.11.36.14.75.08,1.12-.08.2-.12.4-.24.59-.12.22-.17.28-.25.41-.15.24-.3.44-.46.66-.31.42-.62.83-.93,1.23-.6.77-1.2,1.51-1.81,2.26-.98,1.2-2.01,2.4-3.05,3.55l-2.68,2.96c-.8.88-1.58,1.78-2.4,2.64-.52.55-1.09,1.06-1.61,1.6-.72.75-1.44,1.49-2.2,2.22-.76.73-1.52,1.45-2.4,2.11-.6.46-1.32.85-2.04,1.12-.73.27-1.47.44-2.2.55-.42.07-.83.15-1.24.18-.51.04-1.01.03-1.5.05-.46.01-.92.04-1.38.06-1.05.05-2.1.11-3.15.16-1.4.08-2.82.24-4.19.25-1.99.02-3.95.11-5.92.18-1.69.07-3.38.13-5.08.2-1.93.06-3.87.09-5.81.12l-1.37.04c-1.1.03-2.19.07-3.29.09-.36,0-.72-.05-1.09-.06-1.3-.03-2.6-.06-3.9-.1-.47,0-.95.05-1.42.05-.82,0-1.65-.03-2.48-.06-1.23-.05-2.46-.1-3.69-.16-1.02-.05-2.08-.06-3.05-.18-1.11-.13-2.26-.17-3.39-.33-.4-.06-.82-.09-1.25-.15h-.11c-.36-.07-.79-.15-1.1-.28-.29-.13-.55-.22-.96-.49-.29-.19-.67-.54-.89-.93-.12-.2-.2-.41-.25-.63-.03-.12-.04-.18-.06-.26l-.04-.21c-.05-.28-.09-.54-.12-.8-.12-.98-.23-1.91-.31-2.89-.06-.95-.13-1.91-.15-2.86-.05-1.49.04-2.97.07-4.45ZM91.59,144.58c-1.97-.03-3.93.02-5.9.03-2.25.01-4.51.03-6.77.04-.53,0-1.06.02-1.59.03-1.28.03-2.56.05-3.84.06-.42,0-.84-.06-1.27-.07-1.52-.06-3.04-.12-4.56-.18-.55-.02-1.11.02-1.67,0-.97-.04-1.95-.1-2.96-.22-1.48-.17-3.08-.49-4.55-1.21-1.22-.57-2.31-1.31-3.2-2.05-1.03-.87-2.05-1.65-3.04-2.47-.35-.29-.74-.56-1.11-.84l-.1-.06c-.3-.25-.67-.52-.9-.75-.81-.82-1.77-1.54-2.67-2.28-1.72-1.4-3.45-2.77-5.11-4.25-1.3-1.15-2.51-2.39-3.73-3.65-.9-.93-1.82-1.86-2.64-2.97l-.25-.33-.24-.34c-.17-.26-.39-.63-.48-1.11-.04-.23-.06-.45-.03-.7.02-.15.09-.43.14-.52.05-.11.12-.25.17-.32.23-.35.43-.55.64-.77,1.15-1.12,2.32-1.95,3.51-2.83,1.19-.86,2.38-1.68,3.58-2.5.25-.18.5-.36.75-.54.38-.28.77-.56,1.12-.83l1.07-.9,2.14-1.87c1.5-1.32,3-2.65,4.57-3.94.63-.52,1.26-1.07,1.92-1.58.29-.22.61-.44.89-.61,1.21-.7,2.47-1.35,3.71-1.82.48-.17.94-.27,1.18-.23.08.01.14.03.21.04.28-.13.56-.26.85-.37.03,0,.06,0,.09,0,0,0,0,0,0,0-.11-.06-.09-.14-.02-.21.18-.16,2.01-.42,2.76-.41.54,0,1.08.02,1.7.03.32-.06.7-.13,1.07-.2,1.11-.15,2.27-.02,3.43-.01.8,0,1.61-.07,2.42-.07,1.25,0,2.5,0,3.75,0,1.72-.02,3.44-.03,5.16-.08,1.78-.05,3.52-.08,5.3-.05,1.35.02,2.75-.04,4.12-.07h.92s6.86-.1,6.86-.1l3.67-.05c.36,0,.71-.02.86-.02.48,0,.75.02,1.02.02,1.93-.03,3.86-.05,5.79-.08.81-.01,1.61-.07,2.42-.08,1.38-.01,2.77-.03,4.16,0,1.52.02,3.04.05,4.55.14.76.04,1.5.08,2.26.15.76.08,1.51.16,2.26.24.3.03.63.05.94.08.3.03.6.07.89.12.57.03,1.18.13,1.78.24.61.14,1.23.28,1.87.62.32.14.63.39.92.66.13.16.27.32.38.49.09.18.18.37.26.56.25.78.19,1.45.15,2.06-.13,1.22-.32,2.29-.35,3.38-.02,1.1,0,2.27,0,3.41h.03c0,.23-.04.49-.02.73.05.92.1,1.83.14,2.74.06,1.44.12,2.88.18,4.31l.23,5.46c.04,1.44.07,2.89.08,4.33,0,1.12,0,2.25-.02,3.38-.03,1.83-.12,3.64-.26,5.48-.08.8-.17,1.61-.43,2.48-.08.22-.13.44-.26.66l-.17.34-.23.33c-.15.22-.37.41-.57.58-.22.15-.45.32-.67.41-.82.37-1.58.47-2.3.57-.72.09-1.41.14-2.11.18-.88.05-1.77.04-2.65.1-2.41.14-4.81.26-7.21.32-1.59.04-3.2.03-4.8.02-.46,0-.92.04-1.38.03-.57,0-1.13-.04-1.7-.06-.54,0-1.08-.01-1.61-.02-1.23-.01-2.46-.03-3.69-.04-1.64,0-3.3.05-4.9-.02-2.31-.11-4.6-.12-6.9-.15ZM212.81,246.7c-.05,1.2-.14,2.38-.31,3.58-.05.3-.09.6-.15.91-.03.15-.06.32-.11.49-.02.09-.03.16-.07.27l-.13.38c-.08.14-.15.29-.24.43-.1.13-.2.26-.32.37-.11.11-.26.23-.39.31-.12.08-.23.14-.34.2-.44.23-.85.36-1.24.46-.39.1-.78.17-1.16.22-.19.03-.38.04-.57.06l-.51.03c-1.36.1-2.7.16-3.98.18-3.61.07-7.17.11-10.72.06-1.25-.02-2.54,0-3.82,0l-.31.02c-1.08-.02-2.32-.01-3.21-.06-3.12-.17-6.39-.15-9.58-.1-6.05.09-12.1.24-18.14.31-4.72.05-9.43,0-14.16,0-3.49,0-7.01-.01-10.51-.02-2.88-.03-5.76-.08-8.63-.15l-5.97-.16c-1.98-.06-4-.16-5.95-.2-1.97-.03-3.96,0-5.97-.06-1.01-.03-2.02-.07-3.04-.16-.25-.02-.51-.05-.77-.08-.23-.02-.58-.07-.87-.15-.15-.04-.3-.09-.45-.15-.08-.03-.15-.06-.23-.1-.09-.04-.18-.09-.27-.14-.35-.21-.66-.49-.84-.85l-.03-.05c-.05-.16-.11-.32-.14-.49l-.04-.26c-.01-.07-.02-.13-.02-.19-.02-.24-.03-.47-.03-.69,0-.45,0-.88.02-1.31.06-1.35.18-2.67.34-4,.04-.33.09-.67.15-1.01.02-.17.06-.35.1-.52.04-.18.09-.4.15-.57.12-.36.26-.7.45-1.05.16-.3.52-.85.96-1.12.11-.07.23-.13.36-.17.12-.05.26-.04.39-.07h.64s.98-.03.98-.03l1.97-.03,3.94-.06c2.75-.03,5.5-.07,8.25-.1l4.12-.05c1.42-.02,2.84.1,4.22.26.78.09,1.55.18,2.31.27.82-.18,5.49-.53,7.45-.56,1.48-.02,2.97-.05,4.68-.07l.6-.05.3-.03c.07,0,.1-.02.15-.02.18-.03.33-.06.46-.09l-.05-.24-.04-.22-.02-.1v-.02s-.01-.07-.01-.07v-.14c-.05-.39-.08-.77-.12-1.16-.06-.78-.12-1.56-.17-2.35-.09-1.58-.18-3.17-.27-4.77-.07-1.1-.16-2.21-.25-3.32-.04-1.17-.05-2.26-.05-3.39.02-1.72.04-3.43.05-5.15.01-1.71-.02-3.42-.05-5.14-.08-4.73-.15-9.48-.23-14.2-.08-4.89-.12-9.69-.09-14.56.01-3.7-.03-7.55-.05-11.33v-2.54s0-18.84,0-18.84v-10.07c0-.98,0-1.96,0-2.36.02-1.3.02-2.05.03-2.79-.02-5.3-.04-10.6-.05-15.89-.03-2.23-.06-4.41-.09-6.64-.03-3.79-.05-7.59-.08-11.39-.04-8.34-.05-16.59.05-24.81.02-.83.03-1.71.05-2.56.02-.83.06-1.64.1-2.44.03-1.57.05-3.14.03-4.7-.01-.78-.04-1.56-.08-2.33-.05-.77-.12-1.5-.27-2.22-.15-.72-.37-1.41-.66-2.08-.29-.67-.66-1.34-1.04-2.05-.38-.7-.75-1.44-1.07-2.2-.15-.38-.31-.77-.43-1.16-.13-.39-.27-.78-.37-1.18-.9-3.18-.89-6.66.17-9.81,1.03-3.17,3.05-5.94,5.48-8.1h-.05c.55-.44,1.08-.93,1.65-1.32,2.1-1.59,4.51-2.78,7.12-3.36,4.09-.89,8.48-.14,12.11,1.91,2.3,1.28,4.29,3.08,5.86,5.19,1.54,2.13,2.62,4.61,3.12,7.2.77,4.13-.05,8.42-1.85,12.11-.32.74-.81,1.48-1.23,2.1-.43.63-.72,1.15-.87,1.76-.08.3-.11.62-.14.96v.52s-.01.57-.01.57v2.3c.06,4.95.2,9.92.33,14.88.11,4.25.2,8.51.24,12.77,0,3.79.02,7.58.03,11.37,0,2.41-.07,4.84-.07,7.23.02,6.59.04,13.16.07,19.75-.01,4.37-.02,8.76-.03,13.13,0,1.26.02,2.52.03,3.78-.02,1.56-.04,3.11-.06,4.67,0,1.47,0,2.95-.01,4.42,0,3.37,0,6.75-.01,10.11,0,4.5.09,9.05.04,13.45-.07,6.37-.09,12.66-.05,18.96.03,5.42.13,10.83.11,16.27-.01,6.21-.15,12.43-.52,18.66l-.14,2.19-.03.54v.03s.04.05.04.05h.04s.02,0,.02,0h.07s.32.03.32.03l1.29.09c.86.03,1.72.08,2.59.09,1.73.05,3.46.03,5.2.01,1.13-.02,2.3.02,3.47,0,4.14-.06,8.3-.21,12.49-.19,1.52,0,3.05-.03,4.6.02.67.01,1.34.07,2,.1l.54.03c.07,0,.16,0,.23.03l.19.06c.11.03.11.03.17.04.23.04.53.08.84.1,1.23.1,2.57.12,3.89.18.82.04,1.65.08,2.52.16.43.05.87.1,1.36.21l.21.05c.09.02.19.05.28.09l.28.09.26.13c.09.04.17.1.25.15.08.05.16.11.22.18.07.06.13.13.19.21l.04.06.05.05.08.12c.11.25.21.51.27.78.03.13.07.28.08.39l.03.27c.04.34.06.65.07.97.02.62,0,1.22,0,1.83ZM278.91,148.03c-.09.23-.26.49-.38.64l-.29.37c-.9,1.19-1.93,2.27-2.95,3.31-.8.8-1.62,1.59-2.45,2.35-1.34,1.24-2.72,2.43-4.1,3.61-1.19,1.01-2.4,1.99-3.6,2.97-1.07.88-2.13,1.78-3.22,2.64-.69.55-1.43,1.05-2.12,1.59-.94.74-1.92,1.5-2.97,2.18-1.05.68-2.23,1.32-3.55,1.64-.87.22-1.75.3-2.57.32-.83.03-1.63.03-2.42.04-.46,0-.91.06-1.36.06-.56,0-1.12.02-1.68.02-.54.02-1.07.05-1.61.07-1.23.05-2.46.11-3.69.16-1.64.08-3.3.24-4.9.24-2.32.01-4.62.1-6.92.16-1.98.06-3.95.12-5.93.17-2.26.05-4.52.06-6.79.08-.53,0-1.06.02-1.59.03-1.28.03-2.56.06-3.84.07-.42,0-.84-.05-1.27-.06-1.51-.04-3.03-.08-4.55-.12-.55-.01-1.1.05-1.66.04-.96-.01-1.92-.04-2.89-.07l-4.3-.17c-.59-.02-1.2-.04-1.8-.06-.58-.03-1.14-.05-1.69-.08-1.28-.06-2.59.02-3.92-.04-.47-.02-.96,0-1.45-.03h-.12c-.41-.02-.9-.06-1.25-.14-.53-.13-1.07-.26-1.66-.47-.3-.11-.6-.23-.93-.44-.31-.19-.69-.51-.92-.91-.16-.28-.21-.45-.29-.65-.21-.66-.32-1.23-.41-1.82-.04-.29-.08-.59-.11-.89l-.07-.83c-.1-1.11-.17-2.23-.2-3.34-.06-1.74.01-3.47.04-5.2.02-1.28.02-2.56.05-3.84.03-1.05.08-2.1.12-3.15.13-2.9.29-5.8.38-8.67,0-.31,0-.61,0-.92-.02-1.91-.03-3.82-.05-5.74,0-1.01.02-2.02.06-3.03l.04-.86c0-.4.16-.78.44-1.07.13-.15.29-.27.46-.38l.2-.13c.05-.03.15-.08.22-.12.32-.19.59-.25.87-.35.88-.25,1.71-.4,2.55-.5.36-.05.75-.07,1.08-.07,1.14.02,2.27.07,3.36.16.02,0,.05-.01.07-.02l.1-.1c.06-.04.12-.06.18-.08.13-.04.27,0,.41.13h.04s.04.07.04.07l.62.02v-.03s.03.04.03.04l.12-.08c.06-.02.13-.03.19-.04.08-.02.16-.04.24-.06.06-.01.13-.01.19-.02.05,0,.1,0,.15,0,.08,0,.16,0,.24,0,.07,0,.14.02.21,0,.06,0,.12-.05.18-.06l.12.04c.11-.04.21-.11.31-.15.07-.03.14-.01.21-.02l.06-.04.08.04h.07c.05-.02.11-.02.16-.04.07-.03.14-.13.21-.1.11.05.21,0,.31,0,.09-.01.17-.07.26-.1.1-.03.2-.04.3-.06l.07-.03c.06-.03.11-.07.17-.1l.06.05c.07.02.14.04.21.05l.07-.08h.13c.06,0,.13.01.19.02.05,0,.11-.03.16.03.06.07.12.04.18.06l.06-.04v-.02s.06.02.06.02c.06.13.11.08.16.07.1-.02.19-.09.29-.1.08,0,.16.08.24.11.06.02.11,0,.17,0,.05,0,.1.02.14.04.13.05.27.09.4.14h.04s.06,0,.08-.01c.17-.04.34-.07.52-.11,1.11-.18,2.28-.1,3.44-.1.8,0,1.62-.09,2.43-.1,1.25-.01,2.51,0,3.77,0,1.73,0,3.46,0,5.18,0,1.78-.02,3.53,0,5.31.08,1.35.06,2.75.04,4.13.06l.93.03,6.86.11,3.67.05c.36,0,.71,0,.86,0,.47.02.75.04,1.02.04,1.93,0,3.86,0,5.78-.02.81,0,1.61-.07,2.42-.08,1.38-.02,2.76-.05,4.14-.07.76,0,1.51-.02,2.27-.02h1.13s.19,0,.19,0c.08,0,.17,0,.25.02l.36.09.65.17c1.62.58,2.92,1.47,4.15,2.4.25.19.51.38.76.57.25.19.48.38.69.59,1.84,1.44,3.58,2.98,5.28,4.54l2.55,2.32c.43.38.85.76,1.28,1.11.42.36.85.68,1.32,1.02v-.03c.2.15.39.33.58.46.76.52,1.52,1.03,2.28,1.55,1.18.83,2.36,1.68,3.52,2.57.48.37.96.75,1.44,1.17.24.21.48.42.71.67.06.06.12.13.18.19.06.06.11.13.21.25.16.21.27.43.36.66.14.49.16,1.04-.04,1.52Z"/>
</svg>