<?xml version="1.0" encoding="UTF-8"?>
<svg id="Layer_11" data-name="Layer 11" xmlns="http://www.w3.org/2000/svg" viewBox="0 0 269.6 228.73">
  <defs>
    <style>
      .cls-1 {
        fill: #1c5c7d;
      }
    </style>
  </defs>
  <path class="cls-1" d="M260.12,128.16s0,0,.01,0c-2.36-.8-.78-.38-.01,0Z"/>
  <path class="cls-1" d="M233.96,145.53c.2-.07.38-.16.56-.23l3.48-1.54c1.23-.53,2.48-1.03,3.73-1.54.51-.21,1-.46,1.51-.68.22-.09.47-.18.69-.22.93-.17,1.87-.33,2.78-.38.35-.01.7.08.87.21.47.36,1.76-1.06,2.6-1.09.38-.01.77,0,1.21,0,.23-.07.5-.15.78-.22.82-.14,1.64.14,2.44.35.55.15,1.15.2,1.7.38.85.27,1.69.67,2.47,1.07.55.28,1.1.57,1.7,1.02l.23.18.26.25c.19.16.32.36.48.54.27.39.48.82.54,1.29.17.99-.42,1.92-1.11,2.59-.16.15-.38.32-.57.48-.22.1-.5.21-.59.25l-.83.31c-.85.3-1.69.72-2.53,1.08l-.57.23-4.19,1.84-2.23,1.02c-.21.1-.43.21-.51.25-.3.11-.47.17-.63.25-1.16.56-2.32,1.13-3.46,1.71-.48.25-.93.54-1.41.8-.81.43-1.64.86-2.46,1.27-1.81.91-3.65,1.72-5.53,2.41-.19.07-.38.17-.57.25-.19.08-.38.14-.57.19l-8.32,3.96.03.04c-.16.06-.33.09-.47.17-.54.29-1.07.61-1.61.89l-2.58,1.31-3.25,1.65-2.59,1.27-2.02.98-3.28,1.56-2.81,1.32-2.47,1.25c-.53.26-1.1.44-1.61.71-1.43.74-2.85,1.47-4.28,2.21-.95.47-1.93.9-2.9,1.36-.28.13-.54.31-.81.43-.61.31-1.23.57-1.81.76-.55.18-1.08.28-1.55.26-.45-.03-.88-.14-1.28-.48-.41-.37-.49-.73-.6-1.13-.01-.15-.02-.29-.03-.45-.04-.77.25-1.78.48-2.73.08-.31.16-.61.23-.91.07-.26.15-.52.23-.76.12-.36.23-.72.32-1.04l.05-.23.06-.28.11-.56c.13-.73.24-1.46.29-2.11.04-.51-.03-1.09-.08-1.81-.04-.7-.08-1.6.24-2.56.17-.55.48-1.06.82-1.5.35-.42.74-.79,1.13-1.07l.4-.29.42-.19.52-.23,1.03-.46c.32-.14.64-.3.96-.46.77-.37,1.53-.75,2.3-1.12.25-.12.54-.17.81-.27.94-.37,1.88-.74,2.81-1.14.34-.14.64-.37.98-.53.58-.27,1.17-.52,1.76-.77l2.65-1.1c.73-.31,1.47-.68,2.19-.9.84-.26,1.61-.64,2.42-.95.28-.11.56-.27.83-.41l.06-.05c.24-.1.51-.24.73-.29.77-.14,1.48-.52,2.19-.84,1.35-.6,2.66-1.27,4.02-1.85,1.06-.45,2.16-.79,3.23-1.21.79-.31,1.57-.67,2.36-.99.65-.26,1.31-.51,1.96-.75l5.45-2.03Z"/>
  <path class="cls-1" d="M201.01,138.32c.75-.21,1.43-.55,2.15-.82.25-.09.49-.24.74-.36l.05-.05c.22-.09.45-.22.65-.25.68-.11,1.31-.45,1.94-.74,1.19-.54,2.33-1.17,3.52-1.69.92-.42,1.89-.74,2.83-1.14.69-.29,1.35-.65,2.03-.97l.85-.38.31-.14c.12-.07.26-.08.38-.11l.51-.11c1.84-.36,3.68-.43,5.49-.3l.58.03c1.19.06,2.38.19,3.55.44,1.23.25,2.41.65,3.57,1.05.48.18.99.31,1.5.55.22.1.45.25.63.4.37.33.74.73,1.03,1.27.28.53.31,1.12.18,1.61-.1.4-.41.64-.6.7-.06.02-.12.02-.18.03-.07.16-.16.32-.27.49-.02,0-.03.01-.05.02.1.05.14.15.14.25,0,.24-.82,1.06-1.22,1.25-.29.13-.58.27-.92.42-.14.16-.3.34-.46.51-.51.47-1.2.62-1.84.89-.44.19-.83.49-1.27.69-.67.32-1.37.59-2.04.9-.93.42-1.87.84-2.79,1.3-.95.47-1.9.89-2.89,1.26-.75.28-1.49.67-2.24,1l-.51.21-3.72,1.67-1.98.91c-.19.09-.38.19-.46.23-.27.1-.42.15-.57.22-1.03.5-2.06,1.01-3.09,1.51-.43.22-.83.49-1.25.71-.73.38-1.46.75-2.2,1.11-1.61.8-3.3,1.46-4.91,2.06-.17.06-.33.15-.49.22-.16.07-.33.13-.5.17-2.42,1.22-4.85,2.52-7.42,3.63l.02.04c-.14.05-.3.07-.43.13-.51.24-1,.51-1.53.71-.41.17-.83.33-1.26.46-.42.15-.86.27-1.3.4-.54.17-1.13.27-1.7.39-.59.07-1.17.18-1.79.17-.98.04-1.84-.08-2.72-.17-.68-.08-1.35-.17-2.01-.27-1.08-.16-2.13-.33-3.22-.53-.93-.18-1.83-.38-2.75-.58l-1.23-.25-.66-.14c-.34-.08-.67-.17-1.01-.27-.85-.25-1.58-.61-2.15-.97-1.37-.94-1.03-2.05.04-3.09.39-.38.85-.74,1.39-1.07.34-.2.74-.42,1.06-.59l.63-.34,1.26-.68c.24-.13.46-.3.71-.42.3-.15.62-.27.93-.42.29-.14.57-.3.86-.45.65-.33,1.31-.67,1.96-1,.87-.46,1.7-1.01,2.6-1.37,1.28-.53,2.51-1.14,3.76-1.71l3.18-1.54c1.22-.57,2.46-1.1,3.68-1.66l.86-.41c.68-.33,1.36-.68,2.05-1,.22-.1.49-.14.72-.23.84-.32,1.68-.63,2.52-.98.3-.12.57-.33.87-.47.52-.23,1.05-.45,1.58-.66l2.37-.95c.65-.26,1.31-.59,1.95-.77Z"/>
  <path class="cls-1" d="M175.52,131.88c.13-.03.27-.04.38-.1.44-.2.87-.42,1.32-.62.71-.29,1.41-.57,2.14-.83.9-.34,1.82-.67,2.76-.95.75-.23,1.5-.41,2.36-.56.67-.09,1.27-.13,1.88-.15.98-.03,1.95-.03,2.92.01.83.03,1.66.11,2.5.19.75.07,1.5.11,2.26.25.49.09.96.27,1.45.41.35.1.67.19,1.08.37.48.21.94.49,1.32.85l.26.29c.07.1.14.22.21.32.07.11.12.23.18.34.28.55-.08,1.69-.18,2.24-.2,1.16-1.78,1.48-2.71,1.91-.22.1-.41.25-.63.35-.27.12-.55.21-.83.33-.26.11-.51.24-.76.36-.58.28-1.16.55-1.73.84-.76.39-1.49.88-2.27,1.18-1.13.44-2.19.99-3.28,1.51-.93.44-1.83.95-2.75,1.41l-3.18,1.54c-.25.12-.49.25-.74.39-.59.32-1.17.64-1.76.95-.19.1-.42.13-.63.21-.73.3-1.46.6-2.18.93-.26.12-.48.32-.74.45-.45.23-.91.43-1.36.63l-2.05.9c-.57.25-1.13.57-1.7.74-.66.2-1.25.52-1.88.77-.22.09-.43.23-.64.35l-.04.05c-.19.08-.39.2-.57.23-.61.1-1.15.41-1.7.68-1.03.51-2.04,1.07-3.08,1.56-.81.38-1.67.65-2.51.99-.61.26-1.2.57-1.81.84-1.6.68-2.76.84-4.5.57-.79-.12-1.58-.27-2.34-.46-.16-.04-.33-.06-.49-.1-1.01-.21-2-.43-2.97-.7l-3-.86c-.4-.1-.82-.16-1.23-.24-.18-.03-.36-.09-.51-.16-.95-.45-2.35-.83-3.25-1.42-.06-.04-.12-.08-.18-.13-.54-.41-.52-1.04-.2-1.58.11-.2.23-.34.33-.42.29-.24.56-.41.88-.59.12-.16.27-.35.42-.53.49-.47,1.15-.57,1.74-.77.41-.14.79-.38,1.2-.52l.82-.27.9-.37c.82-.36,1.64-.72,2.44-1.12.83-.41,1.66-.79,2.53-1.1.66-.24,1.31-.59,1.96-.89l.45-.19,3.27-1.48,1.75-.79c.17-.08.34-.16.4-.2.24-.08.38-.12.5-.18l2.75-1.29c.38-.18.72-.42,1.1-.62.64-.33,1.28-.65,1.94-.96,1.43-.69,2.89-1.26,4.4-1.73.15-.05.3-.12.45-.18.15-.05.3-.09.46-.12,2.21-.94,4.44-1.87,6.69-2.74l-.02-.04Z"/>
  <path class="cls-1" d="M269.36,163.42c-.08.19-.2.41-.27.53-.07.13-.22.34-.33.49-.67.8-1.36,1.32-2.07,1.91-.7.56-1.42,1.1-2.14,1.63-1.44,1.05-2.9,2.07-4.37,3.07-.51.34-1.04.71-1.53,1.06-2.6,1.88-5.21,3.73-7.86,5.54-1.1.75-2.35,1.62-3.39,2.21-3.48,2.01-6.84,4.3-10.25,6.45l-3.01,1.9c-2.05,1.3-4.11,2.58-6.14,3.91-3.38,2.19-6.87,4.41-10.04,6.61-5.35,3.7-10.69,7.45-16.12,11.08-1,.67-2.05,1.42-2.87,2.04-2.03,1.56-4.34,2.97-6.69,4.34-3.81,2.23-7.67,4.35-11.62,6.34-1.96,1.01-3.99,1.98-6.11,2.77-2.11.8-4.36,1.39-6.64,1.62-3.24.36-6.71.13-9.78-.04-.45-.03-1.13.02-1.7.03-4.38.13-8.79.29-13.18.46-.83.03-1.74.09-2.47.16-3.4.36-7.11.51-10.81.64-1.02.03-2.06-.02-3.09-.04-.91-.02-1.82-.08-2.72-.05-3.07.1-6.15.19-9.18.32-5.91.24-11.81.37-17.73.22-1.69-.04-3.29-.19-4.96-.23-3.92-.08-7.86-.22-11.78-.34-2.84-.11-5.66-.17-8.52-.37-2.85-.23-5.69-.54-8.5-1.02-4.79-.79-9.5-1.97-14.16-3.23-2.95-.81-5.87-1.59-8.79-2.49-3.52-1.08-7.02-2.3-10.51-3.33-.41-.12-.82-.25-1.24-.38-.55-.03-1.11-.09-1.69-.24-4.09-1.06-8.18-2.11-12.28-3.17-1.86-.48-4.11-1-6.16-1.82-2.05-.81-3.92-1.92-5.01-3.61-1.21-1.88-1.74-3.8-2.42-5.87-.49-1.48-.81-3.18-.99-4.72C.06,196.21,0,194.69,0,193.23,0,190.77.17,188.49.19,186.11c.04-4.19.55-8.35.82-12.5.25-3.9.51-7.82,1.14-11.7.45-2.74,1.1-5.5,2.45-7.96.96-1.75,2.31-3.34,4.01-4.44.9-.59,1.56-.76,2.56-.98.7-.15,1.42-.42,2.19-.53,4.07-1.36,8.29-2.66,12.72-3.8,2.38-.72,4.76-1.44,7.19-2.04,4.07-.93,8.19-1.77,12.33-2.39.84-.14,1.66-.19,2.49-.3,5.15-.8,10.36-1.3,15.56-1.46,1.82-.11,3.63-.06,5.44-.11,1.81,0,3.62.09,5.45.18,1.35.14,2.71.28,4.07.43,1.36.18,2.71.43,4.06.64l3.83.79c1.26.32,2.52.63,3.78.97l3.4,1.03,3.35,1.15c3.49,1.26,6.9,2.68,10.28,4.15,3.06,1.34,6.08,2.74,9.11,4.09,2.35,1.04,4.7,2.08,7.08,3.03,1.07.44,2.15.87,3.24,1.26,1.08.41,2.17.82,3.27,1.18,6.1,2.07,12.38,3.7,18.63,5.49,3.41.97,7.1,1.73,10.67,2.52,3.23.71,6.48,1.46,9.7,2.01,4.09.68,8.26,1.06,12.4,1.82.27.05.55.1.83.15.33.07.73.1,1.02.28.62.37.98,1.05,1.06,1.68.14,1-.09,1.77-.32,2.56-.25.77-.57,1.5-.9,2.21-.34.71-.7,1.39-1.08,2.06-.21.34-.41.67-.62,1-.24.31-.47.63-.72.94-.82.95-1.88,1.74-3.06,2.22-1.18.48-2.43.67-3.64.75-2.43.14-4.75-.03-7.14.06-1.32.02-2.67.08-4.04.13-1.37.01-2.75.06-4.11.05-4.57-.03-9.09-.35-13.58-.51-1.91-.06-4.22-.32-6.27-.57-3.41-.42-6.78-.87-10.23-1.24-6.94-.74-13.86-1.61-20.84-1.84l-2.61-.07c-.18,0-.36.02-.53.04-.34.05-.87.16-1.15.35-.47.32-.05.8.2,1.11,0,0,.15.18.15.18l.28.33c.41.46.85.92,1.31,1.35,1.61,1.49,3.92,1.74,6.02,2.23,2.23.52,4.47.97,6.73,1.37,2.11.38,4.36.73,6.36,1.11,5.89,1.11,11.88,1.56,17.85,2.12,3.54.34,7.07.68,10.61.96,1.3.11,2.6.23,3.91.31,5.18.3,10.35.35,15.46.21,2.31-.07,4.96-.46,7.4-1,1.55-.38,3.12-.71,4.67-1.13,1.54-.44,3.08-.82,4.58-1.27,1.1-.33,2.13-.66,3.15-1,1.02-.34,1.99-.75,3-1.15,5.23-2.15,10.51-4.38,15.81-6.73,2.1-.94,4.21-2,6.31-3.03,2.75-1.36,5.51-2.71,8.26-4.07,1.11-.54,2.23-1.08,3.34-1.63,3.71-1.85,7.45-3.66,11.21-5.41,3.78-1.73,7.59-3.38,11.46-4.89,1.15-.43,2.33-.89,3.59-1.2,1.25-.31,2.57-.49,3.86-.47.64.01,1.28.06,1.91.15.61.08,1.3.2,1.89.39,1.21.36,2.37.79,3.52,1.34.67.33,1.36.67,2.01,1.16.56.42,1.2,1.11,1.29,1.9.04.43-.05.87-.23,1.27Z"/>
  <path class="cls-1" d="M168.94,54.44l-.07-.24c-.22-1-.58-1.97-1.02-2.87-1.23-2.55-3.44-4.63-6.16-5.71-1.17-.48-2.49-.73-3.82-.73-1.33.01-2.62.19-3.93.64-1.51.53-2.71,1.25-3.81,1.71-.55.24-1.05.39-1.49.46-.44.07-.79.04-1.16-.1l-.18-.06-.19-.11c-.12-.06-.25-.12-.38-.23-.12-.1-.28-.19-.37-.28-.09-.08-.18-.17-.25-.27-.3-.38-.48-.88-.51-1.45-.03-.66.06-1.43.43-2.04.06-.11.14-.2.2-.3l.08-.08.75-.51c.57-.37,1.15-.73,1.75-1.08,1.2-.7,2.44-1.36,3.71-2.04.71-.38,1.46-.72,2.16-1.13,1.07-.63,2.13-1.31,3.18-2.07.26-.2.52-.38.78-.59l.79-.68.74-.75c.24-.26.46-.54.68-.81.71-.94,1.3-1.99,1.7-3.12.87-2.41.79-5.12-.14-7.47-.92-2.35-2.66-4.37-4.9-5.58-1.95-1.06-4.25-1.46-6.39-1.18-1.09.12-2.08.39-3.11.78-1.05.43-1.87.93-2.68,1.38-.93.53-1.82,1.01-2.64,1.27-.4.11-.77.19-1.07.17-.28-.01-.59-.12-.7-.2-.12-.1-.26-.28-.38-.61-.13-.31-.19-.76-.24-1.22-.08-.94-.04-1.99-.01-3.12.12-3.44-1.32-6.93-3.72-9.46-.9-.93-1.9-1.76-3-2.44-1.11-.66-2.28-1.2-3.5-1.58-1.07-.31-2.17-.55-3.28-.64-1.17-.13-2.35-.15-3.53,0-.47.07-.95.13-1.41.27-.47.11-.93.24-1.38.4-3.17.99-6.06,3.11-7.84,5.93-1.36,2.11-2.12,4.52-2.46,6.91-.04.31-.09.57-.12.92-.03.35-.03.68-.02,1,.02.62.08,1.19.1,1.71.02.52.01.99-.07,1.33-.09.35-.21.54-.43.72-.39.29-.81.39-1.41.27-.59-.1-1.26-.39-1.95-.73-1.1-.54-2.16-1.23-3.49-1.85-.71-.34-1.41-.46-2.11-.67-.34-.12-.72-.12-1.08-.18-.37-.03-.73-.11-1.1-.1-1.66-.05-3.31.31-4.83.98-1.53.67-2.83,1.78-3.87,3.08-1.2,1.53-1.96,3.42-2.13,5.38-.2,1.96.29,3.94,1.15,5.64l.4.79.52.76c.17.27.38.47.58.7.2.22.4.46.62.65.85.83,1.78,1.46,2.71,2.09,2.42,1.52,4.93,2.65,7.23,3.93.73.4,1.42.83,2.07,1.28.3.24.64.46.9.72l.41.37c.1.13.22.24.32.37.8,1.03,1.04,2.46.52,3.6-.2.45-.5.85-.88,1.18-.37.33-.87.57-1.33.7-.92.3-1.95,0-3.1-.54-.73-.35-1.49-.77-2.33-1.17-.42-.19-.86-.38-1.34-.54-.46-.15-1.02-.28-1.49-.31-.49-.05-1.01-.15-1.53-.15l.02.04c-.6-.03-1.19.04-1.78.09-.59.1-1.18.19-1.75.37-1.15.32-2.27.81-3.27,1.5-1,.68-1.92,1.51-2.63,2.51-.71,1-1.25,2.12-1.57,3.31-.08.29-.12.6-.18.9-.07.3-.1.6-.12.9-.02.3-.05.6-.05.91.01.31,0,.63.05.94.12,1.27.63,2.51,1.3,3.53.67,1.02,1.44,1.86,2.14,2.67.35.4.69.8,1,1.2l.24.31c.12.15.25.3.39.44.14.14.3.27.47.38.08.05.19.12.25.15l.18.1c.46.31.93.61,1.42.91.5.3,1.02.6,1.51.9,4.8,2.98,9.7,5.88,14.7,8.71l1.71.97.43.24.21.12.06.04c.12.07.21.19.3.31.17.27.29.66.27,1.04,0,.38-.14.71-.31.92-.06.05-.11.12-.17.15-.02.02-.07.05-.13.08l-.17.09c-.22.1-.43.19-.64.2-.41.07-.96-.08-1.66-.35-.42-.16-.88-.34-1.4-.49-.5-.15-1.11-.25-1.64-.25-1.03-.05-2.09.09-3.11.38-2.05.63-3.79,2.11-4.83,3.85-.15.24-.31.48-.46.78-.16.3-.35.64-.54,1.1-.12.28-.36.98-.54,1.69-.63,2.44-.64,4.96-.19,7.4.36,1.95,1.07,3.85,2.18,5.56.57.85,1.24,1.63,2.01,2.33.79.68,1.69,1.25,2.65,1.68l-.11-.05,1.66.92,1.52.87c2.28,1.27,4.62,2.51,6.82,3.8,2.9,1.7,5.78,3.31,8.74,4.91l2.05,1.12c.16.11.3.25.39.42.04.08.08.17.1.26l.02.14.02.28c.11,1.51.09,3.15.06,4.76l-.1,3.55-.04,1.8c0,.6-.02,1.23.09,1.96.02.22.08.47.14.71.05.23.17.51.28.77.27.56.71,1.09,1.28,1.4.56.31,1.25.4,1.74.39.51,0,.93-.07,1.34-.12.59-.09,1.12-.18,1.62-.24.76-.08,1.61-.46,2.18-1.05.59-.58.97-1.38,1.04-2.19.03-.47,0-.65,0-.93-.01-.27-.03-.53-.05-.8-.09-.71-.18-1.41-.25-2.02.01-1.18.02-2.2.04-3.22.01-1.4-.14-2.82-.35-4.2-.04-.24-.07-.48-.13-.72-.07-.31-.17-.4-.29-.69-.07-.15-.01-.65.07-.77.2-.3.46-.54.81-.63.34-.09,1.19-.3,2.05-.71,2.24-1.01,4.59-2.14,6.92-3.24.55-.26,1.19-.61,1.77-.93,1.34-.76,2.67-1.56,4.01-2.3l4.98-2.74,1.25-.68c.41-.23.82-.44,1.29-.76.9-.6,1.69-1.31,2.36-2.12.65-.76,1.2-1.6,1.64-2.48.46-.87.8-1.8,1.08-2.73.54-1.88.75-3.83.62-5.78-.05-.63-.13-1.26-.24-1.89-.26-1.46-.74-2.92-1.54-4.26-.79-1.33-1.91-2.54-3.31-3.35-1.4-.81-3.02-1.19-4.58-1.2h-.58s-.57.04-.57.04l-.58.05c-.2.03-.45.07-.66.12-.83.21-1.49.51-2.06.69-.4.14-.74.2-.92.18-.18-.02-.22-.05-.39-.2-.16-.13-.35-.47-.52-.79-.15-.31-.19-.56-.19-.72.02-.17.07-.37.36-.69.27-.31.67-.65,1.15-.98l.68-.51.72-.48c.47-.32.98-.61,1.48-.9,2.74-1.57,5.71-2.82,8.64-4.27,1.88-.93,3.76-1.9,5.61-3.01.46-.27.92-.56,1.38-.86.46-.29.91-.6,1.35-.93.45-.31.88-.67,1.32-1.02.43-.33.88-.76,1.29-1.19,1.77-1.83,2.85-4.39,3.14-6.9.11-.73.02-1.73-.12-2.59ZM143.57,60.11c-.16.29-.38.57-.69.87-.19.17-.38.32-.56.46-.02.02-.04.03-.06.05-1.12.95-2.45,2.03-3.8,2.87-.23.14-.49.34-.79.6-.64.56-1.29,1.12-1.93,1.67-1.5,1.29-3.05,2.62-4.51,4.01-.19.18-.4.36-.61.53l-2.03,1.64c-.36.21-.62.56-.71.97l-.02.09c-.02.09-.03.18-.03.27l-.02.72-.03,1.68-.04,3.67-.02,1.13c-.02,1.4-.04,2.72-.14,4.06-.1,1.38-.05,2.88,0,4.3l.03.96s0,.07,0,.1l.02.21c0,.06,0,.14,0,.23,0,.03.01.27.01.27.02.47.27.9.67,1.16.24.16.52.24.8.24.18,0,.36-.03.53-.1l.18-.07s.09-.04.13-.06c.17-.08.33-.18.51-.3.04-.02.18-.12.42-.34l.89-.81c.6-.56,1.2-1.12,1.84-1.64.1-.08.21-.17.31-.27.13-.11.24-.21.35-.28,0,0,.06-.04.07-.05.15-.1.3-.21.48-.31l.16-.09c.16-.09.28-.16.42-.21l.44-.17s.11-.02.18-.04l.21-.04c.07-.01.14-.03.21-.03.12,0,.28.01.44.03.47.06.97.31,1.32.67.34.35.58.9.64,1.41.06.51-.02,1.02-.24,1.52-.11.24-.23.46-.38.64l-.15.18-.39.42c-.18.19-.35.35-.53.51l-.12.11c-1.08.91-2.26,1.72-3.41,2.5-.31.21-.61.42-.92.63-1.49,1.03-2.74,1.98-3.81,2.91-.14.12-.25.22-.36.31-.08.07-.17.14-.26.22h0c-.28.19-.58.5-.76,1.03-.02.05-.03.1-.04.15-.09.39-.15.89-.18,1.37l-.07,1.42c0,.21-.03.43-.07.7,0,.03,0,.05,0,.08,0,.02-.08.3-.08.3-.03.1-.05.18-.09.26-.2.46-.48.76-.76.86-.27.09-.53.14-.82.14-.21,0-.43-.02-.65-.07-.41-.09-.79-.33-1-.62-.1-.14-.2-.3-.27-.45l-.08-.19c-.04-.1-.09-.2-.11-.28,0-.02-.01-.05-.02-.07-.29-.81-.36-1.56-.44-2.35l-.09-.94c-.02-.22-.04-.28-.05-.33,0-.01-.05-.2-.06-.23l-.03-.1c-.1-.31-.29-.57-.55-.76l-.08-.06s-.07-.05-.1-.07l-.09-.05c-1.44-1.04-2.87-2.11-4.42-3.29l-.12-.09c-.16-.13-.33-.26-.49-.35-1.67-1.02-3.27-2.28-4.76-3.48-.04-.03-.08-.06-.12-.09-.19-.12-.34-.35-.5-.74-.05-.12-.14-.33-.15-.44,0-.05-.01-.09-.02-.14-.02-.12-.02-.31-.01-.47.03-.43.17-.89.37-1.24.22-.38.53-.72.89-.95.44-.28.97-.45,1.44-.45.1,0,.19,0,.28.02l.13.03c.13.03.26.06.39.11.09.04.31.13.39.18.04.02.05.03.08.05.28.16.5.33.75.52l.08.06c.42.33.81.68,1.23,1.04l.28.24,1.46,1.3.37.33.15.12.23.18c.32.25.61.41.9.53.19.08.4.13.61.13.4,0,.8-.17,1.08-.47.2-.21.42-.56.4-1.1v-.13c.05-.16.08-.35.09-.56v-.19s-.05-2.29-.05-2.29l-.08-3.83c-.01-.81-.02-1.64-.02-2.46-.01-1.55-.02-3.15-.07-4.73l-.05-2-.02-1.24c0-.39-.17-.76-.45-1.03l-.22-.21-.67-.62-1.46-1.34c-.42-.39-.82-.72-1.19-.98-1.41-1-2.39-2.05-3.42-3.32-.55-.67-1.08-1.29-1.99-1.96-.11-.08-.34-.27-.74-.71-1-1.12-1.91-1.97-2.96-2.77-.25-.19-.52-.4-.78-.63-.13-.11-.26-.23-.39-.36l-.21-.21s-.1-.11-.16-.18c-.05-.06-.08-.1-.1-.15-.17-.37-.22-.72-.19-1.14.04-.36.17-.72.39-1.01.21-.28.54-.51.86-.59.14-.04.27-.06.41-.06.22,0,.45.04.67.13.03.01.06.02.09.03.03.03.06.05.09.08.08.07.15.13.23.19l3.7,3.18c.51.44,1.08.93,1.63,1.27.59.37,1.17.81,1.79,1.36.29.26.57.52.84.79,0,0,.62.62.66.66,0,.01.02.02.02.03.26.32.55.53.75.68l.13.1c.24.19.45.32.65.45.09.05.17.11.25.17.26.19.57.29.87.29.24,0,.48-.06.69-.17.5-.27.8-.8.77-1.37,0-.07,0-.13,0-.18.14-.4.1-.73.07-.96-.04-.37-.06-.63-.08-.9-.02-.56-.03-1.18-.03-1.8,0-1.26.03-2.5.1-3.68.02-.29.02-.6.01-.91l-.02-3.92c0-.34-.02-.67-.04-1,0,0-.05-.9-.06-1.14-.03-.51-.06-.99-.06-1.46v-1.18s.03-.58.03-.58v-.15c.07-.41.01-1.01-.59-1.58-.06-.06-.3-.28-.48-.43l-.45-.37c-1.1-.86-2.24-1.69-3.34-2.49-.7-.51-1.41-1.02-2.11-1.54-.12-.09-.24-.17-.36-.25-.07-.05-.15-.09-.22-.15-.36-.3-.72-.59-1.09-.88-.73-.58-1.42-1.13-2.12-1.77-.16-.14-.53-.53-.74-.86-.13-.21-.2-.47-.18-.69.03-.34.16-.79.33-1.15.2-.41.42-.73.68-.94.05-.04.13-.09.22-.14.34-.16.71-.24,1.08-.24.13,0,.27.01.4.03.33.05.53.11.79.2.21.07.43.17.64.27.93.45,1.67,1,2.33,1.52.49.39,1,.84,1.57,1.37.03.06.07.13.11.2.19.33.45.63.74.87.02.02.12.09.12.09.26.19.56.29.87.29.09,0,.19,0,.28-.03.41-.08.76-.32.97-.68.09-.15.18-.35.21-.53l.02-.09c.02-.15.03-.26.04-.38l.03-.57.02-1.65.02-1.18c.02-1.14.05-2.28.05-3.42,0-.54-.01-1.08-.03-1.61-.01-.48-.03-.97-.03-1.45,0-.79.02-1.58.04-2.37.01-.48.03-1.82.03-1.82,0-.55.02-1.12,0-1.69-.03-.76-.06-1.51-.07-2.27l-.02-.99s0-.08,0-.09c.02-.48.13-.85.31-1.09.03-.04.06-.08.09-.13.04-.06.18-.18.29-.28l.05-.05h.01c.13-.09.32-.21.39-.24.03,0,.1-.04.12-.05.32-.14.66-.19,1.09-.21.06,0,.12,0,.18,0,.16,0,.26,0,.35.02.04,0,.08.01.13.02.16.02.3.06.55.14l.11.04c.35.13.65.33.84.57.2.26.17.96.16,1.3l-.03,1.48c-.02.98-.02,1.96-.01,2.94,0,.89.05,1.78.08,2.66.04.92.08,1.86.08,2.78,0,2.31-.04,4.17-.14,5.85-.05.82-.09,1.66-.1,2.49l-.02.59v.52s.02.63.02.63c.01.32.13.63.33.88.3.36.76.58,1.22.58.18,0,.35-.03.52-.1.38-.16.66-.39.84-.54l.02-.02c.21-.09.43-.23.65-.4.18-.14.47-.39.61-.51l.62-.57c.24-.23.47-.44.7-.66.57-.54,1.11-1.06,1.71-1.55l.55-.43.1-.07.21-.14s.12-.06.21-.1c.06-.02.14-.03.21-.05l.21-.05s.1-.02.2-.03c.03,0,.07,0,.1-.01.09-.01.17-.02.26-.02.12,0,.25,0,.37.02.42.06.85.23,1.17.5.33.27.56.65.66,1.05.17.64.05,1.41-.27,1.91-.02.03-.04.07-.06.1-.01.02-.29.36-.29.36l-.1.11c-.18.18-.34.36-.52.52-.34.32-.69.62-1.15.99-.73.58-1.5,1.14-2.36,1.71-1.61,1.06-3.23,2.3-4.94,3.78-.1.08-.21.19-.32.3-.04.04-.07.08-.11.11l-.09.06s-.1.06-.27.2c-.05.03-.13.08-.23.12-.53.23-.88.74-.89,1.32-.03,1.22,0,2.44.04,3.62.02.52.03,1.03.04,1.55l.17,6.13c0,.34-.01.7-.03,1.05,0,.18-.02.35-.02.53-.03.86-.04,1.78-.03,2.9v.65s.02.29.02.29l.03.46s0,.08,0,.13c0,0,0,.14,0,.14-.06.58.19.97.35,1.15.28.32.7.52,1.13.52.03,0,.05,0,.08,0,.68-.01,1.16-.38,1.32-.5l.68-.52,1-.82c.75-.62,1.47-1.27,2.16-1.91.55-.51,1.11-1.01,1.68-1.51.1-.09.21-.17.32-.26.3-.24.61-.49.87-.79.39-.45.89-.82,1.42-1.21.33-.24.66-.49.98-.76.06-.02.19-.04.28-.06.32-.06.76-.13,1.15-.44.09-.07.19-.17.3-.29.13-.14.17-.18.37-.24.02,0,.14-.03.31-.03.26,0,.53.06.78.17.41.18.98.65,1.22,1.4.12.33.16.71.13,1.12-.05.39-.18.77-.35,1.08Z"/>
</svg>