<?xml version="1.0" encoding="UTF-8"?>
<svg id="Layer_11" data-name="Layer 11" xmlns="http://www.w3.org/2000/svg" viewBox="0 0 245.91 268.24">
  <defs>
    <style>
      .cls-1 {
        fill: #1c5c7d;
      }
    </style>
  </defs>
  <path class="cls-1" d="M245.39,121.34c-.77-7.19-2.03-15.4-3.46-22.48-1.52-7.49-4.24-13.91-6.95-20.98-.19-2.91,6.08-.99,7.77-.99,1.79,0,3.02-.99,2.59-2.88-.27-1.16-5.89-6.15-7.14-7.53-4.23-4.68-9.25-10.67-13.1-15.66-1.02-1.32-4.32-5.04-1.22-5.71,3.27-.72,7.43-.7,10.86-1.27,1.29-.21,7.14-1.3,7.76-1.96.75-.79.37-2.06-.51-2.58-1.32-.78-5.03-.92-6.8-1.37-5.75-1.46-19.61-8.66-22.62-13.76-.29-.49-.63-.96-.73-1.54l.47-.65c3-.24,11.37.62,13.35-1.87.77-.97.67-2.02-.46-2.65-.7-.39-4.48-.73-5.75-1.02-6.71-1.51-10.38-4.75-16.06-7.91-14.78-8.2-37.4-12.2-52.93-4.13-4.72,2.45-8.25,6.43-13.48,8.23-5.22,1.79-10.82,1.55-16.17,2.72-8.93,1.97-29.02,11.05-31.76,20.41-1.35,4.6,1,4.37,4.79,4.23,15.2-.56,30.45-4.26,43.13,6.48,6.28,5.32,9.18,10.97,3.94,18.58-3.59,5.21-15.48,9.41-21.36,12.77-13.04,7.46-21.24,15.46-29.76,27.77-2.47,3.57-6.41,9.35-7.8,13.35-.72,2.07-.33,4.41,2.25,4.53,3.06.14,10.7-6.52,13.87-8.14,1.18-.61,3.98-1.95,3.75.34-.22,2.18-8.33,10.08-10.28,12.02-4.86,4.83-9.97,9.69-15.09,14.24-3.7,3.29-11.28,8.44-13.77,12.17-.83,1.25-1.97,2.78-.43,4,2.38,1.9,5.98-1.38,8.54-.5.65.92-1.75,3.5-2.37,4.21-4.38,5.02-10.54,9.06-15.38,13.67-1.44,1.37-6.24,5.8-3.81,7.77,2.34,1.9,8.69-3.08,5.27,3.28-2.15,4-7.22,7.55-10.79,10.36-8.61,6.76-18.93,13.08-26.76,20.61-5.35,5.14-2.93,8.57,4.13,6.95,4.25-.98,9.25-3.97,13.71-3.35,5.71.8.12,6.2-1.75,8.25-2.81,3.08-5.81,6-8.84,8.86-1.54,1.45-3.09,2.88-4.64,4.32-.92.85-2.01,1.65-2.85,2.63-5.05,4.71-9.98,9.48-14.03,14.53-6.73,8.4.45,8.8,7.62,8.46,7.31-.34,14.97-1.82,22.29-2.53,12.75-1.24,25.56-2.34,38.36-3.1,11.39-.68,19.59,1.69,27.05-8.77.95-1.33,1.86-2.71,2.76-4.11-.01,0-.02,0-.04,0,1.26-1.69,2.29-3.58,3.39-5.4,2.56-4.26,5.04-8.56,7.76-12.73.93-1.42,1.89-2.83,2.89-4.21,1.57-2.16,2.32-4.58,4.85-1.9,4.17,4.41,8.28,11.69,12.02,16.74,1.77,2.38,3.58,4.73,5.41,7.06,1.64,2.1,2.99,4.35,5.6,5.32,2.92,1.09,6.28.7,9.33.68.4,0,.82,0,1.2-.13,1.81-.6.66-2.26-.04-3.22-.77-1.06-1.54-2.12-2.31-3.18-1.51-2.07-3.04-4.14-4.58-6.19-2.76-3.66-11.69-13.68-12.67-17.23-1.76-6.39,1.91-10.85,6.63-14.53,2-1.56,3.97-2.91,3.66.85-.19,2.3-1.95,3.6-1.66,5.91.12.93.9,1.5,1.83,1.56,2.03.13,7.22-5.05,9.45-6.31,1.13-.64,2.7-1.82,3.43-.09.77,1.82-.54,7.08-.65,9.36-.17,3.65.18,7.92,4.79,4.79.68-.46,1.04-1.55,1.99-1.12.97.45,3.42,3.74,4.36,4.68,4.23,4.17,8.74,8.25,13.12,12.26,2.21,2.02,4.35,4.11,6.56,6.12,2.29,2.08,4.83,4.85,7.8,5.94,2.34.86,4.84.41,7.25.43,1.45.01,3.2.4,4.36-.73.11-.1.21-.23.23-.38.02-.12-.03-.24-.07-.36-.99-2.57-3.33-4.31-5.17-6.24-1.67-1.75-3.39-3.45-5.12-5.14-3.43-3.33-6.92-6.6-10.2-10.08-4.25-4.51-9.45-9.53-9.28-16.32.08-3.1,5.61-17.85,7.18-21.33,2.56-5.69,2.41.15,2.75,2.31.49,3.1,2.33,5.3,5.42,3.04,2.31-1.69,7.1-9.69,8.65-12.5.92-1.67,4.6-10.14,5.43-10.64,1.52-.91,1.76.08,2.06,1.36.41,1.73.11,5.23,2.12,6.06,2.9,1.19,5.1-2.8,6.28-4.85,4.49-7.81,9.21-18.13,13.07-26.41,4.14-8.9,6.65-14.46,6.3-24.58-.02-.61.41-1.41,1.08-1.06,1.02.54,2.25,4.69,4.78,5.38,5.46,1.49,3.71-8.27,3.39-11.28ZM79.13,151.36c16.03-11.71,27.36-24.51,37.43-41.53,1.43-2.42,3.89-8.9,6.65-9.44,3.47-.69,1.5,4.74.88,6.25-6.67,16.16-21.89,31.73-35.64,42.19-2.15,1.63-5.51,4.44-8.19,4.78-2.49.32-2.46-.51-1.12-2.25ZM102.56,177.32c-12.16,11.62-26.61,23.77-40.78,32.82-2.82,1.8-11.37,7.32-14.26,7.48-2.79.16-1.81-2.33-.52-3.65,2.86-2.94,10.3-6.95,14.05-9.64,11.45-8.23,22.85-17.86,33.19-27.44,4.61-4.27,11.88-10.66,15.46-15.56.96-1.31,2.36-4.14-.52-3.35-1.63.45-9.88,6.95-12.14,8.45-7.3,4.82-20.23,13.27-28.33,15.66-1.04.3-3.61,1.21-4.03-.18-.3-1.21.81-2.29,1.67-3.02,5.92-5.02,15.81-9.71,22.62-14.32,24.16-16.33,58.07-45.19,54.9-77.64-.17-1.78-.74-3.57-.85-5.35-.06-.86-.29-3.87.76-4.06,2.88-.52,4.88,8.29,5.14,10.29,4.4,33.78-23.61,67.77-46.35,89.51ZM169.04,27.22c-10.41,1.78-11.13-12.89-1.25-13.4,8.76-.45,9.21,12.04,1.25,13.4ZM228.98,66.69c.83,1.41,2.07,3.44,1.19,5.03-1.23,1.24-4.29-.82-5.37-1.69-3.05-2.48-6.26-6.59-7.9-10.15-.44-.96-2.57-5.58-1.22-6.03.46-.15,1.06-.05,1.52.09,1.94.59,10.5,10.61,11.78,12.76ZM205,34.55c-.3-.94-.53-1.9.54-2.42.75-.2,1.43.35,2.03.69,2.06,1.17,7.64,5.09,8.89,6.9.99,1.44,1.6,3.86-.84,3.95-2.69.1-9.81-6.55-10.63-9.12ZM219.45,154.62c-1.03,1.13-2.09,2.42-3.8,2.11-2.62-.49-.92-4.45-.37-5.99,3.11-8.67,6.37-15.58,6.98-25.17.24-3.81-.73-9.24.07-12.62.06-.27.45-1.55.52-1.59.89-.62,1.71.83,2,1.47,4.45,9.72,1.93,33.74-5.4,41.8ZM235.03,118.9c-1.21.18-2.45-1.64-2.9-2.63-1.99-4.32-3.13-12.9-4.58-17.98-.9-3.12-3.17-7.15-2.4-10.45.14-.6.64-1.19,1.27-1.28.83-.13,1.86.89,2.33,1.51,3.01,3.93,7.55,20.82,7.91,25.93.12,1.7.26,4.23-1.63,4.9Z"/>
</svg>