<?xml version="1.0" encoding="UTF-8"?>
<svg id="Layer_11" data-name="Layer 11" xmlns="http://www.w3.org/2000/svg" viewBox="0 0 252 242.86">
  <defs>
    <style>
      .cls-1 {
        fill: #1c5c7d;
      }
    </style>
  </defs>
  <g>
    <polygon class="cls-1" points="145.74 79.61 145.74 79.61 145.74 79.61 145.74 79.61"/>
    <path class="cls-1" d="M147.93,70.92c0-.36-.01-.72-.04-1.08h0c-.02-.3-.02-.61-.05-.95v-.05s-.13-.92-.13-.92h0c-.07-.71-.25-1.33-.38-1.9v-.03c-.54-2.02-1.45-3.92-2.65-5.6-.19-.3-.4-.56-.6-.81-.21-.25-.41-.49-.59-.71l-.02-.02c-.44-.52-.9-.95-1.3-1.39l-.04-.05c-.21-.2-.44-.44-.69-.68-.04-.04-.09-.08-.15-.11-.55-.53-1.12-.98-1.63-1.43l-.02-.02c-.31-.26-.62-.49-.92-.72h0c-.29-.23-.6-.48-.94-.72h0c-.61-.45-1.24-.91-1.9-1.35h0s-.95-.65-.95-.65h-.02s-.96-.64-.96-.64h0c-1.3-.87-2.63-1.65-3.92-2.42-1.29-.77-2.54-1.55-3.69-2.4-.3-.25-.58-.47-.82-.69l-.03-.03c-.26-.21-.52-.46-.78-.73-.58-.62-1.01-1.27-1.26-1.96h0c-.23-.65-.33-1.39-.33-2.17,0-.07,0-.14,0-.22h0c.02-.83.18-1.62.49-2.3h0c.28-.66.76-1.2,1.37-1.62.53-.36,1.21-.6,1.94-.72.38-.06.78-.09,1.18-.09.37,0,.73.03,1.09.08h0c.9.13,1.74.4,2.53.83.66.36,1.22.79,1.72,1.29.74.74,1.34,1.62,1.83,2.61.49.98.88,2.06,1.22,3.18.14.47.27.93.39,1.41.03.12.06.23.09.34.03.09.06.18.12.3.04.09.11.19.2.28.07.07.15.14.24.19.13.08.27.12.38.14.11.02.21.03.3.03.14,0,.26-.01.39-.02,1.13-.1,2.27-.16,3.4-.16.18,0,.36,0,.53,0,.6,0,1.27.08,1.99.08.01,0,.03,0,.04,0h0c.15,0,.29-.01.47-.06.13-.04.28-.1.41-.21.1-.08.19-.19.25-.29.09-.16.13-.31.15-.42.02-.11.02-.2.02-.27,0-.09,0-.15,0-.21,0-.02,0-.05,0-.07h0c.04-1.23.08-2.45.12-3.67l.05-1.22h0c.06-1.84.1-3.69.18-5.46.03-.58.05-.96.07-1.25.02-.21.03-.37.04-.53.02-.23.04-.45.05-.77.01-.32.02-.74.03-1.41h0c0-.74,0-1.48,0-2.22h0s0-.72,0-.72h0s0-.03,0-.05c0-.01,0-.04,0-.07,0-.03,0-.08-.02-.15-.05-.25-.21-.46-.43-.58s-.49-.14-.73-.06l-.08.03-.17.06-.34.12-1.34.49h0c-1.07.39-2.14.78-3.22,1.18h0s-1.14.41-1.14.41l-.17-.06h0c-.81-.31-1.63-.59-2.45-.84h0c-1.09-.33-2.18-.56-3.23-.79-.77-.17-1.55-.33-2.34-.45h0s0,0,0,0c0,0,0,0,0,0h0c-.14-.02-.28-.04-.41-.06,0-.09-.02-.18-.02-.27v-6.95c0-.23-.09-.46-.26-.62-.16-.16-.39-.26-.62-.26h-7.28c-.23,0-.46.09-.62.26-.16.16-.26.39-.26.62v1.05c0,.11,0,.22-.01.34-.01.32-.03.64-.04.97h0c-.02.39-.02.84-.02,1.27,0,.06,0,.12,0,.18h0c0,1.08.02,2.16.02,3.23v.39s-.21.03-.21.03h0c-.41.05-.75.15-1.05.21h-.01s-.99.22-.99.22l-.06.02-.98.29h0c-.74.2-1.38.49-1.97.71h-.03c-2.52,1.06-4.82,2.7-6.63,4.79h0s-.13.13-.25.28v.02s-.2.26-.2.26h0c-.13.17-.25.34-.38.51h0c-1.24,1.71-2.13,3.64-2.66,5.65v.03c-.11.45-.25.94-.35,1.5v.02s-.21,1.47-.21,1.47v.03c-.06.54-.07,1.05-.1,1.51v.03c0,.16-.03.38-.03.65,0,.04,0,.09,0,.14h0s.02.72.02.72c0,0,0,.01,0,.02,0,.79.11,1.52.18,2.2v.02c.06.42.15.78.21,1.1h0s.11.54.11.54l.02.07.15.52h0c.5,1.79,1.33,3.49,2.36,5h0c1.4,2.03,3.11,3.79,5,5.26h0s0,0,0,0c0,0,0,0,0,0h0c1.2.96,2.44,1.8,3.67,2.61h0c1.25.82,2.49,1.58,3.71,2.36h0c1.29.83,2.6,1.66,3.69,2.55h.01c.17.15.37.3.58.46.21.16.42.32.6.48.03.02.03.03.07.05l.08.06c.45.37.88.73,1.22,1.07l.04.04c.12.11.23.23.36.37.12.13.24.28.39.44.1.12.2.27.34.44h0s.17.21.17.21c.02.03.06.09.12.2l.02.03c.36.53.59,1.15.74,1.81.03.15.05.31.08.47v.05s0,0,0,0c0,0,0,.05,0,.11,0,.06,0,.15.01.26,0,.19.02.31.02.37,0,.01,0,.03,0,.04-.01.22-.01.38-.03.49h0c-.05.6-.21,1.16-.47,1.6-.32.55-.78,1-1.34,1.29h0c-.6.32-1.32.52-2.1.6h0c-.31.03-.61.05-.92.05-.76,0-1.52-.1-2.27-.28h0s-.48-.11-.48-.11c-.11-.03-.25-.08-.43-.14h0s-.48-.16-.48-.16c-.07-.02-.19-.09-.39-.18-1.74-.79-3.33-2.19-4.54-3.75-.4-.51-.7-1.08-.96-1.7-.26-.61-.48-1.28-.73-1.98-.01-.04-.03-.09-.04-.16-.08-.29-.21-.79-.32-1.22-.06-.21-.11-.41-.14-.55s-.06-.23-.06-.23c-.1-.39-.47-.67-.87-.66,0,0-.39.01-.78.02-.2,0-.4.01-.55.02-.08,0-.14,0-.2,0-.03,0-.05,0-.08,0-.01,0-.03,0-.05,0l-.37.03-.53.04h0s-1.31.1-1.31.1h0s-2.23.17-2.23.17l-1.03.08-.26.02h-.13s0,0,0,0h-.07s-.03,0-.03,0c-.39.03-.72.32-.79.7v.03c-.02.06-.02.12-.02.18v.53s.02,1.01.02,1.01h0s.01.58.01.58h0c.12,4.35.75,8.65,1.51,12.88h0c.05.28.11.55.16.81h0s.08.4.08.4h0s.04.2.04.2v.02s.07.31.07.31h0c.1.44.2.88.31,1.32h0s.08.33.08.33l.02.08c.01.06.04.13.06.18l.02.03c.2.42.7.61,1.13.43l.04-.02.17-.07h0s.69-.29.69-.29h0c1.11-.48,2.23-.96,3.34-1.43l.45-.19.16.06h0c.19.07.39.13.61.2h0s0,0,0,0c0,0,0,0,0,0h0c.81.25,1.63.47,2.45.66h0c.72.17,1.44.32,2.15.45h0c.75.14,1.51.29,2.29.4h0c.23.03.46.06.69.09h0s0,1.59,0,1.59h0c0,1.06,0,2.11,0,3.16h0c0,1.06.01,2.11.02,3.16,0,.23.09.45.26.62s.39.25.62.25c2.52-.02,5.04-.04,7.56-.06.48,0,.87-.4.87-.88,0-.34,0-.67,0-1.01,0-.34,0-.68,0-1.02h0c0-.28,0-.57,0-.86h0c0-.58,0-1.17.01-1.75h0s-.01-2.75-.01-2.75h0s0-.45,0-.45c.95-.11,1.91-.25,2.86-.45h0c1.05-.22,2.1-.5,3.13-.85h0c2.41-.83,4.74-2.08,6.69-3.85h0c1.2-1.1,2.24-2.38,3.05-3.81,1.04-1.83,1.7-3.84,1.99-5.89.13-.92.21-1.85.21-2.8ZM146.42,27.53h0Z"/>
    <polygon class="cls-1" points="133.09 27.24 133.09 27.24 133.09 27.24 133.09 27.24"/>
  </g>
  <path class="cls-1" d="M123.18.1l4.69-.1c34.21,2.05,59.22,28.35,57,63.16-.25,3.94-2.88,11.31-2.39,14.34.63,3.84,8.28,2.15,11.1,2.25,13.17.48,22.06,4.07,29.2,15.29,4.5,7.06,8.58,14.48,12.93,21.64,4.68,7.71,13.84,19.58,15.16,28.31,2.51,16.55.01,37.01.37,54.05.23,10.83,2.12,15.95-3.11,26.3-5.18,10.24-18.09,16.35-29.21,17-11.11.65-22.8.18-33.9-.01-29.24-.51-58.4.27-87.63.01-21.37-.19-43.81,1.32-65.01-.02-11.18-.7-23.82-7.04-28.87-17.33-4.35-8.85-3.21-12.19-3.12-21.5.18-17.56-.97-35.25-.01-52.72.77-14.01,8.96-23.02,15.88-34.43,4.39-7.23,8.51-14.73,13.06-21.85,6.89-10.79,16.15-14.29,28.73-14.74,2.99-.11,9.22,1.45,10.92-1.4,1.27-2.13-.95-7.84-1.41-10.52C61.63,32.44,88.14,1.99,123.18.1ZM119.42,11.05c-46.23,3.88-56.82,68.2-15.22,88.94,42.83,21.36,88.48-27.03,61.98-68.14-11.06-17.16-26.72-22.48-46.76-20.8ZM72.18,115.09c-3,.02-7.56-.07-10.37.24-4.54.51-4.57,11.85-.01,12.28,12.94,1.21,27.67-.77,40.73.69,29.32.47,58.54-.6,87.98-.69,2.28-.23,3.99-9.3,2.06-11.27-1.63-1.66-8.74-.96-11.33-.99-36.21-.4-72.82-.49-109.06-.26Z"/>
</svg>