<?xml version="1.0" encoding="UTF-8"?>
<svg id="Layer_11" data-name="Layer 11" xmlns="http://www.w3.org/2000/svg" viewBox="0 0 314.01 288">
  <defs>
    <style>
      .cls-1 {
        fill: #1c5c7d;
      }
    </style>
  </defs>
  <path class="cls-1" d="M313.94,236.38c-.1-2.72-.32-5.43-.58-8.13-.52-5.4-1.22-10.76-1.58-16.18-.3-4.52-.79-9.03-.9-13.56-.13-5.16-.02-10.31-.77-15.41-.39-2.65-.83-5.49-.6-8.11.57-6.71,0-13.06-1.72-19.17-1.13-4-1.05-7.97-.33-12.06.26-1.46.5-2.96.56-4.46.21-5.92.35-11.85.5-17.77.03-1.07.14-2.17,0-3.19-.82-6-.68-11.95-.38-18.08.51-10.47.37-21.01.56-31.52.03-1.63.34-3.25.52-4.88.18-1.64.49-3.27.52-4.91l.14-8.42.04-4.21c0-.16,0-.4,0-.6v-.62s-.04-1.24-.04-1.24c-.06-.83-.11-1.66-.2-2.48-.73-6.61-3.09-13.06-6.87-18.43-1.46-2.1-3.07-4.08-4.91-5.77-1.83-1.69-3.88-3.09-6.09-4-3.23-1.31-6.19-2.82-9.28-4.24-3.07-1.43-6.24-2.83-9.6-3.79-2.46-.72-5.03-1.3-7.62-1.59-2.31-.29-4.62-.52-6.93-.54-5.01-.04-10.05-.21-15.07-.04-3.97.07-7.94.32-11.87.97-.44.07-.89.12-1.35.15-1.48-.01-2.99-.11-4.47-.13-7.15-.1-14.3-.33-21.45-.34-2.3,0-4.61.05-6.91.12-1.31.03-2.61.07-3.92.11-2.48.06-4.95.09-7.42.02-4.65-.14-9.26-.42-13.88-.23-2.35.03-4.71.17-7.07.48-5.32.7-10.72,1.12-16.1,1.64-.17.02-.34.02-.52.03-.23,0-.45.01-.68.03-.66.01-1.32.01-1.98.05-.15,0-.3.01-.45.02-5.45,0-10.71-1.07-16.09-1.48-4.5-.34-8.98-1.05-13.31-1.93C106.8.67,97.64-.1,88.28.24c-1.92.04-3.85.12-5.79.25-.71.05-1.42.1-2.13.13-.63,0-1.25-.02-1.86-.07-4.09-.33-8.16-.7-12.19-.5-3.03.03-6.03.31-9.02,1.13-.09.03-.2.04-.3.05-.32-.01-.63-.02-.94,0-2.16.07-4.32.08-6.48.06l-1.62-.02h-.82s-.97,0-.97,0c-.59,0-1.18.02-1.77.05h-.17c-1.29,0-2.58.09-3.87.2-5.14.5-10.24,2.01-14.69,4.61-4.64,2.71-8.85,6.02-12.51,9.87-3.66,3.85-6.77,8.27-9.05,13.15-1,2.11-1.61,4.44-2.4,6.57-.16.45-.32.9-.47,1.36-.14.46-.26.92-.38,1.39-.26.93-.41,1.88-.57,2.82-.14.95-.22,1.91-.28,2.86-.01.48-.02.95-.03,1.43v.7s.02.59.02.59c.13,3.16.5,6.27,1.05,9.26.8,4.35.72,8.39.35,12.46-.45,5-.83,9.86-.23,14.91.34,2.86.51,6.04.09,8.83-.01,1.7-.04,3.4.02,5.1.11,3.02.86,5.68,1.63,8.54.13.49.14,1.01.14,1.51.02,1.74.04,3.48.06,5.22,0,.32,0,.64.11.94.09.26.24.5.39.73,3.87,6.09,4.33,14.62,2.88,21.5-1.11,5.28-1.32,10.64-1.8,15.95-.13.64-.26,1.27-.4,1.9-.29,1.32-.56,2.64-.8,3.97-.05.58-.11,1.15-.16,1.73-1.31,13.79-2.09,27.52-1.97,41.46.09,9.74.41,19.48.48,29.23.03,3.87.13,7.74.05,11.6-.02,2.17.04,4.43.22,6.65.19,2.23.47,4.46.82,6.73.35,2.11.97,4.33,1.88,6.43.91,2.1,2.13,4.08,3.52,5.74,3.5,4.17,7.39,7.76,11.66,10.84,4.26,3.08,8.92,5.65,13.99,7.6l1.38.48.7.23.71.2,1.43.38c.48.11.96.2,1.45.3.97.21,1.95.31,2.94.44.49.06.99.08,1.48.11l.74.04.37.02h.31c.97.04,1.94.06,2.91.06,2.05.02,4.11-.02,6.18-.1.89-.03,1.77-.06,2.66-.1.36-.02.73-.03,1.09-.04.79-.02,1.58-.03,2.38-.04,1.53,0,3.07.01,4.6.05,1.96.05,3.94.12,5.9.13.47,0,.94,0,1.4,0,.02-.02.03-.04.05-.06,3.19.04,6.36-.07,9.42-.76,2.05-.46,3.94-.87,6.12-.78,4.99.2,9.99.43,14.99.45,6.19.03,12.33.2,18.52.53,7.37.39,14.85-.18,22.29-.34,3.32-.07,6.65-.24,9.97-.18.27,0,.55.02.82.04-.05.05-.1.11-.15.16,1.82.19,3.64.49,5.44.44,2.47-.07,4.94-.15,7.41-.24,2.2-.08,4.4-.16,6.6-.24,7.45-.26,14.89-.47,22.36-.28-.02-.03-.04-.05-.06-.08,2.19.04,4.38.11,6.58.22,2.05.11,4.11.2,6.17.28.03.04.05.07.08.11,4.53.16,9.06.27,13.59.3,1.1,0,2.19-.02,3.29-.07,3.03-.08,6.07-.37,9.11-.56.36,0,.71.03,1.07.05,3.17.17,6.34.4,9.51.51.38.01.75.01,1.12.01-.09-.03-.17-.05-.25-.08-.01,0-.02,0-.03-.01.2,0,.41.02.61.03,4.09.13,7.35-.39,9.93-1.37.82.02,1.62.17,2.44.23,1.36.11,2.77-.34,4.15-.42,1.59-.09,3.18-.02,4.76.2.29.04.59.09.88.05.25-.04.49-.14.73-.2,1.17-.31,2.33.16,3.49.25,1.25.1,2.54.09,3.8.09.05,0,.09,0,.14,0,.8,0,1.6-.02,2.4-.06,2.55-.04,5.13-.31,7.75-.96,1.11-.25,2.19-.62,3.31-1.01,1.08-.44,2.2-.9,3.27-1.49,2.17-1.15,4.29-2.65,6.24-4.59,2.01-1.98,3.96-4.14,5.62-6.46,1.66-2.32,3-4.81,3.8-7.29,1.02-3.12,1.75-6.25,2.33-9.38.58-3.13,1.02-6.26,1.42-9.48.13-.89.18-1.78.23-2.67.05-.98.06-1.56.06-2.27.01-1.37-.01-2.74-.07-4.1ZM284.68,157.79s0,0,.01,0c-2.36-.8-.78-.38-.01,0ZM258.52,175.17c.2-.07.38-.16.56-.23l3.48-1.54c1.23-.53,2.48-1.03,3.73-1.54.51-.21,1-.46,1.51-.68.22-.09.47-.18.69-.22.93-.17,1.87-.33,2.78-.38.35-.01.7.08.87.21.47.36,1.76-1.06,2.6-1.09.38-.01.77,0,1.21,0,.23-.07.5-.15.78-.22.82-.14,1.64.14,2.44.35.55.15,1.15.2,1.7.38.85.27,1.69.67,2.47,1.07.55.28,1.1.57,1.7,1.02l.23.18.26.25c.19.16.32.36.48.54.27.39.48.82.54,1.29.17.99-.42,1.92-1.11,2.59-.16.15-.38.32-.57.48-.22.1-.5.21-.59.25l-.83.31c-.85.3-1.69.72-2.53,1.08l-.57.23-4.19,1.84-2.23,1.02c-.21.1-.43.21-.51.25-.3.11-.47.17-.63.25-1.16.56-2.32,1.13-3.46,1.71-.48.25-.93.54-1.41.8-.81.43-1.64.86-2.46,1.27-1.81.91-3.65,1.72-5.53,2.41-.19.07-.38.17-.57.25-.19.08-.38.14-.57.19l-8.32,3.96.03.04c-.16.06-.33.09-.47.17-.54.29-1.07.61-1.61.89l-2.58,1.31-3.25,1.65-2.59,1.27-2.02.98-3.28,1.56-2.81,1.32-2.47,1.25c-.53.26-1.1.44-1.61.71-1.43.74-2.85,1.47-4.28,2.21-.95.47-1.93.9-2.9,1.36-.28.13-.54.31-.81.43-.61.31-1.23.57-1.81.76-.55.18-1.08.28-1.55.26-.45-.03-.88-.14-1.28-.48-.41-.37-.49-.73-.6-1.13-.01-.15-.02-.29-.03-.45-.04-.77.25-1.78.48-2.73.08-.31.16-.61.23-.91.07-.26.15-.52.23-.76.12-.36.23-.72.32-1.04l.05-.23.06-.28.11-.56c.13-.73.24-1.46.29-2.11.04-.51-.03-1.09-.08-1.81-.04-.7-.08-1.6.24-2.56.17-.55.48-1.06.82-1.5.35-.42.74-.79,1.13-1.07l.4-.29.42-.19.52-.23,1.03-.46c.32-.14.64-.3.96-.46.77-.37,1.53-.75,2.3-1.12.25-.12.54-.17.81-.27.94-.37,1.88-.74,2.81-1.14.34-.14.64-.37.98-.53.58-.27,1.17-.52,1.76-.77l2.65-1.1c.73-.31,1.47-.68,2.19-.9.84-.26,1.61-.64,2.42-.95.28-.11.56-.27.83-.41l.06-.05c.24-.1.51-.24.73-.29.77-.14,1.48-.52,2.19-.84,1.35-.6,2.66-1.27,4.02-1.85,1.06-.45,2.16-.79,3.23-1.21.79-.31,1.57-.67,2.36-.99.65-.26,1.31-.51,1.96-.75l5.45-2.03ZM225.58,167.95c.75-.21,1.43-.55,2.15-.82.25-.09.49-.24.74-.36l.05-.05c.22-.09.45-.22.65-.25.68-.11,1.31-.45,1.94-.74,1.19-.54,2.33-1.17,3.52-1.69.92-.42,1.89-.74,2.83-1.14.69-.29,1.35-.65,2.03-.97l.85-.38.31-.14c.12-.07.26-.08.38-.11l.51-.11c1.84-.36,3.68-.43,5.49-.3l.58.03c1.19.06,2.38.19,3.55.44,1.23.25,2.41.65,3.57,1.05.48.18.99.31,1.5.55.22.1.45.25.63.4.37.33.74.73,1.03,1.27.28.53.31,1.12.18,1.61-.1.4-.41.64-.6.7-.06.02-.12.02-.18.03-.07.16-.16.32-.27.49-.02,0-.03.01-.05.02.1.05.14.15.14.25,0,.24-.82,1.06-1.22,1.25-.29.13-.58.27-.92.42-.14.16-.3.34-.46.51-.51.47-1.2.62-1.84.89-.44.19-.83.49-1.27.69-.67.32-1.37.59-2.04.9-.93.42-1.87.84-2.79,1.3-.95.47-1.9.89-2.89,1.26-.75.28-1.49.67-2.24,1l-.51.21-3.72,1.67-1.98.91c-.19.09-.38.19-.46.23-.27.1-.42.15-.57.22-1.03.5-2.06,1.01-3.09,1.51-.43.22-.83.49-1.25.71-.73.38-1.46.75-2.2,1.11-1.61.8-3.3,1.46-4.91,2.06-.17.06-.33.15-.49.22-.16.07-.33.13-.5.17-2.42,1.22-4.85,2.52-7.42,3.63l.02.04c-.14.05-.3.07-.43.13-.51.24-1,.51-1.53.71-.41.17-.83.33-1.26.46-.42.15-.86.27-1.3.4-.54.17-1.13.27-1.7.39-.59.07-1.17.18-1.79.17-.98.04-1.84-.08-2.72-.17-.68-.08-1.35-.17-2.01-.27-1.08-.16-2.13-.33-3.22-.53-.93-.18-1.83-.38-2.75-.58l-1.23-.25-.66-.14c-.34-.08-.67-.17-1.01-.27-.85-.25-1.58-.61-2.15-.97-1.37-.94-1.03-2.05.04-3.09.39-.38.85-.74,1.39-1.07.34-.2.74-.42,1.06-.59l.63-.34,1.26-.68c.24-.13.46-.3.71-.42.3-.15.62-.27.93-.42.29-.14.57-.3.86-.45.65-.33,1.31-.67,1.96-1,.87-.46,1.7-1.01,2.6-1.37,1.28-.53,2.51-1.14,3.76-1.71l3.18-1.54c1.22-.57,2.46-1.1,3.68-1.66l.86-.41c.68-.33,1.36-.68,2.05-1,.22-.1.49-.14.72-.23.84-.32,1.68-.63,2.52-.98.3-.12.57-.33.87-.47.52-.23,1.05-.45,1.58-.66l2.37-.95c.65-.26,1.31-.59,1.95-.77ZM200.09,161.51c.13-.03.27-.04.38-.1.44-.2.87-.42,1.32-.62.71-.29,1.41-.57,2.14-.83.9-.34,1.82-.67,2.76-.95.75-.23,1.5-.41,2.36-.56.67-.09,1.27-.13,1.88-.15.98-.03,1.95-.03,2.92.01.83.03,1.66.11,2.5.19.75.07,1.5.11,2.26.25.49.09.96.27,1.45.41.35.1.67.19,1.08.37.48.21.94.49,1.32.85l.26.29c.07.1.14.22.21.32.07.11.12.23.18.34.28.55-.08,1.69-.18,2.24-.2,1.16-1.78,1.48-2.71,1.91-.22.1-.41.25-.63.35-.27.12-.55.21-.83.33-.26.11-.51.24-.76.36-.58.28-1.16.55-1.73.84-.76.39-1.49.88-2.27,1.18-1.13.44-2.19.99-3.28,1.51-.93.44-1.83.95-2.75,1.41l-3.18,1.54c-.25.12-.49.25-.74.39-.59.32-1.17.64-1.76.95-.19.1-.42.13-.63.21-.73.3-1.46.6-2.18.93-.26.12-.48.32-.74.45-.45.23-.91.43-1.36.63l-2.05.9c-.57.25-1.13.57-1.7.74-.66.2-1.25.52-1.88.77-.22.09-.43.23-.64.35l-.04.05c-.19.08-.39.2-.57.23-.61.1-1.15.41-1.7.68-1.03.51-2.04,1.07-3.08,1.56-.81.38-1.67.65-2.51.99-.61.26-1.2.57-1.81.84-1.6.68-2.76.84-4.5.57-.79-.12-1.58-.27-2.34-.46-.16-.04-.33-.06-.49-.1-1.01-.21-2-.43-2.97-.7l-3-.86c-.4-.1-.82-.16-1.23-.24-.18-.03-.36-.09-.51-.16-.95-.45-2.35-.83-3.25-1.42-.06-.04-.12-.08-.18-.13-.54-.41-.52-1.04-.2-1.58.11-.2.23-.34.33-.42.29-.24.56-.41.88-.59.12-.16.27-.35.42-.53.49-.47,1.15-.57,1.74-.77.41-.14.79-.38,1.2-.52l.82-.27.9-.37c.82-.36,1.64-.72,2.44-1.12.83-.41,1.66-.79,2.53-1.1.66-.24,1.31-.59,1.96-.89l.45-.19,3.27-1.48,1.75-.79c.17-.08.34-.16.4-.2.24-.08.38-.12.5-.18l2.75-1.29c.38-.18.72-.42,1.1-.62.64-.33,1.28-.65,1.94-.96,1.43-.69,2.89-1.26,4.4-1.73.15-.05.3-.12.45-.18.15-.05.3-.09.46-.12,2.21-.94,4.44-1.87,6.69-2.74l-.02-.04ZM106.39,84.79c.01-.3.05-.6.12-.9.06-.3.11-.6.18-.9.32-1.18.86-2.31,1.57-3.31.71-1.01,1.63-1.83,2.63-2.51,1-.69,2.12-1.18,3.27-1.5.57-.18,1.17-.26,1.75-.37.59-.05,1.19-.12,1.78-.09l-.02-.04c.52,0,1.03.11,1.53.15.46.04,1.03.17,1.49.31.48.15.92.34,1.34.54.84.39,1.6.82,2.33,1.17,1.14.54,2.18.84,3.1.54.46-.13.96-.37,1.33-.7.38-.33.68-.73.88-1.18.53-1.14.28-2.57-.52-3.6-.1-.13-.22-.25-.32-.37l-.41-.37c-.26-.26-.6-.48-.9-.72-.65-.45-1.34-.88-2.07-1.28-2.3-1.28-4.82-2.41-7.23-3.93-.93-.62-1.87-1.25-2.71-2.09-.22-.19-.42-.42-.62-.64-.2-.23-.41-.44-.58-.7l-.52-.77-.4-.79c-.85-1.7-1.35-3.68-1.15-5.64.17-1.96.93-3.85,2.13-5.38,1.03-1.3,2.34-2.4,3.87-3.08,1.52-.67,3.17-1.03,4.83-.98.37,0,.73.07,1.1.1.36.06.74.06,1.08.18.7.21,1.41.34,2.11.67,1.33.62,2.4,1.31,3.49,1.85.68.34,1.36.63,1.95.73.6.12,1.02.02,1.41-.27.22-.18.34-.37.43-.72.09-.35.1-.82.07-1.33-.02-.52-.08-1.08-.1-1.71,0-.31-.01-.64.02-1,.03-.35.08-.61.12-.92.34-2.39,1.09-4.8,2.46-6.91,1.78-2.82,4.67-4.94,7.84-5.93.45-.16.92-.28,1.38-.4.46-.13.94-.2,1.41-.27,1.17-.14,2.36-.13,3.53,0,1.11.09,2.2.34,3.28.64,1.22.38,2.39.92,3.5,1.58,1.1.68,2.1,1.51,3,2.44,2.4,2.53,3.84,6.01,3.72,9.45-.03,1.13-.07,2.18.01,3.12.05.45.11.91.24,1.22.12.32.26.51.38.61.11.07.42.18.7.2.3.02.67-.06,1.07-.17.81-.26,1.7-.74,2.64-1.27.81-.45,1.63-.96,2.68-1.38,1.03-.38,2.03-.66,3.11-.78,2.14-.28,4.43.12,6.39,1.18,2.24,1.21,3.98,3.23,4.9,5.58.93,2.34,1.01,5.06.14,7.47-.4,1.13-.99,2.19-1.7,3.12-.23.27-.45.55-.68.81l-.74.75-.79.68c-.26.21-.52.4-.78.59-1.04.76-2.11,1.43-3.18,2.07-.69.41-1.44.75-2.16,1.13-1.26.68-2.51,1.34-3.71,2.04-.6.35-1.18.71-1.75,1.08l-.75.51-.08.08c-.06.1-.14.19-.2.3-.37.61-.46,1.38-.43,2.04.03.58.21,1.08.51,1.45.07.1.16.18.25.27.09.09.25.18.36.28.13.11.25.17.38.23l.19.11.18.06c.36.14.71.17,1.16.1.44-.06.94-.21,1.49-.45,1.11-.46,2.31-1.18,3.81-1.71,1.31-.46,2.6-.63,3.93-.64,1.33,0,2.65.25,3.82.73,2.72,1.08,4.93,3.16,6.16,5.71.43.9.8,1.87,1.02,2.87l.07.24c.14.86.23,1.87.12,2.59-.29,2.51-1.37,5.07-3.14,6.9-.41.42-.86.85-1.29,1.19-.43.36-.87.71-1.32,1.02-.44.33-.89.64-1.35.93-.45.3-.91.59-1.38.86-1.85,1.11-3.73,2.09-5.61,3.01-2.93,1.45-5.89,2.7-8.64,4.27-.5.29-1.01.58-1.48.9l-.72.48-.68.51c-.47.34-.87.68-1.15.98-.28.32-.34.51-.36.69,0,.15.04.41.19.72.17.32.36.66.52.79.17.15.22.18.39.2.18.02.52-.04.92-.18.57-.19,1.23-.48,2.06-.69.21-.05.45-.09.66-.12l.58-.05.57-.05h.58c1.55.02,3.17.4,4.58,1.21,1.41.81,2.52,2.02,3.31,3.35.8,1.33,1.28,2.79,1.54,4.26.11.62.19,1.26.24,1.89.12,1.95-.08,3.91-.63,5.78-.27.94-.62,1.86-1.08,2.73-.44.88-.99,1.72-1.64,2.48-.67.81-1.46,1.52-2.36,2.12-.47.32-.88.53-1.29.76l-1.25.68-4.98,2.74c-1.35.74-2.67,1.54-4.01,2.3-.58.33-1.22.67-1.77.93-2.33,1.1-4.68,2.23-6.92,3.24-.86.4-1.71.62-2.05.71-.35.1-.61.33-.81.63-.09.13-.14.62-.07.77.13.29.22.38.3.69.06.24.09.48.13.72.2,1.38.36,2.81.35,4.2-.01,1.02-.02,2.05-.04,3.22.08.61.16,1.32.25,2.02.02.26.04.53.05.8,0,.29.04.46,0,.93-.07.82-.45,1.61-1.04,2.19-.57.59-1.41.97-2.18,1.05-.5.06-1.04.16-1.62.24-.41.06-.83.12-1.34.12-.49,0-1.17-.08-1.74-.39-.56-.3-1-.84-1.28-1.4-.11-.26-.23-.54-.28-.77-.07-.25-.12-.49-.14-.71-.11-.73-.09-1.36-.09-1.96l.04-1.8.1-3.55c.02-1.61.05-3.25-.06-4.76l-.02-.28-.02-.14c-.02-.09-.05-.18-.1-.26-.09-.17-.22-.31-.39-.42l-2.05-1.12c-2.96-1.6-5.85-3.21-8.74-4.91-2.2-1.29-4.54-2.53-6.82-3.8l-1.52-.87-1.66-.92.11.05c-.96-.44-1.86-1-2.65-1.68-.77-.7-1.45-1.48-2.01-2.33-1.11-1.71-1.82-3.61-2.18-5.56-.45-2.44-.44-4.96.19-7.4.18-.71.42-1.41.54-1.69.18-.46.38-.8.54-1.1.15-.3.32-.54.46-.78,1.04-1.75,2.78-3.22,4.83-3.85,1.02-.29,2.08-.43,3.11-.38.52,0,1.14.1,1.64.25.51.15.98.33,1.4.49.71.28,1.26.42,1.66.35.21-.01.42-.1.64-.2l.17-.1c.07-.03.11-.06.13-.08.07-.04.11-.1.17-.15.17-.21.31-.54.31-.92.02-.38-.1-.77-.27-1.04-.1-.13-.19-.25-.3-.31l-.06-.04-.21-.12-.43-.24-1.71-.97c-5-2.83-9.9-5.74-14.7-8.71-.49-.29-1.01-.6-1.51-.89-.49-.3-.96-.6-1.42-.91l-.18-.1c-.06-.03-.17-.1-.25-.15-.17-.12-.33-.24-.47-.38-.14-.14-.27-.28-.39-.44l-.24-.31c-.31-.4-.65-.8-1-1.2-.7-.81-1.47-1.65-2.14-2.67-.67-1.02-1.17-2.26-1.3-3.53-.05-.32-.04-.63-.05-.94,0-.31.04-.61.05-.91ZM293.92,193.06c-.08.19-.2.41-.27.53-.07.13-.22.34-.33.49-.67.8-1.36,1.32-2.07,1.91-.7.56-1.42,1.1-2.14,1.63-1.44,1.05-2.9,2.07-4.37,3.07-.51.34-1.04.71-1.53,1.06-2.6,1.88-5.21,3.73-7.86,5.54-1.1.75-2.35,1.62-3.39,2.21-3.48,2.01-6.84,4.3-10.25,6.45l-3.01,1.9c-2.05,1.3-4.11,2.58-6.14,3.91-3.38,2.19-6.87,4.41-10.04,6.61-5.35,3.7-10.69,7.45-16.12,11.08-1,.67-2.05,1.42-2.87,2.04-2.03,1.56-4.34,2.97-6.69,4.34-3.81,2.23-7.67,4.35-11.62,6.34-1.96,1.01-3.99,1.98-6.11,2.77-2.11.8-4.36,1.39-6.64,1.62-3.24.36-6.71.13-9.78-.04-.45-.03-1.13.02-1.7.03-4.38.13-8.79.29-13.18.46-.83.03-1.74.09-2.47.16-3.4.36-7.11.51-10.81.64-1.02.03-2.06-.02-3.09-.04-.91-.02-1.82-.08-2.72-.05-3.07.1-6.15.19-9.18.32-5.91.24-11.81.37-17.73.22-1.69-.04-3.29-.19-4.96-.23-3.92-.08-7.86-.22-11.78-.34-2.84-.11-5.66-.17-8.52-.37-2.85-.23-5.69-.54-8.5-1.02-4.79-.79-9.5-1.97-14.16-3.23-2.95-.81-5.87-1.59-8.79-2.49-3.52-1.08-7.02-2.3-10.51-3.33-.41-.12-.82-.25-1.24-.38-.55-.03-1.11-.09-1.69-.24-4.09-1.06-8.18-2.11-12.28-3.17-1.86-.48-4.11-1-6.16-1.82-2.05-.81-3.92-1.92-5.01-3.61-1.21-1.88-1.74-3.8-2.42-5.87-.49-1.48-.81-3.18-.99-4.72-.19-1.63-.25-3.16-.25-4.62,0-2.45.17-4.74.19-7.11.04-4.19.55-8.35.82-12.5.25-3.9.51-7.82,1.14-11.7.45-2.74,1.1-5.5,2.45-7.96.96-1.75,2.31-3.34,4.01-4.44.9-.59,1.56-.76,2.56-.98.7-.15,1.42-.42,2.19-.53,4.07-1.36,8.29-2.66,12.72-3.8,2.38-.72,4.76-1.44,7.19-2.04,4.07-.93,8.19-1.77,12.33-2.39.84-.14,1.66-.19,2.49-.3,5.15-.8,10.36-1.3,15.56-1.46,1.82-.11,3.63-.06,5.44-.11,1.81,0,3.62.09,5.45.18,1.35.14,2.71.28,4.07.43,1.36.18,2.71.43,4.06.64l3.83.79c1.26.32,2.52.63,3.78.97l3.4,1.03,3.35,1.15c3.49,1.26,6.9,2.68,10.28,4.15,3.06,1.34,6.08,2.74,9.11,4.09,2.35,1.04,4.7,2.08,7.08,3.03,1.07.44,2.15.87,3.24,1.26,1.08.41,2.17.82,3.27,1.18,6.1,2.07,12.38,3.7,18.63,5.49,3.41.97,7.1,1.73,10.67,2.52,3.23.71,6.48,1.46,9.7,2.01,4.09.68,8.26,1.06,12.4,1.82.27.05.55.1.83.15.33.07.73.1,1.02.28.62.37.98,1.05,1.06,1.68.14,1-.09,1.77-.32,2.56-.25.77-.57,1.5-.9,2.21-.34.71-.7,1.39-1.08,2.06-.21.34-.41.67-.62,1-.24.31-.47.63-.72.94-.82.95-1.88,1.74-3.06,2.22-1.18.48-2.43.67-3.64.75-2.43.14-4.75-.03-7.14.06-1.32.02-2.67.08-4.04.13-1.37.01-2.75.06-4.11.05-4.57-.03-9.09-.35-13.58-.51-1.91-.06-4.22-.32-6.27-.57-3.41-.42-6.78-.87-10.23-1.24-6.94-.74-13.86-1.61-20.84-1.84l-2.61-.07c-.18,0-.36.02-.53.04-.34.05-.87.16-1.15.35-.47.32-.05.8.2,1.11,0,0,.15.18.15.18l.28.33c.41.46.85.92,1.31,1.35,1.61,1.49,3.92,1.74,6.02,2.23,2.23.52,4.47.97,6.73,1.37,2.11.38,4.36.73,6.36,1.11,5.89,1.11,11.88,1.56,17.85,2.12,3.54.34,7.07.68,10.61.96,1.3.11,2.6.23,3.91.31,5.18.3,10.35.35,15.46.21,2.31-.07,4.96-.46,7.4-1,1.55-.38,3.12-.71,4.67-1.13,1.54-.44,3.08-.82,4.58-1.27,1.1-.33,2.13-.66,3.15-1,1.02-.34,1.99-.75,3-1.15,5.23-2.15,10.51-4.38,15.81-6.73,2.1-.94,4.21-2,6.31-3.03,2.75-1.36,5.51-2.71,8.26-4.07,1.11-.54,2.23-1.08,3.34-1.63,3.71-1.85,7.45-3.66,11.21-5.41,3.78-1.73,7.59-3.38,11.46-4.89,1.15-.43,2.33-.89,3.59-1.2,1.25-.31,2.57-.49,3.86-.47.64.01,1.28.06,1.91.15.61.08,1.3.2,1.89.39,1.21.36,2.37.79,3.52,1.34.67.33,1.36.67,2.01,1.16.56.42,1.2,1.11,1.29,1.9.04.43-.05.87-.23,1.27Z"/>
  <path class="cls-1" d="M132.39,89.24c.05.07.12.14.16.18l.21.21c.13.13.26.25.39.36.27.24.54.45.78.63,1.05.8,1.96,1.66,2.96,2.77.39.44.63.63.74.71.91.67,1.44,1.28,1.99,1.96,1.04,1.27,2.01,2.32,3.42,3.32.36.26.77.59,1.19.98l1.46,1.34.67.62.22.21c.28.27.44.64.45,1.03l.02,1.24.05,2c.05,1.57.06,3.18.07,4.73,0,.82.01,1.65.02,2.46l.08,3.83.05,2.29v.19c0,.21-.03.4-.08.56v.13c.01.53-.21.89-.41,1.1-.28.3-.67.47-1.08.47-.2,0-.41-.05-.61-.13-.3-.12-.58-.29-.9-.53l-.23-.18-.15-.12-.37-.33-1.46-1.3-.28-.24c-.41-.36-.81-.71-1.23-1.04l-.08-.06c-.25-.19-.47-.36-.75-.52-.04-.02-.05-.03-.08-.05-.07-.04-.3-.14-.39-.17-.13-.05-.26-.08-.39-.11l-.13-.03c-.09-.01-.18-.02-.28-.02-.47,0-1,.16-1.44.45-.36.23-.67.56-.89.95-.2.35-.33.81-.37,1.24,0,.16-.01.35.01.47,0,.04.02.09.02.14.01.11.1.31.15.44.16.39.31.62.5.74.04.03.08.06.12.09,1.48,1.2,3.09,2.46,4.76,3.48.16.1.32.22.49.35l.12.09c1.55,1.18,2.98,2.25,4.42,3.29l.09.05s.07.04.1.07l.08.06c.26.19.45.45.55.76l.03.09s.06.21.06.23c.01.05.03.1.05.33l.09.94c.08.79.15,1.55.44,2.35,0,.02.02.05.02.07.03.09.07.18.11.28l.08.19c.08.16.17.31.27.45.21.29.6.53,1,.62.22.05.44.07.65.07.29,0,.56-.04.82-.14.28-.1.56-.4.76-.86.04-.08.07-.16.09-.26,0,0,.07-.27.08-.3,0-.03,0-.05,0-.08.04-.28.07-.5.07-.7l.07-1.42c.03-.48.09-.98.18-1.37.01-.05.02-.1.04-.15.18-.53.48-.84.76-1.03h0c.09-.08.18-.16.26-.23.11-.09.23-.19.36-.31,1.07-.93,2.31-1.88,3.81-2.91.3-.21.61-.42.92-.63,1.15-.78,2.33-1.59,3.41-2.5l.12-.11c.18-.16.36-.32.53-.51l.39-.42.15-.18c.15-.18.27-.4.38-.64.22-.5.3-1.01.24-1.52-.05-.51-.3-1.06-.64-1.41-.34-.36-.84-.61-1.32-.67-.16-.02-.32-.02-.44-.03-.07,0-.14.02-.21.03l-.21.04c-.07.01-.15.03-.18.04l-.44.17c-.14.05-.25.12-.42.21l-.16.09c-.18.1-.33.2-.48.31,0,0-.06.04-.07.05-.1.07-.22.17-.35.28-.11.09-.21.19-.31.27-.65.52-1.25,1.09-1.84,1.64l-.89.81c-.24.22-.38.32-.42.34-.18.12-.34.22-.51.3-.04.02-.09.04-.13.06l-.18.07c-.17.07-.35.1-.53.1-.28,0-.56-.08-.8-.24-.4-.26-.64-.69-.67-1.16,0,0-.01-.24-.01-.27,0-.09,0-.17,0-.23l-.02-.21s0-.07,0-.1l-.03-.96c-.05-1.42-.1-2.92,0-4.3.1-1.34.12-2.66.14-4.06l.02-1.13.04-3.67.03-1.68.02-.72c0-.09.01-.18.03-.27l.02-.09c.09-.41.35-.76.71-.97l2.03-1.64c.21-.17.42-.35.61-.53,1.46-1.38,3.01-2.72,4.51-4.01.65-.56,1.29-1.11,1.93-1.67.3-.26.56-.46.79-.6,1.35-.84,2.68-1.92,3.8-2.87.02-.02.04-.03.06-.05.18-.14.37-.29.56-.46.31-.3.53-.58.69-.87.17-.31.29-.69.35-1.08.03-.41-.01-.79-.13-1.12-.25-.74-.81-1.22-1.22-1.4-.26-.11-.52-.17-.78-.17-.16,0-.28.02-.31.03-.2.05-.24.1-.37.24-.11.12-.21.22-.3.29-.39.31-.83.39-1.15.44-.09.02-.22.04-.28.06-.32.27-.65.51-.98.76-.53.39-1.03.77-1.42,1.21-.26.3-.57.55-.87.79-.11.09-.21.17-.32.26-.57.49-1.13,1-1.68,1.51-.69.63-1.41,1.29-2.16,1.91l-1,.82-.68.52c-.16.12-.64.48-1.32.5-.03,0-.05,0-.08,0-.43,0-.85-.19-1.13-.52-.16-.19-.41-.57-.35-1.15,0,0,0-.14,0-.14,0-.05,0-.09,0-.13l-.03-.46v-.29s-.02-.65-.02-.65c-.01-1.12,0-2.04.03-2.9,0-.18.02-.35.02-.53.02-.35.04-.71.03-1.05l-.17-6.13c-.01-.52-.03-1.03-.04-1.55-.04-1.18-.07-2.4-.04-3.62.01-.58.36-1.09.89-1.32.09-.04.18-.09.23-.12.17-.13.23-.18.27-.2l.09-.06s.07-.07.11-.11c.11-.11.22-.22.32-.3,1.72-1.48,3.33-2.71,4.94-3.78.86-.57,1.63-1.13,2.36-1.71.46-.37.81-.67,1.15-.99.17-.16.34-.33.52-.52l.1-.11s.28-.35.29-.36c.02-.03.04-.07.06-.1.32-.51.44-1.27.27-1.91-.09-.4-.33-.78-.66-1.05-.32-.27-.74-.45-1.17-.5-.12-.01-.25-.02-.37-.02-.09,0-.18,0-.26.02-.03,0-.07,0-.1.01-.1,0-.16.02-.2.03l-.21.05c-.07.02-.14.03-.21.05-.08.04-.16.07-.21.1l-.21.14-.1.07-.55.43c-.6.49-1.14,1-1.71,1.55-.23.22-.46.44-.7.66l-.62.57c-.13.12-.42.37-.61.51-.22.17-.44.3-.65.4l-.02.02c-.18.15-.46.38-.84.54-.17.07-.34.1-.52.1-.46,0-.92-.22-1.22-.58-.2-.25-.32-.56-.33-.88l-.02-.63v-.52s.01-.59.01-.59c.02-.83.05-1.67.11-2.49.1-1.68.15-3.54.14-5.85,0-.92-.04-1.87-.08-2.78-.04-.89-.07-1.77-.08-2.66,0-.98,0-1.96.01-2.94l.03-1.48c.01-.34.04-1.04-.16-1.3-.19-.24-.49-.44-.84-.57l-.11-.04c-.25-.08-.39-.13-.55-.14-.04,0-.08-.01-.13-.02-.09-.02-.19-.02-.35-.02-.06,0-.12,0-.18,0-.43.03-.77.08-1.09.21-.02.01-.1.04-.12.05-.07.03-.26.15-.39.23h-.01s-.05.06-.05.06c-.11.1-.26.22-.29.28-.03.04-.06.09-.09.13-.18.24-.29.61-.31,1.09,0,.01,0,.08,0,.09l.02.99c.02.76.04,1.51.07,2.27.03.57.02,1.14,0,1.69,0,0-.02,1.35-.03,1.82-.02.79-.03,1.58-.04,2.37,0,.48.01.97.03,1.45.02.54.03,1.08.03,1.61,0,1.14-.03,2.28-.05,3.42l-.02,1.18-.02,1.65-.03.57c0,.12-.02.23-.04.38l-.02.09c-.03.18-.11.38-.21.53-.21.35-.57.6-.97.68-.09.02-.19.03-.28.03-.31,0-.62-.1-.87-.29,0,0-.1-.08-.12-.09-.29-.24-.55-.54-.74-.87-.04-.08-.08-.14-.11-.2-.56-.53-1.08-.98-1.57-1.37-.66-.52-1.4-1.07-2.33-1.52-.21-.1-.43-.19-.64-.27-.26-.09-.45-.15-.79-.2-.13-.02-.27-.03-.4-.03-.37,0-.74.08-1.08.24-.09.05-.17.11-.22.14-.25.22-.48.53-.68.94-.17.36-.3.81-.33,1.15-.02.23.04.48.18.69.21.33.58.72.74.86.7.64,1.39,1.19,2.12,1.77.37.29.73.58,1.09.88.07.06.14.1.22.15.12.08.24.16.36.25.7.52,1.4,1.03,2.11,1.54,1.1.8,2.24,1.62,3.34,2.49l.45.37c.19.15.42.37.48.43.61.57.67,1.17.6,1.58v.15s-.02.58-.02.58v1.18c-.02.47.01.95.04,1.46.01.24.06,1.14.06,1.14.02.33.04.66.04,1.01l.02,3.92c0,.31,0,.61-.01.91-.07,1.18-.1,2.42-.1,3.68,0,.62.01,1.23.03,1.8.02.28.04.54.08.9.03.23.07.57-.07.97,0,.05,0,.11,0,.18.03.57-.27,1.1-.77,1.37-.22.12-.46.17-.69.17-.31,0-.62-.1-.87-.29-.08-.06-.17-.11-.25-.17-.2-.13-.41-.26-.65-.45l-.13-.1c-.21-.15-.49-.37-.75-.68,0,0-.02-.02-.02-.03-.04-.04-.66-.66-.66-.66-.28-.27-.55-.53-.84-.79-.61-.54-1.2-.99-1.79-1.36-.55-.34-1.12-.84-1.63-1.27l-3.7-3.18c-.08-.06-.15-.13-.23-.19-.03-.03-.06-.05-.09-.08-.03,0-.06-.02-.09-.03-.22-.08-.45-.13-.67-.13-.14,0-.27.02-.41.06-.32.08-.64.31-.86.59-.22.29-.36.64-.39,1.01-.04.43.02.77.19,1.14.02.05.05.09.1.15Z"/>
</svg>