<?xml version="1.0" encoding="UTF-8"?>
<svg id="Layer_11" data-name="Layer 11" xmlns="http://www.w3.org/2000/svg" viewBox="0 0 264.64 169.86">
  <defs>
    <style>
      .cls-1 {
        fill: #1c5c7d;
      }
    </style>
  </defs>
  <path class="cls-1" d="M264.33,31.91c-.15-1.27-.29-2.55-.46-3.82l-.74-3.8-.54-1.91-.27-.95c-.1-.31-.24-.62-.35-.93l-.73-1.84c-.27-.6-.59-1.18-.88-1.77-.17-.35-.35-.7-.52-1.06-.2-.34-.41-.68-.61-1.01-2.19-3.69-5.13-6.92-8.62-9.44-3.57-2.59-7.09-3.94-10.05-4.65-.37-.09-.73-.18-1.08-.27-.36-.07-.71-.11-1.05-.16-.68-.1-1.32-.18-1.93-.25-1.23-.04-2.3-.07-3.25,0-.95.1-1.75.22-2.43.36-.68.14-1.23.38-1.67.56-.02,0-.04.02-.06.03-.49.03-.98.07-1.47.12-.42.04-.83.1-1.24.16-.18-.03-.35-.06-.43-.1-.24-.14-.54-.23-.95-.29-.41-.06-.93-.1-1.61-.06-1.34.12-3.35.42-6.21,1.54-2.12.82-4.09,1.86-6,3.02-.96.57-1.87,1.23-2.8,1.88-.89.7-1.8,1.4-2.65,2.18-1.73,1.55-3.37,3.31-4.88,5.35-.36.52-.73,1.05-1.1,1.59-.36.56-.71,1.13-1.03,1.73-.65,1.18-1.23,2.41-1.77,3.67-1.1,2.59-2.06,5.15-3.14,7.46-.54,1.16-1.1,2.21-1.77,3.33-.32.55-.63,1.1-.94,1.64-.15.27-.3.54-.45.81-.16.26-.32.52-.48.77-3.12,5.17-6.83,9.9-11.51,13.99-.62.59-1.3,1.1-1.96,1.63-.67.52-1.31,1.08-1.99,1.57-1.39.95-2.71,2-4.16,2.84-.71.44-1.41.9-2.13,1.32-.73.4-1.46.79-2.2,1.19-.37.2-.73.41-1.1.59l-1.13.52-2.26,1.05c-6.12,2.55-12.65,4.13-19.37,4.65-2.69.25-5.39-.02-8.14-.5-2.76-.48-5.55-1.21-8.5-1.76-1.67-.32-3.4-.55-5.15-.65-1.75-.11-3.54.02-5.28.26-3.43.56-6.64,1.57-9.76,2.75-1.61.62-3.26,1.31-4.89,2.04-.81.36-1.62.73-2.42,1.11-.39.18-.81.39-1.21.59-.39.2-.78.41-1.17.61-1.93,1.04-3.74,2.11-5.55,3.09-.9.5-1.8.95-2.69,1.39l-.67.31-.33.15-.12.05-.09.04c-.23.1-.47.2-.71.28-.49.16-1.01.31-1.56.3-.27-.01-.56-.03-.82-.13-.13-.05-.25-.13-.33-.24-.07-.12-.08-.25-.06-.38.11-.5.43-.92.73-1.36.33-.44.71-.84,1.18-1.3.9-.81,1.9-1.59,2.92-2.33.52-.38,1.01-.72,1.54-1.05.53-.33,1.08-.65,1.63-.97,2.22-1.27,4.53-2.51,6.75-4.05.79-.55,1.58-1.16,2.32-1.86.74-.71,1.45-1.5,1.99-2.49.53-.96.88-2.16.78-3.37-.03-.3-.09-.6-.15-.89-.09-.28-.16-.57-.29-.83-.23-.54-.51-1.01-.86-1.48-.73-.98-1.83-1.65-2.9-1.97-1.09-.34-2.16-.41-3.19-.4-2.07.06-4.01.48-5.89,1-1.88.52-3.7,1.16-5.48,1.78-1.3.45-2.66.93-3.87,1.45-7.16,3.03-14,6.73-20.39,11.47-1.37,1-2.69,2.07-4,3.15-.63.53-1.28,1.03-1.97,1.65-.34.3-.67.65-1,1.02-.37.46-.71.97-.9,1.52-.43,1.1-.25,2.39.45,3.34.18.23.34.49.56.68.22.19.47.36.71.53l1.03.73c1.37.98,2.76,1.94,4.15,2.9,5.55,3.84,11.25,7.51,17.13,10.87.91.53,1.82,1.04,2.74,1.56.92.51,1.81,1.05,2.75,1.53l2.81,1.48c.95.46,1.91.92,2.87,1.37.82.4,1.67.73,2.5,1.09.84.35,1.67.72,2.53,1.04,1.71.63,3.4,1.32,5.15,1.85,3.45,1.19,7.02,2.06,10.6,2.81,3.61.68,7.21,1.14,10.82,1.48,3.62.31,7.24.49,10.87.52,5.64.03,11.29-.27,16.5-1.13,3.8-.64,7.71-1.27,11.63-2.09,3.92-.81,7.88-1.76,11.75-2.92,5.69-1.75,11.32-3.86,16.58-6.8,4.73-2.63,9.25-5.73,13.33-9.33.26-.22.52-.44.77-.67l.74-.7,1.47-1.41c.96-.97,1.87-1.97,2.79-2.97l1.3-1.56c.42-.53.88-1.03,1.27-1.58l1.2-1.63.59-.82.55-.85c.43-.67.88-1.35,1.34-2.03.45-.7.87-1.43,1.32-2.15.91-1.43,1.74-2.96,2.5-4.45,1.05-2.06,2.02-4.14,3-6.2.98-2.06,2.01-4.05,3.11-6.05.54-.97,1.11-1.88,1.78-2.58.34-.34.7-.64,1.1-.86.4-.21.81-.37,1.26-.45.23-.03.45-.07.7-.07.25,0,.5-.02.73.01.48.01.89.14,1.24.3.34.16.59.4.78.72.19.33.32.75.4,1.22.12.81.11,1.72.03,2.64l-.37,2.79-.62,2.76c-.27.91-.57,1.81-.85,2.71-1.27,3.58-3.03,7-5.08,10.22-2.15,3.38-4.61,6.55-7.23,9.57-2.62,3.02-5.42,5.89-8.36,8.65-2.44,2.32-5.09,4.45-7.82,6.52-1.35,1.05-2.76,2.02-4.15,3.01-1.42.95-2.84,1.91-4.31,2.79-1.12.72-2.34,1.34-3.5,2-7.05,3.85-14.42,6.15-22.06,7.6l-2.1.38c-.7.1-1.41.2-2.11.3-1.4.22-2.82.31-4.22.45-2.83.23-5.65.42-8.41.59-6.55.41-13.13.79-19.74.81-3.3,0-6.61-.11-9.92-.33-3.31-.23-6.62-.64-9.93-1.18-1.21-.24-2.44-.43-3.65-.72-.61-.15-1.21-.29-1.81-.43-.3-.07-.6-.15-.9-.22-.3-.09-.59-.18-.88-.27-7.87-2.27-15.38-5.37-22.73-8.57-1.05-.48-2.37-1.21-3.57-1.82-1.23-.6-2.4-1.3-3.59-1.97l-1.78-1.02c-.59-.34-1.19-.67-1.77-1.04-2.31-1.47-4.66-2.88-6.89-4.47-4.55-3.05-8.88-6.43-13.18-9.83-2.2-1.83-4.43-3.65-6.54-5.61-2.16-1.9-4.21-3.94-6.27-5.95-1.03-1.01-2-2.08-3.01-3.11l-1.49-1.57c-.5-.52-.97-1.07-1.45-1.61l-2.88-3.23-2.78-3.32c-.4-.48-.8-.96-1.2-1.44-.37-.46-.75-.96-1.12-1.46-.74-1-1.47-2.03-2.17-3.03-1.17-1.68-2.37-3.37-3.68-5.01-.65-.82-1.34-1.63-2.08-2.42l-.57-.59c-.2-.19-.41-.39-.62-.58-.2-.19-.44-.38-.68-.56l-.36-.28c-.12-.09-.29-.18-.43-.27l-.45-.26c-.15-.08-.29-.12-.44-.18-.29-.11-.57-.25-.89-.32-.61-.18-1.25-.28-1.9-.31-1.3-.05-2.66.28-3.78,1-1.13.71-2,1.78-2.48,2.95-.49,1.17-.62,2.41-.51,3.57.05.42.09.82.22,1.28.05.24.13.41.2.6.07.19.14.38.22.55.3.71.64,1.33.99,1.96.69,1.23,1.42,2.38,2.16,3.5.74,1.12,1.5,2.22,2.28,3.29.39.53.79,1.09,1.2,1.6.41.52.8,1.05,1.22,1.56,4.02,5.08,8.29,9.67,12.93,14.21,1.35,1.32,2.77,2.71,4.16,4.11.7.7,1.38,1.4,2.05,2.09.15.15.29.3.43.45.05.04.07.11.1.16l.13.21c.08.15.14.31.21.46.05.16.09.32.14.48.15.8.1,1.7-.12,2.67-.22.97-.56,1.98-.91,3.05-.17.54-.35,1.09-.5,1.69-.14.58-.27,1.13-.38,1.7-.23,1.13-.41,2.26-.55,3.39-.58,4.52-.69,9.05-.43,13.59.02.43.18.9.27,1.4.39,2.06.88,4.22,1.54,6.41.33,1.1.7,2.2,1.15,3.29.43,1.1.95,2.18,1.55,3.23.58,1.05,1.29,2.06,2.09,2.99.39.47.84.9,1.28,1.32l.71.6c.26.18.51.39.79.54,1.1.65,2.35,1.02,3.65,1.03.65,0,1.31-.11,1.94-.36.64-.23,1.21-.69,1.64-1.22.44-.52.66-1.16.84-1.78l.15-.92c.02-.31.03-.61.04-.92,0-1.22-.24-2.39-.54-3.52-.62-2.26-1.55-4.34-2.38-6.41-.42-1.03-.81-2.05-1.11-3.07-.3-1.03-.53-2.11-.74-3.18-.39-2.15-.67-4.32-.71-6.46,0-.48-.02-.96,0-1.44,0-.48.04-.96.07-1.44.02-.48.11-.94.16-1.41.11-.45.16-.93.3-1.35.07-.21.11-.44.2-.64l.25-.6c.19-.34.41-.74.56-.91.18-.21.4-.39.65-.51.25-.12.54-.14.81-.07.27.07.5.24.69.45.19.22.31.42.47.78.33.79.58,1.77.79,2.75.42,1.98.71,4.05,1.07,6.12.11.65.23,1.31.38,1.98.14.66.32,1.37.51,1.99.39,1.27.73,2.57,1.19,3.81l.66,1.89c.22.63.48,1.24.72,1.86l.74,1.85.82,1.82c2.19,4.85,4.82,9.5,7.85,13.87.44.66.93,1.28,1.39,1.93.48.63.92,1.29,1.43,1.9,1,1.23,1.97,2.48,3.05,3.65,2.07,2.4,4.36,4.61,6.72,6.74,1.23,1.01,2.41,2.08,3.71,3,.64.47,1.27.96,1.92,1.42l1.99,1.32c2.67,1.73,5.47,3.23,8.31,4.61,4.52,2.18,9.18,4.01,13.88,5.66,2.35.82,4.72,1.59,7.09,2.33,1.18.37,2.38.73,3.56,1.08,1.18.35,2.39.72,3.64,1.02,1.17.28,2.42.52,3.76.6,1.34.06,2.82,0,4.33-.64.74-.32,1.47-.81,2.05-1.44.58-.63.99-1.36,1.27-2.09.15-.37.23-.73.33-1.09.06-.36.15-.72.17-1.06l.05-.52v-.53c.02-.36-.01-.71-.04-1.05-.1-.86-.29-1.71-.58-2.49-.28-.79-.62-1.52-1.01-2.22-.76-1.39-1.66-2.63-2.57-3.8-1.83-2.34-3.74-4.47-5.33-6.73-.79-1.13-1.49-2.28-2.02-3.47l-.05-.11-.03-.08-.06-.16c-.04-.1-.09-.22-.11-.3-.05-.16-.11-.32-.14-.49-.09-.33-.13-.66-.15-.98-.01-.32,0-.64.05-.95.03-.15.08-.3.18-.42.1-.13.3-.14.45-.07.31.14.56.38.79.61.23.23.44.47.63.71l.47.55.88,1c.68.77,1.37,1.54,2.06,2.32,1.38,1.55,2.78,3.1,4.25,4.63,2.92,3.06,6.11,5.98,9.59,8.54,3.44,2.53,6.97,5.11,10.9,7.23,2.94,1.6,6.29,2.78,9.69,3.19,3.4.43,6.75.17,9.84-.4.33-.06.66-.12.99-.17.32-.07.64-.14.96-.21.64-.14,1.27-.27,1.92-.41.63-.15,1.27-.3,1.92-.45.65-.15,1.32-.29,2.01-.47l2.37-.58,2.35-.67c.79-.21,1.56-.47,2.33-.73.77-.26,1.55-.49,2.31-.78,3.07-1.09,6.06-2.36,9-3.73,3.63-1.73,7.15-3.64,10.59-5.68,3.44-2.04,6.77-4.25,10.03-6.59,7.76-5.57,14.93-12.18,21.41-19.29,2.89-3.18,5.65-6.51,8.25-9.93l1.48-1.96c.5-.65,1-1.3,1.47-1.97.48-.67.95-1.33,1.43-2,.45-.68.9-1.36,1.34-2.05,2.4-3.79,4.58-7.72,6.48-11.8,1.91-4.08,3.45-8.3,4.84-12.54,2.75-8.5,4.77-17.21,6.26-26.04.72-4.52,1.26-9.09,1.56-13.69.25-4.61.26-9.24-.13-13.88Z"/>
</svg>