<?xml version="1.0" encoding="UTF-8"?>
<svg id="Layer_11" data-name="Layer 11" xmlns="http://www.w3.org/2000/svg" viewBox="0 0 314.01 288">
  <defs>
    <style>
      .cls-1 {
        fill: #1c5c7d;
      }
    </style>
  </defs>
  <path class="cls-1" d="M313.94,236.38c-.1-2.72-.32-5.43-.58-8.13-.52-5.4-1.22-10.76-1.58-16.18-.3-4.52-.79-9.03-.9-13.56-.13-5.16-.02-10.31-.77-15.41-.39-2.65-.83-5.49-.6-8.11.57-6.71,0-13.06-1.72-19.17-1.13-4-1.05-7.97-.33-12.06.26-1.46.5-2.96.56-4.46.21-5.92.35-11.85.5-17.77.03-1.07.14-2.17,0-3.19-.82-6-.68-11.95-.38-18.08.51-10.47.37-21.01.56-31.52.03-1.63.34-3.25.52-4.88.18-1.64.49-3.27.52-4.91l.14-8.42.04-4.21c0-.16,0-.4,0-.6v-.62s-.04-1.24-.04-1.24c-.06-.83-.11-1.66-.2-2.48-.73-6.61-3.09-13.06-6.87-18.43-1.46-2.1-3.07-4.08-4.91-5.77-1.83-1.69-3.88-3.09-6.09-4-3.23-1.31-6.19-2.82-9.28-4.24-3.07-1.43-6.24-2.83-9.6-3.79-2.47-.72-5.03-1.3-7.62-1.59-2.31-.29-4.62-.52-6.93-.54-5.01-.04-10.05-.21-15.07-.04-3.97.07-7.94.32-11.87.97-.44.07-.89.12-1.35.15-1.48-.01-2.99-.11-4.47-.13-7.15-.1-14.3-.33-21.45-.34-2.3,0-4.61.05-6.91.12-1.31.03-2.61.07-3.92.11-2.48.06-4.95.09-7.42.02-4.65-.14-9.26-.42-13.88-.23-2.35.03-4.71.17-7.07.48-5.32.7-10.72,1.12-16.1,1.64-.17.02-.34.02-.52.03-.23,0-.45.01-.68.03-.66.01-1.32.01-1.98.05-.15,0-.3.01-.45.02-5.45,0-10.71-1.07-16.09-1.48-4.5-.34-8.98-1.05-13.31-1.93C106.8.67,97.64-.1,88.28.24c-1.92.04-3.85.12-5.79.25-.71.05-1.42.1-2.13.13-.63,0-1.25-.02-1.86-.07-4.09-.33-8.16-.7-12.19-.5-3.03.03-6.03.31-9.02,1.13-.09.03-.2.04-.3.05-.32-.01-.63-.02-.94,0-2.16.07-4.32.08-6.48.06l-1.62-.02h-.82s-.97,0-.97,0c-.59,0-1.18.02-1.77.05h-.17c-1.29,0-2.58.09-3.87.2-5.14.5-10.24,2.01-14.69,4.61-4.64,2.71-8.85,6.02-12.51,9.87-3.66,3.85-6.77,8.27-9.05,13.15-1,2.11-1.61,4.44-2.4,6.57-.16.45-.32.9-.47,1.36-.14.46-.26.92-.38,1.39-.26.93-.41,1.88-.57,2.82-.14.95-.22,1.91-.27,2.86-.01.48-.02.95-.03,1.43v.7s.02.59.02.59c.13,3.16.5,6.27,1.05,9.26.8,4.35.72,8.39.35,12.46-.45,5-.83,9.85-.23,14.91.34,2.86.51,6.04.09,8.83-.01,1.7-.04,3.4.02,5.1.11,3.02.86,5.68,1.63,8.54.13.49.14,1.01.14,1.51.02,1.74.04,3.48.06,5.22,0,.32,0,.64.11.94.09.26.24.5.39.73,3.87,6.09,4.33,14.62,2.88,21.5-1.11,5.28-1.32,10.64-1.8,15.95-.13.64-.26,1.27-.4,1.9-.29,1.32-.56,2.64-.8,3.97-.05.58-.11,1.15-.16,1.73-1.31,13.79-2.09,27.52-1.97,41.46.09,9.74.41,19.48.48,29.23.03,3.87.13,7.74.05,11.6-.02,2.17.04,4.43.22,6.65.19,2.23.47,4.46.82,6.73.35,2.11.97,4.33,1.88,6.43.91,2.1,2.13,4.08,3.52,5.74,3.5,4.17,7.39,7.76,11.66,10.84,4.27,3.08,8.92,5.65,13.99,7.6l1.38.48.7.23.71.2,1.43.38c.48.11.96.2,1.45.3.97.21,1.95.31,2.94.44.49.06.99.08,1.48.11l.74.04.37.02h.31c.97.04,1.94.06,2.91.06,2.05.02,4.11-.02,6.18-.1.89-.03,1.77-.06,2.66-.1.36-.02.73-.03,1.09-.04.79-.02,1.58-.03,2.38-.04,1.53,0,3.07.01,4.6.05,1.96.05,3.94.12,5.9.13.47,0,.94,0,1.4,0,.02-.02.03-.04.05-.06,3.19.04,6.36-.07,9.42-.76,2.05-.46,3.94-.87,6.12-.78,4.99.2,9.99.43,14.99.45,6.19.03,12.33.2,18.52.53,7.37.39,14.85-.18,22.29-.34,3.32-.07,6.65-.24,9.97-.18.27,0,.55.02.82.04-.05.05-.1.11-.15.16,1.82.19,3.64.49,5.44.44,2.47-.07,4.94-.15,7.41-.24,2.2-.08,4.4-.16,6.6-.24,7.45-.26,14.89-.47,22.36-.28-.02-.03-.04-.05-.06-.08,2.19.04,4.38.11,6.58.22,2.05.11,4.11.2,6.17.28.03.04.05.07.08.11,4.53.16,9.06.27,13.59.3,1.1,0,2.19-.02,3.29-.07,3.03-.08,6.07-.37,9.11-.56.36,0,.71.03,1.07.05,3.17.17,6.34.4,9.51.51.38.01.75.01,1.12.01-.09-.03-.17-.05-.25-.08-.01,0-.02,0-.03-.01.2,0,.41.02.61.03,4.09.13,7.35-.39,9.93-1.37.82.02,1.62.17,2.44.23,1.36.11,2.77-.34,4.15-.42,1.59-.09,3.18-.02,4.76.2.29.04.59.09.88.05.25-.04.49-.14.73-.2,1.17-.31,2.33.16,3.49.25,1.25.1,2.54.09,3.8.09.05,0,.09,0,.14,0,.8,0,1.6-.02,2.4-.06,2.55-.04,5.13-.31,7.75-.96,1.11-.25,2.19-.62,3.31-1.01,1.08-.44,2.2-.9,3.27-1.49,2.17-1.15,4.29-2.65,6.24-4.59,2.01-1.98,3.96-4.14,5.62-6.46,1.66-2.32,3-4.81,3.8-7.29,1.02-3.12,1.74-6.25,2.33-9.38.58-3.13,1.02-6.26,1.42-9.48.13-.89.18-1.78.23-2.67.05-.98.06-1.56.06-2.27.01-1.37-.01-2.74-.07-4.1ZM198.09,75.88c.02-.24.05-.48.08-.71.04-.23.09-.47.11-.7.17-1.52.45-3.03.89-4.49.14-.42.28-.84.41-1.25.15-.41.28-.82.4-1.25.05-.14.12-.29.18-.43.17-.39.34-.79.54-1.17.19-.38.38-.77.6-1.14.11-.19.23-.37.35-.55.16-.25.34-.48.48-.73.15-.25.27-.51.4-.77.37-.82.88-1.61,1.54-2.33.27-.28.49-.63.74-.93.23-.29.48-.58.73-.85l.81-.79.73-.68c.24-.23.49-.45.75-.66,1.22-1.02,2.48-2.02,3.99-2.69.69-.28,1.32-.64,1.98-.97.52-.29,1.17-.44,1.77-.63.6-.15,1.13-.23,1.65-.24.52,0,1,.01,1.51.06.68.06.9.21,1.02.44.01.02.03.04.06.06.05,0,.09,0,.13-.01.05,0,.11,0,.16-.01.09-.14.23-.27.44-.38.2-.11.46-.2.79-.27.33-.08.73-.1,1.21-.08l.7.04c.23,0,.46.03.69.06.08.01.17.02.25.03.57.05,1.15.03,1.71.15.51.1,1.03.17,1.53.31.5.14,1.01.27,1.5.42,1.93.63,3.81,1.4,5.56,2.43.16.09.31.2.46.3.15.11.29.23.44.34.39.29.82.53,1.2.84.42.34.88.65,1.29,1.01.4.37.82.72,1.19,1.11.31.33.61.67.91,1,.29.35.58.69.87,1.04.24.27.45.58.66.88.21.3.43.59.62.9.17.27.34.48.54.72.47.53.78,1.21,1.13,1.85.22.44.42.88.64,1.32.23.43.38.88.56,1.32.18.44.3.9.42,1.36.07.32.17.63.24.95.07.32.14.64.22.96l.12.48.1.48c.07.32.15.64.23.97.13.52.16,1.11.18,1.64.01.56,0,1.13.03,1.69.02.56,0,1.13,0,1.69.01.36-.04.71-.05,1.06-.03.35-.04.71-.08,1.06l-.14,1.06-.07.53-.11.52c-.13.58-.23,1.17-.42,1.74-.17.57-.33,1.15-.56,1.7-.18.44-.31.9-.52,1.33-.2.43-.41.85-.63,1.25-.55.85-1.02,1.77-1.69,2.53-.17.2-.33.41-.48.63-.15.22-.32.43-.46.65-.29.44-.52.92-.7,1.36-.02.05-.03.12-.06.15-.35.37-.66.76-.99,1.15-.34.37-.71.73-1.11,1.05-.31.27-.68.58-.99.88-.27.25-.54.5-.83.71-.3.2-.6.4-.91.59-.49.34-1.01.62-1.52,1-.18.13-.36.27-.55.39-.2.11-.4.23-.6.34-.41.21-.83.44-1.28.57-.27.09-.54.21-.81.31l-.47.18-.48.15-.95.3c-.64.19-1.28.33-1.92.53-.62.13-1.24.25-1.87.33l-.95.08c-.32.03-.63.06-.95.07-.16,0-.33,0-.46.02-.46.08-.94.13-1.41.09-.47-.03-.95-.06-1.42-.13-.28-.05-.58-.07-.87-.09-.2-.02-.39-.04-.59-.05-.19-.03-.38-.07-.58-.1-.38-.07-.76-.15-1.13-.24-.37-.11-.73-.23-1.09-.36l-.53-.19-.51-.24c-.29-.14-.58-.27-.87-.4-.3-.13-.58-.29-.88-.43-.82-.36-1.53-.88-2.35-1.27-.13-.07-.26-.16-.4-.23l-1.03-.55c-.33-.2-.66-.41-.99-.61-.2-.12-.4-.24-.58-.38s-.36-.29-.54-.43c-.35-.3-.71-.59-1.03-.92-.31-.31-.64-.61-.96-.91l-.9-.98c-.36-.38-.65-.81-.97-1.22-.15-.21-.32-.41-.46-.63l-.42-.66c-.2-.32-.41-.65-.61-.94-.34-.5-.66-1.02-.94-1.55-.26-.55-.5-1.11-.75-1.66-.23-.63-.4-1.29-.58-1.93-.1-.44-.2-.89-.32-1.32-.06-.22-.14-.43-.2-.64-.06-.21-.14-.42-.22-.62-.25-.55-.35-1.18-.48-1.81-.28-1.61-.34-3.27-.24-4.9ZM67.42,75.65c.02-.24.06-.47.09-.71.03-.23.1-.46.13-.7.09-.76.24-1.51.38-2.26.18-.74.35-1.49.61-2.2.14-.42.27-.84.43-1.25.15-.41.27-.83.42-1.24.05-.14.12-.29.18-.43l.26-.59.29-.57c.2-.38.39-.77.62-1.13.11-.19.24-.37.36-.54.34-.49.68-.95.9-1.5.19-.4.43-.8.68-1.19.26-.39.57-.75.9-1.12.25-.29.52-.6.75-.92.11-.15.23-.29.35-.44l.39-.4c.27-.26.53-.54.82-.79.5-.44.97-.91,1.49-1.32,1.23-1.01,2.49-2,4.02-2.65.34-.16.67-.31,1-.47.33-.16.64-.34.98-.5.26-.12.56-.23.86-.34.15-.05.3-.1.46-.15.16-.04.31-.08.46-.12.59-.16,1.13-.24,1.65-.24.52,0,1,0,1.51.06.68.06.9.21,1.02.44.01.02.03.04.05.06.05,0,.09,0,.14-.01.05,0,.11,0,.16-.01.09-.14.23-.27.44-.38.4-.2,1.04-.4,2-.34.47.03.93.03,1.39.1.08.01.17.02.25.03.57.04,1.15.04,1.71.16,1.03.16,2.05.42,3.03.74,1.93.63,3.81,1.4,5.55,2.45.33.17.59.45.9.65l.6.41c.2.14.39.29.58.44l.65.5c.22.17.42.35.62.53l.61.54c.2.19.38.39.56.59.63.66,1.19,1.36,1.76,2.06.43.59.87,1.18,1.24,1.81.17.27.35.48.54.72.21.28.4.59.58.9.09.16.18.32.27.48l.23.5c.2.44.44.88.62,1.33.19.44.39.88.54,1.33.15.46.28.91.4,1.37.26,1.29.56,2.55.82,3.86.05.26.1.54.13.82.03.28.02.56.02.82,0,.28,0,.56,0,.84,0,.28,0,.56,0,.84v.84c.01.28,0,.56-.02.84-.03,1.42-.23,2.83-.5,4.22-.13.58-.29,1.16-.43,1.74l-.57,1.7c-.18.44-.36.88-.54,1.32-.18.44-.42.85-.64,1.24-.13.22-.25.44-.38.66l-.41.64c-.28.43-.54.86-.88,1.24-.35.39-.64.85-.93,1.29-.29.44-.54.9-.71,1.36-.02.05-.03.12-.06.15-.35.37-.67.76-1,1.14-.35.37-.72.72-1.12,1.04-.32.26-.69.56-1,.87-.13.13-.27.25-.41.37-.14.11-.29.22-.44.32-.3.21-.6.4-.91.6-.52.29-1.02.6-1.53.98-.36.24-.75.49-1.16.71-.41.22-.85.38-1.29.54-.26.1-.53.21-.81.3l-.95.32c-.32.1-.64.18-.96.27-.63.2-1.28.34-1.92.51-.31.09-.62.14-.93.19l-.94.14c-.63.04-1.26.1-1.9.13-.16,0-.33,0-.46.01-.46.08-.94.11-1.41.07-.24-.01-.47-.03-.71-.06l-.36-.04-.35-.06c-.28-.05-.58-.07-.87-.1-1.56-.18-3.07-.57-4.42-1.25-.58-.25-1.15-.58-1.74-.85-.41-.19-.78-.44-1.16-.65-.39-.21-.76-.45-1.16-.67-.13-.07-.27-.15-.4-.22-.35-.17-.67-.39-1.01-.58-.33-.2-.68-.39-.99-.61-.38-.26-.76-.53-1.11-.82-.34-.31-.67-.63-1.01-.94-.32-.3-.62-.63-.93-.94-.15-.16-.32-.31-.47-.47l-.43-.51c-.33-.4-.67-.79-.96-1.22l-.45-.64c-.15-.21-.3-.42-.43-.65-.2-.32-.38-.67-.6-.95-.71-.98-1.24-2.08-1.71-3.2-.13-.31-.22-.64-.32-.96-.09-.32-.19-.64-.26-.97-.1-.44-.22-.88-.33-1.32-.1-.44-.23-.86-.41-1.27-.21-.56-.35-1.19-.45-1.82-.28-1.62-.28-3.27-.17-4.91ZM159.29,94.77c-.29.72-.59,1.45-.9,2.17-.32.72-.63,1.44-.95,2.16-.4.95-.83,1.89-1.25,2.83l-.64,1.41-.66,1.4c-1.98,4.17-4.14,8.3-6.53,12.21-1.01,1.64-2.06,3.24-3.07,4.84-1.01,1.61-1.97,3.22-2.69,4.94-.58,1.39-1.03,2.82-1.31,4.31-.27,1.49-.46,2.99-.53,4.52-.02.33-.03.66-.05.97,0,.32,0,.63,0,.93,0,.61,0,1.21.04,1.85.09,2.95.19,6.07.29,9.15.09,2.05.19,4.12.35,6.16.3,4.05.59,8.06.89,12.03.4,5.53.94,11.02,1.58,16.62.25,2.23.47,4.74.62,6.96.33,4.74.74,9.52,1.03,14.3l.14,2.26.11,2.26.21,4.52.42,9.03.09,1.9.04.95v.96c.03,1.28-.05,2.57-.19,3.85-.29,2.56-1,5.1-2.21,7.41-.96,1.83-2.31,3.52-3.95,4.81-1.64,1.31-3.54,2.2-5.44,2.74-2.1.61-4.35.92-6.58.6-1.11-.16-2.2-.48-3.2-.96-1.01-.49-1.92-1.14-2.72-1.89-1.66-1.56-2.93-3.59-3.87-5.68-.94-2.09-1.58-4.23-2.06-6.17-.06-.24-.13-.46-.16-.66-.58-4.27-1.14-8.52-1.46-12.84-.13-1.75-.33-3.77-.53-5.58-.17-1.55-.33-3.08-.48-4.6-.15-1.52-.27-3.03-.58-4.5-.06-.3-.14-.59-.22-.86l-.07-.2c-.03-.06-.05-.13-.07-.16-.03-.08-.07-.15-.13-.22-.11-.13-.31-.15-.47-.11-.08.02-.16.07-.23.11-.08.06-.19.15-.27.24-.18.19-.31.41-.46.7-.15.27-.29.56-.42.84-.27.58-.51,1.18-.75,1.8-.65,1.72-1.25,3.54-2.01,5.37-.39.93-.84,1.82-1.28,2.7-.45.88-.92,1.76-1.41,2.63-.58,1.03-1.19,2.13-1.8,3.18-1.42,2.43-2.9,4.83-4.36,7.24-.73,1.2-1.45,2.4-2.15,3.61-.7,1.2-1.35,2.43-2,3.67-1.23,2.37-2.54,4.78-4.3,6.91-.87,1.07-1.89,2.03-3,2.86-.28.21-.55.42-.85.6-.3.18-.58.38-.89.54l-.92.48c-.31.15-.65.27-.98.4-.32.15-.68.22-1.03.31-.34.09-.68.18-.97.22-2.02.41-4.13.31-6.14-.11-2.02-.43-3.97-1.19-5.77-2.23-.26-.16-.53-.33-.8-.5l-.4-.25c-.13-.09-.26-.19-.39-.28l-.78-.56c-.24-.21-.49-.42-.73-.62-.34-.27-.63-.6-.93-.91-.31-.3-.57-.66-.84-1-.54-.69-.96-1.43-1.37-2.18-.76-1.53-1.29-3.19-1.47-4.88-.2-1.68-.08-3.37.2-4.99.3-1.62.77-3.19,1.33-4.69.94-2.54,2.13-5.06,3.24-7.61.76-1.74,1.48-3.46,2.1-5.25.32-.89.64-1.78.92-2.69.29-.91.59-1.82.84-2.77.18-.63.36-1.27.53-1.89.84-3.21,1.59-6.47,2.23-9.69.76-3.85,1.53-7.67,2.25-11.53.67-3.69,1.33-7.41,2-11.11.41-2.18.83-4.35,1.28-6.52l.34-1.63.17-.82c.06-.29.12-.5.15-.77.12-1.05.09-2.15,0-3.23-.06-.58-.14-1.18-.28-1.74-.07-.28-.15-.55-.26-.8-.11-.25-.24-.45-.39-.55-.07-.03-.14-.06-.21-.1-.07-.03-.17-.05-.25-.07-.16-.05-.35-.06-.52-.09-1.21-.11-2.49,0-3.75.13-1.27.13-2.54.32-3.79.54-2.51.48-5.01,1.13-7.51,1.76-2.78.7-5.61,1.28-8.48,1.52-1.95.17-3.92.16-5.85.03-1.95-.15-3.86-.57-5.62-1.28-2.41-.95-4.72-2.79-6.16-5.23-.48-.77-.83-1.61-1.13-2.47-.27-.87-.45-1.77-.52-2.68-.11-1.82.2-3.68.95-5.34.35-.84.84-1.62,1.35-2.37.55-.72,1.13-1.42,1.79-2.03,1.3-1.25,2.83-2.22,4.33-3.1.89-.52,1.79-.98,2.71-1.44.91-.45,1.82-.87,2.74-1.31,5.91-2.78,12.04-5.04,17.92-7.68,3.44-1.56,6.72-3.23,10.09-4.84.57-.27,1.2-.54,1.81-.81,3.38-1.44,6.82-2.74,10.25-4.03.87-.33,1.74-.64,2.59-.94,2.38-.85,4.66-1.75,6.89-2.82,1.7-.82,3.43-1.65,5.16-2.57.88-.44,1.74-.93,2.62-1.4.86-.51,1.76-.99,2.63-1.54.34-.21.69-.43,1.04-.65.34-.23.68-.48,1.03-.72.68-.49,1.38-.96,2.01-1.47.61-.49,1.22-.98,1.83-1.47l.46-.37.44-.39.89-.78c1.21-1.01,2.32-2.13,3.47-3.22,1.93-2,3.77-4.06,5.44-6.27l.76-.99.38-.49.35-.51c.47-.68.94-1.36,1.41-2.03.45-.69.88-1.39,1.32-2.09.22-.35.44-.69.65-1.05l.61-1.08.61-1.08c.21-.36.41-.72.59-1.09.38-.74.76-1.47,1.14-2.21.38-.74.71-1.51,1.07-2.27.18-.38.36-.76.53-1.14.16-.39.33-.78.49-1.17,1.25-2.82,2.1-5.64,2.84-8.53.14-.58.28-1.17.43-1.79.08-.3.15-.61.23-.92.07-.31.14-.61.2-.93.25-1.26.47-2.58.71-3.89.48-2.53,1.16-4.85,2.45-6.75.64-.94,1.35-1.74,2.11-2.49.76-.74,1.57-1.42,2.46-2.04,1.21-.84,2.11-1.21,2.73-1.4.32-.08.56-.13.76-.14.2,0,.34,0,.46.04.04,0,.12,0,.21,0,.2-.05.39-.09.59-.11.22-.03.44-.05.67-.07.42-.17,1.08-.33,2.03-.4.9-.05,2.06-.02,3.49.26.71.13,1.49.35,2.32.64.82.31,1.71.71,2.61,1.26.87.55,1.69,1.21,2.4,1.98.17.2.35.4.51.6l.45.63.22.32.19.33.39.67c.16.34.32.69.48,1.03.99,2.36,1.2,4.94,1.06,7.39-.14,2.24-.49,4.42-.79,6.59-.17,1.09-.32,2.19-.51,3.28-.21,1.08-.4,2.17-.62,3.25-.87,4.22-1.96,8.38-3.2,12.48-1.25,4.1-2.66,8.15-4.23,12.14ZM278.59,146.82c-.2,1.25-.6,2.46-1.16,3.6-.57,1.13-1.29,2.18-2.15,3.11-.86.93-1.85,1.75-2.94,2.43-.87.54-1.86.99-2.89,1.31-1.03.28-2.05.55-3.04.65-2.1.28-4.23.29-6.33.1-2.1-.19-4.17-.6-6.21-1.06-2.57-.59-5.09-1.3-7.63-1.89-2.53-.59-5.09-1.04-7.67-1.19-.61-.03-1.22-.05-1.82-.03-.59.02-1.21.1-1.62.28-.17.08-.36.34-.5.65-.14.31-.24.66-.32,1.02-.16.73-.24,1.49-.27,2.25-.02.38-.02.77-.02,1.15,0,.19,0,.38.02.57l.02.28s0,.06.01.09l.03.15.47,2.32c.67,3.43,1.35,6.97,1.86,10.29.58,3.69,1.25,7.44,1.82,11.14.59,3.82,1.5,7.97,2.56,11.22.06.2.15.38.18.55.82,3.63,1.89,7.18,2.91,10.79.21.73.46,1.51.71,2.3.26.78.56,1.56.83,2.3.93,2.54,1.97,4.9,2.98,7.41.82,2.04,1.63,4.08,2.3,6.37.45,1.58.78,3.28.83,5.05.04,1.77-.27,3.58-.88,5.25-.19.5-.36,1.02-.61,1.52-.24.5-.51.99-.81,1.46-1.4,2.14-3.35,3.85-5.51,5.13-2.17,1.27-4.58,2.14-7.07,2.49-2.38.33-4.89.14-7.17-.77-.56-.23-1.13-.5-1.64-.81l-.77-.47-.74-.52c-.97-.72-1.88-1.52-2.68-2.41-.39-.44-.81-.96-1.12-1.35-1.12-1.36-2.03-2.87-2.87-4.39-.84-1.53-1.61-3.08-2.46-4.58-.51-.9-1.07-1.84-1.62-2.74-2.99-4.91-5.85-9.76-8.25-14.78-1.01-2.11-2-4.32-2.93-6.56-.65-1.53-1.19-3.08-1.73-4.64-.08-.3-.39-.56-.7-.69-.15-.06-.31-.08-.48-.08-.04,0-.08,0-.12.01-.04,0-.08,0-.11.04-.06.05-.12.11-.17.18-.05.06-.1.13-.14.2-.05.08-.09.17-.13.25-.08.18-.15.36-.2.56-.11.39-.17.8-.23,1.22-.11.56-.17,1.13-.24,1.68-.34,2.86-.55,5.76-.73,8.61-.21,3.41-.49,6.79-.86,10.2-.35,3.25-.76,6.53-1.46,9.75-.44,1.91-1.11,3.78-2.11,5.48-.99,1.7-2.34,3.22-3.97,4.34-1.18.81-2.57,1.46-3.87,1.81-.27.1-.55.15-.84.21-.28.05-.56.13-.85.17-.57.05-1.15.15-1.73.13-1.16.05-2.31-.15-3.45-.38-2.25-.56-4.37-1.62-6.18-3.04-1.99-1.61-3.59-3.67-4.65-5.97-1.49-3.11-1.98-6.6-2.03-9.85-.03-2.2.04-4.55.13-6.89.22-6.03.62-12.07,1.07-18.09.07-.88.15-1.75.23-2.63.08-.87.17-1.74.24-2.61.45-5.64.91-11.29,1.42-16.9.3-3.28.58-6.47.77-9.69.03-.55.09-1.14.14-1.71.26-3.17.52-6.35.78-9.52.06-.8.14-1.61.22-2.39.21-2.19.4-4.32.5-6.47.15-3.29.39-6.68.49-10.26.01-.7,0-1.43-.02-2.16-.05-.73-.06-1.46-.15-2.16l-.1-1.01c-.03-.34-.09-.67-.13-1.01-.05-.33-.08-.67-.14-1.01l-.18-1-.09-.5-.12-.49-.23-.99c-.09-.32-.2-.64-.29-.97-.1-.32-.19-.65-.32-.95-.83-2.19-2.2-4.16-3.57-6.16-.41-.6-.83-1.21-1.23-1.82-.41-.62-.79-1.25-1.17-1.86-.38-.63-.76-1.25-1.12-1.92-.36-.66-.7-1.37-.91-2.18-.22-.8-.26-1.69-.15-2.5.05-.41.15-.8.24-1.19.11-.37.22-.75.35-1.11.13-.36.26-.72.4-1.06.14-.35.29-.69.43-1.04.29-.69.61-1.38.94-2.06,1.2-2.46,2.38-4.77,3.37-7.16.8-1.89,1.63-4.08,2.33-6.22,1.36-4.16,2.53-7.31,4.14-10.62.28-.56.52-1.01.74-1.39.23-.38.44-.67.63-.88.39-.43.69-.58.91-.61.04,0,.11-.04.19-.06.15-.1.31-.17.47-.19.17-.02.35.05.55.19.02,0,.03,0,.05.01.39.12.88.47,1.43,1.04.54.57,1.15,1.37,1.81,2.41.33.52.68,1.1,1.05,1.73.09.15.19.31.28.45.11.16.22.32.33.48.22.33.46.67.7,1.03.48.7.98,1.38,1.47,2.07.52.67,1.01,1.35,1.55,2.01.2.24.4.48.59.72l.5.6.52.58,1.05,1.16c.72.75,1.43,1.52,2.17,2.24,1.32,1.36,2.72,2.63,4.14,3.89.73.6,1.43,1.24,2.18,1.82l1.11.88,1.13.85c2.96,2.22,6.13,4.1,9.44,5.72,3.32,1.61,6.74,3,10.2,4.31,1.25.5,2.52,1,3.78,1.5,1.67.64,3.34,1.27,5.02,1.91,1.87.73,3.74,1.46,5.59,2.27,1.85.8,3.66,1.65,5.44,2.53,2.99,1.47,5.94,2.95,8.97,4.3,2.45,1.07,4.94,2.1,7.41,3.15,1.08.46,2.03.83,3.06,1.23,2.4.94,4.89,2.09,7.3,3.33,1.61.82,3.2,1.7,4.74,2.68.76.49,1.5,1.01,2.21,1.61.35.29.7.61,1.02.95.33.34.61.71.89,1.07,1.09,1.49,1.87,3.22,2.16,5.04.21,1.26.2,2.55,0,3.8Z"/>
</svg>