<?xml version="1.0" encoding="UTF-8"?>
<svg id="Layer_11" data-name="Layer 11" xmlns="http://www.w3.org/2000/svg" viewBox="0 0 252 251.74">
  <defs>
    <style>
      .cls-1 {
        fill: #1c5c7d;
      }
    </style>
  </defs>
  <path class="cls-1" d="M250.51,122.09c.5-5.5-.64-9.4.33-14.84.22-1.21.32-2.37.33-3.48.07-8.19-.27-12.21-2.45-20.3-.49-2.08-1.28-4.03-2.13-5.93-.82-1.92-1.87-3.72-2.93-5.49-1.03-1.79-2.22-3.48-3.39-5.17-.59-.84-1.14-1.7-1.74-2.53-.61-.83-1.2-1.66-1.78-2.5l-1.47-2.09-1.58-2.01c-1.03-1.35-2.06-2.69-3.09-4.04-1.18-1.52-2.24-3.14-3.5-4.59-1.26-1.45-2.51-2.9-4.01-4.12-1.58-1.25-3.21-2.6-4.38-4.16-1.54-1.96-3.15-3.78-5.08-5.19-.94-.72-1.92-1.38-2.93-1.98-1.02-.59-2.11-1.07-3.21-1.51-2.85-1.18-5.08-2.94-7.02-5.32-.71-.82-1.48-1.63-2.35-2.31-.86-.66-1.7-1.35-2.59-1.98l-2.68-1.86c-1.77-1.27-3.64-2.38-5.49-3.53-.67-.4-1.31-.93-2.05-1.15-2.15-.65-4.13-1.58-6.15-2.46-1.01-.44-2-.91-3-1.4l-1.49-.75c-.51-.23-1.01-.47-1.52-.7-6.94-3.34-14.45-5.47-21.99-7.18-1.18-.24-2.3-.73-3.45-1.1-1.16-.37-2.31-.88-3.51-1.04-5.19-.86-10.47-1.39-15.74-1.39-3.06,0-6.11.18-9.15.57-1.6.24-3.2.46-4.76.8-1.56.33-3.06.93-4.46,1.72-2.05,1.13-4.17,1.84-6.39,2.23-2.23.34-4.49.63-6.79.81-1.7.11-3.38.34-5.09.53-.85.11-1.7.21-2.54.38-.83.19-1.65.4-2.46.67-2.93.89-5.82,1.96-8.66,3.14-2.78,1.31-5.53,2.71-7.91,4.7-.71.57-1.53,1.02-2.39,1.43-.85.43-1.72.86-2.55,1.31-4.62,2.44-9.04,5.25-13.28,8.32-1.74,1.39-3.48,2.79-5.12,4.3l-2.46,2.25-1.25,1.1-1.23,1.12c-.88.77-1.75,1.53-2.63,2.29-.88.76-1.68,1.6-2.5,2.41-.81.83-1.61,1.67-2.34,2.57-.71.92-1.38,1.88-1.99,2.88-1.05,1.65-2.03,3.36-3.05,5.04-1.05,1.65-1.98,3.38-2.91,5.1-.36.67-.85,1.27-1.24,1.92-1.06,2.02-2.48,3.73-3.87,5.48l-2.09,2.62-1.04,1.33c-.33.46-.63.92-.94,1.4-.87,1.39-1.86,2.72-2.84,4.06-.94,1.35-1.94,2.68-2.97,3.97-4.74,6.22-7.87,13.64-8.94,21.63-.1.73-.21,1.47-.35,2.2-.1.74-.24,1.47-.44,2.17-.33,1.17-.67,2.35-.98,3.53-.29,1.18-.48,2.38-.65,3.58-.15,1.2-.26,2.4-.21,3.61.07,1.21.24,2.42.54,3.63.18.69-.06,1.57-.09,2.36,0,6.41-.56,12.9.75,19.26,1.44,6.6,2.39,13.23,3.72,19.87.31,1.43.83,2.84.99,4.27.32,2.38,1.02,4.69,1.89,6.88.99,2.15,2.1,4.21,3.46,6.03,1,1.32,1.78,2.66,2.44,4.03.68,1.36,1.3,2.72,1.83,4.14.63,1.76,1.4,3.42,2.25,5.04.43.81.87,1.61,1.38,2.38.53.76,1.1,1.49,1.72,2.21.73.82,1.43,1.74,2.09,2.66.68.91,1.28,1.87,1.71,2.85,1.03,2.45,2.76,4.4,4.45,6.33.86.96,1.8,1.84,2.67,2.78.89.92,1.7,1.92,2.53,2.89.15.19.66.08,1,.16,1.38.31,2.69.76,3.91,1.32,1.24.56,2.44,1.18,3.53,1.94,2.15,1.56,4.14,3.35,5.64,5.6,3.06,4.2,7.25,7.28,11.06,10.73,3.4,3.22,7.89,5.38,12.12,7.6,5.4,2.7,10.99,5.06,16.78,6.82,6.9,2.1,14,3.38,21.1,4.28l4.24.47c1.42.09,2.84.19,4.25.33l4.24.46c1.41.18,2.83.43,4.25.76,1.33.25,2.76.43,4.19.48.32.01.64.02.96.02.39,0,.79,0,1.18-.03.7-.06,1.39-.17,2.06-.32,6.7-1.34,13.16-2.14,19.94-2.54,1.21-.08,2.44-.18,3.64-.37,1.2-.21,2.39-.47,3.58-.75,2.39-.53,4.69-1.43,6.98-2.34,1.16-.45,2.3-.98,3.46-1.43,1.16-.47,2.33-.9,3.5-1.34,1.73-.72,3.49-1.41,5.18-2.21,1.66-.85,3.22-1.87,4.58-3.11,1.18-1.05,2.17-2.13,3.63-2.85.82-.43,1.66-.84,2.48-1.28l2.41-1.39,2.4-1.42c.79-.5,1.55-1.04,2.31-1.57l2.84-1.97,2.77-2.05c1.88-1.32,3.68-2.75,5.52-4.16.55-.42,1.1-.84,1.62-1.29.51-.46,1.02-.93,1.52-1.41,1-.96,1.99-1.93,2.94-2.95,1.83-2.1,3.69-4.17,5.41-6.35.78-.96,1.57-1.92,2.32-2.9.73-1,1.48-1.98,2.27-2.94,1.23-1.43,2.74-2.66,3.78-4.22,1.47-2.12,2.7-4.4,4-6.62.66-1.1,1.2-2.28,1.81-3.41.58-1.15,1.22-2.26,1.76-3.43,1.08-2.33,2.28-4.6,3.3-6.96.53-1.17,1.08-2.33,1.64-3.49.51-1.18,1.04-2.36,1.59-3.53l.84-1.8c.27-.61.5-1.22.75-1.84l1.44-3.71c3.19-8.2,4.86-18.1,4.89-26.85.01-3.88-1.84-10.96-1.49-14.82ZM232.07,157.94l-1.4,3.61c-.08.19-.15.38-.23.57-.08.19-.15.39-.23.58l-.74,1.59c-.55,1.18-1.11,2.41-1.65,3.65-.51,1.06-1.08,2.27-1.65,3.51l-.07.14-.06.14c-.46,1.06-1.03,2.24-1.64,3.48-.48.99-.98,2.01-1.48,3.1-.15.33-.41.82-.69,1.35-.25.47-.49.93-.73,1.4-.24.45-.47.91-.71,1.36-.25.48-.5.98-.65,1.22l-.04.06-.04.06c-.33.56-.66,1.13-.98,1.69-.81,1.41-1.58,2.75-2.3,3.81-.16.17-.41.43-.61.63-.62.63-1.39,1.41-2.21,2.36l-.1.12-.1.12c-1.04,1.26-1.97,2.5-2.7,3.48-.59.76-1.25,1.56-1.93,2.41l-.03.04-.08.1-.08.1c-1.17,1.49-2.53,3.04-3.97,4.67l-.75.85c-.6.64-1.33,1.35-2.14,2.13-.34.32-.66.63-.98.91-.16.13-.46.36-.71.56l-.08.06c-.47.36-.93.71-1.39,1.07-1.27.98-2.47,1.91-3.6,2.7l-.16.11-.15.11-2.57,1.9-2.65,1.84-.39.27c-.44.3-.85.59-1.18.81l-2.08,1.23-2.12,1.23c-.35.18-.7.36-1.05.54-.3.15-.6.31-.91.46-3.16,1.6-5.29,3.57-6.57,4.76-.16.14-.31.29-.47.43l-.06.06-.06.06c-.07.06-.31.26-.86.56-.82.38-1.8.78-2.83,1.21-.38.16-.76.31-1.13.47l-.51.19c-.96.36-1.96.74-3.02,1.16-.75.29-1.42.58-2.01.83-.48.2-.93.4-1.25.52l-.1.04-.1.04c-1.63.65-3.32,1.32-4.48,1.58l-.17.04-.17.04c-.82.2-1.63.37-2.43.52-.56.08-1.32.13-2.01.18-7.63.45-14.86,1.37-22.09,2.82l-.1.02h-.06c-.08.01-.17,0-.25,0-.49-.02-1.02-.08-1.55-.17-1.82-.41-3.67-.73-5.51-.96l-.13-.02h-.13s-4.24-.47-4.24-.47h-.07s-.07-.01-.07-.01c-1.61-.16-3.18-.27-4.43-.36l-3.75-.42c-7.26-.93-13.09-2.11-18.33-3.7-4.46-1.36-9.08-3.24-14.12-5.75-.43-.23-.87-.46-1.31-.68-2.79-1.45-5.68-2.95-7.06-4.26l-.14-.13-.14-.13c-1.11-1-2.18-1.93-3.22-2.82-2.31-1.98-4.31-3.71-5.52-5.3-.88-1.28-1.85-2.5-2.93-3.68,5.37-5.67,10.74-11.35,16.11-17.02.06-.2.15-.38.29-.55.12-.13.23-.27.34-.4.02-.02.02-.03.02-.03,0-.01.02-.02.04-.05.05-.07.1-.13.14-.2.21-.29.4-.58.58-.89,1.75-2.89.61-4.73.39-7.98-.17-2.66-.2-5.32-.54-7.97-.19-1.47-.29-2.96-.53-4.42-.18-1.09-.3-2.91-1.32-3.56-1.42-.91-1.98.3-2.74,1.12-1.28,1.39-2.56,2.79-3.84,4.18-2.52,2.74-5.03,5.48-7.55,8.22-5.75,6.26-11.45,12.57-17.22,18.82-.26-.27-.52-.53-.75-.77-.35-.35-.67-.68-.87-.9l-.06-.06c-.6-.68-1.4-1.6-1.69-2.03l-.04-.09c-.87-1.96-2.03-3.93-3.44-5.84-1.03-1.42-2-2.66-2.98-3.76-.17-.19-.33-.4-.5-.63-.1-.16-.26-.45-.47-.85-.6-1.16-1.03-2.1-1.33-2.95l-.04-.1-.04-.1c-.69-1.84-1.49-3.67-2.46-5.61-1.15-2.37-2.46-4.53-4.01-6.59-.46-.62-.98-1.53-1.54-2.73-.38-.99-.62-1.86-.73-2.58-.25-2.03-.72-3.74-1.03-4.88-.06-.23-.15-.54-.19-.71-.52-2.62-.99-5.26-1.48-8.04-.67-3.81-1.36-7.75-2.24-11.77-.63-3.14-.55-7.09-.47-11.26.03-1.26.05-2.56.06-3.89.15-1.34.39-4.01-.4-7.11-.02-.07-.04-.17-.06-.33,0-.13.03-.39.09-.87.08-.55.18-1.21.29-1.71.22-.83.47-1.7.73-2.63l.12-.43c.36-1.25.63-2.56.85-4,.17-.95.29-1.83.39-2.52v-.05s.01-.05.01-.05c.68-5.06,2.65-9.86,5.71-13.9,1.24-1.57,2.34-3.04,3.35-4.49l.3-.41c.93-1.27,1.98-2.72,3.01-4.35.08-.13.2-.32.31-.48l.72-.92,2.03-2.54.32-.39c1.46-1.82,3.24-4.04,4.85-6.92.36-.53.95-1.4,1.54-2.49.78-1.44,1.58-2.93,2.35-4.14l.08-.13.08-.13c.38-.63.76-1.27,1.14-1.91.61-1.02,1.18-1.98,1.73-2.84l.08-.13.08-.13c.24-.4.53-.81.87-1.26.29-.34.77-.84,1.19-1.28.15-.15.31-.31.46-.46.39-.4.84-.85,1.05-1.02l.05-.05.05-.05,2.02-1.77.6-.53.13-.11.12-.11,1.12-1.02,1.13-.99.12-.11.12-.11,2.46-2.25.03-.03.03-.03c1.16-1.07,2.52-2.17,3.93-3.3,3.7-2.66,7.42-4.99,11.07-6.92l.07-.03.06-.04c.63-.34,1.35-.7,1.98-1.02,1.36-.66,3.37-1.72,5.39-3.34l.12-.1.12-.1c.88-.74,2.47-1.55,4.1-2.33,2.46-1.01,4.69-1.81,6.82-2.46l.16-.05.16-.05c.21-.07.45-.14.74-.2.28-.05.72-.1,1.13-.15.52-.06,1.03-.11,1.54-.17,1.01-.12,1.96-.23,2.75-.28h.11s.11-.02.11-.02c2.42-.19,5.02-.5,7.92-.94l.19-.03.19-.03c4.05-.71,7.88-2.05,11.38-3.99l.05-.03.05-.03.09-.05c.78-.17,1.81-.32,2.9-.48l.57-.08c2.2-.28,4.53-.42,6.94-.42,3.96,0,8.13.36,12.74,1.11l.17.06c.46.16.93.33,1.39.48.21.07.41.14.62.22,1.01.36,2.52.9,4.35,1.29,7.9,1.79,13.59,3.63,18.43,5.95l.11.05.11.05.78.36.5.23,1.25.63.05.03.05.03c1.31.65,2.51,1.21,3.67,1.72l.77.34c1.52.67,3.33,1.47,5.38,2.2l.07.04c.34.21.69.43,1.04.64,1.29.8,2.51,1.55,3.48,2.24l.11.08.12.08,2.55,1.76c.33.24.75.57,1.19.91.2.16.4.31.6.47.04.04.1.1.18.2.51.61,1.04,1.2,1.58,1.77-1.23,1.23-2.47,2.46-3.69,3.7-14.3,14.48-28.38,29.16-42.34,43.97-5.1,5.4-9.09,9.75-14.16,15.18-.08.14-.2.27-.34.36-.28.19-.54.58-.77.82-.04.04-.08.09-.09.14-.01.06,0,.12.03.17.06.17.14.36.3.42.34.14.89.09,1.26.13.51.06,1.03.11,1.54.17,2.81.28,5.57.2,8.39.19,2.2,0,4.39.15,6.6.15,2.93,0,5.86-.1,8.79-.05.1,0,.21,0,.31-.04.08-.04.14-.1.19-.16,2.28-2.45,3.52-3.78,5.81-6.21,2.33-2.46,4.65-4.92,6.98-7.37.44-.47.88-.95,1.33-1.41,6.6-6.97,13.2-13.94,19.8-20.92,5.48-5.79,10.96-11.58,16.44-17.37,2.09,2.67,4.48,4.74,6.78,6.57.45.39,1.33,1.4,1.98,2.16.35.41.85,1.09,1.38,1.82.45.62.96,1.31,1.52,2.04l3.06,4,.06.08.06.08,1.32,1.68,1.19,1.69c.61.88,1.26,1.8,2.02,2.83.17.23.41.58.66.96.28.41.55.82.84,1.23l.32.46c.89,1.29,1.74,2.51,2.33,3.55l.08.13.08.13c.74,1.24,1.5,2.53,1.92,3.51l.06.14.06.14c.43.96.95,2.17,1.15,3.02l.06.26.07.26c1.74,6.45,1.95,9.05,1.9,15.98,0,.25-.03.5-.08.79-.86,4.81-.68,8.69-.53,11.8.08,1.72.14,3.08.02,4.39-.38,4.12.29,8.43.88,12.24.21,1.33.52,3.33.55,4.06-.03,7.12-1.45,14.98-3.81,21.04Z"/>
  <path class="cls-1" d="M212.47,91.42c-.22-.9-.54-1.77-.88-2.61-1.1-2.59-2.59-5.06-4.48-7.23-.47-.55-1-1.05-1.5-1.57-.11-.12-.28-.27-.44-.41-.16-.14-.31-.27-.46-.39-.31-.25-.61-.48-.92-.69l-.23-.16-.03-.02c-.07-.05-.18-.12-.27-.17-.19-.11-.4-.21-.63-.29-.45-.16-.97-.23-1.47-.19-1,.08-1.83.54-2.43,1.2-.6.65-.99,1.64-.93,2.65.03.5.16.96.35,1.34l.04.08h0s.02.04.02.04l.03.05.12.21.25.43,1,1.71c.55.98,1.11,1.83,1.58,2.65.24.4.45.8.62,1.15.08.15.17.4.25.6l.26.64c.4.89.62,1.84.93,2.76.19.95.46,1.89.55,2.85.17.96.18,1.92.23,2.89-.04.96-.02,1.93-.17,2.88-.07.96-.31,1.89-.5,2.83l-.41,1.37-.1.34-.13.33-.26.66c-.72,1.76-1.63,3.45-2.82,4.92-.13.16-.24.34-.38.49l-.42.46c-.28.3-.54.63-.84.91-.62.54-1.19,1.15-1.88,1.62-.33.24-.66.52-.99.74-.32.22-.66.41-.99.6-.68.36-1.38.66-2.11.89-2.91.93-6.22.58-9.53-.53-1.94-.64-3.89-1.51-5.88-2.43-2-.93-4.02-1.94-6.24-2.85-4.52-1.81-9.19-2.75-13.84-3.35-2.75-.35-5.51-.5-8.27-.57-1.17.02-2.33.05-3.5.13-2.94.2-5.86.33-8.8.37-1.38.02-2.76.07-4.14-.11-1.36-.17-2.66-.52-3.99-.79-1.02-.21-2.09-.4-3.07-.77-.46-.07-.92-.14-1.38-.22-1.97-.35-3.92-.77-5.8-1.35-.5-.15-.99-.31-1.48-.5-.49-.18-.98-.35-1.42-.56-.92-.37-1.78-.82-2.64-1.28-1.37-.75-2.68-1.62-3.84-2.68-.99-.9-1.87-1.92-2.66-3.03-.79-1.1-1.49-2.29-2.09-3.55l-.12-.23c-.02-.05-.03-.05-.07-.14l-.1-.23-.39-.92-.39-.92-.36-.98-.36-.98-.09-.25c-.03-.08-.06-.18-.1-.21l-.24-.3-.47-.6-.24-.3-.12-.14-.1-.07-.83-.58c-.14-.08-.5-.15-.68-.12-.16.04-.33.09-.49.13l-.25.07c-.08.02-.16.04-.27.1l-.6.3-.3.15c-.11.08-.22.19-.33.29l-.65.6c-.12.15-.24.3-.36.45l-.98,1.23-.99,1.19c-.17.21-.31.38-.51.6l-.27.3c-.18.21-.36.4-.54.59-.73.77-1.48,1.48-2.27,2.08-.79.6-1.6,1.1-2.44,1.47-.84.36-1.71.57-2.61.67-.9.11-1.81.03-2.74-.15-.93-.19-1.87-.52-2.7-.93-1.67-.82-2.96-2.12-3.83-3.83-.64-1.23-1.01-2.69-1.23-4.2-.21-1.52-.27-3.12-.27-4.73,0-2.55.2-5.16.4-7.84.1-1.35.2-2.71.23-4.15,0-.36.01-.72,0-1.11-.01-.4-.11-1.08-.14-1.28-.08-.57-.1-1.02-.05-1.37.06-.39.17-.6.35-.82.17-.19.39-.32.7-.4.3-.07.71-.06,1.19.05.38.09.69.26.97.5.57.49,1.04,1.48,1.29,2.67.24,1.2.32,2.55.26,3.91-.06,1.59-.3,3.25-.56,4.98-.26,1.73-.56,3.55-.62,5.54-.03.99.01,2.03.19,3.09.04.26.1.53.16.8.06.27.14.58.24.86.05.15.1.28.17.45.07.19.15.34.23.51.16.33.36.65.57.95.86,1.2,2.2,2.03,3.67,2.2.73.09,1.48.05,2.2-.12.18-.04.36-.09.54-.15.17-.05.31-.1.46-.16.29-.11.57-.23.84-.37.14-.07.39-.22.58-.34.22-.14.34-.24.49-.35.3-.23.53-.43.77-.65.47-.42.88-.83,1.29-1.25.81-.83,1.56-1.68,2.29-2.54.73-.86,1.44-1.74,2.13-2.65.69-.92,1.36-1.83,2.01-2.93.78-1.36,1.48-2.82,1.9-4.48.43-1.64.54-3.51.11-5.32-.42-1.82-1.42-3.47-2.59-4.71-1.17-1.26-2.51-2.23-3.88-3.01-3.51-1.96-7.29-2.9-11.09-3.24-1.9-.17-3.81-.16-5.73.03-1.91.19-3.82.54-5.69,1.16-1.48.49-2.94,1.13-4.32,1.98-1.38.85-2.68,1.97-3.74,3.35-.52.69-.94,1.42-1.3,2.09-.35.67-.65,1.29-.95,1.84-.6,1.1-1.21,1.95-2.03,2.61-1.02.85-2.42,1.43-3.91,1.8-1.56.36-3.39.6-5.2.96-.26.05-.53.1-.8.14-.37.07-.75.13-1.13.22-.75.16-1.51.34-2.15.64l.12.03c-.44.24-.82.49-1.13.86-.23.43-.34.88-.37,1.38-.03.78.06,1.61.22,2.44.09.42.17.83.29,1.25.07.29.16.57.24.85.34,1.12.72,2.21,1.27,3.33.57,1.15,1.39,2.31,2.41,3.2,1.01.91,2.18,1.57,3.33,2.04,2.31.94,4.53,1.31,6.64,1.74,2.1.41,4.11.82,5.92,1.48.91.32,1.76.72,2.54,1.19.4.22.76.5,1.12.76.33.29.7.56.99.89.64.62,1.16,1.34,1.63,2.12.48.79.8,1.59,1.09,2.48.54,1.8.81,3.8.92,5.84.12,2.04.11,4.13.04,6.24-.11,1.11-.2,2.24-.28,3.41-.08,1.18-.13,2.42-.22,3.6-.11,1.46-.22,2.93-.27,4.45-.03.76-.04,1.53-.02,2.33.03.77.05,1.52.11,2.28.19,3.04.66,6.09,1.34,9.07.69,2.98,1.59,5.87,2.52,8.68.93,2.81,1.86,5.55,2.67,8.31.37,1.26.72,2.52,1.03,3.78.3,1.24.57,2.49.79,3.76.44,2.53.73,5.11.89,7.7.19,3.05.31,6.08.19,9.18-.03.89-.08,1.79-.13,2.69l-.08,1.35v1.53c0,.94,0,1.78-.04,2.61-.04.82-.13,1.59-.3,2.27-.17.68-.42,1.25-.72,1.65-.31.41-.66.66-1.2.87-.27.1-.57.18-.95.25l-.64.11-.41.07-.28.06c-.06.02-.12.03-.23.07l-.08.03-.14.06c-.12.05-.14.07-.22.11-.47.27-.65.47-.84.67-.18.2-.31.38-.43.57-.23.37-.39.73-.52,1.1-.12.37-.21.74-.25,1.17-.02.21-.02.43,0,.68,0,.12.02.25.05.4.1.57.16,1.26.59,1.68.31.31.77.41,1.21.43.6.02,1.2-.03,1.8,0,1.05.04,2.1.16,3.15.16.59,0,2.01-.02,3.48-.1.45-.03.99-.06,1.47-.13.25-.03.48-.1.7-.17.23-.08.43-.22.62-.37.65-.51,1.21-1.16,1.67-1.86.38-.56.66-1.11.92-1.65.5-1.08.87-2.15,1.19-3.21.64-2.12,1.08-4.21,1.46-6.31.79-4.51,1.26-9.01,1.5-13.54.12-2.27.17-4.54.12-6.85-.02-.58-.03-1.16-.07-1.74-.02-.29-.04-.59-.06-.89l-.04-.45-.06-.48c-.14-1.06-.38-2.09-.68-3.07-.22-1.13-.58-2.24-1.16-3.31-.14-.26-.29-.5-.44-.75-.02-.05-.04-.1-.06-.14-1.25-2.55-2.71-4.88-4.07-7.18-1.36-2.29-2.64-4.55-3.59-6.83-1.01-2.4-1.72-4.82-1.95-7.25-.07-.64-.1-1.23-.08-1.72,0-.21.04-.41.13-.59.16-.37.57-.62.98-.57.2.02.38.12.52.26.07.07.13.15.19.23l.09.13.05.08.09.17c.3.55.56,1.2.82,1.94.27.75.5,1.6.98,2.62.8,1.66,1.74,3.21,2.76,4.67,2.03,2.91,4.28,5.47,6.31,8.04,1.48,1.87,2.85,3.75,3.99,5.72.28.49.55.98.8,1.48.13.25.25.5.35.73.1.24.21.46.3.72.39.98.7,2.05.95,3.15.67,2.86,1.2,5.91,1.38,8.95.13,2.21.15,4.46.15,6.62,0,2.18-.03,4.33.04,6.46.1,1.43.16,2.87.2,4.11-.12,1.19-.24,2.3-.37,3.37-.03.27-.07.53-.1.8l-.05.35c0,.07-.02.14-.03.21-.05.27-.17.52-.35.73-.12.14-.28.31-.49.43-.11.06-.23.12-.36.16-.21.06-.44.13-.66.19-.61.19-1.24.44-1.86.81-.31.19-.63.41-.93.7-.3.29-.61.66-.82,1.17-.2.54-.18,1.01-.13,1.4.03.19.07.37.12.53.02.08.05.16.08.24l.04.11c.03.08.07.2.16.34.05.07.1.15.18.23.06.06.07.06.11.09.07.05.11.08.16.11.1.06.18.1.26.14.16.07.3.12.44.16.85.24,1.65.24,2.51.07,1.84-.36,3.72-.32,5.59-.44,1.34-.09,2.88-.3,3.76-1.42.13-.16.25-.33.35-.51.11-.16.2-.32.28-.48.18-.32.32-.65.46-.98.27-.65.49-1.3.68-1.95.19-.65.37-1.29.53-1.93.16-.64.33-1.28.49-1.92.64-2.6,1.17-5.26,1.64-7.9.22-1.25.41-2.76.53-4.13.13-1.6.27-3.18.33-4.79.05-1.62.1-3.23.17-4.84.09-1.99.12-3.89.24-5.8.06-.95.14-1.89.24-2.81.05-.46.11-.92.17-1.38.04-.22.07-.46.11-.67l.13-.61c.34-1.62,1.02-2.99,2.06-4.03,1.02-1.06,2.49-1.78,4.17-2.4,6.89-2.31,14-4.55,21.06-5.33,1.14-.13,2.27-.19,3.38-.19,2.58.03,5.05.51,7.22,1.56,2.19,1.03,4.04,2.7,5.71,4.68,1.68,2,3.13,4.31,4.89,6.7l1.27,1.77c.44.58.91,1.11,1.36,1.67l2.75,3.31c1.33,1.57,2.64,3.08,3.88,4.62,1.23,1.54,2.4,3.09,3.44,4.68,1.26,1.94,2.33,3.94,3.08,6.03.76,2.09,1.2,4.26,1.29,6.46v1.7s-.12,1.71-.12,1.71c-.08.99-.36,1.43-.61,1.67-.14.12-.3.23-.6.34-.14.06-.32.1-.54.15-.22.05-.5.1-.95.22-.22.06-.5.14-.81.26l-.24.1c-.08.04-.16.08-.29.15-.23.13-.42.25-.58.38-.65.51-1.02.99-1.35,1.5-.32.51-.56,1.04-.74,1.66-.09.31-.16.64-.19,1.04-.08.91.08,1.84.73,2.52.4.42.93.69,1.47.91,2.08.81,4.46.85,6.66.73l1.05-.06,2.1-.12.52-.03c.21-.04.47-.09.69-.17.46-.14.89-.33,1.28-.61.8-.55,1.35-1.34,1.72-2.24l.25-.7.19-.72c.07-.25.1-.42.14-.63l.1-.52c.11-.58.19-1.13.27-1.65.17-1.05.34-2.14.49-3.23.6-4.36,1.03-8.77.89-13.35-.1-2.43-.35-4.94-1.18-7.57-.78-2.41-1.88-4.67-2.78-6.69-.52-1.18-1.35-2.63-1.89-3.91l-.2-.35c-.68-1.49-1.25-3.02-1.59-4.59-.24-1.1-.43-2.26-.56-3.4-.14-1.14-.21-2.26-.2-3.39,0-1.13.09-2.27.23-3.48.15-1.27.3-2.55.45-3.83.06-.56.13-1.13.2-1.71.02-.14.02-.3.02-.46v-.48c-.02-.32-.03-.65-.04-.97-.01-.33-.02-.65-.04-.98-.02-.3-.03-.61-.05-.91-.03-.56-.06-1.13-.1-1.7-.06-1.12-.11-2.24-.06-3.13l.02-.3c0-.11.03-.2.02-.16v-.05s.07-.08.07-.08c.04-.03.1-.04.15-.02l1.38.23c.59.1,1.23.2,1.94.28.71.07,1.5.11,2.28.06.77-.04,1.54-.15,2.22-.3,2.68-.54,5.28-1.56,7.61-2.99,3.72-2.29,6.72-5.58,8.78-9.22,1.21-2.12,1.99-4.38,2.72-6.59,1-3.07,1.62-6.26,1.83-9.48.21-3.22,0-6.49-.69-9.68-.21-.9-.38-1.81-.65-2.7Z"/>
  <path class="cls-1" d="M168.92,178.57c-.04-.26-.15-.55-.14-.83v-.29s-.04-.32-.04-.32l-.09-.65-.15-.76-.06-.33c-.02-.1-.03-.2-.05-.3-.04-.34-.15-.7-.28-1.03-.14-.31-.29-.61-.42-.93-.15-.38-.31-.74-.47-1.09-.16-.35-.32-.72-.49-1.06-.23-.46-.47-.91-.74-1.35-.16-.25-.46-.41-.6-.66-.39-.7-.74-1.41-1.12-2.11-.1-.2-.11-.46-.24-.63-.41-.53-.86-1.03-1.28-1.54-.18-.21-.37-.42-.53-.64-.69-.94-1.4-1.89-2.15-2.79-.67-.79-1.41-1.51-2.09-2.3-.38-.46-.81-.9-1.22-1.36-.4-.46-.83-.92-1.21-1.42-.26-.35-.62-.64-.99-.92l-.57-.41-.61-.41-.44-.33c-.14-.11-.29-.22-.48-.34-.36-.22-.71-.45-1.08-.66-.35-.17-.68-.29-.98-.43-.32-.15-.62-.34-.93-.45-.13-.04-.26-.06-.4-.08-.16-.02-.37-.05-.55-.1-1.32-.35-2.75-.65-4.02-.7-.97-.05-1.84.04-2.62.18l-2.27.49c-.2.05-.54.06-.7.15.04.35.05.68.14,1.05.23.96.52,1.94.85,2.93.07.27.19.55.29.84l.31.85c.25.57.46,1.15.76,1.73.17.34.33.67.51,1.01l.45.82c.24.42.48.83.74,1.24.31.5.64.99.97,1.47.43.62.85,1.23,1.3,1.81.57.74,1.17,1.45,1.75,2.16.46.56.91,1.13,1.38,1.67.3.35.66.65.97.98.08.09.1.23.14.35l.06-.05c1.34,1.84,2.62,3.68,3.74,5.56.01.16.05.3.1.43.05.14.14.26.19.4.45,1.38.94,2.66,1.57,3.88.14.28.28.56.42.84l.4.84c.08.16.19.32.29.48.09.16.18.32.25.49.32.81.53,1.66.7,2.51.02.12,0,.25-.02.46.01.06.06.22.08.38.07.54.06,1.09.09,1.64-.01.51-.05,1.02-.08,1.54-.05.53-.1,1.08-.18,1.56-.02.14-.07.26-.09.38-.1.55-.15,1.08-.41,1.34-.16.18-.29.26-.4.35-.09.09-.22.16-.37.28-.1.04-.18.1-.3.14-.13.03-.23.09-.38.11l-.22.04c-.07.01-.13.03-.26.04-.23.03-.55.07-.88.15-.24.06-.49.13-.72.2l-.34.12-.08.03-.04.02h-.02s-.1.05-.1.05c-.13.07-.26.14-.38.22-.1.07-.16.12-.23.18-.16.14-.23.21-.33.32-.1.11-.14.17-.21.26-.12.16-.22.31-.3.44-.16.28-.27.54-.36.8-.23.69-.15,1.4-.15,2.12,0,.27,0,.53.04.82.02.15.05.34.12.56.43,1.41,1.58,1.82,2.94,1.74,2.07-.13,4.14.05,6.2.09,1.02.02,1.72-.31,2.64-.68.74-.29,1.34-.84,1.82-1.48.24-.32.45-.67.63-1.03.09-.18.18-.37.26-.56.07-.15.12-.29.17-.44.39-1.09.56-2.11.75-3.08.03-.16.05-.31.09-.46.39-1.32.85-2.81,1.23-4.24.14-.52.28-1.05.38-1.58.12-.65.16-1.31.3-1.95.19-.87.51-1.73.61-2.63.13-1.15.04-2.32.04-3.5,0-.63-.1-1.28.21-1.92.09-.19.02-.45.03-.68l-.05-.06Z"/>
</svg>