<?xml version="1.0" encoding="UTF-8"?>
<svg id="Layer_11" data-name="Layer 11" xmlns="http://www.w3.org/2000/svg" viewBox="0 0 314.01 288">
  <defs>
    <style>
      .cls-1 {
        fill: #1c5c7d;
      }
    </style>
  </defs>
  <path class="cls-1" d="M115.89,45.95c0-.11,0-.23,0-.34,0-.01,0-.02,0-.04,0,0,0,0,0,0-.02,0-.05,0-.07,0,0,.04,0,.09.01.13,0,.08.05.16.07.23Z"/>
  <path class="cls-1" d="M313.94,236.38c-.1-2.72-.32-5.43-.58-8.13-.52-5.4-1.22-10.76-1.58-16.18-.3-4.52-.79-9.03-.9-13.56-.13-5.16-.02-10.31-.77-15.41-.39-2.65-.83-5.49-.6-8.11.57-6.71,0-13.06-1.72-19.17-1.13-4-1.05-7.97-.33-12.06.26-1.46.5-2.96.56-4.46.21-5.92.35-11.84.5-17.77.03-1.06.14-2.17,0-3.19-.82-6-.68-11.95-.38-18.08.51-10.47.37-21.01.56-31.52.03-1.63.34-3.25.52-4.88.18-1.64.49-3.27.52-4.91l.14-8.42.04-4.21c0-.16,0-.4,0-.6v-.62s-.04-1.24-.04-1.24c-.06-.83-.11-1.66-.2-2.48-.73-6.61-3.09-13.06-6.87-18.43-1.46-2.1-3.07-4.08-4.91-5.77-1.83-1.69-3.88-3.09-6.09-4-3.23-1.31-6.19-2.82-9.28-4.24-3.07-1.43-6.24-2.83-9.6-3.79-2.47-.72-5.03-1.3-7.62-1.59-2.31-.29-4.62-.52-6.93-.54-5.01-.04-10.05-.21-15.07-.04-3.97.07-7.94.32-11.87.97-.44.07-.89.12-1.35.15-1.48-.01-2.99-.11-4.47-.13-7.15-.1-14.3-.33-21.45-.34-2.3,0-4.61.05-6.91.12-1.31.03-2.61.07-3.92.11-2.48.06-4.95.09-7.42.02-4.65-.14-9.26-.42-13.88-.23-2.35.03-4.71.17-7.08.48-5.32.71-10.72,1.12-16.1,1.64-.17.02-.34.02-.52.03-.23,0-.45.01-.68.03-.66.01-1.32.01-1.98.05-.15,0-.3.01-.45.02-5.45,0-10.71-1.07-16.09-1.48-4.5-.34-8.98-1.05-13.31-1.93C106.8.67,97.64-.1,88.28.24c-1.92.04-3.85.12-5.79.25-.71.05-1.42.1-2.13.13-.63,0-1.25-.02-1.86-.07-4.09-.33-8.16-.7-12.19-.5-3.03.03-6.03.31-9.02,1.13-.09.03-.2.04-.3.05-.32-.01-.63-.02-.94,0-2.16.07-4.32.08-6.48.06l-1.62-.02h-.82s-.97,0-.97,0c-.59,0-1.18.02-1.77.05h-.17c-1.29,0-2.58.09-3.87.2-5.14.5-10.24,2.01-14.69,4.61-4.64,2.71-8.85,6.02-12.51,9.87-3.66,3.85-6.77,8.27-9.05,13.15-1,2.11-1.61,4.44-2.4,6.57-.16.45-.32.9-.47,1.36-.14.46-.26.92-.38,1.39-.26.93-.41,1.88-.57,2.82-.14.95-.22,1.91-.28,2.86-.01.48-.02.95-.03,1.43v.7s.02.59.02.59c.13,3.16.5,6.27,1.05,9.26.8,4.35.72,8.39.35,12.46-.45,5-.83,9.85-.23,14.91.34,2.86.51,6.04.09,8.83-.01,1.7-.04,3.4.02,5.1.11,3.02.86,5.68,1.63,8.54.13.49.14,1.01.14,1.51.02,1.74.04,3.48.06,5.22,0,.32,0,.64.11.94.09.26.24.5.39.73,3.87,6.09,4.33,14.62,2.88,21.5-1.11,5.28-1.32,10.64-1.8,15.95-.13.64-.26,1.27-.4,1.9-.29,1.32-.56,2.64-.8,3.97-.05.58-.11,1.15-.16,1.73-1.31,13.79-2.09,27.52-1.97,41.46.09,9.74.41,19.48.48,29.23.03,3.87.13,7.74.06,11.6-.02,2.17.04,4.43.22,6.65.19,2.23.47,4.46.82,6.73.35,2.11.97,4.33,1.88,6.43.91,2.1,2.13,4.08,3.52,5.74,3.5,4.17,7.39,7.76,11.66,10.84,4.27,3.08,8.92,5.65,13.99,7.6l1.38.48.7.23.71.2,1.43.38c.48.11.96.2,1.45.3.97.21,1.95.31,2.94.44.49.06.99.08,1.48.11l.74.04.37.02h.31c.97.04,1.94.06,2.91.06,2.05.02,4.11-.02,6.18-.1.89-.03,1.77-.06,2.66-.1.36-.02.73-.03,1.09-.04.79-.02,1.58-.03,2.38-.04,1.53,0,3.07.01,4.6.05,1.96.05,3.94.12,5.9.13.47,0,.94,0,1.4,0,.02-.02.03-.04.05-.06,3.19.04,6.36-.07,9.42-.76,2.05-.46,3.94-.87,6.12-.78,4.99.2,9.99.43,14.99.45,6.19.03,12.33.2,18.52.53,7.37.39,14.85-.18,22.29-.34,3.32-.07,6.65-.24,9.97-.18.27,0,.55.02.82.04-.05.05-.1.11-.15.16,1.82.19,3.64.49,5.44.44,2.47-.07,4.94-.15,7.41-.24,2.2-.08,4.4-.16,6.6-.24,7.45-.26,14.89-.47,22.36-.28-.02-.03-.04-.06-.06-.08,2.19.04,4.38.11,6.58.22,2.05.11,4.11.2,6.17.28.03.04.05.07.08.11,4.53.16,9.06.27,13.59.3,1.1,0,2.19-.02,3.29-.07,3.03-.08,6.07-.37,9.11-.56.36,0,.71.03,1.07.05,3.17.17,6.34.4,9.51.51.38.01.75.01,1.12.01-.09-.03-.17-.05-.25-.08-.01,0-.02,0-.03-.01.2,0,.41.02.61.03,4.09.13,7.35-.39,9.93-1.37.82.02,1.62.17,2.44.23,1.36.11,2.77-.34,4.15-.42,1.59-.09,3.18-.02,4.76.2.29.04.59.09.88.05.25-.04.49-.14.73-.2,1.17-.31,2.33.16,3.49.25,1.25.1,2.54.09,3.8.09.05,0,.1,0,.14,0,.8,0,1.6-.01,2.4-.06,2.55-.04,5.13-.31,7.75-.96,1.11-.25,2.19-.62,3.31-1.01,1.08-.44,2.2-.9,3.27-1.49,2.17-1.15,4.29-2.65,6.24-4.59,2.01-1.98,3.96-4.14,5.62-6.46,1.66-2.32,3-4.81,3.8-7.29,1.02-3.12,1.75-6.25,2.33-9.38.58-3.13,1.02-6.26,1.42-9.48.13-.89.18-1.78.23-2.67.05-.98.06-1.56.06-2.27.01-1.37-.01-2.74-.07-4.1ZM113.3,43.16l.03-.09c.08-.06.07-.13.05-.2-.02-.05.03-.1.03-.16.01-.1,0-.2.03-.3.01-.07-.04-.14-.11-.22-.1-.1-.07-.19-.04-.28.02-.05.05-.09.09-.15-.05-.13-.03-.27.04-.4.08-.14.21-.26.28-.4.07-.13.1-.27.17-.4.04-.08.11-.14.17-.21.04-.05.08-.1.11-.15.02-.08.05-.15.08-.23,0-.01,0-.03,0-.04.01-.04.03-.07.05-.11.04-.11.08-.21.12-.31.13-.27.26-.54.37-.81.17-.37.35-.74.53-1.1,0-.08,0-.17,0-.26v-.05c.11-.05.06-.18.11-.26.04-.07.08-.14.11-.21.01-.03.03-.06.03-.1,0-.08.03-.15.16-.15.05,0,.06-.04.09-.07.02,0,.04.02.06.03,0,0,0-.02.01-.03.2-.38.41-.74.68-1.08.25-.34.56-.66.89-.95.51-.44.89-.99,1.38-1.46.11-.1.23-.19.35-.29.83-.75,1.74-1.42,2.69-2.04.53-.31,1.04-.65,1.59-.92.16-.08.31-.19.37-.22.23-.08.38-.1.5-.16.44-.21.87-.45,1.32-.63l.68-.29c.23-.09.46-.17.69-.26.2-.07.38-.17.57-.28.19-.09.38-.18.58-.25.68-.25,1.39-.41,2.11-.55,1.58-.29,3.23-.16,4.72.3.15.05.32.04.47.08.15.04.29.11.43.2,1.16.16,2.28.47,3.38.8,1.08.37,2.16.78,3.16,1.3l.03-.07c.09.08.17.2.28.24.43.16.87.31,1.29.51.64.33,1.25.7,1.83,1.11.19.13.38.25.56.38l.54.41c.37.27.7.56,1.03.86.27.23.51.49.75.75.24.26.48.52.69.79l.51.64.46.67c.49.73.9,1.49,1.25,2.28.29.68.52,1.38.74,2.07.11.31.22.62.32.93.1.31.22.62.26.95.06.41,0,.85.05,1.23.08.54.17,1.08.26,1.63.06.27.06.55.09.83.02.28.05.56.04.83,0,.37-.03.74-.09,1.11l-.18,1.1c-.04.21,0,.44-.04.65-.06.26-.2.5-.3.75-.09.24-.14.49-.2.73-.18.55-.36,1.1-.56,1.65-.12.37-.21.76-.34,1.13-.12.38-.27.74-.52,1.06-.69.92-1.27,1.87-2,2.75-.31.38-.61.77-.94,1.14-.31.39-.66.75-1.02,1.1-.84.79-1.79,1.5-2.8,2.12l-.69.47c-.56.38-1.14.75-1.76,1.06-.21.1-.48.07-.7.13-.79.24-1.61.42-2.41.59-.29.07-.54.28-.84.36-.51.14-1.04.19-1.56.24-.78.07-1.57.09-2.35.07-.32,0-.65,0-.98,0-.32-.01-.64-.03-.94-.14-.34-.12-.68-.17-1.02-.22-.34-.06-.68-.1-1.01-.18-.23-.06-.49-.04-.73-.06l-.07.03c-.2-.05-.45-.04-.59-.17-.5-.43-1.12-.47-1.7-.63-1.09-.28-2.27-.56-3.31-1.06-.42-.18-.77-.46-1.13-.72-.36-.26-.69-.55-1.04-.82-.53-.38-1.07-.73-1.57-1.14-.42-.33-.75-.74-1.11-1.11-.94-1.09-1.77-2.23-2.39-3.45-.07-.13-.17-.24-.24-.37l-.7-1.17c-.2-.4-.4-.81-.58-1.22-.16-.44-.3-.88-.43-1.33l-.13-.56-.02-.03s-.02-.09-.03-.13v-.03c-.07-.05-.1-.1-.06-.19.02-.04-.07-.05-.07-.08-.02-.13-.01-.27-.03-.41,0-.07-.05-.12-.06-.18v-.03s0-.05-.02-.08c-.04-.02-.06-.05-.03-.1-.07-.2-.14-.4-.2-.61-.04-.16-.06-.33,0-.49,0-.02.02-.04.03-.07,0-.02-.01-.04-.02-.06-.04-.15-.07-.31-.1-.47-.01-.06-.01-.12-.04-.18-.04-.11-.1-.22-.12-.34-.01-.08-.07-.16.05-.25l.02-.05c-.04-.16-.08-.32-.12-.49-.01-.05-.01-.09-.04-.14-.04-.08-.1-.16-.14-.24-.02-.05-.03-.1-.04-.16-.01-.09-.02-.17-.03-.26,0-.09,0-.18,0-.26.01-.15.03-.3.04-.45,0-.07-.03-.13-.05-.2l-.02-.1-.04-.47c-.01-.14-.02-.29-.04-.43,0-.05-.03-.1-.02-.15.03-.12.05-.24.07-.36.01-.05,0-.11,0-.16ZM218.33,214.37c-.03.44-.11.87-.21,1.3-.09.37-.17.62-.26.93-.37,1.14-.81,2.12-1.27,3.08-.68,1.4-.39.73-1.14,2.03-.75,1.29-1.5,2.56-2.34,3.79-1.33,2.04-2.82,3.97-4.35,5.86-4.26,5.22-9.15,9.9-14.54,13.9-.58.42-1.15.86-1.72,1.29-3.57,2.61-7.35,4.97-11.34,6.92-2.08,1.03-4.23,1.92-6.39,2.75-2.18.8-4.37,1.53-6.6,2.16-.9.26-1.81.51-2.71.79-.91.24-1.82.5-2.74.71-.8.17-1.67.34-2.42.39-1.71.13-3.43.21-5.12.22-.14.05-.28.11-.42.15-.11.04-.23.05-.35.08-.19.03-.38.07-.57.08-.2.02-.39.04-.59.05-.34.01-.67,0-1.01.01-.15,0-.3.04-.45.06-.08,0-.16.02-.24.03-.35.02-.7.03-1.05.04h-.96c-.11.01-.22.03-.33.02l-.81-.11c-.12-.01-.24,0-.36,0-.07,0-.14,0-.2-.04-.14-.08-.29-.08-.44-.07-.12,0-.23-.04-.35-.05-.22-.02-.44-.02-.65-.05-.15-.02-.29.03-.43.11-.19.09-.38.07-.57.03-.1-.02-.2-.05-.34-.09-.26.06-.56.04-.85-.02-.19-.04-.38-.1-.57-.15-.18.03-.36.06-.56.09-.66.09-1.36.19-2,.23-.64.04-1.23.04-1.66.02-1.24-.11-2.48-.22-3.89-.41-.76.08-1.63.13-2.51.18-2.62,0-5.21-.82-7.8-1.53-.89-.25-1.81-.44-2.72-.67l-1.37-.34c-.45-.13-.91-.26-1.35-.4-2.76-.9-5.44-2.02-8.09-3.21-3.64-1.64-7.2-3.57-10.57-5.76-3.49-2.26-6.69-4.87-9.52-7.9-2.16-2.29-4.37-4.7-6.3-7.26-.43-.58-.85-1.16-1.24-1.76l-1.13-1.65c-.37-.55-.71-1.12-1.07-1.68-.73-1.11-1.35-2.29-2.02-3.43-1.25-2.34-2.44-4.71-3.46-7.16-1.09-2.61-2.08-5.26-2.91-7.97-.26-.78-.48-1.57-.59-1.89-.13-.53-.23-.95-.31-1.32-.07-.36-.14-.67-.22-.97-1.14-4.3-1.96-8.69-2.51-13.09-.1-.93-.23-1.85-.37-2.77-.12-.92-.22-1.84-.3-2.78-.23-3.18-.29-6.38-.2-9.58.27-7.13,1.88-14.16,4.66-20.54.29-.64.55-1.33.84-1.99.29-.64.57-1.27.94-1.84,2.2-4.86,4.93-9.46,8.05-13.75,1.54-2.16,3.23-4.2,4.95-6.21,1.76-1.98,3.55-3.92,5.46-5.74l-.08-.04c.43-.37.9-.74,1.28-1.11.73-.74,1.45-1.48,2.17-2.22l.55-.56.28-.28.41-.41c.6-.59,1.21-1.17,1.83-1.74.96-.88,1.96-1.79,2.9-2.39.94-.59,1.73-.79,2.42-.89.18-.02.35-.04.53-.02.09.02.18.03.3.09h.02s.02-.02.02-.02h0s0,0,0,0h.01s.04.03.04.03l.08.05c.05.03.1.07.15.1.4.3.45.56.59.83.03.07.07.14.11.23l.03.4.06.81.13,1.62.56,7.05c.04.7.16,1.44.32,2.32.08.45.15.89.22,1.45.08.71.1,1.47-.02,2.18-.14.46-.26.92-.54,1.32-.27.41-.56.78-.9,1.16-.62.71-1.21,1.3-1.81,1.89l-1.75,1.7-1.61,1.58c-.52.58-1.04,1.16-1.54,1.76-1.56,1.85-3.02,3.79-4.37,5.79-1.09,1.63-2.1,3.3-3.05,5.02-.95,1.71-1.8,3.48-2.59,5.27-1.34,3.07-2.54,6.25-3.39,9.49-.18.72-.36,1.43-.53,2.15l-.39,2.18-.1.54-.07.55-.13,1.1-.14,1.1c-.04.37-.06.74-.09,1.11-.06.94-.21,1.87-.24,2.82-.04.94-.14,1.89-.07,2.82l.09,1.93c.04.64.13,1.28.19,1.93.1,1.29.35,2.56.54,3.83.1.64.26,1.26.38,1.9.14.63.24,1.27.42,1.89.34,1.25.63,2.5,1.04,3.73,1,3.27,2.16,6.52,3.66,9.62.4.91.97,1.73,1.41,2.61.53,1.1,1.11,2.17,1.7,3.25.27.51.59.99.91,1.48l.95,1.46c.36.56.77,1.08,1.14,1.62.39.53.75,1.09,1.17,1.6.83,1.03,1.62,2.09,2.52,3.05,2.34,2.64,5.04,4.97,7.62,7.22,3.73,3.26,7.97,5.82,12.4,7.83.97.39,1.93.82,2.91,1.16l1.48.5.74.25.75.2c1.01.27,2,.56,3.03.74l1.52.32,1.59.28c4.85.83,9.68,1.36,14.42,1.13,1.12-.05,2.22-.17,3.33-.32,2.66-.36,5.26-.97,7.86-1.73.84-.25,1.74-.37,2.62-.63,1.54-.46,3.07-.98,4.6-1.57,1.53-.62,3.09-1.18,4.58-1.89,1.09-.49,2.11-1.13,3.16-1.7,1.85-.93,3.65-1.93,5.42-2.96,1.29-.81,2.61-1.59,3.83-2.48,1.27-.83,2.43-1.8,3.63-2.73.48-.4.94-.84,1.4-1.26.46-.43.95-.84,1.37-1.3.87-.9,1.78-1.75,2.59-2.61,1.99-1.91,3.49-4.22,5.04-6.47.52-.82.96-1.72,1.44-2.59l.07-.24c.4-.74.8-1.62,1.22-2.19.71-1.01,1.26-2.15,1.81-3.29.26-.58.49-1.18.73-1.77l.35-.89.18-.44.11-.28c.08-.19.11-.29.17-.45.47-1.41.13-.85.52-2.35.27-.93.37-1.65.76-2.08.4-.47.73-.66,1.07-.94.09-.06.17-.14.26-.18.1-.05.24-.12.4-.17.32-.1.71-.15,1.04-.14.34.01.49.07.7.13.2.06.4.1.65.23l.36.16c.12.06.27.17.4.25l.4.27c.07.03.14.11.2.19l.21.24.41.47c.07.08.14.15.2.24l.19.3.78,1.21c.52.81,1.04,1.62,1.55,2.45l1.16,1.89c.51.84.99,1.7,1.47,2.57.24.44.47.88.7,1.33l.35.7.17.36c.08.15.18.39.26.59.18.41.35.81.4,1.25.1.43.11.87.07,1.3ZM277.72,203.52l-.05.61c-.12.99-.47,1.97-.99,2.83-.47.79-1,1.41-1.53,1.93-1.05,1.04-2.11,1.78-3.14,2.44-.66.42-1.28.81-1.85,1.19-.59.39-1.17.79-1.74,1.2-1.14.82-2.24,1.68-3.34,2.57-1.76,1.4-3.97,2.7-6.01,4.01-3.96,2.52-7.4,3.54-11.08,4.92-.31.12-.6.22-.87.3-.28.09-.47.13-.85.28-.69.18-1.09.14-1.48.1-.34-.05-.6-.15-.82-.27-.02,0-.03,0-.05,0-.08.02-.15.08-.23.08-.05,0-.11.04-.17-.08l-.03-.03c-.11.01-.21.03-.32.04l-.09.02c-.06.03-.11.07-.17.1l-.11.02c-.06,0-.11,0-.17-.01-.06,0-.11-.02-.17-.04-.1-.03-.19-.07-.28-.1-.04-.01-.09,0-.13.02h-.07s-.3,0-.3,0c-.09,0-.19,0-.28-.01h-.1c-.07-.03-.14-.07-.21-.1h-.11s-.05-.05-.05-.05c-.02-.08-.06-.07-.11-.06l-.09-.04s-.05-.01-.07-.01c-.07,0-.14.01-.22.02-.02.02-.04.03-.06.06-.09.09-.14.06-.19.03l-.07-.08s-.01,0-.02,0c-.08.04-.15.03-.2-.01-.11-.01-.23-.02-.35-.04-1.03-.18-2.22-.77-3.34-1.72-1.12-.95-2.2-2.24-3.24-3.79-1-1.48-2.01-2.99-3.02-4.52-.19-.28-.37-.56-.57-.83-1.34-1.8-2.72-3.58-3.96-5.46-2.25-3.41-4.4-6.9-6.41-10.45-.98-1.74-1.96-3.48-2.94-5.22-.5-.85-.94-1.79-1.4-2.7-.45-.9-.93-1.84-1.36-2.71-.86-1.76-1.73-3.49-2.66-5.12-.93-1.62-1.94-3.18-3.05-4.39-.4-.46-.78-.84-1.16-1.21-.38-.33-.76-.6-1.29-.82-1.39-.57-3.18-.8-4.96-.97-2.01-.19-4.1-.22-6.21-.27l-1.62-.04-1.57-.03c-1.05-.02-2.09-.06-3.13-.11-1.75-.09-3.49-.17-5.23-.24-1.74-.06-3.49-.05-5.24-.03-2.84.03-5.68.05-8.51.08-1.24.02-2.31.19-3.47.38-2.68.48-5.66.41-8.54.44-1.93.04-3.87-.01-5.8-.01-3.82-.02-7.64-.32-11.37-1.14-2.59-.57-5.18-1.18-7.78-2.06-.65-.2-1.3-.46-1.95-.71-.67-.27-1.36-.6-2.01-.96-1.31-.74-2.52-1.68-3.59-2.74-.85-.85-1.6-1.87-2.2-2.94-.61-1.07-1.05-2.2-1.38-3.26-.7-2.27-1.22-4.52-1.64-6.78-.42-2.25-.73-4.5-.93-6.75-.24-2.83-.37-5.66-.41-8.47-.02-1.42-.03-2.77-.07-4.14-.04-1.37-.1-2.74-.17-4.12-.23-4.62-.58-9.26-.89-13.92-.25-3.7-.59-7.53-.46-11.14.16-4,.08-8.11.78-12.1.36-2.06.59-4.21.75-6.32.03-.53.06-1.06.09-1.58,0-.26.02-.52.03-.78v-.39c.01-.13.02-.28.03-.42.07-1.13.28-2.25.57-3.31.07-.26.08-.55.2-.73,1.32-1.94,2.98-3.5,4.8-4.76,1.82-1.24,3.82-2.17,5.95-2.64,1.72-.38,3.68-.84,5.54-1.06.4-.04.82-.08,1.21-.08.41,0,.81.01,1.22.03.41,0,.8.09,1.2.14l.59.09c.2.04.39.09.58.14,1.56.34,3.03.98,4.41,1.76,2.24,1.3,4.26,2.86,6.2,4.86,1.35,1.37,2.51,3.07,3.28,5.01.17.49.35.98.5,1.49.12.51.24,1.03.34,1.55.15.97.24,1.92.28,2.86.05,1.12.2,2.28.28,3.4.18,2.59.35,5.14.76,7.59.41,2.44,1.07,4.8,2.19,6.77.97,1.67,2.22,2.56,4.22,3.02.49.11,1.02.19,1.57.26.56.06,1.18.12,1.77.16,1.2.09,2.4.15,3.61.16.59,0,1.26.08,1.77.01.89-.12,1.79-.2,2.68-.26.91-.07,1.81-.1,2.72-.11,1.83-.02,3.64.05,5.52.11,1.11.04,2.28-.02,3.41-.08,3.06-.17,6.16-.13,9.23.16l1.15.13c.08,0,.23.03.35.05l.37.06c.25.03.49.1.74.17.97.26,1.9.7,2.71,1.26,1.63,1.13,2.75,2.72,3.39,4.41.27.72.46,1.47.56,2.25.1.77.09,1.55-.02,2.33-.11.78-.33,1.56-.68,2.29-.35.73-.83,1.38-1.38,1.94-.76.76-1.68,1.29-2.57,1.65-.9.36-1.8.63-2.7.81-1.8.38-3.58.56-5.41.79-.61.08-1.23.1-1.83.17-1.55.17-3.11.27-4.66.35-1.54.04-3.08.08-4.61.15-1.83.08-3.65.06-5.46,0-1.79-.06-3.58-.17-5.38-.25-.86-.04-1.72-.07-2.58-.09-.86-.01-1.71.02-2.55.06-.84.04-1.69.11-2.5.2-.78.09-1.52.24-2.19.48-.78.28-1.46.68-1.98,1.21-.52.53-.87,1.2-1.09,1.98l-.13.6c-.04.21-.04.43-.07.64l-.03.32c0,.11,0,.2,0,.31,0,.22,0,.46.02.7.05.96.15,1.97.27,2.95.09.7.16,1.48.32,1.97.16.53.45.98.81,1.27.63.49,1.44.78,2.4.89.47.07.98.08,1.49.08.54-.01,1.1-.05,1.67-.07,2.19-.1,4.48-.63,7.1-.76,2.64-.09,5.29.08,7.93.13,3.58.07,7.21.14,10.59-.62,2.31-.52,4.8-.68,7.29-.84,1.62-.09,3.24-.16,4.87-.22,1.65-.03,3.31.02,5,.17,1.69.16,3.41.41,5.17.98.44.15.89.31,1.33.51.44.19.91.44,1.3.7.4.26.82.51,1.17.81.36.29.74.57,1.05.88.38.36.76.72,1.08,1.12.33.39.66.78.95,1.18.61.79,1.13,1.61,1.7,2.4,1.82,2.54,3.38,5.18,4.84,7.85.73,1.33,1.43,2.67,2.11,4.02.67,1.33,1.34,2.67,2.01,3.99.78,1.54,1.56,3.06,2.37,4.55.84,1.45,1.8,2.82,2.84,4.16.35.45.68.99,1.01,1.5,1.85,2.8,3.8,5.65,5.47,8.68.42.76.78,1.55,1.12,2.33.94,2.17,1.97,4.19,3.37,6.02,1.07,1.39,2.07,2.84,3.06,4.32.49.74.98,1.49,1.48,2.24.21.33.42.65.63.98.13.21.26.42.39.63.22.32.64.48,1.02.39.19-.04.37-.15.52-.26.16-.11.3-.23.44-.34,1.12-.78,2.24-1.57,3.37-2.36,1.2-.83,2.44-1.67,3.75-2.5,1.15-.73,2.36-1.45,3.7-2.09.68-.31,1.4-.6,2.18-.83.79-.22,1.63-.39,2.54-.42,1.42-.06,2.96.27,4.23.89.64.3,1.22.66,1.76,1.05.54.4,1.08.86,1.56,1.38.96,1.04,1.73,2.31,2.17,3.7.23.69.38,1.41.45,2.12.04.36.06.72.06,1.08,0,.18,0,.36-.01.54Z"/>
</svg>