<?xml version="1.0" encoding="UTF-8"?>
<svg id="Layer_11" data-name="Layer 11" xmlns="http://www.w3.org/2000/svg" viewBox="0 0 261.87 153.74">
  <defs>
    <style>
      .cls-1 {
        fill: #1c5c7d;
      }
    </style>
  </defs>
  <path class="cls-1" d="M77.4,47.43c-10.22.81-18.92,10.9-19.77,20.78-1.47,17.04,19.02,29.7,33.58,20.54,18.39-11.57,5.33-42.83-13.81-41.32Z"/>
  <path class="cls-1" d="M168.85,86.75c16.29,13.84,41.82-2.78,35.05-23.38-3.39-10.32-10.79-17.06-22.18-15.26-16.53,2.61-27.11,26.54-12.88,38.64Z"/>
  <path class="cls-1" d="M198.88,8.95c-1.85.41-9.63,6.6-12.39,8.21-5.41,3.16-11.2,5.21-16.47,8.94-12.35,8.73-22.38,22.71-27.76,36.78-1.69,4.42-8.52,19.71,1.48,18.71,5.03-.51,7.34-12.06,9.22-16.25,5.89-13.14,12.32-20.02,24.06-28.12,7.43-5.12,23.33-12.29,27.87-19.51,3.16-5.03.09-10.12-6-8.75Z"/>
  <path class="cls-1" d="M33.96,7.47c.81-1.9.22-4.62-1.27-5.99-4.29-3.93-9.61,1.35-12.5,4.58C-12,42.11-6.64,126.66,43.03,145.28c7.4,2.77,23.11,7.9,27.29-1.89,4.74-11.1-10.58-14.62-17.28-17.73C21.37,110.94,9.72,75.33,15.22,42.29c2.24-13.48,10.71-24.26,18.74-34.82Z"/>
  <path class="cls-1" d="M215.08,122.66c-7.63,4.44-26.62,7.48-23.95,19.4,2.4,10.73,18.27,6.54,25.48,4.1,50.4-17.07,56.16-94.07,29.86-133.6-2.31-3.47-9.58-12.93-13.92-12.56-3.82.32-5.39,4.16-4.47,7.6.48,1.81,6.62,8.62,8.23,11,21.53,31.95,12.87,84.2-21.23,104.05Z"/>
  <path class="cls-1" d="M73.89,16.23c-4.5-2.64-9.82-8.85-15.1-7.27-1.41.42-3.09,2.94-3.23,4.38-.79,7.97,19.76,17.61,25.76,21.55,11.34,7.44,20.28,14.73,26.34,27.22,2.32,4.78,5.18,18.91,10.79,19.48,9.69,1,2.44-16.11.61-20.59-10.44-25.53-23.07-31.81-45.17-44.78Z"/>
  <path class="cls-1" d="M128.05,96.07c-3.56,3.44-9.35,15.47-10.49,20.41-3.28,14.28,4.45,24.86,11.11,36.54.99,1.18,4.09.77,4.98-.2,1.6-4.39,4.72-7.98,6.73-12.15,6.32-13.08,6.69-21.33,0-34.37-1.91-3.73-7.48-14.91-12.33-10.23Z"/>
</svg>