<?xml version="1.0" encoding="UTF-8"?>
<svg id="Layer_11" data-name="Layer 11" xmlns="http://www.w3.org/2000/svg" viewBox="0 0 264.64 226.95">
  <defs>
    <style>
      .cls-1 {
        fill: #1c5c7d;
      }
    </style>
  </defs>
  <g>
    <path class="cls-1" d="M229.65,145.28c.19-.07.37-.15.55-.23l3.42-1.51c1.21-.52,2.43-1.01,3.67-1.52.5-.2.98-.46,1.49-.67.22-.09.46-.17.68-.21.91-.17,1.84-.33,2.73-.38.35-.01.69.08.85.21.46.35,1.73-1.04,2.55-1.07.38-.01.75,0,1.19,0,.23-.07.49-.15.76-.22.81-.14,1.61.14,2.39.34.54.15,1.13.19,1.67.38.84.27,1.66.66,2.43,1.05.54.28,1.08.56,1.66,1l.23.18.26.24c.18.15.32.35.47.53.26.38.47.81.53,1.27.16.97-.41,1.88-1.09,2.54-.16.15-.37.31-.56.47-.22.1-.49.21-.58.24l-.81.3c-.83.3-1.65.71-2.48,1.06l-.56.23-4.11,1.81-2.18,1c-.21.1-.42.21-.5.25-.29.11-.46.16-.62.24-1.14.55-2.27,1.11-3.4,1.68-.47.24-.91.53-1.38.78-.8.42-1.61.84-2.42,1.25-1.78.89-3.59,1.69-5.43,2.37-.19.07-.37.17-.56.25-.18.07-.37.14-.56.19l-8.16,3.88.03.04c-.15.05-.32.09-.46.17-.53.29-1.05.59-1.58.87l-2.53,1.28-3.19,1.62-2.54,1.25-1.98.96-3.22,1.53-2.76,1.3-2.43,1.23c-.52.25-1.08.43-1.59.69-1.4.72-2.8,1.44-4.2,2.17-.94.46-1.9.89-2.85,1.33-.27.13-.53.3-.8.43-.6.3-1.21.56-1.78.74-.54.18-1.06.28-1.52.26-.44-.03-.87-.14-1.26-.47-.4-.36-.48-.71-.59-1.11-.01-.14-.02-.28-.03-.44-.03-.76.25-1.75.47-2.68.08-.3.15-.6.23-.9.07-.26.14-.51.23-.75.12-.35.23-.7.31-1.02l.05-.22.06-.28.1-.55c.13-.72.24-1.44.28-2.07.04-.5-.03-1.07-.08-1.77-.04-.69-.08-1.58.24-2.52.17-.54.47-1.04.81-1.47.34-.41.73-.78,1.11-1.05l.39-.28.42-.18.51-.22,1.01-.45c.32-.14.63-.29.94-.45.75-.37,1.5-.73,2.26-1.1.25-.12.53-.16.79-.27.92-.36,1.85-.73,2.76-1.11.33-.14.63-.37.96-.52.57-.26,1.15-.51,1.73-.75l2.6-1.08c.72-.3,1.44-.67,2.15-.88.82-.25,1.58-.63,2.37-.93.28-.11.55-.27.82-.4l.06-.05c.24-.1.5-.24.72-.28.75-.14,1.45-.51,2.15-.82,1.32-.59,2.61-1.25,3.94-1.82,1.04-.44,2.12-.78,3.17-1.19.78-.3,1.54-.66,2.32-.97.64-.26,1.28-.5,1.93-.74l5.35-2Z"/>
    <path class="cls-1" d="M197.31,138.2c.74-.21,1.41-.54,2.11-.8.25-.09.48-.24.72-.36l.05-.05c.21-.08.44-.21.63-.25.67-.11,1.29-.44,1.9-.72,1.16-.53,2.29-1.15,3.46-1.66.9-.42,1.85-.73,2.77-1.12.68-.29,1.33-.64,2-.95l.83-.37.3-.14c.12-.07.26-.08.37-.11l.5-.11c1.81-.35,3.62-.43,5.39-.3l.57.03c1.17.06,2.34.19,3.48.43,1.21.24,2.37.64,3.51,1.04.47.17.97.3,1.47.54.21.1.45.24.62.4.36.32.73.72,1.01,1.25.27.52.31,1.1.18,1.58-.1.39-.4.63-.59.68-.06.02-.12.02-.18.03-.07.15-.16.31-.27.48-.01,0-.03.01-.05.02.1.05.13.15.13.24,0,.24-.81,1.04-1.2,1.22-.29.13-.57.26-.9.41-.14.15-.29.33-.45.51-.5.46-1.18.61-1.8.88-.43.18-.82.48-1.25.68-.66.31-1.34.58-2.01.88-.92.42-1.83.83-2.73,1.27-.93.46-1.86.88-2.84,1.23-.74.27-1.46.65-2.2.99l-.5.21-3.65,1.64-1.95.89c-.19.09-.37.19-.45.22-.26.1-.41.14-.56.21-1.01.5-2.02.99-3.03,1.49-.42.21-.81.48-1.23.7-.71.37-1.43.74-2.16,1.09-1.58.79-3.24,1.44-4.82,2.03-.16.06-.32.15-.48.22-.16.07-.32.13-.49.17-2.37,1.19-4.76,2.47-7.28,3.56l.02.04c-.14.05-.3.07-.43.13-.5.23-.98.5-1.51.7-.4.17-.81.32-1.23.46-.41.15-.84.27-1.28.39-.53.17-1.11.26-1.67.39-.58.07-1.15.17-1.76.17-.96.04-1.81-.08-2.67-.16-.66-.08-1.32-.16-1.97-.26-1.06-.16-2.09-.33-3.16-.52-.91-.17-1.8-.38-2.7-.57l-1.21-.25-.64-.14c-.33-.08-.66-.17-.99-.26-.83-.24-1.55-.6-2.11-.95-1.35-.92-1.01-2.01.04-3.03.38-.37.83-.73,1.37-1.05.34-.2.73-.41,1.04-.58l.62-.34,1.24-.67c.24-.13.46-.29.7-.41.3-.15.61-.26.91-.41.28-.14.56-.29.84-.44.64-.33,1.29-.66,1.93-.98.85-.45,1.67-.99,2.55-1.34,1.26-.52,2.46-1.12,3.69-1.68l3.12-1.51c1.2-.56,2.41-1.08,3.61-1.63l.84-.4c.67-.33,1.34-.66,2.02-.98.22-.1.48-.14.71-.22.83-.31,1.65-.62,2.47-.96.3-.12.56-.33.85-.46.51-.23,1.03-.44,1.55-.65l2.32-.93c.64-.26,1.28-.58,1.92-.76Z"/>
    <path class="cls-1" d="M172.29,131.88c.12-.03.26-.04.37-.09.43-.2.86-.42,1.29-.6.69-.28,1.39-.56,2.1-.81.89-.33,1.78-.66,2.71-.94.74-.23,1.48-.4,2.31-.55.66-.09,1.24-.12,1.84-.15.96-.03,1.92-.03,2.87.01.82.03,1.63.11,2.45.18.73.07,1.47.11,2.22.25.48.09.94.27,1.43.4.35.1.65.18,1.06.36.47.21.93.48,1.29.83l.25.28c.07.1.13.21.2.32.07.11.11.23.17.34.28.54-.08,1.66-.17,2.2-.2,1.14-1.75,1.45-2.66,1.88-.21.1-.4.25-.62.34-.26.12-.54.21-.81.32-.25.11-.5.24-.75.36-.57.27-1.14.54-1.7.82-.75.38-1.46.86-2.23,1.16-1.11.44-2.15.97-3.22,1.48-.91.44-1.8.93-2.7,1.38l-3.12,1.52c-.24.12-.48.25-.72.38-.58.31-1.15.63-1.73.93-.19.1-.42.13-.62.21-.72.3-1.43.59-2.14.91-.26.12-.47.32-.73.44-.44.22-.89.42-1.34.62l-2.01.89c-.56.25-1.11.56-1.67.72-.65.19-1.23.51-1.84.76-.22.09-.42.22-.63.34l-.04.05c-.19.08-.38.2-.56.23-.6.09-1.13.4-1.67.67-1.01.5-2,1.05-3.02,1.53-.8.37-1.64.64-2.46.98-.6.25-1.18.55-1.78.82-1.57.67-2.71.82-4.42.56-.78-.12-1.55-.27-2.29-.45-.16-.04-.32-.06-.48-.09-.99-.21-1.97-.43-2.92-.69l-2.95-.85c-.4-.1-.81-.15-1.21-.23-.17-.03-.36-.09-.51-.16-.93-.44-2.31-.81-3.19-1.4-.06-.04-.12-.08-.18-.13-.53-.41-.51-1.02-.2-1.55.11-.19.23-.33.33-.41.28-.23.55-.4.87-.57.12-.16.27-.34.42-.52.48-.46,1.13-.56,1.71-.76.4-.14.78-.37,1.17-.51l.81-.27.88-.37c.8-.35,1.61-.71,2.39-1.1.81-.4,1.63-.77,2.48-1.08.65-.23,1.28-.58,1.92-.87l.44-.18,3.21-1.45,1.72-.78c.16-.08.33-.16.4-.19.23-.08.37-.12.49-.18l2.7-1.27c.37-.18.71-.41,1.08-.6.63-.32,1.26-.64,1.9-.94,1.4-.67,2.84-1.24,4.32-1.69.15-.05.29-.12.44-.17.15-.05.29-.09.45-.12,2.17-.92,4.36-1.83,6.57-2.69l-.02-.04Z"/>
    <path class="cls-1" d="M264.4,162.84c-.08.19-.2.4-.26.52-.07.13-.22.33-.33.49-.66.78-1.34,1.3-2.03,1.88-.69.55-1.39,1.08-2.1,1.6-1.41,1.03-2.85,2.03-4.29,3.01-.5.34-1.02.7-1.5,1.04-2.55,1.85-5.11,3.66-7.71,5.44-1.08.74-2.31,1.59-3.33,2.17-3.41,1.97-6.71,4.22-10.06,6.34l-2.96,1.86c-2.01,1.27-4.03,2.54-6.03,3.84-3.32,2.15-6.74,4.33-9.86,6.49-5.25,3.63-10.49,7.32-15.83,10.88-.98.65-2.01,1.39-2.82,2-1.99,1.53-4.26,2.92-6.57,4.26-3.74,2.19-7.53,4.27-11.41,6.23-1.92.99-3.92,1.94-5.99,2.72-2.07.78-4.28,1.36-6.52,1.59-3.18.35-6.58.13-9.6-.04-.44-.03-1.1.02-1.67.03-4.3.13-8.63.29-12.93.46-.82.03-1.71.08-2.42.16-3.34.36-6.98.5-10.61.63-1,.03-2.03-.02-3.03-.04-.9-.02-1.79-.07-2.67-.05-3.01.1-6.04.19-9.01.32-5.8.24-11.59.36-17.4.21-1.66-.04-3.23-.19-4.87-.23-3.84-.08-7.72-.21-11.56-.33-2.79-.11-5.55-.17-8.36-.36-2.79-.22-5.58-.53-8.35-1-4.7-.77-9.33-1.93-13.9-3.17-2.89-.8-5.76-1.56-8.62-2.44-3.45-1.06-6.9-2.26-10.32-3.27-.4-.12-.81-.25-1.22-.37-.54-.03-1.09-.09-1.66-.24-4.02-1.04-8.03-2.07-12.05-3.11-1.83-.47-4.03-.98-6.05-1.78-2.01-.8-3.85-1.89-4.91-3.54-1.18-1.85-1.7-3.73-2.38-5.76-.48-1.45-.8-3.12-.97-4.63C.06,195.03,0,193.54,0,192.1,0,189.69.17,187.45.19,185.12c.04-4.12.54-8.2.8-12.27.25-3.83.5-7.68,1.12-11.48.44-2.69,1.08-5.4,2.41-7.81.95-1.72,2.27-3.27,3.93-4.36.88-.58,1.53-.74,2.51-.96.69-.15,1.39-.41,2.14-.52,3.99-1.34,8.13-2.61,12.48-3.73,2.34-.71,4.68-1.41,7.06-2,4-.92,8.04-1.74,12.1-2.35.82-.14,1.63-.19,2.44-.3,5.05-.78,10.17-1.27,15.27-1.43,1.79-.11,3.56-.06,5.34-.11,1.78,0,3.56.09,5.35.17,1.32.14,2.66.28,3.99.42,1.33.18,2.66.43,3.99.63l3.75.77c1.24.32,2.48.62,3.71.95l3.33,1.01,3.29,1.13c3.42,1.24,6.78,2.63,10.09,4.08,3,1.32,5.97,2.69,8.95,4.01,2.31,1.02,4.62,2.04,6.95,2.97,1.05.43,2.11.85,3.18,1.24,1.06.4,2.13.8,3.21,1.15,5.99,2.03,12.15,3.63,18.29,5.39,3.34.95,6.97,1.69,10.48,2.48,3.17.69,6.36,1.44,9.53,1.98,4.01.67,8.1,1.04,12.18,1.78.27.05.54.1.81.15.32.07.72.1,1,.28.61.37.96,1.04,1.04,1.65.13.98-.09,1.74-.32,2.51-.25.76-.56,1.47-.89,2.17-.34.69-.68,1.37-1.06,2.02-.2.33-.41.66-.61.98-.24.31-.46.62-.71.92-.8.94-1.84,1.71-3,2.18-1.16.47-2.39.65-3.57.73-2.38.13-4.66-.03-7.01.06-1.29.02-2.62.08-3.97.13-1.34.01-2.7.06-4.03.05-4.49-.03-8.93-.35-13.33-.5-1.88-.06-4.14-.31-6.15-.56-3.35-.42-6.65-.85-10.04-1.22-6.81-.73-13.6-1.58-20.45-1.8l-2.56-.07c-.18,0-.35.01-.52.04-.33.05-.85.16-1.13.35-.46.32-.05.79.2,1.09,0,0,.15.18.15.18l.28.33c.4.46.84.9,1.29,1.33,1.58,1.47,3.85,1.71,5.91,2.19,2.19.51,4.39.95,6.6,1.34,2.08.38,4.28.72,6.25,1.09,5.78,1.09,11.66,1.53,17.52,2.08,3.48.33,6.94.67,10.41.94,1.28.1,2.55.22,3.83.3,5.09.3,10.16.35,15.18.2,2.27-.07,4.87-.45,7.27-.98,1.52-.37,3.07-.7,4.58-1.11,1.51-.44,3.03-.81,4.5-1.25,1.08-.32,2.09-.65,3.09-.98,1-.33,1.95-.74,2.94-1.13,5.13-2.11,10.32-4.3,15.52-6.61,2.06-.92,4.13-1.96,6.19-2.98,2.7-1.33,5.4-2.66,8.11-3.99,1.09-.53,2.19-1.06,3.27-1.6,3.64-1.81,7.31-3.59,11-5.31,3.71-1.7,7.45-3.32,11.25-4.8,1.13-.43,2.29-.87,3.52-1.17,1.23-.31,2.52-.49,3.79-.46.63.01,1.26.06,1.87.14.6.08,1.27.2,1.86.38,1.19.35,2.33.78,3.45,1.32.66.32,1.33.66,1.97,1.14.55.41,1.18,1.09,1.26,1.86.04.43-.05.85-.22,1.24Z"/>
  </g>
  <g>
    <polygon class="cls-1" points="159.84 102.6 159.83 102.61 159.83 102.61 159.84 102.6"/>
    <path class="cls-1" d="M163.52,87.99c0-.6-.02-1.21-.06-1.81h0c-.03-.5-.04-1.03-.08-1.59v-.09s-.22-1.55-.22-1.55h0c-.12-1.19-.43-2.25-.64-3.2v-.04c-.9-3.4-2.45-6.6-4.46-9.42-.33-.5-.67-.95-1.01-1.36-.35-.43-.69-.82-.99-1.19l-.03-.03c-.74-.87-1.51-1.6-2.18-2.33l-.08-.08c-.35-.33-.74-.73-1.15-1.15-.08-.07-.16-.14-.25-.19-.93-.9-1.88-1.65-2.74-2.41l-.04-.03c-.53-.43-1.05-.83-1.54-1.22h0c-.49-.39-1.01-.81-1.58-1.21h0c-1.03-.75-2.08-1.53-3.19-2.27h0s-1.6-1.09-1.6-1.09l-.03-.02-1.62-1.05h0c-2.19-1.46-4.43-2.77-6.6-4.08-2.17-1.3-4.28-2.6-6.21-4.04-.5-.41-.97-.79-1.38-1.16l-.06-.05c-.43-.35-.87-.78-1.31-1.22-.97-1.04-1.71-2.14-2.11-3.3h0c-.39-1.1-.56-2.34-.56-3.65,0-.12,0-.24,0-.36h0c.03-1.4.3-2.73.82-3.87v-.02c.48-1.08,1.29-2,2.31-2.7.89-.61,2.03-1.01,3.27-1.21.65-.11,1.32-.16,1.98-.16.62,0,1.23.05,1.83.14h.01c1.51.22,2.93.67,4.25,1.39,1.11.61,2.05,1.33,2.89,2.16,1.25,1.24,2.25,2.73,3.08,4.38.83,1.65,1.49,3.47,2.06,5.36.24.78.46,1.57.66,2.37.05.2.09.38.15.58.05.15.1.31.2.51.08.15.18.31.34.48.11.12.25.23.4.32.22.13.45.2.64.24.19.04.35.04.5.04.23,0,.43-.02.66-.04,1.9-.17,3.81-.26,5.72-.26.3,0,.6,0,.9,0,1.01.01,2.14.14,3.35.14.02,0,.04,0,.07,0h0c.25,0,.49-.02.79-.1.22-.06.47-.17.7-.36.17-.14.32-.32.42-.5.16-.27.22-.52.24-.71.03-.19.03-.34.03-.46,0-.14,0-.26,0-.35,0-.04,0-.08,0-.11h0c.07-2.06.14-4.12.21-6.17l.08-2.05h0c.1-3.09.17-6.2.3-9.18.04-.98.08-1.62.12-2.1.03-.36.05-.63.07-.88.03-.38.06-.75.08-1.29.02-.54.04-1.25.04-2.38h0c0-1.25,0-2.49.01-3.73h0s0-1.22,0-1.22v-.02s0-.02,0-.07c0-.02,0-.06,0-.12,0-.06,0-.13-.03-.25-.09-.42-.36-.78-.73-.98s-.82-.24-1.22-.09l-.14.05-.29.1-.57.21-2.26.83h0c-1.8.66-3.61,1.32-5.41,1.98h0s-1.92.69-1.92.69l-.28-.11h0c-1.36-.53-2.74-1-4.13-1.42h0c-1.84-.55-3.67-.94-5.44-1.33-1.29-.29-2.6-.56-3.93-.76h0s0,0,0,0c0,0,0,0-.01,0h0c-.24-.04-.46-.07-.68-.1-.01-.15-.03-.31-.04-.46V1.48c0-.39-.16-.77-.43-1.04-.27-.27-.65-.43-1.04-.43h-12.26c-.39,0-.77.16-1.04.43-.27.27-.43.65-.43,1.04v1.76c0,.19-.01.37-.02.56-.02.54-.05,1.08-.07,1.63h0c-.03.66-.04,1.41-.04,2.13,0,.1,0,.2,0,.3h0c.01,1.81.03,3.63.04,5.44v.66s-.36.05-.36.05h0c-.69.09-1.27.25-1.76.35h-.02s-1.67.38-1.67.38l-.1.03-1.64.49h0c-1.24.34-2.32.83-3.32,1.2l-.05.02c-4.25,1.77-8.11,4.53-11.15,8.05h0c-.07.07-.22.22-.41.47l-.02.03-.32.43h0c-.21.28-.43.57-.64.86h0c-2.09,2.87-3.58,6.13-4.48,9.51v.06c-.18.75-.43,1.58-.58,2.52v.03s-.36,2.47-.36,2.47v.05c-.1.92-.11,1.77-.16,2.55v.05c0,.27-.05.63-.05,1.09,0,.07,0,.16,0,.24h0s.04,1.22.04,1.22c0,.01,0,.02,0,.04,0,1.33.19,2.56.3,3.7v.04c.1.7.25,1.32.35,1.86v.02s.18.89.18.89l.03.12.26.88h0c.84,3.02,2.24,5.87,3.97,8.41h0c2.36,3.42,5.24,6.37,8.41,8.86h0s0,0,.01,0c0,0,0,0,0,0h0c2.01,1.61,4.1,3.02,6.17,4.39h.01c2.1,1.38,4.19,2.66,6.24,3.97h0c2.18,1.39,4.37,2.79,6.2,4.29l.02.02c.29.23.63.49.98.76.35.27.7.54,1.02.8.05.04.06.05.11.08l.14.09c.76.63,1.49,1.22,2.05,1.81l.06.06c.19.18.39.39.6.63.2.22.41.47.65.74.16.2.34.45.57.75h0s.28.36.28.36c.03.05.1.16.21.34l.03.05c.61.89,1,1.93,1.25,3.05.04.26.09.52.13.78l.02.08h0s0,.08.01.19c0,.1,0,.25.02.44.01.31.04.52.03.63,0,.02,0,.04,0,.06-.02.36-.02.64-.04.83v.02c-.09,1-.36,1.94-.78,2.68-.55.93-1.31,1.69-2.26,2.18h-.01c-1,.54-2.23.87-3.54,1.01h0c-.51.06-1.03.08-1.55.08-1.28,0-2.56-.16-3.81-.47h0s-.8-.19-.8-.19c-.18-.05-.42-.14-.73-.24h0s-.8-.27-.8-.27c-.11-.04-.32-.15-.65-.3-2.94-1.33-5.6-3.68-7.64-6.3-.68-.87-1.18-1.82-1.62-2.86-.43-1.03-.8-2.15-1.22-3.33-.02-.06-.04-.16-.07-.27-.13-.48-.35-1.33-.54-2.04-.09-.36-.18-.69-.24-.93s-.1-.39-.1-.39c-.17-.66-.79-1.12-1.47-1.1,0,0-.65.02-1.32.04-.33.01-.66.02-.92.03-.13,0-.24.01-.33.02-.05,0-.08,0-.13,0-.02,0-.04,0-.08,0l-.63.05-.9.07h0s-2.21.16-2.21.16h0s-3.76.28-3.76.28l-1.73.13-.45.03-.22.02h0s-.11,0-.11,0h-.06c-.66.05-1.21.53-1.34,1.19v.05c-.03.1-.04.2-.04.31v.89s.03,1.69.03,1.69v.02s.02.95.02.95h0c.21,7.32,1.27,14.56,2.54,21.68h0c.08.47.18.93.27,1.36h0s.14.68.14.68h0s.07.34.07.34v.03s.13.52.13.52h0c.17.74.34,1.48.51,2.22h0s.13.56.13.56l.03.14c.02.1.06.21.11.31l.03.05c.34.71,1.18,1.02,1.9.72l.07-.03.29-.12h0s1.16-.49,1.16-.49h0c1.87-.8,3.76-1.61,5.63-2.41l.76-.32.27.09h.01c.32.11.66.23,1.02.34h0s0,0,.01,0c0,0,0,0,0,0h0c1.37.43,2.74.79,4.12,1.12h0c1.21.29,2.43.53,3.62.76h0c1.26.24,2.54.49,3.85.67h.01c.38.05.77.1,1.16.14h0s0,2.68,0,2.68h0c0,1.78,0,3.55.01,5.32h0c.01,1.78.02,3.55.03,5.32,0,.39.16.76.44,1.04s.65.43,1.05.43c4.24-.03,8.47-.06,12.72-.09.81,0,1.47-.67,1.46-1.48,0-.56,0-1.13,0-1.69,0-.57,0-1.14,0-1.72h0c0-.47.01-.96.02-1.45h0c0-.98.02-1.96.02-2.94v-.02l-.02-4.61h0s0-.76,0-.76c1.6-.19,3.21-.43,4.81-.75h.01c1.77-.38,3.54-.84,5.27-1.44h0c4.06-1.39,7.98-3.5,11.26-6.48h0c2.01-1.85,3.77-4,5.12-6.41,1.74-3.07,2.86-6.47,3.34-9.92.22-1.55.35-3.12.35-4.7ZM160.98,14.99h0Z"/>
    <polygon class="cls-1" points="138.55 14.49 138.56 14.49 138.56 14.49 138.55 14.49"/>
  </g>
</svg>