<?xml version="1.0" encoding="UTF-8"?>
<svg id="Layer_11" data-name="Layer 11" xmlns="http://www.w3.org/2000/svg" viewBox="0 0 314.01 288">
  <defs>
    <style>
      .cls-1 {
        fill: #1c5c7d;
      }
    </style>
  </defs>
  <path class="cls-1" d="M313.94,236.38c-.1-2.72-.32-5.43-.58-8.13-.52-5.4-1.22-10.76-1.58-16.18-.3-4.52-.79-9.03-.9-13.56-.13-5.16-.02-10.31-.77-15.41-.39-2.65-.83-5.49-.6-8.11.57-6.71,0-13.06-1.72-19.17-1.13-4-1.05-7.97-.33-12.06.26-1.46.5-2.96.56-4.46.21-5.92.35-11.85.5-17.77.03-1.06.14-2.17,0-3.19-.82-6-.68-11.95-.38-18.08.51-10.47.38-21.01.56-31.52.03-1.63.34-3.25.52-4.88.18-1.64.49-3.27.52-4.91l.14-8.42.04-4.21c0-.16,0-.4,0-.6v-.62s-.04-1.25-.04-1.25c-.06-.83-.11-1.66-.2-2.48-.73-6.61-3.09-13.06-6.87-18.44-1.46-2.1-3.07-4.08-4.91-5.77-1.83-1.69-3.88-3.09-6.09-4-3.23-1.31-6.19-2.82-9.28-4.24-3.07-1.43-6.24-2.83-9.6-3.79-2.46-.72-5.03-1.3-7.62-1.59-2.31-.29-4.62-.52-6.93-.54-5.01-.04-10.05-.21-15.07-.04-3.97.07-7.94.32-11.87.97-.44.07-.89.12-1.35.15-1.48-.01-2.99-.11-4.47-.13-7.15-.1-14.3-.33-21.45-.34-2.3,0-4.61.05-6.91.12-1.31.03-2.61.07-3.92.11-2.48.06-4.95.09-7.42.02-4.65-.14-9.25-.42-13.88-.23-2.35.03-4.71.17-7.08.48-5.31.71-10.72,1.12-16.1,1.64-.17.02-.34.02-.52.03-.23,0-.45.01-.68.03-.66.01-1.32.01-1.98.05-.15,0-.3.01-.45.02-5.45,0-10.71-1.07-16.09-1.48-4.5-.34-8.98-1.05-13.31-1.93C106.8.67,97.64-.1,88.28.24c-1.92.04-3.85.12-5.79.25-.71.05-1.42.1-2.13.13-.63,0-1.25-.02-1.86-.07-4.09-.33-8.16-.7-12.19-.5-3.02.03-6.03.31-9.02,1.13-.09.03-.2.04-.3.05-.32-.01-.63-.02-.94,0-2.16.07-4.32.08-6.48.06l-1.62-.02h-.82s-.97,0-.97,0c-.59,0-1.18.02-1.77.05h-.17c-1.29,0-2.58.09-3.87.2-5.14.5-10.24,2.01-14.69,4.61-4.64,2.71-8.85,6.02-12.51,9.87-3.66,3.85-6.77,8.27-9.05,13.15-1,2.11-1.61,4.44-2.4,6.57-.16.45-.32.9-.47,1.36-.14.46-.26.92-.38,1.39-.26.93-.41,1.88-.57,2.82-.14.95-.22,1.91-.27,2.86-.01.48-.02.95-.03,1.43v.7l.02.59c.13,3.16.5,6.27,1.05,9.26.8,4.35.72,8.39.35,12.46-.45,5-.83,9.85-.23,14.91.34,2.86.51,6.04.09,8.83-.01,1.7-.04,3.4.02,5.1.11,3.02.86,5.68,1.63,8.54.13.49.14,1.01.14,1.51.02,1.74.04,3.48.06,5.22,0,.32,0,.64.11.94.09.26.24.5.39.73,3.87,6.09,4.33,14.62,2.88,21.5-1.11,5.28-1.32,10.64-1.8,15.95-.13.64-.26,1.27-.4,1.9-.29,1.32-.56,2.64-.8,3.97-.06.58-.11,1.15-.16,1.73-1.31,13.79-2.09,27.52-1.97,41.46.08,9.74.41,19.48.48,29.23.03,3.87.13,7.74.05,11.6-.02,2.17.04,4.43.22,6.65.19,2.23.47,4.46.82,6.73.35,2.11.97,4.33,1.88,6.43.91,2.1,2.13,4.08,3.52,5.73,3.5,4.17,7.39,7.76,11.66,10.84,4.26,3.08,8.92,5.65,13.99,7.6l1.38.48.7.23.71.2,1.43.38c.48.11.96.2,1.45.3.97.21,1.95.31,2.94.44.49.06.99.08,1.48.11l.74.04.37.02h.31c.97.04,1.94.06,2.91.06,2.05.02,4.11-.02,6.18-.1.89-.03,1.77-.06,2.66-.1.36-.02.73-.03,1.09-.04.79-.02,1.58-.03,2.38-.04,1.53,0,3.07.01,4.6.05,1.96.04,3.94.12,5.9.13.47,0,.94,0,1.4,0,.02-.02.03-.04.05-.06,3.19.04,6.36-.07,9.42-.76,2.05-.46,3.94-.87,6.12-.78,4.99.2,9.99.43,14.99.45,6.19.03,12.33.2,18.52.53,7.37.39,14.85-.18,22.29-.34,3.32-.07,6.65-.24,9.97-.18.27,0,.55.02.82.04-.05.05-.1.11-.15.16,1.82.19,3.64.49,5.44.44,2.47-.07,4.94-.15,7.41-.24,2.2-.08,4.4-.16,6.6-.24,7.45-.26,14.89-.47,22.36-.28l-.06-.08c2.19.04,4.38.11,6.58.22,2.05.11,4.11.2,6.17.28.03.04.05.07.08.11,4.53.16,9.06.27,13.59.3,1.1,0,2.19-.02,3.29-.07,3.03-.08,6.07-.37,9.11-.56.36,0,.71.03,1.07.05,3.17.17,6.34.4,9.51.51.38.01.75.01,1.12.01-.09-.03-.17-.05-.25-.08-.01,0-.02,0-.03-.01.2,0,.41.02.61.03,4.09.13,7.35-.39,9.93-1.37.82.02,1.62.17,2.44.23,1.36.11,2.77-.34,4.15-.42,1.59-.09,3.18-.02,4.76.2.29.04.59.09.88.04.25-.04.49-.14.73-.2,1.17-.31,2.33.16,3.49.25,1.25.1,2.54.09,3.8.09.05,0,.1,0,.14,0,.8,0,1.6-.02,2.4-.06,2.55-.04,5.13-.31,7.75-.96,1.11-.25,2.19-.62,3.31-1.01,1.08-.44,2.2-.9,3.27-1.49,2.17-1.15,4.29-2.65,6.24-4.59,2.01-1.98,3.96-4.14,5.62-6.46,1.66-2.32,3-4.81,3.8-7.29,1.02-3.12,1.75-6.25,2.33-9.38.58-3.13,1.02-6.26,1.42-9.48.13-.89.18-1.78.23-2.67.05-.98.06-1.56.06-2.27.01-1.37-.01-2.74-.07-4.1ZM130.72,70.56c.51-1.32,1.73-2.12,3.16-2.6.95.01,1.93-.05,2.89-.07,1.26-.03,2.52-.07,3.79-.1,2.36-.04,4.73-.02,7.08-.12,2.66-.11,5.29-.12,7.93,0,.45.02.93.03,1.36-.01,1.97-.2,3.57.15,5.09.57.75.2,1.42.36,2.37.28.4-.03.9.03,1.3.1,1.21.21,2.39.29,3.68.1.69-.1,1.49-.12,2.25-.12l11.24.02c.64,0,1.36,0,1.91-.1,1.66-.33,3.25-.19,4.87,0,.58.07,1.14.01,1.72,0,1.48-.04,2.97-.31,4.47-.04.2.03.49,0,.73-.02,2.48-.17,4.96-.21,7.45-.02.34.03.71.01,1.06,0,1.2,0,2.41-.01,3.61-.02.45,0,.9-.05,1.35-.08.74-.04,1.48-.13,2.22-.13,1.57,0,3.13.1,4.7.09,2.22-.02,4.43-.1,6.65-.15.25,0,.5-.06.74-.06,2.72.06,5.31-.24,7.95-.42,1.89-.13,3.79-.27,5.69-.29,1.49-.01,3.06.06,4.47.25,2.57.34,5.19.26,7.79.32,1.51.04,3.02.09,4.53.1,1.01,0,2.01-.08,3.02-.07l4.69.08c.27,0,.55,0,.81.03.13.01.26.02.39.03l.34.07c.24.04.42.11.62.17.21.06.37.12.54.18.5.16,1.02.55,1.4,1.1.38.54.59,1.23.58,1.88,0,.33-.06.64-.14.92-.09.28-.21.51-.35.74-.31.47-.69,1.02-1.4,1.52l-2.24,1.55-1.39.94c-1.59,1.06-3.19,2.1-4.74,3.22-1.46,1.05-2.82,2.23-4.28,3.27-1.6,1.13-3.26,2.25-4.91,3.22-1.4.82-2.72,1.69-4.03,2.64l-.19.13h0s-.06.08-.06.08c-.08.1-.17.19-.27.28-.18.17-.42.35-.56.44-.16.11-.31.21-.45.3l-.4.26c-.07.04-.05.03-.09.07l-.19.14-.76.56c-.08.06-.16.15-.24.18-2.03.99-3.53,2.6-5.3,3.88-1.42,1.03-2.76,2.16-4.31,3.02-.54.3-1.08.74-1.63,1.1-1.63,1.1-3.25,2.26-4.91,3.27-1.76,1.07-3.29,2.35-4.91,3.53-.2.15-.41.36-.59.45-2.21,1.05-4.09,2.67-6.05,4.12-1.61,1.21-3.22,2.42-4.83,3.64-.44.32-.93.59-1.39.89-1.58.99-3.06,2.11-4.56,3.21-.91.67-1.91,1.24-2.84,1.89-.98.67-1.98,1.34-2.94,1.97-1.42.92-2.78,1.93-4.21,2.84-.38.24-.85.47-1.12.74-.82.79-1.83,1.16-2.71,1.82-.24.18-.51.29-.75.32-.14.03-.46.16-.75.14-.29-.02-1.04-.26-1.16-.27-.13-.02-.19,0-.3,0-.2,0-.43-.03-.71-.08-1.31-.27-4.42-1.64-6.07-2.97-1.4-.97-2.71-1.96-3.81-3.09-.15-.16-.38-.32-.59-.46-2.34-1.55-4.63-3.21-7.03-4.63-.26-.15-.51-.33-.75-.51-1.87-1.38-3.73-2.76-5.6-4.15-.97-.7-1.95-1.4-2.93-2.11-1.4-1.04-2.83-2.03-4.16-3.16-.99-.84-2.2-1.63-3.34-2.34-2.23-1.4-4.34-2.94-6.46-4.51-1.28-.95-2.68-1.79-4.02-2.68-.25-.16-.52-.28-.77-.45-.72-.5-1.41-.97-2.07-1.59-1.16-1.1-2.53-2.06-3.91-3-.35-.51-.7-1.03-1.1-1.47-.08-.19-.16-.37-.23-.56-1.22-3.3-.42-6.9-.39-10.32.03-3.1-1.66-6.97-.52-9.91ZM199.57,224.55c-.1,1.57-.52,3.16-1.19,4.58-.67,1.43-1.57,2.68-2.56,3.79l-.76.8-.79.74c-.26.26-.54.47-.81.7l-.41.34c-.13.11-.33.24-.5.35l-.52.35-.44.27-.87.53-1.7,1.01c-4.31,2.55-8.86,4.5-13.26,6.75-.54.28-1.18.52-1.62.82-3.01,2.11-6.44,3.5-9.91,4.9-1.03.42-2.08.94-3.1,1.45-.71.34-1.39.67-2.14,1l-1.13.47c-.26.09-.56.19-.84.27l-.42.12-.37.06c-1,.17-1.96.18-2.87.11-.91-.06-1.77-.21-2.6-.4-1.66-.39-3.18-.96-4.61-1.62-1.43-.66-2.79-1.41-4.08-2.23-2.17-1.38-4.33-2.86-6.49-4.3-1.48-.99-2.88-2.07-4.27-3.15-.7-.54-1.39-1.09-2.1-1.63-.71-.54-1.43-1.07-2.19-1.57-.51-.33-.98-.74-1.47-1.08l-1.9-1.34c-.64-.44-1.27-.89-1.88-1.37-1.24-.94-2.47-1.87-3.7-2.8-1.44-1.14-2.82-2.33-4.13-3.61-1.28-1.29-2.57-2.59-3.81-3.93-1.18-1.29-2.41-2.53-3.63-3.79-1.19-1.28-2.39-2.56-3.56-3.86-1.33-1.56-2.66-3.13-3.97-4.72l-3.82-4.83c-.9-1.18-1.78-2.48-2.74-3.5-1.64-1.74-3.1-3.64-4.55-5.55-1.4-1.95-2.76-3.93-4.1-5.91-1.46-2.22-2.72-4.56-3.98-6.89-1.77-3.13-3.45-6.35-5.8-8.92-.79-.89-1.51-1.87-2.21-2.89-.69-1.02-1.36-2.08-2-3.16-.84-1.38-1.66-2.77-2.46-4.16-.78-1.41-1.55-2.83-2.31-4.26-.77-1.42-1.48-2.87-2.19-4.32-.72-1.45-1.44-2.89-2.1-4.36-.4-.86-.71-1.75-1.06-2.62-.35-.87-.66-1.75-1.02-2.61-2.47-5.51-4.83-11.1-6.8-16.78-.55-1.67-1.12-3.31-1.71-4.94-.56-1.64-1.16-3.25-1.84-4.84-.24-.54-.38-1.17-.55-1.76-.46-1.65-.96-3.28-1.38-4.93-.41-1.66-.83-3.31-1.22-4.97-.18-.85-.29-1.71-.39-2.55-.07-.59-.16-1.17-.26-1.74-.11-.57-.21-1.14-.32-1.71-.23-1.13-.53-2.24-.94-3.34-.33-.84-.57-1.71-.8-2.58-.23-.88-.44-1.78-.63-2.69-.2-.91-.28-1.85-.39-2.79-.1-.95-.18-1.91-.22-2.89,0-1.54-.24-3.18-.46-4.73-.31-3.08-.1-6.08.17-9.12.25-2.67.48-5.34,1.08-8.09.19-.83.4-1.66.66-2.52.27-.86.59-1.74,1.08-2.67.12-.23.27-.48.41-.71.16-.24.33-.49.51-.74l.32-.38.17-.19c.06-.07.08-.09.13-.13l.46-.47c.63-.66,1.22-1.16,1.83-1.73,2.42-2.15,4.9-4.07,7.59-5.82,2.45-1.58,4.58-3.36,6.73-5.22,1.71-1.47,3.91-2.82,5.95-4.15,1.99-1.29,3.88-2.19,5.79-2.91.94-.36,1.95-.7,2.83-.95.93-.29,1.9-.59,2.93-.88,1.39-.39,2.44-.45,3.17-.29.74.15,4.5-.11,4.98-.21.98-.22,2.24-.21,3.68.2,1.44.41,3.07,1.18,4.73,2.57.4.35.79.7,1.17,1.09.38.4.72.76,1.13,1.33.61.88,1.06,1.66,1.54,2.46.18.29.35.59.53.87,1.27,1.88,2.55,3.72,3.69,5.65,2.07,3.51,4.05,7.06,5.95,10.65,1.38,2.6,2.8,5.17,4.24,7.74l2.15,3.88c.35.66.71,1.31,1.06,2,.17.34.35.69.52,1.07.04.09.09.18.13.3l.15.35c.1.26.18.54.26.82l.19.92.14.87c.07.58.13,1.17.15,1.77.05,1.19-.03,2.41-.25,3.62-.31,1.7-1.14,3.28-1.99,4.73-1.12,1.92-2.52,3.59-4.07,5.02-3.47,3.17-7.39,5.43-11.2,7.25-1.6.76-3.17,1.51-4.6,2.31-.71.4-1.4.81-1.98,1.25-.15.11-.28.21-.41.32-.12.1-.27.23-.32.28-.14.13-.27.28-.37.44-.17.26-.26.58-.22.89l.02.23.05.32c.06.31.12.62.2.94.3,1.29.68,2.63,1.08,3.97.35,1.17.83,2.13,1.37,3.16,1.25,2.41,2.15,5.12,3.14,7.77.66,1.76,1.37,3.53,2.13,5.21.77,1.65,1.54,3.33,2.26,5.01.76,1.66,1.43,3.36,2.13,5.04,1.87,4.71,4.23,9.18,7.19,13.39.57.85,1.16,1.75,1.71,2.69.55.93,1.04,1.9,1.51,2.8,1.97,3.89,4.6,7.4,7.22,10.88,3.34,4.37,6.95,8.51,10.71,12.49.77.85,1.59,1.66,2.4,2.48.81.82,1.6,1.65,2.44,2.43l.8.77.33.32c.06.05.11.11.17.15l.22-.06c.3-.07.58-.17.87-.26l.49-.18c.25-.09.5-.21.75-.31,3.17-1.37,6.3-3.53,9.55-5.1,1.81-.88,3.62-1.84,5.54-2.64,1.92-.8,3.96-1.48,6.09-1.63,1.09-.1,2.21-.1,3.33-.06,1.12.08,2.24.22,3.34.48.28.05.54.15.81.22.27.08.55.13.81.24.52.19,1.07.34,1.56.57.26.1.51.2.77.3.25.11.49.23.74.34.25.11.5.22.74.32.27.16.53.32.79.48.28.17.53.23.66.4l.52.66.47.64.47.63.45.63c.61.83,1.18,1.66,1.75,2.5,1.13,1.67,2.19,3.38,3.04,5.21.69,1.49,1.68,3.08,2.62,4.49,1.61,2.42,2.85,4.92,4.09,7.5.51,1.07,1.01,2.04,1.61,3.05.59,1,1.26,1.99,2.01,3.01,1.03,1.4,2.05,2.93,2.92,4.65.87,1.71,1.6,3.63,1.91,5.71.19,1.24.38,2.6.28,3.97ZM273.26,107.74c-.02,1.94-.03,3.89-.05,5.83-.05,2.82-.05,5.62-.21,8.44-.12,2.09-.06,4.42,0,6.6.13,4.26.09,8.48.02,12.74-.04,2.58.07,5.21.12,7.81,0,.48.07.96.07,1.44,0,1.42.02,2.76-.11,4.22-.27,3.03-.19,6.27-.15,9.45,0,.48.01.97,0,1.46-.04,2.86-.08,5.71-.12,8.57,0,2.56,0,5.12,0,7.68,0,1.2-.12,2.38-.15,3.59-.02.72-.04,1.45-.06,2.18,0,.36,0,.73-.01,1.09v.55c-.02.28-.04.57-.08.85-.22,1.12-.66,1.93-1.12,2.71-.46.77-1.01,1.43-1.57,2.07-.59.62-1.18,1.22-1.86,1.75-.32.28-.69.52-1.04.78-.18.12-.37.24-.56.35-.19.12-.38.23-.58.33-.3.15-.6.31-.94.43-.17.07-.33.13-.49.19-.18.05-.36.1-.53.15l-.35.1c-.13.02-.26.04-.39.06-.25.03-.58.07-.72.07l-1.06.05c-.72.03-1.45.06-2.17.08-1.45.04-2.9.09-4.36.13-2.91.07-5.84.11-8.78.13-.32,0-.67-.01-.96.01-3.14.28-6.39.28-9.69.22-1.06-.02-2.01-.06-3.03-.18-1.12-.14-2.52-.14-3.81-.18-.95-.03-1.94,0-2.85-.05-4.14-.25-8.32-.19-12.48-.17-2.51,0-4.99.07-7.52-.02-.54-.17-1.06-.37-1.57-.61-3.57-2.3-5.29-6.64-6.9-11.04-1.09-2.97-2.79-5.58-4.8-8.01-1.13-1.36-2.28-2.83-3.5-4.23-1.11-1.46-2.34-2.83-3.73-4.01-4.82-4.05-11.91-5.54-17.86-3.3-3.62,1.36-7.28,2.64-10.9,4.01-1.63.62-3.25,1.28-4.87,1.93-1.08.44-3.25,2.1-4.69,2.18-3.27-1.61-5.81-5.82-8.03-8.54-3.17-3.86-6.31-7.85-9.05-12.06-.03-.2-.1-.4-.22-.61-1.77-2.93-3.07-6.13-4.91-9.01-1.98-3.1-4.3-5.94-6-9.22-1.45-2.81-2.24-5.91-3.56-8.78-1.04-2.27-2.29-4.38-3.47-6.54-.65-1.66-1.23-3.32-1.69-5.07-.59-2.23-1.31-4.47-1.23-6.78.57-1.55,1.65-2.79,2.97-3.94.45-.32.91-.62,1.39-.9,2-1.18,3.97-2.79,6.23-3.45,1.49-.43,2.94-.27,4.35.23,1.82,1.25,3.65,2.49,5.49,3.69l.92.59.23.15.1.06h.04s.02.03.09.07l.31.16c.2.1.43.23.59.32l.48.28.96.56c1.26.75,2.51,1.51,3.73,2.3,2.66,1.74,5.33,3.56,7.82,5.41,2.1,1.56,4.21,3.02,6.4,4.46l5.11,3.37c.14.09.31.17.41.26,2.76,2.32,5.9,3.91,8.85,5.81,2.38,1.55,4.81,2.97,7.09,4.71.8.61,1.75,1.19,2.63,1.79,2.63,1.79,5.33,3.56,7.86,5.4.69.49,1.33.96,1.93,1.28.6.33,1.15.49,1.61.49.46,0,.97-.17,1.55-.47.57-.3,1.18-.74,1.87-1.2.33-.23.69-.53.98-.69,3.48-1.82,6.66-4.23,9.92-6.47,2.68-1.86,5.34-3.72,8.02-5.58.72-.5,1.51-.95,2.26-1.42,2.54-1.6,5-3.34,7.47-5.06,1.5-1.04,3.09-1.99,4.63-3.01,1.6-1.06,3.23-2.13,4.8-3.13,2.31-1.48,4.57-3.04,6.88-4.49.62-.39,1.36-.78,1.84-1.17,1.43-1.15,2.98-1.84,4.5-2.84.21-.14.41-.25.64-.35.25-.11.48-.19.68-.23.05-.01.1-.03.14-.03,0,0,.15.04.19.05.08.04.11-.13,1.25-1.41,1.36-1.54,5.51-5.06,8.44-6.82,2.3-1.52,4.55-2.94,6.8-4.07.32-.16.7-.4,1.03-.63,1.99-1.34,3.99-2.68,5.98-4.02.88-.57,1.88-.83,2.88-.76.99.06,1.95.45,2.71,1.09.75.65,1.33,1.52,1.55,2.52.03.12.06.25.08.37l.03.39c.03.26.03.53.04.8l.02.55.02.42c.02.48.02.98.01,1.47-.07,3.75-.13,7.5-.2,11.26Z"/>
</svg>