<?xml version="1.0" encoding="UTF-8"?>
<svg id="Layer_11" data-name="Layer 11" xmlns="http://www.w3.org/2000/svg" viewBox="0 0 255.68 252">
  <defs>
    <style>
      .cls-1 {
        fill: #bf204e;
      }
    </style>
  </defs>
  <path class="cls-1" d="M151.49,55.23c.34-.22.68-.43,1.03-.64.62-.37,1.26-.73,1.75-1.27,1.73-1.9,1.37-5.74,1.37-8.12,0-1.06-.06-2.2-.16-3.37-.08-1.05-.21-2.14-.37-3.36-.39-2.93-1.05-5.65-1.95-8.07-.96-2.59-2.24-5.02-3.8-7.23-1.26-1.74-2.5-3.33-3.91-4.98-1.84-2.12-4.13-4.19-6.83-6.16-1.92-1.42-4.13-2.71-6.08-3.84l-.12-.07c-3.93-2.34-8.44-4.23-13.79-5.79-1.19-.35-2.42-.71-3.67-1-3.21-.79-6.62-1.24-10.19-1.32h-.07c-2.96-.07-5.8.4-8.43,1.41-1.44.56-2.72,1.25-3.81,2.07-1.19.88-2.2,1.98-2.94,3.19-.52.85-.92,1.83-1.14,2.84-.06.27-.11.55-.15.8-.04.27-.07.53-.1.78l-.17,1.59c-.08.69-.16,1.41-.32,2.08-.09.4-.19.71-.31.99-.03.09-.07.17-.13.28-.04.08-.08.17-.13.24l-.26.42c-.81,1.31-1.73,2.4-2.73,3.22-1.01.84-2.14,1.59-3.36,2.21-1.07.55-2.29,1.01-3.72,1.41-1.21.34-2.49.58-3.89.73-.52.07-1.03.09-1.52.12l-.5.03h-.49c-.45.01-.9.02-1.36,0h-.13c-1.58-.04-3.24-.16-5.05-.36-.8-.08-1.76-.17-2.7-.2-.83-.02-1.59.01-2.3.1-.2.03-.4.06-.58.1l-.67.16c-.33.07-.66.17-1.02.28l-.16.05c-.7.22-1.43.53-2.28.95-1.43.75-2.75,1.76-3.93,3-1.07,1.13-2.04,2.46-2.88,3.97-.77,1.38-1.42,2.89-1.96,4.51-.63,1.89-1.07,4.07-1.18,5.83-.15,2.21-.15,4.4,0,6.49.14,1.99.47,4.1,1,6.43.53,2.27,1.34,4.76,2.4,7.4.82,2.07,1.87,4.1,3.12,6.07.19.31.4.62.61.92.11.16.22.32.31.46.11.16.22.32.33.48.2.3.41.6.63.9l.33.45c.55.75,1.12,1.52,1.73,2.25,1.46,1.83,3.11,3.7,4.7,5.51l1.07,1.21c.29.32.62.66.97,1.02l.27.27c.3.3.61.61.94.91,2.9,2.78,6.05,5.32,9.37,7.55,2.7,1.81,5.49,3.42,8.3,4.78,1.98.96,4.05,1.87,6.05,2.74,1.24.54,2.46,1.08,3.65,1.62,1.39.63,2.84,1.26,4.31,1.86.42.17.84.34,1.26.51.35.14.74.36,1.12.37.21,0,.35-.18.22-.38-.03-.05-.08-.08-.13-.11,0-.08-.71-.43-.82-.5-.29-.19-.58-.37-.87-.56-.57-.38-1.13-.76-1.68-1.17-1.07-.78-2.11-1.6-3.11-2.47-.27-.24-.54-.48-.8-.72-1.69-1.55-3.24-3.22-4.63-4.96-4.18-5.22-7.64-12.11-9.75-19.41-.01-.05-.04-.1-.06-.16-.13-.33-.52-1.34.31-2.03.29-.24.65-.37,1.03-.36.65.02,1.22.43,1.43,1.03.38,1.08.77,2.16,1.17,3.23l.28.76c.16.28.3.59.43.97.11.24.21.5.32.81.43.8.78,1.46,1.12,2.06,1.43,2.51,2.81,4.66,4.2,6.58,1.79,2.48,3.85,4.94,6.68,7.98.85.93,1.74,1.83,2.58,2.68l1.38,1.35c.06.06.17.15.24.18.07.03.15.05.23.05.02,0,.05,0,.07,0,.11-.01.21-.05.28-.1.07-.05.1-.09.11-.1l.04-.05.08-.12c.14-.23.23-.5.25-.74.02-.25-.03-.52-.14-.79-.04-.11-.1-.23-.2-.39-.02-.03-.04-.07-.06-.1l-.04-.06-.66-.97c-.71-1.06-1.4-2.12-2.06-3.15-.27-.42-.5-.85-.73-1.27-.15-.28-.31-.56-.47-.84-1.24-2.1-2.13-3.74-2.9-5.31-.68-1.38-1.32-2.83-1.92-4.33-.46-.95-.78-1.92-1.05-2.83-1.46-4.88-2.46-8.89-3.14-12.61-.03-.14-.03-.28-.02-.42-.15-.69-.29-1.37-.43-2.06-.1-.46.02-.94.32-1.29.31-.37.78-.58,1.26-.57.69.02,1.25.49,1.39,1.17.31,1.52.63,3.04.96,4.55.25.7.37,1.41.45,1.96l.05.22c.27.94.58,1.97.95,3.15l.11.26c.06.16.13.31.19.46.35.8.7,1.61,1.08,2.44l.59,1.29c.19.42.4.87.62,1.33,1.03,2.11,2.38,4.12,3.68,6.01,1.03,1.49,2.08,2.88,3.2,4.34l.07.1c.64.83,1.27,1.64,1.93,2.48.34.41.67.82,1.06,1.21.45.45.86.76,1.28.98.27.14.47.22.67.28.02,0,.04.01.06.02.07.03.14.04.22.06l.25.06.21.03c.11.01.22.03.32.03h.6c.07-.02.14-.03.21-.04.07-.01.38-.07.38-.07.02,0,.05-.02.07-.03.16-.08.31-.2.42-.34.11-.15.18-.33.23-.56.05-.3.08-.62.08-.95v-.08c0-.05,0-.1,0-.15v-.21c-.03-.12-.04-.24-.06-.35-.04-.29-.11-.58-.21-.88-.07-.24-.18-.51-.27-.72l-.65-1.63c-.43-1.1-.82-2.12-1.17-3.09-.81-2.24-1.46-4.3-1.99-6.31-1.9-7.28-2.46-14.74-3.01-21.96-.28-3.68-.57-7.48-1.03-11.21-.05-.44.07-.85.35-1.16.29-.32.71-.49,1.15-.48.79.02,1.44.6,1.53,1.37.77,6.24,1.75,13.47,3.56,20.45.47,1.85.98,3.69,1.52,5.47.59,1.98,1.16,3.74,1.74,5.4.2.56.38,1.12.56,1.67.32.98.63,1.91,1,2.86l.38.97.2.48c.2.47.41.95.61,1.42.27.65.65,1.28,1.05,1.86.25.36.58.71,1,.87.35.14.88.11,1.07-.26.16-.29.11-.69.1-1.01-.01-.41-.04-.82-.09-1.23-.13-1.19-.41-2.36-.62-3.54-.1-.6-.19-1.2-.27-1.79-.05-.36-.1-.72-.16-1.1-.39-3-.59-5.99-.6-8.87,0-.61.05-1.21.1-1.8.02-.29.05-.57.07-.87.03-.45.08-.91.13-1.36.06-.54.12-1.04.14-1.57.31-4.38,1.09-8.68,1.85-12.84.31-1.73.64-3.51.93-5.28.02-.11.03-.25.05-.4.1-.83.22-1.87.86-2.5.38-.37.78-.55,1.19-.54.39,0,.74.19.98.5.44.56.43,1.47.29,2.07-1.21,5.23-1.22,10.76-1.22,16.11v.39c0,6.29.29,11.97.89,17.37.33,2.95.82,5.38,1.5,7.43l.51,1.59.52,1.66s.24.66.26.73c.02.07.04.14.07.19.13.27.25.68.48.88.23.2.6.23.88.16.03,0,.05-.01.07-.03.02-.02.03-.05.04-.09.15-.51.32-1.03.38-1.56.07-.58.15-1.16.23-1.74l.12-.85.36-2.31.27-1.53c.45-2.4.86-4.34,1.29-6.07.17-.72.37-1.45.56-2.15l.18-.65.21-.69c.2-.69.42-1.4.65-2.09.29-.92.61-1.85.94-2.8l.12-.36.1-.27c.36-1,.7-2.03,1.03-3.03.72-2.19,1.46-4.45,2.51-6.57.26-.53.78-.86,1.35-.84.5.01.98.29,1.27.72.28.43.34.96.14,1.44-.38.94-.61,1.93-.86,2.98-.06.25-.12.5-.18.75l-.25,1.61c-.22,1.37-.52,3.19-.95,5.2-.2.95-.32,1.86-.44,2.73l-1.04,7.77-.24,1.79c-.17,1.29-.32,2.68-.48,4.3.02.07.02.15.02.22-.1,1.23-.16,2.45-.09,3.69.01.27.07.59.32.7.13.06.27.04.4,0,.3-.08.65-.28.82-.55.2-.32.25-.82.32-1.19,0-.17.02-.34.03-.5.17-2.32.57-4.66,1.2-6.96.74-2.74,1.51-4.87,2.42-6.72,1.73-3.56,3.97-6.91,6.66-9.97,2.71-3.09,5.82-5.87,9.29-8.09Z"/>
  <path class="cls-1" d="M155.5,126.07h0c-.16-.02-.12-.01,0,0Z"/>
  <polygon class="cls-1" points="86 52.1 86 52.1 86 52.1 86 52.1"/>
  <path class="cls-1" d="M85.98,52.1s0,0,0,0c0,0,0,0,0,0v-.02s-.01.01-.01.01Z"/>
  <polygon class="cls-1" points="85.98 52.1 85.98 52.1 85.98 52.1 85.98 52.1"/>
  <path class="cls-1" d="M141.83,226.71s.02,0,.03,0c0,0-.01,0-.02,0,0,0,0,0,0,0Z"/>
  <path class="cls-1" d="M141.79,226.73s-.01-.13,0-.11v.12s0,0,.01,0c0,0,0,0,0,0Z"/>
  <rect class="cls-1" x="166.73" y="209.02" width="0" height="0" transform="translate(-37.02 35.88) rotate(-11.06)"/>
  <path class="cls-1" d="M141.9,226.69s-.04,0-.05.01c.01,0,.03,0,.05-.01Z"/>
  <path class="cls-1" d="M141.94,226.68s-.02,0-.04,0c.01,0,.02,0,.04,0Z"/>
  <path class="cls-1" d="M142.77,105.18c0-.09-.04-.18-.14-.21-.18-.05-.4-.04-.6.06-.1.05-.19.13-.27.22-.08.09-.15.24-.16.31-.03.09-.08.18-.13.26-.05.07-.11.14-.16.21-.13.19-.14.42-.17.63,0,.08-.02.17-.06.25-.06.15-.1.3-.11.46,0,.27,0,.53,0,.8,0,.36,0,.71.02,1.06.02.16,0,.32-.04.48-.01.05-.02.11-.01.16,0,.07.02.14.02.21l.06.42c.02.12.05.24.07.37.02.16.04.33.08.49.09.32.22.64.37.96.04.07.06.15.1.23.14.23.3.44.46.66.11.17.26.3.42.41.07.04.15.08.2.13.09.09.18.18.28.27.1.09.2.18.3.25.08.06.15.11.24.16l.25.14c.38.2.79.31,1.2.37.14.03.29.04.43.05.14,0,.28.02.42,0,.15,0,.29-.01.43-.05.05,0,.09-.04.14-.05.12-.03.24-.07.35-.08.16-.02.33.01.49,0,.05,0,.12-.01.15-.05.1-.11.23-.06.33-.1.2-.05.41-.07.61-.13.27-.11.53-.25.79-.4l.47-.28c.15-.1.29-.22.44-.33.03-.02.04-.06.07-.08.17-.18.35-.35.51-.55.08-.1.17-.19.25-.28.08-.08.13-.18.19-.28.09-.15.21-.29.27-.46.1-.26.28-.49.29-.78l.04-.06c.03-.07.05-.14.07-.21v-.1c.04-.12.05-.24.07-.36,0-.06,0-.12.01-.18,0-.06-.01-.12-.02-.18-.02-.15,0-.3,0-.45-.02-.23-.03-.48-.07-.71-.03-.14-.08-.27-.09-.41,0-.23-.11-.43-.2-.63-.04-.08-.09-.16-.13-.23l-.27-.5c-.1-.16-.21-.31-.32-.47-.11-.15-.21-.33-.35-.47-.21-.23-.44-.41-.63-.65-.03-.05-.12-.06-.17-.09-.11-.07-.25-.11-.32-.2-.1-.1-.2-.15-.33-.19-.09-.02-.18-.06-.27-.09l-.35-.17c-.09-.04-.2-.06-.27-.12-.23-.18-.52-.23-.79-.32-.37-.12-.78-.15-1.17-.18-.21-.02-.43-.03-.64-.03-.29,0-.58.03-.87.05-.22.01-.44.07-.65.12-.26.05-.52.14-.69.38-.04.06-.1.11-.16.14-.16.08-.23.21-.25.37-.01,0-.03,0-.04,0,0,0,0,0,0,0Z"/>
  <path class="cls-1" d="M144.58,125.68c-.21.23-.38.48-.36.8,0,.08-.02.17-.04.25-.02.08-.07.14-.1.22-.07.19-.04.38-.03.58,0,.07,0,.17-.01.25-.03.16-.05.32-.01.49.06.28.15.55.26.82.15.37.34.71.6,1.01.07.07.13.14.19.22.06.07.12.14.18.23.04.05.09.11.14.14.07.05.15.09.23.13.15.07.31.14.47.19.14.04.28.08.42.1.18.05.36.08.55.09.37,0,.73-.05,1.07-.14.08-.02.16-.04.24-.06.25-.09.49-.23.73-.35.18-.1.34-.22.46-.38.05-.06.1-.14.16-.19l.15-.13.12-.12.25-.23c.12-.11.23-.23.34-.35.23-.28.44-.57.63-.88.13-.22.28-.42.38-.66.06-.12.11-.24.16-.37.02-.04.02-.09.03-.13.04-.1.06-.22.11-.32.07-.13.17-.25.25-.39.03-.04.06-.1.05-.15-.04-.14.05-.22.09-.32.07-.18.18-.36.22-.56.03-.14.05-.28.07-.42.01-.14,0-.29.02-.43.04-.35,0-.7-.02-1.04,0-.03-.03-.07-.04-.1-.05-.23-.09-.46-.15-.69-.03-.11-.05-.23-.08-.34-.03-.1-.06-.2-.09-.3-.06-.15-.1-.31-.17-.45-.1-.23-.17-.48-.33-.67v-.07c-.04-.06-.07-.12-.1-.18-.01-.03-.04-.04-.05-.07-.1-.19-.23-.37-.38-.52-.09-.1-.16-.22-.24-.32l-.37-.52c-.08-.1-.18-.18-.24-.28-.05-.09-.11-.17-.18-.24l-.14-.15c-.05-.06-.12-.11-.19-.16-.11-.08-.23-.12-.35-.17-.36-.14-.78-.12-1.12.06l-.22.12-.14.08c-.15.09-.31.17-.46.26-.23.14-.42.33-.69.43-.05.02-.07.09-.11.13-.08.08-.15.19-.25.23-.12.06-.19.14-.25.24-.05.08-.1.14-.16.21-.08.09-.17.18-.26.26-.07.07-.11.16-.19.21-.24.14-.37.4-.54.62-.12.15-.21.33-.29.5l-.22.54c-.07.2-.15.4-.2.6l-.09.42c-.02.14-.04.28-.07.42-.05.22-.02.44-.03.65,0,.25.03.53.23.74.05.05.09.11.11.17.05.16.16.25.31.3,0,.01,0,.02,0,.04,0,0,0,0,0,0-.08-.02-.18-.01-.24.06Z"/>
  <path class="cls-1" d="M100.46,121.96c-.22.22-.4.45-.4.78,0,.08-.03.17-.06.25-.03.07-.08.14-.11.21-.08.18-.06.38-.06.57,0,.07,0,.17-.03.25-.04.16-.07.32-.04.49.04.28.12.56.21.84.13.37.3.73.55,1.05.06.07.12.15.18.23.06.08.12.15.16.24.03.05.08.11.13.15.07.05.15.1.22.14.15.08.3.16.45.22.14.05.28.09.41.13.18.06.36.1.54.12.37.02.73-.01,1.08-.08.08-.02.17-.03.25-.05.26-.08.5-.2.75-.31.18-.09.35-.2.48-.35.05-.06.1-.13.17-.18l.16-.12.13-.11.26-.22c.12-.11.24-.21.36-.33.24-.27.48-.54.68-.85.14-.21.3-.41.42-.64.06-.12.12-.24.18-.36.02-.04.02-.09.04-.13.05-.1.07-.22.13-.32.08-.13.18-.24.27-.37.03-.04.07-.1.06-.14-.03-.14.07-.22.11-.32.08-.18.2-.35.25-.55.04-.14.06-.28.09-.42.02-.14.02-.29.04-.43.06-.34.04-.69.04-1.04,0-.03-.03-.07-.04-.1-.04-.23-.06-.47-.11-.69-.03-.11-.04-.23-.06-.34-.02-.1-.05-.2-.07-.3-.05-.15-.08-.31-.15-.46-.09-.24-.14-.48-.29-.69v-.07c-.03-.06-.06-.13-.08-.19-.01-.03-.03-.05-.05-.07-.09-.2-.21-.38-.35-.54-.08-.1-.15-.22-.22-.34l-.34-.53c-.07-.1-.17-.18-.23-.29-.05-.09-.1-.17-.16-.25l-.13-.15c-.05-.06-.12-.12-.18-.17-.1-.08-.22-.13-.34-.19-.35-.16-.77-.17-1.13,0l-.22.11-.14.07c-.16.08-.32.15-.48.23-.24.13-.44.31-.71.39-.05.02-.08.09-.12.13-.09.08-.16.18-.27.22-.12.05-.19.13-.26.23-.05.07-.11.14-.17.2-.09.09-.18.17-.27.25-.07.06-.12.16-.2.2-.25.13-.39.38-.57.59-.12.15-.22.32-.32.48-.08.18-.17.35-.25.53-.08.2-.17.39-.23.59l-.12.41c-.03.14-.06.28-.1.41-.06.21-.04.44-.07.65-.02.25,0,.53.19.75.05.05.08.12.1.18.04.17.15.26.3.32,0,.01,0,.02,0,.04,0,0,0,0,0,0-.08-.03-.18-.02-.24.04Z"/>
  <path class="cls-1" d="M117.85,110.61c-.16.27-.27.54-.18.86.02.08.02.17.01.26,0,.08-.04.15-.05.23-.03.2.04.38.09.57.02.07.04.16.04.24,0,.16.02.33.09.49.12.26.27.51.43.75.22.33.48.63.8.87.08.06.16.11.23.18.07.06.15.12.22.19.05.04.11.09.17.11.08.03.17.06.25.08.16.04.33.08.5.09.14,0,.29.02.43.01.19,0,.37,0,.56-.02.36-.07.7-.2,1.02-.36.08-.04.15-.07.23-.11.23-.14.43-.32.64-.49.15-.13.28-.28.37-.46.04-.07.07-.15.11-.22l.12-.16.1-.14.19-.28c.09-.13.18-.27.26-.41.16-.32.32-.65.43-.99.08-.24.18-.47.24-.72.03-.13.06-.26.08-.39,0-.04,0-.09,0-.14.02-.11.01-.23.04-.34.04-.15.11-.28.17-.43.02-.05.04-.11.02-.15-.07-.13,0-.23.03-.34.03-.2.1-.39.1-.59,0-.14-.01-.29-.02-.43-.02-.14-.05-.28-.07-.42-.04-.35-.14-.68-.23-1.02-.01-.03-.05-.06-.06-.09-.1-.21-.18-.44-.29-.64-.06-.1-.1-.21-.15-.31-.05-.09-.1-.19-.15-.28-.09-.14-.16-.28-.26-.41-.15-.21-.26-.43-.46-.59l-.03-.06c-.04-.06-.08-.11-.12-.16-.02-.02-.05-.04-.06-.06-.14-.17-.3-.31-.48-.43-.11-.08-.2-.18-.3-.27l-.47-.43c-.1-.08-.21-.13-.3-.22-.07-.07-.14-.14-.22-.2l-.17-.11c-.06-.04-.14-.09-.22-.12-.12-.05-.25-.07-.38-.09-.38-.06-.79.04-1.09.29l-.19.16-.12.11c-.13.12-.27.23-.4.35-.2.19-.35.41-.58.56-.04.03-.05.1-.08.15-.06.1-.11.22-.2.28-.1.08-.15.17-.19.29-.03.08-.07.16-.11.24-.06.11-.13.21-.2.31-.05.08-.08.18-.14.25-.21.19-.28.47-.4.72-.08.17-.13.36-.18.55l-.1.58c-.02.21-.07.42-.07.63v.43c0,.14.01.28.01.42,0,.22.07.43.1.64.05.25.14.51.38.67.06.04.11.09.14.15.09.15.21.21.37.23,0,.01,0,.02,0,.04,0,0,0,0,0,.01-.09,0-.18.02-.22.1Z"/>
  <path class="cls-1" d="M141.26,142.83c.13-.07.25-.15.37-.22.12-.08.22-.18.34-.27.29-.2.53-.45.78-.69.02-.03.03-.07.05-.1.14-.19.3-.37.42-.56.06-.1.14-.18.21-.28.06-.09.12-.17.17-.26.08-.14.17-.28.24-.42.11-.23.25-.43.3-.69l.04-.05c.03-.06.06-.12.09-.18l.02-.08c.08-.2.13-.41.15-.63.02-.13.06-.26.09-.39l.15-.62c.02-.12.02-.25.06-.37.03-.1.05-.19.07-.29l.02-.2c0-.08,0-.17,0-.25-.01-.13-.06-.25-.1-.37-.12-.37-.41-.67-.78-.82l-.23-.09-.15-.05c-.17-.06-.33-.13-.5-.18-.26-.08-.53-.11-.77-.24-.05-.02-.12,0-.17,0-.12,0-.25,0-.34-.04-.12-.05-.23-.05-.35-.03-.09.01-.18.02-.26.02-.12,0-.25-.02-.37-.02-.09,0-.2.02-.28,0-.27-.09-.55-.02-.82-.01-.19.01-.38.06-.57.1-.18.06-.37.12-.56.18-.2.08-.4.14-.59.24l-.38.2c-.12.07-.24.15-.37.22-.2.1-.35.27-.52.4-.2.16-.38.37-.41.66,0,.07-.03.14-.06.2-.09.15-.09.29-.02.43,0,0-.02.02-.03.02,0,0,0,0,0,0-.04-.08-.1-.15-.19-.15-.31-.01-.61.02-.84.25-.06.06-.14.1-.22.13-.07.03-.16.04-.23.06-.19.07-.32.21-.46.35-.05.05-.13.11-.2.15-.14.08-.28.17-.38.31-.17.23-.32.48-.46.73-.18.35-.32.72-.38,1.12-.01.1-.02.19-.04.28-.02.09-.03.19-.06.28-.02.06-.02.13-.01.2,0,.09.03.17.05.26.04.16.09.33.16.48.06.13.12.27.19.39.09.17.17.33.29.48.24.28.51.52.8.72.07.05.13.1.21.14.24.13.49.23.74.33.19.07.38.12.59.11.08,0,.16-.02.24,0l.2.03.17.02.33.04c.16.02.32.03.49.03.36-.01.72-.03,1.08-.09.25-.05.5-.06.75-.13.13-.03.26-.08.38-.12.04-.01.08-.05.12-.06.11-.03.21-.1.32-.13.15-.03.3-.04.46-.06.05,0,.12-.02.14-.06.08-.12.2-.1.31-.14.19-.06.39-.09.57-.2Z"/>
  <path class="cls-1" d="M134.35,103.65c.21-.22.38-.49.5-.78.08-.2.13-.42.15-.62.05-.44-.02-.86-.11-1.21-.05-.25-.12-.5-.21-.74-.04-.13-.09-.25-.15-.37-.02-.04-.06-.07-.08-.11-.05-.1-.11-.2-.15-.3-.05-.14-.06-.3-.1-.44,0-.05-.03-.11-.07-.13-.12-.07-.11-.19-.15-.29-.07-.18-.12-.37-.21-.54-.12-.25-.32-.45-.47-.68-.2-.27-.4-.55-.63-.79-.02-.03-.06-.04-.08-.06-.16-.17-.34-.31-.5-.48l-.25-.24-.24-.2c-.13-.09-.26-.2-.4-.29-.22-.13-.43-.3-.68-.36l-.05-.04c-.06-.03-.13-.06-.19-.09l-.09-.02c-.2-.11-.43-.15-.67-.16-.14-.02-.28-.05-.42-.07-.22-.03-.45-.07-.68-.08-.14,0-.28.03-.42.02-.23-.02-.45.04-.67.11-.08.03-.16.08-.25.11-.36.14-.71.32-1.01.56-.15.12-.31.22-.45.35-.21.2-.38.42-.61.58-.04.03-.06.1-.09.17-.08.12-.12.27-.21.36-.11.11-.15.24-.17.39-.02.11-.03.21-.06.31-.03.14-.07.28-.09.42-.02.11,0,.23-.03.32-.1.3-.03.6,0,.87.02.19.06.39.11.56.05.17.1.33.15.49l.14.54c.07.24.16.48.22.73.04.19.13.37.19.55.07.22.17.44.41.58.06.03.11.08.14.14.08.14.2.21.35.24,0,.01,0,.03,0,.04,0,0,0,0,0,0-.09,0-.18.02-.22.12-.07.18-.02.45.13.64.03.05.08.09.12.13.03.03.06.05.09.08.06.05.13.09.21.12.08.04.16.09.23.15.06.05.11.13.18.18.16.14.37.19.58.24.08.02.16.04.23.08.13.08.27.14.43.16.26.04.52.05.77.09.34.04.69.07,1.04.07.16,0,.31.02.46.08.05.02.1.02.16.03.07,0,.14,0,.21-.01l.41-.03c.12-.02.24-.04.35-.05.16-.01.32-.02.47-.05.31-.07.62-.17.91-.28.07-.03.15-.04.22-.07.22-.11.41-.21.67-.35.19-.11.36-.24.49-.43.05-.07.1-.16.16-.22Z"/>
  <path class="cls-1" d="M129.14,116.49c.02.16.07.33.09.49.03.17.07.33.08.51,0,.07.07.14.1.2.03.07.07.14.1.21.04.07.08.14.09.21.02.09.05.16.09.23.05.07.1.13.16.19.08.09.16.17.25.26.1.11.19.23.29.34.08.09.18.16.24.25.17.29.47.48.73.69.37.3.82.49,1.26.66.24.09.48.18.73.25.24.06.4.07.56.1.16.02.32.04.48.06.25.04.49.02.74.04.29.02.6,0,.86-.18.06-.04.14-.08.21-.09.2-.03.32-.13.39-.27.02,0,.03,0,.04,0,0,0,0,0,0,0-.03.08-.02.18.06.24.28.22.58.39,1.01.38.15,0,.33,0,.49-.02.15-.02.3-.04.44-.11.09-.04.17-.1.25-.17.04-.04.07-.07.1-.1l.06-.07c.08-.1.15-.2.22-.3.05-.08.11-.16.18-.23.13-.13.26-.25.34-.42.15-.27.27-.56.41-.83.17-.38.35-.76.48-1.17.06-.18.13-.36.23-.52.03-.05.06-.12.08-.18.03-.08.03-.17.05-.25.03-.17.07-.33.08-.5l.04-.44c.01-.19.05-.39.04-.59-.01-.4-.07-.79-.15-1.18-.02-.09-.03-.19-.06-.28-.09-.29-.2-.56-.31-.84-.08-.2-.17-.39-.32-.57-.06-.07-.12-.14-.16-.21-.15-.26-.29-.52-.47-.76-.12-.18-.28-.34-.43-.5-.35-.34-.77-.6-1.19-.81-.15-.07-.3-.13-.45-.2-.15-.05-.3-.11-.45-.15-.16-.04-.32-.08-.47-.11-.05,0-.11,0-.16,0-.14-.02-.28-.02-.4-.06-.17-.05-.34-.13-.51-.18-.06-.02-.13-.04-.18-.02-.14.05-.26-.03-.38-.05-.22-.05-.44-.13-.66-.16-.32-.05-.63-.05-.94-.1-.38-.05-.78-.11-1.2-.13-.04,0-.08.02-.13.02-.29,0-.58.02-.88.08-.15.03-.3.05-.45.09-.13.04-.26.1-.39.16-.2.09-.4.19-.57.33-.32.25-.6.65-.59,1.09h0s0,.07,0,.07l-.02.07c-.01.07-.02.15-.03.22v.1c-.04.24-.05.48-.03.73.01.15-.02.31-.04.46l-.08.73c-.02.14,0,.3-.04.44-.06.23-.06.46-.05.7,0,.09.02.19.03.28,0,.41,0,.82.05,1.24.02.21.02.43.05.64Z"/>
  <path class="cls-1" d="M132.49,129.37c0,.21.05.46.01.7,0,.05.04.1.06.15.03.1.1.21.1.31,0,.12.05.22.12.31.06.07.11.14.15.21.07.1.12.21.19.31.05.08.14.14.18.22.12.26.38.41.6.55.32.21.68.28,1.01.33.2.03.32.05.47.07.2.02.41.02.61.05.16.02.32,0,.48,0,.19,0,.4-.02.57-.21.04-.04.1-.08.15-.09.13-.04.22-.13.28-.28h.03s0,0,0,0c-.03.08-.03.18.02.24.18.22.43.4.76.32.08-.02.18-.02.28-.03.09,0,.18.01.28,0,.24-.04.46-.22.61-.43.06-.08.11-.16.18-.23.12-.13.21-.28.24-.44.05-.27.05-.51.05-.74,0-.31-.01-.57-.03-.84,0-.12,0-.24.05-.36.02-.04.02-.08.02-.12,0-.05,0-.11-.01-.16l-.02-.31c0-.09-.02-.18-.02-.27,0-.12.01-.24,0-.36-.03-.24-.07-.47-.11-.7,0-.06,0-.11-.02-.17-.05-.17-.11-.35-.15-.52-.03-.13-.07-.25-.16-.38-.03-.05-.08-.1-.1-.15-.06-.19-.12-.38-.19-.56-.05-.14-.12-.27-.2-.4-.17-.29-.41-.54-.67-.76-.18-.15-.38-.29-.59-.39-.11-.05-.23-.1-.33-.12h-.11c-.09-.03-.19-.04-.27-.08-.11-.06-.2-.14-.31-.2-.03-.02-.08-.05-.12-.03-.11.04-.18-.04-.26-.07-.15-.06-.29-.14-.45-.18-.23-.05-.47-.05-.7-.05-.14,0-.29,0-.43,0h-.11s-.1.01-.15.02c-.1.02-.2.03-.29.05-.04.01-.06.04-.1.06-.24.1-.44.29-.55.52-.06.11-.11.23-.16.36-.03.07-.05.15-.08.22-.04.12-.1.23-.13.35-.05.19-.17.35-.16.55l-.03.04s-.04.1-.06.14v.07c-.07.16-.1.32-.1.49,0,.1-.04.21-.07.31-.04.16-.08.32-.12.49-.02.1-.01.2-.05.29-.06.15-.08.31-.07.46,0,.06.02.13.01.19-.01.27-.04.54-.03.81,0,.14-.02.27-.02.41Z"/>
  <path class="cls-1" d="M115.26,123.44l.05-.04c.15-.07.29-.17.41-.3.07-.08.17-.12.26-.18.14-.09.28-.18.42-.27.08-.06.15-.14.24-.18.15-.07.27-.17.37-.29.04-.05.07-.1.12-.15.2-.19.4-.37.58-.57.09-.1.2-.19.29-.29.14-.15.28-.36.47-.52.04-.03.04-.1.06-.15.05-.09.07-.22.14-.29.09-.09.12-.19.13-.31,0-.09.02-.17.04-.26.02-.12.06-.24.07-.36.02-.1,0-.2.02-.28.09-.27,0-.56-.06-.81-.08-.37-.31-.67-.51-.94-.12-.16-.2-.25-.3-.37-.14-.15-.29-.3-.41-.46-.1-.13-.23-.22-.35-.33-.13-.13-.3-.25-.56-.24-.06,0-.12,0-.17-.03-.12-.06-.25-.05-.39.02l-.02-.02s0,0,0,0c.08-.04.14-.11.15-.19.02-.29-.04-.58-.34-.75-.07-.04-.15-.11-.22-.17-.06-.06-.12-.13-.2-.19-.2-.14-.49-.16-.74-.1-.1.01-.19.04-.29.04-.18.02-.34.06-.48.15-.22.16-.39.34-.55.5-.21.23-.38.43-.55.63-.08.09-.16.18-.29.23-.04.02-.07.04-.1.07-.04.04-.07.08-.1.12l-.19.24c-.06.07-.11.14-.17.21-.08.09-.18.17-.25.26-.14.19-.27.39-.4.59-.03.05-.07.09-.1.14-.09.16-.16.33-.25.48-.07.11-.12.23-.14.39,0,.06,0,.13-.03.18-.09.17-.17.35-.25.54-.05.14-.09.28-.13.42-.07.32-.08.67-.03,1.01.03.24.08.47.16.69.04.12.1.23.15.31.02.03.05.06.07.09.05.08.12.15.15.23.04.11.05.24.09.36.01.04.03.09.07.11.11.05.1.15.14.23.07.14.12.31.21.44.13.19.31.35.47.52.1.1.21.2.32.3l.09.07s.08.06.12.09c.08.05.16.12.25.16.03.02.08.01.11.03.24.09.52.09.76,0,.12-.04.24-.09.36-.15.07-.03.14-.07.21-.11.11-.05.23-.1.33-.16.16-.11.36-.14.5-.29h.05s.09-.05.14-.08Z"/>
  <path class="cls-1" d="M111.52,92.94c-.26.21-.48.48-.65.77-.13.2-.23.42-.3.65-.04.12-.06.24-.07.34,0,.04,0,.08,0,.11,0,.09,0,.19-.03.27-.04.12-.11.22-.15.34-.02.04-.03.09-.01.12.06.1-.02.18-.03.27-.03.16-.1.31-.11.48-.02.23.02.47.05.7.02.14.04.29.06.43l.02.11s.02.1.04.14c.03.09.05.19.1.28.02.04.05.06.07.09.13.22.35.39.6.47.12.04.25.08.38.1.08.02.16.03.23.04.12.03.24.07.36.08.19.02.37.11.57.08l.05.02s.1.02.15.03h.07c.17.04.33.05.5.02.1-.01.21.01.32.02.17.02.33.03.5.05.1,0,.2-.02.3.01.16.04.31.03.47,0,.06,0,.12-.04.19-.04.27-.03.54-.04.81-.09.14-.02.27-.02.41-.04.21-.03.44-.11.69-.11.05,0,.09-.06.14-.08.1-.04.19-.13.29-.14.12-.02.21-.08.29-.16.06-.07.12-.13.19-.18.09-.08.19-.15.28-.24.07-.06.12-.16.2-.21.24-.16.35-.44.46-.68.16-.34.17-.72.18-1.05,0-.2,0-.32,0-.48,0-.21-.04-.41-.04-.62,0-.16-.05-.32-.07-.47-.02-.19-.08-.39-.29-.54-.05-.04-.09-.08-.11-.13-.06-.13-.17-.2-.32-.23v-.03s0,0,0,0c.09.01.18,0,.23-.06.2-.21.33-.48.2-.8-.03-.08-.05-.17-.07-.27-.01-.09-.02-.18-.04-.27-.07-.23-.29-.42-.51-.54-.08-.05-.17-.09-.25-.14-.15-.1-.31-.17-.47-.18-.27-.01-.52.02-.74.05-.31.05-.56.1-.83.15-.12.03-.24.04-.36,0-.04-.01-.08-.01-.12,0-.05,0-.1.02-.15.04l-.3.07c-.09.02-.17.04-.26.06-.12.02-.24.02-.35.05-.23.06-.46.14-.68.21-.05.02-.11.02-.16.05-.17.07-.33.16-.49.22-.12.05-.23.11-.35.22-.04.04-.09.09-.14.12-.18.08-.36.17-.53.27-.13.07-.25.16-.36.25Z"/>
  <path class="cls-1" d="M128.66,146.87c.1-.07.2-.14.28-.24.11-.11.25-.19.36-.29.19-.16.37-.33.53-.52.09-.12.17-.25.27-.35.08-.09.15-.18.21-.29.06-.1.1-.21.15-.32.04-.09.05-.18.08-.27.15-.38.24-.76.3-1.15.02-.2.07-.38.08-.58.02-.31-.01-.61.03-.92,0-.06-.04-.13-.05-.19-.03-.13-.09-.26-.08-.38,0-.14-.03-.26-.09-.37-.04-.09-.09-.17-.12-.27l-.13-.38c-.04-.1-.1-.19-.11-.29-.03-.3-.21-.55-.34-.81-.18-.37-.45-.67-.71-.98-.14-.17-.28-.34-.43-.49-.21-.21-.44-.41-.67-.61-.18-.16-.38-.27-.58-.39-.23-.15-.51-.27-.81-.2-.07.01-.15.02-.22,0-.18-.04-.32.01-.44.13-.01,0-.02-.01-.03-.02,0,0,0,0-.01,0,.06-.07.08-.16.04-.24-.14-.3-.32-.56-.66-.68-.09-.03-.17-.09-.24-.15-.07-.05-.12-.13-.19-.18-.09-.07-.19-.12-.31-.16-.06-.02-.12-.04-.2-.05-.03,0-.09-.02-.13-.02h-.11c-.1-.02-.22-.03-.33-.05-.21-.03-.44-.02-.66.06-.36.14-.64.37-.87.6-.31.31-.53.65-.72.97-.09.16-.19.34-.31.49-.04.05-.07.12-.09.18-.03.08-.04.17-.06.26-.03.17-.05.35-.06.52,0,.13,0,.24-.01.36-.01.15-.05.31-.05.46,0,.31,0,.62,0,.93,0,.07,0,.15,0,.22.02.24.05.47.06.71,0,.18.04.35.1.51.02.07.06.13.06.2l.04.69c0,.17.03.33.05.5.04.37.13.73.21,1.1.06.26.12.52.2.78.04.13.1.27.15.4.02.05.05.08.07.13.06.11.12.22.16.33.06.16.07.33.13.49.02.05.04.12.09.15.12.08.14.21.2.33.05.1.11.2.18.3.06.1.13.2.22.28.24.25.57.41.89.54.39.15.8.21,1.19.22.04,0,.08-.02.12-.03l.39-.04.37-.07c.13-.02.25-.03.37-.05l.32-.07c.17-.04.34-.07.5-.13.13-.05.26-.08.39-.12.13-.04.26-.1.37-.18h.07c.07-.04.14-.07.2-.1.03-.01.05-.04.08-.05.11-.04.22-.11.32-.18Z"/>
  <path class="cls-1" d="M118.84,136.4c.08-.11.18-.21.3-.28.1-.21.27-.39.39-.58.18-.44.28-.91.25-1.39-.07-.89-.47-1.71-.39-2.62,0-.06.02-.11.04-.16-.05-.11-.11-.23-.19-.32-.24-.24-.47-.48-.7-.73-.02-.02-.04-.04-.07-.05-.22-.06-.34-.22-.43-.4-.02-.04-.04-.11-.08-.11-.13-.03-.16-.15-.23-.24-.09-.11-.19-.23-.3-.33-.12-.1-.25-.19-.32-.34-.12-.22-.38-.34-.49-.57h-.02c-.3-.18-.53-.43-.81-.62-.05-.03-.11-.04-.16-.05-.03-.01-.08-.01-.1-.03-.15-.13-.3-.26-.47-.38-.15-.11-.33-.2-.46-.36l-.07-.03-.19-.12c-.05-.04-.11-.08-.17-.1-.32-.14-.66-.27-1.05-.35-.09-.01-.18-.02-.28-.03-.36-.02-.68.03-.97.08-.25.05-.5.08-.73.14-.22.06-.42.16-.62.22-.08.02-.16.04-.23.06l-.15.04-.19.05-.2.06c-.06.03-.09.1-.14.16-.08.11-.17.24-.22.35l-.04.05c-.17.14-.25.36-.36.55-.1.18-.16.38-.24.56-.07.14-.12.29-.13.45-.03.25-.02.5-.04.73-.03.4.06.8.13,1.17.04.21.12.42.2.62.08.2.15.41.27.57.09.13.15.26.2.39.05.13.09.26.15.38.04.08.05.19.11.25.15.15.22.34.31.52.09.17.17.35.27.51.12.2.27.4.41.59.23.33.49.66.76.97.07.08.17.13.23.21.19.25.4.49.67.69.08.05.15.12.22.19.14.14.31.26.46.38.19.13.43.19.62.32h.1s.08,0,.12,0c.22.08.45.1.67.16.12.03.24.04.36.05.12.01.25.03.36.03.23,0,.45,0,.68-.02.45-.03.92-.12,1.35-.3.21-.07.4-.17.6-.27.09-.06.19-.11.28-.16.15-.09.31-.17.45-.29.1-.1.19-.2.28-.31Z"/>
  <path class="cls-1" d="M106.63,102.15c-.08.08-.15.17-.24.25-.16.14-.26.32-.4.47-.12.11-.2.24-.26.38-.11.22-.16.46-.27.67-.08.18-.13.37-.18.56-.04.19-.07.37-.12.56-.04.21-.05.43-.05.64,0,.21-.03.43.01.63.06.31,0,.59.01.89,0,.1-.03.21,0,.29.08.21.08.41.1.62.01.2.03.39.06.59.04.24.1.47.16.7.1.4.17.75.3,1.19.03.1.1.2.13.3.07.32.19.64.37.93.05.08.1.17.14.26.09.18.21.37.33.54.15.2.37.32.52.52.02.02.06.03.09.04.04.01.08.01.12.03.2.13.42.24.63.34.44.22.92.35,1.39.4l.18.02h.23s.23.02.23.02c.04.01.07-.02.1-.04l.1-.06c.29-.18.44-.3.63-.44.17-.13.33-.27.48-.42.08-.07.15-.14.23-.21.13-.11.26-.22.38-.35.17-.2.28-.46.5-.62.15-.32.43-.56.51-.91.03-.14.11-.27.16-.41.04-.13.09-.27.12-.4.03-.13.07-.26.1-.4h.02s0-.09,0-.14c-.02-.12-.05-.25-.07-.37-.01-.07-.06-.11-.11-.15,0,0,0,0,0-.01,0-.01,0-.03.01-.04.03.02.06.05.1.07.12.06.22.05.32,0,.08-.05.13-.15.23-.17l.03-.06c0-.08.02-.17,0-.25-.02-.09,0-.16.04-.24.08-.15.16-.3.23-.45.06-.12.13-.23.17-.36.05-.15.12-.3.13-.46.01-.35,0-.7.02-1.05,0-.03,0-.07-.02-.09-.12-.2-.1-.4-.05-.62.01-.05.04-.11.02-.15-.08-.12-.03-.23-.03-.35,0-.16-.02-.32-.04-.47-.03-.17-.1-.32-.08-.5,0-.14-.03-.27-.07-.41-.04-.14-.09-.27-.09-.41v-.02c-.05-.08-.1-.15-.14-.23-.05-.1-.12-.24-.18-.36-.13-.1-.26-.22-.31-.27-.07-.07-.14-.13-.21-.19-.05-.04-.12-.06-.18-.08-.04-.02-.09-.02-.12-.05-.17-.15-.35-.29-.54-.42-.17-.12-.38-.19-.53-.35l-.08-.03-.22-.1c-.06-.03-.12-.07-.19-.09-.35-.1-.71-.18-1.09-.19-.09,0-.17,0-.26,0-.16,0-.32.03-.47.04-.16.02-.31.06-.46.09-.26.06-.53.11-.77.21-.12.04-.23.1-.34.16-.11.06-.22.12-.32.18-.32.18-.67.33-.89.63l-.04.04c-.1.04-.18.1-.26.17Z"/>
  <path class="cls-1" d="M109.41,137.95c.1-.3.15-.61-.03-.91-.05-.08-.06-.17-.09-.26-.02-.08-.01-.17-.03-.25-.04-.21-.17-.38-.3-.55-.05-.06-.09-.14-.12-.21-.06-.14-.13-.28-.23-.39-.19-.18-.36-.37-.55-.55-.12-.12-.24-.25-.37-.37-.13-.12-.25-.24-.39-.35-.12-.1-.23-.21-.32-.35-.03-.04-.07-.08-.11-.12-.05-.04-.11-.08-.17-.12l-.35-.22c-.1-.07-.21-.12-.32-.18-.14-.09-.27-.19-.42-.25-.3-.14-.61-.24-.92-.33-.07-.02-.15-.05-.22-.07-.24-.05-.49-.06-.73-.11-.17-.03-.3-.06-.45-.04-.06,0-.12.02-.18,0-.19-.05-.39-.1-.58-.15l-.1-.03-.15-.03c-.1-.02-.2-.03-.31-.04-.46-.05-1.04.1-1.44.44-.28.23-.48.51-.61.77-.07.15-.1.26-.14.39-.01.04-.01.09-.02.14-.03.11-.04.23-.09.33-.06.14-.16.26-.23.4-.02.05-.05.11-.04.15.04.13-.05.22-.08.33-.06.19-.16.37-.18.58-.03.14-.04.28-.04.43,0,.14,0,.29,0,.43,0,.18,0,.35.03.53l.03.26.05.26s.04.06.04.1c.02.12.07.23.1.34.04.11.07.23.12.34.04.11.07.22.11.34.04.1.09.19.13.29.06.15.13.3.22.44.13.22.22.46.41.64l.02.06c.03.06.07.11.11.17.02.02.04.04.06.06.11.19.27.34.44.48.1.08.19.2.28.3.15.16.3.32.47.46.1.09.22.15.31.25.14.16.33.27.52.36.08.04.16.06.24.09.33.16.68.31,1.05.39.19.04.37.1.55.13.28.05.57.03.88.09.06.02.12-.03.18-.04.12-.02.25-.07.36-.06.13.02.24-.02.35-.07.08-.03.17-.08.25-.1.12-.04.25-.05.36-.09.09-.03.18-.08.28-.08.14,0,.27-.04.41-.09.13-.05.26-.11.39-.16.18-.07.36-.17.52-.29.17-.11.32-.25.48-.38.18-.14.33-.32.49-.49.1-.13.19-.27.28-.4l.23-.45c.06-.12.08-.26.11-.38l.04-.19v-.2c.06-.31-.03-.66-.26-.85-.05-.05-.12-.1-.15-.16-.1-.16-.22-.22-.38-.22,0-.01,0-.02-.01-.04,0,0,0,0,0-.01.09-.01.17-.06.2-.14Z"/>
  <path class="cls-1" d="M130.6,125.07c.1-.3.15-.61-.03-.91-.05-.08-.06-.17-.09-.26-.02-.08-.01-.17-.03-.25-.04-.21-.17-.38-.3-.55-.05-.06-.09-.14-.12-.21-.06-.14-.13-.28-.23-.39-.19-.18-.36-.37-.55-.55-.12-.12-.24-.25-.37-.37-.13-.12-.25-.24-.39-.35-.12-.1-.23-.21-.32-.35-.03-.04-.07-.08-.11-.12-.05-.04-.11-.08-.17-.12l-.35-.22c-.1-.07-.21-.12-.32-.18-.14-.09-.27-.19-.42-.25-.3-.14-.61-.24-.92-.33-.07-.02-.15-.05-.22-.07-.24-.05-.49-.06-.73-.11-.17-.03-.3-.06-.45-.04-.06,0-.12.02-.18,0-.19-.05-.39-.1-.58-.15l-.1-.03-.15-.03c-.1-.02-.2-.03-.31-.04-.46-.05-1.04.1-1.44.44-.28.23-.48.51-.61.77-.07.15-.1.26-.14.39-.01.04-.01.09-.02.14-.03.11-.04.23-.09.33-.06.14-.16.26-.23.4-.02.05-.05.11-.04.15.04.13-.05.22-.08.33-.06.19-.16.37-.18.58-.03.14-.04.28-.04.43,0,.14,0,.29,0,.43,0,.18,0,.35.03.53l.03.26.05.26s.04.06.04.1c.02.12.07.23.1.34.04.11.07.23.12.34.04.11.07.22.11.34.04.1.09.19.13.29.06.15.13.3.22.44.13.22.22.46.41.64l.02.06c.03.06.07.11.11.17.02.02.04.04.06.06.11.19.27.34.44.48.1.08.19.2.28.3.15.16.3.32.47.46.1.09.22.15.31.25.14.16.33.27.52.36.08.04.16.06.24.09.33.16.68.31,1.05.39.19.04.37.1.55.13.28.05.57.03.88.09.06.02.12-.03.18-.04.12-.02.25-.07.36-.06.13.02.24-.02.35-.07.08-.03.17-.08.25-.1.12-.04.25-.05.36-.09.09-.03.18-.08.28-.08.14,0,.27-.04.41-.09.13-.05.26-.11.39-.16.18-.07.36-.17.52-.29.17-.11.32-.25.48-.38.18-.14.33-.32.49-.49.1-.13.19-.27.28-.4l.23-.45c.06-.12.08-.26.11-.38l.04-.19v-.2c.06-.31-.03-.66-.26-.85-.05-.05-.12-.1-.15-.16-.1-.16-.22-.22-.38-.22,0-.01,0-.02-.01-.04,0,0,0,0,0-.01.09-.01.17-.06.2-.14Z"/>
  <path class="cls-1" d="M255.56,104.21c-.22-2.1-.61-3.87-1.21-5.45l-.23-.67-.08-.19c-.06-.15-.12-.29-.2-.45-.2-.45-.43-.89-.62-1.25-.41-.76-.9-1.53-1.49-2.37-1.01-1.41-2.2-2.8-3.63-4.24-3.09-3.13-6.71-5.87-10.2-8.53-.62-.47-1.23-.93-1.84-1.4-1.73-1.32-3.17-2.44-4.59-3.62l-1.12-.95c-.12-.11-.24-.22-.37-.33-.24-.21-.48-.43-.7-.64-.84-.8-1.45-1.44-1.98-2.08-1.14-1.36-2.05-2.78-2.7-4.23-.74-1.65-1.22-3.44-1.41-5.24-.21-1.88.24-3.92-.61-5.68-.52-1.06-1.47-1.86-2.52-2.4-2.78-1.44-6.25-2.24-9.31-2.85-3.05-.61-6.26-.97-9.53-1.04-4.27-.1-8.74.25-13.28,1.06-3.35.6-5.87,1.16-8.18,1.84-4.05,1.19-8.18,2.8-12.27,4.77l-1.66.82-1.65.86c-1.1.59-2.17,1.22-3.19,1.86-2.2,1.4-4.19,2.9-5.92,4.45-2.16,1.92-4.12,4.07-5.82,6.39-1.75,2.4-3.18,4.94-4.24,7.54-2.32,5.68-3.06,12.29-1.62,18.28.13.56.49,1.67,1.29,1.48.05-.01.09-.03.09-.03,0,0,.03-.03.03-.03.1-.12.19-.22.29-.32.21-.22.36-.37.54-.81l.27-.8c.14-.42.54-.68.97-.67.05,0,.1,0,.15.02.36.07.61.29.73.63.05.16.07.33.07.5,0,.14-.05.3,0,.43.06.16.24.21.37.3.03.02.05.03.08.04.04,0,.07-.02.11-.05.64-.49,1.23-1.04,1.84-1.57.23-.32.46-.62.7-.92l.38-.5c.4-.52.81-1.05,1.26-1.6l.64-.74.41-.45c.04-.08.09-.15.15-.22,2.33-2.65,5.01-5.17,7.98-7.48l1.46-1.1c1.31-1,2.67-2.03,4.05-2.99.22-.15.45-.33.69-.52.74-.58,1.58-1.23,2.46-1.51.18-.06.38-.08.58-.08.73.02,1.57.44,1.74,1.2.11.47-.05,1.1-.78,1.49-.65.51-1.33.96-1.99,1.4-.69.46-1.33.88-1.94,1.37-1.85,1.77-3.52,3.46-5.13,5.17-.63.62-1.29,1.3-1.94,2.02-.44.48-.88.97-1.31,1.46-.22.25-.44.5-.66.74-.9,1.02-1.64,1.87-2.33,2.7l-.57.68c-.19.23-.38.47-.56.71-.38.49-.73.99-1.05,1.47-.33.5-.64,1.02-.92,1.55l-.21.41-.11.24s-.07.16-.12.28c-.2.44-.28.75-.27,1.02.02.59.44,1.16.99,1.35.24.08.44.14.68.19.04,0,.08.02.12.02l.22.04c.06,0,.11.02.18.02.16.02.32.03.49.03s.31,0,.48,0c.16,0,.32-.03.45-.04,0,0,.19-.03.24-.04l.24-.05.9-.19c.55-.12,1.1-.25,1.65-.38l.1-.02c1.06-.25,2.2-.55,3.49-.9,2.13-.59,4.4-1.29,6.91-2.14,3.29-1.11,6.59-2.3,9.79-3.45l2.64-.95,1.41-.51c1.98-.72,3.85-1.4,5.84-2.04,2.39-.76,4.57-1.41,6.66-1.98.82-.22,1.67-.4,2.5-.57,1.29-.27,2.63-.55,3.79-1,.19-.07.39-.11.58-.1.54.01,1.03.34,1.27.85.25.53.18,1.16-.16,1.62-.15.22-.35.38-.58.49-1.43.63-2.92.96-4.36,1.28-1.1.24-2.13.47-3.13.82-.87.3-1.75.64-2.6.97-.44.17-.88.34-1.32.5l-2.25.85c-1.52.57-3.03,1.15-4.55,1.71l-3.24,1.2c-3.91,1.46-7.95,2.97-11.86,4.25-1.34.44-2.67.87-4.01,1.29l-2,.61c-.6.18-1.26.38-2.02.56l-1.11.26-1.77.39-1.79.37-.91.18c-.18.03-.34.07-.49.11-.05.01-.18.05-.31.07-.03.02-.05.03-.08.05-.01,0-.02.02-.04.02-.02.04-.26.22-.3.26-.2.2-.36.45-.45.72-.07.2-.19.61-.04.79.06.07.14.12.23.16.69.34,1.38.41,2.14.42l1.77.06,3.13.14c2.2.11,4.79.24,7.34.3l.88.02c4.42.09,8.33.05,11.96-.1,1.79-.08,3.6-.22,5.36-.36.79-.06,1.58-.13,2.36-.18,3.93-.29,7.45-.58,10.78-1.24l3.34-.74s.04,0,.06-.01c4.99-.77,9.49-1.76,13.77-3.02.16-.05.32-.07.48-.06.74.02,1.35.58,1.45,1.34.1.76-.34,1.44-1.07,1.66-1.11.33-2.23.66-3.35,1-5.49,1.65-11.17,3.35-16.87,4.49l-3.26.67c-3.06.62-5.43.98-7.67,1.19-3.01.3-6.22.44-9.53.43-.9,0-1.8-.01-2.7-.03-2.19-.05-4.49-.17-6.84-.35-2.94-.22-5.99-.54-9.05-.94-.62-.08-1.24-.17-1.86-.25l-1.24-.18h-.06s-.08,0-.17.02c-.04.01-.12.07-.14.11-.05.07-.06.13-.07.18,0,.08,0,.11.01.19.02.12.09.23.14.28.19.18.31.23.51.32h.02c1.45.55,2.86,1.07,4.3,1.58l2.8.99c6.07,2.14,12.07,4.05,17.84,5.67l.27.08c5.91,1.66,12.02,3.38,18.23,3.55.31,0,1.23.03,1.68.83.2.36.23.78.1,1.18-.15.44-.49.82-.92,1.01-.72.32-1.61.46-2.69.44s-2.27-.23-3.29-.4c-.55-.09-1.07-.18-1.51-.23-.8-.09-1.63-.22-2.54-.4-1.18-.09-2.34-.2-3.46-.33-6.92-.77-13.8-2.21-20.43-4.3-2.15-.68-3.78-1.23-5.28-1.78l-.66-.24c-.23-.08-.45-.16-.68-.24-.46-.15-.91-.29-1.35-.42l-1.34-.38-1.38-.38s-.32-.03-.34-.03l-.16.02s-.05,0-.08,0c-.06,0-.29.09-.45.28-.09.1-.15.2-.22.34-.05.1-.11.27-.13.49,0,0-.23,2.29-.23,2.3,0,.03,0,.06,0,.11,0,.03.02.09.03.13,0,.02.02.05.03.07l.03.06.06.07.04.04c.09.08.13.11.17.13,0,0,0,0,.02.01.07.04.12.06.16.08l.21.09c1.21.56,2.63,1.23,3.95,1.95,4,2.18,7.43,4.28,10.48,6.43l.18.13c1.4.99,2.86,2.01,4.31,3.08,1.63,1.21,3.13,2.38,4.46,3.5,3.18,2.67,6.17,5.55,8.96,8.63,2.33,2.57,4.4,5.67,8,6.51,3.07.72,6.82-.15,9.88-.69,3.14-.55,6.36-1.29,9.32-2.5l.98-.36c.2-.07.4-.15.6-.23l.37-.14c.64-.24,1.26-.52,1.82-.78,1.01-.48,1.9-.94,2.74-1.41l.48-.26c.29-.16.58-.31.86-.47l1.35-.79c.44-.25.86-.52,1.29-.79l1.29-.81,1.91-1.28.99-.7c.56-.4,1.14-.81,1.7-1.25l1.02-.77c.21-.16.41-.33.62-.49l.38-.3c2.9-2.32,5.58-4.8,7.96-7.35,2.44-2.61,4.74-5.44,6.83-8.42,1.82-2.54,3.36-5.33,4.59-8.31,1.24-2.96,2.06-6.06,2.43-9.18.23-2.16.25-3.92.07-5.56Z"/>
  <path class="cls-1" d="M200.17,196.57c-.08-3.51-.61-7.1-1.58-10.66-.37-1.32-.76-2.6-1.2-3.92-.16-.48-.33-.95-.5-1.43l-.31-.86c-.19-.54-.39-1.1-.62-1.66-1.4-3.67-3.28-7.42-5.42-10.84-1.74-2.82-3.92-5.63-5.64-7.77-1.96-2.46-4.25-4.84-6.79-7.09-.41-.36-.82-.71-1.24-1.06-.22-.18-.43-.36-.64-.54-.41-.34-.83-.67-1.25-.99-.23-.18-.46-.36-.68-.53-1.25-.96-2.56-1.92-4-2.92l-.27-.19c-1.25-.87-2.55-1.78-3.86-2.61-3.86-2.46-7.85-4.64-11.85-6.49l-.94-.43c-.39-.16-.78-.33-1.17-.49-.62-.26-1.21-.57-1.89-.57-.44,0-.87.08-1.3.19-.2.05-.41.11-.56.25-.21.19-.24.52-.06.74.48.59,1.05,1.17,1.63,1.67.28.25.58.51.88.75l.84.66c.88.68,1.75,1.36,2.62,2.05,1.98,1.58,3.59,2.95,5.07,4.3,1.24,1.14,2.7,2.48,4.1,3.87.87.72,1.62,1.41,2.27,2.11,3.08,3.28,5.61,6.58,7.75,10.1.72,1.18.33,2.05-.21,2.44-.24.17-.52.26-.82.25-1.06-.03-1.82-1.19-2.71-2.7-.12-.2-.21-.36-.27-.44-1.41-1.9-3.13-3.47-4.95-5.12-.35-.32-.7-.64-1.06-.96-2.33-2.15-4.74-4.25-7.16-6.24-1.71-1.4-3.46-2.78-5.22-4.1-.69-.52-1.38-1.02-2.07-1.52-.09-.06-.28-.09-.37-.04-.08.04-.14.11-.19.18-.29.37-.48.81-.58,1.28-.02.3-.03.4.14.62.18.22.35.44.53.66l1.24,1.55c.06.08.13.16.19.24l1.97,2.49c.6.76,1.18,1.52,1.75,2.26l.19.25c.21.28.41.57.61.85l.31.44c.28.39.61.86.9,1.32,1.23,1.84,2.63,4.12,4.14,6.77,2.7,4.7,4.79,10.12,6.21,16.08.88,3.62,1.44,7.05,1.68,10.21.21,2.74.3,5.51.39,8.19.07,2.26.15,4.61.3,6.9,0,.1.02.21.03.34.07.63.16,1.4-.16,2.03-.32.64-.84.99-1.42.98-.32,0-.91-.14-1.3-.96-.22-.46-.22-.92-.23-1.25-.03-1.77-.15-3.57-.28-5.3-.06-.88-.13-1.76-.18-2.65v-.2c-.04-.5-.07-1.01-.1-1.52-.42-2.22-.99-4.53-1.73-7.06-.7-2.4-1.52-4.86-2.51-7.52-1.6-4.33-3.25-8.1-5.05-11.54-1.81-3.5-4.14-7.26-7.33-11.84-.61-.89-1.26-1.76-1.8-2.49-.94-1.22-1.97-2.39-2.85-3.65-.11-.16-.21-.32-.32-.47-.06-.1-.35-.63-.52-.32-.04.07,0,.15.04.22.34.58.7,1.16,1.06,1.73.18.3.37.59.55.89.09.15.18.3.27.45.06.1.27.34.27.45.24.4.48.8.72,1.2l.37.67.75,1.37c.13.25.25.49.38.74.34.66.69,1.33,1,2.01,1.28,2.7,2.39,5.48,3.3,8.26,1.76,5.39,3.02,10.82,3.75,16.15.04.27.09.68-.03,1.13-.17.62-.76,1.23-1.54,1.21-.17,0-.34-.04-.5-.11-.85-.35-.9-1.26-.93-1.7,0-.06,0-.12-.01-.17-.15-1.02-.32-1.94-.52-2.82-.49-2.12-1.24-4.11-2.03-6.21l-.1-.27c-.53-1.36-1.11-2.74-1.72-4.1-.69-1.55-1.41-3.04-2.08-4.42-.78-1.6-1.5-3.03-2.19-4.37-1.3-2.54-3.04-5.85-4.91-9.02-.31-.52-.62-1.04-.93-1.56-.16-.26-.32-.52-.47-.78-.07-.12-.26-.54-.45-.46-.21.09-.01.63.05.77.21.5.47.99.69,1.48.27.58.52,1.16.77,1.74,1.28,2.99,2.44,6.11,3.46,9.26.99,3.07,1.88,6.28,2.62,9.53.15.65.26,1.29.37,1.92.07.4.14.8.22,1.21,1,5.27,1.7,10.56,2.07,15.73.21,3.01.39,6.24.33,9.47-.14,2.8-.41,5.7-.82,8.61-.19,1.33-.33,2.7-.48,4.02-.18,1.64-.36,3.34-.62,5.01-.11.74-.76,1.26-1.53,1.24-.19,0-.37-.04-.54-.11-1.08-.43-.96-1.48-.92-1.82,0-.06.01-.11.02-.17.04-1.11.2-2.2.36-3.25.17-1.13.33-2.2.35-3.29.01-.55.02-1.09.02-1.64.01-1.45.03-2.96.17-4.45-.13-1.72-.3-3.5-.57-5.78l-.2-1.74c-.2-1.71-.41-3.49-.62-5.43-.35-3.3-.97-6.78-1.4-9.11-.48-2.59-1.04-5.03-1.52-7.09-.47-2.01-1.01-4.05-1.53-6.02-.18-.66-.35-1.32-.52-1.98-.26-1-.51-1.99-.75-2.98-.31-1.26-.62-2.56-.98-3.85-.69-2.5-1.51-5.16-2.57-8.39-.29-.86-.5-1.81-.89-2.64-.1-.21-.29-.41-.53-.41-.24,0-.43.22-.54.43-.27.54-.24,1.16-.24,1.75,0,.47-.03.95-.04,1.42l-.04,2.18c-.03,1.56-.04,3.1-.05,4.64-.02,2.41-.03,4.9-.11,7.4-.01.5,0,1.3.02,1.55.19,1.83.2,3.95.21,5.99,0,1.15.01,2.33.05,3.44l.23,6.99.14,3.51c.05,1.16.07,2.34.09,3.49.04,1.78-.01,3.58-.06,5.32-.09,3.41-.19,6.93.35,10.31.05.33.05,1.79-.54,2.47-.25.29-.59.44-.95.43-.44-.01-.83-.25-1.15-.71-.17-.24-.25-.5-.29-.7-.38-.78-.45-1.87-.52-2.85-.02-.39-.05-.76-.09-1.01-.17-1.1-.33-2.27-.49-3.56-.54-2.77-.95-4.89-1.31-6.88-.29-1.65-.63-3.51-.86-5.33-.18-1.48-.4-3.42-.57-5.36-.43-4.66-.63-9.69-.6-14.95.02-1.68.11-3.26.21-4.93l.08-1.37c.08-1.64.19-3.42.33-5.61.03-.37.05-.73.08-1.1.04-.57.08-1.13.13-1.69l.13-1.6c.01-.15.03-.32.03-.57,0-.3-.02-.59-.06-.85-.05-.28-.13-.51-.22-.68-.08-.15-.16-.24-.24-.29-.11-.06-.28-.1-.54-.11h-.1c-.22,0-.43.01-.63.06-.46.1-.93.37-1.31.76-.17.17-.32.36-.45.54l-.43.56c-1.11,1.44-2.22,2.97-3.3,4.53-1.12,1.61-2.2,3.24-3.22,4.83-1.14,1.78-2.13,3.41-3.04,4.98-.36.62-.73,1.22-1.09,1.82-.92,1.51-1.8,2.93-2.43,4.52-.43,1.07-1.12,1.21-1.49,1.2s-.89-.17-1.3-.92c-.52-.95-.08-1.91.21-2.53.59-1.26.98-2.58,1.4-3.96.22-.74.45-1.51.71-2.27.76-2.2,1.71-4.34,2.92-6.56.61-1.12,1.33-2.29,2.22-3.59.74-1.07,1.53-2.13,2.31-3.17,0,0,.43-.58.56-.76.33-.45.67-.91.95-1.24.73-.85,1.46-1.7,2.18-2.55.33-.38.15-.81.03-1.25-.04-.15-.2-.43-.2-.58-.07-.15-.15-.28-.25-.41-.15-.2-.32-.38-.52-.53-.22-.17-.47-.32-.75-.34-.37-.03-.72.16-1.01.39-.51.39-1.04.74-1.57,1.12-2.53,1.82-4.66,3.55-6.52,5.29-.94.87-1.84,1.81-2.7,2.71l-.24.25c-1.06,1.12-1.99,2.12-2.83,3.08-3.69,4.12-7.13,8.56-10.23,13.19-.97,1.45-1.89,2.9-2.72,4.32-.88,1.51-1.63,2.98-2.22,4.38-.58,1.35-1.19,2.78-1.72,4.15-.78,1.99-1.41,3.96-1.86,5.87-.46,1.92-.77,3.96-.91,6.06-.13,1.99-.12,4.05.05,6.13.16,1.93.47,3.96.93,6.06.55,2.47,1.25,4.89,2.1,7.19.84,2.29,1.9,4.63,3.17,6.95,1.52,2.8,3.18,5.4,4.93,7.72l.37.49c.34.45.66.87,1.01,1.28l.72.88c.15.18.31.36.46.53l.27.31c2.86,3.25,6.41,6.41,11.16,9.92,1.3.54,3.01.97,4.39.5.57-.19,1.07-.55,1.6-.84,3.64-1.96,6.79.07,9.69,2.21.56.42,1.19.92,1.88,1.48.87.71,1.73,1.44,2.6,2.17.85.74,1.76,1.35,2.71,1.81,1.33.67,2.88,1.05,4.47,1.09.62.02,1.25-.02,1.88-.11.71-.09,1.4-.27,2.12-.45l.09-.02,1.11-.32,1.11-.38c.36-.13.73-.28,1.09-.42l.16-.06c.18-.08.37-.16.55-.24.24-.11.48-.21.72-.32,2.74-1.26,5.25-3,7.47-5.17,1.05-1.03,2.07-2.21,3.03-3.5.96-1.29,1.8-2.62,2.58-3.86.63-1,1.28-2.11,1.99-3.38.32-.57.64-1.14.95-1.72l.48-.89.47-.84c1.33-2.34,2.94-4.45,4.78-6.28.97-.95,1.98-1.81,3.01-2.57,1.05-.76,2.17-1.47,3.34-2.11,1.12-.59,2.29-1.13,3.6-1.64,1.39-.53,2.55-.95,3.74-1.29.47-.13.84-.22,1.18-.27.46-.07.84-.11,1.17-.12.32-.02.65-.03.96-.02,2.67.06,5.08,2.1,7.8,1.39,2.68-.7,5.18-3.82,6.53-6.09.7-1.18,1.32-2.52,1.84-3.99,1.11-3.15,1.63-6.77,1.55-10.75Z"/>
  <path class="cls-1" d="M96.82,115.38s-.09-.06-.13-.07l-.8-.29c-4.14-1.51-7.89-2.99-11.46-4.53-1.62-.7-3.38-1.51-5.53-2.54-2.36-1.13-5.13-2.51-7.79-4.1-2.27-1.36-4.57-2.95-7.05-4.86-1.68-1.28-3.32-2.66-5.01-4.2-2.47-2.23-4.63-4.84-6.87-7.32-.61-.68-1.24-1.37-2-1.87-3.8-2.52-10.25-.34-14.16.94-2.25.74-4.46,1.66-6.56,2.74-3.65,1.87-6.96,4.04-10.12,6.62-2.12,1.73-4.09,3.6-5.86,5.55-3.29,3.62-6.19,7.92-8.64,12.8-.28.53-.55,1.19-.81,1.84l-.22.54c-.84,2.09-1.61,4.49-2.35,7.35-.62,2.37-.93,4.83-1.24,7.2l-.1.76c-.01.07-.02.32-.02.48,0,.19,0,.4-.02.57l-.02.35c-.01.23-.03.47-.04.72l-.02,1.06c-.02.52-.01,1.04,0,1.54v.53c.03,2.69.23,5.21.62,7.69.1.62.21,1.19.31,1.51l.16.6c.14.53.27,1.03.44,1.55l.33,1.11c.06.22.14.43.21.65.05.15.1.3.15.46.55,1.76,1.14,3.25,1.87,4.71,1,2.08,2.51,3.98,4.1,5.64.43.45.89.9,1.47,1.12,1.18.45,2.48-.16,3.55-.82,1.22-.76,2.44-1.48,3.93-1.46.14,0,.28,0,.43,0,.41,0,.77.06,1.11.16.26.06.47.15.67.24l.16.07s.09.04.13.06l.33.2c.12.07.22.15.33.24.03.02.11.09.13.1,1.09.88,1.93,2.34,2.38,4.09.1.35.16.73.21,1.12l.13,1.09c.23,1.89.56,4.13,1.21,6.42.12.43.31.94.47,1.24,1.07,2.21,2.8,4.19,5.14,5.87,2.45,1.77,5.11,2.46,8.59,3.25,2.07.47,4.21.79,6.29,1.09,4.27.63,8.03.93,12.32.04,3.53-.73,6.99-1.82,10.56-2.33,1.33-.19,2.75-.34,3.79-1.26,1.14-1,1.8-2.55,2.44-3.89l.25-.51c.76-1.58,1.62-3.22,2.55-4.88,1.38-2.46,2.88-4.85,4.48-7.09.7-1,1.47-2.03,2.52-3.36.43-.54.88-1.09,1.35-1.63l.5-.57s0-.01,0-.02c0-.02,0-.04-.01-.06,0-.01-.04-.14-.05-.17,0-.01-.01-.03-.02-.04-.03-.05-.06-.11-.09-.16-.05-.08-.09-.12,0-.02-.03-.04-.26-.36-.32-.34l.08.06s-.07-.05-.11-.08c-.04-.02-.08-.04-.12-.07-.06-.02-.12-.04-.18-.05-.02,0-.03,0-.05-.01-.04,0-.1-.01-.1-.02-.05,0-.11,0-.17,0-.14.07-.28.15-.43.22-1.23.62-2.5,1.18-3.72,1.72-.54.24-1.08.48-1.62.72-.58.26-1.15.56-1.75.88-1.07.56-2.17,1.15-3.36,1.52-.17.05-.33.08-.5.07-.73-.02-1.33-.57-1.44-1.32-.11-.76.32-1.44,1.05-1.67,2.27-.71,4.3-2.21,6.25-3.66l.69-.51c2-1.48,3.9-2.87,5.77-4.38,2.23-1.8,4.61-3.49,6.92-5.13.58-.41,1.17-.81,1.73-1.24.44-.32.86-.54,1.05-1.1.18-.54.05-1.1-.13-1.62-.2-.58-.52-1.04-.91-1.52-.44-.53-.78-1.18-1.06-1.81-.25-.54-.43-1.11-.56-1.69-.03-.12-.05-.25-.11-.37-.19-.4-.7-.54-1.14-.49-.97.11-1.93.6-2.81,1-.61.28-1.22.56-1.84.84-1.15.53-2.67,1.22-4.2,1.85-.69.28-1.37.55-2.08.83l-2.02.71-.28.09c-.41.14-.91.31-1.31.46-2.89,1.07-5.12,1.74-7.23,2.17-.18.04-.4.1-.66.16,0,0-.79.19-.79.19-3.71.87-7.46,1.41-10.64,1.83-.63.08-1.26.17-1.89.26-2.8.39-5.69.79-8.62.8-.84-.02-1.49-.7-1.48-1.55,0-.85.65-1.5,1.5-1.5,1.13,0,2.22-.1,3.24-.28.11-.05.22-.09.34-.11.57-.12,1.13-.19,1.64-.25,3.81-1.15,7.51-2.33,11.02-3.48,1.95-.65,3.71-1.24,5.51-1.87,1.64-.58,3.36-1.23,5.43-2.04,1.21-.47,2.41-.97,3.61-1.46,1.14-.47,2.27-.93,3.39-1.37,1.88-.74,3.75-1.5,5.57-2.24,1.33-.54,2.66-1.08,3.99-1.62l.98-.39c.09-.04.18-.07.27-.11.41-.2.5-.39.53-.5,0-.02,0-.03,0-.04l-.3-.16-.56-.12c-.18-.04-.42-.08-.5-.1l-.73-.13c-.9-.15-1.84-.29-2.88-.4-1.54-.17-3.16-.28-4.94-.32-.28,0-1-.02-1-.02-.36,0-.75-.03-1.14-.05-.29-.01-.57-.03-.86-.04-1.46-.05-2.93-.1-4.4-.14-3.36-.08-6.11-.08-8.66,0-2.6.07-5.35.2-8.16.37-2.96.2-5.59.46-8.07.79-.21.03-.44.06-.67.09-.44.06-.86.12-1.15.14-2.38.17-5.85.66-8.87,2-.24.11-.48.16-.72.15-.8-.02-1.4-.63-1.43-1.46-.05-1.25,1.14-1.62,1.59-1.76.06-.02.12-.04.17-.05.99-.36,2-.67,2.98-.97.82-.25,1.67-.51,2.49-.8,2.04-.7,4.14-1.43,6.32-2.01,1.48-.39,2.97-.69,4.42-.98.81-.16,1.62-.33,2.44-.51.14-.03.37-.06.6-.1l.34-.05c2.04-.31,4.09-.55,6.12-.71l.39-.03c.47-.03.95-.06,1.41-.08,2.17-.11,4.53-.14,7.01-.08.48.01.96.03,1.44.04,3.29.11,5.91.34,8.49.74.69.11,1.39.22,2.08.33.36.06.72.12,1.08.18.17.03.81.24.91.07.05-.08.11-.2.04-.29-.03-.04-.08-.07-.13-.09-.27-.14-.57-.21-.86-.31l-.42-.14c-3.39-1.18-6.89-2.39-10.29-3.74-.88-.35-2.03-.77-2.79-1.02-1.67-.55-3.39-1.16-5.59-1.98-.54-.2-1.08-.41-1.63-.61-1.24-.47-2.52-.96-3.8-1.4-4.05-1.42-8.39-2.84-13.06-3.35-1.5-.16-1.71-1.13-1.74-1.42-.07-.69.39-1.35,1.09-1.58.21-.07.44-.1.69-.09.16,0,.31.02.47.04,2.25.3,4.63.58,6.87.79.09,0,.25.03.43.07.26.04.61.11.83.11,0,0,.02,0,.02,0,.12-.04.24-.06.36-.06.01,0,.02,0,.03,0,1.02.06,2.08.15,2.99.27,3.41.46,6.44.99,9.26,1.64,2.47.56,4.92,1.26,7.29,1.94.75.22,1.49.43,2.25.64.27.08.62.19.88.28,1.64.59,3.42,1.21,5.59,1.94l2.81.94c1.04.35,1.96.56,2.81.65.24.02.48.04.73.04.36,0,.73,0,1.1-.03.57-.05,1.14-.13,1.84-.26.32-.06.57-.16.77-.28.3-.19.46-.41.48-.54.02-.12-.04-.27-.13-.33Z"/>
</svg>