<?xml version="1.0" encoding="UTF-8"?>
<svg id="Layer_11" data-name="Layer 11" xmlns="http://www.w3.org/2000/svg" viewBox="0 0 264.64 224.74">
  <defs>
    <style>
      .cls-1 {
        fill: #1c5c7d;
      }
    </style>
  </defs>
  <g>
    <path class="cls-1" d="M229.65,143.07c.19-.07.37-.15.55-.23l3.42-1.51c1.21-.52,2.43-1.01,3.67-1.52.5-.2.98-.46,1.49-.67.22-.09.46-.17.68-.21.91-.17,1.84-.33,2.73-.38.35-.01.69.08.85.21.46.35,1.73-1.04,2.55-1.07.38-.01.75,0,1.19,0,.23-.07.49-.15.76-.22.81-.14,1.61.14,2.39.34.54.15,1.13.19,1.67.38.84.27,1.66.66,2.43,1.05.54.28,1.08.56,1.66,1l.23.18.26.24c.18.15.32.35.47.53.26.38.47.81.53,1.27.16.97-.41,1.88-1.09,2.54-.16.15-.37.31-.56.47-.22.1-.49.21-.58.24l-.81.3c-.83.3-1.65.71-2.48,1.06l-.56.23-4.11,1.81-2.18,1c-.21.1-.42.21-.5.25-.29.11-.46.16-.62.24-1.14.55-2.27,1.11-3.4,1.68-.47.24-.91.53-1.38.78-.8.42-1.61.84-2.42,1.25-1.78.89-3.59,1.69-5.43,2.37-.19.07-.37.17-.56.25-.18.07-.37.14-.56.19l-8.16,3.88.03.04c-.15.05-.32.09-.46.17-.53.29-1.05.59-1.58.87l-2.53,1.28-3.19,1.62-2.54,1.25-1.98.96-3.22,1.53-2.76,1.3-2.43,1.23c-.52.25-1.08.43-1.59.69-1.4.72-2.8,1.44-4.2,2.17-.94.46-1.9.89-2.85,1.33-.27.13-.53.3-.8.43-.6.3-1.21.56-1.78.74-.54.18-1.06.28-1.52.26-.44-.03-.87-.14-1.26-.47-.4-.36-.48-.71-.59-1.11-.01-.14-.02-.28-.03-.44-.03-.76.25-1.75.47-2.68.08-.3.15-.6.23-.9.07-.26.14-.51.23-.75.12-.35.23-.7.31-1.02l.05-.22.06-.28.1-.55c.13-.72.24-1.44.28-2.07.04-.5-.03-1.07-.08-1.77-.04-.69-.08-1.58.24-2.52.17-.54.47-1.04.81-1.47.34-.41.73-.78,1.11-1.05l.39-.28.42-.18.51-.22,1.01-.45c.32-.14.63-.29.94-.45.75-.37,1.5-.73,2.26-1.1.25-.12.53-.16.79-.27.92-.36,1.85-.73,2.76-1.11.33-.14.63-.37.96-.52.57-.26,1.15-.51,1.73-.75l2.6-1.08c.72-.3,1.44-.67,2.15-.88.82-.25,1.58-.63,2.37-.93.28-.11.55-.27.82-.4l.06-.05c.24-.1.5-.24.72-.28.75-.14,1.45-.51,2.15-.82,1.32-.59,2.61-1.25,3.94-1.82,1.04-.44,2.12-.78,3.17-1.19.78-.3,1.54-.66,2.32-.97.64-.26,1.28-.5,1.93-.74l5.35-2Z"/>
    <path class="cls-1" d="M197.31,135.99c.74-.21,1.41-.54,2.11-.8.25-.09.48-.24.72-.36l.05-.05c.21-.08.44-.21.63-.25.67-.11,1.29-.44,1.9-.72,1.16-.53,2.29-1.15,3.46-1.66.9-.42,1.85-.73,2.77-1.12.68-.29,1.33-.64,2-.95l.83-.37.3-.14c.12-.07.26-.08.37-.11l.5-.11c1.81-.35,3.62-.43,5.39-.3l.57.03c1.17.06,2.34.19,3.48.43,1.21.24,2.37.64,3.51,1.04.47.17.97.3,1.47.54.21.1.45.24.62.4.36.32.73.72,1.01,1.25.27.52.31,1.1.18,1.58-.1.39-.4.63-.59.68-.06.02-.12.02-.18.03-.07.15-.16.31-.27.48-.01,0-.03.01-.05.02.1.05.13.15.13.24,0,.24-.81,1.04-1.2,1.22-.29.13-.57.26-.9.41-.14.15-.29.33-.45.51-.5.46-1.18.61-1.8.88-.43.18-.82.48-1.25.68-.66.31-1.34.58-2.01.88-.92.42-1.83.83-2.73,1.27-.93.46-1.86.88-2.84,1.23-.74.27-1.46.65-2.2.99l-.5.21-3.65,1.64-1.95.89c-.19.09-.37.19-.45.22-.26.1-.41.14-.56.21-1.01.5-2.02.99-3.03,1.49-.42.21-.81.48-1.23.7-.71.37-1.43.74-2.16,1.09-1.58.79-3.24,1.44-4.82,2.03-.16.06-.32.15-.48.22-.16.07-.32.13-.49.17-2.37,1.19-4.76,2.47-7.28,3.56l.02.04c-.14.05-.3.07-.43.13-.5.23-.98.5-1.51.7-.4.17-.81.32-1.23.46-.41.15-.84.27-1.28.39-.53.17-1.11.26-1.67.39-.58.07-1.15.17-1.76.17-.96.04-1.81-.08-2.67-.16-.66-.08-1.32-.16-1.97-.26-1.06-.16-2.09-.33-3.16-.52-.91-.17-1.8-.38-2.7-.57l-1.21-.25-.64-.14c-.33-.08-.66-.17-.99-.26-.83-.24-1.55-.6-2.11-.95-1.35-.92-1.01-2.01.04-3.03.38-.37.83-.73,1.37-1.05.34-.2.73-.41,1.04-.58l.62-.34,1.24-.67c.24-.13.46-.29.7-.41.3-.15.61-.26.91-.41.28-.14.56-.29.84-.44.64-.33,1.29-.66,1.93-.98.85-.45,1.67-.99,2.55-1.34,1.26-.52,2.46-1.12,3.69-1.68l3.12-1.51c1.2-.56,2.41-1.08,3.61-1.63l.84-.4c.67-.33,1.34-.66,2.02-.98.22-.1.48-.14.71-.22.83-.31,1.65-.62,2.47-.96.3-.12.56-.33.85-.46.51-.23,1.03-.44,1.55-.65l2.32-.93c.64-.26,1.28-.58,1.92-.76Z"/>
    <path class="cls-1" d="M172.29,129.66c.12-.03.26-.04.37-.09.43-.2.86-.42,1.29-.6.69-.28,1.39-.56,2.1-.81.89-.33,1.78-.66,2.71-.94.74-.23,1.48-.4,2.31-.55.66-.09,1.24-.12,1.84-.15.96-.03,1.92-.03,2.87.01.82.03,1.63.11,2.45.18.73.07,1.47.11,2.22.25.48.09.94.27,1.43.4.35.1.65.18,1.06.36.47.21.93.48,1.29.83l.25.28c.07.1.13.21.2.32.07.11.11.23.17.34.28.54-.08,1.66-.17,2.2-.2,1.14-1.75,1.45-2.66,1.88-.21.1-.4.25-.62.34-.26.12-.54.21-.81.32-.25.11-.5.24-.75.36-.57.27-1.14.54-1.7.82-.75.38-1.46.86-2.23,1.16-1.11.44-2.15.97-3.22,1.48-.91.44-1.8.93-2.7,1.38l-3.12,1.52c-.24.12-.48.25-.72.38-.58.31-1.15.63-1.73.93-.19.1-.42.13-.62.21-.72.3-1.43.59-2.14.91-.26.12-.47.32-.73.44-.44.22-.89.42-1.34.62l-2.01.89c-.56.25-1.11.56-1.67.72-.65.19-1.23.51-1.84.76-.22.09-.42.22-.63.34l-.04.05c-.19.08-.38.2-.56.23-.6.09-1.13.4-1.67.67-1.01.5-2,1.05-3.02,1.53-.8.37-1.64.64-2.46.98-.6.25-1.18.55-1.78.82-1.57.67-2.71.82-4.42.56-.78-.12-1.55-.27-2.29-.45-.16-.04-.32-.06-.48-.09-.99-.21-1.97-.43-2.92-.69l-2.95-.85c-.4-.1-.81-.15-1.21-.23-.17-.03-.36-.09-.51-.16-.93-.44-2.31-.81-3.19-1.4-.06-.04-.12-.08-.18-.13-.53-.41-.51-1.02-.2-1.55.11-.19.23-.33.33-.41.28-.23.55-.4.87-.57.12-.16.27-.34.42-.52.48-.46,1.13-.56,1.71-.76.4-.14.78-.37,1.17-.51l.81-.27.88-.37c.8-.35,1.61-.71,2.39-1.1.81-.4,1.63-.77,2.48-1.08.65-.23,1.28-.58,1.92-.87l.44-.18,3.21-1.45,1.72-.78c.16-.08.33-.16.4-.19.23-.08.37-.12.49-.18l2.7-1.27c.37-.18.71-.41,1.08-.6.63-.32,1.26-.64,1.9-.94,1.4-.67,2.84-1.24,4.32-1.69.15-.05.29-.12.44-.17.15-.05.29-.09.45-.12,2.17-.92,4.36-1.83,6.57-2.69l-.02-.04Z"/>
    <path class="cls-1" d="M264.4,160.63c-.08.19-.2.4-.26.52-.07.13-.22.33-.33.49-.66.78-1.34,1.3-2.03,1.88-.69.55-1.39,1.08-2.1,1.6-1.41,1.03-2.85,2.03-4.29,3.01-.5.34-1.02.7-1.5,1.04-2.55,1.85-5.11,3.66-7.71,5.44-1.08.74-2.31,1.59-3.33,2.17-3.41,1.97-6.71,4.22-10.06,6.34l-2.96,1.86c-2.01,1.27-4.03,2.54-6.03,3.84-3.32,2.15-6.74,4.33-9.86,6.49-5.25,3.63-10.49,7.32-15.83,10.88-.98.65-2.01,1.39-2.82,2-1.99,1.53-4.26,2.92-6.57,4.26-3.74,2.19-7.53,4.27-11.41,6.23-1.92.99-3.92,1.94-5.99,2.72-2.07.78-4.28,1.36-6.52,1.59-3.18.35-6.58.13-9.6-.04-.44-.03-1.1.02-1.67.03-4.3.13-8.63.29-12.93.46-.82.03-1.71.08-2.42.16-3.34.36-6.98.5-10.61.63-1,.03-2.03-.02-3.03-.04-.9-.02-1.79-.07-2.67-.05-3.01.1-6.04.19-9.01.32-5.8.24-11.59.36-17.4.21-1.66-.04-3.23-.19-4.87-.23-3.84-.08-7.72-.21-11.56-.33-2.79-.11-5.55-.17-8.36-.36-2.79-.22-5.58-.53-8.35-1-4.7-.77-9.33-1.93-13.9-3.17-2.89-.8-5.76-1.56-8.62-2.44-3.45-1.06-6.9-2.26-10.32-3.27-.4-.12-.81-.25-1.22-.37-.54-.03-1.09-.09-1.66-.24-4.02-1.04-8.03-2.07-12.05-3.11-1.83-.47-4.03-.98-6.05-1.78-2.01-.8-3.85-1.89-4.91-3.54-1.18-1.85-1.7-3.73-2.38-5.76-.48-1.45-.8-3.12-.97-4.63C.06,192.82,0,191.32,0,189.89,0,187.48.17,185.23.19,182.9c.04-4.12.54-8.2.8-12.27.25-3.83.5-7.68,1.12-11.48.44-2.69,1.08-5.4,2.41-7.81.95-1.72,2.27-3.27,3.93-4.36.88-.58,1.53-.74,2.51-.96.69-.15,1.39-.41,2.14-.52,3.99-1.34,8.13-2.61,12.48-3.73,2.34-.71,4.68-1.41,7.06-2,4-.92,8.04-1.74,12.1-2.35.82-.14,1.63-.19,2.44-.3,5.05-.78,10.17-1.27,15.27-1.43,1.79-.11,3.56-.06,5.34-.11,1.78,0,3.56.09,5.35.17,1.32.14,2.66.28,3.99.42,1.33.18,2.66.43,3.99.63l3.75.77c1.24.32,2.48.62,3.71.95l3.33,1.01,3.29,1.13c3.42,1.24,6.78,2.63,10.09,4.08,3,1.32,5.97,2.69,8.95,4.01,2.31,1.02,4.62,2.04,6.95,2.97,1.05.43,2.11.85,3.18,1.24,1.06.4,2.13.8,3.21,1.15,5.99,2.03,12.15,3.63,18.29,5.39,3.34.95,6.97,1.69,10.48,2.48,3.17.69,6.36,1.44,9.53,1.98,4.01.67,8.1,1.04,12.18,1.78.27.05.54.1.81.15.32.07.72.1,1,.28.61.37.96,1.04,1.04,1.65.13.98-.09,1.74-.32,2.51-.25.76-.56,1.47-.89,2.17-.34.69-.68,1.37-1.06,2.02-.2.33-.41.66-.61.98-.24.31-.46.62-.71.92-.8.94-1.84,1.71-3,2.18-1.16.47-2.39.65-3.57.73-2.38.13-4.66-.03-7.01.06-1.29.02-2.62.08-3.97.13-1.34.01-2.7.06-4.03.05-4.49-.03-8.93-.35-13.33-.5-1.88-.06-4.14-.31-6.15-.56-3.35-.42-6.65-.85-10.04-1.22-6.81-.73-13.6-1.58-20.45-1.8l-2.56-.07c-.18,0-.35.01-.52.04-.33.05-.85.16-1.13.35-.46.32-.05.79.2,1.09,0,0,.15.18.15.18l.28.33c.4.46.84.9,1.29,1.33,1.58,1.47,3.85,1.71,5.91,2.19,2.19.51,4.39.95,6.6,1.34,2.08.38,4.28.72,6.25,1.09,5.78,1.09,11.66,1.53,17.52,2.08,3.48.33,6.94.67,10.41.94,1.28.1,2.55.22,3.83.3,5.09.3,10.16.35,15.18.2,2.27-.07,4.87-.45,7.27-.98,1.52-.37,3.07-.7,4.58-1.11,1.51-.44,3.03-.81,4.5-1.25,1.08-.32,2.09-.65,3.09-.98,1-.33,1.95-.74,2.94-1.13,5.13-2.11,10.32-4.3,15.52-6.61,2.06-.92,4.13-1.96,6.19-2.98,2.7-1.33,5.4-2.66,8.11-3.99,1.09-.53,2.19-1.06,3.27-1.6,3.64-1.81,7.31-3.59,11-5.31,3.71-1.7,7.45-3.32,11.25-4.8,1.13-.43,2.29-.87,3.52-1.17,1.23-.31,2.52-.49,3.79-.46.63.01,1.26.06,1.87.14.6.08,1.27.2,1.86.38,1.19.35,2.33.78,3.45,1.32.66.32,1.33.66,1.97,1.14.55.41,1.18,1.09,1.26,1.86.04.43-.05.85-.22,1.24Z"/>
  </g>
  <g>
    <path class="cls-1" d="M172.76,65.8c.02-1.24.05-2.48-.11-3.69-.02-.17-.01-.4-.02-.61-.01-.41-.02-.83-.03-1.24v-.62s-.01-.33-.01-.33c0-.08,0-.16-.02-.24-.02-.08-.03-.16-.07-.23-.05-.15-.15-.3-.21-.4-.07-.1-.14-.2-.22-.29-.15-.18-.3-.35-.46-.51-.32-.31-.65-.6-1.06-.86-.05-.03-.12-.08-.2-.11-.07-.04-.15-.07-.23-.1-.08-.04-.16-.03-.24-.06-.08,0-.16,0-.25,0h-.65c-.43.02-.87.02-1.3.02-.87,0-1.74-.02-2.61-.03-.38,0-.76,0-1.13-.02-1.22-.07-2.46-.04-3.6.05-.83.07-1.6.06-2.38.03-.96-.04-1.88-.07-2.85-.02-.56.03-1.19.04-1.73,0-1.34-.09-2.66.03-3.99,0-.06,0-.13.04-.21.05-1.22.28-2.72.35-4.1.23-1.33-.12-2.69-.11-4.01-.19-1.19-.07-2.47-.05-3.72-.06-1.56,0-3.13-.01-4.69,0l-2.79.02h-1.4c-.23.01-.45,0-.74.03-.27.03-.54.08-.79.18-.82.29-1.49.93-1.85,1.71-.18.39-.29.82-.31,1.25-.02.39-.03.74-.06,1.12-.05.69-.07,1.47-.04,2.16.08,1.74.06,3.45-.04,5.16-.07,1.23-.08,2.48-.06,3.73.01.63.01,1.28,0,1.91,0,.96-.04,1.92.05,2.84.04.39.07.75.06,1.17-.02.96-.03,1.91-.04,2.87,0,1.18-.02,2.36-.04,3.54-.03,1.41.02,2.84.03,4.26,0,.64.02,1.27.01,1.91,0,.48-.05.97-.05,1.45.03,2.64.1,5.28.05,7.93-.03,1.35-.05,2.71-.05,4.07,0,.75.03,1.49.05,2.24,0,.11,0,.22,0,.33-.01.61-.03,1.21-.04,1.82-.01,1.02.09,2.03.22,3.04.1.77,0,1.56.35,2.28s.92,1.25,1.63,1.62c.1.05.2.09.31.12.1.04.21.07.32.09.11.03.22.05.34.06.11.01.25.03.32.03.35.03.72.04,1.11.04.81,0,1.66.02,2.41-.05.94-.08,1.86-.15,2.82-.12,2.12.06,4.15-.11,6.23-.17.86-.02,1.73-.06,2.59-.07.99-.01,1.97,0,2.95-.06.51-.03,1.05-.07,1.55-.05,1.28.05,2.5,0,3.67-.14.76-.09,1.52-.09,2.31-.03.28.02.57.04.85.05,1.13.01,2.27.03,3.4.04.2,0,.42.01.61,0,1.15-.07,2.29-.06,3.46-.03,2,.04,4.02.03,6.03.05.31,0,.62.03.93.04l.47.03s.1,0,.16,0c.06,0,.12,0,.18-.02.12-.02.24-.06.33-.1.33-.13.58-.3.82-.48.24-.18.46-.38.67-.59l.15-.16c.05-.06.11-.12.16-.19.1-.13.19-.27.27-.41.16-.28.27-.59.34-.91.07-.31.08-.67.07-.91v-.81s0-1.61,0-1.61c-.01-.83-.02-1.67-.12-2.45-.15-1.14-.08-2.35-.01-3.55.05-.88.13-1.76.14-2.65.02-1.59.06-3.2-.04-4.79-.03-.47,0-.99,0-1.48l.05-4.1c0-1.16-.03-2.33-.01-3.49.02-1.22.05-2.42-.02-3.64-.06-1.02-.1-2.05-.14-3.08,0-.2,0-.41-.01-.61-.04-1.21.06-2.36.1-3.53.02-.86.07-1.72.14-2.55.15-1.97.19-3.96.1-6.01-.02-.38-.03-.76-.03-1.13Z"/>
    <path class="cls-1" d="M118.13,97.61c0-.95.04-1.92-.05-2.83-.04-.39-.07-.75-.06-1.17.02-.95.03-1.91.04-2.86,0-1.18.02-2.36.04-3.54.03-1.41-.02-2.84-.03-4.26,0-.63-.02-1.27-.01-1.9,0-.48.05-.97.05-1.45-.03-2.64-.1-5.27-.05-7.91.03-1.35.05-2.71.05-4.07,0-.74-.03-1.49-.05-2.24,0-.11,0-.22,0-.33.01-.61.03-1.21.04-1.82.01-.89-.1-1.77-.21-2.65-.1-.83,0-1.8-.34-2.57-.33-.72-.91-1.34-1.71-1.69-.2-.08-.41-.15-.64-.2-.22-.05-.48-.06-.63-.08-.35-.03-.72-.04-1.11-.04-.8,0-1.66-.02-2.4.05-.93.08-1.85.15-2.81.12-2.12-.06-4.15.11-6.22.17-.86.02-1.72.06-2.59.07-.99.01-1.97,0-2.94.06-.51.03-1.05.07-1.55.05-1.28-.05-2.49,0-3.66.14-.76.09-1.52.09-2.3.03-.28-.02-.56-.04-.85-.05-1.13-.01-2.26-.03-3.39-.04-.2,0-.42-.01-.61,0-1.15.07-2.28.06-3.45.03-2-.04-4.01-.03-6.02-.05-.31,0-.62-.03-.93-.04l-.47-.03h-.06s-.06,0-.09,0l-.18.02c-.12,0-.23.06-.34.09-.22.09-.37.19-.53.3-.15.11-.29.23-.42.35-.26.24-.49.5-.7.78-.21.28-.4.58-.55.91-.07.17-.14.35-.19.55-.03.09-.04.22-.05.32-.01.11,0,.25.02.38v-.1c0,.88.01,1.75.03,2.63.02.83.04,1.67.15,2.44.16,1.14.11,2.35.06,3.54-.04.88-.11,1.76-.11,2.65,0,1.59-.03,3.2.09,4.78.03.46.01.98.01,1.48l-.02,4.1c0,1.16.04,2.33.03,3.49-.01,1.22-.05,2.42.03,3.63.06,1.01.1,2.05.14,3.07,0,.2,0,.4.01.61.04,1.21-.07,2.35-.1,3.53-.03.86-.08,1.72-.15,2.54-.16,1.96-.22,3.95-.15,6,.01.37.02.76.01,1.13-.04,1.24-.09,2.47.06,3.68.02.17,0,.4,0,.61,0,.41,0,.82,0,1.24v.32c0,.13.01.25.03.37.03.25.09.49.18.73.09.24.21.46.35.67.07.1.15.21.23.3.08.09.16.17.24.25.33.32.68.61,1.11.84.11.06.23.12.37.17.14.05.31.1.47.1.04,0,.08,0,.12,0h.08s.16,0,.16,0h.32c.43-.01.87-.01,1.3-.01.87,0,1.74.02,2.6.03.37,0,.76,0,1.12.02,1.22.07,2.45.04,3.59-.05.83-.07,1.6-.06,2.38-.03.95.04,1.88.07,2.85.02.56-.03,1.19-.04,1.73,0,1.34.09,2.66-.03,3.98,0,.06,0,.13-.04.21-.05,1.21-.28,2.72-.35,4.09-.23,1.33.12,2.68.11,4.01.19,1.19.07,2.47.05,3.71.06,1.56,0,3.12.01,4.69,0l2.79-.02h1.4s.35-.02.35-.02c.14-.01.27,0,.41-.03.27-.03.53-.12.79-.22.8-.33,1.44-1.01,1.74-1.82.04-.1.08-.2.1-.31.03-.1.05-.21.07-.32.02-.11.03-.21.04-.32v-.16s.02-.14.02-.14c.01-.37.03-.74.06-1.1.05-.69.07-1.46.04-2.15-.08-1.74-.06-3.44.04-5.16.07-1.23.08-2.47.06-3.73-.01-.63-.01-1.27,0-1.91Z"/>
    <path class="cls-1" d="M124.76,27.76h.25c.1.02.21.02.31,0,.2-.02.4-.09.57-.21.17-.12.3-.28.4-.47.54-1.01,1.1-2.04,1.65-3.07.39-.74.82-1.47,1.25-2.19.65-1.08,1.35-2.14,1.95-3.18.26-.45.5-.86.83-1.3.75-1.01,1.54-1.99,2.35-2.94,1.01-1.18,2.08-2.29,3.26-3.26,1.4-1.15,2.93-2.2,4.63-2.72.38-.12.76-.2,1.15-.27.39-.05.78-.09,1.17-.07.3,0,.6.04.86.1.28.06.56.15.84.24.77.25,1.53.6,2.13,1.08.3.24.56.51.72.79l.09.21c.01.07.04.14.05.22.02.2.05.39.05.59.03.4-.02.8-.07,1.2-.07.4-.15.8-.28,1.2-.25.79-.61,1.56-1.04,2.29-.88,1.49-2.01,2.86-3.25,4.11-.68.68-1.38,1.36-2.13,1.97-.11.09-.23.17-.35.26-.63.46-1.29.88-1.97,1.25-.05.03-.1.05-.14.08-.02.01-.04.02-.06.04,0,0-.03.01-.03.01-.81.36-1.61.75-2.34,1.24-.23.16-.47.33-.67.52-.13.12-.22.29-.36.41-.21.18-.63.25-.81.47-.07.09-.14.24-.14.45,0,.1.03.23.1.35.06.13.17.26.34.36.08.05.17.09.28.12.05.01.1.02.15.03.03,0,.07.01.11.02.12.02.25.04.4.05,1.71.2,3.27.45,5.36.45,1.07,0,2.21.02,3.2-.05.51-.03,1.01-.06,1.51-.09.25,0,.51-.02.76-.03h.25c.12,0,.23-.01.35-.04.23-.05.44-.15.62-.3.11-.09.22-.19.33-.28.09-.08.19-.16.29-.24,1.12-.94,2.1-2,2.96-3.13.86-1.13,1.62-2.32,2.3-3.56.57-1.04,1.04-2.12,1.46-3.23.47-1.27.85-2.58.97-3.93.01-.17.04-.35.04-.53,0-.18.01-.36.02-.54.03-.36,0-.72.02-1.07,0-.89-.1-1.77-.35-2.59-.1-.42-.28-.8-.43-1.19-.09-.19-.19-.37-.29-.55-.1-.18-.2-.36-.32-.52-.58-.89-1.24-1.7-1.98-2.47-.13-.14-.26-.28-.41-.41-.15-.13-.3-.25-.46-.38-1.23-.96-2.63-1.66-4.08-2.2-.26-.09-.53-.21-.79-.26-1.52-.39-3.07-.62-4.68-.59-1.37.02-2.74.27-4.05.69-1.31.42-2.56,1.01-3.74,1.7-.36.23-.74.42-1.09.65-.35.23-.73.44-1.06.71-2.34,1.74-4.39,3.83-6.19,6.08-.69.88-1.38,1.77-1.9,2.68-.78,1.32-1.73,2.62-2.65,3.93l-.51.73-.37.52c-.06.08-.1.16-.18.21-.07.05-.16.06-.25.04-.08-.02-.16-.07-.21-.14-.05-.07-.08-.15-.12-.23l-.02-.04c-.13-.25-.43-.79-.68-1.24-.26-.46-.54-.92-.82-1.36-.57-.9-1.18-1.76-1.86-2.57-.4-.48-.82-1.04-1.25-1.55-1.18-1.41-2.49-2.72-3.96-3.85-1.26-.95-2.63-1.76-4.08-2.38-.75-.34-1.54-.61-2.33-.83-.4-.1-.8-.2-1.21-.26-.41-.08-.82-.11-1.23-.14-1.38-.09-2.79-.01-4.15.23-.26.05-.54.1-.8.15-1.58.32-3.11.71-4.54,1.46-1.04.54-2.02,1.23-2.86,2.01-1,.94-1.82,2.12-2.32,3.46-.51,1.33-.67,2.81-.52,4.25.03.26.06.53.12.79.04.27.1.53.15.78.18.86.45,1.69.81,2.47.36.78.82,1.52,1.37,2.16.16.19.34.44.51.66,1.44,1.76,3.13,3.27,4.94,4.57.47.34.94.67,1.42,1.01l.11.08s.09.06.13.09c.09.06.19.1.3.12.2.05.46.03.58.03h.87c1.16,0,2.31.02,3.47.03.5,0,1.01,0,1.5.02.81.04,1.63.05,2.43.03.4,0,.8-.02,1.19-.03.6-.02,1.21-.03,1.73-.06.37-.05.6-.15.82-.22.1-.04.2-.07.31-.15.1-.08.19-.21.25-.35.23-.62-.48-1.04-.91-1.31-.49-.3-.95-.68-1.46-.95l-.41-.22c-.55-.29-1.1-.59-1.67-.88-.66-.34-1.38-.75-1.97-1.16-1.45-1-2.97-1.87-4.32-2.97-.06-.05-.16-.08-.25-.13-.71-.39-1.45-.9-2.12-1.53-.33-.32-.65-.66-.92-1.03-.27-.37-.51-.76-.65-1.17-.13-.38-.2-.82-.23-1.23-.03-.41,0-.82.14-1.17.26-.7,1-1.12,1.79-1.4,1.44-.5,3.06-.82,4.6-.59,1.95.26,3.75,1.27,5.27,2.58,1.82,1.57,3.31,3.53,4.6,5.61,1.01,1.66,1.93,3.39,2.63,5.2.16.42.34.87.52,1.32.09.22.19.45.28.67l.1.23c.04.09.08.17.12.25.09.15.22.28.36.37.21.13.45.18.69.17.3,0,.59,0,.89,0,.27,0,.54,0,.8,0,.53,0,1.07,0,1.6.02,1.06.02,2.12.07,3.18.13l.39.02Z"/>
    <path class="cls-1" d="M71.39,49.88c.64.04,1.27.07,1.92.02.38-.03.8-.04,1.17,0,.9.09,1.79-.03,2.68,0,.04,0,.09-.04.14-.05.82-.28,1.83-.35,2.76-.23.9.12,1.81.11,2.7.19.8.07,1.66.05,2.5.06,1.05,0,2.11.01,3.16,0l3.76-.04c1,0,1.99-.03,2.98.08.46.05.99.07,1.45.04,1.17-.08,2.32-.06,3.48.04.83.07,1.67.08,2.51.06.43-.01.86-.01,1.29,0,.64,0,1.29.04,1.91-.05.26-.04.51-.07.79-.06.64.02,1.29.03,1.93.04.8,0,1.59.02,2.38.04.95.03,1.91-.02,2.87-.03h.64c.11-.01.2-.01.34-.02.13,0,.26-.01.39-.03.39-.05.79-.13,1.14-.32.48-.27.88-.65,1.18-1.1.3-.45.48-.97.55-1.5.02-.13.02-.27.02-.4v-.34s0-.67,0-.67c0-.44,0-.89.02-1.34.03-.91.05-1.83.05-2.74,0-.5-.03-1.01-.05-1.51,0-.07,0-.15,0-.23.01-.41.03-.82.04-1.22,0-.43-.03-.87-.08-1.3-.06-.47-.23-.93-.21-1.4.04-.88-.06-1.62-.63-2.34-.36-.45-.9-.86-1.61-1.03-.18-.05-.37-.07-.56-.1-.19-.01-.4-.02-.51-.02-.27,0-.54.01-.79.05-.63.08-1.25.15-1.9.12-1.43-.06-2.79.11-4.19.17-.58.02-1.16.06-1.75.07-.66.01-1.33,0-1.98.06-.34.03-.71.07-1.04.05-.86-.05-1.68,0-2.47.14-.51.09-1.03.09-1.55.03-.19-.02-.38-.04-.57-.05-.76-.01-1.52-.03-2.29-.04-.14,0-.28-.01-.41,0-.77.07-1.54.06-2.33.03-1.35-.04-2.7-.03-4.06-.05-.21,0-.42-.03-.63-.04-.21-.01-.42-.04-.63-.04-1.45-.02-2.89-.03-4.34.02-.56.02-1.12.03-1.65.14-.77.16-1.58.11-2.39.05-.59-.04-1.19-.11-1.78-.12-1.07,0-2.15-.04-3.22.07-.31.03-.66,0-1,0l-2.76-.03c-.78,0-1.57.03-2.35.02-.82-.02-1.63-.05-2.45.02-.17.01-.34.03-.52.04-.15.02-.41,0-.6.1-.2.09-.34.17-.5.26-.15.09-.3.19-.45.28-.11.08-.24.14-.35.22-.17.12-.35.22-.52.39-.16.15-.3.31-.43.48-.26.34-.47.71-.61,1.11-.1.3-.18.6-.23.92-.04.29-.08.58-.12.87-.19,1.34-.19,2.7-.08,4.07.02.25.04.51.04.76,0,.42-.02.83,0,1.24,0,.21.02.41.03.61.02.2.04.38.07.58.02.12,0,.26-.01.4-.01.53-.06,1.13.11,1.77.08.32.22.62.4.89.17.28.38.49.61.71.06.05.13.11.18.14.3.19.55.32.83.47.27.14.54.28.84.41.18.08.41.14.62.13h.44s.88.03.88.03c.25,0,.51,0,.76.02.82.07,1.65.04,2.42-.05.56-.07,1.08-.06,1.6-.03Z"/>
    <path class="cls-1" d="M181.25,37.69c-.04-.28-.07-.55-.09-.82-.01-.14-.02-.27-.03-.41-.02-.15-.03-.32-.07-.47-.17-.74-.53-1.36-1.04-1.87-.3-.3-.66-.59-1.01-.84-.22-.15-.47-.28-.76-.35-.14-.04-.3-.05-.45-.06h-.34c-.45.02-.89.04-1.34.03-.04,0-.09.04-.14.05-.82.28-1.83.35-2.75.23-.89-.12-1.81-.11-2.7-.19-.8-.07-1.66-.05-2.5-.06-1.05,0-2.1-.01-3.15,0l-3.76.04c-.99,0-1.99.03-2.98-.08-.46-.05-.98-.07-1.45-.04-1.17.08-2.32.06-3.47-.04-.83-.07-1.66-.08-2.51-.06-.43.01-.86.01-1.28,0-.64,0-1.29-.04-1.91.05-.26.04-.51.07-.79.06-.64-.02-1.28-.03-1.93-.04-.8,0-1.58-.02-2.38-.04-.95-.03-1.91.02-2.86.03-.43,0-.85.02-1.28.01-.33,0-.65-.05-.97-.05-1.77.03-3.54.1-5.32.05-.91-.03-1.82-.05-2.74-.05-.25,0-.5,0-.75.02h-.09s-.11.01-.11.01l-.23.02c-.15.03-.3.05-.45.09-.09.03-.18.04-.26.07-.47.14-.92.38-1.3.71-.38.34-.6.73-.71,1.07-.14.43-.07.96-.13,1.41-.18,1.28-.69,2.47-.68,3.79,0,.54-.02,1.12.05,1.62.08.63.15,1.25.12,1.89-.03.71,0,1.41.04,2.1.02.35.05.7.07,1.06.03.44.14.87.32,1.27.31.66.82,1.21,1.43,1.58.35.21.73.37,1.13.45.2.03.4.06.6.05.11,0,.18,0,.27,0l.25-.02c.34-.03.7-.07,1.04-.05.86.05,1.68,0,2.46-.14.51-.09,1.02-.09,1.55-.03.19.02.38.04.57.05.76.01,1.52.03,2.28.04.14,0,.28.01.41,0,.77-.07,1.54-.06,2.32-.03,1.34.04,2.7.03,4.05.05.21,0,.42.03.63.04.21.01.42.04.63.04,1.44.02,2.89.03,4.33-.02.56-.02,1.12-.03,1.65-.14.77-.16,1.58-.11,2.38-.05.59.04,1.19.11,1.78.12,1.07,0,2.15.04,3.21-.07.31-.03.66,0,1,0l2.76.03c.78,0,1.57-.03,2.35-.02.82.02,1.63.05,2.44-.02.68-.06,1.38-.09,2.07-.13.13,0,.27,0,.41,0,.81-.03,1.58.08,2.37.11.58.03,1.15.09,1.71.16,1.32.17,2.66.23,4.04.17.13,0,.25,0,.38-.01h.1s.06,0,.12,0c.1,0,.21-.01.3-.03.59-.12,1-.36,1.39-.64.38-.28.7-.61.94-1.01.07-.12.19-.24.28-.38.09-.13.17-.28.25-.44.04-.09.08-.16.11-.26.03-.09.07-.2.07-.27.06-.32.09-.61.12-.9.05-.57.07-1.13.05-1.7-.03-1.17-.01-2.35.01-3.52,0-.25,0-.51,0-.76.06-.82,0-1.66-.12-2.43Z"/>
  </g>
</svg>