<?xml version="1.0" encoding="UTF-8"?>
<svg id="Layer_11" data-name="Layer 11" xmlns="http://www.w3.org/2000/svg" viewBox="0 0 224.84 252">
  <defs>
    <style>
      .cls-1 {
        fill: #1c5c7d;
      }
    </style>
  </defs>
  <path class="cls-1" d="M224.78,188.36c-.08-.77-.24-1.54-.49-2.29-.48-1.49-1.31-2.86-2.34-3.98-.51-.56-1.1-1.06-1.68-1.49-.57-.41-1.2-.8-1.89-1.13-1.37-.67-3.02-1.02-4.55-.96-.98.03-1.89.22-2.74.45-.84.24-1.61.56-2.35.89-1.45.68-2.75,1.47-3.99,2.25-1.41.89-2.75,1.8-4.04,2.69-1.22.85-2.43,1.7-3.63,2.54-.14.12-.3.24-.47.36-.17.12-.35.24-.56.28-.41.1-.87-.07-1.1-.42-.14-.23-.28-.45-.42-.68-.23-.36-.46-.71-.68-1.06-.54-.82-1.07-1.62-1.59-2.42-1.07-1.59-2.15-3.15-3.3-4.65-1.5-1.97-2.61-4.14-3.63-6.48-.36-.83-.75-1.69-1.2-2.51-1.8-3.26-3.9-6.33-5.89-9.34-.36-.54-.71-1.12-1.09-1.61-1.13-1.44-2.15-2.92-3.06-4.48-.87-1.6-1.71-3.24-2.55-4.9-.72-1.43-1.45-2.87-2.17-4.3-.73-1.45-1.49-2.89-2.28-4.32-1.57-2.87-3.26-5.71-5.22-8.45-.62-.85-1.17-1.74-1.83-2.58-.31-.43-.67-.85-1.02-1.27-.34-.43-.75-.82-1.16-1.21-.34-.34-.75-.64-1.13-.95-.37-.32-.82-.59-1.26-.87-.42-.28-.92-.55-1.4-.76-.48-.22-.96-.39-1.44-.55-1.9-.61-3.75-.88-5.57-1.05-1.82-.16-3.61-.21-5.39-.18-1.75.06-3.5.14-5.24.24-2.68.18-5.36.35-7.85.91-3.64.82-7.54.74-11.4.67-2.85-.06-5.69-.24-8.54-.14-2.82.14-5.29.72-7.65.82-.61.02-1.23.07-1.8.08-.55,0-1.1-.01-1.61-.09-1.03-.13-1.9-.44-2.58-.96-.4-.32-.71-.8-.88-1.37-.16-.52-.24-1.36-.34-2.12-.13-1.06-.24-2.14-.29-3.18-.01-.26-.02-.51-.02-.75,0-.12,0-.22,0-.34l.04-.35c.03-.23.03-.47.07-.69l.14-.65c.24-.84.62-1.56,1.18-2.13.55-.57,1.28-1,2.13-1.31.72-.26,1.51-.41,2.36-.51.87-.1,1.78-.17,2.69-.22.91-.04,1.82-.08,2.75-.06.93.02,1.85.05,2.78.09,1.94.09,3.87.2,5.8.27,1.95.07,3.91.09,5.88,0,1.65-.07,3.3-.12,4.96-.16,1.67-.08,3.34-.2,5.01-.38.65-.07,1.32-.1,1.97-.18,1.96-.25,3.88-.45,5.82-.86.97-.2,1.94-.48,2.9-.87.96-.39,1.94-.96,2.76-1.78.59-.6,1.11-1.31,1.49-2.09.38-.78.62-1.62.74-2.46.11-.84.12-1.68.02-2.51-.11-.84-.32-1.65-.6-2.42-.69-1.82-1.9-3.53-3.65-4.75-.87-.6-1.87-1.07-2.92-1.36-.26-.07-.53-.14-.79-.18l-.4-.07c-.13-.02-.28-.05-.37-.05l-1.24-.14c-3.3-.32-6.64-.36-9.94-.17-1.21.06-2.47.12-3.67.08-2.02-.06-3.97-.14-5.94-.12-.98.01-1.96.05-2.93.12-.97.06-1.93.15-2.89.28-.55.07-1.27,0-1.91-.01-1.3-.02-2.6-.08-3.88-.18-.63-.05-1.3-.11-1.91-.18-.59-.07-1.16-.15-1.69-.28-2.15-.49-3.5-1.46-4.55-3.25-1.21-2.12-1.92-4.66-2.36-7.29-.44-2.64-.63-5.38-.82-8.17-.08-1.21-.24-2.46-.3-3.67-.05-1.01-.14-2.04-.3-3.08-.11-.55-.23-1.11-.36-1.66-.16-.54-.35-1.07-.54-1.6-.83-2.09-2.08-3.93-3.53-5.4-2.09-2.16-4.26-3.83-6.68-5.24-1.49-.83-3.07-1.52-4.75-1.89-.21-.05-.42-.11-.63-.15l-.64-.1c-.43-.05-.85-.14-1.29-.15-.44-.02-.87-.02-1.31-.03-.42,0-.86.04-1.3.09-2.01.23-4.12.73-5.97,1.14-2.29.51-4.45,1.51-6.41,2.85-1.95,1.35-3.74,3.03-5.16,5.12-.13.2-.14.51-.21.79-.31,1.14-.54,2.35-.61,3.56,0,.15-.02.31-.03.45v.42c-.02.28-.03.56-.04.84-.03.56-.07,1.13-.1,1.7-.17,2.28-.42,4.59-.81,6.81-.75,4.3-.67,8.72-.84,13.03-.15,3.89.23,8.01.49,12,.33,5.02.71,10.02.96,14.99.07,1.48.14,2.96.18,4.44.05,1.48.06,2.93.08,4.46.05,3.03.18,6.07.45,9.12.22,2.42.55,4.85,1,7.27.45,2.42,1.01,4.85,1.77,7.3.36,1.14.83,2.36,1.49,3.51.65,1.15,1.46,2.25,2.37,3.17,1.15,1.14,2.45,2.15,3.86,2.95.7.4,1.45.75,2.17,1.04.7.27,1.4.54,2.1.76,2.8.94,5.58,1.6,8.38,2.21,4.01.88,8.12,1.2,12.24,1.22,2.08,0,4.17.05,6.25.01,3.11-.04,6.32.04,9.2-.48,1.25-.21,2.4-.39,3.74-.41,3.05-.03,6.11-.06,9.17-.09,1.89-.02,3.77-.04,5.65.03,1.88.07,3.75.16,5.63.25,1.12.06,2.24.1,3.37.12l1.69.03,1.74.04c2.27.05,4.52.09,6.68.29,1.92.18,3.84.44,5.34,1.04.57.23.98.53,1.39.89.41.4.82.81,1.25,1.3,1.2,1.3,2.28,2.98,3.29,4.73,1.01,1.76,1.94,3.61,2.87,5.51.46.94.98,1.95,1.46,2.92.5.97.96,1.99,1.5,2.9,1.06,1.87,2.11,3.75,3.17,5.62,2.17,3.83,4.48,7.58,6.9,11.26,1.33,2.02,2.82,3.94,4.27,5.88.21.29.41.6.61.9,1.08,1.64,2.18,3.28,3.25,4.87,1.12,1.67,2.28,3.06,3.49,4.08,1.2,1.02,2.48,1.66,3.59,1.85.13.02.25.04.37.05.06.04.13.05.22.01,0,0,.01,0,.02,0l.07.09s.11.07.2-.03c.02-.02.04-.04.07-.06.08,0,.16,0,.23-.02.03,0,.05,0,.08.02l.1.05c.05-.01.1-.02.12.07l.05.04h.11c.08.04.15.08.23.12h.11c.1,0,.2,0,.3,0l.33.02h.08s.1-.04.14-.03c.1.03.2.08.3.11.06.02.12.03.18.04.06,0,.12.01.18.01l.12-.02c.06-.03.13-.07.19-.1l.1-.02c.12-.01.23-.03.35-.05l.03.03c.07.13.12.09.18.09.09,0,.16-.06.24-.08.02,0,.03,0,.05,0,.24.13.52.24.88.29.42.05.85.09,1.59-.11.41-.16.62-.2.92-.3.29-.09.6-.2.93-.32,3.96-1.49,7.67-2.59,11.93-5.3,2.2-1.4,4.59-2.8,6.48-4.31,1.19-.95,2.37-1.88,3.6-2.76.61-.44,1.24-.88,1.87-1.3.61-.42,1.28-.84,1.99-1.29,1.11-.71,2.25-1.51,3.38-2.63.56-.57,1.13-1.23,1.64-2.08.56-.93.94-1.97,1.06-3.05l.05-.66c.01-.19,0-.39.01-.58,0-.39-.02-.77-.06-1.16Z"/>
  <path class="cls-1" d="M160.37,199.04c-.09-.21-.2-.46-.28-.63l-.19-.39-.38-.75c-.25-.49-.5-.97-.76-1.44-.51-.94-1.03-1.86-1.58-2.77l-1.25-2.04c-.55-.89-1.11-1.77-1.67-2.64l-.84-1.3-.21-.32c-.07-.1-.15-.17-.22-.26l-.44-.51-.22-.25c-.07-.09-.15-.18-.22-.21l-.43-.29c-.14-.09-.29-.21-.43-.27l-.39-.17c-.28-.13-.49-.18-.7-.24-.23-.07-.39-.13-.75-.14-.35-.01-.77.04-1.12.15-.17.05-.32.12-.43.18-.1.05-.19.13-.28.2-.37.3-.72.51-1.15,1.01-.41.47-.53,1.24-.82,2.24-.42,1.61-.05,1.02-.56,2.53-.06.17-.1.28-.18.48l-.12.3-.19.48-.38.96c-.26.64-.5,1.28-.79,1.9-.6,1.23-1.19,2.45-1.95,3.54-.44.62-.87,1.57-1.31,2.36l-.07.26c-.51.93-1,1.9-1.55,2.78-1.67,2.43-3.28,4.91-5.43,6.97-.87.93-1.85,1.84-2.79,2.81-.46.5-.98.94-1.48,1.4-.5.46-1,.92-1.51,1.36-1.29,1-2.54,2.04-3.91,2.94-1.32.96-2.74,1.8-4.13,2.67-1.91,1.11-3.86,2.18-5.84,3.19-1.13.62-2.23,1.3-3.4,1.84-1.6.75-3.28,1.37-4.93,2.03-1.65.64-3.29,1.19-4.96,1.69-.94.28-1.91.42-2.82.68-2.79.81-5.6,1.48-8.46,1.86-1.19.16-2.38.29-3.58.34-5.11.25-10.31-.32-15.53-1.22l-1.71-.3-1.64-.34c-1.1-.2-2.18-.52-3.26-.8l-.81-.22-.8-.27-1.6-.53c-1.06-.37-2.09-.83-3.14-1.25-4.78-2.17-9.34-4.92-13.36-8.44-2.77-2.42-5.68-4.93-8.2-7.77-.97-1.04-1.83-2.18-2.72-3.29-.45-.55-.84-1.15-1.26-1.72-.41-.58-.85-1.15-1.23-1.75l-1.03-1.57c-.34-.52-.69-1.04-.98-1.59-.63-1.16-1.26-2.32-1.83-3.5-.47-.95-1.1-1.83-1.52-2.81-1.62-3.33-2.87-6.84-3.94-10.36-.44-1.32-.76-2.67-1.12-4.01-.19-.67-.3-1.35-.46-2.03-.13-.68-.31-1.36-.41-2.04-.21-1.37-.47-2.74-.59-4.12-.07-.69-.16-1.38-.2-2.07l-.1-2.08c-.07-1.01.03-2.02.08-3.04.03-1.02.19-2.03.26-3.04.03-.4.05-.8.09-1.19l.15-1.18.14-1.19.07-.59.1-.59.42-2.35c.18-.77.37-1.55.57-2.32.92-3.49,2.21-6.91,3.65-10.22.86-1.93,1.77-3.83,2.79-5.68,1.02-1.85,2.11-3.65,3.28-5.4,1.45-2.16,3.02-4.24,4.71-6.24.54-.64,1.1-1.27,1.66-1.89l1.74-1.71,1.89-1.83c.65-.64,1.28-1.27,1.95-2.04.36-.41.68-.81.97-1.25.3-.43.43-.93.58-1.43.13-.77.11-1.58.02-2.35-.07-.6-.15-1.08-.23-1.56-.16-.95-.3-1.75-.34-2.5l-.6-7.6-.13-1.75-.07-.87-.03-.44c-.04-.09-.08-.17-.12-.24-.16-.29-.21-.57-.64-.9-.05-.04-.11-.07-.16-.11l-.09-.05-.04-.03h-.01s0,0,0,0h0s-.02.03-.02.03h-.02c-.13-.08-.23-.09-.33-.11-.2-.02-.38,0-.57.02-.75.11-1.6.32-2.61.96-1.01.65-2.09,1.63-3.13,2.57-.67.61-1.33,1.25-1.98,1.88l-.45.44-.3.3-.59.6c-.78.79-1.56,1.59-2.34,2.39-.4.4-.91.8-1.38,1.19l.08.05c-2.05,1.97-3.99,4.05-5.88,6.18-1.85,2.16-3.67,4.37-5.33,6.69-3.35,4.62-6.3,9.57-8.66,14.8-.4.62-.71,1.29-1.02,1.98-.31.7-.59,1.45-.91,2.14-2.99,6.88-4.73,14.45-5.02,22.12-.1,3.45-.03,6.9.21,10.32.09,1.01.19,2,.32,2.99.14.99.28,1.98.39,2.98.6,4.74,1.47,9.47,2.7,14.1.08.32.16.65.24,1.04.09.39.2.84.34,1.42.11.35.36,1.2.63,2.04.89,2.91,1.96,5.76,3.13,8.58,1.09,2.64,2.38,5.19,3.72,7.71.72,1.23,1.39,2.5,2.17,3.7.38.6.75,1.22,1.15,1.81l1.21,1.77c.43.65.88,1.27,1.34,1.89,2.08,2.76,4.46,5.36,6.78,7.82,3.05,3.26,6.5,6.07,10.25,8.51,3.62,2.36,7.46,4.44,11.38,6.21,2.85,1.28,5.74,2.49,8.71,3.46.48.15.97.3,1.46.43l1.48.36c.98.25,1.97.45,2.93.72,2.79.76,5.58,1.65,8.4,1.65.95-.06,1.89-.11,2.71-.2,1.53.2,2.86.32,4.19.44.46.03,1.09.02,1.79-.02.69-.04,1.45-.14,2.16-.24.2-.03.4-.07.6-.1.2.06.4.12.61.17.31.07.64.09.91.02.15.04.26.07.36.1.2.04.41.07.62-.03.16-.08.3-.14.47-.11.23.03.47.03.7.06.13.01.25.06.37.05.17-.01.32-.02.48.07.06.04.14.04.22.05.13,0,.26,0,.39,0l.87.12c.11.01.23,0,.35,0h1.03c.38-.02.75-.03,1.13-.05.09,0,.17-.02.26-.03.16-.02.32-.06.48-.06.36-.02.72,0,1.09-.02.21-.01.42-.03.64-.05.21-.02.41-.05.62-.09.13-.02.26-.04.38-.08.15-.04.3-.11.45-.16,1.82-.01,3.67-.1,5.51-.24.81-.06,1.75-.24,2.61-.42.99-.22,1.97-.5,2.95-.76.97-.3,1.95-.57,2.92-.85,2.4-.68,4.77-1.47,7.11-2.33,2.33-.9,4.64-1.85,6.88-2.96,4.29-2.1,8.36-4.64,12.21-7.45.62-.47,1.23-.94,1.85-1.39,5.8-4.31,11.07-9.35,15.65-14.96,1.64-2.04,3.25-4.11,4.68-6.32.9-1.32,1.71-2.69,2.52-4.08.8-1.4.5-.67,1.23-2.18.49-1.03.97-2.09,1.37-3.31.1-.33.19-.6.28-1,.11-.46.19-.93.23-1.4.05-.47.03-.95-.07-1.4-.05-.47-.24-.91-.43-1.34Z"/>
  <path class="cls-1" d="M47.68,17.98c0,.05.02.11.02.16.02.16.03.31.04.47l.05.5.03.11c.02.07.05.14.05.21-.01.16-.03.32-.04.48,0,.09,0,.19,0,.28,0,.09.02.18.03.28,0,.06.02.11.04.17.04.09.1.18.15.26.02.05.03.1.04.15.04.18.08.35.13.52l-.02.05c-.12.1-.07.19-.05.27.02.13.09.24.13.36.02.06.03.13.04.2.03.17.06.34.11.5,0,.02.01.04.02.06,0,.02-.02.05-.03.07-.06.17-.04.36,0,.53.06.22.14.44.21.65-.02.05,0,.09.04.11,0,.03.02.06.03.08v.03c0,.07.05.13.06.2.01.14,0,.29.03.44,0,.04.09.05.08.09-.04.09-.01.15.05.2v.03s.03.09.04.14l.03.03.14.61c.15.48.29.96.46,1.43.19.44.41.88.62,1.31l.75,1.26c.08.14.19.26.26.4.67,1.32,1.57,2.55,2.58,3.72.39.4.74.84,1.19,1.2.54.44,1.13.83,1.7,1.23.38.29.73.61,1.12.88.39.28.77.59,1.22.78,1.12.54,2.39.83,3.57,1.14.62.17,1.3.22,1.83.68.15.14.42.13.64.18l.07-.04c.27.02.54,0,.79.06.36.08.72.13,1.09.19.37.06.73.11,1.1.24.32.11.66.14,1.01.15.35.01.7,0,1.05,0,.84.02,1.69,0,2.53-.08.57-.06,1.14-.12,1.68-.26.32-.08.59-.31.9-.38.87-.19,1.74-.38,2.6-.64.24-.07.53-.04.76-.14.67-.34,1.3-.73,1.9-1.15l.75-.51c1.09-.67,2.11-1.44,3.02-2.28.39-.38.76-.77,1.1-1.19.35-.4.67-.83,1.01-1.23.78-.95,1.41-1.98,2.15-2.96.27-.34.43-.73.56-1.14.14-.4.24-.82.37-1.22.22-.59.41-1.18.61-1.77.07-.26.12-.53.21-.79.1-.27.26-.53.32-.81.05-.23,0-.47.04-.7l.19-1.19c.06-.4.08-.79.09-1.19.01-.3-.02-.6-.04-.9-.03-.3-.03-.6-.09-.89-.1-.59-.2-1.17-.28-1.75-.04-.42.02-.89-.05-1.33-.05-.35-.17-.69-.28-1.02-.11-.34-.22-.67-.34-1-.24-.75-.48-1.5-.79-2.23-.38-.85-.83-1.67-1.35-2.46l-.49-.72-.55-.69c-.23-.3-.49-.58-.74-.86-.25-.28-.51-.56-.8-.81-.36-.32-.72-.64-1.11-.93l-.58-.44c-.2-.14-.4-.27-.6-.41-.63-.44-1.29-.84-1.97-1.2-.45-.21-.93-.37-1.39-.55-.12-.04-.2-.17-.3-.25l-.04.08c-1.08-.57-2.24-1-3.4-1.4-1.19-.36-2.39-.69-3.64-.86-.15-.1-.3-.17-.46-.21-.16-.05-.34-.04-.51-.09-1.61-.5-3.38-.63-5.08-.32-.78.15-1.55.32-2.28.59-.22.07-.42.17-.63.27-.2.11-.4.22-.61.3-.25.1-.5.18-.75.28l-.73.31c-.49.19-.95.44-1.42.67-.13.07-.29.08-.54.17-.07.04-.23.15-.4.24-.6.3-1.14.66-1.71.99-1.02.67-2.01,1.39-2.9,2.2-.12.11-.26.2-.38.31-.53.5-.94,1.1-1.48,1.57-.36.31-.69.65-.96,1.02-.29.36-.52.75-.73,1.16,0,0,0,.02-.01.03-.02,0-.04-.02-.07-.03-.03.03-.04.08-.09.08-.13,0-.17.07-.17.16,0,.04-.02.07-.03.1-.04.08-.08.15-.12.22-.06.08,0,.23-.11.28v.06c-.01.09,0,.18,0,.28-.19.39-.39.79-.57,1.18-.12.29-.26.58-.4.87-.05.11-.09.23-.13.34-.02.04-.04.08-.05.12,0,.01,0,.03,0,.04-.03.08-.06.16-.08.24-.04.05-.08.11-.12.16-.06.07-.14.14-.18.23-.07.14-.11.29-.18.43-.08.15-.22.28-.3.43-.08.14-.1.29-.04.43-.04.07-.07.11-.09.16-.04.09-.06.19.04.3.08.08.14.16.12.23-.02.11-.02.22-.03.32,0,.06-.05.11-.04.17.02.08.03.15-.05.22l-.04.1c0,.06.02.12,0,.18-.02.13-.05.26-.08.39ZM50.54,20.41c-.02-.08-.06-.17-.08-.25,0-.05,0-.09-.01-.14.02,0,.05,0,.07,0,0,0,0,0,0,0,0,.01,0,.03,0,.04,0,.12,0,.24,0,.37Z"/>
</svg>