<?xml version="1.0" encoding="UTF-8"?>
<svg id="Layer_11" data-name="Layer 11" xmlns="http://www.w3.org/2000/svg" viewBox="0 0 314.01 288">
  <defs>
    <style>
      .cls-1 {
        fill: #1c5c7d;
      }
    </style>
  </defs>
  <path class="cls-1" d="M136.75,124.09c39.77,19.84,82.16-25.1,57.55-63.27-10.27-15.93-24.81-20.88-43.42-19.32-42.93,3.6-52.76,63.33-14.14,82.59ZM136.66,95.7v-.03c.08-.36.38-.62.74-.65h.03s.06,0,.06,0h.12s.25-.03.25-.03l.95-.07,2.07-.16h0s1.22-.09,1.22-.09h0l.5-.04.35-.03s.03,0,.04,0c.02,0,.05,0,.07,0,.05,0,.11,0,.18,0,.14,0,.33-.01.51-.02.37-.01.73-.02.73-.02.38-.01.72.24.81.61,0,0,.02.08.06.21.03.13.08.31.13.51.1.4.23.86.3,1.13.02.06.03.11.04.15.23.65.43,1.27.67,1.84.24.58.52,1.1.89,1.58,1.13,1.45,2.6,2.74,4.22,3.48.18.08.3.15.36.16l.44.15h0c.17.05.3.1.4.13l.44.1h0c.69.17,1.4.26,2.1.26.29,0,.57-.02.86-.05h0c.72-.08,1.4-.26,1.95-.55h0c.53-.28.95-.69,1.25-1.21.23-.41.38-.93.43-1.48h0c.01-.11.01-.27.02-.47,0-.01,0-.02,0-.03,0-.06-.01-.17-.02-.35,0-.1,0-.18-.01-.24,0-.06,0-.1,0-.11h0v-.05c-.03-.15-.06-.29-.08-.43-.14-.62-.35-1.19-.69-1.68l-.02-.03c-.06-.1-.1-.16-.12-.19l-.15-.2h0c-.13-.16-.22-.3-.31-.41-.13-.14-.25-.28-.36-.41-.12-.13-.22-.25-.33-.35l-.03-.03c-.31-.32-.71-.65-1.13-1l-.08-.05s-.03-.02-.06-.04c-.17-.14-.37-.29-.56-.44-.19-.15-.38-.29-.54-.42h-.01c-1.01-.84-2.22-1.61-3.42-2.38h0c-1.13-.72-2.28-1.43-3.44-2.19h0c-1.14-.76-2.29-1.54-3.4-2.43h0s0,0,0,0h0s0,0,0,0c-1.75-1.37-3.34-3-4.64-4.88h0c-.96-1.41-1.72-2.98-2.19-4.64h0s-.14-.48-.14-.48l-.02-.07-.1-.49h0c-.05-.31-.14-.65-.19-1.04v-.02c-.07-.63-.17-1.31-.17-2.04,0,0,0-.02,0-.02l-.02-.67h0s0-.09,0-.13c0-.25.02-.45.03-.6v-.03c.03-.43.03-.9.09-1.41v-.03s.2-1.36.2-1.36v-.02c.09-.52.23-.98.32-1.39v-.03c.51-1.87,1.33-3.66,2.48-5.24h0c.12-.16.23-.32.35-.48h0s.18-.24.18-.24h.01c.11-.15.19-.23.23-.28h0c1.68-1.94,3.81-3.46,6.15-4.44h.03c.55-.22,1.15-.49,1.83-.67h0s.91-.27.91-.27h.06s.92-.22.92-.22h.01c.27-.06.59-.15.97-.19h0s.2-.03.2-.03v-.36c0-1-.01-2-.02-3h0c0-.06,0-.11,0-.17,0-.4,0-.81.02-1.18h0c.01-.3.03-.6.04-.9,0-.1,0-.21,0-.31v-.97c0-.21.09-.42.24-.58.15-.15.36-.24.58-.24h6.76c.21,0,.42.09.58.24s.24.36.24.58v6.45c0,.08.02.17.02.25.12.02.25.03.38.05h0s0,0,0,0c0,0,0,0,0,0h0c.73.11,1.46.26,2.17.42,0,0,0,0,0,0h0s0,0,0,0c.98.21,1.99.43,3,.73h0c.77.23,1.53.49,2.28.78h0s.15.06.15.06l1.06-.38h0c.99-.36,1.99-.73,2.99-1.09h0s1.25-.46,1.25-.46l.31-.12.16-.06.08-.03c.22-.08.47-.06.67.05.21.11.35.31.4.54.01.06.02.1.02.14,0,.03,0,.05,0,.07,0,.02,0,.04,0,.04h0s0,.68,0,.68h0c0,.69,0,1.37,0,2.06h0c0,.62-.01,1.02-.02,1.31-.01.3-.03.5-.04.71-.01.14-.02.29-.04.49-.02.26-.04.62-.06,1.16-.07,1.64-.11,3.36-.17,5.06h0s-.05,1.14-.05,1.14c-.04,1.13-.08,2.27-.11,3.4h0s0,.04,0,.07c0,.05,0,.12,0,.2,0,.07,0,.15-.02.25-.02.1-.05.24-.13.39-.06.1-.14.2-.23.27-.13.1-.26.16-.38.2-.16.05-.3.05-.43.06h-.04c-.67,0-1.29-.07-1.85-.08-.17,0-.33,0-.5,0-1.05,0-2.11.05-3.16.14-.13.01-.24.02-.37.02-.08,0-.17,0-.28-.02-.11-.02-.23-.06-.36-.13-.08-.05-.16-.11-.22-.18-.08-.09-.14-.18-.18-.26-.06-.11-.08-.2-.11-.28-.03-.11-.06-.21-.08-.32-.11-.44-.23-.87-.36-1.31-.32-1.04-.68-2.04-1.14-2.96-.46-.91-1.01-1.73-1.7-2.42-.46-.46-.98-.86-1.59-1.19-.73-.4-1.51-.65-2.34-.77h0c-.33-.05-.67-.08-1.01-.08-.37,0-.74.03-1.09.09-.68.11-1.31.33-1.8.67-.57.39-1.01.89-1.27,1.49h0c-.29.64-.43,1.38-.45,2.15h0c0,.06,0,.13,0,.2,0,.73.09,1.41.31,2.01h0c.22.65.63,1.26,1.17,1.83.25.24.49.48.73.68l.03.03c.23.21.49.41.76.64,1.07.79,2.23,1.51,3.43,2.23,1.2.72,2.43,1.44,3.64,2.25l.89.58h.01s.88.61.88.61c.61.41,1.19.84,1.76,1.25h0c.32.22.6.45.87.67h0c.27.22.56.44.85.67l.02.02c.48.42,1,.84,1.51,1.33.05.03.09.07.14.11.23.23.44.45.64.63l.04.04c.37.4.79.81,1.2,1.29l.02.02c.17.21.36.42.55.66.19.23.38.47.56.75,1.11,1.55,1.96,3.32,2.46,5.2v.02c.13.53.29,1.11.36,1.77h0l.12.86v.05c.03.31.04.6.05.88h0c.02.33.03.67.03,1,0,.87-.07,1.74-.19,2.6-.27,1.9-.88,3.78-1.84,5.47,0,0,0,0,0,0h0s0,0,0,0c-.75,1.33-1.72,2.52-2.83,3.53h0c-1.81,1.65-3.97,2.81-6.21,3.58h0c-.96.33-1.93.59-2.91.79h0c-.88.18-1.77.31-2.65.42v.42s0,0,0,0v2.54s.01.01.01.01c0,.54,0,1.08-.01,1.62h0c0,.27,0,.54,0,.81h0c0,.31,0,.63,0,.94,0,.31,0,.62,0,.94,0,.45-.36.81-.81.82-2.34.02-4.68.03-7.02.05-.22,0-.42-.08-.58-.23-.15-.15-.24-.36-.24-.57,0-.98-.01-1.95-.02-2.93h0c0-.98,0-1.96,0-2.94h0s0-1.47,0-1.47h0c-.22-.03-.43-.06-.64-.09h0c-.72-.1-1.43-.24-2.12-.37h0c-.66-.13-1.33-.26-2-.42h0,0s0,0,0,0c-.76-.18-1.52-.38-2.27-.62h0s0,0,0,0c0,0,0,0,0,0h0c-.2-.06-.39-.12-.57-.18h0s-.15-.05-.15-.05l-.42.18c-1.03.44-2.07.89-3.11,1.33h0s-.64.27-.64.27h0s-.16.07-.16.07l-.04.02c-.4.17-.86,0-1.05-.4v-.03c-.04-.05-.06-.11-.07-.17l-.02-.08-.07-.3h0c-.09-.41-.19-.82-.28-1.22h0s-.07-.29-.07-.29v-.02s-.04-.19-.04-.19h0s-.08-.37-.08-.37h0c-.05-.24-.1-.49-.15-.76h0c-.7-3.92-1.29-7.92-1.4-11.96h0s-.01-.53-.01-.53h0s-.01-.94-.01-.94v-.49c0-.06,0-.11.01-.17Z"/>
  <path class="cls-1" d="M208.3,138.35c-33.63-.37-67.62-.46-101.27-.24-2.78.02-7.02-.07-9.63.22-4.21.47-4.24,11.01-.01,11.4,12.02,1.13,25.69-.71,37.82.64,27.22.44,54.36-.56,81.7-.64,2.12-.21,3.71-8.63,1.92-10.46-1.51-1.54-8.11-.9-10.52-.92Z"/>
  <path class="cls-1" d="M313.94,236.38c-.1-2.72-.32-5.43-.58-8.13-.52-5.4-1.22-10.76-1.58-16.18-.3-4.52-.79-9.03-.9-13.56-.13-5.16-.02-10.31-.77-15.41-.39-2.65-.83-5.49-.6-8.11.57-6.71,0-13.06-1.72-19.17-1.13-4-1.05-7.97-.33-12.06.26-1.46.5-2.96.56-4.46.21-5.92.35-11.84.5-17.77.03-1.06.14-2.17,0-3.19-.82-6-.68-11.95-.38-18.08.51-10.47.37-21.01.56-31.52.03-1.63.34-3.25.52-4.88.18-1.64.49-3.27.52-4.91l.14-8.42.04-4.21c0-.16,0-.4,0-.6v-.62s-.04-1.24-.04-1.24c-.06-.83-.11-1.66-.2-2.48-.73-6.61-3.09-13.06-6.87-18.43-1.46-2.1-3.07-4.08-4.91-5.77-1.83-1.69-3.88-3.09-6.09-4-3.23-1.31-6.19-2.82-9.28-4.24-3.07-1.43-6.24-2.83-9.6-3.79-2.47-.72-5.03-1.3-7.62-1.59-2.31-.29-4.62-.52-6.93-.54-5.01-.04-10.05-.21-15.07-.04-3.97.07-7.94.32-11.87.97-.44.07-.89.12-1.35.15-1.48-.01-2.99-.11-4.47-.13-7.15-.1-14.3-.33-21.45-.34-2.3,0-4.61.05-6.91.12-1.31.03-2.61.07-3.92.11-2.48.06-4.95.09-7.42.02-4.65-.14-9.25-.42-13.88-.23-2.35.03-4.71.17-7.08.48-5.32.71-10.72,1.12-16.1,1.64-.17.02-.34.02-.52.03-.23,0-.45.01-.68.03-.66.01-1.32.01-1.98.05-.15,0-.3.01-.45.02-5.45,0-10.71-1.07-16.09-1.48-4.5-.34-8.98-1.05-13.31-1.93C106.8.67,97.64-.1,88.28.24c-1.92.04-3.85.12-5.79.25-.71.05-1.42.1-2.13.13-.63,0-1.25-.02-1.86-.07-4.09-.33-8.16-.7-12.19-.5-3.03.03-6.03.31-9.02,1.13-.09.03-.2.04-.3.05-.32-.01-.63-.02-.94,0-2.16.07-4.32.08-6.48.06l-1.62-.02h-.82s-.97,0-.97,0c-.59,0-1.18.02-1.77.05h-.17c-1.29,0-2.58.09-3.87.2-5.14.5-10.24,2.01-14.69,4.61-4.64,2.71-8.85,6.02-12.51,9.87-3.66,3.85-6.77,8.27-9.05,13.15-1,2.11-1.61,4.44-2.4,6.57-.16.45-.32.9-.47,1.36-.14.46-.26.92-.38,1.39-.26.93-.41,1.88-.57,2.82-.14.95-.22,1.91-.28,2.86-.01.48-.02.95-.03,1.43v.7s.02.59.02.59c.13,3.16.5,6.27,1.05,9.26.8,4.35.72,8.39.35,12.46-.45,5-.83,9.85-.23,14.91.34,2.86.51,6.04.09,8.83-.01,1.7-.04,3.4.02,5.1.11,3.02.86,5.68,1.63,8.54.13.49.14,1.01.14,1.51.02,1.74.04,3.48.06,5.22,0,.32,0,.64.11.94.09.26.24.5.39.73,3.87,6.09,4.33,14.62,2.88,21.5-1.11,5.28-1.32,10.64-1.8,15.95-.13.64-.26,1.27-.4,1.9-.29,1.32-.56,2.64-.8,3.97-.05.58-.11,1.15-.16,1.73-1.31,13.79-2.09,27.52-1.97,41.46.09,9.74.41,19.48.48,29.23.03,3.87.13,7.74.05,11.6-.02,2.17.04,4.43.22,6.65.19,2.23.47,4.46.82,6.73.35,2.11.97,4.33,1.88,6.43.91,2.1,2.13,4.08,3.52,5.74,3.5,4.17,7.39,7.76,11.66,10.84,4.27,3.08,8.92,5.65,13.99,7.6l1.38.48.7.23.71.2,1.43.38c.48.11.96.2,1.45.3.97.21,1.95.31,2.94.44.49.06.99.08,1.48.11l.74.04.37.02h.31c.97.04,1.94.06,2.91.06,2.05.02,4.11-.02,6.18-.1.89-.03,1.77-.06,2.66-.1.36-.02.73-.03,1.09-.04.79-.02,1.58-.03,2.38-.04,1.53,0,3.07.01,4.6.05,1.96.05,3.94.12,5.9.13.47,0,.94,0,1.4,0,.02-.02.03-.04.05-.06,3.19.04,6.36-.07,9.42-.76,2.05-.46,3.94-.87,6.12-.78,4.99.2,9.99.43,14.99.45,6.19.03,12.33.2,18.52.53,7.37.39,14.85-.18,22.29-.34,3.32-.07,6.65-.24,9.97-.18.27,0,.55.02.82.04-.05.05-.1.11-.15.16,1.82.19,3.64.49,5.44.44,2.47-.07,4.94-.15,7.41-.24,2.2-.08,4.4-.16,6.6-.24,7.45-.26,14.89-.47,22.36-.28-.02-.03-.04-.06-.06-.08,2.19.04,4.38.11,6.58.22,2.05.11,4.11.2,6.17.28.03.04.05.07.08.11,4.53.16,9.06.27,13.59.3,1.1,0,2.19-.02,3.29-.07,3.03-.08,6.07-.37,9.11-.56.36,0,.71.03,1.07.05,3.17.17,6.34.4,9.51.51.38.01.75.01,1.12.01-.09-.03-.17-.05-.25-.08-.01,0-.02,0-.03-.01.2,0,.41.02.61.03,4.09.13,7.35-.39,9.93-1.37.82.02,1.62.17,2.44.23,1.36.11,2.77-.34,4.15-.42,1.59-.09,3.18-.02,4.76.2.29.04.59.09.88.05.25-.04.49-.14.73-.2,1.17-.31,2.33.16,3.49.25,1.25.1,2.54.09,3.8.09.05,0,.1,0,.14,0,.8,0,1.6-.01,2.4-.06,2.55-.04,5.13-.31,7.75-.96,1.11-.25,2.19-.62,3.31-1.01,1.08-.44,2.2-.9,3.27-1.49,2.17-1.15,4.29-2.65,6.24-4.59,2.01-1.98,3.96-4.14,5.62-6.46,1.66-2.32,3-4.81,3.8-7.29,1.02-3.12,1.75-6.25,2.33-9.38.58-3.13,1.02-6.26,1.42-9.48.13-.89.18-1.78.23-2.67.05-.98.06-1.56.06-2.27.01-1.37-.01-2.74-.07-4.1ZM273.29,216.06c.21,10.05,1.97,14.81-2.88,24.42-4.81,9.51-16.8,15.18-27.12,15.78-10.32.6-21.17.17-31.48,0-27.15-.48-54.23.25-81.37,0-19.85-.18-40.68,1.23-60.37-.02-10.38-.65-22.12-6.54-26.81-16.09-4.04-8.22-2.98-11.32-2.89-19.96.17-16.31-.9-32.73,0-48.95.71-13,8.32-21.37,14.75-31.97,4.08-6.72,7.9-13.68,12.13-20.29,6.4-10.02,15-13.26,26.67-13.69,2.78-.1,8.56,1.35,10.14-1.3,1.18-1.98-.89-7.28-1.3-9.77-5.51-32.86,19.1-61.13,51.64-62.89l4.35-.09c31.77,1.9,54.99,26.33,52.93,58.64-.23,3.66-2.67,10.5-2.22,13.32.58,3.57,7.68,1.99,10.3,2.09,12.23.44,20.48,3.78,27.11,14.2,4.18,6.56,7.97,13.44,12.01,20.09,4.35,7.16,12.85,18.18,14.08,26.28,2.33,15.37.01,34.37.34,50.19Z"/>
</svg>