<?xml version="1.0" encoding="UTF-8"?>
<svg id="Layer_11" data-name="Layer 11" xmlns="http://www.w3.org/2000/svg" viewBox="0 0 170.09 252">
  <defs>
    <style>
      .cls-1 {
        fill: #1c5c7d;
      }
    </style>
  </defs>
  <path class="cls-1" d="M170.08,241.15c-.02-1.58-.09-3.12-.22-4.54-.18-1.79-.35-3.57-.5-5.36-.15-1.8-.26-3.58-.38-5.54l-.08-.87c-.06-.43-.16-.94-.24-1.15-.18-.56-.32-1.13-.56-1.68l-.34-.83c-.13-.27-.27-.54-.41-.81-.26-.54-.62-1.05-.96-1.57-1.43-2.02-3.48-3.64-5.64-4.57-.54-.26-1.08-.43-1.63-.64-.54-.16-1.09-.34-1.63-.45-1.09-.27-2.16-.41-3.22-.53-2.12-.2-4.18-.22-6.2-.19-1.69.03-3.34.11-4.97.17-.82.03-1.62.06-2.42.06-.4,0-.8,0-1.2,0-.2,0-.4,0-.59-.01l-.49-.02c-.37-.01-.74-.04-1.11-.09l-.14-.02h-.03s0-.04,0-.04v-.07s.02-.28.02-.28l.03-.55c.04-.76.07-1.52.11-2.28.04-.93.07-1.86.08-2.79.03-1.93.06-4,.25-5.9.49-4.86.66-9.48.52-13.96-.04-1.16-.01-2.31.04-3.47,0,0,0-.02,0-.02l.09-.32c.03-.09.05-.19.09-.28.05-.12.14-.23.17-.36.07-.25.12-.5.18-.75.01-.06.05-.12.05-.18.02-.2.01-.4.05-.59.03-.14.02-.29-.05-.44-.03-.06-.07-.13-.06-.18.03-.19.08-.37.12-.56.03-.13.04-.27.06-.41.04-.3,0-.61,0-.92v-.65c-.02-.11-.03-.23-.05-.34l-.05-.12s-.01-.05-.02-.07c.02-.13.03-.26.05-.4.03-.06.07-.12.1-.18v-.13s-.05-.05-.05-.08c0-.02,0-.05,0-.07.02-.04.05-.08.06-.13.04-.16.15-.31.18-.47.04-.23.02-.47.05-.7.04-.28.1-.56.15-.84l-.03-.09c.02-.19.04-.39.07-.58.02-.1.06-.19.09-.28.02-.08.03-.17.05-.26.04-.13.1-.27.11-.4.02-.21.18-.41.12-.64l.04-.05c.02-.06.04-.11.06-.17v-.07c.07-.18.08-.37.04-.57-.03-.12.03-.24.05-.36.04-.14.08-.48.11-.78.01-.19-.04-.36-.02-.55.03-.31-.09-.58-.26-.81l-.04-.05c-.07-.07-.14-.12-.21-.19-.34-.36-.78-.6-1.29-.7-.13-.03-.25-.06-.38-.09l-.19-.04c-.06-.01-.08-.02-.12-.02-.22-.03-.45-.01-.64-.18l-.15.03c-.1,0-.21.06-.28-.02-.09-.08-.18-.08-.28-.04-.07.03-.15.04-.22.03-.1-.01-.19-.05-.29-.07-.07-.02-.16,0-.22-.06-.18-.2-.41-.18-.62-.26-.29-.12-.61-.1-.92-.14-.02,0-.03,0-.05,0v-.39c.02-.38.02-.76.03-1.14,0-.39,0-.78-.01-1.15-.19-4.37-.14-8.7-.03-13.16.17-7.62.17-15.3.26-22.95.01-1.19.1-2.37.15-3.55.05-1.19.14-2.38.15-3.57.1-8.18.19-16.36.05-24.52-.05-3.18-.08-6.35-.42-9.33-.5-4.35-.3-8.96-.09-13.51.15-3.36.4-6.72.43-10.08.05-6.07.19-12.19-.14-18.21-.1-1.77-.01-3.76,0-5.64l.17-15.62c.01-2.22,0-4.43-.02-6.65v-3.32s0-1.66,0-1.66v-.43c0-.19.02-.38,0-.56l-.23-.97c-.65-2.44-2-4.77-3.99-6.43-1.97-1.67-4.56-2.63-7.15-2.59-2.16.04-4.31.71-6.08,1.93-.89.6-1.67,1.35-2.33,2.17-.67.82-1.22,1.71-1.65,2.66-.19.37-.31.7-.51,1.18l-.13.33c-.05.11,0,.23-.02.35,0,.23.01.45.02.68.2,4.59-.07,8.97-.1,13.45-.02,3.27-.14,6.54-.31,9.7-.4,7.49-.43,15.09-.08,22.88.06,1.43.13,2.9.12,4.31-.04,4.73-.11,9.42.43,14.03.08.66.05,1.53.07,2.31.2,6.29.13,12.59.46,18.89.34,6.58.4,13.21.42,19.82,0,1.43.06,2.9.02,4.29-.13,4.65.06,9.35.44,13.7.27,3.16.31,6.1.27,9.07-.04,3.64-.07,7.18.16,10.86.13,2.14.23,4.53.15,6.59-.09,2.22-.04,4.43.03,6.63-.03.01-.05.04-.08.05l-.04.06c-.04.26-.18.28-.34.22h-.1c-.04.14-.14.06-.21.06-.1,0-.2,0-.3.04-.1.03-.19.1-.31.02-.18-.12-.33.04-.52-.13h-.01c-.2.13-.48.03-.77.08-.05.01-.1.07-.15.11l-.09.08c-.21.01-.43.04-.67.11-.21.07-.41.21-.68.23l-.07.06c-.08.05-.16.1-.24.15-.06.05-.14.08-.19.14-.28.3-.49.64-.64.98-.04.08-.05.16-.07.24-.09.29-.13.59-.17.86-.04.24-.11.46-.13.7-.01.22.04.44.05.66,0,.11,0,.22,0,.33-.04.05-.08.1-.18.14l-.02.05c.04.06.07.12.14.16.09.05.09.11.07.18-.05.14-.1.27-.14.41-.04.11-.09.21-.11.31-.02.12-.07.26,0,.36.13.23.25.47.31.72l.05.06c.25.1.25.25.18.42l-.02.11c.14.06.06.16.05.25,0,.11,0,.23.02.34.03.11.09.22.01.35-.12.2.05.38-.12.59h0c.13.24.04.51.09.76l.1.12.07.07c0,.16-.02.33,0,.49.01.14.08.28-.02.45l.02.05c0,.05.01.11.01.16v.03s0,.03,0,.04c-.01.16-.05.34.02.49.15.32.29.65.37.99l.05.08c.11.06.17.13.2.21,0,.07.02.13.04.2,0,0,0,0,0,.01,0,.05-.01.1-.03.16-.01.05-.05.12,0,.15.15.09.07.22.07.34,0,.15,0,.31.04.46.04.16.11.31.03.48-.11.27.07.51-.09.78v.02c.15.32.07.68.13,1.02.01.06.07.12.11.17l.07.1c0,.22,0,.44.02.66.02.2.09.39,0,.6l.02.07.02.22c0,.06,0,.13,0,.19l.27.93c.02.05.04.1.06.15,0,.19.02.39.02.58.05,2.55.24,5.11.44,7.65.21,2.54.37,5.08.54,7.64.13,1.93.36,3.91.66,5.9.08.5.16,1,.24,1.5l.21,1.2c.1.55.2,1.05.32,1.57v.06s-.08.01-.08.01l-.15.02-.3.04-.6.05-.59.03-.79.03c-.72.02-1.46.02-2.19.02l-4.46-.03c-3,0-6.08.03-9.2.6-1.85.35-3.74.87-5.49,1.83-.89.45-1.71,1.06-2.48,1.71-.74.69-1.45,1.44-2,2.29-1.14,1.67-1.84,3.56-2.24,5.44-.06.23-.1.48-.14.73l-.06.38-.04.35c-.05.47-.09.93-.12,1.38-.07.91-.11,1.81-.15,2.7-.12,2.85-.14,5.68-.16,8.52,0,1.42,0,2.84.04,4.29.02.73.04,1.45.13,2.26.08.89.38,1.82.85,2.63.44.77,1.06,1.5,1.92,2.07.85.55,2.04.96,3.31.72.62-.12,1.22-.37,1.69-.71.24-.17.48-.35.65-.55.18-.2.39-.4.52-.6.13-.2.34-.46.44-.7.11-.24.22-.49.31-.73.07-.26.12-.5.17-.72.04-.22.06-.41.08-.61.1-.99.09-1.88.06-2.75-.03-.87-.08-1.72-.14-2.55-.06-.83-.12-1.65-.18-2.48l-.07-.97-.03-.6c0-.2,0-.4,0-.59v-.29c.09-.03.21,0,.31,0l1.19.06h.14s.07.01.07.01h.15s.61.02.61.02l1.18.04c.36.03.7.07,1,.11l.16.02c.05,0,.11,0,.13.08.03.12.03.25.02.37-.02.24-.05.47-.08.69l-.05.33-.09.88c-.06.59-.12,1.19-.16,1.81-.09,1.23-.14,2.49-.07,3.82.04.67.12,1.37.28,2.1.05.19.08.36.14.56.07.24.15.51.25.73.18.45.41.89.69,1.28.33.46.74.86,1.22,1.16.24.15.49.28.76.37.27.08.54.18.82.23.35.06.67.15,1.05.17l.49.03.52-.02c.33,0,.73-.11,1.09-.2.38-.13.76-.28,1.1-.51.69-.44,1.26-1.07,1.58-1.67.34-.6.56-1.2.69-1.75.3-1.17.35-2.22.36-3.23,0-1.01-.05-1.98-.14-2.92-.05-.47-.1-.93-.15-1.38-.06-.43-.12-.86-.17-1.29-.08-.36-.16-.72-.24-1.07-.02-.09-.03-.18-.05-.27.03-.05.12-.05.17-.08.13-.04.28-.09.43-.12.15-.04.32-.07.49-.11.1-.02.21-.03.31-.05.19-.02.39-.05.58-.07l1.36-.15,1.02-.11,1.21-.12c.09.03.11.17.13.26.02.1.03.21.03.31.01.21.01.41.01.61l-.03,2.06c-.01,1.14-.02,2.29.01,3.46.04,1.18.11,2.37.33,3.63.11.63.26,1.29.52,1.98.28.69.64,1.47,1.47,2.2.41.35.95.65,1.52.79.57.15,1.12.16,1.6.09.92-.11,1.94-.58,2.62-1.24.83-.79,1.27-1.68,1.56-2.49.29-.82.46-1.6.57-2.36.21-1.51.24-2.95.22-4.36-.01-.7-.04-1.4-.07-2.08l-.05-1.02-.03-.49c-.02-.28-.03-.56-.02-.85,0-.07,0-.14.01-.22.04-.03.13-.01.19-.02h.42s.77-.03.77-.03l1.79-.02,1.18-.02h.4c.14-.02.24.1.32.2.21.35.19.8.18,1.17-.02.86-.04,1.71-.06,2.56,0,1.25-.04,2.53.03,3.89.03.68.09,1.37.22,2.11.14.74.31,1.52.77,2.39.24.43.54.89,1.01,1.28.12.1.23.2.35.29.13.08.27.16.41.24.27.16.57.24.86.33.3.09.56.09.84.13.28.03.51-.01.76-.02.49-.05.92-.15,1.39-.32.92-.34,1.75-.94,2.33-1.73.59-.8.89-1.59,1.1-2.36.4-1.53.41-2.92.39-4.26-.01-.67-.05-1.33-.09-1.97l-.14-1.85c-.02-.29-.04-.57-.05-.86,0-.14,0-.28,0-.42v-.21c.03-.06,0-.17.1-.14l1.91.1,1.93.09.61.03.4.03.39.02h.19s.08.03.08.03v.1c.04.27.02.54,0,.8l-.08,1.18-.11,1.97c-.06,1.34-.09,2.71.06,4.17.09.81.22,1.64.56,2.55.09.23.17.45.3.7l.19.35c.07.12.16.24.24.36.32.47.8.96,1.38,1.3.59.36,1.26.54,1.87.59.31.03.58,0,.87,0,.27-.03.52-.08.78-.13.27-.06.57-.16.85-.27.28-.14.57-.26.81-.45.53-.35.93-.82,1.25-1.28.35-.55.62-1.12.78-1.64.46-1.45.53-2.74.57-3.99.03-1.24-.02-2.44-.08-3.59-.03-.58-.06-1.13-.09-1.67,0-.12-.01-.23-.02-.35v-.15c-.02-.11-.03-.21-.03-.31-.01-.21-.02-.42,0-.63.01-.1.02-.21.06-.31.02-.13.13-.09.2-.13.12-.03.23-.07.35-.11,0,.02.02.04.03.05.04.05.08.13.14.1.11-.06.22-.11.32-.12.03,0,.05,0,.08.02.11.08.23.05.34.1.06.03.13.01.2,0,.03,0,.05,0,.08,0,.05.09.14.02.18.21h0c.12-.07.2.08.3.1l.07-.07.04-.05c.06.05.12.1.19.12.06.02.13,0,.17.13h.02s.06.02.06.02l.05.03c.1-.02.21-.04.31-.06l.08-.04c.09-.04.18-.09.27-.1.08-.01.14.03.22.03.07,0,.15-.05.22-.04.1.02.19.16.32.03h.02c.04.13.11.07.17.1.05.03.11.01.16.08.03.05.07.09.12.08.07,0,.14-.05.2,0,.1.08.22.06.32.12.01,0,.03,0,.04.01-.21.67-.41,1.58-.64,2.91-.2,1.23-.4,2.47-.51,3.8-.05.67-.08,1.36-.04,2.11.05.76.14,1.56.47,2.52.1.25.18.48.32.75.16.27.28.52.5.79.41.53.98,1.09,1.69,1.45.18.09.36.18.55.26.18.07.37.12.55.17.18.05.38.1.56.13.17.02.35.04.52.05.17.01.36.02.52.02l.46-.03c.31-.02.62-.06.87-.13.27-.06.52-.11.81-.2.3-.09.61-.22.92-.36.61-.3,1.18-.69,1.68-1.18.5-.49.92-1.08,1.24-1.73.33-.67.5-1.26.62-1.8.06-.29.11-.52.15-.84l.05-.48.02-.24v-.17c.03-.44.04-.89.05-1.29.02-.83.01-1.62,0-2.42Z"/>
  <path class="cls-1" d="M74.38,84.3c-.03-.17-.02-.38-.02-.57-.08-3.48-.27-6.93-.66-10.34-.04-.32,0-.67,0-1,.07-1.82.25-3.63.13-5.48-.05-.84.03-1.72.08-2.57.04-.71.18-1.41.19-2.12.02-1.51-.03-3.03-.01-4.54.02-1.69.1-3.38.15-5.07,0-.29,0-.57,0-.86-.05-1.88-.15-3.8.19-5.59.16-.86.14-1.66.14-2.5,0-.28-.08-.56-.09-.85-.06-1.54-.2-3.09-.15-4.62l.02-.47c0-.16.01-.31,0-.52,0-.39-.02-.79-.04-1.17l-.14-1.12c-.05-.37-.14-.72-.22-1.08-.34-1.41-.82-2.73-1.45-3.96-.62-1.27-1.36-2.53-1.87-3.75-.68-1.65-1.64-3.12-2.59-4.58-.66-1.01-1.39-1.97-2.1-2.93-1.37-1.87-2.81-3.68-4.34-5.42-.2-.23-.41-.45-.64-.65-2.11-1.82-4.12-3.77-6.34-5.5-.2-.15-.41-.34-.54-.52-.99-1.25-2.29-2.32-3.77-3.29-.88-.67-2.17-1.3-3.49-1.66-.64-.2-1.32-.31-1.88-.39-.05,0-.09,0-.14-.01-.07-.12-.15-.23-.35-.1l-.06-.02c-.16-.04-.28-.2-.47-.17-.2.03-.34-.06-.49-.17l-.1-.06c-.08-.14-.22-.13-.36-.02-.1.08-.17.05-.23-.01-.07-.08-.15-.15-.26-.09-.06.03-.12.04-.16-.02-.1-.17-.25,0-.36-.08l-.03.08c-.1.24-.19.37-.27.41-.04-.02-.09-.05-.13-.07,0,0-.01-.02-.02-.03-.09-.2-.22-.21-.32-.35-.1-.13-.21-.1-.32-.13-.14-.03-.28-.04-.42-.04-.17,0-.34.04-.5.04-.13,0-.27.04-.4-.13-.06-.08-.13-.12-.2-.07-.16.13-.31.11-.47-.05-.12-.11-.24-.12-.35-.08-.06.02-.12.03-.18.02-.09,0-.18-.05-.26.1-.03.06-.06.12-.1.11-.09-.02-.18-.04-.27-.03-.11.01-.22,0-.34-.03-.14-.03-.26.07-.39.11-.06.02-.11.05-.17.06l-.15-.05c-.06.03-.11.05-.17.08-.09,0-.18,0-.27,0-.9.01-1.78.18-2.66.34-.44.09-.86.21-1.29.32l-.65.16-.63.19c-.57.17-1.17.34-1.73.58-.57.23-1.15.44-1.69.71-1.06.48-2.14.95-3.12,1.55-1.59,1.03-3.07,2.17-4.61,3.23-.46.31-.93.62-1.34.98-1.49,1.36-2.87,2.82-4.2,4.31-1.62,1.81-2.94,3.85-4.79,5.45-.15.14-.27.41-.41.61-1.15,1.63-2.07,3.37-3.25,5.04-1.13,1.57-2.03,3.35-2.88,5.14-.14.3-.27.61-.4.92-.12.31-.25.62-.41.9-.88,1.59-1.25,3.36-1.59,5.17-.13.55-.15,1.14-.2,1.71l-.02.25c0,.08-.02.19-.02.3l.02.32.02.21.07.78c.08,1.04.1,2.09-.13,3.15-.02.08.01.19.02.28l.07,3.62c.03,1.55-.03,3.07-.19,4.61C.04,53.06,0,54.98,0,56.85c0,1.72.24,3.43.27,5.15.03,1.82-.06,3.65-.11,5.48-.08,2.91-.11,5.81.11,8.7.05.62.01,1.26,0,1.89-.03,1.2-.1,2.41-.1,3.61,0,.96.1,1.93.09,2.89-.01,1.45-.08,2.89-.13,4.34v.48s-.02.78-.02.78v1.56s.93.96.93.96l.12.12.05.05-.08-.08-.16-.16-.04-.04.03.03.05.07c.14.17.29.35.45.51.16.16.33.32.5.46l.06.05.88.9,1.59.04.8.03.47.03c.61.05,1.22.12,1.83.23,1.35.23,2.86.33,4.28.31,1.82-.02,3.64-.2,5.45-.36.63-.06,1.26-.13,1.89-.19l.94-.1.47-.05c.05,0,.22-.02.35-.02l.4-.02.8-.04c.27,0,.49-.08.74-.12l.36-.07c.01.8.03,1.6.06,2.39.09,3.07.34,6.07.07,9.18-.02.28.03.57.02.85-.05,1.2-.1,2.37-.17,3.58l-.25,2.85-.3,2.84c.16.02.32,0,.47.01,1.18.02,2.31.09,3.45.16-.02.3-.05.58-.05.85,0,.18.02.29.05.53l.09,1.28c.03.52.08,1.04.08,1.56v4.18c-.01.41,0,.83-.03,1.23-.27,2.88-.25,5.74-.06,8.62.02.28.07.61.02.84-.35,1.74-.02,3.47,0,5.17.01.67.08,1.32-.02,1.99-.26,1.87-.45,3.71-.06,5.63.13.64.11,1.47.11,2.21l-.15,13c0,.87,0,1.8.12,2.6.22,1.5.12,2.86-.16,4.26-.09.46-.18,1.03-.14,1.5.09,1.1-.12,1.87-.38,2.74-.53,1.75-.98,3.6-.76,5.88.05.5.03,1.06,0,1.58-.17,3.06-.19,6.1-.08,9.17.1,2.71.05,5.46.07,8.19.03,1.46.06,2.92.09,4.38.02,1.46.13,2.98,0,4.38-.05.52-.08,1.03-.1,1.53-.02.5-.03.98-.04,1.47-.02.98-.02,1.96-.07,2.96-.13,2.92-.3,5.89-.82,8.84-.11.66-.12,1.37-.2,2.05-.11.93-.17,1.94-.38,2.75-.2.74-.26,1.44-.31,2.21-.14,2.42-.12,4.87.41,7.2.05.21.05.48.07.72.12,1.11.23,2.16.5,3.43.31,1.21.71,2.41,1.33,3.52.62,1.11,1.38,2.15,2.31,3.02.93.87,1.99,1.58,3.13,2.09.21.09.43.2.64.32.22.11.45.21.67.31,2.42,1.04,5.24,1.36,7.83.47,1.16-.4,2.36-.9,3.43-1.57.9-.55,1.75-1.17,2.47-1.95,1.47-1.7,2.43-3.75,2.98-5.79.13-.57.31-1.15.39-1.72l.15-.86c.05-.29.07-.55.1-.82.07-.54.13-1.08.16-1.62.05-.54.08-1.08.1-1.62.01-.36.02-.73,0-1.09-.05-2.38-.31-4.75-.16-6.97.07-1.07-.04-2.04-.14-3.05-.03-.34-.14-.67-.18-1.01-.23-1.84-.54-3.66-.57-5.44-.02-.74-.02-1.46-.02-2.18v-2.28c-.03-1.52-.09-3.03-.2-4.55-.11-1.56-.21-3.22-.08-4.72.17-2.02.14-4.02.16-6.04,0-1.39,0-2.78,0-4.17.04-2.69.07-5.37.11-8.05,0-.35,0-.71-.03-1.05-.32-3.21-.31-6.48-.45-9.73-.01-.29,0-.61.04-.86.34-1.79.38-3.7.34-5.67.07-1.27-.13-2.93-.43-4.42,0,0,0,0,0,0,.05-.05.07-.12.09-.18.02-.08.03-.17.04-.25l.1-.49c.03-.14.05-.29.09-.43.05-.19.14-.37.17-.57.07-.39.12-.78.18-1.17.01-.09.05-.18.05-.28.02-.3,0-.6.03-.9.02-.22.01-.44-.06-.66-.03-.09-.07-.18-.07-.26.02-.29.06-.58.1-.87.03-.21.03-.42.04-.63.02-.46-.03-.93-.06-1.39-.02-.32-.03-.65-.06-.97-.01-.17-.04-.34-.07-.5,0-.06-.05-.11-.06-.17-.03-.14-.08-.29-.07-.43.02-.19.1-.38.15-.57.01-.06.03-.14-.01-.19-.13-.15-.02-.28,0-.42.02-.25.12-.49.13-.74.01-.35-.04-.71-.03-1.06l.04-1.29-.04-.13c0-.29,0-.59,0-.88,0-.15.04-.29.06-.43l.02-.39c.02-.2.06-.41.06-.61,0-.32.13-.63.05-.95l.04-.08c.02-.08.03-.17.04-.25v-.11c.05-.28.04-.55-.02-.83-.04-.17,0-.35.02-.52l.08-.82c.01-.16-.02-.33.03-.48.08-.26.07-.51.04-.77-.01-.1-.05-.2-.06-.31-.02-.44,0-.89-.04-1.33-.02-.23.02-.45,0-.67-.02-.34-.08-.67.03-1.01.02-.06-.05-.14-.06-.21-.03-.14-.1-.3-.05-.43.06-.16.04-.29-.02-.43-.04-.1-.07-.21-.08-.32-.01-.15,0-.3,0-.46,0-.12-.04-.24,0-.35.16-.33.07-.67.11-1,.05-.47-.06-.94-.1-1.41-.02-.26-.04-.51-.07-.77-.04-.35-.12-.7-.14-1.05-.02-.27-.13-.53-.19-.8-.06-.29-.19-.59-.51-.81,0-.1,0-.2,0-.3-.04-2.35-.18-4.7-.31-7.07-.12-2.11-.42-4.23-.49-6.35.51,0,1.02-.01,1.53-.02l2.37-.02-.3-2.25c-.17-1.28-.36-2.56-.35-3.91-.02-2.21-.18-4.48-.24-6.74-.02-.76-.11-1.55-.06-2.26.15-2.05-.13-4.05-.25-6.09-.02-.39-.06-.78-.11-1.18l.07.07h.09s.74.1.74.1c.25.03.49.06.74.08l.79-.02c.26,0,.52,0,.78-.01h.47c.3,0,.6.02.88.05,1.71.18,3.35.04,5.03.01,2.46-.04,4.93-.15,7.38.13.55.06,1.11,0,1.71.04.8.02,1.64.03,2.45.07.33-.31.65-.6.96-.89l.24-.21.03-.03h0s-.08.09-.08.09l-.15.17-.06.07.06-.04.13-.09c.08-.06.17-.12.25-.18.22-.17.42-.35.61-.54l-.02.03-.02.03.08-.07c.41-.37.83-.76,1.24-1.16.02-.41.03-.84.03-1.3,0-.7.02-1.39.02-2.08,0-.48,0-.96-.03-1.44-.04-.96-.14-1.9-.33-2.83Z"/>
</svg>