<?xml version="1.0" encoding="UTF-8"?>
<svg id="Layer_11" data-name="Layer 11" xmlns="http://www.w3.org/2000/svg" viewBox="0 0 314.01 287.41">
  <defs>
    <style>
      .cls-1 {
        fill: #1c5c7d;
      }
    </style>
  </defs>
  <path class="cls-1" d="M208.63,285.62c-4.47-3.34-9.48-8.34-12.48-11.09-4.38-4-8.88-8.07-13.09-12.23-.94-.93-3.38-4.22-4.35-4.67-.94-.44-1.3.65-1.98,1.12-4.6,3.13-4.94-1.14-4.78-4.78.1-2.28,1.41-7.53.64-9.34-.73-1.73-2.29-.55-3.42.09-2.22,1.26-7.41,6.43-9.43,6.3-.93-.06-1.71-.63-1.82-1.56-.29-2.3,1.47-3.6,1.66-5.89.31-3.75-1.66-2.4-3.66-.85-4.71,3.67-8.37,8.13-6.61,14.5.98,3.54,9.89,13.54,12.64,17.19,1.46,1.92,2.89,3.87,4.31,5.82,1.26,1.73,2.4,3.71,4.1,5.06.94.74,1.93,1.26,3.14,1.36,1.17.09,2.35.13,3.54.16,6.48-.21,12.97-.34,19.47-.18-.02-.03,4.32.03,6.51.14,1.82.09,3.65.19,5.47.32.16.01.36-.02.53-.1.12-.06.23-.14.28-.26.18-.38-.42-.88-.66-1.11Z"/>
  <path class="cls-1" d="M155.63,285.2c-.29-.99-1.04-1.73-1.66-2.52-.75-.96-1.51-1.92-2.26-2.89-1.47-1.89-2.92-3.79-4.35-5.71-3.74-5.04-7.84-12.3-12-16.7-2.52-2.67-3.27-.25-4.84,1.9-5.58,7.67-10.15,16.75-15.56,24.69-.09.18-.26.4-.45.65-.33.47-.75.95-.96,1.48-.06.16-.11.34-.05.5.07.2.29.32.5.35,1.22.2,2.57.09,3.81.14,1.3.05,2.61.11,3.91.18,7.37.39,14.85-.18,22.29-.34,1.94-.04,3.88-.12,5.82-.16.99-.02,1.99.04,2.98.03.33,0,.66-.02.98-.04.17-.01.34-.03.5-.05.36-.05.93-.06,1.21-.32.07-.07.12-.16.15-.25.1-.3.05-.63-.04-.94Z"/>
  <path class="cls-1" d="M110.05,208.98c-10.32,9.56-21.7,19.17-33.12,27.38-3.73,2.68-11.16,6.69-14.01,9.62-1.29,1.32-2.27,3.8.52,3.64,2.88-.16,11.41-5.67,14.23-7.47,14.14-9.03,28.56-21.16,40.69-32.75,22.69-21.69,50.64-55.6,46.24-89.31-.26-1.99-2.26-10.78-5.13-10.26-1.04.19-.81,3.19-.75,4.05.12,1.77.68,3.57.85,5.34,3.17,32.37-30.67,61.17-54.78,77.47-6.8,4.59-16.67,9.28-22.58,14.29-.86.73-1.96,1.81-1.67,3.01.41,1.39,2.98.49,4.02.18,8.08-2.38,20.99-10.82,28.27-15.62,2.26-1.49,10.49-7.98,12.11-8.43,2.87-.79,1.48,2.03.52,3.34-3.57,4.89-10.83,11.27-15.42,15.53Z"/>
  <path class="cls-1" d="M184.69,59.63c7.94-1.36,7.5-13.82-1.25-13.37-9.86.51-9.14,15.14,1.25,13.37Z"/>
  <path class="cls-1" d="M96.09,185.73c2.67-.34,6.03-3.14,8.17-4.77,13.72-10.43,28.91-25.97,35.57-42.09.62-1.5,2.59-6.92-.88-6.24-2.75.54-5.21,7.01-6.63,9.42-10.05,16.98-21.35,29.76-37.35,41.44-1.34,1.73-1.37,2.56,1.12,2.24Z"/>
  <path class="cls-1" d="M232.74,86.28c-.46-.14-1.06-.25-1.52-.09-1.34.45.78,5.06,1.22,6.02,1.64,3.56,4.84,7.66,7.88,10.13,1.08.87,4.13,2.93,5.36,1.69.88-1.58-.36-3.61-1.19-5.01-1.27-2.14-9.81-12.14-11.75-12.73Z"/>
  <path class="cls-1" d="M223.14,65.21c-.6-.34-1.28-.89-2.02-.69-1.07.52-.84,1.48-.54,2.42.81,2.56,7.92,9.2,10.6,9.1,2.43-.09,1.82-2.51.83-3.94-1.24-1.81-6.82-5.73-8.87-6.89Z"/>
  <path class="cls-1" d="M313.94,236.38c-.1-2.72-.32-5.43-.58-8.13-.52-5.4-1.22-10.76-1.58-16.18-.3-4.52-.79-9.03-.9-13.56-.13-5.16-.02-10.31-.77-15.41-.39-2.65-.83-5.49-.6-8.11.57-6.71,0-13.06-1.72-19.17-1.13-4-1.05-7.97-.33-12.06.26-1.46.5-2.96.56-4.46.21-5.92.35-11.85.5-17.77.03-1.07.14-2.17,0-3.19-.82-6-.68-11.95-.38-18.08.51-10.47.37-21.01.56-31.52.03-1.63.34-3.25.52-4.88.18-1.64.49-3.27.52-4.91l.14-8.42.04-4.21c0-.16,0-.4,0-.6v-.62s-.04-1.24-.04-1.24c-.06-.83-.11-1.66-.2-2.48-.73-6.61-3.09-13.06-6.87-18.43-1.46-2.1-3.07-4.08-4.91-5.77-1.83-1.69-3.88-3.09-6.09-4-3.23-1.31-6.19-2.82-9.28-4.24-3.07-1.43-6.24-2.83-9.6-3.79-2.47-.72-5.03-1.3-7.62-1.59-2.31-.29-4.62-.52-6.93-.54-5.01-.05-10.05-.21-15.07-.04-3.97.07-7.94.32-11.87.97-.44.07-.89.12-1.35.15-1.48-.01-2.99-.11-4.47-.13-7.15-.1-14.3-.33-21.45-.34-2.3,0-4.61.05-6.91.12-1.31.03-2.61.07-3.92.11-2.48.06-4.95.09-7.42.02-4.65-.14-9.26-.42-13.88-.23-2.35.03-4.71.17-7.08.48-5.32.7-10.72,1.12-16.1,1.64-.17.02-.34.02-.52.03-.23,0-.45.01-.68.03-.66.01-1.32.01-1.98.05-.15,0-.3.01-.45.02-5.45,0-10.71-1.07-16.09-1.48-4.5-.34-8.98-1.05-13.31-1.93C106.8.67,97.64-.1,88.28.24c-1.92.04-3.85.12-5.79.25-.71.05-1.42.1-2.13.13-.63,0-1.25-.02-1.86-.07-4.09-.33-8.16-.7-12.19-.5-3.03.03-6.03.31-9.02,1.13-.09.03-.2.04-.3.06-.32-.01-.63-.02-.94,0-2.16.07-4.32.08-6.48.06l-1.62-.02h-.82s-.97,0-.97,0c-.59,0-1.18.02-1.77.05h-.17c-1.29,0-2.58.09-3.87.2-5.14.5-10.24,2.01-14.69,4.61-4.64,2.71-8.85,6.02-12.51,9.87-3.66,3.85-6.77,8.27-9.05,13.15-1,2.11-1.61,4.44-2.4,6.57-.16.45-.32.9-.47,1.36-.14.46-.26.92-.38,1.39-.26.93-.41,1.88-.57,2.82-.14.95-.22,1.91-.28,2.86-.01.48-.02.95-.03,1.43v.7s.02.59.02.59c.13,3.16.5,6.27,1.05,9.26.8,4.35.72,8.39.35,12.46-.45,5-.83,9.86-.23,14.91.34,2.86.51,6.04.09,8.83-.01,1.7-.04,3.4.02,5.1.11,3.02.86,5.68,1.63,8.54.13.49.14,1.01.14,1.51.02,1.74.04,3.48.06,5.22,0,.32,0,.64.11.94.09.26.24.5.39.73,3.87,6.09,4.33,14.62,2.88,21.5-1.11,5.28-1.32,10.64-1.8,15.95-.13.64-.26,1.27-.4,1.9-.29,1.32-.56,2.64-.8,3.97-.06.58-.11,1.15-.16,1.73-1.31,13.79-2.09,27.52-1.97,41.46.09,9.74.41,19.48.48,29.23.03,3.87.13,7.74.06,11.6-.02,2.17.04,4.43.22,6.65.19,2.23.47,4.46.82,6.73.35,2.11.97,4.33,1.88,6.43.91,2.1,2.13,4.08,3.52,5.74,3.5,4.17,7.39,7.76,11.66,10.84,2.4,1.74,5.37,4.02,8.48,2.56,1.62-.76,2.78-2.36,4.08-3.54,1.68-1.51,3.34-3.04,4.99-4.58,3.4-3.16,6.79-6.34,9.98-9.71.48-.51.96-1.02,1.43-1.53,1.87-2.05,7.45-7.43,1.75-8.23-4.45-.63-9.44,2.36-13.68,3.34-7.04,1.62-9.46-1.8-4.12-6.93,7.82-7.52,18.11-13.82,26.71-20.57,3.57-2.8,8.63-6.34,10.77-10.33,3.41-6.35-2.92-1.38-5.26-3.27-2.42-1.97,2.36-6.38,3.8-7.75,4.82-4.6,10.97-8.63,15.34-13.64.61-.7,3.02-3.28,2.36-4.2-2.55-.88-6.14,2.39-8.52.49-1.53-1.22-.4-2.75.43-3.99,2.49-3.72,10.05-8.86,13.74-12.14,5.11-4.54,10.21-9.38,15.06-14.21,1.95-1.93,10.04-9.82,10.26-11.99.23-2.28-2.56-.95-3.74-.34-3.16,1.62-10.78,8.26-13.84,8.12-2.58-.12-2.97-2.45-2.25-4.52,1.39-3.99,5.32-9.76,7.78-13.32,8.5-12.29,16.68-20.27,29.69-27.71,5.86-3.35,17.73-7.54,21.31-12.74,5.23-7.6,2.34-13.23-3.93-18.54-12.65-10.72-27.86-7.02-43.03-6.47-3.78.14-6.13.37-4.78-4.22,2.73-9.34,22.78-18.4,31.69-20.36,5.33-1.17,10.93-.93,16.13-2.72,5.23-1.79,8.74-5.76,13.45-8.21,15.49-8.05,38.06-4.06,52.81,4.12,5.67,3.15,9.34,6.38,16.03,7.89,1.27.29,5.05.62,5.74,1.01,1.12.63,1.23,1.68.46,2.65-1.98,2.49-10.33,1.63-13.32,1.87l-.47.64c.1.58.44,1.05.73,1.54,3,5.09,16.83,12.28,22.57,13.73,1.77.45,5.47.6,6.79,1.37.88.52,1.26,1.79.51,2.58-.62.66-6.46,1.75-7.75,1.96-3.42.57-7.57.55-10.83,1.27-3.09.68.2,4.38,1.22,5.7,3.84,4.98,8.85,10.96,13.07,15.63,1.24,1.37,6.85,6.35,7.12,7.51.43,1.88-.79,2.87-2.58,2.87-1.68,0-7.95-1.92-7.76.98,2.71,7.05,5.42,13.46,6.94,20.93,1.43,7.07,2.69,15.26,3.46,22.43.32,3.01,2.06,12.75-3.38,11.26-2.52-.69-3.75-4.83-4.77-5.37-.66-.35-1.09.45-1.07,1.06.35,10.1-2.16,15.65-6.29,24.53-3.84,8.26-8.56,18.56-13.04,26.35-1.18,2.05-3.37,6.03-6.27,4.84-2-.82-1.71-4.32-2.11-6.04-.3-1.28-.54-2.27-2.06-1.36-.83.5-4.5,8.95-5.42,10.62-1.54,2.81-6.32,10.78-8.63,12.47-3.08,2.26-4.92.06-5.41-3.03-.34-2.16-.2-7.98-2.75-2.31-1.56,3.47-7.08,18.19-7.16,21.28-.17,6.77,5.01,11.78,9.26,16.28,6.35,6.74,14.41,13.52,20.13,20.67.19.24.34.46.47.68.02.03.04.05.06.08,1.05,1.58,2.25,1.71,3.95,1.82,2.95-.09,5.9-.36,8.86-.55.36,0,.71.03,1.07.05,3.17.17,6.34.4,9.51.51.38.01.75.01,1.12.01-.09-.03-.17-.05-.25-.08-.01,0-.02,0-.03-.01.2,0,.41.02.61.03,4.09.13,7.35-.39,9.93-1.37.82.02,1.62.17,2.44.23,1.36.11,2.77-.34,4.15-.42,1.59-.09,3.18-.02,4.76.2.29.04.59.09.88.05.25-.04.49-.14.73-.2,1.17-.31,2.33.16,3.49.25,1.25.1,2.54.09,3.8.09.05,0,.1,0,.14,0,.8,0,1.6-.02,2.4-.06,2.55-.04,5.13-.31,7.75-.96,1.11-.25,2.19-.62,3.31-1.01,1.08-.44,2.2-.9,3.27-1.49,2.17-1.15,4.29-2.65,6.24-4.59,2.01-1.98,3.96-4.14,5.62-6.46,1.66-2.32,3-4.81,3.8-7.29,1.02-3.12,1.75-6.25,2.33-9.38.58-3.13,1.02-6.26,1.42-9.48.13-.89.18-1.78.23-2.67.05-.98.06-1.56.06-2.27.01-1.37-.01-2.74-.07-4.1Z"/>
  <path class="cls-1" d="M247.63,148.48c.45.98,1.69,2.8,2.9,2.62,1.88-.66,1.74-3.2,1.62-4.89-.36-5.1-4.89-21.95-7.89-25.88-.47-.62-1.5-1.63-2.33-1.5-.63.1-1.13.68-1.27,1.28-.77,3.29,1.5,7.32,2.39,10.43,1.45,5.06,2.59,13.62,4.57,17.94Z"/>
  <path class="cls-1" d="M230.82,182.87c-.55,1.54-2.25,5.49.37,5.98,1.71.32,2.77-.97,3.79-2.1,7.31-8.04,9.83-32.01,5.39-41.7-.29-.64-1.11-2.09-2-1.47-.07.05-.45,1.32-.52,1.59-.8,3.37.17,8.78-.07,12.59-.6,9.57-3.86,16.47-6.97,25.11Z"/>
</svg>