<?xml version="1.0" encoding="UTF-8"?>
<svg id="Layer_11" data-name="Layer 11" xmlns="http://www.w3.org/2000/svg" viewBox="0 0 314.01 288">
  <defs>
    <style>
      .cls-1 {
        fill: #1c5c7d;
      }
    </style>
  </defs>
  <path class="cls-1" d="M80.49,93.95c.11-.04.15-.05,0,0,0,0,0,0,0,0Z"/>
  <path class="cls-1" d="M208.93,80.54c-7.42.38-6.87,11.39.94,10.06,5.97-1.02,5.64-10.4-.94-10.06Z"/>
  <path class="cls-1" d="M97.04,117.63s-.05.1-.07.15c0,.01,0,.02,0,.03.06-.12.12-.25.1-.22l-.02.04Z"/>
  <path class="cls-1" d="M313.94,236.38c-.1-2.72-.32-5.43-.58-8.13-.52-5.4-1.22-10.76-1.58-16.18-.3-4.52-.79-9.03-.9-13.56-.13-5.16-.02-10.31-.77-15.41-.39-2.65-.83-5.49-.6-8.11.57-6.71,0-13.06-1.72-19.17-1.13-4-1.05-7.97-.33-12.06.26-1.46.5-2.96.56-4.46.21-5.92.35-11.85.5-17.77.03-1.07.14-2.17,0-3.19-.82-6-.68-11.95-.38-18.08.51-10.47.37-21.01.56-31.52.03-1.63.34-3.25.52-4.88.18-1.64.49-3.27.52-4.91l.14-8.42.04-4.21c0-.16,0-.4,0-.6v-.62s-.04-1.24-.04-1.24c-.06-.83-.11-1.66-.2-2.48-.73-6.61-3.09-13.06-6.87-18.43-1.46-2.1-3.07-4.08-4.91-5.77-1.83-1.69-3.88-3.09-6.09-4-3.23-1.31-6.19-2.82-9.28-4.24-3.07-1.43-6.24-2.83-9.6-3.79-2.47-.72-5.03-1.3-7.62-1.59-2.31-.29-4.62-.52-6.93-.54-5.01-.04-10.05-.21-15.07-.04-3.97.07-7.94.32-11.87.97-.44.07-.89.12-1.35.15-1.48-.01-2.99-.11-4.47-.13-7.15-.1-14.3-.33-21.45-.34-2.3,0-4.61.05-6.91.12-1.31.03-2.61.07-3.92.11-2.48.06-4.95.09-7.42.02-4.65-.14-9.26-.42-13.88-.23-2.35.03-4.71.17-7.07.48-5.32.7-10.72,1.12-16.1,1.64-.17.02-.34.02-.52.03-.23,0-.45.01-.68.03-.66.01-1.32.01-1.98.05-.15,0-.3.01-.45.02-5.45,0-10.71-1.07-16.09-1.48-4.5-.34-8.98-1.05-13.31-1.93C106.8.67,97.64-.1,88.28.24c-1.92.04-3.85.12-5.79.25-.71.05-1.42.1-2.13.13-.63,0-1.25-.02-1.86-.07-4.09-.33-8.16-.7-12.19-.5-3.03.03-6.03.31-9.02,1.13-.09.03-.2.04-.3.05-.32-.01-.63-.02-.94,0-2.16.07-4.32.08-6.48.06l-1.62-.02h-.82s-.97,0-.97,0c-.59,0-1.18.02-1.77.05h-.17c-1.29,0-2.58.09-3.87.2-5.14.5-10.24,2.01-14.69,4.61-4.64,2.71-8.85,6.02-12.51,9.87-3.66,3.85-6.77,8.27-9.05,13.15-1,2.11-1.61,4.44-2.4,6.57-.16.45-.32.9-.47,1.36-.14.46-.26.92-.38,1.39-.26.93-.41,1.88-.57,2.82-.14.95-.22,1.91-.27,2.86-.01.48-.02.95-.03,1.43v.7s.02.59.02.59c.13,3.16.5,6.27,1.05,9.26.8,4.35.72,8.39.35,12.46-.45,5-.83,9.85-.23,14.91.34,2.86.51,6.04.09,8.83-.01,1.7-.04,3.4.02,5.1.11,3.02.86,5.68,1.63,8.54.13.49.14,1.01.14,1.51.02,1.74.04,3.48.06,5.22,0,.32,0,.64.11.94.09.26.24.5.39.73,3.87,6.09,4.33,14.62,2.88,21.5-1.11,5.28-1.32,10.64-1.8,15.95-.13.64-.26,1.27-.4,1.9-.29,1.32-.56,2.64-.8,3.97-.05.58-.11,1.15-.16,1.73-1.31,13.79-2.09,27.52-1.97,41.46.09,9.74.41,19.48.48,29.23.03,3.87.13,7.74.05,11.6-.02,2.17.04,4.43.22,6.65.19,2.23.47,4.46.82,6.73.35,2.11.97,4.33,1.88,6.43.91,2.1,2.13,4.08,3.52,5.74,3.5,4.17,7.39,7.76,11.66,10.84,4.27,3.08,8.92,5.65,13.99,7.6l1.38.48.7.23.71.2,1.43.38c.48.11.96.2,1.45.3.97.21,1.95.31,2.94.44.49.06.99.08,1.48.11l.74.04.37.02h.31c.97.04,1.94.06,2.91.06,2.05.02,4.11-.02,6.18-.1.89-.03,1.77-.06,2.66-.1.36-.02.73-.03,1.09-.04.79-.02,1.58-.03,2.38-.04,1.53,0,3.07.01,4.6.05,1.96.05,3.94.12,5.9.13.47,0,.94,0,1.4,0,.02-.02.03-.04.05-.06,3.19.04,6.36-.07,9.42-.76,2.05-.46,3.94-.87,6.12-.78,4.99.2,9.99.43,14.99.45,6.19.03,12.33.2,18.52.53,7.37.39,14.85-.18,22.29-.34,3.32-.07,6.65-.24,9.97-.18.27,0,.55.02.82.04-.05.05-.1.11-.15.16,1.82.19,3.64.49,5.44.44,2.47-.07,4.94-.15,7.41-.24,2.2-.08,4.4-.16,6.6-.24,7.45-.26,14.89-.47,22.36-.28-.02-.03-.04-.05-.06-.08,2.19.04,4.38.11,6.58.22,2.05.11,4.11.2,6.17.28.03.04.05.07.08.11,4.53.16,9.06.27,13.59.3,1.1,0,2.19-.02,3.29-.07,3.03-.08,6.07-.37,9.11-.56.36,0,.71.03,1.07.05,3.17.17,6.34.4,9.51.51.38.01.75.01,1.12.01-.09-.03-.17-.05-.25-.08-.01,0-.02,0-.03-.01.2,0,.41.02.61.03,4.09.13,7.35-.39,9.93-1.37.82.02,1.62.17,2.44.23,1.36.11,2.77-.34,4.15-.42,1.59-.09,3.18-.02,4.76.2.29.04.59.09.88.05.25-.04.49-.14.73-.2,1.17-.31,2.33.16,3.49.25,1.25.1,2.54.09,3.8.09.05,0,.09,0,.14,0,.8,0,1.6-.02,2.4-.06,2.55-.04,5.13-.31,7.75-.96,1.11-.25,2.19-.62,3.31-1.01,1.08-.44,2.2-.9,3.27-1.49,2.17-1.15,4.29-2.65,6.24-4.59,2.01-1.98,3.96-4.14,5.62-6.46,1.66-2.32,3-4.81,3.8-7.29,1.02-3.12,1.74-6.25,2.33-9.38.58-3.13,1.02-6.26,1.42-9.48.13-.89.18-1.78.23-2.67.05-.98.06-1.56.06-2.27.01-1.37-.01-2.74-.07-4.1ZM58.28,199.59c-.1-.13-.21-.27-.3-.38-.68-.71-.97-1.71-1.07-2.65-.03-.28-.07-.57-.1-.86-.08-.77,0-1.54.14-2.26.14-.73.39-1.42.7-2.06.13-.27.26-.55.4-.82.13-.28.28-.55.42-.82.39-.75.86-1.41,1.29-2.15.07-.12.15-.25.22-.37l.56-.94c.19-.31.41-.6.6-.91.12-.18.24-.36.38-.53.14-.17.28-.33.42-.49.29-.32.58-.63.9-.93.58-.58,1.17-1.16,1.78-1.72l1.12-.92c.38-.3.77-.58,1.16-.87.28-.21.6-.39.84-.62.21-.18.43-.36.65-.54.23-.16.46-.32.69-.48.47-.32.95-.61,1.43-.89.53-.33,1.11-.57,1.67-.83.76-.37,1.54-.7,2.17-1.23.44-.35.95-.64,1.47-.91,1.33-.71,2.71-1.32,4.11-1.9.2-.08.41-.15.62-.22.21-.07.42-.13.62-.21,1.31-.53,2.62-1.05,3.95-1.51.78-.26,1.53-.53,2.26-.87.12-.06.27-.1.4-.14.75-.26,1.5-.5,2.26-.75.19-.06.39-.1.58-.15.54-.11,1.04-.28,1.52-.54.73-.4,1.52-.72,2.39-.95.34-.09.69-.24,1.01-.38.63-.27,1.29-.47,1.94-.69.57-.19,1.13-.42,1.7-.63,1.36-.5,2.65-1.1,4.07-1.51.32-.09.63-.2.93-.33.29-.13.61-.27.86-.41.42-.23.96-.43,1.48-.66,1.01-.44,1.93-.53,2.92-.57.67-.02.9.16,1.02.39.01.02.03.04.06.06.04,0,.08-.01.12-.02.05,0,.1,0,.15,0,.08-.14.22-.28.44-.39.21-.08.49-.17.86-.13.36.02.83.16,1.29.55.44.38.73.95.8,1.51,0,.1.01.2.02.31.04.68-.15,1.33-.46,1.86-.13.25-.32.46-.48.68l-.28.29s-.1.11-.18.17l-.17.12c-.39.28-.77.56-1.17.82-1.53,1.05-2.99,2.18-4.48,3.28-.27.2-.57.35-.85.54-.36.25-.72.52-1.07.78-.8.59-1.58,1.21-2.38,1.77-.68.47-1.34.95-1.99,1.45l-1.58,1.21c-.23.18-.4.37-.58.58-.42.48-.96.88-1.46,1.32-.34.29-.67.58-.99.88-.64.6-1.29,1.17-1.98,1.69-.96.72-1.85,1.51-2.69,2.4-.33.35-.75.7-1.14.98-.84.6-1.58,1.32-2.35,2.02-.97.87-1.92,1.76-2.91,2.62-.82.73-1.68,1.41-2.53,2.11-.69.54-1.38,1.11-2.09,1.57-.8.48-1.56,1.07-2.39,1.5-.44.22-.86.49-1.24.8-.19.15-.37.32-.54.49-.17.16-.33.33-.48.51-.04.04-.06.1-.09.13-.41.23-.79.5-1.19.75-.39.26-.81.48-1.25.66-.36.15-.74.37-1.07.59-.6.34-1.21.58-1.84.83-.25.11-.52.19-.78.3-.26.1-.52.22-.79.35-.72.39-1.56.71-2.44.83-.13.02-.26.05-.4.08-.14.02-.27.05-.41.07-1.25.19-2.53.27-3.84.1-.63-.07-1.25-.29-1.82-.59-.58-.31-1.09-.74-1.52-1.23ZM72.39,242.1c-.28.23-.57.49-.88.73-.7.53-1.46,1.02-2.29,1.39-.83.38-1.75.6-2.7.62-.91.02-1.82-.25-2.59-.68-.39-.21-.75-.46-1.1-.73l-.5-.44-.45-.5c-.15-.17-.26-.39-.39-.53-.12-.12-.2-.26-.29-.4-.09-.14-.18-.28-.25-.43-.13-.3-.28-.61-.35-.93-.2-.64-.24-1.3-.26-1.94,0-.38-.02-.79,0-1.17.04-2.11.65-4.06,1.46-5.83.34-.75.71-1.51,1.07-2.27.49-1.05,1.08-2.01,1.59-3.07.09-.18.18-.36.27-.53.43-.91.89-1.81,1.34-2.7.54-1.06,1.19-2.05,1.86-3.03.63-.94,1.24-1.9,1.89-2.84.77-1.09,1.57-2.16,2.37-3.22.29-.38.62-.77.87-1.16.84-1.3,1.84-2.51,2.82-3.72.55-.66,1.15-1.29,1.74-1.92.79-.86,1.6-1.72,2.19-2.68.41-.65.93-1.28,1.45-1.9,1.33-1.61,2.75-3.15,4.19-4.68.21-.22.44-.43.66-.64.22-.21.44-.41.65-.63,1.34-1.42,2.73-2.85,4.21-4.13.86-.76,1.7-1.48,2.49-2.28.13-.13.3-.26.45-.39l2.51-2.15c.21-.18.43-.35.65-.52.61-.46,1.15-.96,1.62-1.54.72-.89,1.53-1.74,2.45-2.58.36-.33.71-.72,1.04-1.09.63-.71,1.31-1.38,1.99-2.06.59-.6,1.16-1.22,1.75-1.83,1.41-1.46,2.72-2.96,4.33-4.3.73-.61,1.37-1.25,2.03-1.9.52-.52,1.19-1.03,1.82-1.52,1.23-.95,2.33-1.43,3.57-1.92.85-.32,1.23-.24,1.42-.04.02.02.04.03.07.05.06-.02.13-.03.18-.03.07,0,.14,0,.2,0,0,0,.01-.02.02-.02.14-.12.41-.2.75-.09.15.04.32.11.51.24.18.13.38.33.52.61.14.28.21.64.18.98-.02.35-.13.69-.28,1.01-.29.63-.68,1.12-1.05,1.6-.07.09-.14.18-.21.26-.22.3-.44.59-.63.87l-.13.2-.13.21-.28.47c-.7,1.12-1.42,2.24-2.15,3.33-1.43,2.15-2.74,4.36-4.1,6.54-.25.4-.55.76-.81,1.16-.34.52-.66,1.04-1,1.57-.74,1.17-1.46,2.36-2.24,3.49-.65.95-1.3,1.89-1.93,2.86-.51.78-1.05,1.54-1.57,2.31-.23.34-.4.65-.57.99-.41.79-.96,1.56-1.48,2.33-.35.51-.7,1.03-1.03,1.55-.66,1.03-1.34,2.03-2.07,2.99-1.02,1.33-1.96,2.69-2.84,4.15-.35.58-.79,1.19-1.21,1.72-.9,1.12-1.68,2.33-2.48,3.53l-3,4.54c-.84,1.27-1.69,2.53-2.55,3.79-.68,1-1.36,2.04-2.07,2.96-.8,1.02-1.53,2.12-2.37,3.11-.87,1.03-1.64,2.27-2.08,3.41-.03.07-.03.15-.07.2-.77,1.03-1.42,2.16-2.28,3.15-.34.4-.7.9-1,1.36-.52.79-1.08,1.49-1.67,2.22-.48.59-.95,1.19-1.42,1.87-.64.93-1.44,1.88-2.4,2.66ZM291.15,73.38c-.08.8-.46,1.55-.97,2.11-.51.57-1.14.97-1.78,1.26-.64.3-1.29.49-1.94.63-1.3.29-2.6.39-3.87.44-1.27.05-2.53.04-3.77.05-.62,0-1.22.02-1.83.07-.62.05-1.24.09-1.85.14-2.47.2-4.92.43-7.35.73-4.1.52-8.33,1.25-12.5,2.3-5.7,1.43-11.18,3.25-16.64,5.84-.9.44-1.83.89-2.68,1.4-1.1.64-2.18,1.34-3.16,2.16-.98.81-1.86,1.73-2.61,2.74-.38.5-.7,1.05-1.02,1.59l-.42.85c-.14.28-.24.58-.36.87l-.17.44-.14.45c-.09.3-.19.6-.26.9-.14.61-.28,1.22-.39,1.85-1.12,5.99-2.17,11.93-3.35,17.93-1.12,5.71-2.35,11.45-3.99,17.08-.98,3.3-2.07,6.57-3.39,9.75l-.99,2.39c-.16.4-.34.79-.53,1.18l-.55,1.17-1.1,2.34-1.21,2.28c-.29.55-.59,1.11-.88,1.67-.32.54-.65,1.09-.97,1.63-.32.54-.64,1.08-.95,1.61-.16.27-.31.53-.46.79-.16.25-.32.5-.48.75-.54.84-1.08,1.68-1.62,2.52-.26.43-.56.83-.86,1.23l-.89,1.21c-1.15,1.65-2.47,3.17-3.75,4.73-.31.4-.67.75-1.01,1.13l-1.03,1.11-1.03,1.11c-.33.38-.72.71-1.07,1.06l-2.18,2.1c-.74.68-1.52,1.32-2.28,1.98l-1.27,1.09-1.33,1.01-1.34,1c-.45.33-.88.68-1.35.98l-2.79,1.84c-.46.32-.94.59-1.42.87l-1.44.84c-5.23,3.02-10.85,5.39-16.28,7.32-1.88.62-3.87,1.11-5.92,1.47-2.05.36-4.14.59-6.22.82-2.67.3-5.35.57-7.94,1.06-1.28.25-2.55.59-3.65,1.19-1.12.58-2.02,1.45-2.72,2.51-.7,1.06-1.24,2.27-1.8,3.5-.56,1.23-1.14,2.46-1.79,3.66-1.28,2.38-2.64,4.72-4.05,7.02-.83,1.35-1.69,2.66-2.57,3.96-.87,1.3-1.76,2.58-2.67,3.86-2.89,4.14-6,8.15-9.32,11.97-3.33,3.81-6.87,7.44-10.71,10.71-4.5,3.82-9.25,7.14-14.54,9.57-.89.43-1.91.79-2.88,1.15l-2.06.65c-.68.19-1.38.39-2.08.56-1.41.32-2.86.58-4.37.45-.75-.07-1.52-.26-2.21-.66-.34-.19-.67-.44-.95-.72-.28-.29-.52-.63-.69-1-.35-.74-.4-1.58-.29-2.33.1-.76.34-1.47.62-2.15.58-1.37,1.37-2.61,2.1-3.79,2-3.37,4.06-6.59,6.03-9.88,1.51-2.52,3.03-5.07,4.55-7.72,1.54-2.64,3.13-5.34,4.8-8.09,1.3-2.15,2.66-4.51,3.94-6.7,2.46-4.23,5.04-8.44,7.65-12.65,2.3-3.69,4.59-7.36,6.96-11,1.42-2.18,2.85-4.34,4.29-6.49,1.44-2.15,2.9-4.29,4.43-6.39,1.53-2.11,3.11-4.19,4.87-6.19.88-1.01,1.84-1.98,2.93-2.86,1.09-.88,2.4-1.62,3.82-2,1.28-.36,2.55-.46,3.75-.53,1.2-.07,2.37-.11,3.52-.2,2.3-.16,4.54-.53,6.77-1.05.44-.11.89-.23,1.34-.34.46-.1.9-.27,1.37-.4.93-.26,1.84-.62,2.77-.95.47-.16.91-.39,1.38-.57.46-.2.92-.39,1.36-.62.44-.22.89-.45,1.33-.67.43-.24.85-.5,1.27-.74.21-.12.41-.24.61-.36.19-.13.39-.26.58-.39.38-.26.76-.51,1.13-.76.36-.27.71-.54,1.05-.8.34-.27.7-.51,1.01-.8.64-.56,1.29-1.08,1.84-1.68.29-.29.58-.57.86-.85.27-.29.53-.6.79-.89,2.09-2.38,3.68-4.94,4.97-7.86,1.76-3.99,2.3-5.2,2.7-5.75.04-.06.09-.19.13-.34,0-.04,0-.08,0-.11,0-.15-.16-.69-.23-.73-.32-.2-.66-.18-.99-.04-.03.02-.06.04-.1.07-.53.42-1.08,1.22-1.7,2.4-.65,1.2-1.43,2.74-2.57,4.63-.58.94-1.26,1.97-2.14,3.01-.88,1.04-1.97,2.07-3.26,3.03-1.25.94-2.62,1.74-4.03,2.4-1.41.66-2.86,1.2-4.33,1.67-.54.17-1.09.34-1.63.48-3.66,1.03-7.42,1.64-11.18,1.92-3.43.23-6.88.23-10.32-.09-3.43-.33-6.85-.92-10.13-2.06-1.6-.57-3.17-1.24-4.63-2.2-1.44-.96-2.74-2.21-3.6-3.78-.85-1.56-1.2-3.48-.74-5.24.42-1.77,1.52-3.3,2.84-4.43.66-.57,1.39-1.06,2.14-1.48.19-.1.38-.22.58-.31l.31-.14.5-.2c.33-.14.65-.26.95-.42.08-.04.14-.1.18-.18.04-.07.06-.17,0-.24-.13-.13-.32-.15-.5-.15-.35.02-.7.12-1.03.2l-.49.15-.95.3c-.79.25-1.59.5-2.41.71-.84.21-1.62.38-2.44.56-2.35.52-4.79.93-7.25,1.12-1.62.12-3.26.13-4.88-.03-1.63-.16-3.24-.47-4.81-.92-.88-.25-1.73-.55-2.59-.87-.86-.33-1.69-.71-2.5-1.13-1.63-.84-3.19-1.83-4.59-3.06-1.39-1.22-2.65-2.71-3.3-4.58-.32-.92-.43-1.94-.33-2.92.11-.98.43-1.92.89-2.76.75-1.43,1.97-2.59,3.32-3.39,1.35-.81,2.81-1.32,4.24-1.75,1.44-.43,2.88-.77,4.25-1.22.34-.12.69-.22,1.02-.36l.5-.19.48-.22.24-.11c.09-.04.15-.07.2-.1.04-.02.07-.04.1-.07h0s-.09,0-.16,0c-.12,0-.26.02-.4.03-.28.03-.56.08-.85.13-.58.1-1.16.22-1.75.33-.59.12-1.17.24-1.77.35-.31.05-.6.11-.95.14l-.92.04c-2.44.11-4.88-.05-7.28-.41-2.1-.33-3.9-.7-5.83-1.23-4.48-1.25-9.06-3.45-12.72-6.82-1.19-1.15-2.26-2.43-3.14-3.85-.87-1.42-1.58-2.99-1.83-4.71-.12-.85-.11-1.74.09-2.61.19-.87.59-1.7,1.13-2.4.54-.7,1.21-1.27,1.92-1.73.35-.24.73-.43,1.1-.62.38-.16.75-.35,1.15-.48,1.55-.57,3.21-.83,4.83-.81,1.62,0,3.19.22,4.72.46,1.07.17,2.12.34,3.17.47.52.07,1.05.11,1.57.15l.78.04c.19.01.37-.03.4-.05,0-.02,0-.07,0-.13,0-.02,0-.03-.01-.05-.04-.02-.09-.05-.15-.07-.42-.18-.94-.32-1.45-.45-1.03-.26-2.06-.45-3.15-.71-2.15-.63-4.15-1.51-6.1-2.56-1.93-1.07-3.75-2.32-5.5-3.68-2.76-2.19-5.5-5.11-7.49-7.99-.28-.37-.53-.77-.78-1.17l-.75-1.19-.68-1.23-.34-.62c-.11-.21-.2-.42-.3-.64l-.59-1.28c-.19-.43-.34-.88-.51-1.32-.37-.87-.56-1.8-.83-2.71-.42-1.83-.74-3.69-.8-5.59-.04-.95.02-1.91.14-2.86.15-.95.41-1.91.84-2.8l.21-.42.26-.4c.16-.27.38-.51.58-.75.43-.46.92-.89,1.48-1.19.55-.33,1.15-.53,1.75-.7.61-.13,1.23-.23,1.84-.23,1.23-.03,2.44.15,3.6.43,1.17.29,2.3.69,3.39,1.15,1.09.47,2.15,1.01,3.19,1.58,1.03.59,2.03,1.2,3.02,1.82,1.99,1.24,3.95,2.51,5.91,3.78,3.29,2.14,6.56,4.3,9.9,6.33,3.35,2.02,6.76,3.95,10.19,5.84,5.45,3,11.16,5.9,16.47,8.65,5.9,3.06,12.03,6.02,17.96,9.08,3.07,1.58,6.3,3.2,9.45,4.75,1.58.77,3.14,1.53,4.64,2.26.76.36,1.5.71,2.23,1.06.73.35,1.45.72,2.12,1.09.34.18.65.33.92.49.7.43,1.41.85,2.12,1.23.72.37,1.45.69,2.2.91.75.22,1.52.32,2.28.3.76,0,1.52-.24,2.2-.5.62-.29,1.18-.83,1.66-1.44.48-.62.9-1.31,1.29-2.02.77-1.43,1.42-2.96,2.07-4.5.26-.63.54-1.28.82-1.95.29-.66.58-1.38.96-2.02.36-.66.71-1.32,1.07-1.97l.26-.49c.09-.16.2-.31.29-.47.2-.31.39-.62.58-.92.33-.52.64-1.04.99-1.54.37-.49.73-.97,1.09-1.46.7-.99,1.53-1.86,2.32-2.77.2-.22.39-.46.61-.66l.65-.63,1.3-1.25c.44-.41.92-.77,1.39-1.16l.7-.58c.23-.19.46-.39.72-.56,3.18-2.37,6.64-4.28,10.58-5.81,1.37-.47,2.76-1.01,4.23-1.35,1.44-.43,2.95-.67,4.46-.95.76-.11,1.53-.18,2.3-.27.38-.04.77-.09,1.15-.12l1.16-.05c.78-.02,1.55-.08,2.33-.07.78.02,1.55.05,2.32.07,1.85.07,3.82.29,5.7.69,4.35.92,8.46,2.77,12.16,5.17.46.3.91.62,1.37.92l1.34.97,1.3,1.01.64.52.15.13c.05.03.1.12.16.06.13-.06.77-.33,1.25-.52l1.52-.6c1.02-.39,2.04-.77,3.07-1.13,3.94-1.39,7.94-2.54,11.98-3.56,4.05-1.02,8.13-1.82,12.24-2.49,1.01-.16,2.14-.34,3.01-.47,3.01-.51,6.06-.91,9.14-1.2,3.07-.3,6.2-.54,9.36-.46,1.89.06,3.87.17,5.81.69.66.19,1.32.42,1.95.8.64.39,1.2.94,1.58,1.6.19.34.34.7.43,1.09.09.39.11.79.07,1.19Z"/>
</svg>