<?xml version="1.0" encoding="UTF-8"?>
<svg id="Layer_11" data-name="Layer 11" xmlns="http://www.w3.org/2000/svg" viewBox="0 0 264.64 199.27">
  <defs>
    <style>
      .cls-1 {
        fill: #1c5c7d;
      }
    </style>
  </defs>
  <path class="cls-1" d="M229.65,117.61c.19-.07.37-.15.55-.23l3.42-1.51c1.21-.52,2.43-1.01,3.67-1.52.5-.2.98-.46,1.49-.67.22-.09.46-.17.68-.21.91-.17,1.84-.33,2.73-.38.35-.01.69.08.85.21.46.35,1.73-1.04,2.55-1.07.38-.01.75,0,1.19,0,.23-.07.49-.15.76-.22.81-.14,1.61.14,2.39.34.54.15,1.13.19,1.67.38.84.27,1.66.66,2.43,1.05.54.28,1.08.56,1.66,1l.23.18.26.24c.18.15.32.35.47.53.26.38.47.81.53,1.27.16.97-.41,1.88-1.09,2.54-.16.15-.37.31-.56.47-.22.1-.49.21-.58.24l-.81.3c-.83.3-1.65.71-2.48,1.06l-.56.23-4.11,1.81-2.18,1c-.21.1-.42.21-.51.25-.29.11-.46.16-.62.24-1.14.55-2.27,1.11-3.4,1.68-.47.24-.91.53-1.38.78-.8.43-1.61.84-2.42,1.25-1.78.89-3.59,1.69-5.43,2.37-.19.07-.37.17-.56.25-.18.08-.37.14-.56.19l-8.16,3.88.03.04c-.15.05-.32.09-.46.17-.53.29-1.05.59-1.58.87l-2.53,1.28-3.19,1.62-2.54,1.25-1.98.96-3.22,1.53-2.76,1.3-2.43,1.23c-.52.25-1.08.43-1.59.69-1.4.72-2.8,1.44-4.2,2.17-.94.46-1.9.89-2.85,1.33-.27.13-.53.3-.8.43-.6.3-1.21.56-1.78.74-.54.18-1.06.28-1.52.26-.44-.03-.87-.14-1.26-.47-.4-.36-.48-.71-.59-1.11-.01-.14-.02-.28-.03-.44-.03-.76.25-1.75.47-2.68.08-.3.15-.6.23-.9.07-.26.14-.51.23-.75.12-.35.23-.7.31-1.02l.05-.22.06-.28.1-.55c.13-.72.24-1.44.28-2.07.04-.5-.03-1.07-.08-1.77-.04-.69-.08-1.58.24-2.52.17-.54.47-1.04.81-1.47.34-.41.73-.78,1.11-1.05l.39-.28.42-.18.51-.22,1.01-.45c.32-.14.63-.3.94-.45.75-.37,1.5-.73,2.26-1.1.25-.12.53-.16.79-.27.92-.36,1.85-.73,2.76-1.12.33-.14.63-.37.96-.52.57-.26,1.15-.51,1.73-.75l2.6-1.08c.72-.3,1.44-.67,2.15-.88.82-.25,1.58-.63,2.37-.93.28-.11.55-.27.82-.4l.06-.05c.24-.1.5-.24.72-.28.75-.14,1.45-.51,2.15-.82,1.32-.59,2.61-1.25,3.94-1.82,1.04-.44,2.12-.78,3.17-1.19.78-.3,1.54-.66,2.32-.97.64-.26,1.28-.5,1.93-.74l5.35-2Z"/>
  <path class="cls-1" d="M197.31,110.52c.74-.21,1.41-.54,2.11-.8.25-.09.48-.24.72-.36l.05-.05c.21-.08.44-.22.63-.25.67-.11,1.29-.44,1.9-.72,1.16-.53,2.29-1.15,3.46-1.66.9-.42,1.85-.73,2.77-1.12.68-.29,1.33-.64,2-.95l.83-.37.3-.14c.12-.07.26-.08.37-.11l.5-.11c1.81-.35,3.62-.43,5.39-.3l.57.03c1.17.06,2.34.19,3.48.43,1.21.24,2.37.64,3.51,1.04.47.17.97.3,1.47.54.21.1.45.24.62.4.36.32.73.72,1.01,1.25.27.52.31,1.1.18,1.58-.1.39-.4.63-.59.68-.06.02-.12.02-.18.03-.07.15-.16.31-.27.48-.02,0-.03.01-.05.02.1.05.14.15.13.24,0,.24-.81,1.04-1.2,1.22-.29.13-.57.26-.9.41-.14.15-.29.33-.45.51-.5.46-1.18.61-1.8.88-.43.18-.82.48-1.25.68-.66.31-1.34.58-2.01.88-.92.42-1.83.83-2.73,1.27-.93.46-1.86.88-2.84,1.23-.74.27-1.46.65-2.2.99l-.5.21-3.65,1.64-1.95.89c-.19.09-.37.19-.45.22-.26.1-.41.14-.56.21-1.01.5-2.02.99-3.03,1.49-.42.21-.81.48-1.23.7-.71.37-1.43.74-2.16,1.09-1.58.79-3.24,1.44-4.82,2.03-.16.06-.32.15-.48.22-.16.07-.32.13-.49.17-2.37,1.19-4.76,2.47-7.28,3.56l.02.04c-.14.05-.3.07-.43.13-.5.23-.98.5-1.51.7-.4.17-.81.32-1.23.46-.41.15-.84.27-1.28.39-.53.17-1.11.26-1.67.39-.58.07-1.15.17-1.76.17-.96.04-1.81-.08-2.67-.16-.66-.08-1.32-.16-1.97-.26-1.06-.16-2.09-.33-3.16-.52-.91-.17-1.8-.38-2.7-.57l-1.21-.25-.64-.14c-.33-.08-.66-.17-.99-.26-.83-.24-1.55-.6-2.11-.95-1.35-.92-1.01-2.01.04-3.03.38-.37.83-.73,1.37-1.05.34-.2.73-.41,1.04-.58l.62-.34,1.24-.67c.24-.13.46-.29.7-.41.3-.15.61-.26.91-.41.28-.14.56-.29.84-.44.64-.33,1.29-.66,1.93-.98.85-.45,1.67-.99,2.55-1.34,1.26-.52,2.46-1.12,3.69-1.68l3.12-1.51c1.2-.56,2.41-1.08,3.61-1.63l.84-.4c.67-.33,1.34-.66,2.02-.98.22-.1.48-.14.71-.22.83-.31,1.65-.62,2.47-.96.3-.12.56-.33.85-.46.51-.23,1.03-.44,1.55-.65l2.32-.93c.64-.26,1.28-.58,1.92-.76Z"/>
  <path class="cls-1" d="M146.68,115.39c.65-.23,1.28-.58,1.92-.87l.44-.18,3.21-1.45,1.72-.78c.16-.08.33-.16.4-.19.23-.08.37-.12.49-.18l2.7-1.27c.37-.18.71-.41,1.08-.6.63-.32,1.26-.64,1.9-.94,1.4-.67,2.84-1.24,4.32-1.69.15-.05.29-.12.44-.17.15-.05.29-.09.45-.12,2.17-.92,4.36-1.83,6.57-2.69l-.02-.04c.12-.03.26-.04.37-.09.43-.2.86-.42,1.29-.6.69-.28,1.39-.56,2.1-.81.89-.33,1.78-.66,2.71-.94.74-.23,1.48-.4,2.31-.55.66-.09,1.24-.12,1.84-.15.96-.03,1.92-.03,2.87.01.82.03,1.63.11,2.45.18.73.07,1.47.11,2.22.25.48.09.94.27,1.43.4.35.1.65.18,1.06.36.47.21.93.48,1.29.83l.25.28c.07.1.13.21.2.32.07.11.11.23.17.34.28.54-.08,1.66-.17,2.2-.2,1.14-1.75,1.45-2.66,1.88-.21.1-.4.25-.62.34-.26.12-.54.21-.81.32-.25.11-.5.24-.75.36-.57.27-1.14.54-1.7.82-.75.38-1.46.86-2.23,1.16-1.11.44-2.15.97-3.22,1.48-.91.44-1.8.93-2.7,1.38l-3.12,1.52c-.24.12-.48.25-.72.38-.58.31-1.15.63-1.73.93-.19.1-.42.13-.62.21-.72.3-1.43.59-2.14.91-.26.12-.47.32-.73.44-.44.22-.89.42-1.34.62l-2.01.89c-.56.25-1.11.56-1.67.72-.65.19-1.23.51-1.84.76-.22.09-.42.22-.63.34l-.04.05c-.19.08-.38.2-.56.23-.6.09-1.13.4-1.67.67-1.01.5-2,1.05-3.02,1.53-.8.37-1.64.64-2.46.98-.6.25-1.18.55-1.78.82-1.57.67-2.71.82-4.42.56-.78-.12-1.55-.27-2.29-.45-.16-.04-.32-.06-.48-.09-.99-.21-1.97-.43-2.92-.69l-2.95-.85c-.4-.1-.81-.15-1.21-.23-.17-.03-.36-.09-.51-.16-.93-.44-2.31-.81-3.19-1.4-.06-.04-.12-.08-.18-.13-.53-.41-.51-1.02-.2-1.55.11-.19.23-.33.33-.41.28-.23.55-.4.87-.57.12-.16.27-.34.42-.52.48-.46,1.13-.56,1.71-.76.4-.14.78-.37,1.17-.51l.81-.27.88-.37c.8-.35,1.61-.71,2.39-1.1.81-.4,1.63-.77,2.48-1.08Z"/>
  <path class="cls-1" d="M113.88,13.59s0,0,0-.01c-.02,0-.04,0-.05,0-.42-.09-.65-.52-.73-.67-.04-.08-.09-.19-.14-.38-.05-.19-.11-.46-.09-.84,0-.19.01-.41.04-.7.01-.29.1-.64.24-1.11.08-.28.15-.5.21-.69.08-.18.15-.34.22-.49.07-.16.14-.31.23-.5.04-.09.09-.2.14-.31.06-.11.13-.23.21-.37.19-.32.34-.66.55-.97l.46-.63c.15-.21.31-.42.49-.61.35-.38.71-.76,1.14-1.04.23-.17.46-.35.68-.54.23-.17.47-.33.71-.49.1-.07.21-.14.32-.19.48-.24.96-.47,1.42-.73.21-.1.44-.16.64-.26.35-.16.69-.35,1.05-.48.05-.02.1-.06.15-.07.37-.05.66-.29.99-.4.12-.04.25-.05.38-.08.09-.02.17-.04.25-.06.58-.22,1.18-.35,1.78-.42h.03c.41-.12.84-.15,1.26-.19.11-.01.22-.07.33-.12.19-.08.37-.14.57-.2.05-.01.11,0,.16,0l.97.12.13.02c.58,0,1.14.07,1.69.2.2.05.41.06.61.08.55.04,1.1.13,1.63.26.31.07.6.19.92.26.38.09.78.14,1.16.28.21.07.42.15.62.24.31.12.59.3.88.47l.22.14c.1.06.21.15.31.18.22.06.4.2.58.32.51.33,1.02.63,1.54.95.4.25.75.56,1.12.85.33.34.68.67.98,1.05.09.13.21.23.32.35.16.17.32.34.36.57.01.1.04.2.06.3.04.21.14.37.3.47.2.12.31.3.3.53,0,.27.07.51.17.78.17.38.18.8.27,1.2.05.22.1.43.19.64.09.19.15.41.21.63.07.22.06.42-.08.59-.09.11-.09.27-.03.41.14.32.18.66.1,1.02-.06.35-.09.7-.13,1.05v.1c.07.29-.11.54-.15.81-.02.11-.07.22-.08.33-.03.32-.16.62-.27.91-.12.29-.24.59-.39.86-.13.25-.26.5-.38.76-.12.26-.28.49-.4.74-.09.18-.19.36-.29.54-.11.17-.24.33-.36.49-.24.33-.48.65-.77.94-.28.28-.51.62-.79.9-.25.28-.57.51-.88.75l-.96.69c-.24.16-.49.31-.74.46-.22.13-.44.27-.66.4-.28.17-.56.29-.88.37-.28.08-.57.24-.86.35-.11.04-.22.09-.33.12-.17.05-.34.11-.51.15-.17.04-.34.1-.52.05-.04-.01-.11,0-.16.01l-.64.17c-.22.04-.43.08-.65.1-.44.04-.84.2-1.26.22-.43.02-.84.24-1.28.15-.13-.02-.29.05-.45.07-.36.04-.72.09-1.09.09h-.5c-.39.02-.79.04-1.18-.06-.53-.11-1.06-.22-1.61-.21-.05,0-.12,0-.16-.03-.18-.12-.39-.13-.6-.15-.13,0-.26-.06-.39-.11-.47-.21-.97-.27-1.45-.43-.41-.14-.84-.24-1.25-.41l-.09-.04c-.37-.11-.75-.24-1.1-.43-.35-.19-.7-.39-1.05-.57l-.73-.45-.37-.23-.35-.26c-.4-.3-.79-.61-1.13-.99-.28-.3-.39-.43-.7-.88-.27-.38-.51-.66-.64-.89-.19-.34-.37-.64-.51-.93-.12-.3-.22-.56-.31-.78-.12-.28-.19-.59-.27-.91-.07-.33-.15-.68-.16-1.07-.07-1.13.13-1.33.22-1.44.15-.14.3-.12.52-.37.1-.12.14-.21.26-.24.05-.02.11-.02.22.02,0,0,0-.02,0-.03Z"/>
  <path class="cls-1" d="M106.11,81.56c.04-.79.1-1.58.17-2.37.05-.58.11-1.16.18-1.74.05-.52.14-1.03.18-1.54.07-.65.16-1.25.34-1.89.15-.56.21-1.22.31-1.84l.13-.7.23-1.05c.08-.35.14-.7.28-.99.04-.07.07-.2.09-.31.18-.87.35-1.75.57-2.59.22-.85.32-1.7.52-2.54.2-.86.25-1.72.54-2.57.09-.25.1-.59.16-.89.14-.71.28-1.43.43-2.15l.2-.97c.16-.77.3-1.54.51-2.31.27-1.03.56-2.07.61-3.13,0-.09.03-.23.06-.31.16-.37.18-.77.23-1.18.02-.25.07-.51.12-.76.18-.95.22-1.9.2-2.82-.03-.81-.11-1.59-.26-2.35,0-.06-.01-.12-.03-.18-.37-1.3-.83-2.59-1.6-3.69-.14-.19-.27-.39-.43-.57l-.23-.28-.33-.37c-.15-.19-.36-.38-.54-.57-.17-.19-.32-.38-.48-.57l-.48-.58-.05-.07.05-.08.11-.16.22-.31c.25-.36.52-.7.78-1.06.13-.18.27-.35.43-.52l.41-.42c.38-.37.77-.72,1.17-1.03.33-.26.57-.43.84-.6.27-.18.57-.37,1.03-.65.39-.24.75-.44,1.07-.62.32-.18.59-.33.82-.43,1.36-.67,2.57-1.05,3.46-1.33,1.14-.3,2.36-.61,3.87-.71,2.18-.14,2.57.03,2.77.13.27.15.21.3.73.52.24.1.42.14.5.26.03.05.05.11-.03.22.02,0,.04,0,.06,0,0,0,.02,0,.03,0,0-.02.01-.04.02-.05.19-.42,1.09-.65,1.4-.72.16-.04.4-.07.79-.09.2,0,.43-.02.72-.02.29.01.62.05,1.02.09.4.03.84.14,1.43.28.3.06.62.19.99.32.38.12.79.32,1.25.55.29.13.52.29.74.43.22.14.42.26.59.39.34.28.64.5.9.76.25.28.55.52.82.9.14.18.29.38.47.6.15.24.31.5.49.79.2.36.37.73.54,1.1.13.38.3.76.39,1.15.32,1.09.38,2.25.37,3.31-.01.53-.03,1.05-.09,1.56-.05.51-.11,1.03-.2,1.53-.18,1.14-.36,2.29-.59,3.42-.05.24-.1.49-.16.72-.27,1.03-.52,2.07-.78,3.12l-.36,1.35-.53,2.27c-.03.11-.03.23-.06.32-.25.7-.32,1.4-.48,2.1-.06.25-.14.5-.21.76-.05.17-.1.34-.13.51-.26,1.2-.52,2.41-.84,3.6l-.02.06c-.16.84-.35,1.67-.53,2.51-.05.22-.05.46-.06.69-.02.39-.04.77-.06,1.17,0,.1-.04.22-.07.32l-.5,1.87c-.02.08-.04.17-.06.25-.16,1.14-.4,2.24-.61,3.34-.07.39-.11.81-.14,1.22-.1,1.09-.14,2.18-.18,3.26-.04.63-.03,1.21.01,1.82l.19,1.1.27,1.08c.12.39.24.79.36,1.18l.32.87.38.85.22.44c.1.2.2.44.34.59.27.32.5.66.75.99.29.37.6.71.95,1.05.54.5,1.21.97,1.91,1.44-.02.06-.01.1-.04.15l-.14.17-.27.35c-.22.26-.42.53-.66.79l-.74.79c-.36.36-.68.69-1.04,1-.71.65-1.46,1.24-2.25,1.8-.25.19-.5.38-.75.57-.37.27-.73.55-1.17.67-.17.05-.37.13-.55.2-.38.13-.71.34-.96.55-.31.27-.67.45-1.09.54-.49.09-.98.25-1.52.46-.38.16-.79.25-1.19.36-.4.1-.8.21-1.21.29-.46.08-.89.18-1.32.34-.4.16-.85.24-1.3.32-.45.08-.86.11-1.19,0-.22-.07-.55-.07-.83,0-.66.14-1.35.23-2.1.12-.36-.03-.72-.07-1.09-.1-.36-.02-.73-.13-1.09-.19-.07-.01-.15-.03-.21-.03-.29,0-.58-.02-.86-.13-.28-.1-.55-.22-.82-.31-.23-.08-.46-.16-.68-.25-1.28-.51-2.4-1.33-3.32-2.34-.79-.92-1.51-1.93-2-3-.77-1.54-1.14-3.21-1.33-4.87-.09-.82-.16-1.64-.22-2.45-.05-.75,0-1.56.05-2.33Z"/>
  <path class="cls-1" d="M264.4,135.17c-.08.19-.2.4-.26.52-.07.13-.22.33-.33.49-.66.78-1.34,1.3-2.03,1.88-.69.55-1.39,1.08-2.1,1.6-1.41,1.03-2.85,2.03-4.29,3.01-.5.34-1.02.7-1.5,1.04-2.55,1.85-5.11,3.66-7.71,5.44-1.08.74-2.31,1.59-3.33,2.17-3.41,1.97-6.71,4.22-10.06,6.34l-2.96,1.86c-2.01,1.27-4.03,2.54-6.03,3.84-3.32,2.15-6.74,4.33-9.86,6.49-5.25,3.63-10.49,7.32-15.83,10.88-.98.65-2.01,1.39-2.82,2-1.99,1.53-4.26,2.92-6.57,4.26-3.74,2.19-7.53,4.27-11.41,6.23-1.92.99-3.92,1.94-5.99,2.72-2.07.78-4.28,1.36-6.52,1.59-3.18.35-6.58.13-9.6-.04-.44-.03-1.1.02-1.67.03-4.3.13-8.62.29-12.93.46-.82.03-1.71.08-2.42.16-3.34.36-6.98.5-10.61.63-1,.03-2.03-.02-3.03-.04-.9-.02-1.79-.07-2.67-.05-3.01.1-6.04.19-9.01.32-5.8.24-11.59.36-17.4.21-1.66-.04-3.23-.19-4.87-.23-3.84-.08-7.72-.21-11.56-.33-2.79-.11-5.55-.17-8.36-.36-2.79-.22-5.58-.53-8.35-1-4.7-.77-9.33-1.93-13.9-3.17-2.89-.8-5.76-1.56-8.62-2.44-3.45-1.06-6.9-2.26-10.32-3.27-.4-.12-.81-.25-1.22-.37-.54-.03-1.09-.09-1.66-.24-4.02-1.04-8.03-2.07-12.05-3.11-1.83-.47-4.03-.98-6.05-1.78-2.01-.8-3.85-1.89-4.91-3.54-1.18-1.85-1.7-3.73-2.38-5.76-.48-1.45-.8-3.12-.97-4.63C.06,167.35,0,165.86,0,164.42,0,162.01.17,159.77.19,157.44c.04-4.12.54-8.2.8-12.27.25-3.83.5-7.68,1.12-11.48.44-2.69,1.08-5.4,2.41-7.81.95-1.72,2.27-3.27,3.93-4.36.88-.58,1.53-.74,2.51-.96.69-.15,1.39-.41,2.14-.52,3.99-1.34,8.13-2.61,12.48-3.73,2.34-.71,4.68-1.41,7.06-2,4-.92,8.04-1.74,12.1-2.35.82-.14,1.63-.19,2.44-.3,5.05-.78,10.17-1.27,15.28-1.43,1.78-.11,3.56-.06,5.34-.11,1.78,0,3.56.09,5.35.17,1.32.14,2.66.28,3.99.42,1.33.18,2.66.43,3.99.63l3.75.77c1.24.32,2.48.62,3.71.95l3.33,1.01,3.29,1.13c3.42,1.24,6.78,2.63,10.09,4.08,3.01,1.32,5.97,2.69,8.95,4.01,2.31,1.02,4.62,2.04,6.95,2.97,1.05.43,2.11.85,3.18,1.24,1.06.4,2.13.8,3.21,1.15,5.99,2.03,12.15,3.63,18.29,5.39,3.34.95,6.97,1.69,10.48,2.48,3.17.69,6.36,1.44,9.53,1.98,4.01.67,8.1,1.04,12.18,1.78.27.05.54.1.81.15.32.07.72.1,1,.28.61.37.96,1.04,1.04,1.65.13.98-.09,1.74-.32,2.51-.25.76-.56,1.47-.89,2.17-.34.69-.68,1.37-1.06,2.02-.2.33-.41.66-.61.98-.24.31-.46.62-.71.92-.8.94-1.84,1.71-3,2.18-1.16.47-2.39.65-3.57.73-2.38.13-4.66-.03-7.01.06-1.29.02-2.62.08-3.97.13-1.34.01-2.7.06-4.03.05-4.49-.03-8.93-.35-13.33-.5-1.88-.06-4.14-.31-6.15-.56-3.35-.42-6.65-.85-10.04-1.22-6.81-.73-13.6-1.58-20.45-1.8l-2.56-.07c-.18,0-.35.01-.52.04-.33.05-.85.16-1.13.35-.46.32-.05.79.2,1.09l.15.18.28.33c.4.46.84.9,1.29,1.33,1.58,1.47,3.85,1.71,5.91,2.19,2.19.51,4.39.95,6.6,1.34,2.08.38,4.28.72,6.25,1.09,5.78,1.09,11.66,1.53,17.52,2.08,3.48.33,6.94.67,10.41.94,1.28.1,2.55.22,3.83.3,5.09.3,10.16.35,15.18.2,2.27-.07,4.87-.45,7.27-.98,1.52-.37,3.07-.7,4.58-1.11,1.51-.44,3.03-.81,4.5-1.25,1.08-.32,2.09-.65,3.09-.98,1-.33,1.95-.74,2.94-1.13,5.14-2.11,10.32-4.3,15.52-6.61,2.06-.92,4.13-1.96,6.19-2.98,2.7-1.33,5.4-2.66,8.11-3.99,1.09-.53,2.19-1.06,3.27-1.6,3.64-1.81,7.31-3.59,11-5.31,3.71-1.7,7.45-3.32,11.25-4.8,1.13-.43,2.29-.87,3.52-1.17,1.23-.31,2.52-.49,3.79-.46.63.01,1.26.06,1.87.14.6.08,1.27.2,1.86.38,1.19.35,2.33.78,3.45,1.32.66.32,1.33.66,1.97,1.14.55.41,1.18,1.09,1.26,1.86.04.43-.05.85-.22,1.24Z"/>
</svg>