<?xml version="1.0" encoding="UTF-8"?>
<svg id="Layer_11" data-name="Layer 11" xmlns="http://www.w3.org/2000/svg" viewBox="0 0 198.15 190.97">
  <defs>
    <style>
      .cls-1 {
        fill: #1c5c7d;
      }
    </style>
  </defs>
  <path class="cls-1" d="M183.89,108.75c.03-2.05.09-4.09-.19-6.1-.04-.29-.02-.67-.03-1-.02-.68-.04-1.37-.05-2.05l-.02-1.03v-.54c-.01-.13,0-.27-.05-.4-.03-.13-.05-.26-.11-.38-.09-.25-.24-.5-.35-.66-.12-.17-.23-.34-.36-.48-.24-.3-.5-.57-.76-.84-.53-.52-1.07-.99-1.75-1.41-.08-.05-.2-.12-.33-.19-.12-.07-.25-.12-.38-.16-.12-.06-.26-.06-.4-.09-.13,0-.27-.01-.41,0l-1.08.02c-.72.01-1.43.01-2.15.01-1.44,0-2.87-.03-4.31-.06-.62-.01-1.26,0-1.86-.03-2.02-.12-4.06-.06-5.95.08-1.37.11-2.65.1-3.94.05-1.58-.06-3.12-.11-4.71-.03-.93.05-1.97.07-2.86,0-2.21-.16-4.4.04-6.59-.01-.1,0-.22.06-.34.09-2.01.46-4.5.58-6.77.37-2.2-.2-4.44-.18-6.63-.32-1.97-.12-4.09-.09-6.14-.1-2.59-.02-5.17-.02-7.76-.01l-4.62.03-2.31.02c-.39,0-.75,0-1.22.03-.45.05-.89.14-1.31.3-1.35.48-2.46,1.53-3.06,2.83-.3.65-.47,1.35-.51,2.06-.03.65-.06,1.23-.1,1.84-.08,1.14-.12,2.42-.07,3.57.14,2.88.11,5.7-.06,8.54-.12,2.03-.14,4.09-.09,6.17.02,1.05.02,2.11.01,3.16-.02,1.58-.06,3.18.08,4.69.06.65.12,1.25.11,1.94-.03,1.58-.06,3.16-.06,4.74,0,1.96-.03,3.9-.07,5.85-.05,2.33.02,4.7.05,7.05,0,1.05.03,2.1.02,3.15,0,.8-.09,1.6-.08,2.39.05,4.36.17,8.72.08,13.1-.05,2.24-.08,4.49-.09,6.73,0,1.23.06,2.47.08,3.7,0,.18,0,.37,0,.55-.02,1-.05,2-.07,3.01-.02,1.68.15,3.36.37,5.02.17,1.27.01,2.57.58,3.76s1.52,2.07,2.7,2.68c.16.08.33.14.5.2.17.07.35.12.53.15.18.05.37.08.56.1.19.02.41.05.53.05.58.04,1.19.07,1.84.06,1.33,0,2.74.03,3.97-.08,1.55-.14,3.07-.24,4.66-.2,3.51.1,6.86-.18,10.29-.28,1.43-.04,2.85-.11,4.29-.12,1.63-.02,3.26,0,4.87-.1.84-.05,1.73-.11,2.56-.08,2.12.08,4.13,0,6.06-.23,1.26-.15,2.52-.14,3.81-.04.46.03.94.07,1.41.08,1.87.02,3.74.05,5.62.07.34,0,.69.02,1.01,0,1.9-.11,3.78-.09,5.71-.05,3.31.07,6.64.05,9.96.08.52,0,1.03.05,1.54.07l.77.04c.05,0,.16.01.26,0,.1,0,.2,0,.29-.03.19-.03.39-.09.55-.16.54-.22.95-.5,1.35-.8.4-.3.76-.62,1.1-.97l.25-.27c.09-.1.18-.2.26-.31.16-.21.31-.44.44-.67.26-.47.45-.98.56-1.5.12-.51.13-1.1.12-1.51v-1.33s-.01-2.66-.01-2.66c-.02-1.38-.03-2.76-.19-4.05-.25-1.89-.13-3.89-.02-5.87.08-1.46.22-2.91.23-4.38.03-2.64.11-5.29-.06-7.91-.05-.77,0-1.63,0-2.45l.08-6.78c.01-1.92-.05-3.85-.02-5.77.03-2.01.09-4-.03-6.01-.09-1.68-.16-3.39-.23-5.09-.01-.33,0-.67-.02-1-.06-2,.11-3.89.16-5.84.03-1.42.12-2.84.23-4.21.25-3.25.31-6.55.16-9.94-.03-.62-.05-1.26-.04-1.87Z"/>
  <path class="cls-1" d="M93.59,161.32c.02-1.58.06-3.17-.08-4.68-.06-.65-.12-1.24-.11-1.93.03-1.58.06-3.15.06-4.73,0-1.95.03-3.89.07-5.85.05-2.32-.02-4.69-.05-7.03,0-1.05-.03-2.1-.02-3.15,0-.8.09-1.6.08-2.39-.05-4.36-.17-8.7-.08-13.08.05-2.23.08-4.48.09-6.72,0-1.23-.06-2.46-.08-3.7,0-.18,0-.37,0-.55.02-1,.05-2,.07-3,.02-1.47-.17-2.92-.34-4.37-.16-1.37,0-2.98-.56-4.24-.55-1.18-1.5-2.21-2.83-2.79-.33-.14-.68-.25-1.05-.33-.36-.07-.8-.11-1.04-.13-.58-.04-1.19-.07-1.83-.06-1.33,0-2.74-.03-3.97.08-1.54.14-3.06.24-4.65.2-3.5-.1-6.85.18-10.27.28-1.43.04-2.85.11-4.28.12-1.63.02-3.25,0-4.86.1-.84.05-1.73.11-2.56.08-2.12-.08-4.12,0-6.05.23-1.26.15-2.52.14-3.8.04-.46-.03-.93-.07-1.41-.08-1.87-.02-3.74-.05-5.61-.07-.34,0-.69-.02-1.01,0-1.89.11-3.77.09-5.71.05-3.3-.07-6.63-.05-9.95-.08-.51,0-1.03-.05-1.54-.07l-.77-.04h-.1s-.1,0-.15,0l-.29.03c-.2,0-.38.1-.57.15-.36.15-.61.32-.87.5-.24.18-.48.37-.69.58-.42.4-.81.83-1.15,1.29-.34.47-.66.95-.91,1.51-.12.28-.24.58-.32.91-.05.15-.06.36-.08.54-.02.18,0,.42.03.62l-.02-.17c.01,1.45.03,2.9.07,4.34.04,1.38.06,2.75.25,4.04.27,1.88.19,3.88.1,5.86-.06,1.46-.18,2.91-.18,4.37,0,2.63-.05,5.28.14,7.89.06.77.02,1.63.02,2.44l-.03,6.77c0,1.92.07,3.85.05,5.76-.02,2.01-.08,4,.04,6,.1,1.68.16,3.38.24,5.08.01.33,0,.67.02,1,.06,1.99-.12,3.89-.17,5.83-.04,1.42-.13,2.83-.25,4.2-.27,3.24-.36,6.54-.25,9.91.02.62.04,1.26.02,1.87-.07,2.05-.14,4.08.1,6.08.03.29.01.66.02,1,.01.68.01,1.36.01,2.05v.53c0,.21.02.41.05.62.06.41.16.82.3,1.21.15.39.34.77.58,1.11.12.17.25.34.39.5.14.15.26.28.4.42.54.53,1.12,1,1.83,1.39.19.1.38.2.61.28.23.09.52.16.78.17.07,0,.14,0,.2,0h.14s.27,0,.27,0h.54c.72-.02,1.43-.02,2.15-.02,1.43,0,2.87.03,4.3.06.62.01,1.26,0,1.86.03,2.01.12,4.05.06,5.94-.08,1.37-.11,2.65-.1,3.93-.05,1.58.06,3.11.11,4.71.03.93-.05,1.96-.07,2.86,0,2.21.16,4.39-.04,6.58.01.1,0,.22-.06.34-.09,2.01-.46,4.49-.58,6.76-.37,2.2.2,4.44.18,6.62.32,1.97.12,4.08.09,6.13.1,2.58.02,5.16.02,7.75.01l4.61-.03,2.31-.02h.58c.22-.02.45-.02.67-.06.45-.05.88-.19,1.3-.36,1.33-.55,2.38-1.67,2.88-3.01.07-.17.12-.33.17-.51.05-.17.09-.35.12-.52.04-.18.06-.35.06-.53l.02-.27v-.23c.03-.61.06-1.22.1-1.82.08-1.13.12-2.42.07-3.56-.14-2.88-.11-5.69.06-8.52.12-2.03.14-4.09.09-6.16-.02-1.05-.02-2.1-.01-3.15Z"/>
  <path class="cls-1" d="M104.56,45.88l.42.02c.17,0,.35.01.51,0,.33-.03.66-.15.94-.35.28-.2.49-.46.66-.78.9-1.67,1.81-3.37,2.72-5.07.65-1.22,1.35-2.43,2.06-3.62,1.08-1.78,2.23-3.54,3.23-5.26.43-.74.83-1.42,1.37-2.15,1.23-1.67,2.54-3.29,3.88-4.87,1.66-1.95,3.43-3.78,5.39-5.38,2.31-1.89,4.85-3.64,7.66-4.49.62-.2,1.26-.33,1.9-.44.64-.08,1.29-.15,1.93-.12.49.01.99.07,1.43.17.46.1.93.25,1.39.39,1.27.41,2.53.99,3.53,1.78.5.39.93.84,1.18,1.3l.16.35c.02.12.06.22.09.36.03.33.09.65.09.98.04.66-.03,1.33-.11,1.99-.12.66-.25,1.33-.47,1.98-.41,1.31-1,2.58-1.71,3.78-1.46,2.47-3.32,4.73-5.37,6.79-1.12,1.13-2.28,2.24-3.52,3.25-.18.15-.38.29-.57.43-1.05.76-2.14,1.46-3.26,2.06-.08.04-.16.09-.23.13-.04.02-.07.04-.11.06l-.05.02c-1.33.59-2.66,1.24-3.88,2.05-.39.26-.77.54-1.11.86-.22.21-.36.49-.6.68-.35.29-1.03.42-1.34.77-.12.15-.24.39-.23.74,0,.17.04.38.16.58.11.21.29.44.56.6.13.09.29.15.46.2.08.02.17.03.25.05.06,0,.12.02.18.03.2.03.42.06.66.09,2.83.33,5.41.75,8.86.74,1.77,0,3.65.03,5.29-.08.84-.06,1.67-.11,2.5-.14.42-.01.84-.03,1.26-.05h.41c.19,0,.39-.02.57-.07.38-.08.73-.25,1.03-.5.18-.15.37-.31.55-.47.16-.13.31-.26.47-.39,1.86-1.56,3.46-3.31,4.89-5.17,1.42-1.86,2.67-3.83,3.8-5.88.94-1.72,1.73-3.51,2.42-5.35.78-2.09,1.4-4.27,1.6-6.49.02-.29.06-.58.07-.88.01-.3.02-.6.03-.9.04-.6,0-1.2.03-1.77-.01-1.47-.16-2.92-.58-4.27-.16-.69-.47-1.33-.72-1.96-.15-.31-.32-.61-.48-.91-.16-.3-.32-.59-.53-.86-.96-1.47-2.04-2.81-3.28-4.09-.22-.22-.44-.47-.68-.68-.25-.21-.5-.42-.75-.62-2.04-1.58-4.34-2.75-6.74-3.63-.43-.15-.87-.35-1.31-.44-2.51-.64-5.08-1.02-7.73-.97-2.27.04-4.53.45-6.7,1.14-2.17.69-4.23,1.67-6.17,2.81-.59.37-1.22.69-1.8,1.07-.59.39-1.2.73-1.76,1.17-3.87,2.87-7.26,6.32-10.22,10.04-1.15,1.45-2.27,2.92-3.15,4.42-1.28,2.19-2.87,4.33-4.38,6.5l-.84,1.2-.61.85c-.1.13-.17.27-.29.34-.12.08-.27.1-.41.07-.14-.03-.27-.11-.35-.23-.08-.12-.13-.25-.2-.37l-.03-.06c-.21-.41-.71-1.31-1.12-2.05-.44-.76-.89-1.51-1.36-2.25-.94-1.48-1.96-2.91-3.07-4.25-.67-.79-1.35-1.73-2.06-2.57-1.96-2.33-4.12-4.5-6.55-6.37-2.08-1.57-4.35-2.91-6.74-3.94-1.25-.57-2.54-1-3.85-1.37-.66-.16-1.32-.33-2-.43-.67-.13-1.35-.18-2.04-.23-2.28-.14-4.61-.02-6.86.38-.44.08-.89.16-1.33.24-2.62.53-5.14,1.17-7.5,2.41-1.72.9-3.33,2.03-4.73,3.33-1.66,1.55-3,3.51-3.84,5.72-.84,2.21-1.11,4.65-.86,7.03.06.44.1.88.19,1.31.07.44.16.87.25,1.29.3,1.41.75,2.79,1.34,4.08.6,1.29,1.35,2.52,2.26,3.57.26.31.56.73.84,1.1,2.39,2.91,5.17,5.41,8.16,7.55.78.55,1.56,1.11,2.34,1.67l.18.13c.07.05.15.1.22.15.15.09.32.16.49.21.33.09.77.04.95.05h1.43c1.91,0,3.82.02,5.73.05.83.01,1.68,0,2.48.03,1.34.06,2.69.07,4.02.06.66,0,1.32-.03,1.97-.05.98-.03,1.99-.04,2.87-.1.61-.08.99-.24,1.35-.36.17-.06.34-.11.51-.25.17-.14.32-.35.41-.58.39-1.02-.79-1.72-1.51-2.17-.81-.5-1.57-1.12-2.41-1.57l-.68-.36c-.91-.49-1.82-.97-2.75-1.46-1.09-.56-2.28-1.24-3.26-1.91-2.4-1.66-4.9-3.1-7.13-4.91-.1-.09-.26-.13-.41-.21-1.17-.64-2.4-1.49-3.51-2.53-.55-.52-1.08-1.08-1.53-1.7-.45-.61-.85-1.26-1.07-1.94-.21-.63-.32-1.35-.39-2.03-.05-.69,0-1.36.22-1.93.43-1.16,1.66-1.86,2.96-2.32,2.37-.83,5.05-1.35,7.61-.97,3.22.44,6.2,2.1,8.71,4.26,3,2.6,5.47,5.84,7.6,9.27,1.68,2.74,3.2,5.6,4.35,8.59.27.7.57,1.44.87,2.18.15.37.31.74.46,1.1l.16.38c.06.14.13.28.2.41.15.25.36.47.6.62.34.22.74.29,1.14.29.49,0,.98,0,1.47-.01.44,0,.89,0,1.33,0,.88,0,1.76.02,2.64.04,1.76.04,3.51.11,5.26.22l.64.04Z"/>
  <path class="cls-1" d="M16.35,82.44c1.06.06,2.1.11,3.17.03.63-.05,1.32-.07,1.93,0,1.49.16,2.96-.04,4.44.01.07,0,.15-.06.23-.09,1.35-.46,3.03-.58,4.56-.37,1.48.2,2.99.18,4.47.32,1.33.12,2.75.09,4.13.1,1.74.02,3.48.02,5.22.01l6.22-.07c1.65,0,3.29-.05,4.93.13.76.08,1.63.12,2.4.07,1.94-.14,3.84-.11,5.74.06,1.37.12,2.76.14,4.15.09.71-.02,1.42-.02,2.13-.01,1.06.02,2.14.06,3.16-.08.44-.06.84-.12,1.3-.11,1.06.03,2.13.06,3.19.06,1.32,0,2.62.03,3.94.07,1.57.05,3.16-.02,4.74-.05l1.06-.02c.19,0,.33,0,.56-.01.21-.01.43-.02.64-.06.64-.09,1.31-.21,1.88-.53.79-.44,1.46-1.07,1.96-1.81.5-.74.8-1.61.91-2.49.04-.22.03-.44.04-.66v-.56s0-1.1,0-1.1c0-.74.01-1.47.04-2.21.05-1.51.08-3.02.09-4.53,0-.83-.06-1.66-.08-2.49,0-.12,0-.25,0-.37.02-.67.05-1.35.07-2.02.01-.72-.05-1.44-.13-2.15-.09-.77-.37-1.54-.34-2.32.06-1.46-.09-2.67-1.05-3.87-.6-.75-1.48-1.42-2.66-1.7-.3-.08-.61-.12-.92-.16-.31-.02-.65-.04-.84-.03-.45,0-.9.02-1.31.08-1.04.14-2.06.24-3.14.2-2.36-.1-4.62.18-6.92.28-.96.04-1.92.11-2.88.12-1.1.02-2.19,0-3.28.1-.56.05-1.17.11-1.72.08-1.43-.08-2.78,0-4.08.23-.85.15-1.7.14-2.56.04-.31-.03-.63-.07-.95-.08-1.26-.02-2.52-.05-3.78-.07-.23,0-.46-.02-.68,0-1.28.11-2.54.09-3.85.05-2.23-.07-4.47-.05-6.71-.08-.35,0-.69-.05-1.04-.07-.35-.02-.69-.07-1.04-.07-2.39-.03-4.78-.05-7.16.04-.93.04-1.86.06-2.72.24-1.27.27-2.62.17-3.95.08-.98-.07-1.96-.19-2.95-.19-1.77-.01-3.56-.07-5.32.12-.52.05-1.1.02-1.65.01l-4.56-.05c-1.29,0-2.59.06-3.88.03-1.35-.03-2.69-.09-4.05.03-.28.02-.57.04-.85.06-.24.03-.68,0-1,.17-.33.15-.56.28-.82.44-.25.15-.5.31-.74.47-.19.13-.39.24-.58.37-.28.2-.57.36-.86.64-.26.24-.5.51-.71.79-.42.56-.77,1.17-1,1.84-.17.49-.31.99-.38,1.52-.07.48-.13.96-.2,1.44-.31,2.22-.32,4.46-.13,6.73.03.42.07.85.06,1.26-.01.69-.03,1.38,0,2.05,0,.34.03.68.06,1.01.03.33.06.63.11.96.02.19-.01.43-.02.66-.02.87-.09,1.87.18,2.92.13.52.37,1.02.65,1.47.29.46.63.82,1.01,1.17.1.09.21.18.3.23.49.32.91.53,1.37.77.45.23.89.46,1.4.67.29.13.68.24,1.03.21h.73s1.45.05,1.45.05c.42.01.85,0,1.25.03,1.36.12,2.73.06,4-.08.92-.11,1.78-.1,2.65-.05Z"/>
  <path class="cls-1" d="M197.91,62.29c-.07-.46-.12-.91-.15-1.36-.02-.22-.03-.45-.05-.67-.03-.25-.05-.53-.12-.78-.28-1.23-.87-2.24-1.71-3.09-.5-.49-1.09-.98-1.68-1.39-.37-.24-.77-.47-1.25-.57-.23-.07-.49-.08-.75-.09h-.56c-.74.04-1.47.07-2.21.04-.07,0-.15.06-.23.09-1.35.46-3.02.58-4.55.37-1.48-.2-2.98-.18-4.46-.32-1.33-.12-2.75-.09-4.12-.1-1.74-.02-3.47-.02-5.21-.01l-6.21.07c-1.64,0-3.29.05-4.92-.13-.76-.08-1.63-.12-2.4-.07-1.94.14-3.83.11-5.73-.06-1.37-.12-2.75-.14-4.15-.09-.7.02-1.42.02-2.12.01-1.06-.02-2.14-.06-3.15.08-.44.06-.84.12-1.3.11-1.06-.03-2.12-.06-3.18-.06-1.31,0-2.62-.03-3.93-.07-1.56-.05-3.15.02-4.73.05-.71,0-1.41.03-2.12.02-.54,0-1.08-.09-1.61-.08-2.93.05-5.86.17-8.8.08-1.5-.05-3.01-.08-4.52-.09-.41,0-.83.01-1.24.03h-.16s-.19.02-.19.02l-.38.03c-.25.05-.5.08-.74.15-.14.04-.29.07-.44.11-.78.23-1.52.63-2.14,1.18-.63.56-1,1.21-1.17,1.76-.24.72-.11,1.58-.22,2.33-.3,2.12-1.14,4.09-1.13,6.26,0,.9-.03,1.84.08,2.67.14,1.04.24,2.06.2,3.13-.05,1.18,0,2.33.07,3.48.04.58.08,1.16.12,1.74.05.72.23,1.44.54,2.1.51,1.1,1.35,2,2.36,2.61.57.35,1.2.61,1.86.74.33.05.66.1.99.09.18,0,.3,0,.44-.02l.41-.03c.56-.05,1.17-.11,1.72-.08,1.42.08,2.77,0,4.07-.23.85-.15,1.69-.14,2.56-.04.31.03.63.07.95.08,1.26.02,2.52.05,3.77.07.23,0,.46.02.68,0,1.27-.11,2.54-.09,3.84-.05,2.22.07,4.46.05,6.69.08.35,0,.69.05,1.04.07.35.02.69.07,1.04.07,2.38.03,4.77.05,7.15-.04.93-.04,1.85-.06,2.72-.24,1.27-.27,2.61-.17,3.94-.08.98.07,1.96.19,2.94.19,1.77.01,3.55.07,5.31-.12.52-.05,1.1-.02,1.64-.01l4.56.05c1.29,0,2.59-.06,3.88-.03,1.35.03,2.69.09,4.04-.03,1.13-.09,2.28-.15,3.42-.22.22-.01.45,0,.67-.02,1.34-.05,2.62.13,3.92.19.95.05,1.91.14,2.83.26,2.18.28,4.4.38,6.67.28.21,0,.42-.01.63-.02h.16c.05,0,.1,0,.19,0,.16-.01.35-.02.49-.05.98-.19,1.66-.6,2.29-1.06.62-.46,1.15-1.01,1.56-1.67.11-.19.31-.4.46-.62.15-.22.29-.46.42-.73.06-.14.13-.26.17-.42.05-.15.11-.33.12-.45.11-.54.15-1.01.2-1.48.08-.95.11-1.88.09-2.81-.06-1.94-.02-3.88.02-5.82,0-.42-.01-.85.01-1.26.09-1.36,0-2.74-.2-4.02Z"/>
</svg>