<?xml version="1.0" encoding="UTF-8"?>
<svg id="Layer_11" data-name="Layer 11" xmlns="http://www.w3.org/2000/svg" viewBox="0 0 314.01 288">
  <defs>
    <style>
      .cls-1 {
        fill: #1c5c7d;
      }
    </style>
  </defs>
  <path class="cls-1" d="M219.01,216.82c-.23-.3-.53-.55-.85-.76-.51-.32-1.14-.66-1.83-.81-.17-.04-.33-.07-.49-.1-.16-.03-.32-.06-.48-.09-.34-.05-.66-.1-.98-.15-.65-.1-1.28-.19-1.96-.27-.92-.11-3.24.15-5.22.15-.63,0-1.27-.01-1.9-.02-.12,0-.23,0-.35,0-.78.03-1.56.08-2.34.09-1.42.02-2.84.02-4.26,0-2.77-.02-5.52.1-8.28.18-.5.01-1.01-.03-1.51-.03-.66,0-1.33.03-1.99.05-1.49.04-2.98.12-4.45.11-1.24,0-2.47,0-3.7.02-1,.02-2,.02-3,.02-.44,0-.81.04-1.22.09-.95.11-1.97.11-2.96.12-.66,0-1.33.02-2,.05-1.31.06-2.61.07-3.9.02-1.8-.07-3.58-.05-5.4.09-.72.05-1.54.05-2.26,0-1.54-.08-3.08,0-4.63.04l-5.84.21-4.9.14c-1.3.03-2.63.1-3.88.06-1.39-.04-2.81.01-4.2-.07-1.45-.09-3.02-.03-4.28.31-.08.02-.15.06-.21.06-1.38,0-2.74.18-4.11.23-.56.02-1.19.13-1.73.28-.47.13-.92.25-1.34.4-.21.08-.43.15-.61.25-.09.05-.19.09-.29.15l-.28.19c-.6.42-1.1.99-1.32,1.71-.16.49-.2,1.02-.14,1.53.06.52.2,1.04.47,1.51.16.28.39.55.63.79.56.55,1.32.93,2.11,1.14.82.19,1.7.25,2.58.24,1.69-.02,3.4-.05,5.13-.17.21-.01.45-.01.63-.04,1.28-.22,2.57-.18,3.87-.18.39,0,.79-.02,1.18-.04,2.14-.12,4.22-.12,6.28.01.87.05,1.76.09,2.66.1,1.23,0,2.43.09,3.69.02.21,0,.43-.02.63-.03,1.07-.08,2.15-.14,3.21-.23,1.27-.11,2.53-.1,3.8-.12,1.21-.02,2.43-.09,3.65-.12l4.29-.09c.52,0,1.07.02,1.56-.02,1.66-.13,3.34-.06,5-.04.92.01,1.84.09,2.76.12,1.25.04,2.52.07,3.71-.13.81-.14,1.68-.17,2.56-.21,2.24-.11,4.48-.14,6.73-.16.33,0,.65.02.98.03.32,0,.65.03.98.03,1.05-.02,2.1-.03,3.15-.05l1.58-.02h.79s.09,0,.09,0c.02,0,.03,0,.07,0l.2-.02.4-.03c1.23-.09,2.43-.14,3.64-.25.2-.02.43-.01.64-.02,1.19,0,2.38,0,3.57.03.3,0,.6.03.89.06.82.07,1.61.09,2.41,0,1.22-.14,2.49-.18,3.82-.13.52.01,1.09-.03,1.61-.08,1.01-.09,2.03-.13,3.04-.22.87-.07,1.66-.26,2.38-.59.85-.41,1.54-1.04,1.92-1.81.38-.76.48-1.63.3-2.47-.08-.38-.25-.74-.48-1.05Z"/>
  <path class="cls-1" d="M218.57,194.33c-.67-.63-1.56-1.01-2.49-1.24-.47-.1-.95-.19-1.46-.23-.24-.03-.51-.05-.78-.06-.27-.02-.54-.04-.81-.06-.99-.07-1.94-.02-2.9.08-.77.07-1.66.07-2.5.09-1.64.05-2.88-.17-4.24-.36-.92-.13-3.24.1-5.23.09-.64-.01-1.27-.02-1.91-.03-.12,0-.24,0-.35,0-.78.02-1.57.07-2.35.07-1.42,0-2.85,0-4.27-.03-2.78-.05-5.54.05-8.31.1-.5,0-1.01-.04-1.52-.04-.67,0-1.33.02-2,.03-1.49.02-2.99.08-4.47.06-1.24-.02-2.47-.03-3.72-.02-1,0-2.01,0-3.01-.02-.44,0-.82.03-1.23.08-.96.1-1.97.08-2.98.07-.67,0-1.34,0-2,.02-1.32.04-2.62.03-3.92-.04-1.8-.1-3.59-.11-5.42,0-.73.04-1.54.02-2.26-.03-1.54-.11-3.09-.07-4.65-.05-1.96.03-3.93.04-5.88,0l-4.92-.14c-1.3-.04-2.64-.03-3.88-.11-1.39-.09-2.8-.05-4.19-.1-.36-.02-.73,0-1.1.01-.37.02-.73.06-1.08.14-.69.16-1.31.51-1.72.94-.05.05-.08.13-.13.16-.52.32-.94.79-1.23,1.32-.29.53-.46,1.11-.54,1.72-.07.49.03,1.09.25,1.55.37.8.91,1.47,1.65,1.97.6.41,1.34.64,2.14.66h.19s.12,0,.19,0c.15,0,.31-.02.46-.03.31-.02.62-.03.94-.03.63-.01,1.28,0,1.92.03.38.02.79.01,1.18.02,1.82.03,3.65.05,5.46-.02,1.74-.07,3.47-.01,5.2-.04.21,0,.45.01.64-.01,1.27-.16,2.56-.1,3.87-.06.39.01.79,0,1.19-.01,2.15-.07,4.24-.01,6.3.17.87.08,1.77.14,2.67.16,1.23.04,2.44.15,3.71.12.21,0,.43,0,.64-.01,1.08-.05,2.16-.09,3.23-.15,1.28-.08,2.54-.04,3.81-.03,1.22.01,2.44-.03,3.66-.03l4.3.02c.52,0,1.07.03,1.55-.01,1.66-.13,3.34-.09,5.02-.09.93,0,1.85.08,2.78.12,1.26.06,2.53.12,3.72-.06.82-.12,1.69-.14,2.57-.16,2.25-.07,4.5-.05,6.75-.04.33,0,.66.03.98.04.33.02.65.04.98.04,2.11.01,4.22,0,6.32.03,1.23.02,2.42.03,3.63-.04.2-.01.43,0,.64,0,1.19.01,2.38.02,3.56.04.3,0,.6.03.89.05.81.06,1.63.07,2.4-.03l.41-.1c.14-.03.29-.07.43-.11.14-.04.28-.08.43-.12.14-.05.28-.1.42-.14.56-.2,1.11-.44,1.64-.75.42-.24.77-.61,1.03-.99.5-.72.8-1.56.7-2.4-.09-.74-.48-1.4-1.03-1.92Z"/>
  <path class="cls-1" d="M120.38,157.1c.27.27.6.49.97.67.74.36,1.6.54,2.48.63.71.08,1.5.16,2.2.24,1.53.18,3.08.09,4.66.07,1.03,0,1.99.06,2.98.08l2.96.08,4.96.15c1.31.04,2.67.04,3.93.14,1.4.11,2.84.12,4.25.25,1.45.14,3.05.07,4.34-.24.08-.02.15-.06.22-.06,1.4.03,2.8-.13,4.22-.04.57.03,1.24,0,1.83-.03,1.02-.07,2.01-.05,3.02-.02.83.02,1.64.02,2.52-.06,1.21-.11,2.52-.17,3.81-.11.39.02.8,0,1.19,0,1.84.01,3.69.01,5.51-.08,1.75-.09,3.5-.05,5.25-.1.21,0,.46,0,.64-.02,1.28-.17,2.59-.13,3.9-.1.39,0,.8,0,1.2-.03,2.17-.09,4.28-.06,6.36.1.88.07,1.79.12,2.7.14,1.25.02,2.46.13,3.74.08.21,0,.43-.01.64-.02,1.09-.06,2.18-.11,3.26-.19.64-.05,1.29-.07,1.94-.06.65,0,1.29.04,1.93.07,1.23.05,2.46.05,3.69.07,1.44.02,2.88.04,4.31-.05.51-.03,1.06-.06,1.52-.17.2-.04.39-.1.59-.15l.29-.08.27-.1c.18-.05.35-.14.52-.23.17-.09.35-.16.49-.28.63-.41,1.14-1,1.42-1.69.33-.76.49-1.63.36-2.49-.03-.14-.06-.29-.1-.43l-.05-.22-.08-.2c-.06-.14-.11-.28-.17-.41l-.24-.37c-.07-.13-.18-.23-.28-.34-.1-.1-.2-.21-.31-.3l-.36-.24c-.06-.04-.12-.08-.18-.11l-.2-.07-.27-.1c-.09-.04-.17-.07-.27-.09-.19-.04-.37-.09-.56-.15-.4-.08-.8-.14-1.21-.16-.52-.03-1.05.01-1.62.05-.56.05-1.18.07-1.74.07l-3.41-.03c-.33,0-.66-.03-.99-.05-.33-.02-.66-.05-.99-.05-2.13-.03-4.26-.03-6.38-.09-1.24-.04-2.45-.06-3.66,0-.21.01-.43,0-.65,0-1.2-.02-2.4-.05-3.6-.07-.3,0-.61-.03-.9-.06-.83-.07-1.63-.08-2.44,0-1.24.14-2.53.18-3.88.12-.53-.02-1.11.01-1.64.04-1.03.06-2.08.05-3.12.05-.92,0-1.83.04-2.75.07-2.19.06-4.34.24-6.59.18-1.02-.03-1.99.04-2.98.14-.79.07-1.69.05-2.54.06-1.66.02-2.91-.25-4.27-.45-.92-.14-3.26.11-5.27.11-.64,0-1.28,0-1.93,0-.12,0-.24,0-.35,0-.79.04-1.58.09-2.37.11-1.44.03-2.88.05-4.31.06-2.8.02-5.59.2-8.38.34-.51.03-1.02,0-1.53.01-.67.02-1.34.07-2.01.1-1.5.08-3.01.21-4.5.25-.63.02-1.26.04-1.88.06-.65.02-1.28,0-1.9,0-1.01,0-2.01-.02-3,.03-.43.02-.8.09-1.19.18-.91.21-1.87.37-2.7.71-.55.23-1.05.54-1.38.96-.33.4-.53.87-.61,1.41-.08.54-.06,1.1.1,1.58.11.34.29.65.56.92Z"/>
  <path class="cls-1" d="M165.86,136.52c.39.32.82.59,1.32.74l.37.12c.13.03.27.06.41.09.27.06.54.13.82.17.93.17,1.87.33,2.82.44.75.1,1.53.15,2.26.29.8.15,1.64.19,2.45.37.84.17,1.77.13,2.53-.16.05-.02.09-.06.13-.06.81.05,1.63-.06,2.45.05.33.05.72.03,1.07,0,.6-.05,1.17-.02,1.76.01.48.03.96.03,1.47-.05.7-.11,1.46-.16,2.21-.11.23.02.46,0,.69,0,1.07,0,2.14-.02,3.2-.16,1.01-.13,2.03-.14,3.04-.24.12-.01.27,0,.37-.04.73-.21,1.49-.22,2.26-.24.23,0,.47-.04.7-.07,1.25-.17,2.49-.22,3.71-.14.52.03,1.05.05,1.58.04.73-.02,1.45.05,2.19-.05.12-.01.25-.02.37-.04.63-.09,1.27-.17,1.89-.27.75-.12,1.49-.12,2.26-.13.73,0,1.45-.03,2.18,0,.85.03,1.69.08,2.53.12.3.01.62.05.91.02.97-.1,1.95-.06,2.91-.11.27-.01.53-.02.8-.02.25,0,.49-.02.73-.08.65-.14,1.29-.55,1.5-1.17.14-.41.28-.82.34-1.26.14-1.11-.27-2.28-1.14-2.98-.06-.05-.13-.1-.19-.16l-.2-.15c-.14-.09-.27-.2-.43-.25-.13-.05-.25-.1-.39-.13-.13-.04-.27-.07-.41-.09-.28-.05-.6-.09-.9-.13-.61-.09-1.22-.18-1.83-.27-.71-.12-1.41-.19-2.12-.2-.12,0-.25-.02-.37-.04l-2.08-.23c-.18-.02-.35-.05-.52-.09-.47-.11-.94-.14-1.42-.07-.73.1-1.48.12-2.26.02-.31-.03-.64-.01-.96,0-.6.04-1.21,0-1.81,0-.53-.01-1.06.02-1.6.03-1.28.03-2.53.19-3.83.12-.59-.03-1.16.03-1.73.12-.46.07-.98.05-1.48.05-.97.01-1.69-.26-2.49-.47-.54-.14-1.9.09-3.07.08l-1.12-.03c-.07,0-.14,0-.21,0-.46.02-.92.07-1.38.07-.84,0-1.68,0-2.51-.02-1.64-.04-3.26.07-4.88.15-.29.01-.59-.03-.89-.03-.39,0-.78.03-1.17.05-.87.04-1.75.13-2.62.14-.73,0-1.45.03-2.18.07l-1.76.08c-.26.01-.47.07-.71.13-.55.15-1.13.18-1.71.25-.38.04-.76.1-1.13.18-.36.08-.72.16-1.06.24-.34.08-.62.2-.94.3-.83.34-1.49,1.1-1.6,2-.03.35-.1.74-.1,1.1-.03.78.39,1.55.99,2.07Z"/>
  <path class="cls-1" d="M221.15,173.01c-.27-.33-.59-.63-.95-.88-.49-.33-1.06-.57-1.66-.7-.59-.11-1.23-.13-1.84-.12-.84.04-1.72-.02-2.6-.04-2.27-.07-4.56-.12-6.85-.14-.33,0-.67-.03-1-.04-.33-.01-.66-.04-1-.03-2.15.03-4.3.06-6.44.09-1.25,0-2.47.02-3.7.12-.21.02-.44,0-.65.01-1.21,0-2.43,0-3.64-.02-.31,0-.61-.03-.91-.05-.83-.07-1.64-.06-2.46.05-1.25.17-2.55.24-3.93.17-.54-.03-1.13,0-1.68,0-.53,0-1.06-.01-1.6-.05-.27-.02-.54-.05-.8-.07h-.06s-.05,0-.05,0h-.2s-.4,0-.4,0c-.93.01-1.85.06-2.77.09-2.22.07-4.39.26-6.66.21-1.03-.03-2.01.05-3.01.14-.8.07-1.71.05-2.57.06-1.68.01-2.94-.26-4.31-.47-.93-.15-3.26.16-5.3.19-.65.01-1.3,0-1.95,0-.12,0-.24,0-.36,0-.8.03-1.6.09-2.4.09-1.45.01-2.91,0-4.36-.01-1.42-.02-2.83,0-4.23.05-1.41.05-2.84.08-4.25.09-.51,0-1.03-.05-1.55-.06-.68,0-1.36,0-2.03.02-1.51.02-3.03.1-4.52.15-1.25.04-2.49.13-3.69.34-.97.16-1.91.41-2.8.79-.38.17-.69.37-.99.61-.69.55-1.37,1.18-1.64,1.91-.08.24-.13.49-.12.73.02.24.08.48.19.71.22.46.61.87,1.07,1.22.46.36.98.66,1.54.94,1.56.77,3.34,1.07,5.14.98.72-.03,1.54-.04,2.27-.03.78.01,1.58-.02,2.38-.04.81-.02,1.6-.03,2.39-.04l5.97-.11,5.02-.06c1.33-.01,2.69-.05,3.97,0,1.42.07,2.87.04,4.3.15,1.47.11,3.08.02,4.38-.31.08-.02.15-.06.22-.06,1.42.02,2.83-.13,4.26-.04.58.04,1.25.01,1.85-.03,1.03-.06,2.03-.04,3.05,0,.83.03,1.66.03,2.55-.05,1.22-.11,2.54-.14,3.85-.07.39.02.8.01,1.21.02,1.86.04,3.72.07,5.57,0,1.77-.05,3.54.02,5.31,0,.22,0,.46.01.65,0,1.3-.15,2.61-.1,3.94-.05.4.01.81,0,1.21-.01,2.19-.07,4.32,0,6.42.18.88.08,1.8.14,2.72.17,1.26.04,2.49.16,3.78.12.22,0,.44,0,.65-.01,1.1-.05,2.22-.06,3.31-.07,1.31-.02,2.59.1,3.89.17,1.23.07,2.48.07,3.71.06.72-.01,1.44-.04,2.16-.1.69-.06,1.35-.22,1.94-.54.43-.22.85-.53,1.12-.89.93-1.22,1.2-2.92.59-4.32-.17-.39-.38-.75-.64-1.09Z"/>
  <path class="cls-1" d="M313.94,236.38c-.1-2.72-.32-5.43-.58-8.13-.52-5.4-1.22-10.76-1.58-16.18-.3-4.52-.79-9.03-.9-13.56-.13-5.16-.02-10.31-.77-15.41-.39-2.65-.83-5.49-.6-8.11.57-6.71,0-13.06-1.72-19.17-1.13-4-1.05-7.97-.33-12.06.26-1.46.5-2.96.56-4.46.21-5.92.35-11.85.5-17.77.03-1.07.14-2.17,0-3.19-.82-6-.68-11.95-.38-18.08.51-10.47.37-21.01.56-31.52.03-1.63.34-3.25.52-4.88.18-1.64.49-3.27.52-4.91l.14-8.42.04-4.21c0-.16,0-.4,0-.6v-.62s-.04-1.24-.04-1.24c-.06-.83-.11-1.66-.2-2.48-.73-6.61-3.09-13.06-6.87-18.43-1.46-2.1-3.07-4.08-4.91-5.77-1.83-1.69-3.88-3.09-6.09-4-3.23-1.31-6.19-2.82-9.28-4.24-3.07-1.43-6.24-2.83-9.6-3.79-2.47-.72-5.03-1.3-7.62-1.59-2.31-.29-4.62-.52-6.93-.54-5.01-.04-10.05-.21-15.07-.04-3.97.07-7.94.32-11.87.97-.44.07-.89.12-1.35.15-1.48-.01-2.99-.11-4.47-.13-7.15-.1-14.3-.33-21.45-.34-2.3,0-4.61.05-6.91.12-1.31.03-2.61.07-3.92.11-2.48.06-4.95.09-7.42.02-4.65-.14-9.26-.42-13.88-.23-2.35.03-4.71.17-7.07.48-5.32.7-10.72,1.12-16.1,1.64-.17.02-.34.02-.52.03-.23,0-.45.01-.68.03-.66.01-1.32.01-1.98.05-.15,0-.3.01-.45.02-5.45,0-10.71-1.07-16.09-1.48-4.5-.34-8.98-1.05-13.31-1.93C106.8.67,97.64-.1,88.28.24c-1.92.04-3.85.12-5.79.25-.71.05-1.42.1-2.13.13-.63,0-1.25-.02-1.86-.07-4.09-.33-8.16-.7-12.19-.5-3.03.03-6.03.31-9.02,1.13-.09.03-.2.04-.3.05-.32-.01-.63-.02-.94,0-2.16.07-4.32.08-6.48.06l-1.62-.02h-.82s-.97,0-.97,0c-.59,0-1.18.02-1.77.05h-.17c-1.29,0-2.58.09-3.87.2-5.14.5-10.24,2.01-14.69,4.61-4.64,2.71-8.85,6.02-12.51,9.87-3.66,3.85-6.77,8.27-9.05,13.15-1,2.11-1.61,4.44-2.4,6.57-.16.45-.32.9-.47,1.36-.14.46-.26.92-.38,1.39-.26.93-.41,1.88-.57,2.82-.14.95-.22,1.91-.27,2.86-.01.48-.02.95-.03,1.43v.7s.02.59.02.59c.13,3.16.5,6.27,1.05,9.26.8,4.35.72,8.39.35,12.46-.45,5-.83,9.85-.23,14.91.34,2.86.51,6.04.09,8.83-.01,1.7-.04,3.4.02,5.1.11,3.02.86,5.68,1.63,8.54.13.49.14,1.01.14,1.51.02,1.74.04,3.48.06,5.22,0,.32,0,.64.11.94.09.26.24.5.39.73,3.87,6.09,4.33,14.62,2.88,21.5-1.11,5.28-1.32,10.64-1.8,15.95-.13.64-.26,1.27-.4,1.9-.29,1.32-.56,2.64-.8,3.97-.05.58-.11,1.15-.16,1.73-1.31,13.79-2.09,27.52-1.97,41.46.09,9.74.41,19.48.48,29.23.03,3.87.13,7.74.05,11.6-.02,2.17.04,4.43.22,6.65.19,2.23.47,4.46.82,6.73.35,2.11.97,4.33,1.88,6.43.91,2.1,2.13,4.08,3.52,5.74,3.5,4.17,7.39,7.76,11.66,10.84,4.27,3.08,8.92,5.65,13.99,7.6l1.38.48.7.23.71.2,1.43.38c.48.11.96.2,1.45.3.97.21,1.95.31,2.94.44.49.06.99.08,1.48.11l.74.04.37.02h.31c.97.04,1.94.06,2.91.06,2.05.02,4.11-.02,6.18-.1.89-.03,1.77-.06,2.66-.1.36-.02.73-.03,1.09-.04.79-.02,1.58-.03,2.38-.04,1.53,0,3.07.01,4.6.05,1.96.05,3.94.12,5.9.13.47,0,.94,0,1.4,0,.02-.02.03-.04.05-.06,3.19.04,6.36-.07,9.42-.76,2.05-.46,3.94-.87,6.12-.78,4.99.2,9.99.43,14.99.45,6.19.03,12.33.2,18.52.53,7.37.39,14.85-.18,22.29-.34,3.32-.07,6.65-.24,9.97-.18.27,0,.55.02.82.04-.05.05-.1.11-.15.16,1.82.19,3.64.49,5.44.44,2.47-.07,4.94-.15,7.41-.24,2.2-.08,4.4-.16,6.6-.24,7.45-.26,14.89-.47,22.36-.28-.02-.03-.04-.05-.06-.08,2.19.04,4.38.11,6.58.22,2.05.11,4.11.2,6.17.28.03.04.05.07.08.11,4.53.16,9.06.27,13.59.3,1.1,0,2.19-.02,3.29-.07,3.03-.08,6.07-.37,9.11-.56.36,0,.71.03,1.07.05,3.17.17,6.34.4,9.51.51.38.01.75.01,1.12.01-.09-.03-.17-.05-.25-.08-.01,0-.02,0-.03-.01.2,0,.41.02.61.03,4.09.13,7.35-.39,9.93-1.37.82.02,1.62.17,2.44.23,1.36.11,2.77-.34,4.15-.42,1.59-.09,3.18-.02,4.76.2.29.04.59.09.88.05.25-.04.49-.14.73-.2,1.17-.31,2.33.16,3.49.25,1.25.1,2.54.09,3.8.09.05,0,.09,0,.14,0,.8,0,1.6-.02,2.4-.06,2.55-.04,5.13-.31,7.75-.96,1.11-.25,2.19-.62,3.31-1.01,1.08-.44,2.2-.9,3.27-1.49,2.17-1.15,4.29-2.65,6.24-4.59,2.01-1.98,3.96-4.14,5.62-6.46,1.66-2.32,3-4.81,3.8-7.29,1.02-3.12,1.74-6.25,2.33-9.38.58-3.13,1.02-6.26,1.42-9.48.13-.89.18-1.78.23-2.67.05-.98.06-1.56.06-2.27.01-1.37-.01-2.74-.07-4.1ZM89.66,99.72c-.13.14-.31.29-.35.36l-.32.47c-.21.32-.4.64-.59.97-.36.66-.66,1.35-.86,2.05-.09.35-.16.71-.2,1.07-.03.35-.04.76-.05,1.14-.1,3.61.19,7.14.38,10.73.03.61.04,1.27.04,1.91.02,3.53.04,7.05.06,10.58,0,.89-.01,1.79-.03,2.65-.04,2.43-.03,4.8.09,7.18.18,3.64.26,7.42.23,11.41-.01,1.56.04,3.25.08,4.83.08,3.03.09,6.1.1,9.17.03,2.7.06,5.38.1,8.07.07,6.45.24,12.77.14,19.38-.04,3,0,5.86.07,8.78.06,2.32-.02,4.99.02,7.46.09,4.85.01,8.55-.32,12.59-.11,1.37-.27,2.26-.41,2.85-.16.63-.35.91-.52,1.07-.03.03-.08.11-.13.19-.07.21-.15.4-.24.5-.07.07-.3.18-.58.3-.02.01-.03.03-.04.04-.17.14-.39.29-.68.45-.08.04-.14.08-.25.11-.08.03-.17.06-.26.09-.18.06-.38.11-.59.16-.85.2-1.94.35-3.32.4-.69.02-1.45.03-2.28-.02-.83-.04-1.74-.14-2.74-.33-.24-.04-.48-.1-.73-.17l-.36-.1-.37-.13c-.12-.04-.24-.08-.37-.13l-.37-.17c-.24-.1-.49-.29-.73-.45-.45-.36-.81-.88-1.01-1.42-.21-.54-.27-1.09-.28-1.59-.01-.37,0-.74,0-1.07,0-.29,0-.57-.02-.83l-.06-.87c-.04-.58-.07-1.17-.11-1.75-.06-1.17-.09-2.34-.11-3.5-.05-4.25.09-8.48.08-12.68,0-8.25-.14-16.45-.23-24.67-.02-1.49.03-3,.02-4.51-.02-1.97-.04-3.96-.06-5.93-.05-4.43-.13-8.88-.13-13.27-.01-3.68-.02-7.34-.03-11.03,0-2.98-.02-5.95-.02-8.92,0-1.3-.05-2.42-.1-3.64-.12-2.85-.11-5.86-.12-8.83,0-1.98-.02-3.98-.05-5.95-.06-3.91-.07-7.78-.04-11.62.04-5.34-.03-10.65-.2-16.07-.07-2.15-.08-4.58-.05-6.72.06-4.57,0-9.18,0-13.79,0-5.8.04-11.61.22-17.41.03-1.22.08-2.44.13-3.65l.08-1.83.03-.9v-.9c0-1.22-.03-2.44.16-3.74.06-.33.11-.65.32-1.06.21-.4.6-.69,1.04-.79.2-.05.37-.07.54-.09l.46-.04c.31-.03.62-.05.93-.06,1.96-.09,3.94-.03,5.88.03.97.03,1.93.06,2.88.09.95.02,1.88.02,2.82.02,4.13.03,8.35-.05,12.5.02,4.28.07,8.97-.08,12.75-.44.23-.02.45-.07.64-.07,4.13-.02,8.24-.21,12.41-.16,1.69.02,3.64-.02,5.39-.07,3.01-.09,5.9-.09,8.88-.07,2.43,0,4.83,0,7.42-.1,3.56-.13,7.41-.18,11.2-.12,1.13.02,2.34,0,3.51.01,5.41.02,10.83.05,16.22,0,5.16-.05,10.3.06,15.45.09.63,0,1.34.03,1.89.01,1.89-.05,3.79-.05,5.71-.02,1.9.04,3.8,0,5.74-.02,1.16-.01,2.37-.05,3.55-.05.81,0,1.61.02,2.42.07.81.05,1.64.13,2.49.37.42.13.86.29,1.27.56.4.26.78.6,1.05,1,.55.81.76,1.71.85,2.54.15,1.62.14,3.17.11,4.73-.04,1.56-.11,3.08-.29,4.66-.08.56-.18,1.11-.31,1.68-.07.28-.15.56-.25.85-.03.07-.05.14-.08.22-.04.09-.08.18-.13.27-.08.18-.21.33-.35.45-.11.07-.23.11-.35.16-.12.03-.27.07-.37.09-.2.04-.4.07-.59.09-.39.05-.78.08-1.16.12-.77.06-1.55.11-2.33.12-3.67.13-7.25.08-11,.16-.63,0-1.27.02-1.89.03-3.2.06-6.42.08-9.59.11-3.79.03-7.54-.08-11.32-.18-3.61-.09-7.24-.13-10.86-.2l-12.77-.2c-1.54-.02-3.16-.07-4.61-.05-2.46.03-4.95.02-7.43,0-1.25,0-2.49-.09-3.7-.03-.3.01-.6.03-.88.08-.14.02-.28.05-.4.08-.1.03-.18.04-.25.11l-1.27,1.26c-1.96,1.94-3.96,3.81-5.95,5.71-2.69,2.58-5.41,5.19-7.81,7.81-1.64,1.8-3.48,3.63-5.31,5.48-4.7,4.74-9.46,9.43-14.23,14.12-.7.69-1.41,1.35-2.11,2.02-.7.67-1.4,1.33-2.09,2.01-2.23,2.2-4.45,4.4-6.68,6.6l-1.67,1.65ZM139.32,77.95c0,.93.03,1.87-.02,2.8-.05.78-.08,1.55-.1,2.32-.02.63-.05,1.25-.09,1.88-.01.27.02.51.05.77.08.6.03,1.23,0,1.86-.02.42-.03.84-.02,1.25.01.82-.02,1.64-.11,2.44-.06.56-.1,1.12-.12,1.68-.01.55.02,1.1.09,1.66.06.44.06.95.04,1.4-.06.97.04,1.94.07,2.92.02.62.02,1.25-.02,1.89-.02.17-.04.35-.07.52-.04.18-.09.36-.15.54-.15.36-.4.72-.76.96-.61.38-1.25.41-1.79.41-.55,0-1.06-.06-1.56-.09-.4-.02-.75-.01-1.18,0-.41.01-.82.02-1.21,0-.87-.05-1.76,0-2.64-.11-.91-.1-1.89,0-2.68.32-.05.02-.09.06-.13.06-.87-.02-1.74.13-2.62.04-.36-.04-.77-.01-1.14.02-.63.06-1.24.04-1.87,0-.51-.03-1.02-.03-1.56.05-.75.11-1.56.15-2.36.08-.24-.02-.49,0-.74-.01-1.14-.02-2.28-.04-3.4.07-1.07.1-2.16.09-3.24.16-.13,0-.28,0-.4.03-.79.19-1.6.17-2.42.15-.24,0-.5.01-.75.03-1.35.1-2.69.03-3.98-.23-.55-.1-1.12-.21-1.69-.32-.2-.04-.39-.09-.59-.16-.2-.06-.45-.16-.64-.27-.21-.1-.38-.25-.52-.42-.03-.05-.07-.09-.09-.14l-.06-.16c-.01-.11-.04-.23,0-.33.02-.14.11-.29.16-.44.07-.18.18-.39.27-.54.09-.16.19-.3.28-.44.19-.29.37-.57.55-.85.44-.68.98-1.27,1.51-1.86.51-.57.99-1.17,1.51-1.74.6-.67,1.23-1.31,1.86-1.96.22-.23.48-.46.67-.71.63-.83,1.39-1.57,2.13-2.31.41-.41.87-.77,1.31-1.15.59-.52,1.19-1.04,1.59-1.7.27-.45.64-.85,1-1.26.93-1.05,1.92-2.06,2.91-3.05.15-.15.31-.27.46-.41.15-.14.31-.26.46-.41.93-.93,1.84-1.89,2.79-2.8.56-.53,1.09-1.05,1.57-1.64.08-.1.19-.19.28-.28l1.6-1.55c.14-.13.28-.25.43-.36.41-.32.76-.66,1.05-1.09.44-.65.97-1.25,1.61-1.8.25-.22.48-.49.69-.75.41-.49.89-.94,1.34-1.39.4-.4.79-.82,1.18-1.23.94-.98,1.79-2.03,2.87-2.93.48-.41.89-.86,1.29-1.34.32-.38.75-.74,1.15-1.09.77-.69,1.53-1.01,2.37-1.38.56-.25.87-.19,1.06,0,.02.02.04.03.07.04.04-.02.08-.03.11-.04.05,0,.09,0,.13-.01,0,0,0-.02.01-.03.08-.13.22-.28.5-.31.28-.04.7.16.94.51.25.33.37.75.42,1.19.05.43.06.83.07,1.24,0,.07,0,.15.01.22.05.5.11.99.13,1.48.03.89.04,1.78.04,2.68-.02,1.75.08,3.48.1,5.21,0,.31-.05.63-.06.95-.01.42,0,.83,0,1.25ZM243.23,227.6c-.1,4.75.05,9.55-.06,14.35-.03,1.51-.09,3.03-.19,4.54-.05.76-.1,1.51-.18,2.27-.04.39-.06.73-.13,1.17-.04.21-.09.43-.18.64-.08.21-.19.43-.37.65-.17.21-.38.41-.63.51-.25.04-.59.04-.74.05l-1.14.04c-.76.03-1.51.04-2.27.05-1.51.02-3.02.03-4.53.02-2.53,0-5.07-.04-7.59-.03-2.53.02-5.06.05-7.59.07-4.02.04-8.16.12-12.03.09-4.29-.03-8.69.04-13-.03-4.45-.07-9.33.07-13.26.42-.24.02-.47.07-.67.07-4.29.02-8.57.2-12.91.13-1.76-.02-3.79.01-5.61.05-3.13.08-6.14.06-9.23.04-2.52-.02-5.03-.03-7.72.05-3.7.1-7.7.13-11.66.02-1.18-.03-2.43-.02-3.65-.04-2.81-.04-5.63-.09-8.44-.13-1.41-.02-2.81-.04-4.22-.05-1.38,0-2.78.05-4.18.09-2.69.07-5.38.1-8.11-.17-.68-.07-1.36-.16-2.05-.31-.34-.08-.69-.16-1.04-.28-.35-.11-.7-.25-1.05-.46-.36-.2-.69-.52-.92-.87-.24-.35-.39-.73-.5-1.11-.1-.38-.14-.78-.16-1.1-.03-.34-.05-.68-.07-1.02-.03-.67-.04-1.42-.06-1.99-.09-1.98-.05-3.97,0-5.96.03-.99.05-1.98.06-2.97,0-1,0-2,0-3.01,0-1.2-.02-2.45-.04-3.67-.12-6.63-.1-13.08.03-19.45.06-2.68.1-5.46.11-8.24.01-3.81.1-7.53.04-11.44,0-.65-.02-1.32-.03-1.96-.07-3.33-.15-6.67-.22-9.97-.11-3.94-.1-7.83-.11-11.78-.04-3.75-.07-7.53-.11-11.3-.04-4.43-.03-8.86-.02-13.28,0-1.6.03-3.29,0-4.8-.12-5.12-.09-10.32-.13-15.48-.01-1.43-.01-2.86,0-4.29v-2.14s0-.53,0-.53c0-.16-.01-.32-.03-.5l-.13-1.06c-.05-.49-.1-1-.03-1.54.03-.26.1-.55.27-.83.15-.28.43-.45.72-.55.53-.18,1.04-.2,1.53-.22.5-.01.98,0,1.46,0,.48,0,.96.02,1.42,0,.23-.01.46-.03.68-.07.11-.02.21-.04.31-.07.04,0,.11-.04.18-.07.07-.03.15-.02.22-.03.96-.07,1.89-.17,2.82-.23,2.53-.21,5.25-.2,7.96-.13,6.96.16,13.89.75,20.8.54.5-.01,1.01-.03,1.51-.04l1.5-.07.74-.04c.24-.03.47-.05.71-.08.23-.05.47-.08.69-.14.22-.07.46-.12.67-.21.71-.26,1.36-.65,1.9-1.16.55-.51.99-1.13,1.34-1.82.69-1.37,1.01-2.95,1.18-4.53.34-3.17.08-6.45.26-9.7.12-3.79.18-7.47.15-11.19,0-.63.01-1.32.03-1.98l.11-5.5.08-2.75.05-1.38c.02-.45,0-.89,0-1.35-.02-.92-.03-1.86,0-2.77.02-.49.04-.97.09-1.46.03-.25.05-.49.11-.74.04-.24.13-.53.3-.79.16-.21.33-.36.53-.48.11-.07.22-.12.33-.17.11-.05.25-.03.37-.04l1.15-.06c.77-.04,1.54-.07,2.3-.11,1.9-.09,3.83-.12,5.8-.15,1.97-.03,3.99-.04,6.07-.02,1.62.02,3.38-.03,5.02-.07,3.16-.08,6.34-.08,9.54-.1,2.8-.03,5.59-.07,8.39-.1,6.71-.08,13.28-.29,20.15-.24,3.12.02,6.1-.06,9.12-.16,2.41-.08,5.17-.06,7.78-.07,2.54-.01,4.76.05,6.87.14,2.09.09,4.12.16,6.23.4,2.86.32,3.73.87,4.03,1.25.03.03.1.09.17.15.2.1.37.2.49.32.09.09.22.35.32.61.1.13.21.29.3.52.27.73.48,1.87.65,3.49.17,1.63.33,3.74.4,6.45.06,1.97.09,3.93.12,5.9,0,.36.01.73.02,1.08.07,2.42.15,4.84.17,7.26.05,4.4.04,8.81,0,13.19-.07,8.58-.05,17.11.02,25.65,0,1.55-.03,3.12-.03,4.68.02,2.05.04,4.11.06,6.17.05,4.6.13,9.24.13,13.8.01,3.83.02,7.63.03,11.47,0,3.1.02,6.19.02,9.28,0,1.35.05,2.52.1,3.79.12,2.96.11,6.09.12,9.19,0,2.06.02,4.13.05,6.19.06,4.07.07,8.1.02,12.09-.07,5.55-.05,11.08.08,16.72.05,2.24.04,4.76,0,6.98Z"/>
</svg>