<?xml version="1.0" encoding="UTF-8"?>
<svg id="Layer_11" data-name="Layer 11" xmlns="http://www.w3.org/2000/svg" viewBox="0 0 314.01 288">
  <defs>
    <style>
      .cls-1 {
        fill: #1c5c7d;
      }
    </style>
  </defs>
  <path class="cls-1" d="M313.94,236.38c-.1-2.72-.32-5.43-.58-8.13-.52-5.4-1.22-10.76-1.58-16.18-.3-4.52-.79-9.03-.9-13.56-.13-5.16-.02-10.31-.77-15.41-.39-2.65-.83-5.49-.6-8.11.57-6.71,0-13.06-1.72-19.17-1.13-4-1.05-7.97-.33-12.06.26-1.46.5-2.96.56-4.46.21-5.92.35-11.85.5-17.77.03-1.07.14-2.17,0-3.19-.82-6-.68-11.95-.38-18.08.51-10.47.37-21.01.56-31.52.03-1.63.34-3.25.52-4.88.18-1.64.49-3.27.52-4.91l.14-8.42.04-4.21c0-.16,0-.4,0-.6v-.62s-.04-1.24-.04-1.24c-.06-.83-.11-1.66-.2-2.48-.73-6.61-3.09-13.06-6.87-18.43-1.46-2.1-3.07-4.08-4.91-5.77-1.83-1.69-3.88-3.09-6.09-4-3.23-1.31-6.19-2.82-9.28-4.24-3.07-1.43-6.24-2.83-9.6-3.79-2.47-.72-5.03-1.3-7.62-1.59-2.31-.29-4.62-.52-6.93-.54-5.01-.04-10.05-.21-15.07-.04-3.97.07-7.94.32-11.87.97-.44.07-.89.12-1.35.15-1.48-.01-2.99-.11-4.47-.13-7.15-.1-14.3-.33-21.45-.34-2.3,0-4.61.05-6.91.12-1.31.03-2.61.07-3.92.11-2.48.06-4.95.09-7.42.02-4.65-.14-9.26-.42-13.88-.23-2.35.03-4.71.17-7.07.48-5.32.7-10.72,1.12-16.1,1.64-.17.02-.34.02-.52.03-.23,0-.45.01-.68.03-.66.01-1.32.01-1.98.05-.15,0-.3.01-.45.02-5.45,0-10.71-1.07-16.09-1.48-4.5-.34-8.98-1.05-13.31-1.93C106.8.67,97.64-.1,88.28.24c-1.92.04-3.85.12-5.79.25-.71.05-1.42.1-2.13.13-.63,0-1.25-.02-1.86-.07-4.09-.33-8.16-.7-12.19-.5-3.02.03-6.03.31-9.02,1.13-.09.03-.2.04-.3.06-.32-.01-.63-.02-.94,0-2.16.07-4.32.08-6.48.06l-1.62-.02h-.82s-.97,0-.97,0c-.59,0-1.18.02-1.77.05h-.17c-1.29,0-2.58.09-3.87.2-5.14.5-10.24,2.01-14.69,4.61-4.64,2.71-8.85,6.02-12.51,9.87-3.66,3.85-6.77,8.27-9.05,13.15-1,2.11-1.61,4.44-2.4,6.57-.16.45-.32.9-.47,1.36-.14.46-.26.92-.38,1.39-.26.93-.41,1.88-.57,2.82-.14.95-.22,1.91-.28,2.86-.01.48-.02.95-.03,1.43v.7s.02.59.02.59c.13,3.16.5,6.27,1.05,9.26.8,4.35.72,8.39.35,12.46-.45,5-.83,9.85-.23,14.91.34,2.86.51,6.04.09,8.83-.01,1.7-.04,3.4.02,5.1.11,3.02.86,5.68,1.63,8.54.13.49.14,1.01.14,1.51.02,1.74.04,3.48.06,5.22,0,.32,0,.64.11.94.09.26.24.5.39.73,3.87,6.09,4.33,14.62,2.88,21.5-1.11,5.28-1.32,10.64-1.8,15.95-.13.64-.26,1.27-.4,1.9-.29,1.32-.56,2.64-.8,3.97-.06.58-.11,1.15-.16,1.73-1.31,13.79-2.09,27.52-1.97,41.46.09,9.74.41,19.48.48,29.23.03,3.87.13,7.74.05,11.6-.02,2.17.04,4.43.22,6.65.19,2.23.47,4.46.82,6.73.35,2.11.97,4.33,1.88,6.43.91,2.1,2.13,4.08,3.52,5.74,3.5,4.17,7.39,7.76,11.66,10.84,4.26,3.08,8.92,5.65,13.99,7.6l1.38.48.7.23.71.2,1.43.38c.48.11.96.2,1.45.3.97.21,1.95.31,2.94.44.49.06.99.08,1.48.11l.74.04.37.02h.31c.97.04,1.94.06,2.91.06,2.05.02,4.11-.02,6.18-.1.89-.03,1.77-.06,2.66-.1.36-.02.73-.03,1.09-.04.79-.02,1.58-.03,2.38-.04,1.53,0,3.07.01,4.6.05,1.96.05,3.94.12,5.9.13.47,0,.94,0,1.4,0,.02-.02.03-.04.05-.06,3.19.04,6.36-.07,9.42-.76,2.05-.46,3.94-.87,6.12-.78,4.99.2,9.99.43,14.99.45,6.19.03,12.33.2,18.52.53,7.37.39,14.85-.18,22.29-.34,3.32-.07,6.65-.24,9.97-.18.27,0,.55.02.82.04-.05.05-.1.11-.15.16,1.82.19,3.64.49,5.44.44,2.47-.07,4.94-.15,7.41-.24,2.2-.08,4.4-.16,6.6-.24,7.45-.26,14.89-.47,22.36-.28-.02-.03-.04-.05-.06-.08,2.19.04,4.38.11,6.58.22,2.05.11,4.11.2,6.17.28.03.04.05.07.08.11,4.53.16,9.06.27,13.59.3,1.1,0,2.19-.02,3.29-.07,3.03-.08,6.07-.37,9.11-.56.36,0,.71.03,1.07.05,3.17.17,6.34.4,9.51.51.38.01.75.01,1.12.01-.09-.03-.17-.05-.25-.08-.01,0-.02,0-.03-.01.2,0,.41.02.61.03,4.09.13,7.35-.39,9.93-1.37.82.02,1.62.17,2.44.23,1.36.11,2.77-.34,4.15-.42,1.59-.09,3.18-.02,4.76.2.29.04.59.09.88.05.25-.04.49-.14.73-.2,1.17-.31,2.33.16,3.49.25,1.25.1,2.54.09,3.8.09.05,0,.09,0,.14,0,.8,0,1.6-.02,2.4-.06,2.55-.04,5.13-.31,7.75-.96,1.11-.25,2.19-.62,3.31-1.01,1.08-.44,2.2-.9,3.27-1.49,2.17-1.15,4.29-2.65,6.24-4.59,2.01-1.98,3.96-4.14,5.62-6.46,1.66-2.32,3-4.81,3.8-7.29,1.02-3.12,1.75-6.25,2.33-9.38.58-3.13,1.02-6.26,1.42-9.48.13-.89.18-1.78.23-2.67.05-.98.06-1.56.06-2.27.01-1.37-.01-2.74-.07-4.1ZM258.52,175.17c.2-.07.38-.16.56-.23l3.48-1.54c1.23-.53,2.48-1.03,3.73-1.54.51-.21,1-.46,1.51-.68.22-.09.47-.18.69-.22.93-.17,1.87-.33,2.79-.38.35-.01.7.08.87.21.47.36,1.76-1.06,2.6-1.09.38-.01.77,0,1.21,0,.23-.07.5-.15.78-.22.82-.14,1.64.14,2.44.35.55.15,1.15.2,1.7.38.85.27,1.69.67,2.47,1.07.55.28,1.1.57,1.7,1.02l.23.18.26.25c.19.16.32.36.48.54.27.39.48.82.54,1.29.17.99-.42,1.92-1.11,2.59-.16.15-.38.32-.57.48-.22.1-.5.21-.59.25l-.83.31c-.85.3-1.69.72-2.53,1.08l-.57.23-4.19,1.84-2.23,1.02c-.21.1-.43.21-.51.25-.3.11-.47.17-.63.25-1.16.56-2.32,1.13-3.46,1.71-.48.25-.93.54-1.41.8-.81.43-1.64.86-2.46,1.27-1.81.91-3.65,1.72-5.53,2.41-.19.07-.38.17-.57.25-.19.08-.38.14-.57.19l-8.32,3.96.03.04c-.16.06-.33.09-.47.17-.54.29-1.07.61-1.61.89l-2.58,1.31-3.25,1.65-2.59,1.27-2.02.98-3.28,1.56-2.81,1.32-2.47,1.25c-.53.26-1.1.44-1.62.71-1.43.74-2.85,1.47-4.28,2.21-.95.47-1.93.9-2.9,1.36-.28.13-.54.31-.81.43-.61.31-1.23.57-1.81.76-.55.18-1.08.28-1.55.26-.45-.03-.88-.14-1.28-.48-.41-.37-.49-.73-.6-1.13-.01-.15-.02-.29-.03-.45-.04-.77.25-1.78.48-2.73.08-.31.16-.61.23-.91.07-.26.15-.52.23-.76.12-.36.23-.72.32-1.04l.05-.23.06-.28.11-.56c.13-.73.24-1.46.29-2.11.04-.51-.03-1.09-.08-1.81-.04-.7-.08-1.6.24-2.56.17-.55.48-1.06.82-1.5.35-.42.74-.79,1.13-1.07l.4-.29.42-.19.52-.23,1.03-.46c.32-.14.64-.3.96-.46.77-.37,1.53-.75,2.3-1.12.25-.12.54-.17.81-.27.94-.37,1.88-.74,2.81-1.14.34-.14.64-.37.98-.53.58-.27,1.17-.52,1.76-.77l2.65-1.1c.73-.31,1.47-.68,2.19-.9.84-.26,1.61-.64,2.42-.95.28-.11.56-.27.83-.41l.06-.05c.24-.1.51-.24.73-.29.77-.14,1.48-.52,2.19-.84,1.35-.6,2.66-1.27,4.02-1.85,1.06-.45,2.16-.79,3.23-1.21.79-.31,1.57-.67,2.36-.99.65-.26,1.31-.51,1.96-.75l5.45-2.03ZM225.58,167.95c.75-.21,1.43-.55,2.15-.82.25-.09.49-.24.74-.36l.05-.05c.22-.09.45-.22.65-.25.68-.11,1.31-.45,1.94-.74,1.19-.54,2.33-1.17,3.52-1.69.92-.42,1.89-.74,2.83-1.14.69-.29,1.35-.65,2.04-.97l.85-.38.31-.14c.12-.07.26-.08.38-.11l.51-.11c1.84-.36,3.68-.43,5.49-.3l.58.03c1.19.06,2.38.19,3.55.44,1.23.25,2.41.65,3.57,1.06.48.18.99.31,1.5.55.22.1.45.25.63.4.37.33.74.73,1.03,1.27.28.53.31,1.12.18,1.61-.1.4-.41.64-.6.7-.06.02-.12.02-.18.03-.07.16-.16.32-.27.49-.02,0-.03.01-.05.02.1.05.14.15.14.25,0,.24-.82,1.06-1.22,1.25-.29.13-.58.27-.92.42-.14.16-.3.34-.46.51-.51.47-1.2.62-1.84.89-.44.19-.83.49-1.27.69-.67.32-1.37.59-2.04.9-.93.42-1.87.84-2.79,1.3-.95.47-1.9.89-2.89,1.26-.75.28-1.49.67-2.24,1l-.51.21-3.72,1.67-1.98.91c-.19.09-.38.19-.46.23-.27.1-.42.15-.57.22-1.03.51-2.06,1.01-3.09,1.51-.43.22-.83.49-1.25.71-.73.38-1.46.75-2.2,1.11-1.61.8-3.3,1.46-4.91,2.06-.17.06-.33.15-.49.22-.16.07-.33.13-.5.17-2.42,1.22-4.85,2.52-7.42,3.63l.02.04c-.14.05-.3.07-.43.13-.51.24-1,.51-1.53.71-.41.17-.83.33-1.26.46-.42.15-.86.27-1.3.4-.54.17-1.13.27-1.7.39-.59.07-1.17.18-1.79.17-.98.04-1.84-.08-2.72-.17-.68-.08-1.35-.17-2.01-.27-1.08-.16-2.13-.33-3.22-.53-.93-.18-1.83-.38-2.75-.58l-1.23-.25-.66-.14c-.34-.08-.67-.17-1.01-.27-.85-.25-1.58-.61-2.15-.97-1.37-.94-1.03-2.05.04-3.09.39-.38.85-.74,1.39-1.07.34-.2.74-.42,1.06-.59l.63-.34,1.26-.68c.24-.13.46-.3.71-.42.3-.15.62-.27.93-.42.29-.14.57-.3.86-.45.65-.33,1.31-.67,1.96-1,.87-.46,1.7-1.01,2.6-1.37,1.28-.53,2.51-1.14,3.76-1.71l3.18-1.54c1.22-.57,2.46-1.1,3.68-1.66l.86-.41c.68-.33,1.36-.68,2.05-1,.22-.1.49-.14.72-.23.84-.32,1.68-.63,2.52-.98.3-.12.57-.33.87-.47.52-.23,1.05-.45,1.58-.66l2.37-.95c.65-.26,1.31-.59,1.95-.77ZM174,172.9c.66-.24,1.31-.59,1.96-.89l.45-.19,3.27-1.48,1.75-.79c.17-.08.34-.16.4-.2.24-.08.38-.12.5-.18l2.75-1.29c.38-.18.72-.42,1.1-.62.64-.33,1.28-.65,1.94-.96,1.43-.69,2.89-1.26,4.4-1.73.15-.05.3-.12.45-.18.15-.05.3-.09.46-.12,2.21-.94,4.44-1.87,6.69-2.74l-.02-.04c.13-.03.27-.04.38-.1.44-.2.87-.42,1.32-.62.71-.29,1.41-.57,2.13-.83.9-.34,1.82-.67,2.76-.95.75-.23,1.5-.41,2.36-.56.67-.09,1.27-.13,1.88-.15.98-.03,1.95-.03,2.92.01.83.03,1.66.11,2.5.19.75.07,1.5.11,2.26.25.49.09.96.27,1.45.41.35.1.67.19,1.08.37.48.21.94.49,1.32.84l.26.29c.07.1.14.22.21.32.07.11.12.23.18.34.28.55-.08,1.69-.18,2.24-.2,1.16-1.78,1.48-2.71,1.91-.22.1-.41.25-.63.35-.27.12-.55.21-.83.33-.26.11-.51.24-.76.36-.58.28-1.16.55-1.73.84-.76.39-1.49.88-2.27,1.18-1.13.44-2.19.99-3.28,1.51-.93.44-1.83.95-2.75,1.41l-3.18,1.54c-.25.12-.49.25-.74.39-.59.32-1.17.64-1.76.95-.19.1-.42.13-.63.21-.73.3-1.46.6-2.18.93-.26.12-.48.32-.74.45-.45.22-.91.43-1.36.63l-2.05.9c-.57.25-1.13.57-1.7.74-.66.2-1.25.52-1.88.77-.22.09-.43.23-.64.35l-.04.05c-.19.08-.39.2-.57.23-.61.1-1.15.41-1.7.68-1.03.51-2.04,1.07-3.08,1.56-.81.38-1.67.65-2.51.99-.61.26-1.2.57-1.81.84-1.6.68-2.76.84-4.5.57-.79-.12-1.58-.27-2.34-.46-.16-.04-.33-.06-.49-.1-1.01-.21-2-.43-2.97-.7l-3-.86c-.4-.1-.82-.16-1.23-.24-.18-.03-.36-.09-.51-.16-.95-.45-2.35-.83-3.25-1.42-.06-.04-.12-.08-.18-.13-.54-.41-.52-1.04-.2-1.58.11-.2.23-.34.33-.42.29-.24.56-.41.88-.59.12-.16.27-.35.42-.53.49-.47,1.15-.57,1.74-.77.41-.14.79-.38,1.2-.52l.82-.27.9-.37c.82-.36,1.64-.72,2.44-1.12.83-.41,1.66-.79,2.53-1.1ZM140.58,69.2s0,0,0-.01c-.02,0-.04,0-.05,0-.43-.09-.67-.53-.74-.69-.04-.08-.09-.2-.14-.39-.05-.19-.11-.47-.09-.86,0-.19.01-.42.04-.71.01-.3.1-.65.24-1.13.08-.29.15-.51.21-.7.08-.19.16-.34.23-.5.07-.16.15-.32.24-.51.04-.1.09-.2.14-.32.06-.11.13-.23.21-.37.19-.33.34-.68.56-.99l.47-.65c.15-.22.31-.43.5-.62.36-.39.72-.77,1.16-1.06.24-.17.47-.36.69-.55.24-.17.48-.34.73-.5.11-.07.21-.14.32-.2.49-.24.98-.47,1.45-.74.21-.1.44-.17.66-.27.36-.16.7-.36,1.07-.49.05-.02.1-.06.15-.07.38-.05.67-.29,1.01-.4.12-.04.26-.06.39-.08.09-.02.18-.04.26-.07.59-.22,1.2-.35,1.82-.43h.03c.42-.12.85-.15,1.29-.2.12-.01.23-.07.34-.12.19-.08.38-.14.58-.2.05-.01.11,0,.17,0l.99.12.13.02c.59,0,1.16.07,1.72.21.2.05.41.06.62.08.56.04,1.12.13,1.66.27.32.07.61.19.93.27.39.09.8.14,1.18.29.21.07.42.16.63.25.31.13.6.31.89.48l.23.15c.11.06.21.15.32.18.23.06.4.2.59.32.52.33,1.04.65,1.57.97.4.25.77.57,1.15.87.34.34.69.69,1,1.07.1.13.22.24.33.35.16.17.32.35.36.58.01.1.04.2.06.3.04.21.14.37.31.47.2.12.32.3.3.54,0,.28.07.52.18.79.17.38.19.82.27,1.22.05.23.1.44.19.66.09.2.16.42.22.64.07.22.06.43-.08.6-.09.11-.09.28-.03.41.14.33.18.67.11,1.04-.06.35-.09.71-.13,1.07v.1c.07.29-.11.55-.16.83-.02.11-.07.22-.08.34-.03.33-.17.63-.28.93-.12.3-.24.6-.4.88-.13.26-.26.51-.39.77-.12.26-.29.5-.41.75-.09.18-.19.37-.29.55-.12.17-.24.33-.36.5-.25.33-.49.66-.78.95-.28.29-.52.63-.81.92-.25.28-.58.52-.89.76l-.98.7c-.25.16-.5.31-.75.47-.23.13-.45.28-.68.41-.28.17-.57.3-.9.38-.29.08-.58.24-.87.36-.11.04-.23.09-.34.12-.17.05-.35.11-.52.15-.18.04-.35.1-.53.05-.04-.01-.11,0-.16.01l-.65.17c-.22.04-.44.08-.66.1-.44.04-.85.2-1.28.22-.44.02-.85.24-1.31.15-.14-.02-.3.05-.45.07-.37.04-.74.09-1.11.09h-.5c-.4.02-.8.04-1.21-.06-.54-.11-1.08-.22-1.64-.21-.05,0-.12,0-.16-.03-.18-.13-.39-.14-.61-.16-.13,0-.27-.06-.39-.11-.48-.21-.99-.27-1.48-.44-.42-.14-.86-.24-1.27-.42l-.09-.04c-.38-.11-.76-.24-1.12-.43-.36-.19-.71-.4-1.07-.58l-.74-.45-.37-.23-.35-.27c-.4-.31-.81-.62-1.15-1.01-.28-.31-.39-.44-.71-.89-.27-.38-.52-.68-.65-.9-.19-.34-.38-.66-.52-.95-.12-.3-.23-.57-.32-.8-.12-.28-.2-.6-.27-.93-.08-.33-.16-.69-.16-1.09-.07-1.15.13-1.36.22-1.46.15-.14.31-.12.53-.38.1-.12.15-.21.26-.25.05-.02.11-.02.23.02,0,0,0-.02,0-.03ZM132.66,138.45c.04-.81.1-1.61.18-2.42.05-.59.11-1.19.18-1.78.06-.53.14-1.05.18-1.57.07-.66.17-1.27.34-1.92.15-.57.21-1.24.31-1.87l.13-.71.23-1.07c.08-.35.14-.72.29-1.01.04-.07.07-.2.09-.31.19-.88.35-1.78.58-2.64.23-.87.33-1.74.53-2.58.2-.88.26-1.75.55-2.61.09-.26.1-.6.16-.91.14-.73.29-1.46.43-2.19l.2-.99c.16-.79.31-1.56.52-2.35.28-1.05.57-2.11.62-3.19,0-.1.03-.24.06-.31.16-.38.19-.78.23-1.2.02-.25.07-.52.12-.77.19-.97.23-1.94.2-2.88-.03-.82-.11-1.62-.27-2.4,0-.06-.02-.12-.03-.18-.38-1.33-.84-2.63-1.63-3.76-.14-.2-.28-.4-.44-.58l-.23-.28-.34-.38c-.16-.19-.36-.39-.55-.58-.18-.19-.33-.39-.49-.58l-.49-.59-.05-.07.06-.08.11-.16.22-.32c.25-.37.53-.71.79-1.08.13-.18.28-.36.44-.53l.42-.42c.39-.38.78-.74,1.19-1.05.33-.27.58-.44.86-.61.27-.18.58-.38,1.05-.66.4-.25.77-.45,1.09-.63.32-.18.6-.33.83-.44,1.39-.68,2.62-1.07,3.52-1.35,1.16-.31,2.41-.62,3.95-.72,2.22-.14,2.62.03,2.83.13.28.15.21.31.74.53.24.1.43.15.51.26.03.05.05.11-.03.23.02,0,.04,0,.06,0,.01,0,.02,0,.03,0,0-.02.01-.04.02-.05.2-.42,1.11-.66,1.43-.73.17-.04.4-.07.8-.09.2-.01.44-.02.73-.02.29.01.63.05,1.04.09.4.03.85.14,1.46.28.3.06.63.2,1.01.32.39.12.8.33,1.27.56.29.13.53.3.76.44.22.15.43.26.6.4.34.28.65.5.92.78.26.28.56.53.84.91.14.19.3.39.47.61.15.24.31.51.5.81.2.36.38.74.55,1.12.13.39.3.78.4,1.18.32,1.11.39,2.29.38,3.37-.01.54-.03,1.07-.09,1.59-.05.52-.12,1.04-.21,1.56-.18,1.16-.37,2.33-.6,3.48-.05.25-.1.5-.17.74-.28,1.05-.53,2.11-.79,3.18l-.36,1.38-.54,2.31c-.03.11-.03.24-.07.33-.25.71-.33,1.43-.49,2.14-.06.26-.14.51-.22.77-.05.17-.1.35-.14.52-.27,1.23-.53,2.45-.85,3.67l-.02.07c-.16.86-.35,1.7-.54,2.55-.05.23-.05.47-.06.7-.02.4-.04.79-.06,1.19,0,.1-.04.22-.07.32l-.5,1.91c-.02.08-.05.17-.06.26-.16,1.16-.41,2.28-.62,3.4-.08.4-.11.83-.15,1.24-.11,1.11-.15,2.22-.19,3.32-.04.64-.03,1.23.01,1.86l.19,1.12.27,1.1c.12.4.25.8.37,1.2l.32.89.38.86.23.45c.11.21.21.44.35.6.28.33.51.67.76,1.01.29.38.61.73.97,1.07.55.51,1.23.99,1.94,1.47-.02.06-.01.1-.04.16l-.14.18-.28.35c-.22.26-.43.54-.67.81l-.75.81c-.36.36-.69.7-1.06,1.02-.72.66-1.49,1.26-2.29,1.83-.26.19-.51.39-.76.58-.38.27-.74.56-1.19.68-.18.05-.37.14-.56.2-.39.13-.72.34-.98.56-.31.28-.69.46-1.11.55-.5.1-.99.25-1.54.47-.39.17-.8.26-1.21.37-.41.1-.82.22-1.23.3-.47.08-.91.19-1.35.35-.41.16-.87.24-1.32.33-.45.08-.88.11-1.21.01-.22-.07-.56-.07-.85,0-.68.14-1.37.23-2.14.12-.37-.03-.74-.07-1.11-.1-.37-.02-.74-.13-1.11-.19-.07-.01-.16-.03-.21-.03-.3,0-.6-.02-.88-.13-.28-.1-.56-.22-.84-.32-.23-.08-.47-.17-.69-.26-1.31-.52-2.45-1.36-3.38-2.38-.81-.93-1.54-1.96-2.04-3.06-.78-1.57-1.17-3.27-1.36-4.96-.09-.83-.16-1.67-.23-2.5-.06-.77,0-1.59.05-2.37ZM293.92,193.06c-.08.19-.2.41-.27.53-.07.13-.22.34-.33.49-.67.8-1.36,1.32-2.07,1.91-.7.56-1.42,1.1-2.14,1.63-1.44,1.05-2.9,2.07-4.37,3.07-.51.34-1.04.71-1.53,1.06-2.6,1.88-5.21,3.73-7.86,5.54-1.1.75-2.35,1.62-3.39,2.21-3.48,2.01-6.84,4.3-10.25,6.45l-3.01,1.9c-2.05,1.3-4.11,2.58-6.14,3.91-3.38,2.19-6.87,4.41-10.04,6.61-5.35,3.7-10.69,7.46-16.12,11.08-1,.67-2.05,1.42-2.87,2.04-2.03,1.56-4.34,2.97-6.69,4.34-3.81,2.23-7.67,4.35-11.62,6.34-1.96,1.01-3.99,1.98-6.11,2.77-2.11.8-4.36,1.39-6.64,1.62-3.24.36-6.71.13-9.78-.04-.45-.03-1.13.02-1.7.03-4.38.13-8.79.29-13.18.46-.83.03-1.74.09-2.47.16-3.4.36-7.11.51-10.81.64-1.02.03-2.06-.02-3.09-.04-.91-.02-1.82-.08-2.72-.05-3.07.1-6.15.19-9.18.32-5.91.24-11.81.37-17.73.22-1.69-.04-3.29-.19-4.96-.23-3.92-.08-7.86-.22-11.78-.34-2.84-.11-5.66-.17-8.52-.37-2.85-.23-5.69-.54-8.5-1.02-4.79-.79-9.5-1.97-14.16-3.23-2.95-.81-5.87-1.59-8.79-2.49-3.52-1.08-7.02-2.3-10.51-3.33-.41-.12-.82-.25-1.24-.38-.55-.03-1.11-.09-1.69-.24-4.09-1.06-8.18-2.11-12.28-3.17-1.86-.48-4.11-1-6.16-1.82-2.05-.81-3.92-1.92-5.01-3.61-1.21-1.88-1.74-3.8-2.42-5.87-.49-1.48-.81-3.18-.99-4.72-.19-1.63-.25-3.16-.25-4.62,0-2.45.17-4.74.19-7.11.04-4.19.55-8.35.82-12.5.25-3.9.51-7.82,1.14-11.7.45-2.74,1.1-5.5,2.45-7.96.96-1.75,2.31-3.34,4.01-4.44.9-.59,1.56-.76,2.56-.98.7-.15,1.42-.42,2.19-.53,4.07-1.36,8.29-2.66,12.72-3.8,2.38-.72,4.76-1.44,7.19-2.04,4.08-.93,8.19-1.77,12.33-2.39.84-.14,1.66-.19,2.49-.3,5.15-.8,10.36-1.3,15.56-1.46,1.82-.11,3.63-.06,5.44-.11,1.81,0,3.62.09,5.45.18,1.35.14,2.71.28,4.07.43,1.36.18,2.71.43,4.06.64l3.83.79c1.26.32,2.52.63,3.78.97l3.4,1.03,3.35,1.15c3.49,1.26,6.9,2.68,10.28,4.15,3.06,1.34,6.08,2.74,9.11,4.09,2.35,1.04,4.7,2.08,7.08,3.03,1.07.44,2.15.87,3.24,1.26,1.08.41,2.17.82,3.27,1.18,6.1,2.07,12.38,3.7,18.63,5.49,3.41.97,7.1,1.73,10.67,2.52,3.23.71,6.48,1.46,9.7,2.01,4.08.68,8.26,1.06,12.4,1.82.27.05.55.1.83.15.33.07.73.1,1.02.28.62.37.98,1.05,1.06,1.68.14,1-.09,1.77-.32,2.56-.25.77-.57,1.5-.9,2.21-.34.71-.7,1.39-1.08,2.06-.21.34-.41.67-.62,1-.24.31-.47.63-.72.94-.82.95-1.88,1.74-3.06,2.22-1.18.48-2.43.67-3.64.75-2.43.14-4.75-.03-7.14.06-1.32.02-2.67.08-4.04.13-1.37.01-2.75.06-4.11.05-4.57-.03-9.09-.35-13.58-.51-1.91-.06-4.22-.32-6.27-.57-3.41-.42-6.78-.87-10.23-1.24-6.94-.74-13.86-1.61-20.84-1.84l-2.61-.07c-.18,0-.36.01-.53.04-.34.05-.87.16-1.15.35-.47.32-.05.8.2,1.11l.15.18.28.33c.41.46.85.92,1.31,1.35,1.61,1.49,3.92,1.74,6.02,2.23,2.23.52,4.47.97,6.73,1.37,2.11.38,4.36.73,6.36,1.11,5.89,1.11,11.88,1.56,17.85,2.12,3.54.34,7.07.68,10.61.96,1.3.11,2.6.23,3.91.31,5.18.3,10.35.35,15.46.21,2.31-.07,4.96-.46,7.4-1,1.55-.38,3.12-.71,4.67-1.13,1.54-.44,3.08-.82,4.58-1.27,1.1-.33,2.13-.66,3.15-1,1.02-.34,1.99-.75,3-1.15,5.23-2.15,10.51-4.38,15.81-6.73,2.1-.94,4.21-2,6.31-3.03,2.75-1.36,5.51-2.71,8.26-4.07,1.11-.54,2.23-1.08,3.34-1.63,3.71-1.85,7.45-3.66,11.21-5.41,3.78-1.73,7.59-3.38,11.46-4.89,1.15-.43,2.33-.89,3.59-1.2,1.25-.31,2.57-.49,3.86-.47.64.01,1.28.06,1.91.15.61.08,1.3.2,1.89.39,1.21.36,2.37.79,3.52,1.34.67.33,1.36.67,2.01,1.16.56.42,1.2,1.11,1.29,1.9.04.43-.05.87-.23,1.27Z"/>
</svg>