<?xml version="1.0" encoding="UTF-8"?>
<svg id="Layer_11" data-name="Layer 11" xmlns="http://www.w3.org/2000/svg" viewBox="0 0 264.64 221.92">
  <defs>
    <style>
      .cls-1 {
        fill: #1c5c7d;
      }
    </style>
  </defs>
  <path class="cls-1" d="M133.83,59.81c-.34.78-.69,1.56-1.03,2.34-.43,1.03-.91,2.05-1.36,3.07l-.69,1.53-.72,1.52c-2.15,4.53-4.5,9.02-7.09,13.27-1.1,1.78-2.23,3.52-3.33,5.27-1.1,1.75-2.14,3.51-2.92,5.37-.63,1.51-1.12,3.07-1.42,4.68-.3,1.61-.5,3.25-.58,4.91-.02.36-.04.71-.05,1.05,0,.34,0,.68,0,1.01,0,.67,0,1.32.04,2.01.1,3.21.21,6.6.31,9.94.1,2.23.21,4.47.38,6.69.32,4.4.65,8.76.96,13.07.43,6.01,1.02,11.98,1.71,18.07.27,2.42.52,5.15.67,7.56.36,5.16.81,10.35,1.12,15.55l.15,2.46.12,2.46.23,4.91.46,9.82.09,2.06.05,1.03v1.05c.04,1.4-.06,2.8-.21,4.19-.31,2.78-1.09,5.54-2.4,8.06-1.05,1.99-2.51,3.82-4.29,5.23-1.78,1.42-3.85,2.39-5.91,2.98-2.28.67-4.73,1-7.15.65-1.2-.17-2.39-.52-3.48-1.05-1.09-.53-2.09-1.24-2.96-2.06-1.8-1.7-3.19-3.9-4.2-6.17-1.02-2.27-1.72-4.6-2.23-6.71-.06-.26-.14-.5-.18-.72-.63-4.64-1.24-9.26-1.59-13.96-.14-1.9-.36-4.1-.58-6.06-.19-1.69-.35-3.35-.52-5-.16-1.66-.3-3.29-.63-4.89-.07-.32-.15-.64-.24-.94l-.08-.22c-.03-.07-.06-.14-.07-.17-.04-.08-.08-.17-.14-.24-.12-.14-.34-.17-.51-.12-.09.03-.17.07-.25.12-.09.06-.2.16-.3.26-.2.21-.34.44-.5.76-.16.29-.31.6-.46.92-.29.63-.56,1.28-.81,1.96-.7,1.86-1.36,3.85-2.19,5.84-.42,1.01-.91,1.98-1.39,2.94-.49.96-1,1.92-1.54,2.85-.63,1.12-1.29,2.32-1.96,3.46-1.55,2.64-3.15,5.25-4.73,7.86-.79,1.31-1.57,2.61-2.34,3.93-.76,1.31-1.47,2.64-2.17,3.99-1.34,2.58-2.76,5.19-4.67,7.51-.95,1.16-2.05,2.21-3.26,3.11-.3.23-.6.46-.93.65-.32.2-.63.42-.97.59l-1,.52c-.34.16-.71.29-1.07.44-.35.16-.74.24-1.11.34-.37.1-.73.2-1.05.24-2.2.45-4.49.34-6.68-.12-2.19-.47-4.31-1.29-6.27-2.42-.29-.18-.58-.36-.87-.54l-.44-.27c-.14-.09-.28-.2-.42-.3l-.84-.61c-.26-.23-.53-.45-.79-.68-.37-.29-.68-.65-1.01-.99-.34-.33-.62-.72-.91-1.09-.59-.75-1.04-1.55-1.48-2.37-.83-1.66-1.4-3.47-1.59-5.3-.22-1.83-.09-3.66.22-5.43.33-1.76.83-3.46,1.44-5.1,1.02-2.76,2.31-5.5,3.52-8.27.83-1.89,1.61-3.76,2.28-5.71.35-.96.7-1.93,1-2.93.31-.99.64-1.98.92-3.01.19-.68.39-1.38.58-2.05.91-3.49,1.73-7.03,2.42-10.53.83-4.19,1.66-8.33,2.45-12.54.72-4.01,1.45-8.05,2.18-12.08.44-2.37.9-4.72,1.39-7.09l.37-1.77.19-.89c.06-.31.13-.54.16-.84.13-1.14.1-2.34,0-3.51-.06-.63-.15-1.28-.3-1.89-.08-.3-.17-.6-.28-.87-.12-.27-.26-.49-.42-.59-.08-.03-.15-.07-.22-.1-.08-.04-.18-.05-.27-.08-.17-.06-.38-.07-.56-.1-1.31-.12-2.71,0-4.08.14-1.38.15-2.76.35-4.12.59-2.73.52-5.45,1.23-8.17,1.91-3.02.77-6.1,1.39-9.22,1.65-2.12.19-4.26.18-6.36.03-2.12-.16-4.19-.62-6.11-1.39-2.62-1.03-5.13-3.04-6.7-5.68-.52-.84-.91-1.75-1.23-2.69-.29-.95-.49-1.92-.56-2.92-.12-1.98.22-4,1.03-5.81.38-.92.91-1.76,1.47-2.57.6-.78,1.23-1.54,1.95-2.2,1.42-1.36,3.07-2.42,4.71-3.37.96-.56,1.95-1.07,2.94-1.56.98-.49,1.98-.95,2.98-1.42,6.42-3.02,13.09-5.48,19.48-8.35,3.74-1.69,7.31-3.51,10.96-5.26.62-.3,1.31-.59,1.97-.88,3.68-1.57,7.41-2.98,11.14-4.38.94-.36,1.89-.69,2.81-1.03,2.58-.93,5.07-1.9,7.49-3.06,1.84-.89,3.72-1.8,5.61-2.79.95-.48,1.89-1.01,2.85-1.53.94-.55,1.91-1.07,2.86-1.67.37-.23.75-.47,1.13-.7.37-.25.74-.52,1.11-.78.74-.54,1.5-1.05,2.18-1.6.66-.53,1.33-1.06,1.99-1.59l.5-.4.48-.42.97-.84c1.32-1.09,2.52-2.32,3.77-3.5,2.09-2.17,4.1-4.41,5.91-6.81l.82-1.07.41-.54.38-.55c.51-.74,1.02-1.48,1.53-2.21.49-.75.95-1.52,1.43-2.27.23-.38.48-.75.71-1.14l.66-1.17.66-1.17c.22-.39.45-.78.64-1.18.41-.8.83-1.6,1.24-2.41.41-.81.77-1.64,1.17-2.46.19-.41.39-.82.58-1.24.18-.42.36-.84.54-1.27,1.35-3.06,2.28-6.13,3.09-9.27.15-.63.3-1.28.46-1.94.08-.33.17-.67.25-1,.07-.34.15-.67.21-1.01.28-1.37.51-2.81.78-4.22.52-2.75,1.26-5.27,2.67-7.34.7-1.02,1.47-1.89,2.3-2.7.83-.81,1.71-1.55,2.67-2.22,1.31-.91,2.3-1.32,2.97-1.52.35-.09.61-.14.82-.16.22,0,.37,0,.5.04.04,0,.13,0,.23,0,.21-.05.43-.1.64-.12.24-.03.48-.05.73-.07.46-.19,1.17-.36,2.21-.44.98-.05,2.24-.02,3.79.28.78.14,1.61.38,2.52.7.9.34,1.86.77,2.84,1.37.95.6,1.84,1.31,2.61,2.15.18.22.38.43.55.65l.48.69.24.34.21.36.42.73c.17.37.35.75.52,1.12,1.08,2.56,1.31,5.37,1.15,8.03-.15,2.44-.54,4.81-.85,7.16-.18,1.19-.35,2.38-.55,3.56-.22,1.18-.43,2.36-.67,3.53-.94,4.59-2.13,9.11-3.48,13.56-1.35,4.46-2.89,8.86-4.6,13.19-.31.78-.64,1.57-.97,2.35ZM264.47,109.89c-.32-1.97-1.17-3.86-2.35-5.47-.31-.4-.61-.79-.97-1.17-.35-.37-.72-.72-1.11-1.04-.77-.64-1.57-1.21-2.4-1.74-1.67-1.07-3.41-2.02-5.15-2.92-2.62-1.34-5.32-2.59-7.93-3.62-1.12-.44-2.15-.84-3.33-1.34-2.69-1.15-5.39-2.26-8.05-3.43-3.28-1.47-6.49-3.08-9.74-4.67-1.94-.95-3.91-1.88-5.92-2.75-2.01-.88-4.05-1.68-6.08-2.47-1.82-.69-3.64-1.38-5.45-2.07-1.37-.54-2.75-1.09-4.11-1.63-3.76-1.43-7.48-2.94-11.09-4.69-3.59-1.76-7.04-3.8-10.26-6.22l-1.23-.92-1.2-.96c-.81-.63-1.58-1.32-2.37-1.97-1.54-1.36-3.06-2.75-4.5-4.23-.81-.79-1.57-1.62-2.36-2.44l-1.14-1.26-.57-.63-.55-.65c-.21-.26-.43-.52-.64-.78-.58-.71-1.12-1.46-1.68-2.18-.53-.75-1.08-1.49-1.6-2.25-.26-.39-.52-.76-.76-1.12-.12-.18-.24-.35-.36-.52-.1-.15-.2-.33-.31-.49-.4-.68-.78-1.31-1.14-1.88-.72-1.13-1.38-2-1.97-2.62-.59-.62-1.13-1.01-1.55-1.13-.02,0-.04,0-.06-.01-.22-.15-.42-.22-.6-.2-.18.02-.35.09-.51.2-.08.03-.16.06-.2.07-.24.03-.57.19-.99.67-.21.24-.44.55-.69.96-.24.41-.5.9-.8,1.51-1.75,3.6-3.01,7.02-4.5,11.55-.76,2.33-1.67,4.71-2.54,6.76-1.08,2.6-2.36,5.1-3.67,7.78-.36.74-.7,1.49-1.02,2.23-.16.37-.32.75-.47,1.13-.15.38-.3.76-.44,1.16-.15.38-.26.8-.38,1.2-.1.42-.21.84-.26,1.29-.13.88-.08,1.85.16,2.72.23.88.6,1.65.99,2.37.39.73.8,1.41,1.21,2.09.41.67.83,1.35,1.27,2.02.44.67.89,1.33,1.34,1.98,1.49,2.18,2.98,4.31,3.88,6.69.13.33.24.69.34,1.04.1.35.22.7.32,1.05l.25,1.07.13.54.1.54.19,1.09c.07.36.1.73.15,1.09.04.37.1.73.14,1.09l.1,1.1c.09.76.11,1.55.16,2.34.02.79.03,1.58.02,2.34-.11,3.89-.37,7.58-.53,11.15-.11,2.33-.31,4.66-.55,7.03-.09.85-.17,1.72-.24,2.59-.28,3.45-.57,6.9-.85,10.35-.05.62-.12,1.27-.15,1.86-.21,3.5-.51,6.97-.84,10.54-.55,6.09-1.05,12.24-1.54,18.36-.07.95-.17,1.89-.26,2.84-.09.95-.18,1.9-.26,2.86-.49,6.55-.92,13.11-1.16,19.67-.1,2.55-.17,5.1-.14,7.49.06,3.53.59,7.32,2.21,10.71,1.16,2.49,2.9,4.73,5.06,6.49,1.97,1.55,4.27,2.7,6.72,3.31,1.23.25,2.48.46,3.75.41.63.02,1.25-.08,1.88-.14.31-.04.62-.12.92-.18.31-.07.61-.12.91-.23,1.42-.38,2.93-1.08,4.21-1.97,1.78-1.22,3.24-2.87,4.32-4.72,1.09-1.85,1.81-3.88,2.29-5.96.75-3.5,1.21-7.06,1.58-10.6.4-3.71.71-7.38.93-11.09.19-3.1.43-6.25.79-9.36.08-.6.14-1.22.26-1.83.07-.46.14-.91.25-1.33.05-.21.13-.41.22-.61.04-.1.09-.19.15-.28.05-.08.1-.15.16-.22.06-.07.12-.13.18-.19.03-.04.07-.04.12-.05.04,0,.09,0,.13-.01.18,0,.35.02.52.08.34.13.67.42.76.75.58,1.7,1.18,3.38,1.88,5.05,1.01,2.44,2.09,4.84,3.18,7.13,2.6,5.45,5.72,10.72,8.97,16.06.6.98,1.21,1.99,1.76,2.97.92,1.63,1.76,3.32,2.67,4.98.9,1.66,1.9,3.3,3.11,4.78.34.43.79.99,1.22,1.47.87.97,1.86,1.84,2.91,2.62l.81.56.84.51c.56.34,1.17.63,1.78.88,2.48.99,5.2,1.19,7.79.83,2.71-.38,5.32-1.33,7.68-2.7,2.35-1.39,4.47-3.25,5.99-5.58.33-.5.63-1.04.88-1.58.28-.55.45-1.11.66-1.65.66-1.82,1-3.79.95-5.71-.05-1.92-.41-3.77-.9-5.48-.74-2.48-1.61-4.7-2.5-6.92-1.1-2.73-2.23-5.3-3.24-8.06-.3-.8-.62-1.65-.91-2.5-.28-.85-.54-1.7-.78-2.5-1.11-3.92-2.27-7.78-3.17-11.72-.04-.18-.13-.38-.2-.6-1.15-3.54-2.15-8.04-2.79-12.2-.62-4.02-1.35-8.1-1.98-12.11-.56-3.61-1.29-7.45-2.03-11.18l-.51-2.52-.03-.16s0-.04-.01-.1l-.02-.3c-.01-.2-.02-.41-.02-.62,0-.42,0-.83.02-1.25.04-.83.12-1.66.29-2.45.09-.39.2-.77.35-1.11.15-.33.36-.61.54-.7.44-.2,1.12-.28,1.76-.3.65-.03,1.32,0,1.98.03,2.8.16,5.58.65,8.34,1.29,2.76.64,5.5,1.41,8.29,2.05,2.22.51,4.46.95,6.75,1.16,2.28.21,4.59.2,6.88-.11,1.07-.12,2.19-.41,3.31-.71,1.12-.35,2.2-.84,3.14-1.42,1.18-.74,2.26-1.63,3.19-2.64.93-1.02,1.71-2.16,2.33-3.38.6-1.23,1.04-2.55,1.26-3.91.21-1.36.22-2.76,0-4.13ZM35.61,43.98c.2.44.34.9.45,1.38.12.47.25.95.36,1.43.07.36.19.7.29,1.06.11.35.2.7.35,1.04.51,1.22,1.09,2.42,1.86,3.48.23.31.44.68.65,1.03.14.24.3.47.47.7l.49.69c.31.47.68.9,1.04,1.33l.47.55c.16.18.34.34.51.51.34.34.66.69,1.01,1.02.37.34.73.68,1.1,1.03.38.32.79.61,1.21.9.34.24.72.44,1.08.66.37.21.72.45,1.1.63.15.07.29.16.44.24.44.23.84.5,1.26.73.42.23.82.5,1.26.71.65.29,1.26.65,1.9.92,1.47.74,3.11,1.16,4.81,1.35.31.03.64.05.94.11l.38.07.39.04c.26.02.51.05.77.06.51.04,1.03,0,1.53-.08.15-.02.34,0,.5-.01.69-.03,1.37-.09,2.06-.14l1.02-.15c.34-.05.68-.1,1.01-.2.7-.19,1.4-.34,2.09-.55.35-.1.7-.18,1.04-.3l1.03-.34c.3-.09.6-.22.88-.33.48-.17.96-.36,1.41-.59.44-.25.86-.51,1.26-.77.56-.41,1.1-.75,1.67-1.07.33-.22.66-.43.98-.65.16-.11.32-.23.48-.35.15-.13.3-.26.44-.4.33-.33.74-.66,1.09-.94.44-.35.83-.74,1.21-1.13.36-.42.71-.85,1.09-1.24.04-.04.04-.11.07-.17.19-.49.46-1,.78-1.47.32-.48.63-.97,1.01-1.4.37-.41.66-.88.96-1.35l.45-.7c.14-.24.28-.48.41-.71.24-.43.51-.87.7-1.35.2-.48.39-.96.59-1.44l.62-1.84c.16-.63.33-1.26.47-1.89.28-1.52.5-3.05.54-4.59.01-.31.03-.61.03-.92v-.92c-.02-.31,0-.61-.01-.92,0-.3-.01-.61,0-.92,0-.29.01-.59-.02-.9-.03-.3-.08-.61-.14-.89-.29-1.42-.61-2.79-.9-4.19-.13-.5-.27-.99-.43-1.49-.16-.49-.38-.97-.59-1.45-.2-.49-.46-.96-.68-1.44l-.25-.54c-.09-.18-.19-.35-.29-.52-.2-.34-.41-.68-.64-.98-.21-.25-.41-.48-.59-.78-.4-.69-.88-1.32-1.35-1.96-.62-.76-1.23-1.53-1.91-2.24-.2-.21-.4-.44-.61-.64l-.67-.59c-.23-.19-.44-.4-.68-.58l-.71-.54c-.21-.16-.42-.32-.63-.48l-.66-.45c-.33-.22-.62-.52-.98-.71-1.89-1.14-3.94-1.98-6.03-2.66-1.07-.34-2.18-.63-3.3-.81-.61-.13-1.24-.13-1.86-.17-.09,0-.18-.02-.28-.03-.5-.08-1.01-.08-1.51-.11-1.04-.07-1.74.15-2.17.37-.23.12-.38.26-.48.41-.06,0-.11,0-.17.01-.05,0-.1.01-.15.01-.02-.02-.05-.04-.06-.06-.13-.25-.36-.41-1.11-.48-.55-.06-1.08-.07-1.64-.07-.56,0-1.14.09-1.79.26-.17.04-.33.09-.5.13-.17.06-.33.11-.5.17-.33.11-.65.23-.93.37-.36.17-.7.37-1.06.54-.36.17-.72.34-1.09.51-1.66.7-3.03,1.78-4.37,2.88-.57.44-1.08.96-1.62,1.44-.31.27-.59.57-.89.86l-.43.44c-.13.15-.26.31-.39.47-.25.34-.54.68-.82,1-.35.4-.69.79-.97,1.21-.27.43-.53.85-.74,1.29-.25.59-.61,1.1-.98,1.63-.13.19-.27.38-.39.59-.25.4-.45.82-.67,1.23l-.32.62-.29.64c-.07.15-.15.31-.2.46-.16.45-.29.9-.45,1.35-.17.44-.32.89-.47,1.35-.28.78-.46,1.59-.66,2.4-.16.82-.32,1.63-.41,2.46-.03.26-.1.51-.14.76-.03.26-.08.51-.1.77-.13,1.77-.13,3.58.18,5.33.1.68.26,1.36.48,1.97ZM177.76,44.2c.09.22.17.45.24.68.07.23.15.46.22.69.13.47.24.95.35,1.44.2.7.38,1.41.63,2.1.27.6.53,1.21.81,1.81.31.58.66,1.15,1.02,1.69.22.32.45.68.66,1.03l.46.71c.16.23.33.45.5.68.35.44.66.92,1.05,1.33l.98,1.06c.35.33.7.66,1.04.99.35.37.74.68,1.12,1,.19.16.39.32.58.47.2.15.42.28.63.41.36.22.72.44,1.08.66l1.12.6c.14.08.29.17.43.25.89.42,1.66.99,2.55,1.38.32.15.63.33.95.47.32.14.64.29.95.44l.56.26.58.21c.39.14.79.27,1.19.39.41.1.82.18,1.23.26.21.04.42.08.63.11.21.02.42.04.64.06.31.03.63.05.94.1.51.08,1.03.11,1.54.15.51.04,1.03,0,1.53-.1.14-.03.34-.01.5-.02.34,0,.69-.04,1.03-.07l1.03-.09c.68-.08,1.36-.21,2.04-.36.69-.21,1.39-.37,2.08-.58l1.03-.32.52-.16.51-.19c.29-.11.59-.24.88-.34.49-.14.94-.39,1.39-.62.22-.12.44-.24.65-.36.21-.13.4-.28.6-.42.55-.42,1.12-.73,1.65-1.09.34-.21.67-.42.99-.65.32-.23.61-.5.9-.77.34-.32.73-.66,1.08-.95.43-.35.83-.73,1.2-1.14.35-.42.7-.85,1.08-1.25.04-.04.04-.11.07-.17.2-.48.45-1,.77-1.48.15-.24.34-.47.5-.71.16-.24.34-.47.52-.69.73-.83,1.25-1.83,1.84-2.75.24-.43.47-.89.69-1.36.23-.47.38-.97.57-1.45.25-.6.42-1.23.61-1.85.2-.62.32-1.26.46-1.89l.12-.57.08-.57.15-1.15c.05-.38.06-.77.09-1.15.02-.39.07-.77.06-1.15,0-.61.02-1.22,0-1.84-.04-.61-.02-1.22-.04-1.83-.02-.57-.05-1.22-.19-1.78-.09-.35-.17-.7-.25-1.05l-.11-.52-.13-.52c-.09-.35-.17-.69-.24-1.04-.07-.35-.18-.69-.26-1.04-.12-.5-.26-1-.45-1.48-.19-.48-.36-.98-.61-1.44-.24-.47-.46-.96-.7-1.43-.39-.7-.72-1.44-1.23-2.02-.21-.25-.4-.48-.58-.78-.21-.34-.45-.65-.67-.98-.23-.32-.45-.65-.72-.95-.31-.38-.63-.76-.94-1.13-.33-.36-.66-.73-.99-1.09-.4-.43-.85-.81-1.29-1.21-.45-.39-.94-.73-1.4-1.1-.41-.33-.88-.6-1.3-.91-.17-.12-.32-.25-.48-.37-.17-.11-.33-.23-.51-.33-1.9-1.11-3.94-1.95-6.04-2.64-.54-.17-1.09-.31-1.63-.46-.55-.15-1.11-.22-1.67-.33-.61-.13-1.24-.11-1.86-.17-.09,0-.18-.02-.28-.03-.25-.04-.5-.06-.75-.07l-.76-.04c-.52-.02-.95,0-1.31.08-.36.08-.64.18-.86.29-.23.12-.38.26-.48.41-.06,0-.11,0-.17.01-.05,0-.1.01-.15.02-.02-.02-.05-.04-.06-.06-.13-.25-.37-.41-1.11-.48-.55-.05-1.08-.06-1.64-.06-.56.01-1.14.1-1.79.26-.65.21-1.37.38-1.93.69-.72.35-1.39.74-2.15,1.05-1.65.73-3.01,1.81-4.34,2.92-.28.23-.55.46-.81.72l-.79.74-.88.86c-.28.3-.55.61-.8.93-.27.33-.51.71-.8,1.01-.72.79-1.27,1.64-1.67,2.53-.14.29-.27.57-.43.84-.16.27-.35.53-.53.8-.13.19-.26.39-.38.59-.24.4-.44.83-.65,1.24-.22.41-.39.85-.58,1.28-.07.15-.14.31-.19.47-.13.46-.27.91-.43,1.35-.14.45-.29.91-.44,1.36-.49,1.58-.78,3.23-.97,4.88-.03.26-.08.51-.12.76-.04.26-.07.51-.09.77-.1,1.78-.04,3.57.26,5.33.14.68.25,1.36.52,1.96Z"/>
</svg>