<?xml version="1.0" encoding="UTF-8"?>
<svg id="Layer_11" data-name="Layer 11" xmlns="http://www.w3.org/2000/svg" viewBox="0 0 209.7 264.64">
  <defs>
    <style>
      .cls-1 {
        fill: #1c5c7d;
      }
    </style>
  </defs>
  <path class="cls-1" d="M209.65,225.45c-.16-6.86-.18-13.57-.09-20.32.06-4.85.04-9.75-.03-14.69-.03-2.5-.05-5.02-.06-7.52-.01-3.76,0-7.57-.15-11.17-.06-1.55-.11-2.96-.12-4.61,0-3.76-.02-7.52-.03-11.28-.01-4.66-.03-9.28-.04-13.94,0-5.54-.1-11.18-.15-16.77-.02-2.5-.05-5.01-.07-7.5,0-1.9.04-3.81.03-5.69-.08-10.38-.1-20.75-.02-31.18.04-5.33.05-10.68,0-16.03-.03-2.94-.12-5.88-.21-8.82,0-.43-.02-.88-.02-1.32-.04-2.39-.07-4.77-.15-7.17-.09-3.29-.28-5.87-.49-7.84-.21-1.97-.47-3.36-.79-4.25-.11-.28-.24-.47-.37-.63-.12-.31-.27-.63-.38-.74-.15-.15-.35-.28-.6-.39-.09-.07-.17-.14-.2-.18-.36-.46-1.42-1.13-4.89-1.52-2.56-.29-5.03-.38-7.57-.49-2.56-.11-5.26-.18-8.35-.17-3.17.01-6.53,0-9.46.09-3.68.12-7.3.21-11.09.19-8.35-.05-16.34.19-24.49.3-3.4.04-6.79.08-10.2.13-3.88.03-7.76.02-11.59.12-1.99.05-4.13.1-6.1.08-2.52-.02-4.98-.02-7.38.02-2.39.04-4.74.07-7.05.18-.93.05-1.87.09-2.8.14l-1.4.07c-.15.02-.31,0-.45.05-.14.06-.28.13-.41.21-.25.15-.46.33-.65.59-.2.33-.31.67-.36.97-.07.31-.1.61-.13.91-.06.6-.09,1.19-.11,1.78-.04,1.11-.03,2.25,0,3.37.01.56.02,1.1,0,1.64l-.06,1.67-.09,3.35-.13,6.69c-.01.8-.04,1.64-.03,2.4.03,4.52-.04,9-.19,13.6-.21,3.96.1,7.93-.31,11.79-.21,1.92-.6,3.83-1.44,5.5-.42.83-.96,1.59-1.62,2.21-.66.62-1.45,1.1-2.31,1.41-.26.11-.55.17-.82.26-.28.07-.56.11-.84.17-.29.04-.57.06-.86.09l-.9.05-1.83.09c-.61.02-1.22.03-1.83.05-8.39.26-16.83-.47-25.28-.65-3.29-.08-6.59-.09-9.67.16-1.13.07-2.26.2-3.43.28-.09.01-.18,0-.27.03-.09.03-.18.07-.22.08-.11.04-.24.06-.37.09-.26.04-.54.07-.82.08-.56.03-1.14.02-1.73,0-.59,0-1.18-.02-1.78,0-.6.03-1.22.05-1.86.27-.35.13-.69.34-.88.67-.21.34-.29.69-.33,1.01-.08.65-.03,1.27.04,1.87l.16,1.29c.02.21.04.41.04.6v.65s0,2.6,0,2.6c0,1.74,0,3.47,0,5.21.05,6.27.02,12.59.16,18.82.04,1.83.01,3.88,0,5.83-.01,5.38-.02,10.77.03,16.15.04,4.58.09,9.17.13,13.74.02,4.79,0,9.53.13,14.31.09,4,.18,8.07.27,12.11.01.78.02,1.59.03,2.39.08,4.75-.03,9.27-.04,13.9-.01,3.38-.06,6.76-.13,10.02-.17,7.74-.18,15.58-.04,23.64.03,1.48.05,3,.05,4.46,0,1.22,0,2.44-.01,3.66,0,1.2-.04,2.41-.07,3.61-.06,2.41-.12,4.83,0,7.24.03.69.03,1.6.08,2.42.03.41.05.83.09,1.24.03.39.07.87.2,1.34.12.46.31.93.6,1.35.28.42.69.81,1.12,1.05.43.26.85.43,1.28.56.42.14.84.24,1.26.33.84.18,1.67.29,2.49.38,3.31.33,6.59.29,9.85.2,1.7-.05,3.41-.12,5.08-.11,1.71.02,3.42.04,5.13.06,3.42.05,6.84.11,10.26.16,1.48.03,3,.02,4.43.05,4.8.13,9.67.09,14.17-.03,3.27-.1,6.31-.08,9.38-.06,3.76.03,7.42.05,11.22-.04,2.21-.05,4.68-.09,6.82-.07,5.27.08,10.47-.14,15.69-.16.24,0,.52-.06.81-.08,4.78-.43,10.71-.6,16.12-.51,5.24.09,10.58,0,15.8.04,4.7.03,9.73-.06,14.62-.11,3.08-.03,6.15-.06,9.23-.08,3.07-.01,6.15.03,9.23.04,1.84,0,3.67,0,5.51-.03.92-.01,1.84-.04,2.76-.07l1.38-.05c.18-.01.59-.01.89-.06.3-.12.55-.37.76-.62.22-.27.35-.53.46-.79.1-.26.17-.52.22-.78.09-.53.11-.95.16-1.42.09-.92.16-1.84.22-2.76.12-1.84.19-3.68.23-5.52.14-5.84-.05-11.68.07-17.45.05-2.7.06-5.77,0-8.49ZM181.52,175.24c-.72.39-1.52.59-2.36.66-.87.08-1.74.1-2.62.12-1.5.02-3.01.02-4.51-.07-1.58-.09-3.13-.23-4.72-.21-1.33.02-2.68.03-4.02.09-.26,0-.53,0-.79.01-1.57.04-3.06-.1-4.59-.15-1.12-.04-2.23-.11-3.31-.21-2.55-.23-5.14-.3-7.8-.22-.49.01-.99.03-1.47.01-1.61-.06-3.21-.12-4.79.06-.23.03-.52,0-.79.01-2.15.04-4.3-.05-6.45,0-2.25.07-4.52.04-6.78,0-.49-.01-.99,0-1.47-.03-1.59-.09-3.19-.04-4.68.09-1.08.09-2.08.09-3.1.06-1.24-.04-2.45-.07-3.71,0-.73.05-1.55.07-2.25.03-1.74-.11-3.46.07-5.18.05-.08,0-.17.05-.27.08-1.58.39-3.53.51-5.32.37-1.73-.13-3.5-.1-5.22-.18-1.55-.07-3.21-.02-4.83,0l-6.1.07-7.26.13c-.96.01-1.92.02-2.9.05-.97.03-1.93.07-2.89.05-.89-.02-1.88,0-2.76.04-2.19.11-4.35-.25-6.25-1.19-.67-.33-1.31-.7-1.87-1.14-.56-.43-1.03-.94-1.3-1.49-.13-.28-.22-.57-.24-.87-.02-.3.04-.6.14-.89.32-.89,1.15-1.65,1.99-2.32.36-.3.74-.53,1.2-.74,1.08-.46,2.22-.76,3.4-.96,1.46-.25,2.97-.36,4.48-.41,1.81-.06,3.65-.15,5.49-.18.82-.01,1.65-.03,2.47-.02.63,0,1.26.08,1.88.07,1.71,0,3.45-.04,5.17-.11,1.71-.05,3.43-.08,5.15-.06,1.76.02,3.53.03,5.3.01.97,0,1.94-.07,2.92-.11.14,0,.29,0,.44,0,.79,0,1.58,0,2.37,0,2.48-.04,5.31-.41,6.45-.23,1.68.26,3.2.59,5.24.57,1.05,0,2.16.02,3.13-.07,1.22-.11,2.41-.2,3.66-.17,2.76.07,5.4-.16,8.09-.25,1.12-.04,2.24-.09,3.37-.11h.48s.24,0,.24,0h.07s.07,0,.07,0c.33.03.65.07.98.09.65.05,1.3.08,1.94.06.67,0,1.38-.04,2.04,0,1.68.09,3.27,0,4.78-.21.99-.13,1.98-.14,2.99-.06.36.03.73.06,1.11.06,1.48.03,2.95.03,4.43.02.27,0,.54,0,.8-.01,1.49-.12,2.97-.14,4.5-.14,2.6-.04,5.22-.07,7.83-.11.4,0,.81.02,1.21.04.41.02.81.05,1.22.05,2.78.01,5.56.08,8.32.16,1.08.02,2.15.11,3.16.05.74-.02,1.52,0,2.24.14.72.16,1.42.45,2.02.85.44.3.83.66,1.15,1.07.32.41.57.86.78,1.33.74,1.71.41,3.78-.72,5.26-.33.44-.84.81-1.36,1.08ZM58.83,196.43c.09-.74.3-1.45.65-2.09.34-.65.85-1.21,1.49-1.61.06-.04.1-.12.16-.19.5-.52,1.25-.94,2.09-1.14.42-.09.86-.15,1.31-.17.45-.03.9-.04,1.33-.02,1.69.06,3.41,0,5.1.12,1.52.1,3.14.09,4.72.14l5.98.17c2.38.05,4.77.04,7.15,0,1.89-.02,3.77-.07,5.65.07.88.06,1.87.09,2.75.04,2.22-.12,4.4-.11,6.58,0,1.57.08,3.16.09,4.76.05.81-.02,1.63-.03,2.44-.02,1.22,0,2.45.03,3.62-.09.5-.05.96-.1,1.49-.09,1.22.01,2.44.03,3.66.03,1.51,0,3.01,0,4.52.03,1.8.03,3.62-.04,5.43-.07.81-.01,1.62-.04,2.43-.03.62,0,1.24.06,1.85.05,3.37-.06,6.72-.18,10.1-.13,1.73.03,3.46.04,5.19.04.95,0,1.9-.06,2.86-.09.14,0,.28,0,.43,0,.77.01,1.55.03,2.32.04,2.42.02,5.24-.26,6.36-.11,1.66.23,3.17.5,5.16.44,1.02-.03,2.1-.03,3.04-.12,1.18-.11,2.33-.19,3.53-.1.33.02.66.05.98.07.33.02.65.04.94.08.61.05,1.19.15,1.77.28,1.14.27,2.22.74,3.03,1.5.67.63,1.15,1.45,1.26,2.34.13,1.02-.24,2.05-.85,2.92-.32.46-.75.92-1.25,1.2-.64.38-1.31.66-1.99.91-.17.06-.34.12-.51.17-.17.05-.35.1-.52.15-.17.06-.35.1-.52.14l-.49.13c-.94.12-1.93.12-2.92.04-.35-.03-.72-.05-1.09-.06-1.44-.01-2.89-.03-4.33-.04-.26,0-.53-.01-.78,0-1.46.09-2.91.08-4.41.05-2.55-.05-5.12-.03-7.68-.04-.4,0-.79-.03-1.19-.05-.4-.02-.8-.05-1.2-.05-2.74-.02-5.48-.03-8.21.05-1.06.03-2.13.05-3.12.2-1.45.22-3,.15-4.52.08-1.13-.05-2.25-.15-3.38-.15-2.03,0-4.08-.04-6.1.11-.59.04-1.26.02-1.89.01l-5.23-.02c-1.48,0-2.97.05-4.45.04-1.55-.02-3.09-.06-4.64.03-1.3.08-2.61.13-3.92.19-.25,0-.52,0-.77.01-1.54.05-3-.09-4.5-.14-1.1-.03-2.19-.11-3.25-.2-2.51-.22-5.05-.29-7.66-.2-.48.02-.97.03-1.44.02-1.58-.05-3.15-.12-4.7.07-.22.03-.51,0-.77.01-2.11.04-4.22-.04-6.33.05-2.2.09-4.42.07-6.64.03-.48,0-.97,0-1.44-.02-.78-.04-1.56-.06-2.33-.04-.39,0-.77.02-1.14.04-.19.01-.38.02-.56.03-.09,0-.21.01-.23.02h-.23c-.98-.04-1.87-.32-2.6-.81-.91-.61-1.56-1.43-2.01-2.4-.26-.57-.39-1.29-.3-1.89ZM73.03,230.28c-2.1.14-4.18.19-6.23.21-1.07,0-2.15-.06-3.14-.29-.96-.25-1.88-.71-2.56-1.39-.3-.29-.58-.61-.77-.95-.33-.58-.5-1.21-.58-1.84-.07-.63-.03-1.27.17-1.86.26-.88.87-1.58,1.6-2.08l.34-.23c.11-.07.23-.12.35-.18.22-.13.48-.21.74-.31.51-.19,1.06-.34,1.63-.49.66-.18,1.43-.31,2.11-.34,1.66-.06,3.32-.28,4.99-.28.08,0,.17-.05.26-.08,1.53-.4,3.45-.48,5.21-.37,1.7.1,3.42.03,5.11.09,1.52.05,3.14-.03,4.72-.07l5.96-.17,7.1-.25c1.88-.06,3.76-.14,5.63-.04.87.04,1.86.05,2.74-.01,2.21-.16,4.38-.19,6.56-.11,1.57.06,3.15.04,4.74-.03.81-.03,1.62-.05,2.43-.06,1.21-.01,2.44,0,3.6-.14.5-.06.96-.11,1.49-.11,1.21,0,2.43,0,3.64-.02,1.5-.03,3-.03,4.5-.03,1.79.01,3.61-.08,5.41-.13.81-.02,1.62-.05,2.42-.06.61,0,1.23.05,1.84.03,3.35-.1,6.7-.25,10.07-.22,1.72.01,3.45,0,5.17,0,.95-.01,1.9-.07,2.85-.11.14,0,.28,0,.42,0,.77,0,1.54.01,2.31.02,2.41,0,5.23-.31,6.35-.18.82.1,1.6.21,2.38.33.38.06.78.12,1.19.19.19.04.38.08.58.11.19.04.39.08.6.13.84.18,1.6.59,2.23.98.39.25.75.55,1.03.92.28.37.48.81.58,1.27.22,1.02.1,2.08-.37,3.01-.45.94-1.29,1.71-2.33,2.2-.88.4-1.83.64-2.9.72-1.23.11-2.47.15-3.69.26-.64.07-1.32.11-1.96.1-1.62-.05-3.16,0-4.65.16-.97.11-1.94.09-2.93,0-.35-.03-.72-.06-1.08-.07-1.44-.04-2.89-.05-4.33-.04-.26,0-.53,0-.78.02-1.46.13-2.92.19-4.42.3l-.48.04-.24.02s-.05,0-.08,0h-.11s-.96,0-.96,0l-1.91.03c-1.28.02-2.56.04-3.83.06-.4,0-.79-.02-1.19-.03-.4-.01-.79-.04-1.19-.03-2.73.03-5.46.07-8.18.2-1.06.05-2.12.09-3.11.26-1.45.24-2.98.2-4.51.16-1.12-.04-2.23-.14-3.35-.15-2.02-.02-4.07-.11-6.08.05-.59.05-1.26.02-1.89.03l-5.21.1c-1.48.04-2.96.13-4.43.15-1.55.02-3.08.02-4.62.15-1.29.11-2.6.19-3.91.29-.25.01-.51.02-.77.03-1.53.09-2.99-.02-4.49-.03-1.09,0-2.18-.05-3.24-.12-2.5-.16-5.04-.16-7.64-.01-.48.03-.97.06-1.44.05-1.58,0-3.15-.05-4.7.22-.22.04-.51.03-.77.05ZM149.73,114.89c.97.25,1.85.58,3.02.57.6,0,1.24.02,1.8-.06.7-.1,1.39-.19,2.11-.15,1.59.1,3.1-.11,4.66-.14.65-.01,1.29-.05,1.94-.04.74.01,1.47.05,2.21,0,.38-.02.79-.05,1.16-.01.95.12,1.86.1,2.75-.02.58-.08,1.15-.04,1.72.09.21.04.42.09.63.11l2.53.28c.15.02.31.04.45.04.86,0,1.71.1,2.57.24.74.11,1.48.22,2.23.33.36.06.76.1,1.1.16.17.03.33.06.49.11.16.04.32.1.47.16.19.07.36.2.53.31l.24.18c.07.07.15.13.23.19,1.05.85,1.55,2.27,1.38,3.63-.07.53-.24,1.03-.41,1.53-.25.76-1.03,1.26-1.82,1.43-.29.07-.59.09-.89.1-.32,0-.64.01-.97.03-1.17.07-2.35.02-3.54.14-.35.03-.74,0-1.11-.03-1.02-.05-2.05-.12-3.08-.15-.88-.03-1.76,0-2.65,0-.93,0-1.83.01-2.74.15-.76.12-1.53.22-2.3.33-.15.02-.3.03-.45.04-.9.11-1.77.03-2.66.06-.65.02-1.3,0-1.92-.05-1.49-.1-2.99-.04-4.51.17-.28.04-.57.08-.85.09-.93.02-1.86.03-2.75.29-.13.04-.3.03-.45.05-1.23.12-2.47.13-3.7.29-1.28.16-2.59.2-3.88.19-.28,0-.57.02-.84,0-.92-.07-1.84,0-2.69.13-.62.1-1.2.1-1.78.06-.72-.04-1.41-.08-2.13-.01-.42.04-.89.06-1.3,0-1-.13-1.99.01-2.98-.06-.05,0-.1.05-.16.07-.92.35-2.05.4-3.08.19-.99-.21-2-.26-2.98-.45-.88-.17-1.83-.22-2.74-.35-1.15-.14-2.3-.33-3.43-.54-.34-.06-.67-.14-1-.21-.16-.04-.34-.07-.5-.11l-.45-.15c-.6-.18-1.13-.52-1.6-.9-.72-.64-1.23-1.56-1.2-2.52,0-.44.08-.91.12-1.34.14-1.09.94-2.03,1.95-2.43.38-.12.74-.27,1.14-.36.41-.1.84-.2,1.29-.3.45-.1.91-.17,1.38-.22.7-.08,1.41-.12,2.08-.3.29-.08.55-.14.86-.16l2.14-.1c.88-.05,1.76-.08,2.65-.09,1.06,0,2.12-.12,3.19-.17.48-.02.95-.06,1.43-.07.36,0,.73.05,1.09.03,1.98-.1,3.95-.23,5.94-.19,1.02.02,2.04.03,3.06.03.56,0,1.12-.06,1.68-.09.08,0,.17,0,.25,0l1.37.04c1.43.02,3.08-.27,3.74-.1ZM112.18,139.94c1.66.25,3.17.57,5.19.55,1.04-.01,2.14.01,3.09-.08,1.2-.11,2.39-.2,3.63-.17,2.73.07,5.34-.14,8.01-.21,1.11-.03,2.22-.08,3.34-.08,1.27,0,2.54.01,3.79-.06.65-.04,1.35-.08,2-.05,1.65.07,3.21.02,4.72-.15.99-.11,1.96-.1,2.97-.01.36.03.73.06,1.1.07,1.46.03,2.92.06,4.37.09.26,0,.54.02.79,0,1.48-.08,2.94-.05,4.45,0,2.58.08,5.17.08,7.76.11.4,0,.8.04,1.2.06.4.02.8.06,1.21.06l4.15.04c.68.01,1.44-.02,2.12-.08.69-.05,1.33-.1,1.97-.07.49.02.98.09,1.47.2.22.07.45.13.68.18.12.02.22.06.33.11l.32.12.24.09c.08.03.15.09.22.13l.43.29c.14.11.25.24.38.37.12.13.25.25.34.41l.29.45c.08.16.14.33.21.5l.1.25.06.26c.04.18.08.35.12.52.15,1.05-.05,2.1-.44,3.03-.35.85-.97,1.56-1.73,2.06-.17.15-.39.24-.59.34-.2.11-.41.22-.63.28l-.33.12-.35.09c-.23.06-.47.13-.71.18-.57.13-1.23.16-1.85.21-1.73.1-3.48.08-5.24.06-1.49-.02-2.99-.02-4.49-.08-.78-.03-1.56-.07-2.35-.08-.79-.01-1.58.01-2.35.07-1.31.09-2.64.16-3.96.23-.26,0-.52.02-.78.02-1.55.06-3.03-.06-4.55-.09-1.11-.02-2.21-.08-3.28-.17-2.53-.19-5.1-.24-7.73-.12-.48.02-.98.04-1.46.03-1.6-.04-3.19-.08-4.74.12-.22.03-.52.01-.78.02-2.13.06-4.26,0-6.39.12-2.22.12-4.47.12-6.7.1-.48,0-.98.02-1.45,0-1.57-.07-3.16,0-4.63.13-1.07.1-2.06.11-3.07.08-1.23-.03-2.43-.06-3.67.02-.72.05-1.53.08-2.23.04-1.72-.11-3.43.09-5.13.05-.08,0-.17.05-.27.07-1.56.38-3.5.47-5.27.29-1.71-.17-3.46-.17-5.16-.31-1.53-.12-3.18-.12-4.78-.17l-6.03-.18-3.59-.1c-1.21-.02-2.37-.1-3.62-.1-1.93.02-3.82.14-5.67-.08-.85-.09-1.82-.2-2.68-.29-1.07-.1-2.11-.33-3.02-.76-.44-.22-.85-.49-1.17-.81-.33-.32-.55-.71-.68-1.12-.19-.58-.21-1.26-.12-1.92.09-.65.34-1.22.74-1.71.4-.51,1.01-.88,1.68-1.16,1.02-.42,2.18-.62,3.28-.87.48-.11.92-.19,1.45-.22,1.2-.05,2.41-.04,3.64-.03.76,0,1.52.01,2.31,0,.76-.02,1.52-.05,2.29-.08,1.81-.05,3.65-.2,5.47-.3.82-.04,1.63-.1,2.45-.13.62-.02,1.25.02,1.86-.01,3.39-.18,6.78-.4,10.18-.42,1.74-.01,3.49-.04,5.24-.07.96-.02,1.92-.09,2.88-.13.14,0,.29,0,.43,0,.78,0,1.56,0,2.34.01,2.44,0,5.28-.31,6.4-.14Z"/>
  <path class="cls-1" d="M35.69,66.03c.85-.82,1.72-1.63,2.56-2.46,5.79-5.7,11.58-11.41,17.29-17.17,2.22-2.24,4.45-4.47,6.45-6.66,2.92-3.19,6.22-6.36,9.49-9.5,2.41-2.31,4.85-4.59,7.23-6.94l1.55-1.53c.08-.08.18-.09.3-.13.15-.04.32-.07.49-.09.34-.05.71-.08,1.07-.09,1.46-.07,2.97.03,4.49.04,3.02.03,6.04.04,9.04,0,1.76-.02,3.73.03,5.61.06l15.52.24c4.4.08,8.82.13,13.2.24,4.61.11,9.16.25,13.77.22,3.85-.03,7.77-.06,11.66-.13.76-.01,1.53-.02,2.3-.03,4.57-.09,8.92-.04,13.38-.19.94-.02,1.89-.08,2.83-.15.47-.04.94-.08,1.41-.14.24-.03.47-.06.72-.11.13-.02.3-.07.45-.11.15-.06.29-.11.43-.2.17-.16.33-.34.43-.55.06-.1.11-.21.15-.32.04-.09.07-.18.1-.27.12-.35.22-.69.3-1.03.16-.68.29-1.35.38-2.04.21-1.91.3-3.76.35-5.66.04-1.89.05-3.78-.13-5.75-.11-1.01-.37-2.11-1.03-3.09-.34-.49-.79-.9-1.28-1.22-.49-.32-1.02-.52-1.54-.68-1.04-.3-2.05-.39-3.03-.45-.98-.06-1.97-.09-2.95-.09-1.44,0-2.91.04-4.32.06-2.36.03-4.67.07-6.98.02-2.33-.03-4.64-.04-6.94.02-.66.02-1.52-.02-2.29-.02-6.25-.04-12.51-.17-18.78-.11-6.54.06-13.14.03-19.71,0-1.42,0-2.88.01-4.26-.01-4.62-.07-9.29,0-13.62.15-3.14.11-6.07.13-9.02.12-3.62-.02-7.13-.02-10.79.09-2.13.06-4.5.11-6.55.09-5.07-.06-10.07.17-15.09.19-.23,0-.5.06-.78.08-4.6.44-10.3.62-15.5.53-5.04-.08-10.17,0-15.19-.02-1.14,0-2.27,0-3.43-.03-1.16-.04-2.33-.07-3.51-.11-2.36-.08-4.76-.15-7.15-.04-.38.02-.75.04-1.13.07l-.56.05c-.2.02-.41.04-.65.1-.53.13-1.01.47-1.26.96-.26.5-.32.88-.39,1.28-.24,1.57-.19,3.06-.19,4.54v1.09s-.04,1.09-.04,1.09l-.09,2.22c-.07,1.48-.12,2.96-.16,4.44C.06,24,.01,31.06.01,38.11c0,5.6.08,11.21,0,16.77-.04,2.6-.02,5.55.06,8.17.21,6.59.3,13.05.24,19.54-.04,4.66-.02,9.37.05,14.12.03,2.4.05,4.82.06,7.23.01,3.61,0,7.28.15,10.74.06,1.49.11,2.85.12,4.43,0,3.61.02,7.23.03,10.85.01,4.48.03,8.93.04,13.4,0,5.33.1,10.75.15,16.13.02,2.4.05,4.81.07,7.21,0,1.83-.04,3.67-.02,5.48.11,9.99.28,19.96.28,29.98,0,5.1-.15,10.25-.1,15.41.02,1.42.06,2.84.13,4.26.04.71.08,1.42.13,2.13l.08,1.06c.02.32.02.66.03,1.01,0,.41-.01.85,0,1.31.02.61.09,1.28.34,1.94.24.66.68,1.28,1.23,1.72.29.2.59.43.89.55l.45.21c.15.06.3.11.44.16l.45.15.44.12c.3.08.59.15.89.2,1.21.24,2.31.35,3.33.41,1.01.06,1.94.06,2.77.03,1.67-.06,3-.25,4.03-.49.26-.06.5-.12.72-.19.11-.04.22-.07.32-.1.13-.04.21-.09.3-.14.35-.19.62-.37.82-.54.02-.02.03-.03.05-.05.34-.14.63-.28.71-.36.11-.12.21-.34.3-.61.06-.1.12-.19.16-.23.21-.2.44-.54.64-1.31.17-.72.36-1.8.5-3.47.41-4.91.5-9.4.39-15.3-.05-3.01.05-6.25-.02-9.07-.08-3.54-.14-7.02-.09-10.67.12-8.03-.09-15.71-.18-23.56-.04-3.27-.08-6.53-.12-9.81-.02-3.73-.03-7.46-.13-11.15-.05-1.92-.11-3.97-.1-5.87.03-4.86-.06-9.45-.28-13.87-.14-2.89-.16-5.77-.11-8.72.02-1.05.04-2.14.03-3.22-.02-4.28-.04-8.57-.07-12.86,0-.78-.01-1.58-.05-2.32-.23-4.36-.59-8.65-.46-13.04.02-.46.03-.96.07-1.38.04-.44.13-.87.24-1.3.24-.86.6-1.69,1.04-2.49.22-.4.46-.79.71-1.18l.39-.57c.05-.08.26-.27.42-.44l2.03-2c2.71-2.67,5.42-5.35,8.12-8.02.84-.83,1.7-1.63,2.55-2.44Z"/>
  <path class="cls-1" d="M83.42,49.35c-.03-2.11-.15-4.21-.13-6.34,0-1.09-.01-2.17-.05-3.25-.02-.6-.1-1.2-.16-1.8,0-.09-.01-.18-.01-.27-.02-.49-.03-.99-.09-1.51-.07-.54-.22-1.04-.52-1.45-.29-.42-.8-.66-1.14-.61-.34.03-.52.21-.61.38,0,.01,0,.02-.01.04-.05,0-.1,0-.16.02-.04,0-.08.03-.13.05-.03-.01-.06-.03-.09-.05-.23-.23-.6-.29-1.28,0-1.01.45-1.94.84-2.88,1.67-.48.43-1.02.86-1.4,1.33-.48.58-.98,1.13-1.57,1.63-1.31,1.09-2.34,2.36-3.49,3.56-.48.5-.94,1.01-1.43,1.5-.56.56-1.13,1.09-1.63,1.69-.26.31-.54.65-.84.91-.78.67-1.42,1.4-1.95,2.18-.35.51-.78.94-1.28,1.32-.18.14-.36.28-.52.44l-1.95,1.88c-.12.11-.24.22-.34.35-.58.71-1.23,1.35-1.9,1.99-1.16,1.1-2.27,2.26-3.4,3.4-.18.18-.37.33-.56.49-.19.17-.38.32-.56.5-1.21,1.21-2.41,2.43-3.54,3.71-.44.5-.89.99-1.22,1.53-.48.8-1.21,1.44-1.93,2.06-.53.46-1.09.9-1.59,1.4-.89.9-1.82,1.79-2.59,2.81-.22.3-.54.58-.81.86-.76.79-1.52,1.57-2.26,2.38-.63.69-1.21,1.42-1.83,2.11-.65.72-1.31,1.44-1.84,2.27-.22.34-.45.69-.67,1.04-.11.17-.23.35-.34.54-.11.19-.24.44-.33.65-.07.17-.17.35-.2.53-.05.13-.02.26,0,.4l.08.19c.03.06.08.11.11.17.17.21.38.38.64.51.23.13.54.25.78.33.24.08.47.14.71.19.69.13,1.38.26,2.05.39,1.57.32,3.2.4,4.84.28.3-.02.61-.04.91-.04,1,.03,1.99.05,2.94-.18.14-.03.32-.02.48-.03,1.31-.09,2.63-.07,3.93-.2,1.36-.13,2.75-.11,4.13-.08.3,0,.61,0,.9.01.97.08,1.96.03,2.87-.1.66-.09,1.28-.09,1.9-.06.76.04,1.5.07,2.27,0,.45-.04.95-.07,1.38-.03,1.07.11,2.12-.07,3.18-.05.05,0,.1-.05.16-.08.96-.39,2.16-.52,3.26-.39,1.07.12,2.15.07,3.21.13.48.03.97.02,1.47,0,.52-.02.94-.04,1.43-.01.6.03,1.22.1,1.89.11.66,0,1.43-.03,2.17-.5.43-.3.74-.73.92-1.17.08-.22.14-.44.19-.65.03-.21.06-.42.08-.63.05-.78.04-1.54.02-2.29-.04-1.2-.16-2.38-.09-3.55.03-.55.03-1.17-.04-1.71-.09-.68-.13-1.35-.11-2.02.02-.68.06-1.36.14-2.04.11-.98.14-1.97.13-2.97,0-.5,0-1.01.03-1.52.03-.76.09-1.53-.01-2.26-.04-.31-.08-.6-.06-.93.04-.76.09-1.52.11-2.28.03-.94.07-1.88.12-2.82.07-1.12.02-2.27.02-3.4,0-.51-.02-1.02,0-1.52,0-.39.07-.77.07-1.16Z"/>
</svg>