<?xml version="1.0" encoding="UTF-8"?>
<svg id="Layer_11" data-name="Layer 11" xmlns="http://www.w3.org/2000/svg" viewBox="0 0 232.91 216.01">
  <defs>
    <style>
      .cls-1 {
        fill: #1c5c7d;
      }
    </style>
  </defs>
  <path class="cls-1" d="M158.74,182.59c-.31-2.09-1.04-4-1.91-5.71-.87-1.72-1.89-3.25-2.92-4.65-.75-1.01-1.41-2.01-2.01-3.01-.6-1.01-1.1-1.98-1.61-3.05-1.24-2.58-2.48-5.08-4.09-7.5-.94-1.41-1.93-3.01-2.62-4.49-.85-1.83-1.92-3.54-3.04-5.21-.58-.84-1.15-1.66-1.75-2.5l-.45-.63-.47-.63-.47-.64-.52-.66c-.14-.17-.38-.23-.66-.4-.26-.16-.52-.32-.79-.48-.24-.11-.49-.22-.74-.32-.25-.11-.49-.23-.74-.34-.25-.1-.51-.2-.77-.3-.5-.23-1.04-.38-1.56-.57-.26-.1-.54-.15-.81-.24-.27-.07-.53-.17-.81-.22-1.1-.26-2.22-.4-3.34-.48-1.12-.03-2.24-.03-3.33.06-2.13.15-4.17.84-6.09,1.63-1.92.81-3.73,1.77-5.54,2.64-3.25,1.57-6.38,3.73-9.55,5.1-.25.1-.5.22-.75.31l-.49.18c-.29.09-.58.19-.87.26l-.22.06c-.06-.04-.11-.1-.17-.15l-.33-.32-.8-.77c-.84-.78-1.64-1.61-2.44-2.43-.81-.82-1.62-1.63-2.4-2.48-3.76-3.98-7.37-8.12-10.71-12.49-2.62-3.48-5.25-7-7.22-10.88-.47-.9-.96-1.87-1.51-2.8-.55-.93-1.13-1.84-1.71-2.69-2.96-4.21-5.32-8.69-7.19-13.39-.7-1.68-1.36-3.37-2.13-5.04-.72-1.67-1.5-3.36-2.26-5.01-.77-1.69-1.47-3.46-2.13-5.21-.99-2.65-1.9-5.36-3.14-7.77-.53-1.04-1.01-1.99-1.37-3.16-.4-1.33-.78-2.68-1.08-3.97-.08-.32-.14-.63-.2-.94l-.05-.32-.02-.23c-.04-.31.05-.63.22-.89.1-.16.23-.31.37-.44.05-.05.2-.18.32-.28.13-.11.26-.21.41-.32.58-.43,1.26-.84,1.98-1.24,1.43-.8,3-1.55,4.6-2.31,3.81-1.83,7.73-4.09,11.2-7.25,1.54-1.42,2.94-3.1,4.07-5.02.85-1.45,1.68-3.03,1.99-4.73.22-1.2.3-2.42.25-3.62-.02-.6-.08-1.19-.15-1.77l-.14-.87-.19-.92c-.08-.28-.16-.56-.26-.82l-.15-.35c-.05-.11-.09-.21-.13-.3-.17-.38-.35-.73-.52-1.07-.35-.69-.7-1.34-1.06-2l-2.15-3.88c-1.43-2.57-2.86-5.14-4.24-7.74-1.9-3.58-3.88-7.14-5.95-10.65-1.14-1.93-2.43-3.77-3.69-5.65-.19-.28-.36-.58-.53-.87-.48-.8-.93-1.58-1.54-2.46-.42-.57-.75-.93-1.14-1.33-.38-.39-.77-.75-1.17-1.09-1.66-1.38-3.29-2.16-4.73-2.57-1.44-.41-2.71-.42-3.68-.2-.48.1-4.24.36-4.98.21-.73-.15-1.78-.1-3.17.29-1.03.29-2,.59-2.93.88-.88.26-1.88.59-2.83.95-1.91.72-3.79,1.62-5.79,2.91-2.04,1.33-4.24,2.67-5.95,4.15-2.15,1.86-4.28,3.64-6.73,5.22-2.69,1.75-5.17,3.67-7.59,5.82-.61.57-1.2,1.08-1.83,1.74l-.46.47s-.07.07-.13.13l-.17.19-.32.38c-.18.24-.36.49-.51.74-.14.24-.29.48-.41.71-.49.93-.81,1.81-1.08,2.67-.27.86-.47,1.69-.66,2.52-.6,2.76-.83,5.43-1.08,8.09-.27,3.04-.48,6.03-.17,9.12.21,1.55.45,3.19.46,4.73.04.98.12,1.94.22,2.89.11.95.19,1.89.39,2.79.19.91.39,1.81.63,2.69.23.88.47,1.75.8,2.58.41,1.1.71,2.21.94,3.34.11.57.21,1.14.32,1.71.1.57.18,1.15.26,1.74.1.84.22,1.7.39,2.55.39,1.66.81,3.31,1.22,4.97.42,1.65.92,3.29,1.38,4.93.17.59.31,1.22.55,1.76.68,1.6,1.28,3.21,1.84,4.84.59,1.62,1.16,3.26,1.71,4.94,1.98,5.69,4.33,11.28,6.8,16.78.37.86.68,1.74,1.02,2.61.35.87.66,1.77,1.06,2.62.67,1.47,1.39,2.92,2.1,4.36.72,1.45,1.42,2.9,2.2,4.32.76,1.42,1.52,2.85,2.31,4.26.81,1.4,1.63,2.78,2.46,4.16.64,1.08,1.31,2.14,2,3.16.69,1.02,1.42,2,2.21,2.89,2.36,2.57,4.04,5.79,5.8,8.92,1.26,2.33,2.52,4.68,3.98,6.89,1.34,1.98,2.71,3.96,4.1,5.91,1.45,1.91,2.91,3.82,4.55,5.55.96,1.02,1.84,2.32,2.74,3.5l3.82,4.83c1.31,1.58,2.63,3.16,3.97,4.72,1.17,1.3,2.37,2.58,3.56,3.86,1.21,1.26,2.45,2.5,3.63,3.79,1.25,1.34,2.53,2.64,3.81,3.93,1.3,1.28,2.69,2.47,4.13,3.61,1.22.93,2.46,1.86,3.7,2.8.61.48,1.24.93,1.88,1.37l1.9,1.34c.49.34.96.75,1.47,1.08.76.5,1.48,1.03,2.19,1.57.7.55,1.4,1.09,2.1,1.63,1.4,1.08,2.79,2.15,4.27,3.15,2.17,1.45,4.32,2.92,6.49,4.3,1.29.82,2.64,1.57,4.08,2.23,1.43.66,2.95,1.23,4.61,1.62.83.2,1.69.34,2.6.4.9.07,1.86.06,2.87-.11l.37-.06.42-.12c.28-.09.57-.18.84-.27l1.13-.47c.74-.32,1.42-.66,2.14-1,1.01-.51,2.07-1.02,3.1-1.45,3.47-1.39,6.89-2.78,9.91-4.9.43-.3,1.08-.54,1.62-.82,4.41-2.25,8.95-4.2,13.26-6.75l1.7-1.01.87-.53.45-.27.52-.35c.16-.12.36-.24.5-.35l.41-.34c.27-.23.55-.44.81-.7l.79-.74.76-.8c.99-1.1,1.89-2.36,2.56-3.79.67-1.42,1.09-3,1.19-4.58.1-1.36-.1-2.73-.28-3.97Z"/>
  <g>
    <path class="cls-1" d="M232.89,57.02l-.02-.42-.02-.55c0-.27,0-.54-.04-.8l-.03-.39c-.02-.13-.06-.25-.08-.37-.22-1-.8-1.87-1.55-2.52-.76-.64-1.72-1.03-2.71-1.09-1-.07-1.99.19-2.88.76-1.99,1.34-3.99,2.68-5.98,4.02-.33.22-.71.47-1.03.63-2.25,1.13-4.5,2.55-6.8,4.07-2.93,1.76-7.07,5.28-8.44,6.82-1.14,1.28-1.17,1.45-1.25,1.41-.04-.02-.19-.05-.19-.05-.03,0-.09.02-.14.03-.2.05-.43.13-.68.23-.23.1-.42.21-.64.35-1.52,1-3.06,1.69-4.5,2.84-.48.39-1.22.78-1.84,1.17-2.32,1.45-4.57,3.01-6.88,4.49-1.57,1.01-3.21,2.07-4.8,3.13-1.53,1.02-3.13,1.97-4.63,3.01-2.47,1.72-4.93,3.46-7.47,5.06-.76.47-1.54.92-2.26,1.42-2.68,1.86-5.34,3.72-8.02,5.58-3.25,2.24-6.43,4.65-9.92,6.47-.29.15-.65.46-.99.69-.68.46-1.29.9-1.86,1.2-.58.31-1.09.48-1.55.47-.46,0-1.01-.16-1.61-.49-.59-.32-1.24-.79-1.93-1.28-2.54-1.84-5.23-3.6-7.86-5.4-.88-.6-1.83-1.18-2.63-1.79-2.28-1.74-4.71-3.17-7.09-4.71-2.95-1.9-6.09-3.49-8.85-5.81-.1-.08-.27-.17-.41-.26l-5.11-3.37c-2.19-1.44-4.29-2.9-6.4-4.46-2.49-1.85-5.16-3.67-7.82-5.41-1.22-.8-2.47-1.55-3.73-2.3l-.96-.56-.48-.28c-.16-.09-.4-.22-.59-.32l-.31-.16c-.07-.04-.06-.04-.09-.05l-.04-.02-.1-.06-.23-.15-.92-.59c-1.84-1.2-3.67-2.44-5.49-3.69-1.41-.5-2.87-.66-4.35-.23-2.25.66-4.23,2.27-6.23,3.45-.48.28-.94.59-1.39.9-1.33,1.15-2.4,2.4-2.97,3.94-.08,2.31.64,4.56,1.23,6.78.46,1.75,1.03,3.41,1.69,5.07,1.18,2.16,2.43,4.27,3.47,6.54,1.32,2.87,2.11,5.97,3.56,8.78,1.69,3.28,4.02,6.12,6,9.22,1.84,2.89,3.14,6.08,4.91,9.01.12.21.19.41.22.61,2.74,4.21,5.88,8.2,9.05,12.06,2.23,2.72,4.77,6.92,8.03,8.54,1.45-.08,3.62-1.74,4.69-2.18,1.62-.66,3.24-1.32,4.87-1.93,3.62-1.37,7.28-2.64,10.9-4.01,5.95-2.24,13.05-.74,17.86,3.3,1.39,1.17,2.61,2.54,3.73,4.01,1.22,1.4,2.37,2.87,3.5,4.23,2.01,2.43,3.71,5.04,4.8,8.01,1.61,4.4,3.32,8.73,6.9,11.04.51.24,1.03.44,1.57.61,2.54.09,5.01.03,7.52.02,4.16-.01,8.34-.07,12.48.17.92.05,1.91.02,2.85.05,1.29.04,2.69.04,3.81.18,1.03.13,1.97.16,3.03.18,3.29.06,6.55.07,9.69-.22.29-.03.64-.01.96-.01,2.94-.02,5.87-.06,8.78-.13,1.46-.04,2.91-.09,4.36-.13.72-.03,1.45-.06,2.17-.08l1.06-.05c.13,0,.47-.04.72-.07.13-.02.27-.03.39-.06l.35-.1c.17-.05.35-.1.53-.15.16-.06.33-.13.49-.19.34-.12.64-.28.94-.43.21-.1.4-.22.59-.33.19-.12.38-.23.56-.35.35-.26.71-.5,1.04-.78.68-.53,1.27-1.13,1.86-1.75.56-.64,1.11-1.3,1.57-2.07.46-.78.9-1.58,1.12-2.71.04-.28.06-.57.08-.85v-.55c0-.36,0-.72.01-1.09.02-.73.04-1.46.06-2.18.03-1.2.15-2.39.15-3.59,0-2.56,0-5.12,0-7.68.04-2.86.08-5.71.12-8.57,0-.48,0-.97,0-1.46-.04-3.18-.12-6.42.15-9.45.13-1.46.11-2.81.11-4.22,0-.48-.06-.95-.07-1.44-.05-2.6-.16-5.23-.12-7.81.07-4.26.11-8.48-.02-12.74-.07-2.18-.13-4.51,0-6.6.17-2.82.17-5.62.21-8.44.02-1.94.03-3.89.05-5.83.07-3.75.13-7.5.2-11.26,0-.49,0-.99-.01-1.47Z"/>
    <path class="cls-1" d="M226.03,31.63c-.38-.55-.9-.93-1.4-1.1-.17-.06-.33-.13-.54-.18-.2-.06-.38-.13-.62-.17l-.34-.07c-.12-.02-.26-.02-.39-.03-.25-.03-.54-.02-.81-.03l-4.69-.08c-1.01,0-2.02.08-3.02.07-1.51,0-3.02-.06-4.53-.1-2.61-.07-5.23.01-7.79-.32-1.42-.19-2.98-.26-4.47-.25-1.9.02-3.81.16-5.69.29-2.64.18-5.24.48-7.95.42-.24,0-.49.05-.74.06-2.21.06-4.43.14-6.65.15-1.56.01-3.13-.08-4.7-.09-.74,0-1.48.08-2.22.13-.45.03-.9.07-1.35.08-1.2,0-2.41.01-3.61.02-.35,0-.72.02-1.06,0-2.49-.19-4.97-.16-7.45.02-.24.02-.53.06-.73.02-1.51-.27-3,0-4.47.04-.58.01-1.14.07-1.72,0-1.62-.19-3.22-.33-4.87,0-.55.11-1.27.1-1.91.1l-11.24-.02c-.75,0-1.55.01-2.25.12-1.3.19-2.47.11-3.68-.1-.4-.07-.89-.13-1.3-.1-.95.08-1.62-.08-2.37-.28-1.52-.41-3.13-.76-5.09-.57-.43.04-.91.03-1.36.01-2.65-.12-5.28-.11-7.93,0-2.34.1-4.72.08-7.08.12-1.26.03-2.52.07-3.79.1-.96.02-1.94.08-2.89.07-1.44.48-2.65,1.28-3.16,2.6-1.14,2.94.54,6.81.52,9.91-.03,3.42-.83,7.02.39,10.32.07.19.15.37.23.56.4.45.75.96,1.1,1.47,1.38.94,2.75,1.89,3.91,3,.66.63,1.35,1.09,2.07,1.59.24.17.52.29.77.45,1.35.88,2.74,1.72,4.02,2.68,2.12,1.57,4.23,3.11,6.46,4.51,1.14.72,2.36,1.5,3.34,2.34,1.33,1.14,2.75,2.13,4.16,3.16.97.7,1.95,1.4,2.93,2.11,1.87,1.38,3.73,2.76,5.6,4.15.24.18.5.36.75.51,2.4,1.42,4.69,3.08,7.03,4.63.21.14.43.3.59.46,1.1,1.13,2.41,2.11,3.81,3.09,1.65,1.33,4.76,2.7,6.07,2.97.27.06.51.08.71.08.11,0,.17-.02.3,0,.12.01.87.25,1.16.27.29.02.62-.1.75-.14.24-.03.51-.14.75-.32.88-.66,1.89-1.03,2.71-1.82.28-.27.74-.5,1.12-.74,1.42-.91,2.78-1.92,4.21-2.84.97-.63,1.97-1.3,2.94-1.97.94-.64,1.93-1.22,2.84-1.89,1.5-1.1,2.98-2.22,4.56-3.21.47-.29.96-.56,1.39-.89,1.61-1.21,3.22-2.42,4.83-3.64,1.96-1.45,3.84-3.07,6.05-4.12.19-.09.39-.3.59-.45,1.63-1.18,3.15-2.46,4.91-3.53,1.66-1.01,3.28-2.17,4.91-3.27.55-.37,1.08-.8,1.63-1.1,1.56-.86,2.89-1.99,4.31-3.02,1.77-1.27,3.27-2.89,5.3-3.88.07-.04.15-.12.24-.18l.76-.56.19-.14s.03-.02.09-.07l.4-.26c.14-.09.29-.19.45-.3.14-.1.38-.28.56-.44.1-.08.18-.18.27-.28l.06-.07h0s.19-.14.19-.14c1.31-.95,2.63-1.82,4.03-2.64,1.66-.97,3.31-2.09,4.91-3.22,1.47-1.04,2.83-2.22,4.28-3.27,1.55-1.11,3.15-2.16,4.74-3.22l1.39-.94,2.24-1.55c.71-.5,1.09-1.05,1.4-1.52.14-.24.26-.46.35-.74.08-.28.15-.59.14-.92,0-.65-.2-1.34-.58-1.88Z"/>
    <path class="cls-1" d="M202.22,50.91h0c-.05-.07-.11-.15,0,0Z"/>
  </g>
</svg>