<?xml version="1.0" encoding="UTF-8"?>
<svg id="Layer_11" data-name="Layer 11" xmlns="http://www.w3.org/2000/svg" viewBox="0 0 172.51 217.71">
  <defs>
    <style>
      .cls-1 {
        fill: #737438;
      }
    </style>
  </defs>
  <path class="cls-1" d="M18.91,64.58c-.13.14-.31.29-.35.36l-.32.47c-.21.32-.4.64-.59.97-.36.66-.66,1.35-.86,2.05-.09.35-.16.71-.2,1.07-.03.35-.04.76-.05,1.14-.1,3.61.19,7.14.38,10.73.03.61.04,1.27.04,1.91.02,3.53.04,7.05.06,10.58,0,.89-.01,1.79-.03,2.65-.04,2.43-.03,4.8.09,7.18.18,3.64.26,7.42.23,11.41-.01,1.56.04,3.25.08,4.83.08,3.03.09,6.1.1,9.17.03,2.7.06,5.38.1,8.07.07,6.45.24,12.77.14,19.38-.04,3,0,5.86.07,8.78.06,2.32-.02,4.99.02,7.46.09,4.85.01,8.55-.32,12.59-.11,1.37-.27,2.26-.41,2.85-.16.63-.35.91-.52,1.07-.03.03-.08.11-.13.19-.07.21-.15.4-.24.5-.07.07-.3.18-.58.3-.02.01-.03.03-.04.04-.17.14-.39.29-.68.45-.08.04-.15.08-.25.11-.08.03-.17.06-.26.09-.18.06-.38.11-.59.16-.85.2-1.94.35-3.32.4-.69.02-1.45.03-2.28-.02-.83-.04-1.74-.14-2.74-.33-.24-.04-.49-.1-.73-.17l-.36-.1-.37-.13c-.12-.04-.24-.08-.37-.13l-.37-.17c-.24-.1-.49-.29-.73-.45-.45-.36-.81-.88-1.01-1.42-.21-.54-.27-1.09-.28-1.59-.01-.37,0-.74,0-1.07,0-.29,0-.57-.02-.83l-.06-.87c-.04-.58-.07-1.17-.11-1.75-.06-1.17-.09-2.34-.11-3.5-.05-4.25.09-8.48.08-12.68,0-8.25-.14-16.45-.23-24.67-.02-1.49.03-3,.02-4.51-.02-1.97-.04-3.96-.06-5.93-.05-4.43-.13-8.88-.13-13.27-.01-3.68-.02-7.34-.03-11.03,0-2.98-.02-5.95-.02-8.92,0-1.3-.05-2.42-.1-3.64-.12-2.85-.11-5.86-.12-8.83,0-1.98-.02-3.98-.05-5.95-.06-3.91-.07-7.78-.04-11.62.04-5.34-.03-10.65-.2-16.07-.07-2.15-.08-4.58-.05-6.72.06-4.57,0-9.18,0-13.79,0-5.8.04-11.61.22-17.41.03-1.22.08-2.44.13-3.65l.08-1.83.03-.9v-.9c0-1.22-.03-2.44.16-3.74.06-.33.11-.65.32-1.06.21-.4.6-.69,1.04-.79.2-.05.37-.07.54-.09l.46-.04c.31-.03.62-.05.93-.06,1.96-.09,3.94-.03,5.88.03.97.03,1.93.06,2.88.09.95.02,1.88.02,2.82.02,4.13.03,8.35-.05,12.5.02,4.28.07,8.97-.08,12.75-.44.23-.02.45-.07.64-.07,4.13-.02,8.24-.21,12.41-.16,1.69.02,3.64-.02,5.39-.07,3.01-.09,5.9-.09,8.88-.07,2.43,0,4.83,0,7.42-.1,3.56-.13,7.41-.18,11.2-.12,1.13.02,2.34,0,3.51.01,5.41.02,10.83.05,16.22,0,5.16-.05,10.3.06,15.45.09.63,0,1.34.03,1.89.01,1.89-.05,3.79-.05,5.71-.02,1.9.04,3.8,0,5.74-.02,1.16-.01,2.37-.05,3.55-.05.81,0,1.61.02,2.42.07.81.05,1.64.13,2.5.37.42.13.86.29,1.27.56.4.26.78.6,1.05,1,.55.81.76,1.71.85,2.54.15,1.62.14,3.17.11,4.73-.04,1.56-.11,3.08-.29,4.66-.08.56-.18,1.11-.31,1.68-.07.28-.15.56-.25.85-.03.07-.05.14-.08.22-.04.09-.08.18-.13.27-.09.18-.21.33-.35.45-.11.07-.23.11-.35.16-.12.03-.27.07-.37.09-.2.04-.4.07-.59.09-.39.05-.78.08-1.16.12-.77.06-1.55.11-2.33.12-3.67.13-7.25.08-11.01.16-.63,0-1.27.02-1.89.03-3.2.06-6.42.08-9.59.11-3.79.03-7.54-.08-11.32-.18-3.61-.09-7.24-.13-10.86-.2l-12.77-.2c-1.54-.02-3.16-.07-4.61-.05-2.46.03-4.95.02-7.43,0-1.25,0-2.49-.09-3.7-.03-.3.01-.6.03-.88.08-.14.02-.28.05-.4.08-.1.03-.18.04-.25.11l-1.27,1.26c-1.96,1.94-3.96,3.81-5.95,5.71-2.69,2.58-5.41,5.19-7.81,7.81-1.64,1.8-3.48,3.63-5.31,5.48-4.7,4.74-9.46,9.43-14.23,14.12-.7.69-1.4,1.35-2.11,2.02-.7.67-1.4,1.33-2.09,2.01-2.23,2.2-4.45,4.4-6.68,6.6l-1.67,1.65Z"/>
  <path class="cls-1" d="M68.57,42.8c0,.93.03,1.87-.02,2.8-.05.78-.08,1.55-.1,2.32-.02.63-.05,1.25-.09,1.88-.01.27.02.51.05.77.08.6.03,1.23,0,1.86-.02.42-.03.84-.02,1.25.01.82-.02,1.64-.11,2.44-.06.56-.1,1.12-.12,1.68-.01.55.02,1.1.09,1.66.06.44.06.95.04,1.4-.06.97.04,1.94.07,2.92.02.62.02,1.25-.02,1.89-.02.17-.04.35-.07.52-.04.18-.09.36-.15.54-.15.36-.4.72-.76.96-.61.38-1.25.41-1.79.41-.55,0-1.06-.06-1.56-.09-.4-.02-.75-.01-1.18,0-.41.01-.82.02-1.21,0-.87-.05-1.76,0-2.64-.11-.91-.1-1.89,0-2.68.32-.05.02-.09.06-.13.06-.87-.02-1.74.13-2.62.04-.36-.04-.77-.01-1.14.02-.63.06-1.24.04-1.87,0-.51-.03-1.02-.03-1.56.05-.75.11-1.56.15-2.36.08-.24-.02-.49,0-.74-.01-1.14-.02-2.28-.04-3.4.07-1.07.1-2.16.09-3.24.16-.13,0-.28,0-.4.03-.79.19-1.6.17-2.42.15-.24,0-.5.01-.75.03-1.35.1-2.69.03-3.98-.23-.55-.1-1.12-.21-1.69-.32-.2-.04-.39-.09-.59-.16-.2-.06-.45-.16-.64-.27-.21-.1-.38-.25-.52-.42-.03-.05-.07-.09-.09-.14l-.06-.16c-.01-.11-.04-.23,0-.33.03-.14.11-.29.16-.44.07-.18.18-.39.27-.54.09-.16.19-.3.28-.44.19-.29.37-.57.55-.85.44-.68.98-1.27,1.51-1.86.51-.57.99-1.17,1.51-1.74.6-.67,1.23-1.31,1.86-1.96.22-.23.48-.46.67-.71.63-.83,1.39-1.57,2.13-2.31.41-.41.87-.77,1.31-1.15.59-.52,1.19-1.04,1.59-1.7.27-.45.64-.85,1-1.26.93-1.05,1.92-2.06,2.91-3.05.15-.15.31-.27.46-.41.15-.14.31-.26.46-.41.93-.93,1.84-1.89,2.79-2.8.56-.53,1.09-1.05,1.57-1.64.08-.1.19-.19.28-.28l1.6-1.55c.14-.13.28-.25.43-.36.41-.32.76-.66,1.05-1.09.44-.65.97-1.25,1.61-1.8.25-.22.48-.49.69-.75.41-.49.89-.94,1.34-1.39.4-.4.79-.82,1.18-1.23.94-.98,1.79-2.03,2.87-2.93.48-.41.89-.86,1.29-1.34.32-.38.75-.74,1.15-1.09.77-.69,1.53-1.01,2.37-1.38.56-.25.87-.19,1.06,0,.02.02.04.03.07.04.04-.02.08-.03.11-.04.05,0,.09,0,.13-.01,0,0,0-.02.01-.03.08-.13.22-.28.5-.31.28-.04.7.16.94.51.25.33.37.75.42,1.19.05.43.06.83.07,1.24,0,.07,0,.15.01.22.05.5.11.99.13,1.48.03.89.04,1.78.04,2.68-.02,1.75.08,3.48.1,5.21,0,.31-.05.63-.06.95-.01.42,0,.83,0,1.25Z"/>
  <path class="cls-1" d="M172.48,185.47c-.13-5.64-.15-11.16-.08-16.72.05-3.99.03-8.02-.02-12.09-.03-2.05-.04-4.13-.05-6.19-.01-3.09,0-6.23-.12-9.19-.05-1.27-.09-2.44-.1-3.79,0-3.09-.02-6.19-.02-9.28-.01-3.83-.02-7.64-.03-11.47,0-4.56-.08-9.2-.13-13.8-.02-2.06-.04-4.12-.06-6.17,0-1.57.04-3.13.03-4.68-.06-8.54-.08-17.07-.02-25.65.03-4.38.04-8.79,0-13.19-.03-2.42-.1-4.84-.17-7.26,0-.36-.01-.72-.02-1.08-.04-1.97-.06-3.93-.12-5.9-.08-2.71-.23-4.83-.4-6.45-.17-1.62-.38-2.77-.65-3.49-.09-.23-.2-.39-.3-.52-.1-.26-.22-.52-.31-.61-.12-.12-.29-.23-.49-.32-.07-.06-.14-.11-.17-.15-.29-.38-1.17-.93-4.03-1.25-2.11-.24-4.14-.31-6.23-.4-2.11-.09-4.33-.15-6.87-.14-2.61.01-5.38,0-7.78.07-3.03.1-6.01.18-9.13.16-6.87-.04-13.44.16-20.15.24-2.8.03-5.59.07-8.39.1-3.19.02-6.38.02-9.54.1-1.64.04-3.4.08-5.02.07-2.08-.02-4.1-.01-6.07.02-1.97.03-3.9.06-5.8.15-.77.04-1.54.07-2.31.11l-1.15.06c-.12.01-.25,0-.37.04-.11.05-.23.11-.33.17-.2.13-.38.28-.53.48-.17.27-.26.55-.3.79-.06.25-.08.5-.11.74-.05.49-.07.98-.09,1.46-.03.91-.02,1.85,0,2.77,0,.46.02.9,0,1.35l-.05,1.38-.08,2.75-.11,5.5c-.01.66-.03,1.35-.03,1.98.03,3.72-.03,7.4-.15,11.19-.18,3.25.08,6.53-.26,9.7-.17,1.58-.49,3.15-1.18,4.53-.35.68-.79,1.31-1.34,1.82-.55.51-1.19.9-1.9,1.16-.21.09-.45.14-.67.21-.23.06-.46.09-.69.14-.23.03-.47.05-.71.08l-.74.04-1.5.07c-.5.01-1,.03-1.51.04-6.9.21-13.84-.38-20.8-.54-2.71-.07-5.42-.08-7.96.13-.93.06-1.86.16-2.82.23-.07.01-.15,0-.22.03-.07.03-.14.06-.18.07-.09.03-.2.05-.31.07-.22.04-.44.05-.68.07-.46.02-.94.01-1.42,0-.48,0-.97-.02-1.46,0-.5.02-1,.04-1.53.22-.29.1-.57.28-.72.55-.17.28-.24.57-.27.83-.07.54-.02,1.05.03,1.54l.13,1.06c.02.17.03.34.03.5v.53s0,2.14,0,2.14c0,1.43,0,2.86,0,4.29.04,5.16.01,10.36.13,15.48.04,1.51.01,3.19,0,4.8,0,4.43-.02,8.86.02,13.28.04,3.77.07,7.55.11,11.3.01,3.94,0,7.84.11,11.77.07,3.29.15,6.64.22,9.97,0,.65.02,1.31.03,1.96.07,3.91-.02,7.62-.04,11.44,0,2.78-.05,5.56-.11,8.24-.14,6.36-.15,12.82-.03,19.45.02,1.21.04,2.47.04,3.67,0,1,0,2.01-.01,3.01,0,.99-.03,1.98-.06,2.97-.05,1.98-.1,3.97,0,5.96.02.57.03,1.32.06,1.99.02.34.04.68.07,1.02.03.32.06.72.16,1.1.1.38.25.76.5,1.11.23.35.57.67.92.87.35.21.7.35,1.05.46.35.12.69.2,1.04.28.69.15,1.37.24,2.05.31,2.72.27,5.42.24,8.11.17,1.4-.04,2.81-.1,4.18-.09,1.4.02,2.81.04,4.22.05,2.81.04,5.63.09,8.44.13,1.22.02,2.47.01,3.65.04,3.95.1,7.95.07,11.66-.02,2.69-.08,5.19-.07,7.72-.05,3.1.03,6.1.04,9.23-.04,1.82-.04,3.85-.08,5.61-.05,4.34.06,8.62-.12,12.91-.13.2,0,.43-.05.67-.07,3.93-.35,8.81-.5,13.26-.42,4.31.07,8.7,0,13,.03,3.87.03,8-.05,12.02-.09,2.53-.02,5.06-.05,7.59-.07,2.53,0,5.06.02,7.59.03,1.51,0,3.02,0,4.53-.02.76-.01,1.51-.03,2.27-.05l1.13-.04c.15-.01.48,0,.74-.05.24-.1.45-.3.62-.51.18-.23.29-.44.38-.65.08-.21.14-.43.18-.64.08-.44.09-.78.13-1.17.08-.76.13-1.51.18-2.27.1-1.51.16-3.03.19-4.54.11-4.81-.04-9.61.06-14.35.04-2.22.05-4.74,0-6.98ZM105.68,98.2c.09-.9.62-1.67,1.28-2,.25-.1.48-.22.75-.3.27-.08.56-.16.85-.24.29-.08.6-.14.9-.18.46-.07.93-.1,1.37-.25.19-.06.36-.12.57-.13l1.4-.08c.58-.04,1.16-.06,1.74-.07.69,0,1.4-.1,2.1-.14.31-.02.63-.05.94-.05.24,0,.48.04.71.03,1.3-.08,2.6-.19,3.91-.15.67.02,1.34.03,2.01.02.37,0,.74-.05,1.1-.07.05,0,.11,0,.17,0l.9.03c.94.01,2.03-.22,2.46-.08.64.21,1.22.48,1.99.47.4,0,.82.02,1.18-.05.46-.09.91-.15,1.39-.12,1.04.08,2.04-.09,3.06-.12.43-.01.85-.04,1.28-.03.49.01.97.04,1.45,0,.25-.02.52-.04.76,0,.63.1,1.23.08,1.81-.02.38-.07.75-.03,1.13.07.14.04.27.07.42.09l1.66.23c.1.01.2.04.3.04.57,0,1.12.08,1.69.2.49.09.98.18,1.47.27.24.05.5.08.72.13.11.03.22.05.33.09.11.03.21.08.31.13.13.06.24.16.35.26l.16.15c.05.06.1.11.15.16.69.7,1.02,1.87.91,2.98-.04.44-.16.84-.27,1.26-.16.62-.68,1.04-1.2,1.17-.19.06-.39.07-.59.08-.21,0-.42,0-.64.02-.77.06-1.55.02-2.33.11-.23.03-.48,0-.73-.02-.67-.04-1.35-.1-2.03-.12-.58-.02-1.16,0-1.74,0-.61,0-1.2,0-1.8.13-.5.1-1.01.18-1.51.27-.1.02-.2.02-.3.04-.59.09-1.17.03-1.75.05-.43.01-.85,0-1.27-.04-.98-.08-1.97-.03-2.97.14-.18.03-.37.07-.56.07-.61.02-1.22.03-1.81.24-.08.03-.2.03-.3.04-.81.1-1.62.11-2.43.24-.85.14-1.7.17-2.56.16-.18,0-.37.02-.55,0-.6-.06-1.21,0-1.77.11-.41.08-.79.08-1.17.05-.47-.03-.93-.06-1.4-.01-.28.03-.59.05-.85,0-.66-.11-1.31,0-1.96-.05-.03,0-.07.04-.1.06-.6.29-1.35.33-2.02.16-.65-.17-1.32-.21-1.96-.37-.58-.14-1.2-.18-1.8-.29-.76-.11-1.51-.27-2.25-.44-.22-.05-.44-.12-.66-.17-.11-.03-.22-.06-.33-.09l-.29-.12c-.4-.15-.74-.42-1.05-.74-.47-.52-.81-1.29-.79-2.07,0-.36.05-.75.08-1.1ZM45.86,127.92h-.77s-.07,0-.1,0c-.03,0-.06-.02-.1-.03-.06-.02-.13-.04-.19-.09-.21-.13-.32-.26-.45-.4-.12-.14-.22-.28-.32-.42-.19-.29-.36-.59-.49-.91-.19-.44-.33-.9-.37-1.41-.03-.46-.05-.91-.07-1.37-.03-.91-.06-1.82-.1-2.74-.02-.73-.02-1.55.02-2.28.07-1.55.08-3.11.19-4.68.04-.5.07-.98.19-1.5.02-.12.09-.28.15-.4.07-.12.14-.23.21-.34.15-.21.31-.41.48-.6.17-.19.36-.37.56-.53.06-.04.11-.08.17-.12.07-.05.16-.09.24-.13h.25s.18,0,.18,0h1.47c1.65,0,3.3,0,4.94,0,1.31,0,2.65,0,3.91.03,1.4.04,2.83.04,4.23.1.18,0,.37.02.55.02.18,0,.36-.02.53-.06.35-.08.68-.25.95-.47s.49-.51.62-.81c.14-.3.2-.62.19-.91,0-.07-.02-.14-.02-.2.02-1.38-.04-2.78,0-4.19.02-.57.01-1.23,0-1.82-.03-1.02,0-2,0-3,.02-.82.02-1.63-.02-2.51-.05-1.21-.06-2.5-.03-3.8,0-.07,0-.15.02-.22.04-.07.07-.14.11-.2.04-.06.06-.1.1-.15.03-.05.07-.09.1-.13.14-.17.28-.32.43-.47.17-.17.36-.32.55-.47.2-.15.39-.28.67-.39.04-.02.08-.03.12-.03h.09c.06-.02.12-.03.18-.03.12-.01.23-.03.35-.04.23-.02.46-.04.69-.06.92-.07,1.83-.11,2.75-.16,1.75-.09,3.49-.07,5.24-.05.21,0,.46.02.64.01.64-.02,1.29,0,1.94.04.33.02.65.05.98.09.17.02.33.04.5.07.08.01.17.03.26.05.09.02.21.06.29.1.42.2.75.45,1.08.72.22.19.42.38.61.62.05.06.09.11.14.2.03.05.05.1.08.14l.04.07s0,.05,0,.08v.47c0,.53,0,1.06,0,1.59-.02,1.05-.05,2.1-.09,3.13-.04.87-.07,1.77-.08,2.68-.02,1.24-.08,2.45-.06,3.72,0,.21,0,.43,0,.64.02,1.08.04,2.17.07,3.24.02.59.25,1.17.64,1.6.39.44.94.73,1.53.8.27.02.59.01.9.02h.92c.61,0,1.23,0,1.84-.01h4.32c.52.02,1.07.03,1.56.01,1.67-.06,3.36-.04,5.04-.04h.7s.38.02.38.02h.06s.03,0,.03,0h.03s.11.07.11.07c.07.05.13.08.18.12.4.31.7.67.98,1.07.09.13.18.27.26.42.04.08.07.15.1.24.03.09.04.16.06.25.04.16.05.32.07.48.02.16.04.32.05.47.07.63.11,1.25.18,1.85.09.82.12,1.7.15,2.58.05,2.26.03,4.53-.12,6.8-.02.33-.07.68-.15,1.02-.08.34-.21.66-.37.98-.13.25-.3.49-.51.7-.1.1-.22.2-.34.28-.03.02-.07.05-.11.06l-.09.04-.18.09-.37.18-.13.06s-.09,0-.14,0h-1.01c-1.06,0-2.12-.01-3.17-.02-1.23-.01-2.43-.02-3.64.02-.21,0-.43,0-.64,0-1.19,0-2.39-.01-3.58-.02-.3,0-.6-.01-.9-.02-.41-.02-.82-.02-1.22-.02-.2,0-.4,0-.6,0-.2,0-.41.01-.59.04-.56.09-1.09.36-1.48.78-.39.42-.64.99-.65,1.59-.01.52,0,1.1.02,1.63.03,1.03.03,2.06.03,3.1,0,.91.03,1.82.04,2.73.03,2.18.12,4.32.09,6.55,0,.25,0,.5,0,.75,0,.26,0,.51.01.77,0,.06,0,.12-.02.17-.02.05-.02.11-.05.16l-.07.15c-.03.05-.06.09-.08.12-.1.14-.2.24-.31.34-.21.2-.42.36-.64.52-.36.24-.77.45-1.23.61-.11.04-.23.07-.35.1-.12.02-.24.05-.37.07-.27.04-.47.04-.69.05-1.67.09-2.91-.02-4.27-.11-.92-.06-1.2-.15-1.34-.28-.01-.01-.04-.02-.07-.03-.06,0-.13,0-.19,0-.08,0-.15,0-.22,0-.14.07-.35.13-.66.18-.57.09-1.47.15-2.78.09-.64-.03-1.28-.08-1.93-.16-.12-.02-.24-.03-.36-.05-.1-.01-.2-.03-.31-.05-.02,0-.06-.01-.09-.02l-.09-.03c-.07-.02-.11-.05-.17-.07-.2-.1-.38-.22-.55-.35-.34-.25-.64-.53-.92-.85-.06-.07-.12-.15-.18-.24l-.04-.07s-.04-.06-.05-.09c-.03-.06-.07-.13-.09-.19,0-.07,0-.15,0-.21v-.13s0-.27,0-.27v-1.07c.01-.71.02-1.43.02-2.14.03-2.79,0-5.56-.02-8.34,0-.5.02-1.01.03-1.52,0-.33,0-.67,0-1v-.5c0-.15-.02-.29-.05-.44-.06-.32-.2-.63-.39-.89-.05-.07-.1-.13-.15-.19-.03-.03-.06-.06-.08-.09l-.1-.1-.2-.19c-.06-.06-.12-.11-.19-.16-.26-.2-.56-.35-.87-.42-.16-.04-.32-.06-.48-.07-.18,0-.37,0-.55,0-1.25-.01-2.48-.02-3.73-.02-1.01,0-2.01-.01-3.02-.02-.44,0-.82.01-1.23.03-.96.05-1.98.03-2.99.03-.67,0-1.34,0-2.01,0-.33,0-.66,0-.99,0ZM148.44,185.2c-.37.77-1.06,1.4-1.92,1.81-.73.33-1.51.52-2.38.59-1.01.09-2.03.13-3.04.22-.52.05-1.09.09-1.61.08-1.33-.04-2.6,0-3.82.13-.8.09-1.59.07-2.41,0-.29-.03-.59-.05-.89-.06-1.19-.03-2.38-.04-3.57-.03-.21,0-.44,0-.64.02-1.21.11-2.4.15-3.63.25l-.4.03h-.2s-.04.02-.07.02h-.09s-.79,0-.79,0l-1.58.02c-1.05.02-2.1.03-3.15.05-.33,0-.65-.02-.98-.03-.33,0-.65-.03-.98-.03-2.24.03-4.49.06-6.73.16-.87.04-1.74.07-2.56.21-1.19.2-2.46.17-3.71.13-.92-.03-1.84-.11-2.76-.12-1.66-.02-3.34-.09-5,.04-.49.04-1.03.02-1.55.02l-4.29.09c-1.22.03-2.44.1-3.65.12-1.27.02-2.53.01-3.8.12-1.06.09-2.14.16-3.21.23-.21,0-.42.02-.63.03-1.26.07-2.46-.02-3.69-.02-.9,0-1.8-.04-2.66-.1-2.06-.13-4.15-.14-6.28-.01-.39.02-.8.05-1.18.04-1.3,0-2.59-.04-3.87.18-.18.03-.42.03-.63.04-1.72.12-3.44.15-5.13.17-.88,0-1.76-.05-2.58-.24-.79-.21-1.55-.59-2.11-1.14-.25-.24-.48-.5-.63-.79-.27-.47-.41-1-.47-1.51-.06-.52-.02-1.04.14-1.53.21-.72.72-1.3,1.32-1.71l.28-.19c.09-.06.19-.1.29-.15.18-.1.4-.17.61-.25.42-.15.88-.28,1.34-.4.54-.15,1.18-.25,1.73-.28,1.37-.05,2.73-.23,4.11-.23.06,0,.14-.04.21-.06,1.26-.33,2.83-.4,4.28-.31,1.4.08,2.81.03,4.2.07,1.25.04,2.58-.02,3.88-.06l4.9-.14,5.84-.21c1.55-.05,3.09-.12,4.63-.04.72.04,1.53.04,2.26,0,1.82-.14,3.6-.16,5.4-.09,1.29.05,2.59.03,3.9-.02.66-.03,1.33-.04,2-.05,1-.01,2.01,0,2.96-.12.41-.05.79-.09,1.22-.09,1,0,2,0,3-.02,1.24-.02,2.47-.03,3.7-.02,1.47,0,2.97-.07,4.45-.11.66-.02,1.33-.04,1.99-.05.51,0,1.01.04,1.51.03,2.76-.08,5.51-.2,8.28-.18,1.42.01,2.84,0,4.26,0,.78,0,1.56-.06,2.34-.09.12,0,.23,0,.35,0,.63,0,1.27.01,1.9.02,1.98,0,4.31-.25,5.22-.15.68.08,1.32.17,1.96.27.32.05.64.1.98.15.16.03.31.06.48.09.16.03.32.07.49.1.69.15,1.32.49,1.83.81.32.21.61.46.85.76.23.31.4.66.48,1.05.18.84.08,1.71-.3,2.47ZM148.16,163.52c-.26.38-.62.76-1.03.99-.52.31-1.08.55-1.64.75-.14.05-.28.1-.42.14-.14.04-.29.08-.43.12-.14.05-.29.08-.43.11l-.41.1c-.78.1-1.59.1-2.4.04-.29-.02-.59-.04-.89-.05-1.19-.01-2.38-.02-3.56-.04-.21,0-.44-.01-.64,0-1.2.08-2.4.07-3.63.04-2.1-.04-4.21-.02-6.32-.03-.33,0-.65-.03-.98-.04-.33-.02-.65-.04-.98-.04-2.25-.01-4.51-.02-6.75.04-.88.03-1.75.04-2.57.16-1.2.18-2.47.12-3.72.06-.93-.04-1.85-.12-2.78-.12-1.67,0-3.36-.03-5.02.09-.49.04-1.03.01-1.55.01l-4.3-.02c-1.22,0-2.44.04-3.66.03-1.28-.01-2.54-.05-3.81.03-1.07.06-2.15.1-3.23.15-.21,0-.42,0-.64.01-1.27.04-2.47-.08-3.71-.12-.9-.03-1.8-.09-2.67-.17-2.06-.18-4.15-.24-6.3-.17-.39.01-.8.03-1.19.01-1.3-.04-2.6-.1-3.87.06-.18.02-.42,0-.64.01-1.73.03-3.47-.03-5.2.04-1.81.08-3.64.06-5.46.02-.39,0-.8,0-1.18-.02-.64-.04-1.28-.05-1.92-.03-.32,0-.63.02-.94.03-.16,0-.31.02-.46.03-.07,0-.17.01-.19.02h-.19c-.8-.03-1.54-.26-2.14-.67-.74-.5-1.28-1.17-1.65-1.97-.21-.47-.32-1.06-.25-1.55.08-.61.25-1.19.54-1.72.28-.53.7-1,1.23-1.32.05-.03.08-.1.13-.16.41-.43,1.03-.77,1.72-.94.35-.08.71-.13,1.08-.14.37-.02.74-.03,1.1-.01,1.39.05,2.81,0,4.19.1,1.25.08,2.58.07,3.88.11l4.92.14c1.95.05,3.92.03,5.88,0,1.55-.02,3.1-.06,4.65.05.72.05,1.54.07,2.26.03,1.83-.1,3.62-.09,5.42,0,1.29.07,2.6.07,3.92.04.67-.02,1.34-.02,2-.02,1,0,2.02.03,2.98-.07.41-.04.79-.08,1.23-.08,1,.01,2,.02,3.01.02,1.24,0,2.47,0,3.72.02,1.48.02,2.98-.04,4.47-.06.67-.01,1.33-.03,2-.03.51,0,1.02.05,1.52.04,2.77-.05,5.53-.15,8.31-.1,1.42.02,2.85.03,4.27.03.78,0,1.57-.05,2.35-.07.12,0,.23,0,.35,0,.64.01,1.27.02,1.91.03,1.99.02,4.31-.22,5.23-.09,1.36.19,2.61.41,4.24.36.84-.03,1.73-.02,2.5-.1.97-.09,1.92-.15,2.9-.08.27.02.54.04.81.06.27.02.53.04.78.06.5.04.98.13,1.46.23.93.22,1.83.61,2.49,1.24.55.52.94,1.19,1.03,1.92.11.84-.19,1.68-.7,2.4ZM150.96,143.27c-.12.36-.31.67-.5.89-.26.32-.56.49-.86.54-.32.06-.64.08-.96.1-.55.01-1.1.01-1.65-.06-.58-.07-1.15-.19-1.73-.17-.48.01-.98.02-1.47.07-.09,0-.19,0-.29.01-.57.04-1.12-.08-1.68-.12-.41-.03-.82-.09-1.21-.17-.93-.19-1.88-.25-2.86-.18-.18.01-.36.02-.54.01-.59-.05-1.18-.1-1.75.05-.08.02-.19,0-.29,0-.79.03-1.57-.04-2.36,0-.82.06-1.65.03-2.48,0-.18,0-.36,0-.54-.02-.58-.07-1.17-.03-1.71.07-.4.08-.76.07-1.13.05-.46-.03-.9-.06-1.36,0-.27.04-.57.06-.82.03-.64-.09-1.27.06-1.9.04-.03,0-.06.04-.1.06-.58.32-1.29.42-1.95.31-.63-.11-1.28-.08-1.91-.15-.57-.06-1.18-.02-1.77,0l-2.23.06-2.66.11c-.35.01-.7.02-1.06.04-.36.02-.71.06-1.06.04-.33-.01-.69,0-1.01.03-.8.09-1.59-.21-2.29-.98-.25-.27-.48-.58-.68-.94-.2-.36-.38-.77-.47-1.22-.05-.23-.08-.47-.09-.71,0-.24.01-.49.05-.73.12-.73.42-1.36.73-1.91.13-.25.27-.44.44-.61.4-.38.81-.63,1.24-.79.54-.21,1.09-.3,1.64-.34.66-.05,1.34-.12,2.01-.15.3,0,.6-.02.9-.02.23,0,.46.06.69.06.63,0,1.26-.04,1.89-.09.63-.04,1.25-.06,1.88-.05.64.02,1.29.02,1.94.01.36,0,.71-.06,1.07-.09.05,0,.11,0,.16,0,.29,0,.58,0,.87,0,.91-.03,1.94-.34,2.36-.19.61.22,1.17.48,1.92.47.38,0,.79.01,1.14-.06.45-.09.88-.17,1.34-.14,1.01.06,1.97-.13,2.96-.21.41-.03.82-.08,1.23-.09h.18s.09,0,.09,0h.02s.03,0,.03,0c.12.03.24.06.36.07.24.04.48.06.71.05.25,0,.51-.03.75,0,.62.07,1.2,0,1.75-.17.36-.11.72-.11,1.09-.05.13.02.27.05.4.05.54.02,1.08.03,1.62.02.1,0,.2,0,.29-.01.55-.1,1.09-.11,1.65-.12.95-.03,1.91-.06,2.86-.09.15,0,.3.02.44.03.15.01.3.04.45.04,1.02.01,2.03.06,3.05.14.39.02.79.09,1.16.04.27-.02.56,0,.82.12.26.13.52.37.74.7.16.25.3.54.42.88.12.34.21.71.28,1.09.27,1.41.15,3.11-.26,4.32ZM150.57,121.21c-.31.32-.66.59-1.05.74l-.29.12c-.1.03-.22.06-.33.09-.22.06-.44.13-.66.17-.74.17-1.5.33-2.25.44-.6.1-1.23.15-1.8.29-.64.15-1.31.19-1.96.37-.67.17-1.42.13-2.02-.16-.04-.02-.07-.06-.1-.06-.65.05-1.3-.06-1.96.05-.27.04-.58.03-.85,0-.48-.05-.93-.02-1.4.01-.38.03-.76.03-1.17-.05-.56-.11-1.17-.16-1.77-.11-.18.02-.37,0-.55,0-.85,0-1.71-.02-2.56-.16-.81-.13-1.62-.14-2.43-.24-.1-.01-.21,0-.3-.04-.59-.21-1.19-.22-1.81-.24-.18,0-.37-.04-.56-.07-1-.17-1.99-.22-2.97-.14-.41.03-.84.05-1.27.04-.58-.02-1.16.05-1.75-.05-.1-.01-.2-.02-.3-.04-.5-.09-1.01-.17-1.51-.27-.6-.12-1.19-.12-1.81-.13-.58,0-1.16-.03-1.74,0-.68.02-1.35.08-2.03.12-.24.01-.5.05-.73.02-.78-.1-1.56-.06-2.33-.11-.21-.01-.43-.02-.64-.02-.2,0-.4-.02-.59-.08-.52-.14-1.03-.55-1.2-1.17-.11-.41-.22-.82-.27-1.26-.11-1.11.21-2.28.91-2.98.05-.05.1-.1.15-.16l.16-.15c.11-.09.22-.2.35-.25.1-.05.2-.1.31-.13.1-.04.21-.07.33-.09.22-.05.48-.09.72-.13.49-.09.98-.18,1.46-.27.57-.12,1.13-.19,1.69-.2.1,0,.2-.02.3-.04l1.66-.23c.14-.02.28-.05.42-.09.38-.1.75-.14,1.13-.07.58.1,1.18.11,1.81.02.25-.03.51-.01.76,0,.48.04.97,0,1.45,0,.43-.01.85.02,1.28.03,1.02.03,2.02.19,3.06.12.47-.03.93.03,1.39.12.37.07.79.05,1.18.05.77.01,1.35-.26,1.99-.47.43-.14,1.52.09,2.46.08l.9-.03c.05,0,.11,0,.17,0,.37.02.74.07,1.11.07.67,0,1.34,0,2.01-.02,1.31-.04,2.61.07,3.91.15.24.01.48-.03.71-.03.31,0,.63.03.94.05.7.04,1.4.13,2.1.14.58,0,1.16.03,1.74.07l1.4.08c.2.01.38.07.57.13.44.15.91.18,1.37.25.31.04.61.1.9.18.29.08.58.16.85.24.27.08.5.2.75.3.66.34,1.19,1.1,1.28,2,.03.35.08.74.08,1.1.02.78-.32,1.55-.79,2.07Z"/>
</svg>