<?xml version="1.0" encoding="UTF-8"?>
<svg id="Layer_11" data-name="Layer 11" xmlns="http://www.w3.org/2000/svg" viewBox="0 0 314.01 288">
  <defs>
    <style>
      .cls-1 {
        fill: #1c5c7d;
      }
    </style>
  </defs>
  <path class="cls-1" d="M313.94,236.38c-.1-2.72-.32-5.43-.58-8.13-.52-5.4-1.22-10.76-1.58-16.18-.3-4.52-.79-9.03-.9-13.56-.13-5.16-.02-10.31-.77-15.41-.39-2.65-.83-5.49-.6-8.11.57-6.71,0-13.06-1.72-19.17-1.13-4-1.05-7.97-.33-12.06.26-1.46.5-2.96.56-4.46.21-5.92.35-11.85.51-17.77.03-1.07.14-2.17,0-3.19-.82-6-.68-11.95-.38-18.08.51-10.47.37-21.01.56-31.52.03-1.63.34-3.25.52-4.88.18-1.64.49-3.27.52-4.91l.14-8.42.04-4.21c0-.16,0-.4,0-.6v-.62s-.04-1.24-.04-1.24c-.06-.83-.11-1.66-.2-2.48-.73-6.61-3.09-13.06-6.87-18.43-1.46-2.1-3.07-4.08-4.91-5.77-1.83-1.69-3.88-3.09-6.09-4-3.23-1.31-6.19-2.82-9.28-4.24-3.07-1.43-6.24-2.83-9.6-3.79-2.47-.72-5.03-1.3-7.62-1.59-2.31-.29-4.62-.52-6.93-.54-5.01-.04-10.05-.21-15.07-.04-3.97.07-7.94.32-11.87.97-.44.07-.89.12-1.35.15-1.48-.01-2.99-.11-4.47-.13-7.15-.1-14.3-.33-21.45-.34-2.3,0-4.61.05-6.91.12-1.31.03-2.61.07-3.92.11-2.48.06-4.95.09-7.42.02-4.65-.14-9.26-.42-13.88-.23-2.35.03-4.71.17-7.07.48-5.32.7-10.72,1.12-16.1,1.64-.17.02-.34.02-.52.03-.23,0-.45.01-.68.03-.66.01-1.32.01-1.98.05-.15,0-.3.01-.45.02-5.45,0-10.71-1.07-16.09-1.48-4.5-.34-8.98-1.05-13.31-1.93C106.8.67,97.64-.1,88.28.24c-1.92.04-3.85.12-5.79.25-.71.05-1.42.1-2.13.13-.63,0-1.25-.02-1.86-.07-4.09-.33-8.16-.7-12.19-.5-3.03.03-6.03.31-9.02,1.13-.09.03-.2.04-.3.05-.32-.01-.63-.02-.94,0-2.16.07-4.32.08-6.48.06l-1.62-.02h-.82s-.97,0-.97,0c-.59,0-1.18.02-1.77.05h-.17c-1.29,0-2.58.09-3.87.2-5.14.5-10.24,2.01-14.69,4.61-4.64,2.71-8.85,6.02-12.51,9.87-3.66,3.85-6.77,8.27-9.05,13.15-1,2.11-1.61,4.44-2.4,6.57-.16.45-.32.9-.47,1.36-.14.46-.26.92-.38,1.39-.26.93-.41,1.88-.57,2.82-.14.95-.22,1.91-.28,2.86-.01.48-.02.95-.03,1.43v.7s.02.59.02.59c.13,3.16.5,6.27,1.05,9.26.8,4.35.72,8.39.35,12.46-.45,5-.83,9.85-.23,14.91.34,2.86.51,6.04.09,8.83-.01,1.7-.04,3.4.02,5.1.11,3.02.86,5.68,1.63,8.54.13.49.14,1.01.14,1.51.02,1.74.04,3.48.06,5.22,0,.32,0,.64.11.94.09.26.24.5.39.73,3.87,6.09,4.33,14.62,2.88,21.5-1.11,5.28-1.32,10.64-1.8,15.95-.13.64-.26,1.27-.4,1.9-.29,1.32-.56,2.64-.8,3.97-.05.58-.11,1.15-.16,1.73-1.31,13.79-2.09,27.52-1.97,41.46.09,9.74.41,19.48.48,29.23.03,3.87.13,7.74.06,11.6-.02,2.17.04,4.43.22,6.65.19,2.23.47,4.46.82,6.73.35,2.11.97,4.33,1.88,6.43.91,2.1,2.13,4.08,3.52,5.74,3.5,4.17,7.39,7.76,11.66,10.84,4.27,3.08,8.92,5.65,13.99,7.6l1.38.48.7.23.71.2,1.43.38c.48.11.96.2,1.45.3.97.21,1.95.31,2.94.44.49.06.99.08,1.48.11l.74.04.37.02h.31c.97.04,1.94.06,2.91.06,2.05.02,4.11-.02,6.18-.1.89-.03,1.77-.06,2.66-.1.36-.02.73-.03,1.09-.04.79-.02,1.58-.03,2.38-.04,1.53,0,3.07.01,4.6.05,1.96.05,3.94.12,5.9.13.47,0,.94,0,1.4,0,.02-.02.03-.04.05-.06,3.19.04,6.36-.07,9.42-.76,2.05-.46,3.94-.87,6.12-.78,4.99.2,9.99.43,14.99.45,6.19.03,12.33.2,18.52.53,7.37.39,14.85-.18,22.29-.34,3.32-.07,6.65-.24,9.97-.18.27,0,.55.02.82.04-.05.05-.1.11-.15.16,1.82.19,3.64.49,5.44.44,2.47-.07,4.94-.15,7.41-.24,2.2-.08,4.4-.16,6.6-.24,7.45-.26,14.89-.47,22.36-.28-.02-.03-.04-.05-.06-.08,2.19.04,4.38.11,6.58.22,2.05.11,4.11.2,6.17.28.03.04.05.07.08.11,4.53.16,9.06.27,13.59.3,1.1,0,2.19-.02,3.29-.07,3.03-.08,6.07-.37,9.11-.56.36,0,.71.03,1.07.05,3.17.17,6.34.4,9.51.51.38.01.75.01,1.12.01-.09-.03-.17-.05-.25-.08-.01,0-.02,0-.03-.01.2,0,.41.02.61.03,4.09.13,7.35-.39,9.93-1.37.82.02,1.62.17,2.44.23,1.36.11,2.77-.34,4.15-.42,1.59-.09,3.18-.02,4.76.2.29.04.59.09.88.05.25-.04.49-.14.73-.2,1.17-.31,2.33.16,3.49.25,1.25.1,2.54.09,3.8.09.05,0,.09,0,.14,0,.8,0,1.6-.02,2.4-.06,2.55-.04,5.13-.31,7.75-.96,1.11-.25,2.19-.62,3.31-1.01,1.08-.44,2.2-.9,3.27-1.49,2.17-1.15,4.29-2.65,6.24-4.59,2.01-1.98,3.96-4.14,5.62-6.46,1.66-2.32,3-4.81,3.8-7.29,1.02-3.12,1.74-6.25,2.33-9.38.58-3.13,1.02-6.26,1.42-9.48.13-.89.18-1.78.23-2.67.05-.98.06-1.56.06-2.27.01-1.37-.01-2.74-.07-4.1ZM258.52,175.17c.2-.07.38-.16.56-.23l3.48-1.54c1.23-.53,2.48-1.03,3.73-1.54.51-.21,1-.46,1.51-.68.22-.09.47-.18.69-.22.93-.17,1.87-.33,2.79-.38.35-.01.7.08.87.21.47.36,1.76-1.06,2.6-1.09.38-.01.77,0,1.21,0,.23-.07.5-.15.78-.22.82-.14,1.64.14,2.44.35.55.15,1.15.2,1.7.38.85.27,1.69.67,2.47,1.07.55.28,1.1.57,1.7,1.02l.23.18.26.25c.19.16.32.36.48.54.27.39.48.82.54,1.29.17.99-.42,1.92-1.11,2.59-.16.15-.38.32-.57.48-.22.1-.5.21-.59.25l-.83.31c-.85.3-1.69.72-2.53,1.08l-.57.23-4.19,1.84-2.23,1.02c-.21.1-.43.21-.51.25-.3.11-.47.17-.63.25-1.16.56-2.32,1.13-3.46,1.71-.48.25-.93.54-1.41.8-.81.43-1.64.86-2.46,1.27-1.81.91-3.65,1.72-5.53,2.41-.19.07-.38.17-.57.25-.19.08-.38.14-.57.19l-8.32,3.96.03.04c-.16.06-.33.09-.47.17-.54.29-1.07.61-1.61.89l-2.58,1.31-3.25,1.65-2.59,1.27-2.02.98-3.28,1.56-2.81,1.32-2.47,1.25c-.53.26-1.1.44-1.62.71-1.43.74-2.85,1.47-4.28,2.21-.95.47-1.93.9-2.9,1.36-.28.13-.54.31-.81.43-.61.31-1.23.57-1.81.76-.55.18-1.08.28-1.55.26-.45-.03-.88-.14-1.28-.48-.41-.37-.49-.73-.6-1.13-.01-.15-.02-.29-.03-.45-.04-.77.25-1.78.48-2.73.08-.31.16-.61.23-.91.07-.26.15-.52.23-.76.12-.35.23-.72.32-1.04l.05-.23.06-.28.11-.56c.13-.73.24-1.46.29-2.11.04-.51-.03-1.09-.08-1.81-.04-.7-.08-1.6.24-2.56.17-.55.48-1.06.82-1.5.35-.42.74-.79,1.13-1.07l.4-.29.42-.19.52-.23,1.03-.46c.32-.14.64-.3.96-.46.77-.37,1.53-.75,2.3-1.12.25-.12.54-.17.81-.27.94-.37,1.88-.74,2.81-1.14.34-.14.64-.37.98-.53.58-.27,1.17-.52,1.76-.77l2.65-1.1c.73-.31,1.47-.68,2.19-.9.84-.26,1.61-.64,2.42-.95.28-.11.56-.27.83-.41l.06-.05c.24-.1.51-.24.73-.29.77-.14,1.48-.52,2.19-.84,1.35-.6,2.66-1.27,4.02-1.85,1.06-.45,2.16-.79,3.23-1.21.79-.31,1.57-.67,2.36-.99.65-.26,1.31-.51,1.96-.75l5.45-2.03ZM225.58,167.95c.75-.21,1.43-.55,2.15-.82.25-.09.49-.24.74-.36l.05-.05c.22-.09.45-.22.65-.25.68-.11,1.31-.45,1.94-.74,1.19-.54,2.33-1.17,3.52-1.69.92-.42,1.89-.74,2.83-1.14.69-.29,1.35-.65,2.04-.97l.85-.38.31-.14c.12-.07.26-.08.38-.11l.51-.11c1.84-.36,3.68-.43,5.49-.3l.58.03c1.19.06,2.38.19,3.55.44,1.23.25,2.41.65,3.57,1.05.48.18.99.31,1.5.55.22.1.45.25.63.4.37.33.74.73,1.03,1.27.28.53.31,1.12.18,1.61-.1.4-.41.64-.6.7-.06.02-.12.02-.18.03-.07.16-.16.32-.27.49-.02,0-.03.01-.05.02.1.05.14.15.14.25,0,.24-.82,1.06-1.22,1.25-.29.13-.58.27-.92.42-.14.16-.3.34-.46.51-.51.47-1.2.62-1.84.89-.44.19-.83.49-1.27.69-.67.32-1.37.59-2.04.9-.93.42-1.87.84-2.79,1.3-.95.47-1.9.89-2.89,1.26-.75.28-1.49.67-2.24,1l-.51.21-3.72,1.67-1.98.91c-.19.09-.38.19-.46.23-.27.1-.42.15-.57.22-1.03.5-2.06,1.01-3.09,1.51-.43.22-.83.49-1.25.71-.73.38-1.46.75-2.2,1.11-1.61.8-3.3,1.46-4.91,2.06-.17.06-.33.15-.49.22-.16.07-.33.13-.5.17-2.42,1.22-4.85,2.52-7.42,3.63l.02.04c-.14.05-.3.07-.43.13-.51.24-1,.51-1.53.71-.41.17-.83.33-1.26.46-.42.15-.86.27-1.3.4-.54.17-1.13.27-1.7.39-.59.07-1.17.18-1.79.17-.98.04-1.84-.08-2.72-.17-.68-.08-1.35-.17-2.01-.27-1.08-.16-2.13-.33-3.22-.53-.93-.18-1.83-.38-2.75-.58l-1.23-.25-.66-.14c-.34-.08-.67-.17-1.01-.27-.85-.25-1.58-.61-2.15-.97-1.37-.94-1.03-2.05.04-3.09.39-.38.85-.74,1.39-1.07.34-.2.74-.42,1.06-.59l.63-.34,1.26-.68c.24-.13.46-.3.71-.42.3-.15.62-.27.93-.42.29-.14.57-.3.86-.45.65-.33,1.31-.67,1.96-1,.87-.46,1.7-1.01,2.59-1.37,1.28-.53,2.51-1.14,3.76-1.71l3.18-1.54c1.22-.57,2.46-1.1,3.68-1.66l.86-.41c.68-.33,1.36-.68,2.05-1,.22-.1.49-.14.72-.23.84-.32,1.68-.63,2.52-.98.3-.12.57-.33.87-.47.52-.23,1.05-.45,1.58-.66l2.37-.95c.65-.26,1.31-.59,1.95-.77ZM192.96,164.41c.15-.05.3-.09.46-.12,2.21-.94,4.44-1.87,6.69-2.74l-.02-.04c.13-.03.27-.04.38-.1.44-.2.87-.42,1.32-.62.71-.29,1.41-.57,2.13-.83.9-.34,1.82-.67,2.76-.95.75-.23,1.5-.41,2.36-.56.67-.09,1.27-.13,1.88-.15.98-.03,1.95-.03,2.92.01.83.03,1.66.11,2.5.19.75.07,1.5.11,2.26.25.49.09.96.27,1.45.41.35.1.67.19,1.08.37.48.21.94.49,1.32.85l.26.29c.07.1.14.22.21.32.07.11.12.23.18.34.28.55-.08,1.69-.18,2.24-.2,1.16-1.78,1.48-2.71,1.91-.22.1-.41.25-.63.35-.27.12-.55.21-.83.33-.26.11-.51.24-.76.36-.58.28-1.16.55-1.73.84-.76.39-1.49.88-2.27,1.18-1.13.44-2.19.99-3.28,1.51-.93.44-1.83.95-2.75,1.41l-3.18,1.54c-.25.12-.49.25-.74.39-.59.32-1.17.64-1.76.95-.19.1-.42.13-.63.21-.73.3-1.46.6-2.18.93-.26.12-.48.32-.74.45-.45.23-.91.43-1.36.63l-2.05.9c-.57.25-1.13.57-1.7.74-.66.2-1.25.52-1.88.77-.22.09-.43.23-.64.35l-.04.05c-.19.08-.39.2-.57.23-.61.1-1.15.41-1.7.68-1.03.51-2.04,1.07-3.08,1.56-.81.38-1.67.65-2.51.99-.61.26-1.2.57-1.81.84-1.6.68-2.76.84-4.5.57-.79-.12-1.58-.27-2.34-.46-.16-.04-.33-.06-.49-.1-1.01-.21-2-.43-2.97-.7l-3-.86c-.4-.1-.82-.16-1.23-.24-.18-.03-.36-.09-.51-.16-.95-.45-2.35-.83-3.25-1.42-.06-.04-.12-.08-.18-.13-.54-.41-.52-1.04-.2-1.58.11-.2.23-.34.33-.42.29-.24.56-.41.88-.59.12-.16.27-.35.42-.53.49-.47,1.15-.57,1.74-.77.41-.14.79-.38,1.2-.52l.82-.27.9-.37c.82-.36,1.64-.72,2.44-1.12.83-.41,1.66-.79,2.53-1.1.66-.24,1.31-.59,1.96-.89l.45-.19,3.27-1.48,1.75-.79c.17-.08.34-.16.4-.2.24-.08.38-.12.5-.18l2.75-1.29c.38-.18.72-.42,1.1-.62.64-.33,1.29-.65,1.94-.96,1.43-.69,2.89-1.26,4.4-1.73.15-.05.3-.12.45-.18ZM116,114.22v-.05c.14-.66.7-1.15,1.37-1.2h.06s.11-.01.11-.01h0s.23-.02.23-.02l.45-.03,1.76-.13,3.83-.29h0s2.25-.17,2.25-.17h0s.91-.07.91-.07l.64-.05s.06,0,.08,0c.04,0,.08,0,.13,0,.09,0,.2,0,.33-.02.26-.01.6-.02.94-.03.67-.02,1.34-.04,1.34-.04.7-.02,1.32.45,1.5,1.12,0,0,.04.15.1.39.06.24.15.58.25.94.19.73.42,1.59.55,2.08.03.12.06.21.08.27.42,1.2.8,2.34,1.24,3.39.45,1.07.96,2.03,1.65,2.91,2.08,2.67,4.8,5.06,7.79,6.42.33.15.55.27.66.3l.82.27h0c.31.1.56.19.74.24l.82.19h0c1.28.31,2.59.48,3.88.48.53,0,1.06-.03,1.58-.08h0c1.33-.14,2.58-.48,3.6-1.02h.01c.97-.51,1.75-1.28,2.3-2.23.43-.75.71-1.71.8-2.73v-.02c.02-.19.02-.48.04-.85,0-.02,0-.04,0-.06,0-.11-.02-.32-.03-.64-.01-.19-.02-.34-.02-.44,0-.12,0-.18-.01-.2h0s-.02-.09-.02-.09c-.04-.27-.09-.54-.13-.8-.26-1.14-.65-2.19-1.27-3.1l-.03-.05c-.12-.19-.18-.3-.21-.35l-.29-.38h0c-.23-.29-.41-.55-.58-.75-.25-.27-.46-.52-.66-.75-.22-.24-.41-.46-.61-.64l-.06-.06c-.57-.6-1.32-1.2-2.09-1.84l-.14-.09c-.05-.03-.06-.04-.11-.08-.32-.26-.68-.54-1.04-.81-.35-.27-.7-.54-.99-.77l-.02-.02c-1.86-1.53-4.1-2.95-6.32-4.37h0c-2.09-1.33-4.21-2.64-6.36-4.03h-.01c-2.1-1.4-4.24-2.84-6.28-4.48h0s0,0,0,0c0,0,0,0-.01,0h0c-3.23-2.53-6.17-5.54-8.57-9.02h0c-1.76-2.59-3.18-5.5-4.04-8.57h0s-.26-.89-.26-.89l-.03-.13-.18-.91v-.02c-.1-.55-.26-1.18-.35-1.89v-.04c-.12-1.16-.31-2.42-.31-3.77,0-.02,0-.03,0-.04l-.04-1.24h0c0-.09,0-.17,0-.25,0-.46.04-.83.05-1.11v-.05c.05-.79.06-1.66.16-2.59v-.05s.36-2.52.36-2.52v-.03c.16-.96.42-1.8.59-2.57v-.06c.94-3.44,2.45-6.76,4.58-9.67h0c.22-.3.43-.59.65-.89h0s.32-.44.32-.44l.02-.03c.2-.25.35-.4.42-.48h0c3.1-3.57,7.03-6.39,11.36-8.19l.05-.02c1.02-.38,2.12-.88,3.38-1.22h0s1.67-.5,1.67-.5l.1-.03,1.7-.38h.02c.5-.11,1.09-.27,1.79-.36h0s.36-.05.36-.05v-.67c-.01-1.84-.03-3.69-.04-5.54h0c0-.1,0-.21,0-.31,0-.73.01-1.5.04-2.17h0c.02-.55.05-1.11.07-1.66,0-.19.01-.38.02-.57v-1.8c0-.4.16-.78.44-1.06.28-.28.67-.44,1.06-.44h12.49c.4,0,.78.16,1.06.44s.44.67.44,1.06v11.91c.01.15.03.31.04.47.22.03.45.06.7.1h0s0,0,.01,0c0,0,0,0,0,0h0c1.36.21,2.69.48,4.01.77,0,0,0,0,0,0h0s0,0,0,0c1.8.39,3.67.79,5.54,1.35h0c1.42.43,2.82.91,4.21,1.44h0s.28.11.28.11l1.95-.71h0c1.84-.67,3.67-1.34,5.51-2.01h0s2.3-.84,2.3-.84l.58-.21.29-.11.15-.05c.41-.15.86-.11,1.24.1s.65.58.74,1c.02.12.03.19.03.25,0,.06,0,.1,0,.12,0,.05,0,.07,0,.07v.02s0,1.24,0,1.24h0c0,1.27,0,2.54-.01,3.8h0c0,1.15-.02,1.88-.04,2.43-.02.55-.05.92-.08,1.31-.02.26-.04.54-.07.9-.03.49-.07,1.14-.12,2.14-.13,3.03-.2,6.21-.31,9.34h0s-.08,2.1-.08,2.1c-.07,2.09-.14,4.18-.21,6.28h0s0,.08,0,.12c0,.1,0,.21,0,.36,0,.12,0,.27-.03.47-.03.19-.09.45-.25.73-.11.18-.26.36-.43.51-.23.19-.49.3-.71.36-.3.08-.55.1-.8.1h0s-.04,0-.07,0c-1.24,0-2.38-.13-3.41-.14-.31,0-.61,0-.92,0-1.95,0-3.89.09-5.83.27-.23.02-.44.04-.67.04-.15,0-.32,0-.51-.04-.19-.04-.43-.11-.66-.24-.15-.09-.29-.2-.41-.33-.16-.16-.27-.34-.34-.48-.1-.2-.16-.37-.2-.52-.06-.2-.1-.38-.16-.59-.2-.81-.43-1.61-.67-2.41-.58-1.92-1.25-3.77-2.1-5.46-.84-1.69-1.86-3.2-3.14-4.47-.85-.85-1.82-1.59-2.94-2.2-1.35-.74-2.79-1.19-4.33-1.42h-.01c-.61-.09-1.24-.14-1.87-.14-.68,0-1.36.05-2.02.16-1.26.2-2.42.61-3.33,1.23-1.04.71-1.87,1.65-2.35,2.76v.02c-.54,1.16-.81,2.52-.84,3.95h0c0,.12,0,.24,0,.37,0,1.34.17,2.61.57,3.71h0c.41,1.2,1.17,2.32,2.15,3.38.46.45.9.89,1.34,1.25l.06.05c.42.38.9.76,1.41,1.18,1.97,1.46,4.12,2.79,6.33,4.11,2.21,1.33,4.49,2.66,6.72,4.15l1.65,1.07.03.02,1.63,1.11h0c1.13.75,2.2,1.54,3.25,2.31h0c.58.41,1.11.84,1.61,1.23h0c.5.4,1.03.81,1.57,1.25l.04.03c.88.77,1.85,1.54,2.8,2.45.09.06.17.12.25.2.42.42.82.83,1.18,1.17l.08.08c.68.74,1.47,1.49,2.22,2.37l.03.03c.31.39.66.78,1.01,1.22.34.42.7.87,1.03,1.38,2.05,2.87,3.63,6.13,4.53,9.59v.05c.23.98.54,2.05.67,3.26h0l.22,1.58v.09c.05.57.07,1.12.09,1.62h0c.04.62.06,1.23.06,1.85,0,1.61-.13,3.21-.35,4.79-.49,3.52-1.63,6.97-3.4,10.1,0,0,0,0,0,0h0s0,0,0,0c-1.38,2.45-3.17,4.64-5.22,6.52h0c-3.34,3.04-7.33,5.19-11.47,6.61h0c-1.77.61-3.57,1.08-5.37,1.46h-.01c-1.63.33-3.27.58-4.9.77v.77s0,0,0,0l.02,4.7v.02c0,.99-.02,1.99-.03,2.99h0c0,.5-.01,1-.02,1.5h0c0,.57,0,1.16,0,1.74,0,.58,0,1.15,0,1.73,0,.83-.66,1.5-1.49,1.51-4.32.03-8.63.06-12.95.1-.4,0-.78-.15-1.07-.43-.29-.28-.45-.66-.45-1.06-.01-1.8-.02-3.61-.03-5.41h0c0-1.81,0-3.62-.01-5.43h0s0-2.72,0-2.72h0c-.4-.06-.8-.11-1.19-.16h-.01c-1.34-.19-2.64-.44-3.92-.69h0c-1.22-.23-2.45-.48-3.69-.78h0s0,0,0,0h0c-1.4-.33-2.8-.71-4.19-1.14h0s0,0,0,0c0,0,0,0-.01,0h0c-.37-.11-.72-.23-1.04-.34h-.01s-.28-.1-.28-.1l-.77.33c-1.91.81-3.82,1.64-5.73,2.45h0s-1.18.5-1.18.5h0s-.3.13-.3.13l-.07.03c-.74.31-1.59-.01-1.94-.73l-.03-.05c-.05-.1-.09-.21-.11-.31l-.03-.14-.13-.56h0c-.17-.76-.35-1.51-.52-2.26h0s-.12-.54-.12-.54v-.03s-.08-.34-.08-.34h0s-.14-.69-.14-.69h0c-.09-.45-.19-.91-.27-1.4h0c-1.3-7.24-2.38-14.62-2.59-22.07h0s-.02-.98-.02-.98v-.02s-.02-1.72-.02-1.72v-.91c-.01-.11,0-.21.02-.31ZM293.92,193.06c-.08.2-.2.41-.27.53-.07.13-.22.34-.33.49-.67.8-1.36,1.32-2.07,1.91-.7.56-1.42,1.1-2.14,1.63-1.44,1.05-2.9,2.07-4.37,3.07-.51.34-1.04.71-1.53,1.06-2.6,1.88-5.21,3.73-7.86,5.54-1.1.75-2.35,1.62-3.39,2.21-3.48,2.01-6.84,4.3-10.25,6.45l-3.01,1.9c-2.05,1.3-4.11,2.58-6.14,3.91-3.38,2.19-6.87,4.41-10.04,6.61-5.35,3.7-10.69,7.45-16.12,11.08-1,.67-2.05,1.42-2.87,2.04-2.03,1.56-4.34,2.97-6.69,4.34-3.81,2.23-7.67,4.35-11.62,6.34-1.96,1.01-3.99,1.98-6.11,2.77-2.11.8-4.36,1.39-6.64,1.62-3.24.36-6.71.13-9.78-.04-.45-.03-1.13.02-1.7.03-4.38.13-8.79.29-13.18.46-.83.03-1.74.09-2.47.16-3.4.36-7.11.51-10.81.64-1.02.03-2.06-.02-3.09-.04-.91-.02-1.82-.08-2.72-.05-3.07.1-6.15.19-9.18.32-5.91.24-11.81.37-17.73.22-1.69-.04-3.29-.19-4.96-.23-3.92-.08-7.86-.22-11.78-.34-2.84-.11-5.66-.17-8.52-.37-2.85-.23-5.69-.54-8.5-1.02-4.79-.79-9.5-1.97-14.16-3.23-2.95-.81-5.87-1.59-8.79-2.49-3.52-1.08-7.02-2.3-10.51-3.33-.41-.12-.82-.25-1.24-.38-.55-.03-1.11-.09-1.69-.24-4.09-1.06-8.18-2.11-12.28-3.17-1.86-.48-4.11-1-6.16-1.82-2.05-.81-3.92-1.92-5.01-3.61-1.21-1.88-1.74-3.8-2.42-5.87-.49-1.48-.81-3.18-.99-4.72-.19-1.63-.25-3.16-.25-4.62,0-2.45.17-4.74.19-7.11.04-4.19.55-8.35.82-12.5.25-3.9.51-7.82,1.14-11.7.45-2.74,1.1-5.5,2.45-7.96.96-1.75,2.31-3.34,4.01-4.44.9-.59,1.56-.76,2.56-.98.7-.15,1.42-.42,2.19-.53,4.07-1.36,8.29-2.66,12.72-3.8,2.38-.72,4.76-1.44,7.19-2.04,4.08-.93,8.19-1.77,12.33-2.39.84-.14,1.66-.19,2.49-.3,5.15-.8,10.36-1.3,15.56-1.46,1.82-.11,3.63-.06,5.44-.11,1.81,0,3.62.09,5.45.18,1.35.14,2.71.28,4.07.43,1.36.18,2.71.43,4.06.64l3.83.79c1.26.32,2.52.63,3.78.97l3.4,1.03,3.35,1.15c3.49,1.26,6.9,2.68,10.28,4.15,3.06,1.34,6.08,2.74,9.11,4.09,2.35,1.04,4.7,2.08,7.08,3.03,1.07.44,2.15.87,3.24,1.26,1.08.41,2.17.82,3.27,1.18,6.1,2.07,12.38,3.7,18.63,5.49,3.41.97,7.1,1.73,10.67,2.52,3.23.71,6.48,1.46,9.7,2.01,4.09.68,8.26,1.06,12.4,1.82.27.05.55.1.83.15.33.07.73.1,1.02.28.62.37.98,1.05,1.06,1.68.14,1-.09,1.77-.32,2.56-.25.77-.57,1.5-.9,2.21-.34.71-.7,1.39-1.08,2.06-.21.34-.41.67-.62,1-.24.31-.47.63-.72.94-.82.95-1.88,1.74-3.06,2.22-1.18.48-2.43.67-3.64.75-2.43.14-4.75-.03-7.14.06-1.32.02-2.67.08-4.04.13-1.37.01-2.75.06-4.11.05-4.57-.03-9.09-.35-13.58-.51-1.91-.06-4.22-.32-6.27-.57-3.41-.42-6.78-.87-10.23-1.24-6.94-.74-13.86-1.61-20.84-1.84l-2.61-.07c-.18,0-.36.02-.53.04-.34.05-.87.16-1.15.35-.47.32-.05.8.2,1.11,0,0,.15.18.15.18l.28.33c.41.46.85.92,1.31,1.35,1.61,1.49,3.92,1.74,6.02,2.23,2.23.52,4.47.97,6.73,1.37,2.11.38,4.36.73,6.36,1.11,5.89,1.11,11.88,1.56,17.85,2.12,3.54.34,7.07.68,10.61.96,1.3.11,2.6.23,3.91.31,5.18.3,10.35.35,15.46.21,2.31-.07,4.96-.46,7.4-1,1.55-.38,3.12-.71,4.67-1.13,1.54-.44,3.08-.82,4.58-1.27,1.1-.33,2.13-.66,3.15-1,1.02-.34,1.99-.75,3-1.15,5.23-2.15,10.51-4.38,15.81-6.73,2.1-.94,4.21-2,6.31-3.03,2.75-1.36,5.51-2.71,8.26-4.07,1.11-.54,2.23-1.08,3.34-1.63,3.71-1.85,7.45-3.66,11.21-5.41,3.77-1.73,7.59-3.38,11.46-4.89,1.15-.43,2.33-.89,3.59-1.2,1.25-.31,2.57-.49,3.86-.47.64.01,1.28.06,1.91.15.61.08,1.3.2,1.89.39,1.21.36,2.37.79,3.52,1.34.67.33,1.36.67,2.01,1.16.56.42,1.2,1.11,1.29,1.9.04.43-.05.87-.23,1.27Z"/>
</svg>