<?xml version="1.0" encoding="UTF-8"?>
<svg id="Layer_11" data-name="Layer 11" xmlns="http://www.w3.org/2000/svg" viewBox="0 0 314.01 288">
  <defs>
    <style>
      .cls-1 {
        fill: #1c5c7d;
      }
    </style>
  </defs>
  <path class="cls-1" d="M185.44,112.07c-.12-.98-.35-1.94-.48-2.91-.17-.97-.42-1.92-.61-2.88l-.16-.85c-.06-.28-.1-.57-.18-.84l-.42-1.32-.53-1.28-.52-1.28-.61-1.24c-.24-.48-.45-.97-.73-1.42-.3-.44-.61-.86-.96-1.26-.12-.13-.21-.31-.31-.47-.26-.46-.61-.84-.92-1.26l-.95-1.24c-.16-.21-.33-.41-.47-.63-.42-.59-.91-1.1-1.54-1.45-.51-.23-1-.48-1.47-.79-.47-.29-.88-.69-1.36-1.02-.36-.27-.82-.47-1.24-.66-.79-.4-1.59-.76-2.4-1.13-.35-.16-.71-.31-1.07-.45l-1.13-.3c-.9-.24-1.78-.47-2.71-.54-.46-.06-.91-.12-1.37-.21-.23-.04-.45-.09-.68-.15-.23-.03-.46-.06-.7-.11-.85-.15-1.68-.11-2.51-.03-.67.13-1.42.08-2.14.08-1.39-.06-2.46-.42-3.68-.76-.83-.22-2.77.52-4.46.78l-1.6.38c-.1.02-.2.05-.29.08l-.95.36c-.32.11-.61.29-.92.41-.56.24-1.13.47-1.7.69-.57.23-1.09.55-1.64.81-1.1.49-2.04,1.24-2.99,1.96-.49.34-.88.8-1.32,1.2-.41.43-.87.8-1.25,1.26-.28.33-.64.58-.94.91-.39.42-.76.86-1.07,1.35l-1.07,1.6c-.33.55-.62,1.12-.98,1.65l-.44.67c-.14.23-.25.47-.37.71-.23.48-.46.96-.7,1.45-.36.79-.64,1.61-.98,2.42-.15.35-.18.69-.18,1.06-.01.86-.34,1.68-.51,2.53-.11.57-.21,1.14-.28,1.71-.09.56-.12,1.13-.18,1.69-.07.56-.16,1.12-.29,1.67-.11.78-.18,1.56-.21,2.35-.02.79.12,1.57.25,2.36.09.63.15,1.33.14,1.97,0,.68.01,1.37.17,2.03.14.66.32,1.32.48,1.98.22.83.54,1.62.81,2.43.13.41.3.8.48,1.19l.52,1.17c.26.67.63,1.28.96,1.92.33.63.65,1.28,1.06,1.86.31.48.62.96.94,1.43.32.47.68.91.95,1.39.59,1.09,1.52,1.93,2.21,2.99.35.56.9.96,1.44,1.33.56.34,1.14.62,1.8.65.08,0,.18-.03.22,0,.49.36,1.02.64,1.53.95.53.29,1.09.51,1.58.88.41.28.92.55,1.42.67.87.2,1.63.56,2.42.93.66.25,1.36.42,2.12.47,1.04.12,2.17.13,3.25.45.32.09.67.12,1.01.18.79.06,1.59.12,2.38.15.4,0,.8.04,1.19.01.4-.04.79-.09,1.19-.15.75-.12,1.51-.16,2.27-.2.74-.1,1.49-.21,2.23-.35.18-.04.39-.04.54-.1.52-.21,1.03-.44,1.56-.58.53-.15,1.08-.25,1.64-.35.34-.05.65-.22.95-.37.41-.2.83-.39,1.25-.56.42-.18.86-.3,1.25-.51.81-.39,1.67-.67,2.52-.99.7-.3,1.41-.65,2.1-1.06.47-.28.89-.61,1.35-.91.44-.32.9-.64,1.27-1.06.12-.15.25-.28.36-.43l.86-1.15c.14-.19.29-.38.42-.57l.35-.62c.27-.5.59-.95.92-1.4.35-.43.61-.93.92-1.39.28-.45.56-.91.79-1.39.21-.49.42-.99.65-1.47l.41-.85c.13-.29.23-.59.34-.88l.67-1.77c.14-.44.3-.89.34-1.33.19-1.46.46-2.9.73-4.35.08-.81.31-1.6.47-2.42.19-1.1.28-2.24-.05-3.29-.29-.71-.37-1.47-.47-2.23Z"/>
  <path class="cls-1" d="M313.94,236.38c-.1-2.72-.32-5.43-.58-8.13-.52-5.4-1.22-10.76-1.58-16.18-.3-4.52-.79-9.03-.9-13.56-.13-5.16-.02-10.31-.77-15.41-.39-2.65-.83-5.49-.6-8.11.57-6.71,0-13.06-1.72-19.17-1.13-4-1.05-7.97-.33-12.06.26-1.46.5-2.96.56-4.46.21-5.92.35-11.85.5-17.77.03-1.06.14-2.17,0-3.19-.82-6-.68-11.95-.38-18.08.51-10.47.37-21.01.56-31.52.03-1.63.34-3.25.52-4.88.18-1.64.49-3.27.52-4.91l.14-8.42.04-4.21c0-.16,0-.4,0-.6v-.62s-.04-1.24-.04-1.24c-.06-.83-.11-1.66-.2-2.48-.73-6.61-3.09-13.06-6.87-18.44-1.46-2.1-3.07-4.08-4.91-5.77-1.83-1.69-3.88-3.09-6.09-4-3.23-1.31-6.19-2.82-9.28-4.24-3.07-1.43-6.24-2.83-9.6-3.79-2.47-.72-5.03-1.3-7.62-1.59-2.31-.29-4.62-.52-6.93-.54-5.01-.05-10.05-.21-15.07-.04-3.97.07-7.94.32-11.87.97-.44.07-.89.12-1.35.15-1.48-.01-2.99-.11-4.47-.13-7.15-.1-14.3-.33-21.45-.34-2.3,0-4.61.05-6.91.12-1.31.03-2.61.07-3.92.11-2.48.06-4.95.09-7.42.02-4.65-.14-9.26-.42-13.88-.23-2.35.03-4.71.17-7.08.48-5.32.71-10.72,1.12-16.1,1.64-.17.02-.34.02-.52.03-.23,0-.45.01-.68.03-.66.01-1.32.01-1.98.05-.15,0-.3.01-.45.02-5.45,0-10.71-1.07-16.09-1.48-4.5-.34-8.98-1.05-13.31-1.93C106.8.67,97.64-.1,88.28.24c-1.92.04-3.85.12-5.79.25-.71.05-1.42.1-2.13.13-.62,0-1.25-.02-1.86-.07-4.09-.33-8.16-.7-12.19-.5-3.02.03-6.03.31-9.02,1.13-.09.03-.2.04-.3.06-.32-.01-.63-.02-.94,0-2.16.07-4.32.08-6.48.06l-1.62-.02h-.82s-.97,0-.97,0c-.59,0-1.18.02-1.77.05h-.17c-1.29,0-2.58.09-3.87.2-5.14.5-10.24,2.01-14.69,4.61-4.64,2.71-8.85,6.02-12.51,9.87-3.66,3.85-6.77,8.27-9.05,13.15-1,2.11-1.61,4.44-2.4,6.57-.16.45-.32.9-.47,1.36-.14.46-.26.92-.38,1.39-.26.93-.41,1.88-.57,2.82-.14.95-.22,1.91-.28,2.86-.01.48-.02.95-.03,1.43v.7s.02.59.02.59c.13,3.16.5,6.27,1.05,9.26.8,4.35.72,8.39.35,12.46-.45,5-.83,9.85-.23,14.91.34,2.86.51,6.04.09,8.83-.01,1.7-.04,3.4.02,5.1.11,3.02.86,5.68,1.63,8.54.13.49.14,1.01.14,1.51.02,1.74.04,3.48.06,5.22,0,.32,0,.64.11.94.09.26.24.5.39.73,3.87,6.09,4.33,14.62,2.88,21.5-1.11,5.28-1.32,10.64-1.8,15.95-.13.64-.26,1.27-.4,1.9-.29,1.32-.56,2.64-.8,3.97-.05.58-.11,1.15-.16,1.73-1.31,13.79-2.09,27.52-1.97,41.46.09,9.74.41,19.48.48,29.23.03,3.87.13,7.74.05,11.6-.02,2.17.04,4.43.22,6.65.19,2.23.47,4.46.82,6.73.35,2.11.97,4.33,1.88,6.43.91,2.1,2.13,4.08,3.52,5.74,3.5,4.17,7.39,7.76,11.66,10.84,4.27,3.08,8.92,5.65,13.99,7.6l1.38.48.7.23.71.2,1.43.38c.48.11.96.2,1.45.3.97.21,1.95.31,2.94.44.49.06.99.08,1.48.11l.74.04.37.02h.31c.97.04,1.94.06,2.91.06,2.05.02,4.11-.02,6.18-.1.89-.03,1.77-.06,2.66-.1.36-.02.73-.03,1.09-.04.79-.02,1.58-.03,2.38-.04,1.53,0,3.07.01,4.6.05,1.96.05,3.94.12,5.9.13.47,0,.94,0,1.4,0,.02-.02.03-.04.05-.06,3.19.04,6.36-.07,9.42-.76,2.05-.46,3.94-.87,6.12-.78,4.99.2,9.99.43,14.99.45,6.19.03,12.33.2,18.52.53,7.37.39,14.85-.18,22.29-.34,3.32-.07,6.65-.24,9.97-.18.27,0,.55.02.82.04-.05.05-.1.11-.15.16,1.82.19,3.64.49,5.44.44,2.47-.07,4.94-.15,7.41-.24,2.2-.08,4.4-.16,6.6-.24,7.45-.26,14.89-.47,22.36-.28l-.06-.08c2.19.04,4.38.11,6.58.22,2.05.11,4.11.2,6.17.28.03.04.05.07.08.11,4.53.16,9.06.27,13.59.3,1.1,0,2.19-.02,3.29-.07,3.03-.08,6.07-.37,9.11-.56.36,0,.71.03,1.07.05,3.17.17,6.34.4,9.51.51.38.01.75.01,1.12.01-.09-.03-.17-.05-.25-.08-.01,0-.02,0-.03-.01.2,0,.41.02.61.03,4.09.13,7.35-.39,9.93-1.37.82.02,1.62.17,2.44.23,1.36.11,2.77-.34,4.15-.42,1.59-.09,3.18-.02,4.76.2.29.04.59.09.88.05.25-.04.49-.14.73-.2,1.17-.31,2.33.16,3.49.25,1.25.1,2.54.09,3.8.09.05,0,.1,0,.14,0,.8,0,1.6-.02,2.4-.06,2.55-.04,5.13-.31,7.75-.96,1.11-.25,2.19-.62,3.31-1.01,1.08-.44,2.2-.9,3.27-1.49,2.17-1.15,4.29-2.65,6.24-4.59,2.01-1.98,3.96-4.14,5.61-6.46,1.66-2.32,3-4.81,3.8-7.29,1.02-3.12,1.75-6.25,2.33-9.38.58-3.13,1.02-6.26,1.42-9.48.13-.89.18-1.78.23-2.67.05-.98.06-1.56.06-2.27.01-1.37-.01-2.74-.07-4.1ZM230.89,121.97c-.1.98-.2,1.97-.36,2.88-.19.97-.36,1.95-.52,2.93l-.23,1.47-.29,1.47-.29,1.47-.35,1.46c-.12.49-.23.97-.35,1.46l-.41,1.44c-1.39,4.84-3.37,9.48-5.64,13.93-1.91,3.74-4.07,7.34-6.3,10.86-1.77,2.8-3.59,5.68-5.44,8.26-2.04,2.88-3.95,5.94-6.06,8.78-2.18,2.94-4.2,6.41-5.42,9.46-.08.19-.11.39-.2.53-1.95,2.94-3.61,6.04-5.69,8.94-.84,1.17-1.71,2.6-2.45,3.89-1.29,2.23-2.66,4.28-4.09,6.38-1.16,1.72-2.27,3.44-3.34,5.38-1.46,2.67-3.16,5.48-5.03,8.14-.56.79-1.09,1.67-1.64,2.51-2.54,3.86-5.05,7.74-7.39,11.7-1.12,1.89-2.3,3.75-3.48,5.6l-1.78,2.79c-.62.95-1.28,1.92-2.13,2.82-.42.45-.97.88-1.41,1.23-.75.61-1.71,1.1-2.76,1.26-1.04.18-2.15.06-3.11-.29-1.94-.71-3.34-2.09-4.43-3.55-.66-.87-1.24-1.89-1.73-2.71-2.79-4.66-5.36-9.27-7.74-13.93-1-1.96-2.08-3.97-3.23-5.94-1.57-2.71-2.98-5.42-4.74-8.1-.29-.45-.59-.91-.87-1.36-1.53-2.26-3.06-4.55-4.6-6.77-1.85-2.65-3.5-5.4-5.2-8.15-1.62-2.63-3.33-5.2-5.03-7.78-1.99-3.03-3.99-6.06-6.03-9.07-.74-1.09-1.48-2.26-2.23-3.24-2.57-3.34-4.92-6.91-7.24-10.48-1.28-1.98-2.41-4.05-3.56-6.11-1.58-2.78-3.06-5.65-4.79-8.18-1.18-1.74-2.21-3.73-3.17-5.76-2.51-5.19-4.39-10.72-5.65-16.38-.17-.83-.28-1.67-.41-2.5-.15-.83-.2-1.66-.33-2.49-.42-2.68-.63-5.38-.77-8.09-.06-2.71-.05-5.41.19-8.09.07-.78.13-1.56.2-2.34.09-.77.18-1.54.27-2.31.14-1.54.4-3.05.56-4.58.05-.52.19-1.08.3-1.62.6-3,1.44-5.94,2.46-8.81.25-.73.54-1.45.86-2.12.44-.96.83-1.91,1.25-2.85.39-.95.76-1.9,1.13-2.87,1.08-2.96,2.56-5.92,4.53-8.76.37-.57.77-1.14,1.15-1.74.38-.6.74-1.21,1.12-1.77,1.42-2.22,3.13-4.28,4.85-6.31,1.55-1.76,3.09-3.51,4.76-5.16,3.97-3.96,8.17-7.64,13.18-10.56,2.3-1.27,4.42-2.62,6.68-3.84,1.78-1,3.98-1.84,6.06-2.6,4.08-1.45,7.38-1.68,10.89-1.86,1.19-.08,1.98,0,2.52.13.54.12.83.3,1.02.53.04.04.11.08.19.11.16-.02.32-.04.48-.06.19-.02.38-.03.56-.05.33-.3.84-.59,1.58-.86.71-.25,1.63-.5,2.8-.67,1.17-.13,2.58-.2,4.26-.21,1.64.05,3.27.19,4.91.28.3.03.6.06.9.09l3.02.24c1.01.05,2,.26,3,.4,3.64.54,7.2,1.52,10.69,2.62,6.78,2.3,13.29,5.32,19.26,9.27,1.07.73,2.05,1.61,3.11,2.39.7.49,1.33,1.08,2.01,1.61.66.55,1.35,1.07,1.99,1.64,1.4,1.31,2.89,2.55,4.2,3.97.66.7,1.36,1.36,1.99,2.09.62.74,1.23,1.47,1.85,2.2.52.61.99,1.26,1.46,1.9l1.42,1.92c.91,1.31,1.78,2.65,2.66,3.98l1.95,3.35c.6,1.14,1.17,2.3,1.75,3.45.51,1,.93,1.88,1.45,2.81.29.55.59,1.1.86,1.68.25.58.48,1.18.72,1.78.47,1.2.93,2.42,1.28,3.66.26.82.52,1.65.78,2.47.24.83.45,1.67.68,2.49.22.82.47,1.63.64,2.46.16.83.33,1.66.49,2.49.36,1.65.47,3.33.65,4.98.14,1.15.14,2.31.22,3.46l.11,1.73c.04.58.03,1.16.05,1.73.02,1.16.09,2.31.1,3.48-.01,1.16,0,2.33,0,3.51.04.94-.08,1.92-.17,2.91Z"/>
</svg>