<?xml version="1.0" encoding="UTF-8"?>
<svg id="Layer_11" data-name="Layer 11" xmlns="http://www.w3.org/2000/svg" viewBox="0 0 314.01 288">
  <defs>
    <style>
      .cls-1 {
        fill: #1c5c7d;
      }
    </style>
  </defs>
  <path class="cls-1" d="M313.94,236.38c-.1-2.72-.32-5.43-.58-8.13-.52-5.39-1.22-10.76-1.58-16.18-.3-4.52-.79-9.03-.9-13.56-.13-5.16-.02-10.31-.77-15.41-.39-2.65-.83-5.49-.6-8.11.57-6.71,0-13.06-1.72-19.17-1.13-4-1.05-7.97-.33-12.06.26-1.46.5-2.96.56-4.46.21-5.92.35-11.85.51-17.77.03-1.07.14-2.17,0-3.19-.82-6-.68-11.95-.38-18.08.51-10.47.37-21.01.56-31.52.03-1.63.34-3.25.52-4.88.18-1.64.49-3.27.52-4.91l.14-8.42.04-4.21c0-.16,0-.4,0-.6v-.62s-.04-1.24-.04-1.24c-.06-.83-.11-1.66-.2-2.48-.73-6.61-3.09-13.06-6.87-18.43-1.46-2.1-3.07-4.08-4.91-5.77-1.83-1.69-3.88-3.09-6.09-4-3.23-1.31-6.19-2.82-9.28-4.24-3.07-1.43-6.24-2.83-9.6-3.79-2.46-.72-5.03-1.3-7.62-1.59-2.31-.29-4.62-.52-6.93-.54-5.01-.04-10.05-.21-15.07-.04-3.97.07-7.94.32-11.87.97-.44.07-.89.12-1.35.15-1.48-.01-2.99-.11-4.47-.13-7.15-.1-14.3-.33-21.45-.34-2.3,0-4.61.05-6.91.12-1.31.03-2.61.07-3.92.11-2.48.06-4.95.09-7.42.02-4.65-.14-9.26-.42-13.88-.23-2.35.03-4.71.17-7.07.48-5.32.7-10.72,1.12-16.1,1.64-.17.02-.34.02-.52.03-.23,0-.45.01-.68.03-.66.01-1.32.01-1.98.05-.15,0-.3.01-.45.02-5.45,0-10.71-1.07-16.09-1.48-4.5-.34-8.98-1.05-13.31-1.93C106.8.67,97.64-.1,88.28.24c-1.92.04-3.85.12-5.79.25-.71.05-1.42.1-2.13.13-.63,0-1.25-.02-1.86-.07-4.09-.33-8.16-.7-12.19-.5-3.03.03-6.03.31-9.02,1.13-.09.03-.2.04-.3.06-.32-.01-.63-.02-.94,0-2.16.07-4.32.08-6.48.06l-1.62-.02h-.82s-.97,0-.97,0c-.59,0-1.18.02-1.77.05h-.17c-1.29,0-2.58.09-3.87.2-5.14.5-10.24,2.01-14.69,4.61-4.64,2.71-8.85,6.02-12.51,9.87-3.66,3.85-6.77,8.27-9.05,13.15-1,2.11-1.61,4.44-2.4,6.57-.16.45-.32.9-.47,1.36-.14.46-.26.92-.38,1.39-.26.93-.41,1.88-.57,2.82-.14.95-.22,1.91-.28,2.86-.01.48-.02.95-.03,1.43v.7s.02.59.02.59c.13,3.16.5,6.27,1.05,9.26.8,4.35.72,8.39.35,12.46-.45,5-.83,9.85-.23,14.91.34,2.86.51,6.04.09,8.83-.01,1.7-.04,3.4.02,5.1.11,3.02.86,5.68,1.63,8.54.13.49.14,1.01.14,1.51.02,1.74.04,3.48.06,5.22,0,.32,0,.64.11.94.09.26.24.5.39.73,3.87,6.09,4.33,14.62,2.88,21.5-1.11,5.28-1.32,10.64-1.8,15.95-.13.64-.26,1.27-.4,1.9-.29,1.32-.56,2.64-.8,3.97-.05.58-.11,1.15-.16,1.73-1.31,13.79-2.09,27.52-1.97,41.46.09,9.74.41,19.48.48,29.23.03,3.87.13,7.74.06,11.6-.02,2.17.04,4.43.22,6.65.19,2.23.47,4.46.82,6.73.35,2.11.97,4.33,1.88,6.43.91,2.1,2.13,4.08,3.52,5.74,3.5,4.17,7.39,7.76,11.66,10.84,4.27,3.08,8.92,5.65,13.99,7.6l1.38.48.7.23.71.2,1.43.38c.48.11.96.2,1.45.3.97.21,1.95.31,2.94.44.49.06.99.08,1.48.11l.74.04.37.02h.31c.97.04,1.94.06,2.91.06,2.05.02,4.11-.02,6.18-.1.89-.03,1.77-.06,2.66-.1.36-.02.73-.03,1.09-.04.79-.02,1.58-.03,2.38-.04,1.53,0,3.07.01,4.6.05,1.96.05,3.94.12,5.9.13.47,0,.94,0,1.4,0,.02-.02.03-.04.05-.06,3.19.04,6.36-.07,9.42-.76,2.05-.46,3.94-.87,6.12-.78,4.99.2,9.99.43,14.99.45,6.19.03,12.33.2,18.52.53,7.37.39,14.85-.18,22.29-.34,3.32-.07,6.65-.24,9.97-.18.27,0,.55.02.82.04-.05.05-.1.11-.15.16,1.82.19,3.64.49,5.44.44,2.47-.07,4.94-.15,7.41-.24,2.2-.08,4.4-.16,6.6-.24,7.45-.26,14.89-.47,22.36-.28-.02-.03-.04-.05-.06-.08,2.19.04,4.38.11,6.58.22,2.05.11,4.11.2,6.17.28.03.04.05.07.08.11,4.53.16,9.06.27,13.59.3,1.1,0,2.19-.02,3.29-.07,3.03-.08,6.07-.37,9.11-.56.36,0,.71.03,1.07.05,3.17.17,6.34.4,9.51.51.38.01.75.01,1.12.01-.09-.03-.17-.05-.25-.08-.01,0-.02,0-.03-.01.2,0,.41.02.61.03,4.09.13,7.35-.39,9.93-1.37.82.02,1.62.17,2.44.23,1.36.11,2.77-.34,4.15-.42,1.59-.09,3.18-.02,4.76.2.29.04.59.09.88.05.25-.04.49-.14.73-.2,1.17-.31,2.33.16,3.49.25,1.25.1,2.54.09,3.8.09.05,0,.09,0,.14,0,.8,0,1.6-.02,2.4-.06,2.55-.04,5.13-.31,7.75-.96,1.11-.25,2.19-.62,3.31-1.01,1.08-.44,2.2-.9,3.27-1.49,2.17-1.15,4.29-2.65,6.24-4.59,2.01-1.98,3.96-4.14,5.62-6.46,1.66-2.32,3-4.81,3.8-7.29,1.02-3.12,1.75-6.25,2.33-9.38.58-3.13,1.02-6.26,1.42-9.48.13-.89.18-1.78.23-2.67.05-.98.06-1.56.06-2.27.01-1.37-.01-2.74-.07-4.1ZM292.09,104.85c-.31,4.7-.86,9.37-1.6,13.99-1.52,9.03-3.59,17.93-6.4,26.62-1.43,4.34-3,8.64-4.95,12.82-1.94,4.17-4.17,8.19-6.62,12.06-.45.7-.91,1.4-1.37,2.09-.49.68-.97,1.36-1.46,2.04-.48.68-.99,1.35-1.5,2.02l-1.52,2.01c-2.66,3.5-5.47,6.89-8.43,10.15-6.62,7.28-13.95,14.03-21.88,19.72-3.32,2.4-6.73,4.65-10.25,6.74-3.51,2.09-7.11,4.04-10.82,5.81-3.01,1.4-6.07,2.7-9.2,3.82-.78.3-1.58.53-2.36.8-.79.26-1.58.53-2.38.75l-2.4.69-2.43.6c-.71.18-1.39.33-2.06.48-.67.16-1.32.31-1.97.46-.65.14-1.3.28-1.96.42-.33.07-.66.14-.99.21-.34.06-.67.12-1.01.18-3.16.57-6.58.85-10.06.41-3.48-.43-6.91-1.63-9.91-3.26-4.02-2.18-7.62-4.81-11.14-7.4-3.56-2.62-6.82-5.61-9.8-8.73-1.5-1.56-2.93-3.15-4.34-4.73-.7-.79-1.4-1.58-2.1-2.37l-.9-1.02-.48-.56c-.2-.24-.41-.49-.65-.72-.24-.23-.49-.48-.81-.62-.16-.07-.36-.05-.46.07-.1.12-.15.28-.18.43-.06.31-.06.64-.05.97.02.33.06.67.15,1,.04.17.1.33.15.5.03.08.08.2.12.3l.06.16.03.08.05.11c.54,1.21,1.26,2.39,2.07,3.55,1.63,2.31,3.59,4.48,5.45,6.88.93,1.2,1.85,2.46,2.63,3.89.39.71.75,1.46,1.03,2.26.3.8.49,1.66.59,2.54.03.35.07.71.05,1.07v.55s-.06.53-.06.53c-.02.35-.11.72-.17,1.08-.1.37-.18.74-.34,1.11-.28.74-.7,1.5-1.29,2.14-.59.64-1.33,1.14-2.09,1.47-1.54.66-3.05.72-4.42.66-1.37-.08-2.65-.33-3.84-.62-1.28-.31-2.51-.68-3.72-1.04-1.2-.36-2.43-.73-3.64-1.11-2.43-.75-4.85-1.55-7.25-2.38-4.81-1.69-9.57-3.56-14.19-5.79-2.91-1.41-5.76-2.94-8.5-4.71l-2.04-1.35c-.67-.46-1.31-.97-1.96-1.45-1.33-.94-2.53-2.04-3.79-3.07-2.41-2.17-4.75-4.43-6.87-6.89-1.1-1.19-2.09-2.47-3.11-3.73-.52-.62-.97-1.29-1.46-1.94-.47-.66-.98-1.29-1.42-1.97-3.1-4.47-5.79-9.22-8.03-14.18l-.84-1.86-.76-1.9c-.24-.63-.52-1.26-.74-1.9l-.67-1.93c-.48-1.28-.82-2.6-1.22-3.9-.2-.63-.38-1.36-.52-2.03-.15-.68-.27-1.36-.38-2.03-.37-2.12-.66-4.23-1.09-6.26-.22-1-.47-2-.81-2.81-.16-.36-.29-.57-.48-.79-.19-.21-.43-.39-.7-.46-.27-.08-.57-.05-.83.07-.26.12-.48.3-.67.52-.16.17-.38.58-.57.93l-.25.61c-.09.2-.13.44-.2.65-.15.43-.2.92-.31,1.38-.05.48-.14.95-.17,1.44-.04.49-.07.97-.08,1.47-.02.49-.01.98,0,1.48.04,2.19.32,4.41.72,6.61.21,1.09.46,2.2.76,3.25.3,1.04.71,2.08,1.14,3.14.85,2.11,1.81,4.24,2.44,6.55.31,1.15.55,2.35.55,3.6-.01.31-.02.63-.04.94l-.16.94c-.18.63-.41,1.29-.86,1.82-.44.55-1.03,1.01-1.68,1.25-.65.25-1.32.37-1.99.37-1.32-.02-2.6-.39-3.73-1.06-.29-.15-.55-.36-.81-.55l-.72-.61c-.46-.43-.91-.87-1.31-1.35-.82-.95-1.53-1.98-2.13-3.05-.6-1.07-1.14-2.18-1.58-3.3-.46-1.12-.84-2.24-1.18-3.36-.67-2.24-1.18-4.45-1.57-6.55-.09-.52-.25-1-.27-1.43-.26-4.64-.15-9.27.44-13.89.15-1.15.33-2.31.57-3.46.11-.58.24-1.14.39-1.74.15-.61.34-1.17.51-1.73.36-1.1.7-2.13.93-3.12.22-.99.28-1.91.13-2.73-.05-.16-.09-.32-.14-.49-.07-.15-.13-.32-.21-.47l-.13-.22c-.04-.05-.06-.12-.1-.16-.15-.15-.29-.31-.44-.46-.68-.71-1.38-1.42-2.09-2.14-1.42-1.43-2.88-2.86-4.26-4.2-4.74-4.63-9.1-9.34-13.21-14.52-.42-.52-.83-1.06-1.24-1.59-.42-.53-.83-1.09-1.23-1.64-.8-1.1-1.57-2.22-2.33-3.37-.76-1.15-1.51-2.32-2.21-3.58-.35-.64-.7-1.27-1.01-2-.08-.17-.15-.36-.22-.56-.07-.2-.15-.38-.2-.62-.14-.47-.17-.88-.23-1.31-.11-1.18.02-2.45.53-3.65.5-1.19,1.38-2.29,2.54-3.02,1.15-.73,2.54-1.08,3.87-1.02.66.03,1.32.13,1.94.32.32.07.6.21.9.32.15.06.29.11.45.19l.46.26c.15.09.32.18.44.27l.37.28c.25.19.49.38.7.58.21.2.43.39.64.59l.58.6c.76.81,1.46,1.63,2.13,2.47,1.34,1.68,2.57,3.4,3.76,5.12.71,1.02,1.46,2.07,2.22,3.09.38.51.76,1.01,1.14,1.49.41.49.82.98,1.23,1.47l2.84,3.4,2.94,3.31c.49.55.97,1.11,1.48,1.64l1.53,1.6c1.02,1.06,2.02,2.15,3.07,3.18,2.11,2.06,4.2,4.14,6.41,6.09,2.15,2.01,4.44,3.86,6.69,5.73,4.4,3.48,8.82,6.93,13.48,10.05,2.28,1.63,4.68,3.07,7.04,4.57.59.38,1.2.72,1.8,1.07l1.82,1.04c1.22.68,2.42,1.41,3.67,2.02,1.22.62,2.58,1.37,3.65,1.86,7.52,3.27,15.19,6.44,23.24,8.76.3.09.6.18.9.27.3.08.61.15.92.23.61.15,1.23.3,1.85.44,1.24.3,2.5.49,3.73.73,3.38.55,6.77.97,10.15,1.21,3.39.22,6.77.35,10.15.34,6.75-.01,13.48-.41,20.18-.82,2.82-.18,5.7-.37,8.59-.61,1.43-.14,2.88-.24,4.31-.46.72-.1,1.44-.2,2.16-.3l2.15-.39c7.81-1.48,15.35-3.83,22.55-7.77,1.19-.68,2.44-1.31,3.58-2.05,1.5-.9,2.95-1.88,4.4-2.85,1.43-1.01,2.86-2.01,4.25-3.08,2.78-2.12,5.5-4.3,7.99-6.67,3-2.82,5.86-5.75,8.54-8.84,2.68-3.09,5.18-6.33,7.39-9.79,2.09-3.29,3.89-6.79,5.19-10.45.29-.93.59-1.85.86-2.77l.64-2.82.38-2.85c.08-.94.09-1.87-.03-2.7-.08-.48-.22-.91-.41-1.24-.19-.33-.45-.57-.8-.74-.35-.16-.77-.29-1.27-.3-.23-.03-.5,0-.75-.01-.25,0-.48.04-.71.07-.46.08-.88.24-1.29.46-.4.23-.77.53-1.12.88-.69.72-1.27,1.65-1.82,2.63-1.13,2.04-2.17,4.07-3.18,6.18-1.01,2.1-2,4.23-3.07,6.34-.78,1.52-1.62,3.08-2.55,4.55-.46.74-.89,1.49-1.35,2.2-.47.7-.93,1.4-1.37,2.08l-.56.87-.61.84-1.22,1.67c-.4.57-.86,1.08-1.3,1.62l-1.33,1.6c-.94,1.02-1.87,2.05-2.85,3.03l-1.51,1.44-.75.72c-.25.24-.52.46-.79.69-4.18,3.68-8.79,6.84-13.63,9.54-5.37,3-11.13,5.16-16.95,6.95-3.96,1.19-8,2.16-12.01,2.98-4.01.84-8.01,1.48-11.89,2.14-5.32.88-11.1,1.19-16.87,1.16-3.71-.04-7.41-.21-11.11-.54-3.7-.35-7.37-.82-11.06-1.51-3.66-.76-7.3-1.66-10.84-2.87-1.79-.55-3.52-1.25-5.27-1.9-.87-.33-1.72-.71-2.58-1.07-.86-.36-1.72-.71-2.56-1.11-.99-.46-1.96-.93-2.94-1.4l-2.87-1.51c-.96-.49-1.88-1.04-2.81-1.56-.93-.53-1.87-1.05-2.8-1.59-6.02-3.43-11.84-7.19-17.52-11.12-1.42-.98-2.84-1.96-4.24-2.96l-1.05-.75c-.24-.17-.5-.35-.72-.54-.23-.19-.39-.46-.58-.69-.71-.98-.9-2.3-.46-3.42.2-.56.55-1.08.93-1.55.33-.38.67-.73,1.02-1.04.7-.63,1.37-1.15,2.01-1.68,1.34-1.11,2.69-2.2,4.09-3.22,6.53-4.84,13.52-8.63,20.84-11.72,1.24-.53,2.63-1.02,3.96-1.48,1.82-.63,3.68-1.29,5.6-1.82,1.92-.53,3.91-.96,6.02-1.02,1.06-.01,2.15.06,3.26.4,1.1.33,2.22,1.01,2.97,2.02.35.48.64.96.88,1.51.12.27.2.57.29.85.07.3.12.6.15.91.1,1.24-.25,2.46-.8,3.45-.55,1.01-1.28,1.83-2.03,2.55-.76.72-1.57,1.34-2.38,1.91-2.27,1.58-4.63,2.84-6.9,4.14-.57.33-1.13.65-1.67.99-.54.33-1.04.68-1.57,1.07-1.04.76-2.07,1.55-2.99,2.39-.49.47-.87.87-1.21,1.33-.31.46-.64.89-.75,1.4-.02.13-.01.27.06.39.08.11.2.2.34.25.27.1.56.12.84.14.57.01,1.1-.14,1.59-.31.25-.08.49-.18.73-.29l.09-.04.12-.05.34-.16.68-.31c.91-.45,1.83-.91,2.75-1.42,1.84-1,3.7-2.1,5.67-3.16.39-.21.79-.41,1.19-.62.42-.21.84-.42,1.24-.6.81-.38,1.64-.76,2.47-1.13,1.66-.74,3.35-1.45,5-2.09,3.18-1.21,6.47-2.24,9.97-2.82,1.78-.25,3.61-.39,5.4-.27,1.79.1,3.56.33,5.26.66,3.01.56,5.87,1.31,8.69,1.8,2.82.48,5.57.76,8.33.51,6.87-.54,13.54-2.15,19.8-4.76l2.31-1.07,1.16-.53c.38-.19.75-.4,1.12-.6.75-.4,1.5-.81,2.24-1.21.74-.43,1.45-.9,2.18-1.35,1.48-.86,2.83-1.92,4.25-2.9.7-.5,1.35-1.07,2.04-1.61.67-.55,1.37-1.06,2.01-1.67,4.78-4.18,8.58-9.02,11.76-14.3.16-.26.33-.52.49-.79.15-.27.31-.55.46-.83.32-.55.64-1.11.96-1.68.69-1.15,1.25-2.22,1.81-3.41,1.11-2.36,2.09-4.98,3.21-7.62.55-1.29,1.15-2.54,1.81-3.75.33-.6.69-1.19,1.05-1.76.38-.55.76-1.09,1.13-1.62,1.54-2.09,3.23-3.88,4.99-5.47.87-.81,1.8-1.52,2.71-2.23.95-.67,1.88-1.34,2.86-1.92,1.95-1.19,3.97-2.25,6.14-3.08,2.92-1.15,4.98-1.46,6.34-1.58.69-.04,1.23,0,1.64.06.42.06.72.15.97.29.08.05.25.08.44.11.42-.06.85-.12,1.27-.16.5-.05,1-.09,1.5-.12.02,0,.04-.02.06-.03.45-.19,1.01-.43,1.71-.57.69-.14,1.52-.26,2.48-.36.96-.07,2.06-.03,3.32,0,.62.07,1.28.16,1.97.26.35.05.71.1,1.07.16.36.09.73.18,1.11.27,3.02.72,6.62,2.11,10.27,4.75,3.56,2.58,6.57,5.89,8.81,9.65.21.34.42.69.63,1.04.18.36.36.72.54,1.08.3.6.62,1.2.9,1.81l.74,1.88c.12.32.26.63.36.95l.28.97.55,1.95.75,3.89c.18,1.3.32,2.6.47,3.9.4,4.74.39,9.48.13,14.19Z"/>
</svg>