<?xml version="1.0" encoding="UTF-8"?>
<svg id="Layer_11" data-name="Layer 11" xmlns="http://www.w3.org/2000/svg" viewBox="0 0 171.95 260.25">
  <defs>
    <style>
      .cls-1 {
        fill: #737438;
      }
    </style>
  </defs>
  <path class="cls-1" d="M171.61,107.17l-.15-.47c-.42-1.97-1.15-3.89-2-5.65-2.42-5.02-6.77-9.12-12.13-11.25-2.3-.94-4.91-1.43-7.52-1.43-2.63.02-5.16.37-7.73,1.27-2.97,1.03-5.33,2.46-7.51,3.36-1.09.48-2.07.77-2.93.9-.87.14-1.56.07-2.28-.2l-.36-.11-.37-.21c-.25-.13-.5-.24-.75-.46-.23-.19-.55-.38-.72-.55-.18-.16-.35-.33-.49-.53-.59-.74-.94-1.73-1.01-2.86-.06-1.3.12-2.81.85-4.01.11-.21.27-.39.39-.59l.16-.15,1.47-1.01c1.12-.73,2.26-1.44,3.45-2.12,2.36-1.38,4.81-2.68,7.3-4.02,1.41-.76,2.88-1.42,4.25-2.23,2.1-1.25,4.2-2.57,6.25-4.07.51-.39,1.01-.75,1.53-1.17l1.56-1.33,1.46-1.47c.47-.51.9-1.06,1.34-1.6,1.41-1.84,2.56-3.92,3.35-6.15,1.72-4.74,1.56-10.09-.28-14.7-1.81-4.63-5.24-8.61-9.65-10.98-3.84-2.09-8.36-2.87-12.57-2.31-2.14.23-4.1.77-6.13,1.53-2.07.84-3.68,1.84-5.28,2.72-1.84,1.04-3.59,1.99-5.19,2.49-.78.22-1.52.38-2.11.34-.56-.03-1.15-.24-1.38-.39-.24-.19-.51-.56-.75-1.19-.25-.61-.37-1.5-.47-2.39-.16-1.85-.07-3.91-.02-6.15.24-6.78-2.6-13.64-7.32-18.61-1.77-1.84-3.75-3.47-5.91-4.81-2.18-1.3-4.48-2.36-6.89-3.11-2.11-.6-4.27-1.08-6.45-1.27-2.31-.26-4.63-.29-6.94-.01-.93.14-1.86.26-2.77.52-.92.22-1.83.47-2.72.78-6.24,1.95-11.92,6.12-15.42,11.68-2.68,4.16-4.17,8.9-4.84,13.6-.08.61-.19,1.13-.24,1.82-.06.7-.05,1.35-.04,1.96.04,1.23.15,2.34.19,3.37.05,1.02.02,1.94-.15,2.63-.18.69-.41,1.06-.85,1.42-.76.57-1.59.76-2.77.53-1.16-.21-2.49-.77-3.83-1.44-2.16-1.06-4.26-2.42-6.88-3.64-1.39-.66-2.77-.91-4.16-1.32-.68-.24-1.42-.23-2.13-.34-.72-.07-1.43-.22-2.16-.2-3.26-.1-6.52.61-9.51,1.93-3.01,1.32-5.58,3.5-7.61,6.05-2.36,3.01-3.86,6.73-4.2,10.59-.4,3.87.58,7.76,2.26,11.11l.78,1.56,1.03,1.51c.33.52.75.93,1.14,1.38.4.44.78.9,1.22,1.27,1.66,1.64,3.51,2.88,5.34,4.11,4.75,3,9.71,5.21,14.23,7.74,1.43.8,2.8,1.63,4.07,2.53.59.47,1.26.9,1.77,1.41l.81.74c.21.25.44.48.64.73,1.57,2.02,2.05,4.84,1.01,7.08-.39.89-.98,1.67-1.74,2.31-.74.66-1.71,1.12-2.62,1.38-1.81.59-3.85-.01-6.1-1.07-1.44-.68-2.93-1.52-4.58-2.29-.83-.38-1.7-.75-2.64-1.05-.91-.29-2.01-.55-2.93-.62-.97-.09-1.99-.29-3-.3l.05.09c-1.17-.06-2.34.08-3.51.18-1.16.21-2.32.36-3.45.73-2.27.63-4.47,1.59-6.44,2.95-1.96,1.34-3.79,2.96-5.18,4.95-1.4,1.97-2.46,4.18-3.09,6.51-.16.58-.24,1.18-.36,1.76-.13.59-.2,1.18-.23,1.78-.04.6-.1,1.18-.11,1.79.03.62,0,1.24.11,1.86.25,2.51,1.25,4.94,2.56,6.95,1.32,2,2.84,3.67,4.22,5.25.7.8,1.36,1.57,1.98,2.36l.48.62c.23.3.48.59.76.86.28.27.59.52.92.75.15.11.38.24.49.3l.35.2c.9.61,1.83,1.2,2.79,1.78.98.58,2,1.19,2.97,1.76,9.45,5.86,19.09,11.59,28.93,17.16l3.37,1.9.84.47.42.24.12.09c.23.13.41.37.6.62.34.53.57,1.3.53,2.04,0,.75-.28,1.4-.61,1.82-.12.1-.21.23-.34.3-.04.05-.13.11-.26.17l-.33.19c-.44.19-.84.37-1.26.39-.81.13-1.89-.15-3.28-.7-.82-.31-1.74-.68-2.75-.96-.98-.3-2.19-.49-3.22-.5-2.03-.1-4.11.17-6.12.75-4.04,1.25-7.46,4.15-9.51,7.59-.29.48-.62.94-.91,1.54-.32.59-.69,1.26-1.06,2.17-.24.55-.7,1.94-1.06,3.33-1.24,4.8-1.27,9.77-.38,14.57.71,3.83,2.11,7.58,4.29,10.95,1.11,1.67,2.44,3.22,3.96,4.59,1.56,1.34,3.32,2.46,5.21,3.31l-.22-.11,3.27,1.82,2.99,1.7c4.48,2.49,9.09,4.94,13.42,7.48,5.7,3.34,11.39,6.51,17.21,9.67l4.04,2.21c.32.21.59.5.76.82.09.16.15.33.19.51l.05.28.04.55c.22,2.98.17,6.2.12,9.37l-.19,6.99-.07,3.55c0,1.18-.03,2.42.18,3.86.04.44.15.92.28,1.41.09.46.33,1.01.55,1.52.54,1.09,1.4,2.15,2.51,2.75,1.11.62,2.46.79,3.42.78,1,0,1.83-.13,2.64-.24,1.15-.17,2.21-.36,3.19-.48,1.5-.17,3.16-.91,4.28-2.07,1.16-1.15,1.9-2.71,2.05-4.32.07-.92,0-1.27,0-1.84-.03-.52-.06-1.05-.11-1.57-.17-1.39-.35-2.78-.5-3.99.03-2.32.05-4.33.07-6.35.03-2.75-.28-5.56-.68-8.28-.07-.47-.14-.95-.25-1.42-.14-.61-.1-1.73.07-1.98.4-.59.9-1.06,1.6-1.25.66-.18,1.84-1.5,3.53-2.3,4.41-1.99,9.04-4.21,13.63-6.38,1.09-.52,2.35-1.19,3.49-1.84,2.65-1.5,5.25-3.07,7.9-4.54l9.81-5.39,2.45-1.34c.82-.45,1.62-.86,2.54-1.5,1.77-1.18,3.33-2.57,4.64-4.17,1.28-1.5,2.36-3.15,3.23-4.89.91-1.72,1.58-3.54,2.12-5.38,1.07-3.7,1.47-7.55,1.23-11.39-.1-1.24-.25-2.49-.47-3.72-.51-2.88-1.45-5.76-3.02-8.38-1.56-2.61-3.75-5-6.52-6.59-2.76-1.59-5.95-2.33-9.01-2.37h-1.15s-1.13.08-1.13.08l-1.13.1c-.4.05-.88.14-1.29.24-1.64.42-2.94,1-4.06,1.37-.79.27-1.46.39-1.82.35-.35-.04-.44-.1-.77-.4-.32-.26-.68-.92-1.02-1.55-.3-.61-.38-1.11-.37-1.42.03-.34.15-.72.71-1.35.54-.6,1.32-1.27,2.26-1.93l1.34-1,1.41-.94c.93-.64,1.93-1.2,2.91-1.78,5.4-3.08,11.23-5.56,17-8.4,3.7-1.83,7.4-3.75,11.04-5.93.91-.53,1.81-1.1,2.71-1.7.9-.57,1.79-1.19,2.66-1.84.89-.61,1.74-1.31,2.59-2.02.85-.66,1.73-1.5,2.54-2.34,3.48-3.6,5.62-8.64,6.18-13.58.22-1.43.03-3.41-.24-5.1ZM121.67,118.33c-.31.57-.75,1.12-1.36,1.71-.38.33-.75.63-1.11.9-.04.03-.08.06-.12.1-2.21,1.87-4.82,4-7.48,5.65-.45.28-.96.67-1.55,1.18-1.26,1.1-2.53,2.2-3.81,3.29-2.96,2.54-6.01,5.16-8.89,7.89-.38.36-.79.71-1.2,1.04l-3.99,3.22c-.71.41-1.22,1.1-1.39,1.9l-.04.17c-.04.17-.06.35-.06.53l-.04,1.41-.07,3.31-.08,7.22-.04,2.23c-.04,2.75-.08,5.35-.27,7.99-.2,2.71-.11,5.66,0,8.46l.06,1.89c0,.07,0,.13.01.2l.04.4c0,.11.01.27.01.45,0,.05.02.53.02.53.04.93.53,1.78,1.31,2.29.47.31,1.02.47,1.57.47.35,0,.71-.07,1.05-.2l.35-.13c.09-.03.17-.07.26-.12.33-.17.66-.36,1-.6.07-.04.35-.23.82-.67l1.75-1.6c1.17-1.09,2.36-2.2,3.63-3.23.2-.16.41-.34.62-.52.26-.23.48-.42.69-.56.02-.01.12-.08.14-.09.3-.21.6-.42.95-.61l.31-.18c.32-.18.55-.32.82-.42l.87-.34c.07-.02.22-.05.36-.07l.41-.08c.14-.03.27-.06.42-.07.23,0,.55.02.87.05.93.12,1.91.61,2.59,1.32.66.69,1.15,1.77,1.25,2.77.12,1.01-.05,2.01-.48,3-.21.48-.46.9-.75,1.25l-.29.36-.77.82c-.35.37-.7.69-1.05,1l-.24.22c-2.12,1.78-4.45,3.38-6.71,4.92-.6.41-1.21.82-1.8,1.24-2.94,2.03-5.4,3.9-7.5,5.73-.27.24-.49.43-.71.62-.16.13-.34.28-.51.44h-.01c-.55.37-1.14.99-1.49,2.04-.03.1-.06.2-.08.3-.17.78-.29,1.76-.35,2.7l-.13,2.79c-.01.41-.06.85-.14,1.39,0,.05-.01.1-.02.16-.01.05-.16.59-.16.59-.05.2-.11.36-.18.52-.4.91-.95,1.5-1.51,1.69-.52.19-1.05.27-1.62.27-.42,0-.85-.05-1.28-.14-.8-.18-1.56-.65-1.97-1.23-.2-.27-.38-.59-.53-.89l-.16-.37c-.08-.2-.17-.38-.22-.56-.01-.05-.03-.09-.04-.14-.57-1.59-.71-3.07-.87-4.63l-.19-1.86c-.05-.44-.08-.56-.1-.65,0-.03-.1-.39-.11-.44l-.06-.19c-.19-.6-.57-1.12-1.08-1.49l-.16-.12c-.06-.05-.13-.09-.2-.13l-.17-.1c-2.83-2.06-5.64-4.15-8.69-6.48l-.23-.18c-.32-.25-.65-.5-.96-.69-3.29-2.01-6.45-4.48-9.37-6.85-.08-.06-.16-.12-.24-.18-.37-.24-.67-.69-.99-1.46-.1-.24-.27-.66-.3-.86,0-.09-.02-.18-.04-.27-.05-.23-.04-.62-.02-.93.07-.85.33-1.75.72-2.45.43-.76,1.05-1.42,1.75-1.87.86-.56,1.9-.88,2.83-.88.19,0,.37.01.54.04l.26.06c.26.06.51.11.77.21.17.07.62.26.76.34.07.05.09.06.16.1.55.32.98.65,1.48,1.02l.16.12c.83.65,1.6,1.33,2.42,2.05l.54.48,2.88,2.56.73.64.29.24.46.36c.64.49,1.19.81,1.78,1.05.38.17.8.26,1.19.26.8,0,1.58-.34,2.12-.92.39-.41.83-1.11.8-2.16v-.26c.11-.32.16-.69.17-1.11v-.37s-.1-4.52-.1-4.52l-.15-7.54c-.02-1.6-.03-3.22-.04-4.84-.02-3.05-.04-6.21-.14-9.3l-.1-3.94-.04-2.45c-.01-.77-.33-1.5-.88-2.03l-.43-.42-1.32-1.23-2.87-2.63c-.83-.77-1.62-1.42-2.34-1.93-2.78-1.97-4.7-4.03-6.74-6.53-1.08-1.33-2.13-2.53-3.93-3.86-.22-.16-.68-.54-1.45-1.4-1.97-2.2-3.76-3.88-5.82-5.46-.49-.36-1.02-.78-1.54-1.24-.26-.23-.52-.46-.78-.71l-.41-.42c-.07-.07-.21-.22-.31-.35-.1-.12-.15-.2-.19-.29-.33-.73-.44-1.41-.37-2.25.07-.72.34-1.41.78-1.98.42-.56,1.06-1,1.69-1.16.28-.08.54-.11.81-.11.43,0,.89.09,1.32.25.06.02.12.04.18.06.06.05.12.1.17.16.15.13.3.26.45.38l7.28,6.27c1,.86,2.13,1.83,3.21,2.51,1.16.72,2.31,1.6,3.51,2.67.57.5,1.12,1.02,1.66,1.55,0,0,1.23,1.23,1.3,1.31.02.02.03.04.05.06.52.62,1.07,1.04,1.48,1.35l.25.19c.47.37.89.64,1.28.89.17.11.34.21.5.33.51.38,1.11.57,1.72.57.47,0,.94-.11,1.37-.34.99-.53,1.58-1.58,1.52-2.7,0-.13-.02-.25-.01-.35.28-.78.19-1.45.14-1.9-.08-.72-.13-1.23-.16-1.78-.03-1.11-.05-2.32-.06-3.53-.01-2.49.05-4.93.19-7.25.03-.58.03-1.18.02-1.78l-.04-7.71c0-.67-.04-1.33-.08-1.98,0,0-.09-1.77-.12-2.24-.06-1-.11-1.94-.11-2.86l.03-2.32.02-1.15v-.29c.14-.81.02-1.99-1.17-3.11-.12-.12-.58-.54-.95-.85l-.89-.73c-2.16-1.7-4.41-3.33-6.58-4.9-1.38-1-2.77-2.01-4.15-3.04-.23-.17-.47-.33-.71-.48-.15-.09-.29-.18-.43-.29-.71-.59-1.43-1.16-2.15-1.73-1.44-1.14-2.79-2.22-4.17-3.49-.32-.27-1.05-1.04-1.46-1.7-.26-.42-.39-.92-.35-1.36.06-.68.31-1.55.65-2.27.38-.8.84-1.43,1.34-1.85.09-.07.25-.18.43-.28.67-.31,1.4-.47,2.12-.47.26,0,.53.02.79.06.66.1,1.04.22,1.55.39.41.14.85.33,1.26.52,1.83.89,3.29,1.96,4.59,2.99.96.77,1.98,1.66,3.08,2.71.06.12.13.25.22.4.38.65.88,1.24,1.45,1.71.04.03.24.18.24.18.5.37,1.11.57,1.72.57.18,0,.37-.02.55-.05.8-.16,1.49-.64,1.92-1.33.19-.3.35-.7.41-1.05l.03-.19c.04-.29.07-.51.08-.74l.05-1.12.05-3.24.05-2.32c.05-2.25.09-4.49.11-6.74,0-1.06-.03-2.12-.06-3.18-.03-.95-.06-1.9-.06-2.86,0-1.55.04-3.11.07-4.66.02-.94.07-3.59.07-3.59.02-1.09.04-2.21-.01-3.33-.07-1.49-.11-2.97-.15-4.46l-.04-1.96s0-.16,0-.18c.05-.94.25-1.67.61-2.14.06-.08.12-.17.17-.25.07-.12.35-.36.57-.56l.11-.09.03-.02c.25-.16.62-.4.77-.45.05-.02.19-.07.24-.09.63-.27,1.29-.37,2.14-.42.12,0,.24,0,.35,0,.32,0,.52.01.7.04.08.02.16.03.25.04.32.03.59.12,1.08.28l.22.07c.69.25,1.29.65,1.65,1.12.39.51.34,1.9.31,2.57l-.05,2.91c-.03,1.93-.05,3.86-.03,5.78.02,1.75.09,3.5.16,5.24.08,1.8.16,3.67.16,5.48.01,4.54-.07,8.2-.28,11.52-.1,1.62-.17,3.27-.21,4.91l-.03,1.16v1.01s.04,1.24.04,1.24c.02.63.25,1.24.65,1.73.58.71,1.49,1.14,2.4,1.14.35,0,.7-.06,1.02-.2.75-.31,1.3-.76,1.66-1.06l.04-.04c.42-.18.84-.45,1.28-.78.36-.27.93-.78,1.19-1.01l1.23-1.12c.48-.44.93-.88,1.38-1.31,1.13-1.07,2.19-2.09,3.37-3.04l1.09-.86.2-.15.41-.27c.09-.05.24-.13.4-.2.13-.04.27-.07.41-.1l.4-.1c.08-.02.19-.05.39-.06.06,0,.13-.01.19-.02.17-.02.34-.03.52-.03.24,0,.48.02.73.04.83.11,1.67.46,2.3.99.65.53,1.11,1.28,1.29,2.08.33,1.26.11,2.77-.53,3.77-.04.06-.08.13-.11.2-.02.03-.57.72-.57.72l-.2.21c-.34.36-.68.71-1.02,1.02-.67.63-1.35,1.22-2.26,1.95-1.43,1.15-2.95,2.25-4.64,3.37-3.17,2.1-6.35,4.53-9.73,7.43-.2.16-.42.38-.63.6-.07.07-.14.15-.21.21l-.17.11c-.07.04-.19.13-.53.39-.09.06-.26.16-.45.24-1.04.44-1.73,1.46-1.76,2.59-.06,2.39.02,4.8.09,7.12.03,1.02.06,2.03.08,3.05l.33,12.06c.02.67-.02,1.37-.06,2.07-.02.35-.04.69-.05,1.04-.06,1.69-.08,3.5-.06,5.7l.02,1.28.03.58.05.91c0,.07,0,.16,0,.25,0,0-.02.27-.02.27-.11,1.14.38,1.9.69,2.27.55.64,1.38,1.02,2.22,1.02.05,0,.1,0,.15,0,1.33-.03,2.28-.74,2.6-.98l1.34-1.02,1.98-1.62c1.47-1.22,2.88-2.51,4.25-3.76,1.09-1,2.19-2,3.31-2.96.2-.17.41-.34.62-.51.59-.48,1.2-.97,1.71-1.56.77-.88,1.76-1.61,2.8-2.39.65-.48,1.29-.96,1.92-1.49.12-.04.38-.08.56-.12.63-.11,1.49-.26,2.27-.88.18-.14.38-.34.6-.57.25-.27.34-.36.73-.47.04,0,.28-.06.6-.06.52,0,1.04.11,1.54.34.81.36,1.92,1.29,2.41,2.75.23.65.31,1.39.25,2.21-.1.77-.35,1.52-.68,2.12Z"/>
</svg>