<?xml version="1.0" encoding="UTF-8"?>
<svg id="Layer_11" xmlns="http://www.w3.org/2000/svg" version="1.1" viewBox="0 0 569.2 141.1">
  <!-- Generator: Adobe Illustrator 29.3.1, SVG Export Plug-In . SVG Version: 2.1.0 Build 151)  -->
  <defs>
    <style>
      .st0 {
        fill: #1c5c7d;
      }
    </style>
  </defs>
  <g>
    <path class="st0" d="M95.4,142.1c-.1-.2-.3-.4-.4-.6-1.3-1.7-2.6-3.3-3.9-5.1-1.7-2.2-3.5-5.5-5.4-7.5-1.1-1.2-1.5-.1-2.2.9-.8,1.1-1.5,2.2-2.2,3.3-.7,1.1-1.4,2.3-2.1,3.5-.7,1.2-1.4,2.3-2.1,3.4-.3.4-.5.8-.8,1.2-.1.2-.3.4-.4.7,0,.1-.2.4-.2.6,0,0,0,0,0,.1,0,.2.3.3.5.4.5.1,1.1.1,1.6.1,1.5,0,2.9,0,4.4-.1,1.5,0,2.9-.1,4.4-.2s2.9,0,4.4-.1h3.5c.2,0,.5,0,.7,0,.1,0,.2-.1.2-.2,0,0,0-.1,0-.2h0Z"/>
    <path class="st0" d="M119.3,142.4c-.2-.5-.8-.8-1.2-1.2-.5-.4-.9-.8-1.4-1.2-.9-.8-1.8-1.6-2.6-2.4-.4-.4-.8-.7-1.1-1.1-2-1.8-4-3.6-5.9-5.5-.4-.4-1.5-1.9-1.9-2.1-.4-.2-.6.3-.9.5-2.1,1.4-2.2-.5-2.1-2.1,0-1,.6-3.4.3-4.2-.3-.8-1-.2-1.5,0-1,.6-3.3,2.9-4.2,2.8-.4,0-.8-.3-.8-.7-.1-1,.7-1.6.7-2.6.1-1.7-.7-1.1-1.6-.4-2.1,1.6-3.7,3.6-3,6.5.4,1.6,4.4,6.1,5.6,7.7.9,1.2,1.7,2.3,2.6,3.5.4.5.7,1,1.1,1.4.3.4.6.9,1.1,1.1.6.3,1.3.3,2,.3.7,0,1.5,0,2.2,0,.8,0,1.6,0,2.5,0,1.9,0,3.9-.2,5.8-.3.3,0,.6,0,.9,0,1,0,2,.1,3,.2.1,0,.3,0,.4,0,0,0,.2,0,.2-.2,0,0,0,0,0-.1s0,0,0-.1h0Z"/>
    <path class="st0" d="M68.1,96.9c1.2-.1,2.7-1.4,3.7-2.1,6.1-4.7,12.9-11.6,15.9-18.8.3-.7,1.2-3.1-.4-2.8-1.2.2-2.3,3.1-3,4.2-4.5,7.6-9.5,13.3-16.7,18.5-.6.8-.6,1.1.5,1Z"/>
    <path class="st0" d="M74.4,107.3c-4.6,4.3-9.7,8.6-14.8,12.2-1.7,1.2-5,3-6.3,4.3-.6.6-1,1.7.2,1.6,1.3,0,5.1-2.5,6.4-3.3,6.3-4,12.8-9.4,18.2-14.6,10.1-9.7,22.6-24.8,20.7-39.9-.1-.9-1-4.8-2.3-4.6-.5,0-.4,1.4-.3,1.8,0,.8.3,1.6.4,2.4,1.4,14.5-13.7,27.3-24.5,34.6-3,2.1-7.4,4.1-10.1,6.4-.4.3-.9.8-.7,1.4.2.6,1.3.2,1.8,0,3.6-1.1,9.4-4.8,12.6-7,1-.7,4.7-3.6,5.4-3.8,1.3-.4.7.9.2,1.5-1.6,2.2-4.8,5-6.9,6.9h0Z"/>
    <path class="st0" d="M107.7,40.6c3.6-.6,3.4-6.2-.6-6-4.4.2-4.1,6.8.6,6Z"/>
    <path class="st0" d="M124.9,43.1c-.3-.2-.6-.4-.9-.3-.5.2-.4.7-.2,1.1.4,1.1,3.5,4.1,4.7,4.1,1.1,0,.8-1.1.4-1.8-.6-.8-3.1-2.6-4-3.1h0Z"/>
    <path class="st0" d="M129.2,52.5c-.2,0-.5-.1-.7,0-.6.2.4,2.3.6,2.7.7,1.6,2.2,3.4,3.5,4.5.5.4,1.9,1.3,2.4.8.4-.7-.2-1.6-.5-2.2-.6-1-4.4-5.4-5.2-5.7h0Z"/>
    <path class="st0" d="M135.9,80.3c.2.4.8,1.2,1.3,1.2.8-.3.8-1.4.7-2.2-.2-2.3-2.2-9.8-3.5-11.6-.2-.3-.7-.7-1-.7-.3,0-.5.3-.6.6-.3,1.5.7,3.3,1.1,4.7.6,2.3,1.2,6.1,2,8h0Z"/>
    <path class="st0" d="M128.4,95.6c-.2.7-1,2.5.2,2.7.8.1,1.2-.4,1.7-.9,3.3-3.6,4.4-14.3,2.4-18.6-.1-.3-.5-.9-.9-.7,0,0-.2.6-.2.7-.4,1.5,0,3.9,0,5.6-.3,4.3-1.7,7.4-3.1,11.2h0Z"/>
    <path class="st0" d="M35.5,41.6c0,0-.1,0-.2,0-.1,0-.2,0-.3-.2,0,0,0,0,0-.1h0c0,0,0-.1,0-.1h0c0-.3-.1-.5-.1-.7v-.3c0,0,0,0,0,0,0,0,0,0,0,0h0c0-.1,0-.2-.2-.3h0s0,0,0,0h0c-.4-.3-.9-.7-1.3-1h0c0,0,0-.1-.2-.1-.5-.3-1-.7-1.5-1.1,0,0,0,0,0,0,0,0,0-.1-.2-.2,0,0,0,0,0-.1h0v-.2c0-.1,0-.3.1-.4,0-.1.2-.2.3-.3.1,0,.3-.1.4-.1h.1s0,0,.1,0c0,0,0,0,.1,0t0,0c0,0,.2,0,.2.2h0c.1.1.2.2.4.3h0c0,0,.4.5.4.5h.1c0,0,0,.1,0,.1h0c0,.1.2.2.3.2,0,0,.1,0,.2,0,.1,0,.2,0,.3-.1,0,0,.1-.2.1-.3h0s0-.2,0-.2h0c0,0,0-.8,0-.8v-1.2c0-.2,0-.5,0-.8,0-.5,0-1,0-1.4v-.6s0-.4,0-.4c0-.1,0-.2-.1-.3h0c0,0-.2-.3-.2-.3l-.4-.4c-.1-.1-.2-.2-.4-.3-.4-.3-.7-.6-1.1-1-.2-.2-.3-.4-.6-.6,0,0-.1,0-.2-.2-.3-.3-.6-.6-.9-.8,0,0-.2-.1-.2-.2,0,0,0,0-.1-.1h0c0,0,0,0,0-.1s0,0,0,0c0-.1,0-.2,0-.3,0-.1,0-.2.1-.3s.2-.2.3-.2c0,0,0,0,.1,0s.1,0,.2,0h0s0,0,0,0c0,0,0,0,0,0l1.1,1c.2.1.3.3.5.4.2.1.4.2.6.4,0,0,.2.2.3.2l.2.2h0c0,0,.2.2.2.2h0c0,0,.1.1.2.2,0,0,0,0,0,0,0,0,.2,0,.3,0s.2,0,.2,0c.2,0,.2-.2.2-.4h0c0-.2,0-.3,0-.4,0-.1,0-.2,0-.3v-.6c0-.4,0-.8,0-1.1v-1.5c0,0,0-.2,0-.3,0,0,0-.3,0-.3,0-.2,0-.3,0-.4v-.5h0c0-.2,0-.3-.2-.5,0,0,0,0-.2-.1h-.1c-.3-.4-.7-.6-1-.9-.2-.2-.4-.3-.6-.5,0,0,0,0-.1,0,0,0,0,0,0,0-.1,0-.2-.2-.3-.3-.2-.2-.4-.3-.7-.5,0,0-.2-.2-.2-.3,0,0,0-.1,0-.2,0-.1,0-.2,0-.3,0-.1.1-.2.2-.3,0,0,0,0,0,0,0,0,.2,0,.3,0h.1c0,0,.2,0,.2,0,0,0,.1,0,.2,0,.3.1.5.3.7.5.2.1.3.3.5.4,0,0,0,0,0,0,0,0,.1.2.2.3h0c0,0,.2.1.3.1h0c.1,0,.2,0,.3-.2,0,0,0-.1,0-.2h0s0-.1,0-.2v-.7s0-.4,0-.4c0-.3,0-.7,0-1v-.9c0-.2,0-.5,0-.7,0-.2,0-.6,0-.6v-.5c0-.2,0-.5,0-.7v-.3h0c0-.2,0-.3,0-.4,0,0,0,0,0,0,0,0,0,0,0,0h0s0,0,.1,0c0,0,0,0,0,0,0,0,.2,0,.3,0h.2c0,0,0,0,.2,0h0c.1,0,.2.1.3.2,0,0,0,.3,0,.4v.5c0,.3,0,.6,0,.9,0,.3,0,.5,0,.8,0,.3,0,.6,0,.8,0,.7,0,1.3,0,1.8,0,.2,0,.5,0,.8v.5c0,0,0,.2.1.3,0,.1.2.2.4.2s.1,0,.2,0c.1,0,.2-.1.3-.2h0c0,0,.1,0,.2-.1h0c0,0,.2-.1.2-.2l.2-.2c0,0,.1-.1.2-.2.2-.2.3-.3.5-.5h.2c0-.1,0-.1,0-.1h0s0,0,0,0c0,0,0,0,0,0h0s0,0,0,0h.2c.1,0,.3,0,.4.2s.2.2.2.3c0,.2,0,.4,0,.6,0,0,0,0,0,0h0c0,.1,0,.1,0,.1,0,0-.1.1-.2.2,0,0-.2.2-.3.3-.2.2-.5.3-.7.5-.5.3-1,.7-1.5,1.2,0,0,0,0,0,0h0s0,0,0,0c0,0,0,0,0,0,0,0,0,0,0,0-.2,0-.3.2-.3.4,0,.4,0,.8,0,1.1,0,.2,0,.3,0,.5v1.9c0,0,0,.2,0,.3v.2c0,.3,0,.5,0,.9v.2h0v.2h0c0,.3,0,.4.1.4,0,0,.2.2.3.2h0c.2,0,.3-.1.4-.2l.2-.2.3-.2c.2-.2.4-.4.7-.6.2-.2.3-.3.5-.5,0,0,0,0,0,0,0,0,.2-.2.3-.2.1-.1.3-.2.4-.4,0,0,.2-.2.3-.2,0,0,0,0,0,0,0,0,.2,0,.3-.1,0,0,0,0,0,0,0,0,0,0,.1,0h0c0,0,.2,0,.2,0,.1,0,.3.2.4.4,0,0,0,.2,0,.3,0,.1,0,.2-.1.3,0,0-.1.2-.2.3,0,0-.1,0-.2.1,0,0,0,0,0,0-.3.3-.8.6-1.2.9,0,0-.2,0-.2.2-.2.2-.4.3-.6.5-.5.4-.9.8-1.4,1.2,0,0-.1.1-.2.2l-.6.5c-.1,0-.2.2-.2.3h0s0,0,0,.1v.7s0,1.1,0,1.1v.3c0,.4,0,.8,0,1.2,0,.4,0,.9,0,1.3v.3s0,0,0,0h0v.2c0,.1,0,.3.2.4,0,0,.2,0,.2,0s.1,0,.2,0h0s0,0,0,0c0,0,0,0,.2,0,0,0,0,0,.1,0l.3-.2c.2-.2.4-.3.6-.5,0,0,0,0,0,0,0,0,0,0,.1,0h0c0,0,0,0,.2,0h0s0,0,.1,0h.1c0,0,0,0,0,0h0s0,0,0,0h.1c.1,0,.3,0,.4.2,0,.1.2.3.2.4,0,.2,0,.3,0,.5,0,0,0,.1-.1.2h0c0,0-.1.2-.1.2,0,0-.1.1-.2.2h0c-.3.3-.7.6-1,.8,0,0-.2.1-.3.2-.5.3-.8.6-1.2.9,0,0,0,0-.1,0s0,0,0,0h0c0,0-.2.2-.2.3,0,0,0,0,0,0,0,.1,0,.3,0,.4v.4c0,0,0,.1,0,.2h0s0,.1,0,.1c0,0,0,0,0,0,0,.1-.2.2-.2.3s-.2,0-.2,0h0Z"/>
    <path class="st0" d="M153.4,117.7c0-1.4-.2-2.7-.3-4-.3-2.7-.6-5.3-.8-8-.1-2.2-.4-4.5-.4-6.7,0-2.6,0-5.1-.4-7.6-.2-1.3-.4-2.7-.3-4,.3-3.3,0-6.5-.9-9.5-.6-2-.5-3.9-.2-6,.1-.7.2-1.5.3-2.2.1-2.9.2-5.9.2-8.8,0-.5,0-1.1,0-1.6-.4-3-.3-5.9-.2-9,.2-5.2.2-10.4.3-15.6,0-.8.2-1.6.3-2.4s.2-1.6.3-2.4v-4.2c0,0,0-2.1,0-2.1v-1.2c0-.4,0-.8-.1-1.2-.4-3.3-1.5-6.5-3.4-9.1-.7-1-1.5-2-2.4-2.9-.9-.8-1.9-1.5-3-2-1.6-.7-3.1-1.4-4.6-2.1-1.5-.7-3.1-1.4-4.8-1.9-1.2-.4-2.5-.6-3.8-.8-1.1-.1-2.3-.3-3.4-.3-4.1,0-8.3-.2-12.4.4-1.2.2-2.6,0-3.8,0-3.6,0-7.1-.2-10.6-.2-3,0-6.1.2-9.1.1-3.2,0-6.3-.3-9.4,0-2.6.3-5.3.6-8,.8-.5,0-1.1,0-1.6,0-3.1.2-6.1-.5-9.2-.7-2.2-.2-4.5-.5-6.6-1-5.1-1-10.3-1.4-15.6-1-1,0-2,.1-2.9,0-3.2-.3-6.4-.6-9.6.3-.4.1-1,0-1.6,0-1.1,0-2.1,0-3.2,0h-1.2s-.5,0-.5,0c-.6,0-1.3,0-1.9,0-2.6.2-5.1,1-7.3,2.3-2.3,1.3-4.4,3-6.2,4.9S1.8,12.5.7,14.9c-.5,1-.8,2.2-1.2,3.3,0,.2-.2.5-.2.7,0,.2-.1.5-.2.7-.1.5-.2.9-.3,1.4,0,.5-.1.9-.1,1.4,0,.2,0,.5,0,.7v.6c0,1.6.3,3.1.5,4.6.4,2.2.4,4.2.2,6.2-.2,2.5-.4,4.9-.1,7.4.2,1.5.3,3.1,0,4.5-.3,2.1-.2,4.3-.1,6.4,0,.3,0,.7,0,1,0,.3.1.5.3.7.4.3,1.1,0,1.5-.2,1.3-.4,2.6-.7,3.9-1.1.7-.2,1.5-.4,2.2-.6,1.2-.3,2.5-.5,3.8-.7.3,0,.5,0,.8,0,1.6-.2,3.2-.4,4.8-.4.6,0,1.1,0,1.7,0,.6,0,1.1,0,1.7,0,.4,0,.8,0,1.2.1.4,0,.8.1,1.2.2l1.2.2c.4,0,.8.2,1.2.3l1,.3,1,.3c1.1.4,2.1.8,3.2,1.3.9.4,1.9.8,2.8,1.2.7.3,1.4.6,2.2.9.3.1.7.3,1,.4.3.1.7.2,1,.4,1.9.6,3.8,1.1,5.7,1.7,1,.3,2.2.5,3.3.8,1,.2,2,.4,3,.6,1.2.2,2.5.3,3.8.6,0,0,.2,0,.2,0,0,0,.2,0,.3,0,.2.1.3.3.3.5,0,.3,0,.5,0,.8,0,.2-.2.5-.3.7,0,.2-.2.4-.3.6,0,0-.1.2-.2.3,0,0-.1.2-.2.3-.2.3-.6.5-.9.7-.4.2-.7.2-1.1.2-.7,0-1.4,0-2.2,0-.4,0-.8,0-1.2,0-.4,0-.8,0-1.3,0-1.4,0-2.8-.1-4.2-.2-.6,0-1.3,0-1.9-.2-1-.1-2.1-.3-3.1-.4-2.1-.2-4.2-.5-6.4-.6h-.8c0,0-.1,0-.2,0,0,0-.3,0-.3.1-.1,0,0,.2,0,.3h0c0,0,0,.2,0,.2.1.1.3.3.4.4.5.5,1.2.5,1.8.7.7.2,1.4.3,2.1.4.7.1,1.3.2,1.9.3,1.8.3,3.6.5,5.5.7,1.1,0,2.2.2,3.2.3.4,0,.8,0,1.2,0,1.6,0,3.2.1,4.7,0,.7,0,1.5-.1,2.3-.3.5-.1,1-.2,1.4-.3.5-.1.9-.2,1.4-.4.3,0,.7-.2,1-.3.3,0,.6-.2.9-.3,1.6-.7,3.2-1.3,4.8-2.1.6-.3,1.3-.6,1.9-.9.8-.4,1.7-.8,2.5-1.2s.7-.3,1-.5c1.1-.6,2.3-1.1,3.4-1.7,1.2-.5,2.3-1,3.5-1.5.3-.1.7-.3,1.1-.4.4,0,.8-.2,1.2-.1.2,0,.4,0,.6,0,.2,0,.4,0,.6.1.4.1.7.2,1.1.4.2,0,.4.2.6.4.2.1.4.3.4.6,0,.1,0,.3,0,.4,0,0,0,.1,0,.2,0,0,0,0-.1.2-.2.2-.4.4-.6.6-.2.2-.4.3-.6.5-.4.3-.9.6-1.3.9-.2.1-.3.2-.5.3-.8.6-1.6,1.1-2.4,1.7-.3.2-.7.5-1,.7-1.1.6-2.1,1.3-3.1,2l-.9.6c-.6.4-1.3.8-1.9,1.2-1,.7-2.1,1.3-3.1,2-1.6,1.1-3.3,2.3-4.9,3.4-.3.2-.6.4-.9.6-.6.5-1.3.9-2.1,1.3-1.2.7-2.3,1.3-3.6,1.9-.6.3-1.2.6-1.9.8s-1.3.4-2,.5c-1,.1-2.1,0-3,0-.1,0-.3,0-.5,0-1.3,0-2.7,0-4,.1-.3,0-.5,0-.8,0-1,.1-2.2.2-3.3.2-.3,0-.6,0-.9,0-.3,0-.6,0-.8,0-.9,0-1.9,0-2.8,0-1.8,0-3.6.1-5.4,0-.5,0-1,0-1.5,0-1.2,0-2.4,0-3.6,0-.9,0-1.7,0-2.6-.1-.9,0-1.7-.2-2.6-.3-1.5-.2-2.9-.6-4.3-1-.9-.2-1.8-.5-2.7-.8-1.1-.3-2.2-.7-3.2-1-.5-.1-.9-.3-1.4-.4-.4,0-.8-.1-1.1-.2-.6-.2-1.2-.4-1.8-.6-.4-.1-1-.2-1.5,0-.5.3-.5.9-.5,1.4,0,.8-.2,1.6-.3,2.3-.5,3.1-.3,6.4-.4,9.6,0,4.1,0,8.1,0,12.2,0,4.8.2,9.7.2,14.5,0,1.9,0,3.8,0,5.8,0,1.1,0,2.2.1,3.3,0,1.1.2,2.2.4,3.3.2,1.1.5,2.1.9,3.2.5,1,1.1,2,1.7,2.8,1.7,2.1,3.7,3.9,5.8,5.4,2.1,1.5,4.4,2.8,6.9,3.8l.7.2h.3c0,.1.3.2.3.2l.7.2c.2,0,.5.1.7.1.5.1,1,.2,1.5.2.2,0,.5,0,.7,0h.4s.2,0,.2,0h.2c1.6,0,3.2,0,4.9,0,1.6,0,3.3,0,5,0,.7,0,1.3,0,2,0,.4,0,.8,0,1.2-.2.4-.2.8-.5,1.1-.8.3-.3.7-.7,1-1,.7-.7,1.4-1.4,2.2-2.1,1.5-1.4,3-2.8,4.5-4.2,1.4-1.3,2.8-2.7,4.1-4.1.8-.9,3.3-3.3.8-3.7-2-.3-4.2,1.1-6.1,1.5-3.2.7-4.2-.8-1.8-3.1,3.5-3.4,8.1-6.2,11.9-9.2,1.6-1.2,3.8-2.8,4.8-4.6,1.5-2.8-1.3-.6-2.3-1.5-1.1-.9,1.1-2.9,1.7-3.5,2.2-2.1,4.9-3.9,6.9-6.1.3-.3,1.3-1.5,1.1-1.9-1.1-.4-2.7,1.1-3.8.2-.7-.6-.2-1.2.2-1.8,1.1-1.7,4.5-4,6.1-5.4,2.3-2,4.6-4.2,6.7-6.4.9-.9,4.5-4.4,4.6-5.4.1-1-1.2-.4-1.7-.2-1.4.7-4.8,3.7-6.2,3.6-1.2,0-1.3-1.1-1-2,.6-1.8,2.4-4.4,3.5-5.9,3.8-5.5,7.5-9.1,13.3-12.4,2.6-1.5,7.9-3.4,9.5-5.7,2.3-3.4,1.1-5.9-1.8-8.3-5.6-4.8-12.4-3.1-19.2-2.9-1.7,0-2.7.2-2.1-1.9,1.2-4.2,10.2-8.2,14.2-9.1,2.4-.5,4.9-.4,7.2-1.2,2.3-.8,3.9-2.6,6-3.7,6.9-3.6,17-1.8,23.6,1.8,2.5,1.4,4.2,2.8,7.2,3.5.6.1,2.2.3,2.6.4.5.3.6.8.2,1.2-.9,1.1-4.6.7-5.9.8l-.2.3c0,.3.2.5.3.7,1.3,2.3,7.5,5.5,10.1,6.1.8.2,2.4.3,3,.6.4.2.6.8.2,1.2-.3.3-2.9.8-3.5.9-1.5.2-3.4.2-4.8.6-1.4.3,0,2,.5,2.6,1.7,2.2,4,4.9,5.8,7,.6.6,3.1,2.8,3.2,3.4.2.8-.4,1.3-1.1,1.3s-3.6-.9-3.5.4c1.2,3.2,2.4,6,3.1,9.3.6,3.2,1.2,6.8,1.5,10,.1,1.3.9,5.7-1.5,5-1.1-.3-1.7-2.2-2.1-2.4-.3-.2-.5.2-.5.5.2,4.5-1,7-2.8,11-1.7,3.7-3.8,8.3-5.8,11.8-.5.9-1.5,2.7-2.8,2.2-.9-.4-.8-1.9-.9-2.7-.1-.6-.2-1-.9-.6-.4.2-2,4-2.4,4.7-.7,1.2-2.8,4.8-3.9,5.6-1.4,1-2.2,0-2.4-1.4-.1-1,0-3.6-1.2-1-.7,1.6-3.2,8.1-3.2,9.5,0,3,2.2,5.3,4.1,7.3,2.4,2.6,5.5,5.2,7.9,7.9.2.2.3.3.4.5.2.2.4.5.6.8.2.2.4.5.7.7.7.4,1.6.5,2.4.6.7,0,1.4-.2,2.1-.2.8,0,1.6,0,2.4.1.1,0,.3,0,.4,0,.1,0,.2,0,.4-.1.6-.2,1.2,0,1.7.1.6,0,1.3,0,1.9,0,1.4,0,2.8-.1,4.1-.5.6-.1,1.1-.3,1.6-.5.5-.2,1.1-.4,1.6-.7,1.1-.6,2.1-1.3,3.1-2.3,1-1,2-2.1,2.8-3.2.8-1.1,1.5-2.4,1.9-3.6.5-1.6.9-3.1,1.1-4.6.3-1.6.5-3.1.7-4.7,0-.4,0-.9.1-1.3,0-.5,0-.8,0-1.1,0-.7,0-1.4,0-2h0ZM36.7,44.6c0,0,0,.1,0,.2,0,0,0,.2,0,.2,0,.4.1.9.1,1.3s0,.6,0,1c0,.2,0,.4,0,.6,0,0,0,.2,0,.2,0,0,0,.1,0,.3,0,.2-.1.5-.3.7-.2.2-.4.3-.7.3-.2,0-.3,0-.5,0-.1,0-.2,0-.4,0s-.4,0-.5-.1c-.2,0-.3-.3-.4-.4,0,0,0-.2,0-.2,0,0,0-.2,0-.2,0-.2,0-.4,0-.6v-1.6c0-.5,0-1,0-1.5h0c0,0,0-.1,0-.1,0,0,0,0,0,0,0,0,0,0-.1-.1l-.6-.3c-.9-.5-1.8-1-2.7-1.5-.7-.4-1.4-.8-2.1-1.2l-.5-.3-.5-.3h0c-.3-.1-.6-.3-.8-.5s-.4-.4-.6-.7c-.3-.5-.6-1.1-.7-1.7-.1-.8-.1-1.5,0-2.3,0-.2.1-.4.2-.5,0-.1.1-.2.2-.3s0-.2.1-.2c.3-.5.8-1,1.5-1.2.3,0,.6-.1.9-.1.2,0,.3,0,.5,0,.2,0,.3,0,.4.2.2,0,.4.1.5.1,0,0,.1,0,.2,0h0s0,0,0,0c0,0,0,0,0,0,0,0,0-.2,0-.3,0-.1,0-.2,0-.3,0,0,0,0,0,0h0c0,0-.1-.1-.1-.1l-.5-.3c-1.5-.9-3-1.8-4.5-2.7-.2,0-.3-.2-.5-.3s-.3-.2-.4-.3h0s0,0,0,0c0,0,0,0-.1-.1,0,0,0,0-.1-.1h0c0-.2-.2-.3-.3-.5-.2-.2-.4-.5-.7-.8-.2-.3-.4-.7-.4-1.1,0,0,0-.2,0-.3,0,0,0-.2,0-.3,0,0,0-.2,0-.3,0,0,0-.2,0-.3,0-.4.3-.7.5-1,.2-.3.5-.6.8-.8s.7-.4,1-.5c.2,0,.4,0,.5-.1.2,0,.4,0,.6,0h0c.2,0,.3,0,.5,0,.1,0,.3,0,.5,0,.2,0,.3,0,.4.2.3.1.5.2.7.4.3.2.7.3.9.2.1,0,.3-.1.4-.2.1,0,.2-.2.3-.4.2-.3,0-.8-.2-1.1,0,0,0,0,0-.1h-.1c0-.2-.2-.3-.3-.3-.2-.1-.4-.3-.6-.4-.7-.4-1.5-.7-2.2-1.2-.3-.2-.6-.4-.8-.6,0,0-.1-.1-.2-.2,0,0-.1-.1-.2-.2l-.2-.2v-.2c-.4-.5-.5-1.1-.5-1.7,0-.6.3-1.2.7-1.7.3-.4.7-.7,1.2-.9.5-.2,1-.3,1.5-.3.1,0,.2,0,.3,0,.1,0,.2,0,.3,0,.2,0,.4,0,.7.2.4.2.7.4,1.1.6.2,0,.4.2.6.2.2,0,.3,0,.4,0,0,0,0-.1.1-.2s0-.2,0-.4c0-.2,0-.3,0-.5v-.3c0-.1,0-.2,0-.3,0-.7.3-1.5.8-2.1.5-.9,1.4-1.5,2.4-1.8.1,0,.3,0,.4-.1.1,0,.3,0,.4,0,.4,0,.7,0,1.1,0,.3,0,.7,0,1,.2.4.1.7.3,1.1.5.3.2.6.5.9.8.7.8,1.2,1.8,1.1,2.9,0,.3,0,.7,0,1,0,.1,0,.3,0,.4,0,0,0,.2.1.2,0,0,.1,0,.2,0s.2,0,.3,0c.2,0,.5-.2.8-.4.2-.1.5-.3.8-.4.3-.1.6-.2.9-.2.7,0,1.4,0,2,.4.7.4,1.2,1,1.5,1.7.3.7.3,1.5,0,2.3-.1.3-.3.7-.5,1,0,0-.1.2-.2.2l-.2.2-.2.2c0,0-.2.1-.2.2-.3.2-.7.4-1,.6-.2.1-.4.2-.7.3-.4.2-.8.4-1.1.6l-.5.3-.2.2h0s0,0,0,.1c-.1.2-.1.4-.1.6,0,.2,0,.3.2.4,0,0,0,0,0,0,0,0,0,0,.1,0,0,0,0,0,.1,0h0s0,0,0,0c.1,0,.2,0,.3,0,.1,0,.3,0,.5-.1.3-.1.7-.4,1.2-.5.4-.1.8-.2,1.2-.2.4,0,.8,0,1.2.2.8.3,1.5,1,1.9,1.8.1.3.2.6.3.9h0c0,.3,0,.6,0,.9,0,.8-.4,1.6-1,2.1-.1.1-.3.3-.4.4-.1.1-.3.2-.4.3-.1,0-.3.2-.4.3-.1,0-.3.2-.4.3-.6.3-1.1.6-1.7.9-.9.4-1.8.8-2.6,1.3-.2,0-.3.2-.4.3l-.2.2-.2.2c-.1,0-.3.2-.3.3,0,0,0,.2-.1.2,0,0,0,.1,0,.2,0,0,.1.2.2.2,0,0,0,0,.1,0s.2,0,.3,0c.2,0,.4-.2.6-.2,0,0,.1,0,.2,0h.2s.2,0,.2,0h.2c.5,0,1,.1,1.4.4s.8.6,1,1c.2.4.4.8.5,1.3,0,.2,0,.4,0,.6,0,.6,0,1.2-.2,1.8,0,.3-.2.6-.3.8s-.3.5-.5.8c-.2.2-.4.5-.7.7-.1,0-.3.2-.4.2l-.4.2-1.5.8c-.4.2-.8.5-1.2.7-.2,0-.4.2-.5.3-.7.3-1.4.7-2.1,1-.3.1-.5.2-.6.2s-.2,0-.2.2c0,0,0,.2,0,.2h0ZM46.4,55.7c-.2.1-.5.2-.8.3-.2,0-.4.2-.6.3-.5.2-.8.3-1.4.2-.2,0-.5,0-.7-.1,0,0,0,0-.2,0-.3,0-.6-.1-.9-.2l-.9-.3c-.1,0-.2,0-.4,0,0,0-.1,0-.2,0-.3-.1-.7-.2-1-.4,0,0,0,0,0,0-.2-.1-.2-.3,0-.5,0,0,0,0,0-.1,0,0,.2-.1.3-.2,0,0,0-.1.1-.2.2-.1.3-.2.5-.2.1,0,.2-.1.4-.2h.2c0,0,.3-.2.3-.2.2-.1.5-.2.8-.3.2-.1.5-.2.8-.3.2,0,.4-.2.6-.3h.1c0,0,1-.5,1-.5l.5-.2c0,0,0,0,.1,0,0,0,.1,0,.2,0l.8-.4c.1,0,.2-.1.3-.2.2,0,.4-.2.6-.3.4-.2.9-.4,1.3-.5,0,0,0,0,.1,0,0,0,0,0,.1,0,.7-.3,1.4-.6,2.1-.8h0s0,0,.1,0c.1,0,.3-.1.4-.2.2,0,.4-.2.7-.2.3,0,.6-.2.8-.3.2,0,.5-.1.7-.2.2,0,.4,0,.6,0,.3,0,.6,0,.9,0,.2,0,.5,0,.8,0,.2,0,.5,0,.7,0,.2,0,.3,0,.4.1.1,0,.2,0,.3.1.2,0,.3.2.4.3h0c0,0,0,.2,0,.2s0,0,0,.1c0,.2,0,.5,0,.7,0,.4-.6.4-.8.6,0,0-.1,0-.2.1,0,0-.2,0-.2,0,0,0-.2,0-.2.1-.2,0-.4.2-.5.3-.2.1-.5.3-.7.4-.3.1-.7.3-1,.5-.3.1-.6.3-.8.4l-1,.5c0,0-.2,0-.2.1-.2,0-.4.2-.5.3,0,0-.1,0-.2,0-.2,0-.4.2-.7.3,0,0-.2,0-.2.1-.1,0-.3.1-.4.2l-.6.3c-.2,0-.3.2-.5.2-.2,0-.4.2-.6.2,0,0-.1,0-.2.1h0c0,0-.1,0-.2,0-.2,0-.3.1-.5.2-.3.2-.6.3-.9.5h0ZM55.1,57.8c-.2,0-.3.2-.5.2-.1,0-.2,0-.4.1-.1,0-.3,0-.4.1-.2,0-.3,0-.5.1-.2,0-.4,0-.6,0-.3,0-.6,0-.8,0-.2,0-.4,0-.6,0-.3,0-.7,0-1-.2-.3,0-.6-.1-.8-.2h-.4c0,0-.2-.1-.2-.1,0,0-.2,0-.3,0-.3,0-.5-.2-.7-.3-.4-.3-.3-.6,0-.9.1-.1.3-.2.4-.3,0,0,.2-.1.3-.2h.2c0,0,.4-.3.4-.3,0,0,.1,0,.2-.1,0,0,.2,0,.3-.1,0,0,.2,0,.3-.1.2,0,.4-.2.6-.3.3-.1.5-.3.8-.4.4-.2.8-.3,1.2-.5l1-.5c.4-.2.8-.3,1.1-.5h.3c.2-.2.4-.3.6-.4,0,0,.2,0,.2,0,.3,0,.5-.2.8-.3,0,0,.2,0,.3-.1.2,0,.3-.1.5-.2l.7-.3c.2,0,.4-.2.6-.2.2,0,.4-.2.7-.2,0,0,.2,0,.2-.1h0c0,0,.1,0,.2,0,.2,0,.4-.1.6-.2.4-.2.7-.4,1.1-.5.3-.1.6-.2.9-.3.2,0,.4-.2.6-.3h.3c0-.1,0-.2,0-.2,0,0,0,0,.1,0h.2c.6-.1,1.1-.2,1.7-.1h.2c.4,0,.7,0,1.1.1.4,0,.7.2,1.1.3.2,0,.3,0,.5.2,0,0,.1,0,.2.1.1,0,.2.2.3.4,0,.2,0,.3,0,.5,0,.1-.1.2-.2.2h0c0,0,0,0,0,.2h0s0,0,0,0c0,0-.2.3-.4.4,0,0-.2,0-.3.1,0,0,0,0-.1.2-.2.1-.4.2-.6.3-.1,0-.3.2-.4.2-.2,0-.4.2-.6.3-.3.1-.6.3-.8.4-.3.1-.6.3-.9.4-.2,0-.5.2-.7.3h-.2c0,0-1.1.6-1.1.6l-.6.3c0,0-.1,0-.1,0,0,0-.1,0-.2,0-.3.2-.6.3-.9.5-.1,0-.2.2-.4.2-.2.1-.4.2-.7.3-.5.2-1,.4-1.5.6,0,0,0,0-.2,0s0,0-.2,0c-.7.4-1.5.8-2.3,1.1h0s0,0-.1,0h0ZM72.6,52.2c.1,0,.2,0,.3,0,.1.1.5-.3.8-.3h.4c0,0,.2,0,.2,0,.2,0,.5,0,.8.1.2,0,.3,0,.5.1.3,0,.5.2.8.3.2,0,.3.2.5.3h0c0,0,0,.1,0,.1,0,0,.1.1.1.2,0,.1.1.2.2.4,0,.3-.1.6-.3.8,0,0-.1,0-.2.2,0,0-.2,0-.2,0h-.2c-.3.2-.5.3-.8.4h-.2c0,0-1.3.6-1.3.6l-.7.3c0,0-.1,0-.2,0,0,0-.1,0-.2,0-.3.2-.7.3-1.1.5-.2,0-.3.2-.4.2-.2.1-.5.3-.8.4-.6.3-1.1.5-1.7.7,0,0-.1,0-.2,0,0,0-.1,0-.2,0l-2.6,1.2h0s0,0-.1,0c-.2,0-.3.2-.5.3l-.8.4-1,.5-.8.4-.6.3-1,.5-.9.4-.8.4c-.2,0-.3.1-.5.2-.4.2-.9.4-1.3.7-.3.2-.6.3-.9.4,0,0-.2,0-.2.1-.2,0-.4.2-.6.2-.2,0-.3,0-.5,0-.1,0-.3,0-.4-.2s-.2-.2-.2-.3h0c0-.4,0-.7.2-1,0,0,0-.2,0-.3,0,0,0-.2,0-.2,0-.1,0-.2,0-.3h0c0,0,0-.2,0-.2v-.2c0-.2,0-.4.1-.7,0-.2,0-.3,0-.6,0-.2,0-.5,0-.8,0-.2.2-.3.2-.5.1-.1.2-.2.3-.3h.1c0,0,.1-.1.1-.1h.2c0,0,.3-.2.3-.2,0,0,.2,0,.3-.1.2-.1.5-.2.7-.3,0,0,.2,0,.2,0,.3-.1.6-.2.9-.3,0,0,.2-.1.3-.2.2,0,.4-.2.5-.2l.8-.3c.2,0,.4-.2.7-.3.3,0,.5-.2.7-.3,0,0,.2,0,.3-.1h0c0,0,.2,0,.2-.1.2,0,.4-.2.7-.3.4-.2.8-.4,1.2-.6.3-.1.7-.2,1-.4.2,0,.5-.2.7-.3.2,0,.4-.2.6-.2l1.7-.6c0,0,.1,0,.2,0l1.1-.5c.4-.2.8-.3,1.1-.5.2,0,.3-.1.5-.2,0,0,.1,0,.2,0,.3,0,.6,0,.8-.1h0Z"/>
  </g>
  <g>
    <g>
      <path class="st0" d="M210.3,2.4l21,51.4,17.1-41.3-3.4-10.1h41.3l-.4,7.2-5.3,1.5c-4.1,1-5.3,3.2-5,7.8l2.8,54.8c.3,4.1.9,6.1,5.5,7.5l4.9,1.4.4,7.2h-48.4l.4-7.2,6.2-1.4c4.3-1.2,5.8-3,5.5-7.6l-2.5-41-22.8,53.1h-11.4l-21.8-53.3-2.9,41.2c-.3,4.1.8,6.4,5.5,7.6l6.3,1.4.4,7.2h-34.1l.4-7.2,5.4-1.4c3.9-1.1,4.9-3.2,5.3-7.6l4.2-50.1c.5-7.5-.9-11-6.1-12.6l-4.1-1.2-.4-7.2h35.9Z"/>
      <path class="st0" d="M358.3,2.4l23.7,71.8c1.2,3.7,2.1,5.8,5.7,7l4.7,1.4.3,7.2h-47.9l.4-7.2,10.4-3c.7-.8.3-3.8-.8-7.1l-3.8-12h-27.5l-4.2,13.2c-.5,1.6-.8,2.9-.8,4.1s.9,2.8,2.8,3.2l8.1,1.7.5,7.2h-35.1l.3-7.2,5.5-1.4c2.9-.8,4.9-2.9,5.8-5.7l24.6-66.8-3.3-6.3h30.7ZM337.4,17.5l-11.3,34.8h22.4s-11-34.8-11-34.8Z"/>
      <path class="st0" d="M420.2,2.4c7.9,0,18.8-1.2,26.7-1.2,20.4,0,32.6,8.3,32.6,22.1s-8,19.5-18.2,24.3c5.9,8.6,14.7,19.3,20.9,25.5,5.1,5,9.9,8.4,14.3,9.9l-1.2,6.8c-2.5,1.4-7.5,2.6-12.6,2.6-10,0-19.7-4.6-26.7-13.8-4.1-5.3-10.5-16.3-14.9-25.8h-6c0-.1-.5,20.7-.5,20.7-.1,4.3.8,6.4,5.7,7.5l7.5,1.6.4,7.2h-50.5l.4-7.2,5.7-1.4c4.1-1.2,5-3.3,5-7.6l.8-54.7c0-4.2-1-6.4-5.4-7.8l-5.3-1.5-.3-7.2h21.6,0ZM435.5,43.9h7.4c0-.1,2.2-.3,2.2-.3,4.3-.1,8.3-6.2,8.3-15.8s-5.4-18-12.9-18-1.3,0-2.1.1c-1.3.3-2.1,1.2-2.1,2.9l-.8,31h0Z"/>
      <path class="st0" d="M535.2,0c7.8,0,16.2,2,21.7,4.1l9.9-3.5c0,8.4-.5,22.2-.9,30.8l-7.6.5c-3.4-17.1-12.2-22-20.5-22s-11.2,3.4-11.2,9.6,5.1,9.5,16.4,15.9c15.8,9.1,26.3,16.3,26.3,30.1s-13.2,26.6-34.8,26.6-17.4-1.3-23.4-3.7l-7.5,3c-2.4-10-3.7-23.9-3.7-32.5l7.6-.5c3.5,16.7,13.9,23.7,24.6,23.7s11.6-3.4,11.6-8.9-8.9-12-21-19.1c-12-7.1-20.5-14.1-20.5-27.4S516.7,0,535.1,0h0Z"/>
    </g>
    <g>
      <path class="st0" d="M206.4,108.4l-6.7,32.7h-4.9l-5.1-21.1c-.3-1.1-.8-3.6-.9-4.3-.1.8-.6,3.2-.9,4.3l-5.3,21.1h-4.9l-6.7-32.7h4.9l3.9,20.6c.2,1,.6,3.2.8,4.3.2-1.1.6-3.3.9-4.2l5.2-20.7h4.2l5.3,21.1c.2.9.6,2.6.8,3.8.2-1.2.5-3,.6-3.8l4-21.1h4.8,0Z"/>
      <path class="st0" d="M218.1,141.1h-4.9v-32.7h4.9v32.7Z"/>
      <path class="st0" d="M248,141.1h-21.2v-32.7h4.9v27.9h16.3v4.8h0Z"/>
      <path class="st0" d="M279.4,124.8c0,11.5-7.4,16.3-15.9,16.3h-8.9v-32.7h8.9c8.8,0,15.9,4.8,15.9,16.3ZM274.4,124.8c0-6.9-3.2-11.6-10.9-11.6h-4v23.1h4c7.8,0,10.9-4.7,10.9-11.6Z"/>
      <path class="st0" d="M307.5,141.1h-21.2v-32.7h4.9v27.9h16.3v4.8h0Z"/>
      <path class="st0" d="M319.2,141.1h-4.9v-32.7h4.9v32.7Z"/>
      <path class="st0" d="M348.9,113.2h-16.1v8.5h9.4v4.8h-9.4v14.5h-4.9v-32.7h21v4.8h0Z"/>
      <path class="st0" d="M376.8,141.1h-21.7v-32.7h21v4.8h-16.1v8.1h9.4v4.8h-9.4v10.3h16.8v4.8h0Z"/>
      <path class="st0" d="M421.2,118.2c0,5.2-2.8,8.4-7.2,9.6l6.7,13.3h-5.6l-6.5-12.9h-7.4v12.9h-4.8v-32.7h14.3c5.7,0,10.5,3,10.5,9.8h0ZM416.2,118.3c0-3.4-2.2-5.3-5.5-5.3h-9.5v10.5h9.5c3.3,0,5.5-1.7,5.5-5.2Z"/>
      <path class="st0" d="M450.5,141.1h-21.7v-32.7h21v4.8h-16.1v8.1h9.4v4.8h-9.4v10.3h16.8v4.8h0Z"/>
      <path class="st0" d="M478.6,131.7c0,5.9-3.7,9.9-12.1,9.9s-8.9-2.1-11.6-5.3l3.5-3.4c2.2,2.4,5.4,3.9,8.5,3.9,4.6,0,6.8-1.6,6.8-4.8s-1.9-3.8-7.4-5.4c-6.9-2.1-10.2-3.8-10.2-9.6s4.8-9.1,10.8-9.1,7.8,1.6,10.7,4.4l-3.5,3.5c-2-2.1-4.4-3.1-7.6-3.1s-5.5,1.9-5.5,4.1,1.5,3.4,7.1,5.1c6.4,2,10.5,4,10.5,9.9h0Z"/>
      <path class="st0" d="M509.2,135.4c-2.3,4-6.3,6.2-11.2,6.2-8.5,0-13.8-6.9-13.8-16.8s5.4-16.8,13.8-16.8,8.9,2.1,11.1,6.1l-4.3,2.7c-1.7-2.7-3.4-3.9-6.8-3.9-5.7,0-8.8,4.6-8.8,11.9s3.1,11.9,8.8,11.9,5.5-1.4,7.2-4.1l4.1,2.7h0Z"/>
      <path class="st0" d="M540.4,127.5c0,9.1-4.4,14.1-12.5,14.1s-12.3-5.2-12.3-14.2v-18.9h4.9v18.8c0,6.2,2.6,9.5,7.5,9.5s7.6-3.2,7.6-9.1v-19.1h4.9v19h0Z"/>
      <path class="st0" d="M570.4,141.1h-21.7v-32.7h21v4.8h-16.1v8.1h9.4v4.8h-9.4v10.3h16.8v4.8h0Z"/>
    </g>
  </g>
</svg>