<?xml version="1.0" encoding="UTF-8"?>
<svg id="Layer_11" data-name="Layer 11" xmlns="http://www.w3.org/2000/svg" viewBox="0 0 238.2 319.03">
  <defs>
    <style>
      .cls-1 {
        fill: #737438;
      }
    </style>
  </defs>
  <g>
    <g>
      <path class="cls-1" d="M25.25,237.58l12.31,30.08,10-24.16-2-5.92h24.16l-.23,4.23-3.08.85c-2.38.62-3.08,1.85-2.92,4.54l1.62,32.08c.15,2.38.54,3.54,3.23,4.38l2.85.85.23,4.23h-28.31l.23-4.23,3.62-.85c2.54-.69,3.39-1.77,3.23-4.46l-1.46-24-13.31,31.08h-6.69l-12.77-31.16-1.69,24.08c-.15,2.38.46,3.77,3.23,4.46l3.69.85.23,4.23H1.47l.23-4.23,3.15-.85c2.31-.62,2.85-1.85,3.08-4.46l2.46-29.31c.31-4.38-.54-6.46-3.54-7.39l-2.38-.69-.23-4.23h21Z"/>
      <path class="cls-1" d="M111.8,237.58l13.85,42.01c.69,2.15,1.23,3.38,3.31,4.08l2.77.85.15,4.23h-28l.23-4.23,6.08-1.77c.38-.46.15-2.23-.46-4.15l-2.23-7h-16.08l-2.46,7.69c-.31.92-.46,1.69-.46,2.38,0,.92.54,1.62,1.62,1.85l4.77,1,.31,4.23h-20.54l.15-4.23,3.23-.85c1.69-.46,2.85-1.69,3.38-3.31l14.39-39.08-1.92-3.69h17.93ZM99.56,246.43l-6.62,20.39h13.08l-6.46-20.39Z"/>
      <path class="cls-1" d="M148.03,237.58c4.62,0,11-.69,15.62-.69,11.92,0,19.08,4.85,19.08,12.93,0,6.62-4.69,11.39-10.62,14.23,3.46,5,8.62,11.31,12.23,14.93,3,2.92,5.77,4.92,8.39,5.77l-.69,4c-1.46.85-4.38,1.54-7.39,1.54-5.85,0-11.54-2.69-15.62-8.08-2.39-3.08-6.16-9.54-8.69-15.08l-3.54-.08-.31,12.16c-.08,2.54.46,3.77,3.31,4.39l4.38.92.23,4.23h-29.54l.23-4.23,3.31-.85c2.38-.69,2.92-1.92,2.92-4.46l.46-32c0-2.46-.62-3.77-3.15-4.54l-3.08-.85-.15-4.23h12.62ZM156.95,261.89l4.31-.08,1.31-.08c2.54-.08,4.85-3.62,4.85-9.23,0-7.08-3.15-10.54-7.54-10.54-.38,0-.77,0-1.23.08-.77.15-1.23.69-1.23,1.69l-.46,18.16Z"/>
      <path class="cls-1" d="M215.27,236.19c4.54,0,9.46,1.15,12.69,2.39l5.77-2.08c0,4.92-.31,13-.54,18l-4.46.31c-2-10-7.16-12.85-12-12.85-4.08,0-6.54,2-6.54,5.62,0,3.85,3,5.54,9.62,9.31,9.23,5.31,15.39,9.54,15.39,17.62,0,9.31-7.69,15.54-20.39,15.54-4.77,0-10.16-.77-13.69-2.15l-4.38,1.77c-1.38-5.85-2.15-14-2.15-19l4.46-.31c2.08,9.77,8.16,13.85,14.39,13.85,4.39,0,6.77-2,6.77-5.23,0-4.31-5.23-7-12.31-11.16-7-4.15-12-8.23-12-16,0-10.39,8.62-15.62,19.39-15.62Z"/>
    </g>
    <g>
      <path class="cls-1" d="M22.96,299.63l-3.9,19.11h-2.89l-2.98-12.34c-.16-.66-.46-2.07-.55-2.54-.08.46-.38,1.88-.55,2.54l-3.11,12.34h-2.84l-3.9-19.11h2.89l2.29,12.07c.11.57.35,1.88.44,2.51.11-.63.38-1.91.52-2.48l3.06-12.09h2.46l3.11,12.37c.14.52.35,1.53.46,2.21.14-.71.3-1.77.38-2.24l2.32-12.34h2.78Z"/>
      <path class="cls-1" d="M29.81,318.73h-2.87v-19.11h2.87v19.11Z"/>
      <path class="cls-1" d="M47.3,318.73h-12.39v-19.11h2.87v16.3h9.53v2.81Z"/>
      <path class="cls-1" d="M65.67,309.18c0,6.74-4.31,9.55-9.31,9.55h-5.21v-19.11h5.21c5.13,0,9.31,2.81,9.31,9.55ZM62.75,309.18c0-4.01-1.86-6.77-6.39-6.77h-2.35v13.54h2.35c4.53,0,6.39-2.76,6.39-6.77Z"/>
      <path class="cls-1" d="M82.07,318.73h-12.39v-19.11h2.87v16.3h9.53v2.81Z"/>
      <path class="cls-1" d="M88.92,318.73h-2.87v-19.11h2.87v19.11Z"/>
      <path class="cls-1" d="M106.33,302.44h-9.45v5h5.49v2.81h-5.49v8.49h-2.87v-19.11h12.31v2.81Z"/>
      <path class="cls-1" d="M122.63,318.73h-12.72v-19.11h12.31v2.78h-9.45v4.72h5.49v2.78h-5.49v6.03h9.85v2.78Z"/>
      <path class="cls-1" d="M148.58,305.33c0,3.06-1.61,4.94-4.2,5.6l3.9,7.81h-3.3l-3.79-7.56h-4.31v7.56h-2.81v-19.11h8.38c3.33,0,6.14,1.77,6.14,5.71ZM145.69,305.41c0-1.99-1.31-3.08-3.25-3.08h-5.57v6.14h5.57c1.91,0,3.25-.98,3.25-3.06Z"/>
      <path class="cls-1" d="M165.72,318.73h-12.72v-19.11h12.31v2.78h-9.45v4.72h5.49v2.78h-5.49v6.03h9.85v2.78Z"/>
      <path class="cls-1" d="M182.17,313.25c0,3.44-2.18,5.79-7.07,5.79-2.78,0-5.19-1.2-6.8-3.08l2.05-1.99c1.28,1.39,3.17,2.27,4.97,2.27,2.67,0,3.96-.93,3.96-2.78,0-1.47-1.12-2.21-4.31-3.17-4.04-1.2-5.98-2.21-5.98-5.62s2.79-5.32,6.31-5.32c2.59,0,4.56.96,6.25,2.59l-2.02,2.05c-1.2-1.23-2.57-1.83-4.45-1.83-2.24,0-3.19,1.09-3.19,2.37s.87,1.99,4.18,2.98c3.77,1.15,6.12,2.35,6.12,5.76Z"/>
      <path class="cls-1" d="M200.08,315.38c-1.37,2.35-3.69,3.66-6.58,3.66-4.94,0-8.08-4.07-8.08-9.85s3.14-9.85,8.08-9.85c3.11,0,5.19,1.26,6.5,3.58l-2.54,1.58c-.98-1.56-1.99-2.29-3.96-2.29-3.33,0-5.13,2.7-5.13,6.99s1.8,6.99,5.13,6.99c1.99,0,3.22-.82,4.2-2.38l2.38,1.58Z"/>
      <path class="cls-1" d="M218.31,310.76c0,5.35-2.59,8.27-7.34,8.27s-7.18-3.06-7.18-8.33v-11.08h2.87v11c0,3.6,1.5,5.54,4.37,5.54s4.42-1.86,4.42-5.35v-11.19h2.87v11.14Z"/>
      <path class="cls-1" d="M235.85,318.73h-12.72v-19.11h12.31v2.78h-9.45v4.72h5.49v2.78h-5.49v6.03h9.85v2.78Z"/>
    </g>
  </g>
  <g>
    <path class="cls-1" d="M148.87,217.94c-.2-.31-.41-.62-.62-.93-2.02-2.57-4.05-5.14-6.01-7.77-2.57-3.46-5.39-8.46-8.25-11.49-1.73-1.83-2.25-.17-3.33,1.31-1.2,1.65-2.32,3.37-3.39,5.11-1.1,1.77-2.15,3.57-3.22,5.35-1.06,1.78-2.14,3.56-3.27,5.29-.39.6-.8,1.19-1.19,1.8-.22.34-.44.67-.63,1.02-.12.22-.35.59-.31.85,0,.06.03.11.06.16.15.27.43.45.72.54.74.23,1.65.17,2.42.15,2.25-.06,4.5-.14,6.75-.23,2.26-.08,4.52-.17,6.78-.24,2.26-.07,4.52-.13,6.78-.16,1.1-.01,2.21,0,3.31.01.55,0,1.1,0,1.66,0,.14,0,.29,0,.44,0,.38.01.78.01,1.12-.12.15-.06.3-.19.3-.36,0-.11-.06-.22-.12-.32Z"/>
    <path class="cls-1" d="M185.63,218.51c-.35-.83-1.18-1.26-1.86-1.79-.74-.58-1.46-1.18-2.17-1.8-1.39-1.21-2.73-2.47-4.07-3.74-.58-.55-1.16-1.1-1.75-1.64-3.01-2.75-6.1-5.55-9-8.41-.65-.64-2.33-2.9-2.99-3.21-.65-.3-.9.45-1.36.77-3.16,2.15-3.4-.78-3.29-3.29.07-1.57.97-5.17.44-6.42-.5-1.19-1.58-.38-2.35.06-1.53.87-5.09,4.42-6.48,4.33-.64-.04-1.17-.43-1.25-1.07-.2-1.58,1.01-2.47,1.14-4.05.21-2.58-1.14-1.65-2.51-.58-3.24,2.53-5.76,5.59-4.55,9.97.67,2.43,6.8,9.31,8.69,11.82,1.34,1.78,2.66,3.58,3.97,5.39.54.74,1.08,1.49,1.62,2.23.46.64.91,1.33,1.63,1.7.92.48,2.03.43,3.03.45,1.13.03,2.27.06,3.4.08,1.27.02,2.54.04,3.81.05,2.98.02,5.96-.31,8.94-.48.44-.02.89.01,1.33.03,1.56.07,3.11.18,4.67.27.2.01.4.02.58-.03.13-.04.27-.12.35-.24.04-.06.07-.14.07-.22,0-.07-.02-.13-.05-.19Z"/>
    <path class="cls-1" d="M106.99,148.48c1.84-.24,4.14-2.16,5.62-3.28,9.44-7.17,19.88-17.86,24.46-28.95.43-1.03,1.78-4.76-.6-4.29-1.89.37-3.58,4.82-4.56,6.48-6.91,11.68-14.68,20.47-25.68,28.5-.92,1.19-.94,1.76.77,1.54Z"/>
    <path class="cls-1" d="M116.58,164.46c-7.1,6.58-14.92,13.18-22.77,18.83-2.57,1.85-7.67,4.6-9.64,6.62-.88.91-1.56,2.61.36,2.5,1.98-.11,7.85-3.9,9.78-5.13,9.72-6.21,19.64-14.55,27.98-22.52,15.6-14.91,34.82-38.23,31.8-61.42-.18-1.37-1.55-7.41-3.53-7.06-.72.13-.56,2.19-.52,2.78.08,1.22.47,2.45.59,3.67,2.18,22.26-21.09,42.07-37.67,53.27-4.67,3.16-11.46,6.38-15.52,9.82-.59.5-1.35,1.24-1.15,2.07.28.96,2.05.34,2.76.13,5.56-1.64,14.43-7.44,19.44-10.74,1.55-1.03,7.21-5.49,8.33-5.8,1.98-.54,1.02,1.4.36,2.3-2.45,3.36-7.45,7.75-10.61,10.68Z"/>
    <path class="cls-1" d="M167.91,61.77c5.46-.93,5.16-9.5-.86-9.19-6.78.35-6.28,10.41.86,9.19Z"/>
    <path class="cls-1" d="M194.35,65.6c-.41-.23-.88-.61-1.39-.47-.74.35-.58,1.02-.37,1.66.56,1.76,5.45,6.32,7.29,6.26,1.67-.06,1.25-1.72.57-2.71-.86-1.25-4.69-3.94-6.1-4.74Z"/>
    <path class="cls-1" d="M200.95,80.09c-.32-.1-.73-.17-1.05-.06-.92.31.54,3.48.84,4.14,1.13,2.45,3.33,5.27,5.42,6.97.74.6,2.84,2.01,3.68,1.16.6-1.08-.24-2.48-.82-3.45-.87-1.47-6.75-8.35-8.08-8.75Z"/>
    <path class="cls-1" d="M211.19,122.87c.31.68,1.16,1.93,1.99,1.8,1.3-.46,1.2-2.2,1.12-3.36-.24-3.5-3.36-15.09-5.43-17.79-.32-.43-1.03-1.12-1.6-1.03-.44.07-.78.47-.87.88-.53,2.26,1.03,5.03,1.64,7.17,1,3.48,1.78,9.37,3.15,12.33Z"/>
    <path class="cls-1" d="M199.64,146.51c-.38,1.06-1.54,3.78.25,4.11,1.18.22,1.9-.67,2.61-1.44,5.03-5.53,6.76-22.01,3.71-28.68-.2-.44-.76-1.44-1.37-1.01-.05.03-.31.91-.36,1.09-.55,2.32.12,6.04-.05,8.66-.42,6.58-2.65,11.32-4.79,17.27Z"/>
    <path class="cls-1" d="M56.7,63.38c-.1,0-.2-.01-.31-.03-.19-.04-.37-.16-.47-.29-.05-.07-.09-.14-.13-.21l-.04-.09s-.04-.09-.05-.13c0-.01,0-.02-.01-.03-.14-.38-.17-.73-.21-1.11l-.04-.45c-.01-.11-.02-.13-.02-.15,0,0-.02-.09-.03-.11v-.04c-.06-.14-.15-.27-.27-.36l-.04-.03s-.03-.02-.05-.03l-.04-.02c-.68-.49-1.35-.99-2.08-1.55l-.06-.04c-.08-.06-.16-.12-.23-.17-.79-.48-1.54-1.07-2.24-1.64-.02-.02-.04-.03-.06-.04-.09-.06-.16-.17-.24-.35-.02-.06-.07-.16-.07-.21,0-.02,0-.04-.01-.06-.01-.06,0-.15,0-.22.02-.2.08-.42.17-.59.1-.18.25-.34.42-.45.21-.13.46-.21.68-.21.05,0,.09,0,.13.01h.06c.06.03.12.04.19.07.04.02.15.06.18.08.02.01.02.01.04.03.13.08.23.15.35.25l.04.03c.2.16.38.32.58.49l.13.11.69.61.17.15.07.06.11.09c.15.12.29.19.43.25.09.04.19.06.29.06.19,0,.38-.08.51-.22.09-.1.2-.27.19-.52v-.06c.03-.08.04-.17.04-.27v-.09s-.02-1.08-.02-1.08l-.04-1.8c0-.38,0-.77-.01-1.16,0-.73,0-1.49-.03-2.23l-.02-.94v-.59c-.01-.18-.09-.36-.22-.49l-.1-.1-.32-.29-.69-.63c-.2-.18-.39-.34-.56-.46-.67-.47-1.13-.97-1.61-1.56-.26-.32-.51-.61-.94-.92-.05-.04-.16-.13-.35-.34-.47-.53-.9-.93-1.39-1.31-.12-.09-.24-.19-.37-.3-.06-.05-.12-.11-.19-.17l-.1-.1s-.05-.05-.07-.08c-.02-.03-.04-.05-.05-.07-.08-.17-.11-.34-.09-.54.02-.17.08-.34.19-.47.1-.13.25-.24.4-.28.07-.02.13-.03.19-.03.1,0,.21.02.32.06.01,0,.03.01.04.01.01.01.03.02.04.04.04.03.07.06.11.09l1.74,1.5c.24.21.51.44.77.6.28.17.55.38.84.64.14.12.27.24.4.37,0,0,.29.29.31.31,0,0,0,0,.01.01.12.15.26.25.35.32l.06.05c.11.09.21.15.31.21.04.03.08.05.12.08.12.09.27.14.41.14.11,0,.22-.03.33-.08.24-.13.38-.38.36-.65,0-.03,0-.06,0-.08.07-.19.05-.35.03-.45-.02-.17-.03-.3-.04-.43,0-.27-.01-.56-.01-.85,0-.6.01-1.18.05-1.74,0-.14,0-.28,0-.43v-1.85c-.01-.16-.02-.32-.03-.47,0,0-.02-.42-.03-.54-.01-.24-.03-.46-.03-.69v-.55s.01-.27.01-.27v-.07c.03-.19,0-.48-.28-.75-.03-.03-.14-.13-.23-.2l-.21-.17c-.52-.41-1.05-.8-1.57-1.17-.33-.24-.66-.48-.99-.73-.06-.04-.11-.08-.17-.12-.04-.02-.07-.04-.1-.07-.17-.14-.34-.28-.51-.41-.34-.27-.67-.53-1-.84-.08-.06-.25-.25-.35-.41-.06-.1-.09-.22-.08-.33.01-.16.07-.37.16-.54.09-.19.2-.34.32-.44.02-.02.06-.04.1-.07.16-.07.33-.11.51-.11.06,0,.13,0,.19.02.16.02.25.05.37.09.1.03.2.08.3.13.44.21.79.47,1.1.72.23.18.47.4.74.65.02.03.03.06.05.1.09.16.21.3.35.41,0,0,.06.04.06.04.12.09.26.14.41.14.04,0,.09,0,.13-.01.19-.04.36-.15.46-.32.04-.07.08-.17.1-.25v-.04c.02-.07.02-.12.03-.18v-.27s.02-.78.02-.78v-.56c.02-.54.03-1.08.04-1.61,0-.25,0-.51-.01-.76,0-.23-.01-.46-.01-.68,0-.37,0-.74.02-1.12,0-.22.02-.86.02-.86,0-.26,0-.53,0-.8-.02-.36-.03-.71-.03-1.07v-.47s0-.04,0-.04c.01-.23.06-.4.15-.51.01-.02.03-.04.04-.06.02-.03.08-.09.14-.13l.03-.02h0c.06-.04.15-.1.18-.11.01,0,.05-.02.06-.02.15-.07.31-.09.51-.1.03,0,.06,0,.08,0,.08,0,.12,0,.17.01.02,0,.04,0,.06,0,.08,0,.14.03.26.07l.05.02c.16.06.31.16.4.27.09.12.08.45.08.61v.7c-.02.46-.02.92-.02,1.38,0,.42.02.84.04,1.26.02.43.04.88.04,1.31,0,1.09-.02,1.96-.07,2.76-.02.39-.04.78-.05,1.18v.28s0,.24,0,.24v.3c.01.15.07.3.16.41.14.17.36.27.57.27.08,0,.17-.02.24-.05.18-.07.31-.18.4-.25h.01c.1-.05.21-.12.31-.2h-.01c.09-.06.23-.18.29-.24l.29-.27c.11-.11.22-.21.33-.31.27-.26.52-.5.81-.73l.26-.2.05-.04.1-.07s.06-.03.1-.05c.03,0,.07-.02.1-.02l.1-.02s.05-.01.09-.01c.02,0,.03,0,.05,0,.04,0,.08,0,.12,0,.06,0,.12,0,.17.01.2.03.4.11.55.24.16.13.27.31.31.5.08.3.03.66-.13.9,0,.02-.02.03-.03.05,0,0-.14.17-.14.17l-.05.05c-.08.09-.16.17-.24.24-.16.15-.32.29-.54.47-.34.27-.71.54-1.11.81-.76.5-1.52,1.08-2.33,1.78-.05.04-.1.09-.15.14-.02.02-.03.04-.05.05l-.04.03s-.05.03-.13.09c-.02.02-.06.04-.11.06-.25.11-.42.35-.42.62-.01.57,0,1.15.02,1.71,0,.24.02.49.02.73l.08,2.89c0,.16,0,.33-.01.49,0,.08,0,.17-.01.25-.02.4-.02.84-.01,1.36v.31s.01.14.01.14v.22s.01.04.01.06c0,0,0,.06,0,.07-.03.27.09.46.17.54.13.15.33.24.53.24.01,0,.02,0,.04,0,.32,0,.55-.18.62-.23l.32-.24.47-.39c.35-.29.69-.6,1.02-.9.26-.24.52-.48.79-.71.05-.04.1-.08.15-.12.14-.11.29-.23.41-.37.19-.21.42-.39.67-.57.15-.12.31-.23.46-.36.03,0,.09-.02.13-.03.15-.03.36-.06.54-.21.04-.03.09-.08.14-.14.06-.06.08-.09.18-.11.01,0,.07-.01.14-.01.12,0,.25.03.37.08.2.09.46.31.58.66.05.15.07.33.06.53-.02.18-.08.36-.16.51-.07.14-.18.27-.33.41-.09.08-.18.15-.26.21,0,0-.02.02-.03.02-.53.45-1.15.96-1.79,1.35-.11.07-.23.16-.37.28-.3.26-.61.53-.91.79-.71.61-1.44,1.24-2.13,1.89-.09.09-.19.17-.29.25l-.95.77c-.17.1-.29.26-.33.46v.04s-.02.08-.02.13v.34s-.02.79-.02.79l-.02,1.73v.53c-.02.66-.03,1.28-.07,1.91-.05.65-.03,1.36,0,2.02l.02.45s0,.03,0,.05v.1s.01.07.01.11c0,.01,0,.13,0,.13.01.22.13.43.31.55.11.07.24.11.38.11.08,0,.17-.02.25-.05l.08-.03s.04-.02.06-.03c.08-.04.16-.09.24-.14.02-.01.08-.06.2-.16l.42-.38c.28-.26.56-.53.87-.77.05-.04.1-.08.15-.12.06-.05.12-.1.16-.13,0,0,.03-.02.03-.02.07-.05.14-.1.23-.15l.07-.04c.08-.04.13-.08.2-.1l.21-.08s.05-.01.09-.02l.1-.02s.06-.01.1-.02c.05,0,.13,0,.21.01.22.03.46.15.62.32.16.16.27.42.3.66.03.24-.01.48-.11.72-.05.11-.11.21-.18.3l-.07.09-.18.2c-.08.09-.17.16-.25.24l-.06.05c-.51.43-1.07.81-1.61,1.18-.14.1-.29.2-.43.3-.7.49-1.29.93-1.79,1.37-.06.06-.12.1-.17.15-.04.03-.08.07-.12.11h0c-.13.09-.27.24-.36.49,0,.02-.01.05-.02.07-.04.19-.07.42-.08.65l-.03.67c0,.1-.01.2-.03.33,0,.01,0,.02,0,.04,0,.01-.04.14-.04.14-.01.05-.03.09-.04.12-.1.22-.23.36-.36.4-.13.04-.25.07-.39.07Z"/>
    <path class="cls-1" d="M238.15,180.43c-.08-2.08-.24-4.14-.44-6.2-.4-4.12-.93-8.21-1.21-12.35-.23-3.45-.6-6.89-.69-10.35-.1-3.94-.01-7.87-.59-11.76-.3-2.02-.63-4.19-.46-6.19.44-5.12,0-9.97-1.31-14.63-.86-3.05-.8-6.08-.25-9.2.2-1.11.38-2.26.43-3.4.16-4.52.27-9.04.39-13.56.02-.81.11-1.66,0-2.44-.63-4.58-.52-9.12-.29-13.8.39-7.99.29-16.04.43-24.06.02-1.25.26-2.48.4-3.72.14-1.25.37-2.49.4-3.75l.11-6.43.03-3.21c0-.12,0-.3,0-.46v-.48s-.03-.95-.03-.95c-.05-.63-.08-1.27-.15-1.9-.56-5.04-2.36-9.97-5.24-14.07-1.11-1.6-2.35-3.11-3.75-4.4-1.4-1.29-2.96-2.36-4.65-3.05-2.47-1-4.73-2.15-7.08-3.24-2.34-1.09-4.76-2.16-7.33-2.89-1.88-.55-3.84-.99-5.82-1.22-1.76-.22-3.52-.4-5.29-.41-6.36-.06-12.78-.37-19.09.67-1.86.31-3.94.09-5.91.06-5.46-.08-10.92-.25-16.37-.26-4.65-.01-9.3.32-13.93.18-4.86-.14-9.66-.49-14.52.15-4.06.54-8.19.86-12.29,1.25-.8.08-1.62.04-2.42.09-4.82.31-9.4-.72-14.1-1.07-3.43-.26-6.86-.8-10.16-1.47-7.84-1.59-15.81-2.14-23.98-1.58-1.5.1-3.04.21-4.52.09-4.96-.4-9.87-.88-14.71.44-.7.19-1.61.05-2.42.07-1.65.06-3.3.06-4.95.05h-1.24s-.62-.02-.62-.02h-.74c-.98,0-1.97.08-2.95.16-3.93.38-7.82,1.53-11.21,3.52-3.54,2.07-6.75,4.6-9.55,7.53-2.79,2.94-5.16,6.31-6.91,10.04-.76,1.61-1.23,3.39-1.83,5.02-.12.34-.24.69-.36,1.04-.11.35-.2.7-.29,1.06-.2.71-.31,1.43-.43,2.16-.1.72-.17,1.46-.21,2.18-.01.36-.02.73-.02,1.09v.54s.02.45.02.45c.1,2.41.38,4.79.8,7.07.61,3.32.55,6.4.27,9.51-.34,3.82-.63,7.52-.17,11.38.27,2.25.4,4.75.05,6.91-.54,3.29-.29,6.6-.17,9.91.02.51.06,1.02.12,1.52.05.39.17.82.54,1.03.68.39,1.69-.02,2.37-.23,2-.63,4.06-1.05,6.07-1.66,1.12-.34,2.24-.68,3.39-.96,1.92-.44,3.86-.83,5.81-1.13.39-.07.78-.09,1.17-.14,2.43-.38,4.88-.61,7.33-.69.86-.05,1.71-.03,2.56-.05.85,0,1.71.04,2.57.08.63.07,1.27.13,1.92.2.64.09,1.28.2,1.91.3l1.8.37c.59.15,1.19.3,1.78.46l1.6.49,1.58.54c1.64.59,3.25,1.26,4.84,1.96,1.44.63,2.86,1.29,4.29,1.93,1.11.49,2.22.98,3.34,1.43.51.21,1.01.41,1.53.6.51.19,1.02.38,1.54.55,2.87.98,5.83,1.74,8.78,2.59,1.61.46,3.35.81,5.03,1.19,1.52.33,3.05.69,4.57.95,1.92.32,3.89.5,5.84.86.13.02.26.05.39.07.15.03.34.05.48.13.29.18.46.5.5.79.06.47-.04.84-.15,1.21-.12.36-.27.71-.43,1.04-.16.33-.33.66-.51.97-.1.16-.19.32-.29.47-.11.15-.22.3-.34.44-.38.45-.88.82-1.44,1.04-.56.23-1.15.31-1.71.35-1.14.06-2.24-.01-3.36.03-.62,0-1.26.04-1.9.06-.64,0-1.29.03-1.94.02-2.15-.01-4.29-.17-6.4-.24-.9-.03-1.99-.15-2.95-.27-1.61-.2-3.19-.41-4.82-.58-3.27-.35-6.53-.76-9.82-.87l-1.23-.03c-.09,0-.17,0-.25.02-.16.02-.41.08-.54.17-.22.15-.02.38.1.52l.07.09.13.16c.19.22.4.43.62.64.76.7,1.85.82,2.84,1.05,1.05.25,2.11.46,3.17.64,1,.18,2.05.34,3,.53,2.77.52,5.6.73,8.41,1,1.67.16,3.33.32,5,.45.61.05,1.23.11,1.84.14,2.44.14,4.88.17,7.29.1,1.09-.03,2.34-.22,3.49-.47.73-.18,1.47-.33,2.2-.53.72-.21,1.45-.39,2.16-.6.52-.15,1.01-.31,1.48-.47.48-.16.94-.35,1.41-.54,2.47-1.01,4.95-2.06,7.45-3.17.99-.44,1.98-.94,2.97-1.43,1.3-.64,2.59-1.28,3.89-1.92.52-.26,1.05-.51,1.57-.77,1.75-.87,3.51-1.72,5.28-2.55,1.78-.81,3.58-1.59,5.4-2.3.54-.2,1.1-.42,1.69-.56.59-.15,1.21-.23,1.82-.22.3,0,.6.03.9.07.29.04.61.1.89.18.57.17,1.12.37,1.66.63.32.15.64.32.95.55.27.2.57.52.61.89.02.2-.02.41-.11.6-.04.09-.1.19-.13.25-.03.06-.1.16-.16.23-.32.38-.64.62-.97.9-.33.27-.67.52-1.01.77-.68.5-1.37.97-2.06,1.44-.24.16-.49.33-.72.5-1.22.89-2.45,1.76-3.7,2.61-.52.36-1.11.76-1.6,1.04-1.64.95-3.22,2.03-4.83,3.04l-1.42.89c-.97.61-1.94,1.22-2.89,1.84-1.59,1.03-3.23,2.08-4.73,3.12-2.52,1.74-5.04,3.51-7.6,5.22-.47.31-.97.67-1.35.96-.96.73-2.04,1.4-3.15,2.05-1.79,1.05-3.61,2.05-5.47,2.99-.92.47-1.88.93-2.88,1.3-1,.38-2.05.65-3.13.76-1.52.17-3.16.06-4.61-.02-.21-.02-.53,0-.8.02-2.07.06-4.14.14-6.21.22-.39.02-.82.04-1.16.08-1.6.17-3.35.24-5.09.3-.48.02-.97,0-1.46-.02-.43,0-.86-.04-1.28-.02-1.44.05-2.9.09-4.33.15-2.78.12-5.56.17-8.35.1-.79-.02-1.55-.09-2.34-.11-1.85-.04-3.7-.1-5.55-.16-1.34-.05-2.67-.08-4.01-.17-1.34-.11-2.68-.26-4.01-.48-2.26-.37-4.48-.93-6.67-1.52-1.39-.38-2.77-.75-4.14-1.17-1.66-.51-3.31-1.09-4.95-1.57-.69-.2-1.42-.45-2.13-.65-.58-.1-1.15-.22-1.72-.36-.96-.24-1.89-.58-2.85-.85-.68-.19-1.59-.38-2.24-.02-.75.42-.69,1.46-.72,2.19-.04,1.21-.23,2.43-.41,3.62-.69,4.77-.49,9.87-.56,14.83-.09,6.24-.13,12.49-.08,18.73.07,7.44.31,14.87.37,22.31.02,2.95.1,5.91.04,8.86-.02,1.66.03,3.38.16,5.08.15,1.7.36,3.41.63,5.13.26,1.61.74,3.3,1.44,4.91.7,1.61,1.63,3.11,2.68,4.38,2.67,3.18,5.64,5.92,8.9,8.27,3.26,2.35,6.81,4.31,10.68,5.8l1.05.37.53.18.54.15,1.09.29c.37.08.74.15,1.1.23.74.16,1.49.24,2.24.33.38.05.75.06,1.13.09l.57.03h.28s.24.02.24.02c2.48.08,4.98.05,7.49-.08,2.53-.12,5.09-.12,7.63-.06,1.03.02,2.06.05,3.09.07.62-.06,1.27-.11,1.86-.34.66-.26,1.2-.75,1.69-1.26.5-.52,1.01-1.05,1.51-1.57,1.08-1.11,2.19-2.2,3.31-3.27,2.27-2.17,4.6-4.28,6.89-6.43,2.19-2.05,4.35-4.14,6.38-6.36,1.28-1.41,5.12-5.11,1.2-5.66-3.06-.43-6.49,1.63-9.41,2.3-4.84,1.11-6.5-1.24-2.83-4.77,5.38-5.17,12.46-9.51,18.36-14.14,2.45-1.93,5.93-4.36,7.41-7.11,2.34-4.37-2.01-.95-3.62-2.25-1.67-1.35,1.63-4.39,2.61-5.33,3.32-3.16,7.54-5.93,10.55-9.38.42-.48,2.07-2.26,1.63-2.89-1.75-.61-4.22,1.64-5.86.34-1.05-.84-.28-1.89.3-2.75,1.71-2.56,6.91-6.09,9.45-8.35,3.52-3.12,7.02-6.45,10.35-9.77,1.34-1.33,6.9-6.75,7.05-8.25.16-1.57-1.76-.65-2.57-.24-2.17,1.12-7.41,5.68-9.52,5.59-1.77-.08-2.04-1.69-1.55-3.1.96-2.74,3.66-6.71,5.35-9.16,5.84-8.45,11.47-13.94,20.42-19.06,4.03-2.31,12.19-5.18,14.65-8.76,3.6-5.22,1.61-9.1-2.7-12.75-8.7-7.37-19.16-4.83-29.59-4.45-2.6.1-4.21.26-3.29-2.9,1.88-6.43,15.67-12.66,21.79-14,3.67-.81,7.51-.64,11.1-1.87,3.59-1.23,6.01-3.96,9.25-5.65,10.65-5.54,26.17-2.79,36.32,2.83,3.9,2.16,6.42,4.39,11.02,5.42.87.2,3.47.43,3.95.7.77.43.84,1.15.31,1.82-1.36,1.71-7.11,1.12-9.16,1.29l-.32.44c.07.4.3.72.5,1.06,2.07,3.5,11.57,8.44,15.52,9.44,1.22.31,3.76.41,4.67.94.61.36.86,1.23.35,1.77-.43.45-4.44,1.2-5.33,1.35-2.35.39-5.21.38-7.45.87-2.13.47.14,3.02.84,3.92,2.64,3.43,6.09,7.54,8.99,10.75.85.94,4.71,4.37,4.9,5.17.3,1.29-.55,1.97-1.77,1.97-1.16,0-5.47-1.32-5.33.68,1.86,4.85,3.73,9.26,4.77,14.39.99,4.86,1.85,10.49,2.38,15.42.22,2.07,1.42,8.77-2.33,7.74-1.74-.47-2.58-3.32-3.28-3.69-.46-.24-.75.31-.74.73.24,6.94-1.48,10.76-4.32,16.87-2.64,5.68-5.89,12.76-8.97,18.12-.81,1.41-2.32,4.15-4.31,3.33-1.38-.57-1.17-2.97-1.45-4.16-.21-.88-.37-1.56-1.42-.93-.57.34-3.1,6.16-3.73,7.3-1.06,1.93-4.35,7.41-5.94,8.58-2.12,1.55-3.38.04-3.72-2.08-.23-1.48-.13-5.49-1.89-1.59-1.07,2.39-4.87,12.51-4.92,14.64-.12,4.66,3.45,8.1,6.37,11.2,3.78,4.01,8.42,8.03,12.16,12.23.24.24.47.51.68.78.33.38.65.76.95,1.15.3.38.63.75,1.05,1.02,1.05.67,2.48.75,3.69.85,1.04.08,2.12-.26,3.17-.32,1.21-.07,2.43-.02,3.63.15.22.03.45.07.67.03.19-.03.37-.1.56-.15.89-.24,1.78.12,2.66.19.95.07,1.94.07,2.9.07,2.15,0,4.3-.22,6.38-.74.85-.19,1.67-.48,2.52-.77.83-.33,1.68-.68,2.5-1.14,1.65-.88,3.28-2.02,4.76-3.5,1.53-1.51,3.02-3.16,4.29-4.93,1.27-1.77,2.29-3.67,2.9-5.57.78-2.38,1.33-4.77,1.78-7.16.44-2.39.78-4.78,1.08-7.24.1-.68.14-1.36.17-2.03.04-.75.04-1.19.05-1.73,0-1.05-.01-2.09-.05-3.13ZM58.52,67.91c.06.14.1.18.14.33.03.11.04.23.06.34.1.65.17,1.32.16,1.98,0,.48-.01.96-.02,1.52.04.29.08.62.12.95.01.12.02.25.03.37,0,.14.02.22,0,.44-.03.38-.21.76-.49,1.03-.27.28-.67.46-1.03.5-.24.03-.49.07-.76.12-.19.03-.39.06-.63.06-.23,0-.55-.04-.82-.19-.27-.14-.47-.4-.6-.66-.05-.12-.11-.25-.13-.36-.03-.12-.06-.23-.07-.34-.05-.34-.04-.64-.04-.92l.02-.85.05-1.67c.01-.76.02-1.53-.03-2.24v-.13s-.02-.07-.02-.07c-.01-.04-.03-.08-.05-.12-.04-.08-.11-.15-.18-.2l-.97-.53c-1.39-.76-2.75-1.51-4.12-2.31-1.04-.61-2.14-1.19-3.21-1.79l-.72-.41-.78-.44.05.03c-.45-.21-.87-.47-1.25-.79-.36-.33-.68-.7-.95-1.1-.52-.81-.86-1.7-1.03-2.62-.21-1.15-.21-2.34.09-3.49.09-.33.2-.66.25-.8.09-.22.18-.38.25-.52.07-.14.15-.25.22-.37.49-.82,1.31-1.52,2.28-1.82.48-.14.98-.2,1.46-.18.25,0,.53.05.77.12.24.07.46.16.66.23.33.13.59.2.78.17.1,0,.2-.05.3-.09l.08-.04s.05-.03.06-.04c.03-.02.05-.05.08-.07.08-.1.15-.25.15-.44,0-.18-.05-.36-.13-.49-.04-.06-.09-.12-.14-.15l-.03-.02-.1-.06-.2-.11-.81-.46c-2.36-1.33-4.66-2.7-6.93-4.11-.23-.14-.48-.28-.71-.42-.23-.14-.45-.28-.67-.43l-.08-.05s-.08-.05-.12-.07c-.08-.05-.15-.12-.22-.18-.07-.06-.13-.13-.18-.21l-.11-.15c-.15-.19-.31-.38-.47-.57-.33-.38-.69-.78-1.01-1.26-.31-.48-.55-1.06-.61-1.66-.02-.15-.02-.3-.03-.45,0-.15.02-.29.03-.43,0-.14.02-.28.05-.43.03-.14.05-.28.09-.42.15-.56.41-1.09.74-1.56.33-.47.77-.86,1.24-1.18.47-.32,1-.55,1.54-.71.27-.09.55-.12.83-.17.28-.02.56-.06.84-.04v-.02c.23,0,.48.05.71.07.22.02.48.08.7.15.23.07.43.16.63.25.4.18.75.39,1.1.55.54.25,1.03.4,1.46.26.22-.06.45-.17.63-.33.18-.15.32-.34.42-.55.25-.54.13-1.21-.24-1.7-.05-.06-.1-.12-.15-.18l-.19-.18c-.12-.12-.28-.23-.42-.34-.31-.21-.63-.41-.97-.6-1.08-.61-2.27-1.13-3.41-1.85-.44-.29-.88-.59-1.28-.98-.1-.09-.2-.2-.29-.3-.09-.11-.19-.21-.27-.33l-.25-.36-.19-.37c-.4-.8-.64-1.73-.54-2.66.08-.92.44-1.81,1-2.53.49-.61,1.1-1.13,1.82-1.45.71-.32,1.5-.49,2.28-.46.17,0,.34.03.52.05.17.03.35.03.51.08.33.1.66.16.99.32.63.29,1.13.62,1.65.87.32.16.64.29.92.34.28.06.48,0,.66-.13.1-.08.16-.17.2-.34.04-.16.05-.39.04-.63-.01-.24-.04-.51-.05-.81,0-.15,0-.3,0-.47.01-.16.04-.29.06-.43.16-1.13.52-2.26,1.16-3.26.84-1.33,2.2-2.33,3.69-2.79.21-.08.43-.13.65-.19.22-.06.44-.09.66-.13.55-.07,1.11-.06,1.66,0,.52.04,1.04.16,1.54.3.58.18,1.13.43,1.65.74.52.32.99.71,1.41,1.15,1.13,1.19,1.81,2.83,1.75,4.46-.01.53-.03,1.03,0,1.47.02.21.05.43.11.57.06.15.12.24.18.29.05.03.2.09.33.09.14.01.32-.03.5-.08.38-.12.8-.35,1.24-.6.38-.21.77-.45,1.26-.65.49-.18.96-.31,1.47-.37,1.01-.13,2.09.05,3.01.55,1.05.57,1.88,1.52,2.31,2.63.44,1.1.48,2.38.07,3.52-.19.53-.47,1.03-.8,1.47-.11.13-.21.26-.32.38l-.35.35-.37.32c-.12.1-.24.19-.37.28-.49.36-.99.68-1.5.97-.33.19-.68.35-1.02.53-.6.32-1.18.63-1.75.96-.28.16-.56.33-.82.51l-.35.24-.04.04s-.07.09-.09.14c-.18.29-.22.65-.2.96.02.27.1.51.24.68.03.05.07.09.12.13.04.04.12.09.17.13.06.05.12.08.18.11l.09.05.09.03c.17.06.34.08.54.05.21-.03.44-.1.7-.21.52-.21,1.09-.56,1.8-.8.62-.21,1.22-.3,1.85-.3.63,0,1.25.12,1.8.34,1.28.51,2.32,1.49,2.9,2.69.2.42.38.88.48,1.35l.04.11c.06.41.11.88.06,1.22-.14,1.18-.65,2.39-1.48,3.25-.19.2-.4.4-.61.56-.2.17-.41.34-.62.48-.21.16-.42.3-.64.44-.21.14-.43.28-.65.41-.87.52-1.76.98-2.64,1.42-1.38.68-2.78,1.27-4.07,2.01-.23.14-.47.27-.7.43l-.34.22-.32.24c-.22.16-.41.32-.54.46-.13.15-.16.24-.17.32,0,.07.02.19.09.34.08.15.17.31.25.37.08.07.1.09.19.1.08,0,.25-.02.43-.08.27-.09.58-.23.97-.33.1-.02.21-.04.31-.06l.27-.02.27-.02h.28c.73.01,1.49.19,2.16.57.66.38,1.19.95,1.56,1.58.38.63.6,1.31.72,2.01.05.29.09.59.11.89.06.92-.04,1.84-.29,2.73-.13.44-.29.88-.51,1.29-.21.42-.47.81-.77,1.17-.31.38-.69.72-1.11,1-.22.15-.41.25-.61.36l-.59.32-2.35,1.29c-.63.35-1.26.73-1.89,1.09-.27.15-.58.32-.84.44-1.1.52-2.21,1.05-3.26,1.53-.4.19-.81.29-.97.33-.17.04-.29.16-.38.3-.04.06-.07.29-.03.36ZM73.56,84.98c-.38.18-.79.3-1.18.47-.29.12-.57.27-.85.39-.75.32-1.3.39-2.12.27-.37-.06-.74-.13-1.1-.22-.08-.02-.15-.03-.23-.05-.47-.1-.94-.2-1.4-.33l-1.42-.41c-.19-.05-.39-.07-.58-.11-.08-.02-.17-.04-.24-.08-.45-.21-1.11-.39-1.53-.67-.03-.02-.06-.04-.09-.06-.26-.19-.24-.49-.1-.74.05-.09.11-.16.16-.2.13-.11.27-.19.42-.28.06-.08.13-.16.2-.25.23-.22.54-.27.82-.36.19-.07.37-.18.56-.25l.39-.13.42-.18c.39-.17.77-.34,1.15-.53.39-.19.78-.37,1.19-.52.31-.11.62-.28.92-.42l.21-.09,1.54-.7.83-.37c.08-.04.16-.08.19-.09.11-.04.18-.06.24-.08l1.29-.61c.18-.09.34-.2.52-.29.3-.15.61-.31.91-.45.67-.32,1.36-.6,2.07-.81.07-.02.14-.06.21-.08.07-.02.14-.04.21-.06,1.04-.44,2.09-.88,3.15-1.29v-.02s.12-.02.17-.04c.21-.09.41-.2.62-.29.33-.13.67-.27,1.01-.39.43-.16.86-.32,1.3-.45.36-.11.71-.19,1.11-.26.32-.04.6-.06.89-.07.46-.02.92-.01,1.38,0,.39.02.78.05,1.18.09.35.03.71.05,1.07.12.23.04.45.13.69.19.17.05.31.09.51.17.23.1.44.23.62.4l.12.14s.06.1.1.15c.03.05.05.11.08.16.13.26-.04.8-.08,1.06-.09.55-.84.7-1.28.9-.1.05-.19.12-.3.17-.13.06-.26.1-.39.15-.12.05-.24.11-.36.17-.27.13-.55.26-.81.4-.36.18-.7.41-1.07.56-.53.21-1.03.47-1.54.71-.44.21-.86.45-1.3.66l-1.5.73c-.12.06-.23.12-.35.18-.28.15-.55.3-.83.45-.09.05-.2.06-.3.1-.34.14-.69.28-1.03.44-.12.06-.23.15-.35.21-.21.11-.43.2-.64.3l-.97.43c-.27.12-.53.27-.8.35-.31.09-.59.24-.88.36-.1.04-.2.11-.3.16l-.02.02c-.09.04-.18.1-.27.11-.29.04-.54.19-.8.32-.49.24-.96.51-1.45.73ZM86.84,88.24c-.24.11-.47.24-.72.34-.19.08-.39.15-.59.22-.2.07-.4.13-.61.19-.26.08-.53.13-.8.18-.28.03-.55.08-.84.08-.46.02-.87-.04-1.28-.08-.32-.04-.63-.08-.95-.13-.51-.08-1.01-.16-1.52-.25-.44-.08-.86-.18-1.3-.27l-.58-.12-.31-.07c-.16-.04-.32-.08-.47-.13-.4-.12-.75-.29-1.01-.46-.65-.44-.49-.96.02-1.46.18-.18.4-.35.66-.5.16-.1.35-.2.5-.28l.3-.16.6-.32c.11-.06.22-.14.33-.2.14-.07.29-.13.44-.2.14-.07.27-.14.4-.21.31-.16.62-.32.93-.47.41-.22.8-.48,1.22-.64.61-.25,1.18-.54,1.77-.81l1.5-.72c.57-.27,1.16-.52,1.73-.78l.4-.19c.32-.16.64-.32.97-.47.11-.05.23-.07.34-.11.4-.15.79-.3,1.19-.46.14-.06.27-.16.41-.22.24-.11.49-.21.74-.31l1.12-.45c.31-.12.62-.28.92-.37.35-.1.68-.26,1.01-.39.12-.04.23-.11.35-.17l.02-.02c.1-.04.21-.1.3-.12.32-.05.62-.21.91-.35.56-.26,1.1-.55,1.66-.8.43-.2.89-.35,1.33-.54.32-.14.64-.31.96-.46l.4-.18.14-.06c.06-.03.12-.04.18-.05l.24-.05c.87-.17,1.74-.2,2.59-.14h.27c.56.04,1.12.1,1.67.22.58.12,1.14.31,1.68.5.23.08.47.14.71.26.1.05.21.12.3.19.17.16.35.35.49.6.13.25.15.53.08.76-.05.19-.19.3-.28.33-.03,0-.06,0-.09.01-.03.07-.08.15-.13.23,0,0-.01,0-.02.01.05.02.06.07.06.12,0,.11-.39.5-.58.59-.14.06-.28.13-.43.2-.07.07-.14.16-.22.24-.24.22-.57.29-.87.42-.21.09-.39.23-.6.33-.32.15-.64.28-.96.42-.44.2-.88.4-1.31.61-.45.22-.89.42-1.36.59-.36.13-.7.31-1.05.47l-.24.1-1.75.79-.93.43c-.09.04-.18.09-.22.11-.12.05-.2.07-.27.1-.49.24-.97.48-1.45.71-.2.1-.39.23-.59.34-.34.18-.69.35-1.04.53-.76.38-1.56.69-2.31.97-.08.03-.15.07-.23.1-.08.03-.16.06-.24.08-1.14.57-2.29,1.19-3.5,1.71v.02c-.06.02-.13.03-.19.06ZM113.88,79.66c.17,0,.33.04.41.1.22.17.83-.5,1.22-.51.18,0,.36,0,.57,0,.11-.03.24-.07.37-.1.39-.06.77.07,1.15.16.26.07.54.09.8.18.4.13.8.32,1.17.5.26.13.52.27.8.48l.11.08.12.12c.09.07.15.17.22.25.13.18.23.39.25.61.08.46-.2.9-.52,1.22-.08.07-.18.15-.27.23-.1.05-.24.1-.28.12l-.39.15c-.4.14-.79.34-1.19.51l-.27.11-1.97.87-1.05.48c-.1.05-.2.1-.24.12-.14.05-.22.08-.3.12-.55.26-1.09.53-1.63.8-.23.12-.44.26-.66.38-.38.2-.77.4-1.16.6-.85.43-1.72.81-2.6,1.14-.09.03-.18.08-.27.12-.09.04-.18.07-.27.09l-3.92,1.86v.02c-.06.03-.14.04-.21.08-.26.14-.5.29-.76.42l-1.21.62-1.53.78-1.22.6-.95.46-1.54.74-1.32.62-1.17.59c-.25.12-.52.21-.76.33-.67.35-1.34.69-2.02,1.04-.45.22-.91.43-1.37.64-.13.06-.25.14-.38.2-.29.14-.58.27-.85.36-.26.09-.51.13-.73.12-.21-.02-.42-.07-.6-.22-.19-.17-.23-.34-.28-.53,0-.07-.01-.14-.01-.21-.02-.36.12-.84.23-1.29.04-.14.07-.29.11-.43.03-.12.07-.24.11-.36.06-.17.11-.34.15-.49l.02-.11.03-.13.05-.26c.06-.34.11-.69.14-.99.02-.24-.01-.51-.04-.85-.02-.33-.04-.76.12-1.21.08-.26.23-.5.39-.7.17-.2.35-.37.53-.5l.19-.14.2-.09.24-.11.49-.22c.15-.07.3-.14.45-.21.36-.18.72-.35,1.08-.53.12-.06.25-.08.38-.13.44-.17.89-.35,1.32-.54.16-.07.3-.18.46-.25.27-.13.55-.24.83-.36l1.25-.52c.34-.14.69-.32,1.03-.42.4-.12.76-.3,1.14-.45.13-.05.26-.13.39-.19l.03-.03c.12-.05.24-.11.34-.13.36-.07.7-.24,1.03-.39.63-.28,1.25-.6,1.89-.87.5-.21,1.02-.37,1.52-.57.37-.14.74-.32,1.11-.47.31-.12.62-.24.92-.36l2.57-.96c.09-.03.18-.07.27-.11l1.64-.73c.58-.25,1.17-.49,1.76-.73.24-.1.47-.22.71-.32.1-.04.22-.08.32-.1.44-.08.88-.16,1.31-.18Z"/>
  </g>
</svg>