<?xml version="1.0" encoding="UTF-8"?>
<svg id="Layer_11" data-name="Layer 11" xmlns="http://www.w3.org/2000/svg" viewBox="0 0 227.45 321.91">
  <defs>
    <style>
      .cls-1 {
        fill: #1c5c7d;
      }
    </style>
  </defs>
  <g>
    <g>
      <g>
        <path class="cls-1" d="M24.11,226.85l11.75,28.72,9.55-23.07-1.91-5.66h23.07l-.22,4.04-2.94.81c-2.28.59-2.94,1.76-2.79,4.33l1.54,30.63c.15,2.28.51,3.38,3.09,4.19l2.72.81.22,4.04h-27.03l.22-4.04,3.45-.81c2.42-.66,3.23-1.69,3.08-4.26l-1.4-22.92-12.71,29.68h-6.39l-12.19-29.75-1.62,22.99c-.15,2.28.44,3.6,3.08,4.26l3.53.81.22,4.04H1.41l.22-4.04,3.01-.81c2.2-.59,2.72-1.76,2.94-4.26l2.35-27.99c.29-4.19-.51-6.17-3.38-7.05l-2.28-.66-.22-4.04h20.05Z"/>
        <path class="cls-1" d="M106.74,226.85l13.22,40.11c.66,2.06,1.17,3.23,3.16,3.89l2.64.81.15,4.04h-26.74l.22-4.04,5.8-1.69c.37-.44.15-2.13-.44-3.97l-2.13-6.68h-15.35l-2.35,7.35c-.29.88-.44,1.62-.44,2.28,0,.88.51,1.54,1.54,1.76l4.55.96.29,4.04h-19.61l.15-4.04,3.08-.81c1.62-.44,2.72-1.62,3.23-3.16l13.74-37.32-1.84-3.53h17.12ZM95.07,235.3l-6.32,19.47h12.49l-6.17-19.47Z"/>
        <path class="cls-1" d="M141.34,226.85c4.41,0,10.5-.66,14.91-.66,11.39,0,18.22,4.63,18.22,12.34,0,6.32-4.48,10.87-10.14,13.59,3.31,4.77,8.23,10.8,11.68,14.25,2.86,2.79,5.51,4.7,8.01,5.51l-.66,3.82c-1.4.81-4.19,1.47-7.05,1.47-5.58,0-11.02-2.57-14.91-7.71-2.28-2.94-5.88-9.11-8.3-14.4l-3.38-.07-.29,11.61c-.07,2.42.44,3.6,3.16,4.19l4.19.88.22,4.04h-28.21l.22-4.04,3.16-.81c2.28-.66,2.79-1.84,2.79-4.26l.44-30.56c0-2.35-.59-3.6-3.01-4.33l-2.94-.81-.15-4.04h12.05ZM149.86,250.07l4.11-.07,1.25-.07c2.42-.07,4.63-3.45,4.63-8.81,0-6.76-3.01-10.06-7.2-10.06-.37,0-.73,0-1.17.07-.73.15-1.18.66-1.18,1.62l-.44,17.34Z"/>
        <path class="cls-1" d="M205.55,225.53c4.33,0,9.04,1.1,12.12,2.28l5.51-1.98c0,4.7-.29,12.41-.51,17.19l-4.26.29c-1.91-9.55-6.83-12.27-11.46-12.27-3.89,0-6.24,1.91-6.24,5.36,0,3.67,2.87,5.29,9.18,8.89,8.81,5.07,14.69,9.11,14.69,16.82,0,8.89-7.34,14.84-19.46,14.84-4.55,0-9.7-.73-13.08-2.06l-4.19,1.69c-1.32-5.58-2.06-13.37-2.06-18.14l4.26-.29c1.98,9.33,7.79,13.22,13.74,13.22,4.19,0,6.46-1.91,6.46-5,0-4.11-5-6.68-11.75-10.65-6.68-3.97-11.46-7.86-11.46-15.28,0-9.92,8.23-14.91,18.51-14.91Z"/>
      </g>
      <g>
        <path class="cls-1" d="M21.92,286.1l-3.73,18.24h-2.76l-2.84-11.78c-.16-.62-.44-1.98-.52-2.42-.08.44-.37,1.8-.52,2.42l-2.97,11.78h-2.71l-3.73-18.24h2.76l2.19,11.52c.1.55.34,1.8.42,2.4.1-.6.36-1.82.5-2.37l2.92-11.54h2.35l2.97,11.81c.13.5.34,1.46.44,2.11.13-.68.29-1.69.36-2.14l2.22-11.78h2.66Z"/>
        <path class="cls-1" d="M28.46,304.34h-2.74v-18.24h2.74v18.24Z"/>
        <path class="cls-1" d="M45.17,304.34h-11.83v-18.24h2.74v15.56h9.1v2.68Z"/>
        <path class="cls-1" d="M62.7,295.22c0,6.44-4.12,9.12-8.89,9.12h-4.98v-18.24h4.98c4.9,0,8.89,2.68,8.89,9.12ZM59.92,295.22c0-3.83-1.77-6.46-6.1-6.46h-2.24v12.93h2.24c4.33,0,6.1-2.63,6.1-6.46Z"/>
        <path class="cls-1" d="M78.37,304.34h-11.83v-18.24h2.74v15.56h9.1v2.68Z"/>
        <path class="cls-1" d="M84.9,304.34h-2.74v-18.24h2.74v18.24Z"/>
        <path class="cls-1" d="M101.53,288.78h-9.02v4.77h5.24v2.68h-5.24v8.11h-2.74v-18.24h11.75v2.68Z"/>
        <path class="cls-1" d="M117.09,304.34h-12.14v-18.24h11.75v2.66h-9.02v4.51h5.24v2.66h-5.24v5.76h9.41v2.66Z"/>
        <path class="cls-1" d="M141.87,291.54c0,2.92-1.54,4.72-4.01,5.34l3.73,7.45h-3.15l-3.62-7.22h-4.12v7.22h-2.68v-18.24h8c3.18,0,5.86,1.69,5.86,5.45ZM139.11,291.62c0-1.9-1.25-2.95-3.1-2.95h-5.32v5.86h5.32c1.82,0,3.1-.94,3.1-2.92Z"/>
        <path class="cls-1" d="M158.23,304.34h-12.14v-18.24h11.75v2.66h-9.02v4.51h5.24v2.66h-5.24v5.76h9.41v2.66Z"/>
        <path class="cls-1" d="M173.95,299.1c0,3.28-2.08,5.53-6.75,5.53-2.66,0-4.95-1.15-6.49-2.95l1.95-1.9c1.23,1.33,3.02,2.16,4.74,2.16,2.55,0,3.78-.89,3.78-2.66,0-1.41-1.07-2.11-4.12-3.02-3.86-1.15-5.71-2.11-5.71-5.37s2.66-5.08,6.02-5.08c2.48,0,4.35.91,5.97,2.48l-1.93,1.95c-1.15-1.17-2.45-1.75-4.25-1.75-2.14,0-3.05,1.04-3.05,2.27s.83,1.9,3.99,2.84c3.6,1.09,5.84,2.24,5.84,5.5Z"/>
        <path class="cls-1" d="M191.04,301.13c-1.3,2.24-3.52,3.49-6.28,3.49-4.72,0-7.71-3.88-7.71-9.41s3-9.41,7.71-9.41c2.97,0,4.95,1.2,6.2,3.41l-2.42,1.51c-.94-1.49-1.9-2.19-3.78-2.19-3.18,0-4.9,2.58-4.9,6.67s1.72,6.67,4.9,6.67c1.9,0,3.08-.78,4.01-2.27l2.27,1.51Z"/>
        <path class="cls-1" d="M208.45,296.73c0,5.11-2.48,7.9-7.01,7.9s-6.85-2.92-6.85-7.95v-10.58h2.74v10.5c0,3.44,1.43,5.29,4.17,5.29s4.22-1.77,4.22-5.11v-10.69h2.74v10.63Z"/>
        <path class="cls-1" d="M225.2,304.34h-12.14v-18.24h11.75v2.66h-9.02v4.51h5.24v2.66h-5.24v5.76h9.41v2.66Z"/>
      </g>
    </g>
    <g>
      <path class="cls-1" d="M7.31,321.91l-2.2-5.39c-.18-.43-.41-1.06-.49-1.39v6.56h-.9v-8.36h1.04l1.97,5.01c.2.5.5,1.28.6,1.62.11-.36.41-1.13.6-1.62l2-5.01h1.02v8.36h-.9v-6.56c-.08.32-.32.94-.5,1.39l-2.23,5.39Z"/>
      <path class="cls-1" d="M19.73,317.5c0,2.52-1.41,4.33-3.49,4.33s-3.45-1.78-3.45-4.3,1.4-4.33,3.48-4.33,3.46,1.78,3.46,4.3ZM18.8,317.52c0-2.1-1.11-3.48-2.57-3.48s-2.51,1.35-2.51,3.45,1.1,3.48,2.56,3.48,2.52-1.35,2.52-3.45Z"/>
      <path class="cls-1" d="M27.54,318.28c0,2.32-.99,3.55-3,3.55s-3.02-1.21-3.02-3.53v-4.97h.93v4.95c0,1.8.69,2.7,2.14,2.7s2.02-.87,2.02-2.68v-4.97h.93v4.95Z"/>
      <path class="cls-1" d="M29.68,321.69v-8.36h.91l3.62,5.83c.18.29.49.84.6,1.05v-6.88h.9v8.36h-.87l-3.66-5.72c-.18-.29-.49-.84-.6-1.05v6.77h-.9Z"/>
      <path class="cls-1" d="M43.24,314.18h-2.46v7.51h-.93v-7.51h-2.46v-.85h5.85v.85Z"/>
      <path class="cls-1" d="M50.39,321.69h-.98l-.72-2.13h-3.45l-.73,2.13h-.96l2.9-8.36h1.03l2.9,8.36ZM48.41,318.72l-.92-2.75c-.18-.55-.43-1.3-.51-1.65-.08.33-.32,1.09-.53,1.67l-.92,2.72h2.88Z"/>
      <path class="cls-1" d="M53.12,321.69h-.93v-8.36h.93v8.36Z"/>
      <path class="cls-1" d="M55.38,321.69v-8.36h.91l3.62,5.83c.18.29.49.84.6,1.05v-6.88h.9v8.36h-.87l-3.66-5.72c-.18-.29-.49-.84-.6-1.05v6.77h-.9Z"/>
      <path class="cls-1" d="M69.97,321.69h-.98l-.72-2.13h-3.45l-.73,2.13h-.96l2.9-8.36h1.03l2.9,8.36ZM67.98,318.72l-.92-2.75c-.18-.55-.43-1.3-.51-1.65-.08.33-.32,1.09-.53,1.67l-.92,2.72h2.88Z"/>
      <path class="cls-1" d="M72.69,321.69h-.93v-8.36h.93v8.36Z"/>
      <path class="cls-1" d="M80.87,315.69c0,1.3-.78,2.12-1.97,2.37l1.84,3.63h-1.08l-1.79-3.56h-1.98v3.56h-.93v-8.36h3.31c1.47,0,2.61.75,2.61,2.37ZM79.94,315.73c0-1.03-.6-1.55-1.71-1.55h-2.34v3.12h2.22c1.24,0,1.83-.51,1.83-1.57Z"/>
      <path class="cls-1" d="M87.96,321.69h-5.23v-8.36h5.05v.85h-4.12v2.63h2.39v.85h-2.39v3.19h4.3v.85Z"/>
      <path class="cls-1" d="M99.21,321.69h-.98l-.72-2.13h-3.45l-.73,2.13h-.96l2.9-8.36h1.03l2.9,8.36ZM97.23,318.72l-.92-2.75c-.18-.55-.43-1.3-.51-1.65-.08.33-.32,1.09-.53,1.67l-.92,2.72h2.88Z"/>
      <path class="cls-1" d="M106.13,313.33l-2.84,8.36h-1.03l-2.84-8.36h.98l1.86,5.72c.17.5.43,1.35.51,1.65.08-.3.37-1.18.53-1.67l1.88-5.7h.96Z"/>
      <path class="cls-1" d="M108.86,321.69h-.93v-8.36h.93v8.36Z"/>
      <path class="cls-1" d="M117.49,321.69h-.98l-.72-2.13h-3.45l-.73,2.13h-.96l2.9-8.36h1.03l2.9,8.36ZM115.51,318.72l-.92-2.75c-.18-.55-.43-1.3-.51-1.65-.08.33-.32,1.09-.53,1.67l-.92,2.72h2.88Z"/>
      <path class="cls-1" d="M119.23,321.69v-8.36h.91l3.62,5.83c.18.29.49.84.6,1.05v-6.88h.9v8.36h-.87l-3.66-5.72c-.18-.29-.49-.84-.6-1.05v6.77h-.9Z"/>
      <path class="cls-1" d="M136.47,315.69c0,1.3-.78,2.12-1.97,2.37l1.84,3.63h-1.08l-1.79-3.56h-1.98v3.56h-.93v-8.36h3.31c1.47,0,2.61.75,2.61,2.37ZM135.54,315.73c0-1.03-.6-1.55-1.71-1.55h-2.34v3.12h2.22c1.24,0,1.83-.51,1.83-1.57Z"/>
      <path class="cls-1" d="M143.56,321.69h-5.23v-8.36h5.05v.85h-4.12v2.63h2.39v.85h-2.39v3.19h4.3v.85Z"/>
      <path class="cls-1" d="M150.34,319.49c0,1.31-1.03,2.33-2.77,2.33-1.13,0-2.15-.49-2.81-1.16l.62-.69c.63.61,1.36,1,2.22,1,1.11,0,1.8-.55,1.8-1.43,0-.78-.47-1.22-2-1.77-1.8-.65-2.41-1.23-2.41-2.44,0-1.34,1.05-2.14,2.62-2.14,1.12,0,1.84.33,2.54.9l-.6.73c-.61-.5-1.17-.78-2.01-.78-1.15,0-1.62.57-1.62,1.23,0,.69.31,1.09,1.98,1.68,1.85.67,2.42,1.29,2.42,2.53Z"/>
      <path class="cls-1" d="M157.99,320.44c-.61.83-1.52,1.39-2.74,1.39-2.04,0-3.38-1.85-3.38-4.3s1.4-4.33,3.42-4.33c1.15,0,2.01.43,2.66,1.34l-.74.56c-.54-.73-1.04-1.05-1.95-1.05-1.43,0-2.46,1.42-2.46,3.45s1.06,3.48,2.47,3.48c.91,0,1.53-.41,2.07-1.1l.65.56Z"/>
      <path class="cls-1" d="M165.6,318.28c0,2.32-.99,3.55-3,3.55s-3.02-1.21-3.02-3.53v-4.97h.93v4.95c0,1.8.69,2.7,2.14,2.7s2.02-.87,2.02-2.68v-4.97h.93v4.95Z"/>
      <path class="cls-1" d="M172.98,321.69h-5.23v-8.36h5.05v.85h-4.12v2.63h2.39v.85h-2.39v3.19h4.3v.85Z"/>
      <path class="cls-1" d="M183,319.49c0,1.31-1.03,2.33-2.77,2.33-1.13,0-2.15-.49-2.81-1.16l.62-.69c.63.61,1.36,1,2.22,1,1.11,0,1.8-.55,1.8-1.43,0-.78-.47-1.22-2-1.77-1.8-.65-2.41-1.23-2.41-2.44,0-1.34,1.05-2.14,2.62-2.14,1.12,0,1.84.33,2.54.9l-.6.73c-.61-.5-1.17-.78-2.01-.78-1.15,0-1.62.57-1.62,1.23,0,.69.31,1.09,1.98,1.68,1.85.67,2.42,1.29,2.42,2.53Z"/>
      <path class="cls-1" d="M191.48,317.5c0,2.52-1.41,4.33-3.49,4.33s-3.45-1.78-3.45-4.3,1.4-4.33,3.48-4.33,3.46,1.78,3.46,4.3ZM190.55,317.52c0-2.1-1.11-3.48-2.57-3.48s-2.51,1.35-2.51,3.45,1.1,3.48,2.56,3.48,2.52-1.35,2.52-3.45Z"/>
      <path class="cls-1" d="M199.08,320.44c-.61.83-1.52,1.39-2.74,1.39-2.04,0-3.38-1.85-3.38-4.3s1.4-4.33,3.42-4.33c1.15,0,2.01.43,2.66,1.34l-.74.56c-.54-.73-1.04-1.05-1.95-1.05-1.43,0-2.46,1.42-2.46,3.45s1.06,3.48,2.47,3.48c.91,0,1.53-.41,2.07-1.1l.65.56Z"/>
      <path class="cls-1" d="M201.82,321.69h-.93v-8.36h.93v8.36Z"/>
      <path class="cls-1" d="M209.31,321.69h-5.23v-8.36h5.05v.85h-4.12v2.63h2.39v.85h-2.39v3.19h4.3v.85Z"/>
      <path class="cls-1" d="M216.43,314.18h-2.46v7.51h-.93v-7.51h-2.46v-.85h5.85v.85Z"/>
      <path class="cls-1" d="M224.25,313.33l-2.87,5.04v3.32h-.93v-3.31l-2.87-5.05h1.06l1.34,2.4c.33.61.71,1.3.94,1.79.24-.49.61-1.19.94-1.79l1.34-2.4h1.04Z"/>
    </g>
  </g>
  <g>
    <path class="cls-1" d="M142.14,208.09c-.19-.3-.39-.59-.59-.89-1.93-2.46-3.87-4.91-5.73-7.42-2.45-3.31-5.15-8.08-7.88-10.97-1.65-1.75-2.15-.17-3.18,1.25-1.15,1.58-2.21,3.22-3.24,4.88-1.05,1.69-2.05,3.4-3.07,5.11-1.01,1.7-2.04,3.39-3.12,5.05-.38.58-.77,1.14-1.14,1.72-.21.32-.42.64-.6.98-.12.21-.33.56-.29.81,0,.05.03.1.06.15.14.26.41.43.69.52.7.22,1.58.16,2.31.14,2.15-.06,4.3-.14,6.44-.22,2.16-.08,4.32-.16,6.47-.23,2.16-.07,4.32-.12,6.48-.15,1.05-.01,2.11,0,3.16.01.53,0,1.05,0,1.58,0,.13,0,.28,0,.42,0,.37.01.75.01,1.07-.11.15-.06.28-.19.29-.34,0-.11-.06-.21-.12-.3Z"/>
    <path class="cls-1" d="M177.25,208.65c-.34-.79-1.13-1.21-1.77-1.71-.71-.55-1.39-1.13-2.07-1.72-1.33-1.16-2.61-2.36-3.89-3.57-.55-.52-1.11-1.05-1.67-1.56-2.87-2.63-5.83-5.3-8.6-8.03-.62-.61-2.22-2.77-2.86-3.06-.62-.29-.86.43-1.3.73-3.02,2.05-3.25-.75-3.14-3.14.07-1.5.92-4.94.42-6.13-.48-1.13-1.5-.36-2.25.06-1.46.83-4.86,4.22-6.19,4.14-.61-.04-1.12-.41-1.2-1.02-.19-1.51.97-2.36,1.09-3.87.2-2.46-1.09-1.58-2.4-.55-3.09,2.41-5.5,5.34-4.34,9.52.64,2.32,6.49,8.89,8.3,11.29,1.28,1.7,2.54,3.42,3.79,5.14.52.71,1.03,1.42,1.55,2.13.44.61.87,1.27,1.56,1.62.88.46,1.94.41,2.89.43,1.08.03,2.17.06,3.25.08,1.21.02,2.42.04,3.64.05,2.84.02,5.69-.3,8.54-.45.42-.02.85.01,1.27.03,1.49.07,2.97.17,4.46.25.19.01.38.02.56-.03.13-.04.26-.12.34-.23.04-.06.07-.13.07-.21,0-.06-.02-.13-.05-.18Z"/>
    <path class="cls-1" d="M102.15,141.78c1.76-.23,3.96-2.06,5.37-3.13,9.01-6.85,18.98-17.06,23.35-27.64.41-.99,1.7-4.54-.57-4.09-1.81.36-3.42,4.6-4.36,6.19-6.6,11.15-14.02,19.54-24.52,27.21-.88,1.13-.9,1.68.73,1.47Z"/>
    <path class="cls-1" d="M111.32,157.04c-6.78,6.28-14.25,12.59-21.75,17.98-2.45,1.76-7.33,4.39-9.2,6.32-.84.87-1.49,2.49.34,2.39,1.89-.11,7.5-3.72,9.34-4.9,9.28-5.93,18.75-13.89,26.72-21.5,14.9-14.24,33.25-36.51,30.36-58.64-.17-1.31-1.48-7.08-3.37-6.74-.68.12-.53,2.09-.49,2.66.08,1.16.45,2.34.56,3.51,2.08,21.26-20.14,40.17-35.97,50.86-4.46,3.02-10.94,6.09-14.82,9.38-.56.48-1.29,1.19-1.09,1.98.27.91,1.96.32,2.64.12,5.31-1.56,13.78-7.1,18.56-10.26,1.48-.98,6.89-5.24,7.95-5.53,1.89-.52.97,1.33.34,2.19-2.34,3.21-7.11,7.4-10.13,10.2Z"/>
    <path class="cls-1" d="M160.33,58.98c5.22-.89,4.92-9.07-.82-8.78-6.47.33-6,9.94.82,8.78Z"/>
    <path class="cls-1" d="M185.57,62.64c-.39-.22-.84-.58-1.33-.45-.7.34-.55.97-.36,1.59.53,1.68,5.2,6.04,6.96,5.98,1.6-.06,1.19-1.65.55-2.59-.82-1.19-4.48-3.76-5.82-4.52Z"/>
    <path class="cls-1" d="M191.88,76.47c-.3-.09-.7-.16-1-.06-.88.3.51,3.32.8,3.95,1.07,2.34,3.18,5.03,5.17,6.65.71.57,2.71,1.92,3.52,1.11.57-1.04-.23-2.37-.78-3.29-.83-1.41-6.44-7.97-7.71-8.36Z"/>
    <path class="cls-1" d="M201.66,117.32c.3.65,1.11,1.84,1.9,1.72,1.24-.44,1.14-2.1,1.06-3.21-.23-3.35-3.21-14.41-5.18-16.99-.31-.41-.98-1.07-1.53-.99-.42.06-.74.45-.83.84-.5,2.16.98,4.81,1.57,6.85.95,3.32,1.7,8.95,3,11.78Z"/>
    <path class="cls-1" d="M190.62,139.9c-.36,1.01-1.48,3.61.24,3.93,1.12.21,1.82-.64,2.49-1.38,4.8-5.28,6.45-21.02,3.54-27.38-.19-.42-.73-1.37-1.31-.96-.04.03-.3.87-.34,1.04-.53,2.21.11,5.77-.05,8.27-.4,6.28-2.53,10.81-4.57,16.49Z"/>
    <path class="cls-1" d="M54.14,60.52c-.1,0-.19-.01-.29-.03-.18-.04-.36-.15-.45-.28-.05-.06-.09-.13-.12-.2l-.04-.09s-.04-.09-.05-.13c0-.01,0-.02-.01-.03-.13-.36-.16-.7-.2-1.06l-.04-.42c-.01-.1-.02-.13-.02-.15,0,0-.02-.09-.03-.1v-.04c-.06-.14-.14-.26-.26-.34l-.04-.03s-.03-.02-.05-.03l-.04-.02c-.65-.47-1.29-.95-1.99-1.48l-.05-.04c-.07-.06-.15-.12-.22-.16-.75-.46-1.47-1.02-2.14-1.56-.02-.01-.04-.03-.06-.04-.08-.05-.15-.16-.23-.33-.02-.06-.06-.15-.07-.2,0-.02,0-.04,0-.06-.01-.05,0-.14,0-.21.02-.19.07-.4.16-.56.1-.17.24-.32.4-.43.2-.13.44-.2.65-.2.04,0,.09,0,.12,0h.06c.06.03.12.04.18.06.04.02.14.06.17.08.02.01.02.01.04.02.13.07.22.15.34.23l.04.03c.19.15.37.3.55.47l.12.11.66.59.17.15.07.06.1.08c.15.11.27.19.41.24.09.04.18.06.27.06.18,0,.36-.08.49-.21.09-.09.19-.25.18-.49v-.06c.02-.07.04-.16.04-.25v-.08s-.02-1.03-.02-1.03l-.04-1.72c0-.37,0-.74,0-1.11,0-.7,0-1.42-.03-2.13l-.02-.9v-.56c-.01-.18-.08-.34-.21-.46l-.1-.1-.3-.28-.65-.6c-.19-.18-.37-.32-.53-.44-.64-.45-1.08-.92-1.54-1.49-.25-.3-.49-.58-.9-.88-.05-.04-.15-.12-.33-.32-.45-.5-.86-.89-1.33-1.25-.11-.08-.23-.18-.35-.28-.06-.05-.12-.11-.18-.16l-.09-.1s-.05-.05-.07-.08c-.02-.03-.03-.05-.04-.07-.07-.17-.1-.32-.08-.51.02-.16.08-.32.18-.45.1-.13.24-.23.39-.27.06-.02.12-.03.19-.03.1,0,.2.02.3.06.01,0,.03,0,.04.01.01.01.03.02.04.04.03.03.07.06.1.09l1.66,1.43c.23.2.49.42.73.57.26.17.53.37.8.61.13.11.26.23.38.35,0,0,.28.28.3.3,0,0,0,0,.01.01.12.14.25.24.34.31l.06.04c.11.08.2.15.29.2.04.02.08.05.11.08.12.09.25.13.39.13.11,0,.21-.03.31-.08.23-.12.36-.36.35-.62,0-.03,0-.06,0-.08.06-.18.04-.33.03-.43-.02-.17-.03-.28-.04-.41,0-.25-.01-.53-.01-.81,0-.57.01-1.13.04-1.66,0-.13,0-.27,0-.41v-1.76c-.01-.15-.02-.3-.03-.45,0,0-.02-.4-.03-.51-.01-.23-.03-.44-.03-.65v-.53s.01-.26.01-.26v-.07c.03-.19,0-.45-.27-.71-.03-.03-.13-.12-.22-.19l-.2-.17c-.49-.39-1.01-.76-1.5-1.12-.32-.23-.63-.46-.95-.69-.05-.04-.11-.08-.16-.11-.03-.02-.07-.04-.1-.07-.16-.13-.33-.26-.49-.39-.33-.26-.64-.51-.95-.8-.07-.06-.24-.24-.33-.39-.06-.1-.09-.21-.08-.31.01-.15.07-.35.15-.52.09-.18.19-.33.31-.42.02-.02.06-.04.1-.06.15-.07.32-.11.48-.11.06,0,.12,0,.18.01.15.02.24.05.35.09.09.03.19.07.29.12.42.2.75.45,1.05.68.22.18.45.38.7.62.01.03.03.06.05.09.09.15.2.28.33.39,0,0,.06.04.06.04.11.09.25.13.39.13.04,0,.08,0,.13-.01.18-.04.34-.15.44-.3.04-.07.08-.16.09-.24v-.04c.02-.07.02-.12.03-.17v-.26s.02-.74.02-.74v-.53c.02-.51.03-1.03.04-1.54,0-.24,0-.48-.01-.73,0-.22-.01-.44-.01-.65,0-.36,0-.71.02-1.07,0-.21.02-.82.02-.82,0-.25,0-.51,0-.76-.02-.34-.03-.68-.03-1.02v-.45s0-.04,0-.04c.01-.22.06-.38.14-.49.01-.02.03-.04.04-.06.02-.03.08-.08.13-.13l.02-.02h0c.06-.04.14-.1.18-.11.01,0,.04-.02.06-.02.14-.06.29-.08.49-.1.03,0,.05,0,.08,0,.07,0,.12,0,.16.01.02,0,.04,0,.06,0,.07,0,.14.03.25.06l.05.02c.16.06.29.15.38.26.09.12.08.43.07.59v.67c-.02.44-.02.88-.02,1.32,0,.4.02.8.04,1.2.02.41.04.84.04,1.25,0,1.04-.02,1.88-.06,2.63-.02.37-.04.75-.05,1.12v.26s0,.23,0,.23v.28c.01.14.07.28.16.4.13.16.34.26.55.26.08,0,.16-.01.23-.05.17-.07.3-.17.38-.24h0c.1-.05.2-.11.3-.19h0c.08-.05.22-.17.28-.23l.28-.26c.11-.1.21-.2.32-.3.26-.25.5-.48.77-.7l.25-.2.05-.03.09-.06s.06-.03.09-.04c.03,0,.06-.02.09-.02l.09-.02s.04-.01.09-.01c.01,0,.03,0,.04,0,.04,0,.08,0,.12,0,.05,0,.11,0,.17.01.19.02.38.11.52.23.15.12.25.29.29.47.08.29.02.63-.12.86,0,.01-.02.03-.03.04,0,0-.13.16-.13.16l-.05.05c-.08.08-.16.16-.23.23-.15.15-.31.28-.52.45-.33.26-.67.51-1.06.77-.72.48-1.45,1.04-2.22,1.7-.04.04-.1.09-.14.14-.02.02-.03.03-.05.05l-.04.02s-.04.03-.12.09c-.02.01-.06.04-.1.06-.24.1-.4.33-.4.59-.01.55,0,1.1.02,1.63,0,.23.01.46.02.7l.07,2.76c0,.15,0,.31-.01.47,0,.08,0,.16-.01.24-.01.39-.02.8-.01,1.3v.29s.01.13.01.13v.21s.01.04.01.06c0,0,0,.06,0,.06-.03.26.09.44.16.52.13.15.32.23.51.23.01,0,.02,0,.04,0,.3,0,.52-.17.59-.22l.31-.23.45-.37c.34-.28.66-.57.97-.86.25-.23.5-.46.76-.68.05-.04.09-.08.14-.12.14-.11.27-.22.39-.36.18-.2.4-.37.64-.55.15-.11.3-.22.44-.34.03,0,.09-.02.13-.03.14-.02.34-.06.52-.2.04-.03.09-.08.14-.13.06-.06.08-.08.17-.11.01,0,.06-.01.14-.01.12,0,.24.03.35.08.19.08.44.29.55.63.05.15.07.32.06.5-.02.18-.08.35-.16.48-.07.13-.17.26-.31.39-.09.07-.17.14-.25.21,0,0-.02.01-.03.02-.5.43-1.1.91-1.71,1.29-.1.06-.22.15-.35.27-.29.25-.58.5-.87.75-.68.58-1.37,1.18-2.03,1.8-.09.08-.18.16-.28.24l-.91.74c-.16.09-.28.25-.32.44v.04s-.02.08-.02.12v.32s-.02.76-.02.76l-.02,1.65v.51c-.02.63-.03,1.22-.07,1.83-.04.62-.02,1.29,0,1.93v.43s.02.03.02.05v.09s.01.06.01.1c0,.01,0,.12,0,.12.01.21.12.41.3.52.11.07.23.11.36.11.08,0,.16-.01.24-.05l.08-.03s.04-.02.06-.03c.08-.04.15-.08.23-.14.02,0,.08-.05.19-.15l.4-.37c.27-.25.54-.5.83-.74.04-.04.09-.08.14-.12.06-.05.11-.1.16-.13,0,0,.03-.02.03-.02.07-.05.14-.1.22-.14l.07-.04c.07-.04.13-.07.19-.1l.2-.08s.05-.01.08-.02l.09-.02s.06-.01.1-.01c.05,0,.13,0,.2.01.21.03.44.14.59.3.15.16.26.4.29.63.03.23-.01.46-.11.69-.05.11-.11.21-.17.29l-.07.08-.18.19c-.08.08-.16.16-.24.23l-.05.05c-.48.41-1.02.77-1.53,1.12-.14.09-.28.19-.41.28-.67.46-1.23.89-1.71,1.31-.06.06-.11.1-.16.14-.04.03-.08.06-.12.1h0c-.13.09-.26.23-.34.47,0,.02-.01.04-.02.07-.04.18-.07.4-.08.62l-.03.64c0,.09-.01.19-.03.32,0,.01,0,.02,0,.04,0,.01-.04.13-.04.13-.01.05-.02.08-.04.12-.09.21-.22.34-.34.39-.12.04-.24.06-.37.06Z"/>
    <path class="cls-1" d="M227.4,172.28c-.08-1.99-.23-3.96-.42-5.92-.38-3.93-.89-7.84-1.15-11.79-.22-3.29-.57-6.58-.65-9.88-.09-3.76-.01-7.51-.56-11.23-.28-1.93-.6-4-.44-5.91.42-4.89,0-9.52-1.26-13.97-.82-2.91-.77-5.81-.24-8.79.19-1.06.37-2.16.41-3.25.15-4.31.25-8.63.37-12.95.02-.78.1-1.58,0-2.33-.6-4.38-.5-8.71-.28-13.18.37-7.63.27-15.31.41-22.97.02-1.19.25-2.37.38-3.55.13-1.19.36-2.38.38-3.58l.1-6.14.03-3.07c0-.12,0-.29,0-.43v-.45s-.03-.91-.03-.91c-.05-.6-.08-1.21-.15-1.81-.53-4.82-2.25-9.52-5-13.44-1.06-1.53-2.24-2.97-3.58-4.2-1.34-1.23-2.83-2.25-4.44-2.91-2.36-.96-4.51-2.05-6.76-3.09-2.24-1.04-4.55-2.06-7-2.76-1.8-.52-3.67-.95-5.56-1.16-1.68-.21-3.36-.38-5.05-.4-6.08-.05-12.2-.35-18.23.64-1.77.29-3.76.08-5.65.05-5.21-.08-10.42-.24-15.63-.25-4.44-.01-8.88.31-13.3.18-4.64-.14-9.23-.47-13.86.14-3.87.51-7.82.82-11.73,1.2-.76.07-1.54.03-2.31.08-4.6.29-8.98-.69-13.46-1.02-3.28-.25-6.55-.77-9.7-1.41-7.49-1.52-15.09-2.04-22.89-1.5-1.43.1-2.91.2-4.32.08-4.73-.39-9.43-.84-14.05.42-.67.18-1.54.05-2.31.07-1.57.05-3.15.06-4.72.05h-1.18s-.6-.02-.6-.02h-.7c-.94,0-1.88.07-2.82.15-3.75.36-7.46,1.46-10.71,3.36-3.38,1.98-6.45,4.39-9.12,7.19-2.67,2.81-4.93,6.03-6.6,9.58-.73,1.54-1.17,3.23-1.75,4.79-.12.33-.23.66-.34.99-.1.33-.19.67-.28,1.01-.19.68-.3,1.37-.41,2.06-.1.69-.16,1.39-.2,2.08-.01.35-.02.7-.02,1.04v.51s.02.43.02.43c.09,2.3.37,4.57.77,6.75.58,3.17.52,6.11.26,9.08-.33,3.64-.61,7.18-.16,10.87.26,2.14.39,4.53.04,6.6-.52,3.14-.28,6.3-.16,9.46.02.49.06.97.12,1.46.05.38.16.78.52.98.65.38,1.61-.02,2.26-.22,1.91-.6,3.88-1.01,5.8-1.59,1.07-.32,2.14-.65,3.23-.92,1.83-.42,3.68-.8,5.55-1.08.38-.06.75-.09,1.12-.14,2.32-.36,4.66-.58,7-.66.82-.05,1.63-.03,2.45-.05.81,0,1.63.04,2.45.08.61.06,1.22.13,1.83.19.61.08,1.22.2,1.83.29l1.72.35c.57.14,1.14.28,1.7.44l1.53.46,1.51.52c1.57.57,3.11,1.2,4.62,1.87,1.38.6,2.73,1.23,4.1,1.84,1.06.47,2.12.93,3.19,1.36.48.2.97.39,1.46.57.49.18.98.37,1.47.53,2.75.93,5.57,1.66,8.38,2.47,1.53.44,3.19.78,4.8,1.14,1.45.32,2.92.66,4.37.91,1.84.31,3.71.48,5.58.82.12.02.25.05.37.07.15.03.33.05.46.13.28.17.44.47.48.76.06.45-.04.8-.15,1.15-.11.35-.25.67-.41.99-.15.32-.31.63-.49.93-.09.15-.19.3-.28.45-.11.14-.21.28-.32.42-.37.43-.84.78-1.38,1-.53.22-1.09.3-1.64.34-1.09.06-2.14-.01-3.21.03-.59,0-1.2.04-1.82.06-.62,0-1.24.03-1.85.02-2.06-.01-4.09-.16-6.11-.23-.86-.03-1.9-.14-2.82-.26-1.53-.19-3.05-.39-4.6-.56-3.12-.33-6.23-.72-9.38-.83l-1.17-.03c-.08,0-.16,0-.24.02-.15.02-.39.07-.52.16-.21.15-.02.36.09.5l.07.08.13.15c.18.21.38.41.59.61.73.67,1.76.78,2.71,1,1,.23,2.01.44,3.03.62.95.17,1.96.33,2.86.5,2.65.5,5.35.7,8.03.96,1.59.15,3.18.31,4.77.43.59.05,1.17.1,1.76.14,2.33.14,4.66.16,6.96.09,1.04-.03,2.23-.21,3.33-.45.7-.17,1.41-.32,2.1-.51.69-.2,1.39-.37,2.06-.57.49-.15.96-.3,1.42-.45.46-.15.9-.34,1.35-.52,2.35-.97,4.73-1.97,7.11-3.03.94-.42,1.89-.9,2.84-1.36,1.24-.61,2.48-1.22,3.72-1.83.5-.24,1-.49,1.5-.73,1.67-.83,3.35-1.65,5.04-2.43,1.7-.78,3.41-1.52,5.16-2.2.52-.19,1.05-.4,1.61-.54.56-.14,1.15-.22,1.74-.21.29,0,.58.03.86.07.27.03.58.09.85.18.55.16,1.07.36,1.58.6.3.15.61.3.9.52.25.19.54.5.58.85.02.2-.02.39-.1.57-.04.09-.09.19-.12.24-.03.06-.1.15-.15.22-.3.36-.61.59-.93.86-.32.25-.64.5-.96.73-.65.47-1.3.93-1.97,1.38-.23.15-.47.32-.69.48-1.17.85-2.34,1.68-3.54,2.49-.5.34-1.06.73-1.52,1-1.56.9-3.08,1.94-4.61,2.9l-1.36.85c-.92.58-1.85,1.16-2.76,1.76-1.52.99-3.09,1.98-4.52,2.98-2.41,1.66-4.81,3.35-7.25,4.99-.45.3-.92.64-1.29.92-.91.7-1.95,1.34-3.01,1.95-1.71,1-3.45,1.96-5.23,2.85-.88.45-1.8.89-2.75,1.25-.95.36-1.96.62-2.99.73-1.46.16-3.02.06-4.4-.02-.2-.01-.51,0-.76.01-1.97.06-3.95.13-5.93.21-.38.01-.78.04-1.11.07-1.53.16-3.2.23-4.86.29-.46.02-.93,0-1.39-.02-.41,0-.82-.03-1.22-.02-1.38.05-2.77.09-4.13.15-2.66.11-5.31.17-7.98.1-.76-.02-1.48-.08-2.23-.1-1.76-.04-3.54-.1-5.3-.15-1.28-.05-2.55-.08-3.83-.17-1.28-.1-2.56-.24-3.83-.46-2.15-.36-4.28-.89-6.37-1.45-1.33-.36-2.64-.72-3.95-1.12-1.58-.49-3.16-1.04-4.73-1.5-.66-.19-1.36-.43-2.03-.62-.55-.1-1.1-.21-1.65-.35-.92-.23-1.81-.56-2.72-.81-.65-.18-1.51-.37-2.14-.01-.71.4-.66,1.4-.68,2.1-.04,1.15-.22,2.32-.39,3.46-.66,4.55-.46,9.42-.53,14.16-.09,5.96-.12,11.93-.07,17.89.06,7.1.3,14.2.35,21.3.02,2.82.09,5.64.04,8.46-.02,1.58.03,3.23.16,4.85.14,1.63.34,3.25.6,4.9.25,1.54.71,3.15,1.37,4.69.67,1.53,1.56,2.97,2.56,4.18,2.55,3.04,5.39,5.65,8.49,7.9,3.11,2.24,6.5,4.12,10.2,5.54l1.01.35.51.17.52.14,1.04.28c.35.08.7.15,1.06.22.71.15,1.42.23,2.14.32.36.04.72.06,1.08.08l.54.03h.27s.23.02.23.02c2.37.08,4.76.04,7.15-.07,2.42-.12,4.86-.11,7.28-.06.98.02,1.97.05,2.95.07.59-.06,1.22-.1,1.77-.32.63-.25,1.15-.72,1.61-1.2.48-.5.96-1,1.45-1.5,1.03-1.06,2.09-2.1,3.16-3.12,2.17-2.07,4.39-4.09,6.58-6.14,2.09-1.96,4.16-3.96,6.09-6.08,1.23-1.34,4.89-4.88,1.15-5.41-2.92-.41-6.2,1.55-8.98,2.19-4.63,1.06-6.21-1.18-2.71-4.55,5.13-4.94,11.89-9.08,17.54-13.5,2.34-1.84,5.66-4.16,7.07-6.79,2.24-4.17-1.92-.91-3.45-2.15-1.59-1.29,1.55-4.19,2.5-5.09,3.17-3.02,7.2-5.67,10.07-8.96.4-.46,1.98-2.16,1.55-2.76-1.68-.58-4.03,1.57-5.59.33-1.01-.8-.26-1.81.28-2.62,1.63-2.44,6.6-5.82,9.02-7.97,3.36-2.98,6.7-6.16,9.89-9.33,1.28-1.27,6.59-6.45,6.74-7.87.15-1.5-1.68-.62-2.46-.22-2.07,1.06-7.08,5.42-9.09,5.33-1.69-.08-1.95-1.61-1.48-2.96.91-2.62,3.49-6.41,5.11-8.75,5.58-8.07,10.95-13.31,19.49-18.2,3.85-2.2,11.64-4.95,13.99-8.36,3.43-4.99,1.54-8.69-2.58-12.18-8.31-7.04-18.3-4.61-28.25-4.25-2.48.09-4.02.25-3.14-2.77,1.8-6.14,14.96-12.08,20.81-13.37,3.5-.77,7.17-.61,10.59-1.78,3.43-1.18,5.74-3.78,8.83-5.39,10.17-5.29,24.99-2.67,34.68,2.71,3.72,2.07,6.13,4.19,10.52,5.18.84.19,3.31.41,3.77.67.74.41.81,1.1.3,1.74-1.3,1.63-6.78,1.07-8.75,1.23l-.31.42c.07.38.29.69.48,1.01,1.97,3.34,11.05,8.06,14.82,9.02,1.16.29,3.59.39,4.46.9.58.34.82,1.17.34,1.69-.41.43-4.24,1.15-5.09,1.29-2.24.37-4.97.36-7.11.83-2.03.44.13,2.88.8,3.74,2.52,3.27,5.81,7.2,8.58,10.26.81.9,4.5,4.17,4.67,4.93.28,1.23-.52,1.88-1.69,1.88-1.11,0-5.22-1.26-5.09.65,1.78,4.63,3.56,8.84,4.55,13.74.94,4.64,1.76,10.02,2.27,14.73.21,1.97,1.35,8.37-2.22,7.39-1.66-.45-2.46-3.17-3.13-3.53-.43-.23-.72.3-.7.69.23,6.63-1.42,10.27-4.13,16.11-2.52,5.43-5.62,12.19-8.56,17.3-.77,1.35-2.21,3.96-4.11,3.18-1.32-.54-1.12-2.84-1.39-3.97-.2-.84-.36-1.49-1.35-.89-.55.33-2.96,5.88-3.56,6.97-1.01,1.84-4.15,7.08-5.67,8.19-2.02,1.48-3.23.04-3.55-1.99-.22-1.42-.13-5.24-1.8-1.52-1.03,2.28-4.65,11.94-4.7,13.98-.11,4.45,3.29,7.73,6.08,10.69,3.61,3.83,8.04,7.67,11.61,11.67.23.23.44.48.65.75.31.36.62.72.91,1.1.29.37.6.72,1,.97,1,.64,2.37.72,3.52.81.99.08,2.02-.25,3.02-.31,1.16-.07,2.32-.02,3.47.14.21.03.43.06.64.03.18-.03.36-.1.53-.15.85-.23,1.7.11,2.54.18.91.07,1.85.07,2.77.06,2.05,0,4.1-.21,6.09-.71.81-.18,1.6-.45,2.41-.74.79-.32,1.6-.65,2.38-1.09,1.58-.84,3.13-1.93,4.55-3.34,1.46-1.44,2.89-3.01,4.09-4.71,1.21-1.69,2.19-3.5,2.77-5.32.74-2.28,1.27-4.56,1.7-6.83.42-2.28.74-4.56,1.04-6.91.09-.65.13-1.29.17-1.94.04-.71.04-1.14.05-1.65,0-1-.01-2-.05-2.99ZM55.88,64.84c.06.13.1.17.13.31.02.11.04.22.06.32.09.62.16,1.26.16,1.89,0,.46-.01.92-.02,1.45.03.28.07.59.11.91.01.12.02.24.02.36,0,.13.02.21,0,.42-.03.37-.2.72-.47.99-.26.26-.64.44-.98.47-.22.03-.47.07-.73.11-.18.02-.37.06-.6.06-.22,0-.53-.04-.78-.18-.25-.14-.45-.38-.57-.63-.05-.12-.1-.24-.13-.35-.03-.11-.05-.22-.06-.32-.05-.33-.04-.61-.04-.88l.02-.81.04-1.6c.01-.72.02-1.46-.03-2.14v-.13s-.02-.06-.02-.06c0-.04-.02-.08-.04-.12-.04-.07-.1-.14-.17-.19l-.92-.51c-1.33-.72-2.63-1.45-3.93-2.21-.99-.58-2.04-1.14-3.07-1.71l-.68-.39-.75-.42.05.02c-.43-.2-.84-.45-1.19-.76-.35-.31-.65-.67-.91-1.05-.5-.77-.82-1.63-.98-2.5-.2-1.1-.2-2.23.09-3.33.08-.32.19-.63.24-.76.08-.21.17-.36.24-.5.07-.14.14-.24.21-.35.47-.79,1.25-1.45,2.17-1.73.46-.13.94-.19,1.4-.17.24,0,.51.05.74.11.23.07.44.15.63.22.32.12.56.19.75.16.09,0,.19-.05.29-.09l.08-.04s.05-.03.06-.04c.03-.02.05-.05.08-.07.07-.1.14-.24.14-.42,0-.17-.04-.34-.12-.47-.04-.06-.08-.11-.14-.14l-.03-.02-.1-.05-.19-.11-.77-.43c-2.25-1.27-4.45-2.58-6.61-3.92-.22-.13-.45-.27-.68-.4-.22-.13-.43-.27-.64-.41l-.08-.05s-.08-.04-.11-.07c-.08-.05-.15-.11-.21-.17-.06-.06-.12-.13-.17-.2l-.11-.14c-.14-.18-.29-.36-.45-.54-.32-.36-.66-.74-.96-1.2-.3-.46-.53-1.02-.58-1.59-.02-.14-.02-.28-.02-.43,0-.14.02-.27.02-.41,0-.14.02-.27.05-.41.03-.13.05-.27.08-.4.14-.53.39-1.04.71-1.49.32-.45.74-.82,1.18-1.13.45-.31.95-.53,1.47-.67.26-.08.52-.12.79-.17.27-.02.53-.05.8-.04v-.02c.22,0,.45.05.68.07.21.02.46.07.67.14.22.07.41.15.6.24.38.18.72.37,1.05.52.51.24.98.38,1.39.24.21-.06.43-.17.6-.32.17-.15.31-.33.4-.53.24-.51.13-1.16-.23-1.62-.04-.06-.1-.11-.15-.17l-.18-.17c-.12-.12-.27-.22-.41-.32-.29-.2-.6-.4-.93-.58-1.03-.58-2.17-1.08-3.25-1.77-.42-.28-.84-.56-1.22-.94-.1-.08-.19-.19-.28-.29-.09-.1-.18-.2-.26-.32l-.23-.34-.18-.36c-.38-.76-.61-1.65-.52-2.54.08-.88.42-1.73.96-2.42.47-.58,1.05-1.08,1.74-1.38.68-.3,1.43-.46,2.17-.44.17,0,.33.03.49.05.16.03.33.02.49.08.32.1.63.15.95.3.6.28,1.08.59,1.57.83.31.15.61.28.88.33.27.05.46,0,.63-.12.1-.08.15-.17.19-.32.04-.16.04-.37.03-.6,0-.23-.03-.49-.04-.77,0-.14,0-.29,0-.45.01-.16.04-.28.05-.41.15-1.07.49-2.16,1.11-3.11.8-1.27,2.1-2.22,3.53-2.67.2-.07.41-.13.62-.18.21-.06.42-.09.63-.12.53-.06,1.06-.06,1.59,0,.5.04.99.15,1.47.29.55.17,1.08.41,1.57.71.49.31.94.68,1.35,1.1,1.08,1.14,1.73,2.71,1.67,4.25-.01.51-.03.98,0,1.4.02.2.05.41.11.55.05.15.12.23.17.27.05.03.19.08.32.09.13,0,.3-.03.48-.08.37-.12.77-.33,1.19-.57.37-.2.73-.43,1.21-.62.47-.17.91-.3,1.4-.35.96-.13,1.99.05,2.87.53,1.01.54,1.79,1.45,2.2,2.51.42,1.05.46,2.28.06,3.36-.18.51-.44.98-.77,1.41-.1.12-.2.25-.31.37l-.33.34-.36.3c-.12.1-.23.18-.35.27-.47.34-.95.64-1.43.93-.31.18-.65.34-.97.51-.57.31-1.13.6-1.67.92-.27.16-.53.32-.79.49l-.34.23-.04.03s-.06.09-.09.14c-.17.27-.21.62-.19.92.02.26.09.49.23.65.03.04.07.08.11.12.04.04.11.08.16.13.06.05.11.08.17.11l.08.05.08.03c.16.06.32.08.52.05.2-.03.42-.09.67-.2.5-.21,1.04-.53,1.72-.77.59-.2,1.17-.29,1.77-.29.6,0,1.19.11,1.72.33,1.22.49,2.22,1.42,2.77,2.57.19.4.36.84.46,1.29l.03.11c.06.39.1.84.05,1.17-.13,1.13-.62,2.28-1.41,3.1-.19.19-.39.38-.58.53-.19.16-.39.32-.59.46-.2.15-.4.29-.61.42-.2.14-.41.27-.62.39-.83.5-1.68.94-2.52,1.36-1.32.65-2.65,1.22-3.89,1.92-.22.13-.45.26-.66.41l-.32.21-.31.23c-.21.15-.39.3-.52.44-.13.14-.15.23-.16.31,0,.07.02.18.08.32.08.15.16.3.23.36.08.07.1.08.18.09.08,0,.23-.02.42-.08.26-.08.55-.22.93-.31.09-.02.2-.04.29-.05l.26-.02.26-.02h.26c.7.01,1.43.18,2.06.54.63.36,1.13.91,1.49,1.51.36.6.58,1.26.69,1.91.05.28.09.57.11.85.05.88-.04,1.76-.28,2.6-.12.42-.28.84-.49,1.23-.2.4-.45.77-.74,1.12-.3.37-.66.68-1.06.95-.21.15-.39.24-.58.34l-.56.31-2.24,1.23c-.61.34-1.2.69-1.81,1.04-.26.15-.55.3-.8.42-1.05.5-2.11,1-3.11,1.46-.38.18-.77.28-.92.32-.16.04-.27.15-.36.28-.04.06-.06.28-.03.35ZM70.24,81.14c-.37.17-.75.29-1.13.45-.28.11-.54.25-.82.38-.72.31-1.24.38-2.03.26-.36-.05-.71-.12-1.05-.21-.07-.02-.15-.03-.22-.04-.45-.09-.9-.2-1.34-.32l-1.35-.39c-.18-.05-.37-.07-.55-.11-.08-.02-.16-.04-.23-.07-.43-.2-1.06-.37-1.46-.64-.03-.02-.06-.04-.08-.06-.24-.19-.23-.47-.09-.71.05-.09.11-.15.15-.19.13-.11.25-.18.4-.26.06-.07.12-.16.19-.24.22-.21.52-.26.79-.35.19-.06.36-.17.54-.24l.37-.12.4-.17c.37-.16.74-.33,1.1-.5.37-.19.75-.35,1.14-.5.3-.11.59-.27.88-.4l.2-.08,1.47-.66.79-.36c.08-.04.15-.07.18-.09.11-.04.17-.05.23-.08l1.24-.58c.17-.08.32-.19.49-.28.29-.15.58-.29.87-.43.64-.31,1.3-.57,1.98-.78.07-.02.14-.06.2-.08.07-.02.14-.04.21-.05,1-.42,2-.84,3.01-1.23v-.02s.11-.02.16-.04c.2-.09.39-.19.59-.28.32-.13.64-.26.96-.37.41-.15.82-.3,1.24-.43.34-.1.68-.18,1.06-.25.3-.04.57-.06.85-.07.44-.01.88-.01,1.32,0,.37.02.75.05,1.12.08.34.03.68.05,1.02.11.22.04.43.12.65.18.16.04.3.08.49.17.22.09.42.22.59.38l.12.13s.06.1.09.15c.03.05.05.1.08.16.13.25-.04.76-.08,1.01-.09.52-.8.67-1.22.86-.1.05-.19.11-.28.16-.12.06-.25.09-.37.15-.12.05-.23.11-.34.16-.26.13-.52.25-.78.38-.34.18-.67.39-1.02.53-.51.2-.99.45-1.47.68-.42.2-.82.43-1.24.63l-1.43.7c-.11.05-.22.11-.33.17-.26.14-.53.29-.79.43-.09.04-.19.06-.28.1-.33.14-.66.27-.98.42-.12.05-.22.14-.33.2-.2.1-.41.19-.61.28l-.92.41c-.25.11-.51.26-.76.33-.3.09-.56.23-.84.35-.1.04-.19.1-.29.16l-.02.02c-.09.04-.18.09-.25.1-.27.04-.52.19-.76.31-.47.23-.92.48-1.39.7ZM82.92,84.26c-.23.11-.45.23-.69.32-.18.08-.37.15-.57.21-.19.07-.39.12-.58.18-.25.08-.51.12-.76.18-.27.03-.53.08-.8.08-.44.02-.83-.03-1.22-.07-.3-.03-.61-.08-.91-.12-.49-.07-.96-.15-1.45-.24-.42-.08-.82-.17-1.24-.26l-.55-.11-.3-.06c-.15-.04-.3-.08-.45-.12-.38-.11-.71-.27-.97-.44-.62-.42-.46-.92.02-1.39.17-.17.38-.33.63-.48.15-.09.33-.19.48-.27l.28-.15.57-.31c.11-.06.21-.13.32-.19.14-.07.28-.12.42-.19.13-.06.26-.13.39-.2.29-.15.59-.3.88-.45.39-.21.77-.46,1.17-.62.58-.24,1.13-.51,1.69-.77l1.43-.69c.55-.26,1.1-.5,1.66-.75l.39-.18c.31-.15.61-.3.92-.45.1-.05.22-.06.33-.1.38-.14.76-.29,1.13-.44.14-.06.26-.15.39-.21.23-.11.47-.2.71-.3l1.06-.43c.29-.12.59-.27.88-.35.34-.1.65-.25.97-.37.11-.04.22-.11.33-.16l.02-.02c.1-.04.2-.1.29-.11.31-.05.59-.2.87-.33.53-.24,1.05-.52,1.58-.76.41-.19.85-.33,1.27-.51.31-.13.61-.29.92-.44l.38-.17.14-.06c.05-.03.12-.04.17-.05l.23-.05c.83-.16,1.66-.2,2.47-.14h.26c.54.04,1.07.1,1.6.21.55.11,1.09.29,1.61.47.22.08.45.14.68.25.1.05.2.11.28.18.17.15.33.33.46.57.12.24.14.5.08.73-.05.18-.18.29-.27.31-.03,0-.05,0-.08.01-.03.07-.07.14-.12.22,0,0-.01,0-.02,0,.04.02.06.07.06.11,0,.11-.37.48-.55.56-.13.06-.26.12-.41.19-.06.07-.14.15-.21.23-.23.21-.54.28-.83.4-.2.08-.38.22-.57.31-.3.14-.61.27-.92.41-.42.19-.84.38-1.25.58-.43.21-.85.4-1.3.57-.34.12-.67.3-1.01.45l-.23.1-1.67.75-.89.41c-.09.04-.17.08-.21.1-.12.04-.19.07-.25.1-.46.23-.93.45-1.39.68-.19.1-.37.22-.56.32-.33.17-.66.34-.99.5-.73.36-1.49.66-2.21.93-.07.03-.15.07-.22.1-.07.03-.15.06-.22.08-1.09.55-2.18,1.13-3.34,1.63v.02c-.05.02-.13.03-.18.06ZM108.73,76.06c.16,0,.31.04.39.09.21.16.79-.48,1.17-.49.17,0,.35,0,.54,0,.1-.03.23-.07.35-.1.37-.06.74.06,1.1.16.25.07.52.09.77.17.38.12.76.3,1.11.48.25.13.49.26.76.46l.1.08.12.11c.08.07.15.16.21.24.12.18.22.37.24.58.08.44-.19.86-.5,1.16-.07.07-.17.14-.26.21-.1.05-.23.1-.27.11l-.37.14c-.38.14-.76.32-1.14.49l-.26.1-1.88.83-1,.46c-.1.05-.19.09-.23.11-.13.05-.21.08-.28.11-.52.25-1.04.51-1.56.77-.22.11-.42.24-.63.36-.37.19-.74.38-1.11.57-.82.41-1.64.77-2.49,1.09-.09.03-.17.08-.25.11-.08.03-.17.06-.26.09l-3.74,1.78v.02c-.06.03-.13.04-.2.08-.24.13-.48.27-.73.4l-1.16.59-1.46.74-1.17.57-.91.44-1.47.7-1.26.59-1.11.56c-.24.12-.49.2-.73.32-.64.33-1.28.66-1.93.99-.43.21-.87.41-1.3.61-.12.06-.24.14-.36.2-.27.14-.55.26-.82.34-.25.08-.49.13-.7.12-.2-.02-.4-.06-.58-.21-.18-.17-.22-.33-.27-.51,0-.07-.01-.13-.01-.2-.02-.35.11-.8.22-1.23.04-.14.07-.27.11-.41.03-.12.07-.23.1-.34.05-.16.1-.32.14-.47l.02-.1.03-.13.05-.25c.06-.33.11-.66.13-.95.02-.23-.01-.49-.04-.81-.02-.32-.03-.72.11-1.15.08-.25.22-.48.37-.67.16-.19.33-.36.51-.48l.18-.13.19-.08.23-.1.46-.21c.15-.06.29-.14.43-.21.35-.17.69-.34,1.04-.5.11-.05.24-.07.36-.12.42-.17.85-.33,1.26-.51.15-.06.29-.17.44-.24.26-.12.53-.23.79-.34l1.19-.5c.33-.14.66-.31.99-.41.38-.12.73-.29,1.09-.43.13-.05.25-.12.38-.18l.03-.02c.11-.04.23-.11.33-.13.34-.07.66-.23.98-.38.61-.27,1.2-.57,1.81-.83.48-.2.97-.36,1.45-.54.36-.14.71-.3,1.06-.45.29-.12.59-.23.88-.34l2.45-.92c.09-.03.17-.07.25-.11l1.57-.69c.55-.24,1.12-.46,1.68-.69.23-.09.45-.21.68-.31.1-.04.21-.08.31-.1.42-.08.84-.15,1.25-.17Z"/>
  </g>
</svg>