<?xml version="1.0" encoding="UTF-8"?>
<svg id="Layer_11" data-name="Layer 11" xmlns="http://www.w3.org/2000/svg" viewBox="0 0 400.69 141.62">
  <defs>
    <style>
      .cls-1 {
        fill: #737438;
      }
    </style>
  </defs>
  <g>
    <path class="cls-1" d="M40.64,2.37l21.04,51.42,17.1-41.3-3.42-10.13h41.3l-.39,7.23-5.26,1.45c-4.08,1.05-5.26,3.16-5,7.76l2.76,54.84c.26,4.08.92,6.05,5.52,7.5l4.87,1.45.39,7.23h-48.4l.39-7.23,6.18-1.45c4.34-1.18,5.79-3.03,5.52-7.63l-2.5-41.03-22.75,53.13h-11.44l-21.83-53.26-2.89,41.17c-.26,4.08.79,6.44,5.52,7.63l6.31,1.45.39,7.23H0l.39-7.23,5.39-1.45c3.95-1.05,4.87-3.16,5.26-7.63l4.21-50.11c.53-7.5-.92-11.05-6.05-12.63l-4.08-1.18-.39-7.23h35.9Z"/>
    <path class="cls-1" d="M188.6,2.37l23.67,71.81c1.18,3.68,2.1,5.79,5.66,6.97l4.73,1.45.26,7.23h-47.87l.39-7.23,10.39-3.02c.66-.79.26-3.81-.79-7.1l-3.81-11.97h-27.49l-4.21,13.15c-.53,1.58-.79,2.89-.79,4.08,0,1.58.92,2.76,2.76,3.16l8.15,1.71.53,7.23h-35.11l.26-7.23,5.52-1.45c2.89-.79,4.87-2.89,5.79-5.66l24.59-66.81-3.29-6.31h30.64ZM167.69,17.49l-11.31,34.85h22.36l-11.05-34.85Z"/>
    <path class="cls-1" d="M250.54,2.37c7.89,0,18.81-1.18,26.7-1.18,20.39,0,32.62,8.29,32.62,22.09,0,11.31-8.02,19.46-18.15,24.33,5.92,8.55,14.73,19.33,20.91,25.51,5.13,5,9.86,8.42,14.33,9.86l-1.18,6.84c-2.5,1.45-7.5,2.63-12.62,2.63-10,0-19.73-4.6-26.7-13.81-4.08-5.26-10.52-16.31-14.86-25.78l-6.05-.13-.53,20.78c-.13,4.34.79,6.44,5.66,7.5l7.5,1.58.39,7.23h-50.5l.39-7.23,5.66-1.45c4.08-1.18,5-3.29,5-7.63l.79-54.71c0-4.21-1.05-6.44-5.39-7.76l-5.26-1.45-.26-7.23h21.57ZM265.8,43.93l7.37-.13,2.24-.13c4.34-.13,8.29-6.18,8.29-15.78,0-12.1-5.39-18.02-12.89-18.02-.66,0-1.32,0-2.1.13-1.32.26-2.1,1.18-2.1,2.89l-.79,31.04Z"/>
    <path class="cls-1" d="M365.49,0c7.76,0,16.18,1.97,21.7,4.08l9.86-3.55c0,8.42-.53,22.23-.92,30.77l-7.63.53c-3.42-17.1-12.23-21.96-20.52-21.96-6.97,0-11.18,3.42-11.18,9.6,0,6.58,5.13,9.47,16.44,15.91,15.78,9.07,26.3,16.31,26.3,30.12,0,15.91-13.15,26.57-34.85,26.57-8.15,0-17.36-1.31-23.41-3.68l-7.5,3.02c-2.37-10-3.68-23.94-3.68-32.48l7.63-.53c3.55,16.7,13.94,23.67,24.59,23.67,7.5,0,11.57-3.42,11.57-8.94,0-7.37-8.94-11.97-21.04-19.07-11.97-7.1-20.52-14.07-20.52-27.36,0-17.75,14.73-26.7,33.14-26.7Z"/>
  </g>
  <g>
    <path class="cls-1" d="M36.73,108.44l-6.67,32.66h-4.95l-5.09-21.09c-.28-1.12-.79-3.55-.93-4.34-.14.79-.65,3.22-.93,4.34l-5.32,21.09h-4.85L1.31,108.44h4.95l3.92,20.62c.19.98.61,3.22.75,4.29.19-1.07.65-3.27.89-4.25l5.23-20.67h4.2l5.32,21.14c.23.89.61,2.61.79,3.78.23-1.21.51-3.03.65-3.83l3.97-21.09h4.76Z"/>
    <path class="cls-1" d="M48.44,141.1h-4.9v-32.66h4.9v32.66Z"/>
    <path class="cls-1" d="M78.35,141.1h-21.18v-32.66h4.9v27.86h16.29v4.81Z"/>
    <path class="cls-1" d="M109.75,124.77c0,11.53-7.37,16.33-15.91,16.33h-8.91v-32.66h8.91c8.77,0,15.91,4.81,15.91,16.33ZM104.75,124.77c0-6.86-3.17-11.57-10.92-11.57h-4.01v23.14h4.01c7.75,0,10.92-4.71,10.92-11.57Z"/>
    <path class="cls-1" d="M137.78,141.1h-21.18v-32.66h4.9v27.86h16.29v4.81Z"/>
    <path class="cls-1" d="M149.49,141.1h-4.9v-32.66h4.9v32.66Z"/>
    <path class="cls-1" d="M179.26,113.25h-16.14v8.54h9.38v4.81h-9.38v14.51h-4.9v-32.66h21.04v4.81Z"/>
    <path class="cls-1" d="M207.11,141.1h-21.74v-32.66h21.04v4.76h-16.14v8.07h9.38v4.76h-9.38v10.31h16.84v4.76Z"/>
    <path class="cls-1" d="M251.48,118.19c0,5.23-2.75,8.45-7.19,9.57l6.67,13.34h-5.65l-6.49-12.92h-7.37v12.92h-4.81v-32.66h14.33c5.69,0,10.5,3.03,10.5,9.75ZM246.54,118.33c0-3.41-2.24-5.27-5.55-5.27h-9.52v10.5h9.52c3.27,0,5.55-1.68,5.55-5.23Z"/>
    <path class="cls-1" d="M280.78,141.1h-21.74v-32.66h21.04v4.76h-16.14v8.07h9.38v4.76h-9.38v10.31h16.84v4.76Z"/>
    <path class="cls-1" d="M308.92,131.72c0,5.88-3.73,9.89-12.09,9.89-4.76,0-8.87-2.05-11.62-5.27l3.5-3.41c2.19,2.38,5.41,3.87,8.49,3.87,4.57,0,6.77-1.59,6.77-4.76,0-2.52-1.91-3.78-7.37-5.41-6.91-2.05-10.22-3.78-10.22-9.61s4.76-9.1,10.78-9.1c4.43,0,7.79,1.63,10.69,4.43l-3.45,3.5c-2.05-2.1-4.39-3.13-7.61-3.13-3.83,0-5.46,1.87-5.46,4.06s1.49,3.41,7.14,5.09c6.44,1.96,10.45,4.01,10.45,9.85Z"/>
    <path class="cls-1" d="M339.52,135.36c-2.33,4.01-6.3,6.25-11.25,6.25-8.45,0-13.81-6.95-13.81-16.84s5.37-16.84,13.81-16.84c5.32,0,8.87,2.15,11.11,6.11l-4.34,2.71c-1.68-2.66-3.41-3.92-6.77-3.92-5.69,0-8.77,4.62-8.77,11.95s3.08,11.95,8.77,11.95c3.41,0,5.51-1.4,7.19-4.06l4.06,2.71Z"/>
    <path class="cls-1" d="M370.69,127.48c0,9.15-4.43,14.14-12.55,14.14s-12.27-5.23-12.27-14.23v-18.94h4.9v18.8c0,6.16,2.57,9.47,7.47,9.47s7.56-3.17,7.56-9.15v-19.13h4.9v19.04Z"/>
    <path class="cls-1" d="M400.69,141.1h-21.74v-32.66h21.04v4.76h-16.14v8.07h9.38v4.76h-9.38v10.31h16.84v4.76Z"/>
  </g>
</svg>