<?xml version="1.0" encoding="UTF-8"?>
<svg id="Layer_11" data-name="Layer 11" xmlns="http://www.w3.org/2000/svg" viewBox="0 0 572.03 165.94">
  <defs>
    <style>
      .cls-1 {
        fill: #1c5c7d;
      }
    </style>
  </defs>
  <g>
    <path class="cls-1" d="M112.39,164.54c-.15-.24-.31-.47-.47-.7-1.53-1.94-3.06-3.88-4.53-5.87-1.94-2.61-4.07-6.39-6.23-8.67-1.31-1.38-1.7-.13-2.51.99-.91,1.25-1.75,2.54-2.56,3.86-.83,1.34-1.62,2.69-2.43,4.04-.8,1.34-1.61,2.68-2.47,3.99-.3.46-.61.9-.9,1.36-.16.25-.33.51-.48.77-.09.16-.26.44-.23.64,0,.04.02.08.04.12.11.2.32.34.54.41.56.18,1.25.13,1.83.11,1.7-.05,3.4-.11,5.09-.17,1.71-.06,3.41-.13,5.12-.18,1.71-.05,3.41-.1,5.12-.12.83-.01,1.67,0,2.5,0,.42,0,.83,0,1.25,0,.11,0,.22,0,.33,0,.29,0,.59.01.85-.09.12-.05.22-.15.23-.27,0-.09-.04-.17-.09-.24Z"/>
    <path class="cls-1" d="M140.15,164.98c-.27-.62-.89-.95-1.4-1.35-.56-.44-1.1-.89-1.64-1.36-1.05-.91-2.06-1.87-3.07-2.82-.44-.41-.88-.83-1.32-1.24-2.27-2.08-4.61-4.19-6.8-6.35-.49-.48-1.76-2.19-2.26-2.42-.49-.23-.68.34-1.03.58-2.39,1.62-2.57-.59-2.48-2.48.05-1.18.73-3.91.33-4.85-.38-.9-1.19-.29-1.78.05-1.15.65-3.84,3.34-4.9,3.27-.48-.03-.89-.33-.95-.81-.15-1.19.76-1.87.86-3.06.16-1.95-.86-1.25-1.9-.44-2.44,1.91-4.35,4.22-3.43,7.53.51,1.84,5.13,7.03,6.56,8.92,1.01,1.34,2.01,2.7,3,4.07.41.56.82,1.12,1.22,1.68.35.48.69,1,1.23,1.28.69.36,1.53.32,2.29.34.86.02,1.71.05,2.57.06.96.02,1.92.03,2.88.04,2.25.02,4.5-.24,6.75-.36.33-.02.67,0,1.01.03,1.18.06,2.35.13,3.53.2.15,0,.3.02.44-.03.1-.03.21-.09.27-.18.03-.05.05-.1.05-.16,0-.05-.02-.1-.04-.15Z"/>
    <path class="cls-1" d="M80.77,112.1c1.39-.18,3.13-1.63,4.24-2.48,7.12-5.42,15.01-13.49,18.47-21.85.32-.78,1.34-3.59-.45-3.24-1.43.28-2.7,3.64-3.44,4.89-5.22,8.82-11.08,15.45-19.39,21.52-.69.9-.71,1.33.58,1.16Z"/>
    <path class="cls-1" d="M88.02,124.17c-5.36,4.97-11.26,9.95-17.19,14.21-1.94,1.39-5.79,3.47-7.28,5-.67.68-1.18,1.97.27,1.89,1.5-.08,5.93-2.94,7.39-3.88,7.34-4.69,14.83-10.98,21.13-17,11.78-11.26,26.29-28.87,24.01-46.37-.13-1.03-1.17-5.6-2.66-5.33-.54.1-.42,1.66-.39,2.1.06.92.35,1.85.44,2.77,1.64,16.81-15.92,31.76-28.44,40.22-3.53,2.38-8.65,4.82-11.72,7.42-.45.38-1.02.94-.86,1.56.21.72,1.55.25,2.09.1,4.2-1.23,10.9-5.62,14.68-8.11,1.17-.77,5.45-4.14,6.29-4.38,1.49-.41.77,1.05.27,1.73-1.85,2.54-5.62,5.85-8.01,8.06Z"/>
    <path class="cls-1" d="M126.77,46.63c4.12-.7,3.89-7.17-.65-6.94-5.12.26-4.74,7.86.65,6.94Z"/>
    <path class="cls-1" d="M146.73,49.53c-.31-.18-.66-.46-1.05-.36-.56.27-.44.77-.28,1.25.42,1.33,4.11,4.78,5.51,4.72,1.26-.05.94-1.3.43-2.05-.65-.94-3.54-2.97-4.6-3.58Z"/>
    <path class="cls-1" d="M151.72,60.47c-.24-.07-.55-.13-.79-.05-.7.23.41,2.63.63,3.12.85,1.85,2.51,3.98,4.09,5.26.56.45,2.15,1.52,2.78.88.45-.82-.18-1.87-.62-2.6-.66-1.11-5.1-6.3-6.1-6.61Z"/>
    <path class="cls-1" d="M159.45,92.76c.24.51.88,1.46,1.5,1.36.98-.34.9-1.66.84-2.54-.18-2.65-2.54-11.4-4.1-13.43-.25-.32-.78-.85-1.21-.78-.33.05-.59.35-.66.67-.4,1.71.78,3.8,1.24,5.42.75,2.63,1.34,7.07,2.38,9.31Z"/>
    <path class="cls-1" d="M150.72,110.62c-.29.8-1.17,2.85.19,3.11.89.17,1.44-.5,1.97-1.09,3.8-4.17,5.1-16.62,2.8-21.65-.15-.33-.58-1.08-1.04-.76-.04.02-.24.69-.27.83-.42,1.75.09,4.56-.04,6.54-.31,4.97-2,8.55-3.62,13.04Z"/>
    <path class="cls-1" d="M42.81,47.85c-.08,0-.15,0-.23-.03-.14-.03-.28-.12-.36-.22-.04-.05-.07-.11-.1-.16l-.03-.07s-.03-.07-.04-.1c0,0,0-.02,0-.02-.1-.29-.13-.55-.16-.84l-.03-.34c0-.08-.01-.1-.02-.12,0,0-.02-.07-.02-.08v-.03c-.04-.11-.11-.2-.21-.27l-.03-.02s-.02-.02-.04-.02l-.03-.02c-.51-.37-1.02-.75-1.57-1.17l-.04-.03c-.06-.05-.12-.09-.17-.12-.59-.36-1.17-.81-1.69-1.24-.01-.01-.03-.02-.04-.03-.07-.04-.12-.12-.18-.26-.02-.04-.05-.12-.05-.16,0-.02,0-.03,0-.05,0-.04,0-.11,0-.17.01-.15.06-.32.13-.44.08-.14.19-.26.32-.34.16-.1.34-.16.51-.16.03,0,.07,0,.1,0h.05s.09.03.14.05c.03.01.11.05.14.06.01,0,.02.01.03.02.1.06.18.12.27.19l.03.02c.15.12.29.24.44.37l.1.09.52.46.13.12.05.04.08.07c.11.09.22.15.32.19.07.03.14.05.22.05.14,0,.29-.06.38-.17.07-.07.15-.2.14-.39v-.05c.02-.06.03-.12.03-.2v-.07s-.02-.82-.02-.82l-.03-1.36c0-.29,0-.58,0-.87,0-.55,0-1.12-.03-1.68l-.02-.71v-.44c0-.14-.07-.27-.17-.37l-.08-.08-.24-.22-.52-.48c-.15-.14-.29-.26-.42-.35-.5-.36-.85-.73-1.22-1.18-.2-.24-.38-.46-.71-.7-.04-.03-.12-.1-.26-.25-.36-.4-.68-.7-1.05-.99-.09-.07-.18-.14-.28-.22-.05-.04-.09-.08-.14-.13l-.07-.08s-.04-.04-.06-.06c-.02-.02-.03-.04-.03-.05-.06-.13-.08-.25-.07-.41.01-.13.06-.25.14-.36.08-.1.19-.18.3-.21.05-.01.1-.02.15-.02.08,0,.16.02.24.05.01,0,.02,0,.03.01.01,0,.02.02.03.03.03.02.05.05.08.07l1.32,1.13c.18.15.39.33.58.45.21.13.42.29.63.48.1.09.2.18.3.28,0,0,.22.22.24.24,0,0,0,0,0,.01.09.11.19.19.27.24l.05.03c.08.07.16.12.23.16.03.02.06.04.09.06.09.07.2.1.31.1.08,0,.17-.02.25-.06.18-.1.29-.29.27-.49,0-.02,0-.04,0-.06.05-.14.03-.26.02-.34-.01-.13-.02-.22-.03-.32,0-.2,0-.42-.01-.64,0-.45,0-.89.03-1.31,0-.1,0-.21,0-.32v-1.39c0-.12-.01-.24-.02-.36,0,0-.02-.32-.02-.4-.01-.18-.02-.35-.02-.52v-.42s0-.21,0-.21v-.05c.03-.15,0-.36-.21-.56-.02-.02-.11-.1-.17-.15l-.16-.13c-.39-.31-.8-.6-1.19-.89-.25-.18-.5-.36-.75-.55-.04-.03-.08-.06-.13-.09-.03-.02-.05-.03-.08-.05-.13-.11-.26-.21-.39-.31-.26-.21-.51-.4-.75-.63-.06-.05-.19-.19-.26-.31-.05-.08-.07-.17-.06-.25.01-.12.06-.28.12-.41.07-.15.15-.26.24-.33.02-.01.05-.03.08-.05.12-.06.25-.08.38-.08.05,0,.1,0,.14.01.12.02.19.04.28.07.07.03.15.06.23.09.33.16.59.35.83.54.17.14.36.3.56.49.01.02.02.05.04.07.07.12.16.22.26.31,0,0,.04.03.04.03.09.07.2.1.31.1.03,0,.07,0,.1,0,.14-.03.27-.12.35-.24.03-.06.06-.13.07-.19v-.03c.01-.05.02-.09.02-.13v-.2s.02-.59.02-.59v-.42c.02-.41.03-.81.03-1.22,0-.19,0-.38-.01-.57,0-.17-.01-.34-.01-.52,0-.28,0-.56.01-.84,0-.17.01-.65.01-.65,0-.2,0-.4,0-.6-.01-.27-.02-.54-.03-.81v-.35s0-.03,0-.03c0-.17.05-.3.11-.39.01-.01.02-.03.03-.05.01-.02.06-.07.1-.1l.02-.02h0s.11-.08.14-.09c0,0,.03-.01.04-.02.11-.05.23-.07.39-.08.02,0,.04,0,.06,0,.06,0,.09,0,.13,0,.01,0,.03,0,.04,0,.06,0,.11.02.2.05h.04c.12.06.23.13.3.22.07.09.06.34.06.46v.53c-.01.35-.02.7-.01,1.05,0,.32.02.63.03.95.01.33.03.66.03.99,0,.82-.01,1.48-.05,2.08-.02.29-.03.59-.04.89v.21s0,.18,0,.18v.22c.01.11.05.22.12.31.11.13.27.21.43.21.06,0,.13-.01.18-.04.14-.06.23-.14.3-.19h0c.08-.04.16-.09.24-.15h0c.06-.04.17-.14.22-.18l.22-.2c.09-.08.17-.16.25-.24.2-.19.4-.38.61-.55l.2-.15.04-.03.07-.05s.04-.02.07-.04c.02,0,.05-.01.07-.02l.07-.02s.03,0,.07-.01c.01,0,.02,0,.03,0,.03,0,.06,0,.09,0,.04,0,.09,0,.13,0,.15.02.3.08.41.18.12.1.2.23.23.38.06.23.02.5-.1.68,0,.01-.01.02-.02.04,0,0-.1.13-.1.13l-.04.04c-.06.07-.12.13-.18.18-.12.11-.24.22-.41.35-.26.21-.53.41-.84.61-.57.38-1.15.82-1.76,1.34-.04.03-.08.07-.11.11-.01.01-.03.03-.04.04l-.03.02s-.03.02-.09.07c-.02.01-.05.03-.08.04-.19.08-.31.26-.32.47-.01.43,0,.87.02,1.29,0,.18.01.37.01.55l.06,2.18c0,.12,0,.25-.01.37,0,.06,0,.13,0,.19-.01.31-.01.63-.01,1.03v.23s0,.1,0,.1v.17s.01.03,0,.05c0,0,0,.05,0,.05-.02.21.07.34.12.41.1.12.25.18.4.18,0,0,.02,0,.03,0,.24,0,.41-.13.47-.18l.24-.18.36-.29c.27-.22.52-.45.77-.68.2-.18.39-.36.6-.54.04-.03.07-.06.11-.09.11-.09.22-.18.31-.28.14-.16.32-.29.51-.43.12-.09.23-.17.35-.27.02,0,.07-.02.1-.02.11-.02.27-.05.41-.16.03-.03.07-.06.11-.1.05-.05.06-.07.13-.08,0,0,.05-.01.11-.01.09,0,.19.02.28.06.15.06.35.23.43.5.04.12.06.25.05.4-.02.14-.06.27-.12.38-.06.1-.14.2-.25.31-.07.06-.14.11-.2.16,0,0-.01.01-.02.02-.4.34-.87.72-1.35,1.02-.08.05-.17.12-.28.21-.23.2-.46.4-.69.59-.53.46-1.09.93-1.61,1.43-.07.06-.14.13-.22.19l-.72.58c-.13.07-.22.2-.25.34v.03s-.02.06-.02.1v.26s-.02.6-.02.6v1.3s-.02.4-.02.4c0,.5-.02.97-.05,1.44-.04.49-.02,1.02,0,1.53v.34s.01.02.01.04v.07s0,.05,0,.08c0,0,0,.1,0,.1,0,.17.1.32.24.41.09.06.18.08.28.08.06,0,.13-.01.19-.04l.06-.02s.03-.01.05-.02c.06-.03.12-.07.18-.11.01,0,.06-.04.15-.12l.32-.29c.21-.2.43-.4.66-.58.04-.03.07-.06.11-.09.05-.04.09-.08.12-.1,0,0,.02-.01.03-.02.05-.04.11-.08.17-.11l.06-.03c.06-.03.1-.06.15-.08l.16-.06s.04,0,.06-.01h.07s.05-.03.08-.03c.04,0,.1,0,.16,0,.17.02.35.11.47.24.12.12.21.32.23.5.02.18,0,.36-.09.54-.04.09-.08.16-.14.23l-.05.06-.14.15c-.06.07-.13.12-.19.18l-.04.04c-.38.32-.8.61-1.21.89-.11.07-.22.15-.33.22-.53.37-.97.71-1.35,1.04-.05.04-.09.08-.13.11-.03.02-.06.05-.09.08h0c-.1.07-.21.18-.27.37,0,.02-.01.04-.01.05-.03.14-.05.32-.06.49l-.02.5c0,.07-.01.15-.03.25,0,0,0,.02,0,.03,0,0-.03.11-.03.11,0,.04-.02.07-.03.09-.07.16-.17.27-.27.3-.09.03-.19.05-.29.05Z"/>
    <path class="cls-1" d="M179.8,136.22c-.06-1.57-.18-3.13-.33-4.68-.3-3.11-.7-6.2-.91-9.32-.17-2.6-.45-5.2-.52-7.81-.07-2.97-.01-5.94-.44-8.88-.22-1.53-.48-3.16-.35-4.67.33-3.87,0-7.52-.99-11.05-.65-2.3-.61-4.59-.19-6.95.15-.84.29-1.7.32-2.57.12-3.41.2-6.83.29-10.24.02-.61.08-1.25,0-1.84-.47-3.46-.39-6.89-.22-10.42.3-6.03.22-12.11.32-18.16.02-.94.2-1.87.3-2.81.1-.94.28-1.88.3-2.83l.08-4.85.03-2.43c0-.09,0-.23,0-.34v-.36s-.03-.72-.03-.72c-.04-.48-.06-.96-.12-1.43-.42-3.81-1.78-7.52-3.96-10.62-.84-1.21-1.77-2.35-2.83-3.32-1.06-.97-2.24-1.78-3.51-2.3-1.86-.76-3.57-1.62-5.35-2.44-1.77-.82-3.6-1.63-5.53-2.18-1.42-.41-2.9-.75-4.39-.92-1.33-.17-2.66-.3-3.99-.31-4.8-.04-9.65-.28-14.41.51-1.4.23-2.97.06-4.46.04-4.12-.06-8.24-.19-12.36-.2-3.51,0-7.02.24-10.52.14-3.67-.11-7.3-.37-10.96.11-3.06.41-6.18.65-9.28.95-.6.06-1.22.03-1.83.07-3.64.23-7.1-.54-10.64-.81-2.59-.19-5.18-.61-7.67-1.11C59.72.24,53.71-.17,47.54.26c-1.13.08-2.3.16-3.41.07-3.74-.3-7.46-.66-11.11.33-.53.14-1.21.04-1.83.06-1.24.04-2.49.05-3.74.04h-.93s-.47-.02-.47-.02h-.56c-.74,0-1.49.06-2.23.12-2.96.29-5.9,1.16-8.47,2.66-2.67,1.56-5.1,3.47-7.21,5.69-2.11,2.22-3.9,4.77-5.22,7.58-.57,1.22-.93,2.56-1.38,3.79-.09.26-.18.52-.27.78-.08.26-.15.53-.22.8-.15.53-.23,1.08-.33,1.63-.08.55-.13,1.1-.16,1.65,0,.28-.01.55-.01.82v.41s.01.34.01.34c.07,1.82.29,3.61.61,5.34.46,2.5.41,4.83.2,7.18-.26,2.88-.48,5.68-.13,8.59.2,1.7.3,3.58.03,5.22-.41,2.48-.22,4.98-.13,7.48.01.38.05.77.09,1.15.04.3.13.62.41.78.51.3,1.28-.01,1.79-.17,1.51-.47,3.07-.8,4.58-1.25.85-.26,1.69-.51,2.56-.73,1.45-.33,2.91-.63,4.39-.85.3-.05.59-.07.88-.11,1.83-.28,3.69-.46,5.54-.52.65-.04,1.29-.02,1.94-.04.64,0,1.29.03,1.94.06.48.05.96.1,1.45.15.48.06.96.15,1.45.23l1.36.28c.45.11.9.22,1.34.35l1.21.37,1.19.41c1.24.45,2.46.95,3.66,1.48,1.09.48,2.16.97,3.24,1.45.84.37,1.67.74,2.52,1.08.38.16.76.31,1.15.45.39.15.77.29,1.16.42,2.17.74,4.4,1.31,6.63,1.95,1.21.34,2.53.61,3.8.9,1.15.25,2.31.52,3.45.72,1.45.24,2.94.38,4.41.65.1.02.2.04.29.05.12.03.26.04.36.1.22.13.35.38.38.6.05.36-.03.63-.12.91-.09.27-.2.53-.32.79-.12.25-.25.5-.39.73-.07.12-.15.24-.22.36-.09.11-.17.22-.26.33-.29.34-.67.62-1.09.79-.42.17-.86.24-1.29.27-.86.05-1.69-.01-2.54.02-.47,0-.95.03-1.44.05-.49,0-.98.02-1.46.02-1.63-.01-3.24-.13-4.83-.18-.68-.02-1.5-.11-2.23-.2-1.21-.15-2.41-.31-3.64-.44-2.47-.26-4.93-.57-7.41-.65l-.93-.03c-.07,0-.13,0-.19.01-.12.02-.31.06-.41.13-.17.12-.02.29.07.39l.05.06.1.12c.15.17.3.33.47.48.57.53,1.4.62,2.14.79.79.19,1.59.34,2.39.49.75.14,1.55.26,2.26.4,2.1.4,4.23.55,6.35.76,1.26.12,2.52.24,3.77.34.46.04.93.08,1.39.11,1.84.11,3.68.13,5.5.07.82-.02,1.77-.16,2.63-.35.55-.13,1.11-.25,1.66-.4.55-.16,1.1-.29,1.63-.45.39-.12.76-.23,1.12-.36.36-.12.71-.27,1.07-.41,1.86-.77,3.74-1.56,5.62-2.39.75-.34,1.5-.71,2.24-1.08.98-.48,1.96-.96,2.94-1.45.4-.19.79-.39,1.19-.58,1.32-.66,2.65-1.3,3.99-1.92,1.34-.61,2.7-1.2,4.08-1.74.41-.15.83-.32,1.28-.43.45-.11.91-.18,1.37-.17.23,0,.45.02.68.05.22.03.46.07.67.14.43.13.84.28,1.25.48.24.12.48.24.71.41.2.15.43.39.46.67.02.15-.02.31-.08.45-.03.07-.07.15-.1.19-.02.05-.08.12-.12.18-.24.28-.48.47-.73.68-.25.2-.5.39-.76.58-.51.37-1.03.74-1.55,1.09-.18.12-.37.25-.54.38-.92.67-1.85,1.33-2.8,1.97-.39.27-.84.58-1.21.79-1.24.71-2.43,1.53-3.65,2.3l-1.07.67c-.73.46-1.46.92-2.19,1.39-1.2.78-2.44,1.57-3.57,2.35-1.9,1.32-3.8,2.65-5.74,3.94-.36.24-.73.5-1.02.73-.72.55-1.54,1.06-2.38,1.54-1.35.79-2.73,1.55-4.13,2.26-.7.36-1.42.7-2.17.98-.75.28-1.55.49-2.36.58-1.15.13-2.39.05-3.48-.01-.16-.01-.4,0-.6.01-1.56.05-3.13.1-4.69.17-.3.01-.62.03-.88.06-1.21.13-2.53.18-3.85.23-.36.01-.73,0-1.1-.01-.32,0-.65-.03-.97-.02-1.09.04-2.19.07-3.27.11-2.1.09-4.2.13-6.31.08-.6-.01-1.17-.07-1.77-.08-1.39-.03-2.8-.08-4.19-.12-1.01-.04-2.01-.06-3.03-.13-1.01-.08-2.02-.19-3.03-.36-1.7-.28-3.38-.7-5.04-1.15-1.05-.29-2.09-.57-3.13-.89-1.25-.39-2.5-.82-3.74-1.19-.52-.15-1.07-.34-1.61-.49-.44-.08-.87-.17-1.3-.28-.73-.18-1.43-.44-2.15-.64-.52-.14-1.2-.29-1.69-.01-.56.32-.52,1.1-.54,1.66-.03.91-.18,1.83-.31,2.73-.52,3.6-.37,7.45-.42,11.19-.07,4.71-.1,9.43-.06,14.14.05,5.62.24,11.23.28,16.84.02,2.23.07,4.46.03,6.69-.01,1.25.02,2.55.12,3.83.11,1.28.27,2.57.47,3.88.2,1.22.56,2.49,1.08,3.71.53,1.21,1.23,2.35,2.03,3.31,2.02,2.4,4.26,4.47,6.72,6.25,2.46,1.77,5.14,3.26,8.06,4.38l.8.28.4.13.41.11.82.22c.28.06.55.12.83.17.56.12,1.12.18,1.69.25.28.04.57.05.85.07l.43.02h.21s.18.02.18.02c1.88.06,3.76.03,5.65-.06,1.91-.09,3.84-.09,5.76-.05.78.02,1.56.04,2.33.06.47-.05.96-.08,1.4-.25.5-.2.91-.57,1.27-.95.38-.39.76-.79,1.14-1.19.82-.84,1.65-1.66,2.5-2.47,1.72-1.64,3.47-3.23,5.2-4.85,1.65-1.55,3.29-3.13,4.81-4.8.97-1.06,3.87-3.86.91-4.27-2.31-.33-4.9,1.23-7.1,1.73-3.66.84-4.91-.94-2.14-3.6,4.06-3.9,9.4-7.18,13.87-10.68,1.85-1.45,4.48-3.29,5.59-5.37,1.77-3.3-1.52-.72-2.73-1.7-1.26-1.02,1.23-3.31,1.97-4.02,2.5-2.39,5.7-4.48,7.97-7.08.32-.36,1.57-1.7,1.23-2.18-1.32-.46-3.19,1.24-4.42.26-.8-.63-.21-1.43.22-2.07,1.29-1.93,5.22-4.6,7.14-6.3,2.66-2.36,5.3-4.87,7.82-7.38,1.01-1,5.21-5.1,5.33-6.23.12-1.19-1.33-.49-1.94-.18-1.64.84-5.6,4.29-7.18,4.22-1.34-.06-1.54-1.27-1.17-2.34.72-2.07,2.76-5.07,4.04-6.91,4.41-6.38,8.66-10.52,15.41-14.39,3.04-1.74,9.2-3.91,11.06-6.61,2.72-3.94,1.22-6.87-2.04-9.63-6.57-5.57-14.47-3.65-22.34-3.36-1.96.07-3.18.19-2.48-2.19,1.42-4.85,11.83-9.55,16.45-10.57,2.77-.61,5.67-.48,8.38-1.41,2.71-.93,4.54-2.99,6.99-4.26,8.04-4.18,19.76-2.11,27.42,2.14,2.94,1.63,4.85,3.31,8.32,4.1.66.15,2.62.32,2.98.53.58.33.64.87.24,1.37-1.03,1.29-5.36.84-6.92.97l-.24.33c.05.3.23.54.38.8,1.56,2.64,8.74,6.37,11.72,7.13.92.23,2.84.31,3.52.71.46.27.65.93.27,1.34-.32.34-3.36.91-4.02,1.02-1.77.29-3.93.29-5.62.66-1.61.35.1,2.28.63,2.96,1.99,2.59,4.6,5.69,6.79,8.11.64.71,3.56,3.3,3.7,3.9.22.98-.41,1.49-1.34,1.49-.87,0-4.13-1-4.03.51,1.41,3.66,2.81,6.99,3.6,10.87.74,3.67,1.39,7.92,1.79,11.65.17,1.56,1.07,6.62-1.76,5.85-1.31-.36-1.95-2.51-2.48-2.79-.34-.18-.57.23-.56.55.18,5.24-1.12,8.12-3.26,12.73-2,4.29-4.44,9.63-6.77,13.68-.61,1.06-1.75,3.13-3.25,2.52-1.04-.43-.89-2.24-1.1-3.14-.16-.66-.28-1.18-1.07-.7-.43.26-2.34,4.65-2.81,5.51-.8,1.46-3.28,5.6-4.48,6.47-1.6,1.17-2.55.03-2.81-1.57-.18-1.12-.1-4.14-1.43-1.2-.81,1.8-3.68,9.44-3.72,11.05-.09,3.52,2.6,6.12,4.81,8.45,2.85,3.02,6.36,6.06,9.18,9.23.18.18.35.38.51.59.25.29.49.57.72.87.23.29.48.57.79.77.79.5,1.87.57,2.78.64.79.06,1.6-.2,2.39-.24.91-.05,1.83-.01,2.74.11.17.02.34.05.51.03.14-.02.28-.08.42-.12.67-.18,1.34.09,2.01.14.72.06,1.46.05,2.19.05,1.62,0,3.24-.17,4.82-.56.64-.14,1.26-.36,1.91-.58.63-.25,1.27-.52,1.89-.86,1.25-.66,2.47-1.53,3.6-2.64,1.16-1.14,2.28-2.38,3.24-3.72.96-1.33,1.73-2.77,2.19-4.2.59-1.8,1.01-3.6,1.34-5.4.33-1.8.59-3.61.82-5.46.07-.51.11-1.02.13-1.54.03-.56.03-.9.04-1.31,0-.79,0-1.58-.04-2.36ZM44.18,51.27c.05.1.08.14.11.25.02.08.03.17.05.26.07.49.13,1,.12,1.5,0,.36,0,.73-.01,1.15.03.22.06.47.09.72,0,.09.01.19.02.28,0,.1.01.17,0,.33-.03.29-.16.57-.37.78-.2.21-.5.34-.77.37-.18.02-.37.06-.58.09-.15.02-.3.04-.48.04-.17,0-.42-.03-.62-.14-.2-.11-.36-.3-.45-.5-.04-.09-.08-.19-.1-.27-.02-.09-.04-.17-.05-.25-.04-.26-.03-.48-.03-.7v-.64s.05-1.26.05-1.26c0-.57.02-1.16-.02-1.69v-.1s-.02-.05-.02-.05c0-.03-.02-.06-.04-.09-.03-.06-.08-.11-.14-.15l-.73-.4c-1.05-.57-2.08-1.14-3.11-1.75-.78-.46-1.62-.9-2.43-1.35l-.54-.31-.59-.33.04.02c-.34-.15-.66-.36-.94-.6-.27-.25-.51-.53-.72-.83-.39-.61-.65-1.29-.78-1.98-.16-.87-.16-1.77.07-2.63.06-.25.15-.5.19-.6.07-.16.13-.29.19-.39.05-.11.11-.19.16-.28.37-.62.99-1.15,1.72-1.37.36-.1.74-.15,1.11-.13.19,0,.4.04.58.09.18.05.35.12.5.17.25.1.45.15.59.13.07,0,.15-.04.23-.07l.06-.03s.04-.02.05-.03c.02-.01.04-.04.06-.05.06-.08.11-.19.11-.33,0-.13-.03-.27-.1-.37-.03-.05-.07-.09-.11-.11l-.02-.02-.08-.04-.15-.09-.61-.34c-1.78-1.01-3.52-2.04-5.23-3.1-.17-.1-.36-.21-.54-.32-.17-.11-.34-.21-.5-.32l-.06-.04s-.06-.04-.09-.05c-.06-.04-.12-.09-.17-.14-.05-.05-.1-.1-.14-.16l-.09-.11c-.11-.14-.23-.28-.36-.43-.25-.29-.52-.59-.76-.95-.24-.36-.42-.8-.46-1.26-.02-.11-.01-.22-.02-.34,0-.11.01-.22.02-.32,0-.11.02-.21.04-.32.02-.11.04-.21.07-.32.11-.42.31-.82.56-1.18.25-.36.58-.65.94-.89.36-.24.75-.42,1.16-.53.2-.07.41-.09.62-.13.21-.02.42-.04.63-.03v-.02c.18,0,.36.04.53.05.17.01.37.06.53.11.17.05.33.12.48.19.3.14.57.29.83.41.41.19.78.3,1.1.19.16-.05.34-.13.47-.25.14-.12.24-.26.31-.42.19-.41.1-.91-.18-1.28-.03-.05-.08-.09-.11-.13l-.15-.13c-.09-.09-.21-.17-.32-.26-.23-.16-.48-.31-.74-.46-.82-.46-1.71-.86-2.57-1.4-.33-.22-.66-.45-.97-.74-.08-.07-.15-.15-.22-.23-.07-.08-.15-.16-.21-.25l-.19-.27-.14-.28c-.3-.6-.48-1.31-.41-2.01.06-.7.33-1.37.76-1.91.37-.46.83-.86,1.38-1.09.54-.24,1.13-.37,1.72-.35.13,0,.26.03.39.04.13.02.26.02.39.06.25.08.5.12.75.24.47.22.85.47,1.24.66.24.12.48.22.69.26.21.04.36,0,.5-.1.08-.06.12-.13.15-.26.03-.12.04-.29.03-.47,0-.18-.03-.39-.03-.61,0-.11,0-.23,0-.35,0-.12.03-.22.04-.33.12-.85.39-1.71.87-2.46.63-1,1.66-1.76,2.79-2.11.16-.06.33-.1.49-.14.16-.05.33-.07.5-.09.42-.05.84-.05,1.25,0,.39.03.78.12,1.17.23.43.14.85.33,1.24.56.39.24.75.54,1.07.87.85.9,1.36,2.14,1.32,3.36,0,.4-.03.78,0,1.11.02.16.04.32.08.43.04.11.09.18.14.22.04.03.15.07.25.07.11,0,.24-.02.38-.06.29-.09.61-.26.94-.45.29-.16.58-.34.95-.49.37-.14.72-.23,1.11-.28.76-.1,1.58.04,2.27.42.8.43,1.42,1.15,1.74,1.98.33.83.36,1.8.05,2.66-.14.4-.35.78-.61,1.11-.08.1-.16.2-.24.29l-.26.27-.28.24c-.09.08-.18.14-.28.21-.37.27-.75.51-1.13.74-.25.15-.51.27-.77.4-.45.24-.89.48-1.32.73-.21.12-.42.25-.62.38l-.27.18-.03.03s-.05.07-.07.11c-.13.22-.17.49-.15.72.01.21.07.38.18.52.03.03.06.07.09.1.03.03.09.07.13.1.04.04.09.06.13.08l.07.04.07.02c.13.05.25.06.41.04.16-.02.33-.07.53-.16.39-.16.82-.42,1.36-.61.46-.16.92-.23,1.4-.23.47,0,.94.09,1.36.26.97.38,1.75,1.13,2.19,2.03.15.32.28.67.36,1.02l.03.09c.05.31.08.66.04.92-.1.89-.49,1.8-1.12,2.45-.15.15-.31.3-.46.42-.15.13-.31.25-.47.36-.16.12-.32.23-.48.33-.16.11-.32.21-.49.31-.66.4-1.33.74-1.99,1.07-1.04.51-2.1.96-3.07,1.52-.18.1-.36.21-.53.32l-.26.17-.24.18c-.17.12-.31.24-.41.35-.1.11-.12.18-.13.24,0,.06.01.14.07.26.06.12.13.23.19.28.06.06.08.06.14.07.06,0,.19-.02.33-.06.2-.07.44-.17.73-.25.07-.02.16-.03.23-.04l.2-.02.2-.02h.21c.55,0,1.13.14,1.63.43.5.29.9.72,1.18,1.19.28.47.45.99.55,1.51.04.22.07.45.09.67.04.69-.03,1.39-.22,2.06-.1.33-.22.66-.38.97-.16.31-.35.61-.58.88-.24.29-.52.54-.84.75-.17.12-.31.19-.46.27l-.44.24-1.77.97c-.48.26-.95.55-1.43.82-.21.12-.43.24-.63.33-.83.39-1.67.79-2.46,1.15-.3.14-.61.22-.73.25-.13.03-.22.12-.29.23-.03.04-.05.22-.03.27ZM55.54,64.16c-.29.13-.6.23-.89.35-.22.09-.43.2-.64.3-.57.24-.98.3-1.6.2-.28-.04-.56-.1-.83-.16-.06-.01-.12-.02-.18-.03-.36-.07-.71-.15-1.06-.25l-1.07-.31c-.14-.04-.29-.06-.44-.08-.06-.01-.13-.03-.18-.06-.34-.16-.84-.3-1.16-.51-.02-.01-.04-.03-.06-.05-.19-.15-.18-.37-.07-.56.04-.07.08-.12.12-.15.1-.08.2-.15.31-.21.04-.06.1-.12.15-.19.17-.17.41-.2.62-.28.15-.05.28-.14.43-.19l.29-.1.32-.13c.29-.13.58-.26.87-.4.29-.15.59-.28.9-.39.24-.08.46-.21.7-.32l.16-.07,1.16-.53.62-.28c.06-.03.12-.06.14-.07.08-.03.13-.04.18-.06l.98-.46c.13-.07.26-.15.39-.22.23-.12.46-.23.69-.34.51-.24,1.03-.45,1.56-.61.05-.02.11-.04.16-.06.05-.02.11-.03.16-.04.79-.33,1.58-.66,2.38-.98h0s.09-.03.14-.05c.16-.07.31-.15.47-.22.25-.1.5-.2.76-.29.32-.12.65-.24.98-.34.27-.08.53-.14.84-.2.24-.03.45-.04.67-.05.35-.01.69,0,1.04,0,.3.01.59.04.89.07.27.02.53.04.81.09.17.03.34.1.52.15.13.04.24.07.38.13.17.07.34.17.47.3l.09.1s.05.08.07.12c.02.04.04.08.06.12.1.2-.03.6-.06.8-.07.41-.63.53-.96.68-.08.04-.15.09-.22.12-.1.04-.2.07-.29.12-.09.04-.18.09-.27.13-.21.1-.41.19-.62.3-.27.14-.53.31-.81.42-.4.16-.78.35-1.17.54-.33.16-.65.34-.98.5l-1.13.55c-.09.04-.18.09-.26.14-.21.11-.42.23-.63.34-.07.04-.15.05-.22.08-.26.11-.52.22-.78.33-.09.04-.17.11-.26.16-.16.08-.32.15-.48.22l-.73.32c-.2.09-.4.2-.6.26-.23.07-.45.18-.67.27-.08.03-.15.08-.23.12v.02c-.08.03-.15.07-.22.08-.22.03-.41.15-.6.24-.37.18-.72.38-1.1.55ZM65.57,66.62c-.18.09-.36.18-.55.25-.14.06-.29.12-.45.17-.15.05-.31.1-.46.14-.19.06-.4.1-.6.14-.21.03-.42.06-.64.06-.35.02-.66-.03-.97-.06-.24-.03-.48-.06-.72-.09-.39-.06-.76-.12-1.15-.19-.33-.06-.65-.14-.98-.21l-.44-.09-.23-.05c-.12-.03-.24-.06-.36-.09-.3-.09-.56-.22-.76-.34-.49-.33-.37-.73.01-1.1.14-.13.3-.26.5-.38.12-.07.26-.15.38-.21l.22-.12.45-.24c.09-.05.17-.11.25-.15.11-.05.22-.1.33-.15.1-.05.2-.11.3-.16.23-.12.47-.24.7-.36.31-.16.61-.36.92-.49.46-.19.89-.41,1.34-.61l1.13-.55c.43-.2.87-.39,1.31-.59l.3-.15c.24-.12.48-.24.73-.36.08-.04.17-.05.26-.08.3-.11.6-.23.9-.35.11-.04.2-.12.31-.17.18-.08.37-.16.56-.23l.84-.34c.23-.09.47-.21.7-.28.27-.08.51-.2.77-.29.09-.03.18-.09.26-.13l.02-.02c.08-.03.16-.08.23-.09.24-.04.47-.16.69-.26.42-.19.83-.42,1.25-.6.33-.15.67-.26,1.01-.4.25-.1.48-.23.72-.34l.3-.13.11-.05s.09-.03.14-.04l.18-.04c.65-.13,1.31-.15,1.95-.11h.21c.42.03.85.08,1.26.16.44.09.86.23,1.27.38.17.06.35.11.53.19.08.04.16.09.22.14.13.12.26.26.37.45.1.19.11.4.06.57-.04.14-.15.23-.21.25-.02,0-.04,0-.06.01-.03.06-.06.11-.1.17,0,0-.01,0-.02,0,.03.02.05.05.05.09,0,.09-.29.38-.44.44-.1.05-.21.1-.33.15-.05.06-.11.12-.16.18-.18.17-.43.22-.65.32-.16.07-.3.17-.45.25-.24.11-.49.21-.73.32-.33.15-.66.3-.99.46-.34.17-.67.32-1.03.45-.27.1-.53.24-.8.36l-.18.08-1.32.59-.7.32c-.07.03-.13.07-.16.08-.09.04-.15.05-.2.08-.37.18-.73.36-1.1.54-.15.08-.29.17-.45.25-.26.14-.52.27-.78.4-.57.28-1.18.52-1.75.73-.06.02-.12.05-.18.08-.06.02-.12.05-.18.06-.86.43-1.73.9-2.64,1.29h0c-.05.03-.11.04-.15.06ZM85.98,60.14c.13,0,.25.03.31.07.17.13.63-.38.92-.39.14,0,.27,0,.43,0,.08-.02.18-.05.28-.08.29-.05.58.05.87.12.2.05.41.07.61.14.3.1.6.24.88.38.2.1.39.2.6.36l.08.06.09.09c.07.06.11.13.17.19.1.14.17.29.19.46.06.35-.15.68-.39.92-.06.05-.13.11-.2.17-.08.04-.18.08-.21.09l-.3.11c-.3.11-.6.26-.9.38l-.2.08-1.49.66-.79.36c-.08.04-.15.07-.18.09-.11.04-.17.06-.23.09-.41.2-.82.4-1.23.61-.17.09-.33.19-.5.28-.29.15-.58.3-.88.45-.64.32-1.3.61-1.97.86-.07.03-.13.06-.2.09-.07.03-.13.05-.2.07l-2.96,1.41h0c-.06.03-.12.05-.17.07-.19.1-.38.22-.57.32l-.92.46-1.16.59-.92.45-.72.35-1.17.56-1,.47-.88.44c-.19.09-.39.16-.57.25-.51.26-1.01.52-1.52.79-.34.17-.69.32-1.03.48-.1.05-.19.11-.29.15-.22.11-.44.2-.65.27-.2.06-.39.1-.55.09-.16-.01-.31-.05-.46-.17-.14-.13-.18-.26-.21-.4,0-.05,0-.1-.01-.16-.01-.28.09-.63.17-.97.03-.11.06-.22.08-.33.03-.09.05-.18.08-.27.04-.13.08-.25.11-.37l.02-.08.02-.1.04-.2c.05-.26.09-.52.1-.75.01-.18,0-.39-.03-.64-.02-.25-.03-.57.09-.91.06-.19.17-.38.29-.53.13-.15.26-.28.4-.38l.14-.1.15-.07.18-.08.37-.16c.12-.05.23-.11.34-.16.27-.13.55-.27.82-.4.09-.04.19-.06.29-.1.33-.13.67-.26,1-.4.12-.05.23-.13.35-.19.21-.1.42-.18.63-.27l.94-.39c.26-.11.52-.24.78-.32.3-.09.57-.23.86-.34.1-.04.2-.1.3-.15l.02-.02c.09-.03.18-.09.26-.1.27-.05.53-.18.78-.3.48-.22.95-.45,1.43-.66.38-.16.77-.28,1.15-.43.28-.11.56-.24.84-.35.23-.09.47-.18.7-.27l1.94-.72c.07-.03.13-.06.2-.08l1.24-.55c.44-.19.88-.37,1.33-.55.18-.07.36-.17.54-.24.08-.03.17-.06.25-.08.33-.06.67-.12.99-.14Z"/>
  </g>
  <g>
    <g>
      <g>
        <path class="cls-1" d="M236.42,5.11l19.61,47.93,15.94-38.49-3.19-9.44h38.49l-.37,6.74-4.9,1.35c-3.8.98-4.9,2.94-4.66,7.23l2.57,51.12c.25,3.8.86,5.64,5.15,6.99l4.54,1.35.37,6.74h-45.11l.37-6.74,5.76-1.35c4.05-1.1,5.39-2.82,5.15-7.11l-2.33-38.25-21.21,49.53h-10.67l-20.35-49.65-2.7,38.37c-.25,3.8.74,6.01,5.15,7.11l5.88,1.35.37,6.74h-31.75l.37-6.74,5.03-1.35c3.68-.98,4.54-2.94,4.9-7.11l3.92-46.71c.49-6.99-.86-10.3-5.64-11.77l-3.8-1.1-.37-6.74h33.47Z"/>
        <path class="cls-1" d="M374.34,5.11l22.07,66.93c1.1,3.43,1.96,5.39,5.27,6.5l4.41,1.35.25,6.74h-44.62l.37-6.74,9.68-2.82c.61-.74.25-3.56-.74-6.62l-3.56-11.16h-25.62l-3.92,12.26c-.49,1.47-.74,2.7-.74,3.8,0,1.47.86,2.57,2.57,2.94l7.6,1.59.49,6.74h-32.73l.25-6.74,5.15-1.35c2.7-.74,4.54-2.7,5.39-5.27l22.92-62.28-3.06-5.88h28.56ZM354.84,19.21l-10.54,32.49h20.84l-10.3-32.49Z"/>
        <path class="cls-1" d="M432.08,5.11c7.36,0,17.53-1.1,24.89-1.1,19,0,30.4,7.72,30.4,20.59,0,10.54-7.48,18.14-16.92,22.68,5.52,7.97,13.73,18.02,19.49,23.78,4.78,4.66,9.19,7.85,13.36,9.19l-1.1,6.38c-2.33,1.35-6.99,2.45-11.77,2.45-9.32,0-18.39-4.29-24.89-12.87-3.8-4.9-9.81-15.2-13.85-24.03l-5.64-.12-.49,19.37c-.12,4.05.74,6.01,5.27,6.99l6.99,1.47.37,6.74h-47.07l.37-6.74,5.27-1.35c3.8-1.1,4.66-3.06,4.66-7.11l.74-51c0-3.92-.98-6.01-5.03-7.23l-4.9-1.35-.25-6.74h20.1ZM446.3,43.85l6.87-.12,2.08-.12c4.04-.12,7.72-5.76,7.72-14.71,0-11.28-5.03-16.79-12.01-16.79-.61,0-1.23,0-1.96.12-1.23.25-1.96,1.1-1.96,2.7l-.74,28.93Z"/>
        <path class="cls-1" d="M539.22,2.91c7.23,0,15.08,1.84,20.23,3.8l9.19-3.31c0,7.85-.49,20.72-.86,28.69l-7.11.49c-3.19-15.94-11.4-20.47-19.12-20.47-6.5,0-10.42,3.19-10.42,8.95,0,6.13,4.78,8.83,15.32,14.83,14.71,8.46,24.52,15.2,24.52,28.07,0,14.83-12.26,24.76-32.49,24.76-7.6,0-16.18-1.23-21.82-3.43l-6.99,2.82c-2.21-9.32-3.43-22.31-3.43-30.28l7.11-.49c3.31,15.57,12.99,22.07,22.92,22.07,6.99,0,10.79-3.19,10.79-8.34,0-6.87-8.34-11.16-19.61-17.78-11.16-6.62-19.12-13.12-19.12-25.5,0-16.55,13.73-24.89,30.89-24.89Z"/>
      </g>
      <g>
        <path class="cls-1" d="M232.77,103.99l-6.22,30.44h-4.61l-4.74-19.66c-.26-1.04-.74-3.3-.87-4.04-.13.74-.61,3-.87,4.04l-4.96,19.66h-4.52l-6.22-30.44h4.61l3.65,19.22c.17.91.57,3,.7,4,.17-1,.61-3.04.83-3.96l4.87-19.26h3.91l4.96,19.7c.22.83.57,2.44.74,3.52.22-1.13.48-2.83.61-3.57l3.7-19.66h4.44Z"/>
        <path class="cls-1" d="M243.69,134.43h-4.57v-30.44h4.57v30.44Z"/>
        <path class="cls-1" d="M271.57,134.43h-19.74v-30.44h4.57v25.96h15.18v4.48Z"/>
        <path class="cls-1" d="M300.83,119.21c0,10.74-6.87,15.22-14.83,15.22h-8.31v-30.44h8.31c8.18,0,14.83,4.48,14.83,15.22ZM296.18,119.21c0-6.39-2.96-10.79-10.18-10.79h-3.74v21.57h3.74c7.22,0,10.18-4.39,10.18-10.79Z"/>
        <path class="cls-1" d="M326.97,134.43h-19.74v-30.44h4.57v25.96h15.18v4.48Z"/>
        <path class="cls-1" d="M337.89,134.43h-4.57v-30.44h4.57v30.44Z"/>
        <path class="cls-1" d="M365.63,108.47h-15.05v7.96h8.74v4.48h-8.74v13.52h-4.57v-30.44h19.61v4.48Z"/>
        <path class="cls-1" d="M391.59,134.43h-20.27v-30.44h19.61v4.44h-15.05v7.52h8.74v4.44h-8.74v9.61h15.7v4.44Z"/>
        <path class="cls-1" d="M432.95,113.08c0,4.87-2.57,7.87-6.7,8.92l6.22,12.44h-5.26l-6.04-12.05h-6.87v12.05h-4.48v-30.44h13.35c5.31,0,9.79,2.83,9.79,9.09ZM428.34,113.21c0-3.17-2.09-4.91-5.18-4.91h-8.87v9.78h8.87c3.04,0,5.18-1.57,5.18-4.87Z"/>
        <path class="cls-1" d="M460.26,134.43h-20.27v-30.44h19.61v4.44h-15.05v7.52h8.74v4.44h-8.74v9.61h15.7v4.44Z"/>
        <path class="cls-1" d="M486.48,125.69c0,5.48-3.48,9.22-11.26,9.22-4.44,0-8.26-1.91-10.83-4.91l3.26-3.17c2.04,2.22,5.04,3.61,7.92,3.61,4.26,0,6.31-1.48,6.31-4.44,0-2.35-1.78-3.52-6.87-5.04-6.44-1.91-9.52-3.52-9.52-8.96s4.44-8.48,10.05-8.48c4.13,0,7.26,1.52,9.96,4.13l-3.22,3.26c-1.91-1.96-4.09-2.91-7.09-2.91-3.57,0-5.09,1.74-5.09,3.78s1.39,3.17,6.65,4.74c6,1.83,9.74,3.74,9.74,9.18Z"/>
        <path class="cls-1" d="M515.01,129.08c-2.17,3.74-5.87,5.83-10.48,5.83-7.87,0-12.87-6.48-12.87-15.7s5-15.7,12.87-15.7c4.96,0,8.26,2,10.35,5.7l-4.04,2.52c-1.57-2.48-3.17-3.65-6.31-3.65-5.31,0-8.18,4.31-8.18,11.13s2.87,11.13,8.18,11.13c3.17,0,5.13-1.3,6.7-3.78l3.78,2.52Z"/>
        <path class="cls-1" d="M544.06,121.73c0,8.52-4.13,13.18-11.7,13.18s-11.44-4.87-11.44-13.26v-17.66h4.57v17.53c0,5.74,2.39,8.83,6.96,8.83s7.05-2.96,7.05-8.52v-17.83h4.57v17.74Z"/>
        <path class="cls-1" d="M572.03,134.43h-20.27v-30.44h19.61v4.44h-15.05v7.52h8.74v4.44h-8.74v9.61h15.7v4.44Z"/>
      </g>
    </g>
    <g>
      <path class="cls-1" d="M208.4,163.75l-3.67-9c-.3-.72-.68-1.77-.82-2.31v10.95h-1.5v-13.96h1.74l3.29,8.36c.34.84.84,2.13,1,2.71.18-.6.68-1.89,1-2.71l3.33-8.36h1.7v13.96h-1.5v-10.95c-.14.54-.54,1.58-.84,2.31l-3.73,9Z"/>
      <path class="cls-1" d="M229.12,156.39c0,4.21-2.35,7.22-5.82,7.22s-5.76-2.97-5.76-7.18,2.33-7.22,5.8-7.22,5.78,2.97,5.78,7.18ZM227.56,156.43c0-3.51-1.85-5.8-4.29-5.8s-4.19,2.25-4.19,5.76,1.83,5.8,4.27,5.8,4.21-2.25,4.21-5.76Z"/>
      <path class="cls-1" d="M242.15,157.68c0,3.87-1.66,5.92-5.01,5.92s-5.04-2.01-5.04-5.88v-8.3h1.56v8.26c0,3.01,1.16,4.51,3.57,4.51s3.37-1.46,3.37-4.47v-8.3h1.56v8.26Z"/>
      <path class="cls-1" d="M245.72,163.39v-13.96h1.52l6.04,9.73c.3.48.82,1.4,1,1.75v-11.49h1.5v13.96h-1.46l-6.1-9.55c-.3-.48-.82-1.4-1-1.75v11.31h-1.5Z"/>
      <path class="cls-1" d="M268.36,150.84h-4.11v12.54h-1.55v-12.54h-4.11v-1.42h9.77v1.42Z"/>
      <path class="cls-1" d="M280.29,163.39h-1.64l-1.2-3.55h-5.76l-1.22,3.55h-1.6l4.85-13.96h1.71l4.85,13.96ZM276.98,158.42l-1.54-4.59c-.3-.92-.72-2.17-.86-2.75-.14.56-.54,1.81-.88,2.79l-1.54,4.55h4.81Z"/>
      <path class="cls-1" d="M284.84,163.39h-1.56v-13.96h1.56v13.96Z"/>
      <path class="cls-1" d="M288.61,163.39v-13.96h1.52l6.04,9.73c.3.48.82,1.4,1,1.75v-11.49h1.5v13.96h-1.46l-6.1-9.55c-.3-.48-.82-1.4-1-1.75v11.31h-1.5Z"/>
      <path class="cls-1" d="M312.96,163.39h-1.64l-1.2-3.55h-5.76l-1.22,3.55h-1.6l4.85-13.96h1.71l4.85,13.96ZM309.65,158.42l-1.54-4.59c-.3-.92-.72-2.17-.86-2.75-.14.56-.54,1.81-.88,2.79l-1.54,4.55h4.81Z"/>
      <path class="cls-1" d="M317.51,163.39h-1.56v-13.96h1.56v13.96Z"/>
      <path class="cls-1" d="M331.15,153.38c0,2.17-1.3,3.53-3.29,3.95l3.07,6.06h-1.79l-2.99-5.94h-3.31v5.94h-1.56v-13.96h5.52c2.45,0,4.35,1.26,4.35,3.95ZM329.6,153.44c0-1.71-1-2.59-2.85-2.59h-3.91v5.21h3.71c2.07,0,3.05-.86,3.05-2.61Z"/>
      <path class="cls-1" d="M342.98,163.39h-8.74v-13.96h8.44v1.42h-6.88v4.39h3.99v1.42h-3.99v5.33h7.18v1.42Z"/>
      <path class="cls-1" d="M361.77,163.39h-1.64l-1.2-3.55h-5.76l-1.22,3.55h-1.6l4.85-13.96h1.71l4.85,13.96ZM358.46,158.42l-1.54-4.59c-.3-.92-.72-2.17-.86-2.75-.14.56-.54,1.81-.88,2.79l-1.54,4.55h4.81Z"/>
      <path class="cls-1" d="M373.32,149.43l-4.75,13.96h-1.71l-4.75-13.96h1.64l3.11,9.55c.28.84.72,2.25.86,2.75.14-.5.62-1.97.88-2.79l3.13-9.51h1.59Z"/>
      <path class="cls-1" d="M377.87,163.39h-1.56v-13.96h1.56v13.96Z"/>
      <path class="cls-1" d="M392.27,163.39h-1.64l-1.2-3.55h-5.76l-1.22,3.55h-1.6l4.85-13.96h1.71l4.85,13.96ZM388.96,158.42l-1.54-4.59c-.3-.92-.72-2.17-.86-2.75-.14.56-.54,1.81-.88,2.79l-1.54,4.55h4.81Z"/>
      <path class="cls-1" d="M395.17,163.39v-13.96h1.52l6.04,9.73c.3.48.82,1.4,1,1.75v-11.49h1.5v13.96h-1.46l-6.1-9.55c-.3-.48-.82-1.4-1-1.75v11.31h-1.5Z"/>
      <path class="cls-1" d="M423.95,153.38c0,2.17-1.3,3.53-3.29,3.95l3.07,6.06h-1.79l-2.99-5.94h-3.31v5.94h-1.56v-13.96h5.52c2.45,0,4.35,1.26,4.35,3.95ZM422.4,153.44c0-1.71-1-2.59-2.85-2.59h-3.91v5.21h3.71c2.07,0,3.05-.86,3.05-2.61Z"/>
      <path class="cls-1" d="M435.78,163.39h-8.74v-13.96h8.44v1.42h-6.88v4.39h3.99v1.42h-3.99v5.33h7.18v1.42Z"/>
      <path class="cls-1" d="M447.09,159.72c0,2.19-1.71,3.89-4.63,3.89-1.89,0-3.59-.82-4.69-1.93l1.04-1.16c1.06,1.02,2.27,1.68,3.71,1.68,1.85,0,3.01-.92,3.01-2.39,0-1.3-.78-2.03-3.33-2.95-3.01-1.08-4.03-2.05-4.03-4.07,0-2.23,1.75-3.57,4.37-3.57,1.88,0,3.07.56,4.25,1.5l-1,1.22c-1.02-.84-1.96-1.3-3.35-1.3-1.92,0-2.71.96-2.71,2.05,0,1.16.52,1.82,3.31,2.81,3.09,1.12,4.05,2.15,4.05,4.23Z"/>
      <path class="cls-1" d="M459.86,161.29c-1.02,1.38-2.53,2.31-4.57,2.31-3.41,0-5.64-3.09-5.64-7.18s2.33-7.22,5.7-7.22c1.91,0,3.35.72,4.45,2.23l-1.24.94c-.9-1.22-1.74-1.75-3.25-1.75-2.39,0-4.11,2.37-4.11,5.76s1.78,5.8,4.13,5.8c1.52,0,2.55-.68,3.45-1.83l1.08.94Z"/>
      <path class="cls-1" d="M472.56,157.68c0,3.87-1.66,5.92-5.01,5.92s-5.04-2.01-5.04-5.88v-8.3h1.56v8.26c0,3.01,1.16,4.51,3.57,4.51s3.37-1.46,3.37-4.47v-8.3h1.56v8.26Z"/>
      <path class="cls-1" d="M484.87,163.39h-8.74v-13.96h8.44v1.42h-6.88v4.39h3.99v1.42h-3.99v5.33h7.18v1.42Z"/>
      <path class="cls-1" d="M501.61,159.72c0,2.19-1.71,3.89-4.63,3.89-1.89,0-3.59-.82-4.69-1.93l1.04-1.16c1.06,1.02,2.27,1.68,3.71,1.68,1.85,0,3.01-.92,3.01-2.39,0-1.3-.78-2.03-3.33-2.95-3.01-1.08-4.03-2.05-4.03-4.07,0-2.23,1.75-3.57,4.37-3.57,1.88,0,3.07.56,4.25,1.5l-1,1.22c-1.02-.84-1.96-1.3-3.35-1.3-1.92,0-2.71.96-2.71,2.05,0,1.16.52,1.82,3.31,2.81,3.09,1.12,4.05,2.15,4.05,4.23Z"/>
      <path class="cls-1" d="M515.75,156.39c0,4.21-2.35,7.22-5.82,7.22s-5.76-2.97-5.76-7.18,2.33-7.22,5.8-7.22,5.78,2.97,5.78,7.18ZM514.19,156.43c0-3.51-1.85-5.8-4.29-5.8s-4.19,2.25-4.19,5.76,1.83,5.8,4.27,5.8,4.21-2.25,4.21-5.76Z"/>
      <path class="cls-1" d="M528.44,161.29c-1.02,1.38-2.53,2.31-4.57,2.31-3.41,0-5.64-3.09-5.64-7.18s2.33-7.22,5.7-7.22c1.91,0,3.35.72,4.45,2.23l-1.24.94c-.9-1.22-1.74-1.75-3.25-1.75-2.39,0-4.11,2.37-4.11,5.76s1.78,5.8,4.13,5.8c1.52,0,2.55-.68,3.45-1.83l1.08.94Z"/>
      <path class="cls-1" d="M533.01,163.39h-1.56v-13.96h1.56v13.96Z"/>
      <path class="cls-1" d="M545.51,163.39h-8.74v-13.96h8.44v1.42h-6.88v4.39h3.99v1.42h-3.99v5.33h7.18v1.42Z"/>
      <path class="cls-1" d="M557.4,150.84h-4.11v12.54h-1.55v-12.54h-4.11v-1.42h9.77v1.42Z"/>
      <path class="cls-1" d="M570.45,149.43l-4.79,8.42v5.54h-1.56v-5.52l-4.79-8.44h1.77l2.23,4.01c.56,1.02,1.18,2.17,1.58,2.99.4-.82,1.02-1.99,1.58-2.99l2.23-4.01h1.73Z"/>
    </g>
  </g>
</svg>