<?xml version="1.0" encoding="UTF-8"?>
<svg id="Layer_11" data-name="Layer 11" xmlns="http://www.w3.org/2000/svg" viewBox="0 0 312.13 288">
  <defs>
    <style>
      .cls-1 {
        fill: #636c5a;
      }
    </style>
  </defs>
  <path class="cls-1" d="M195.06,285.57c-.26-.41-.53-.82-.81-1.22-2.65-3.37-5.31-6.74-7.87-10.19-3.37-4.54-7.06-11.09-10.81-15.05-2.27-2.4-2.95-.23-4.36,1.71-1.58,2.17-3.04,4.42-4.45,6.69-1.44,2.32-2.82,4.67-4.22,7.02-1.39,2.33-2.8,4.66-4.29,6.93-.52.79-1.05,1.57-1.56,2.36-.28.44-.57.88-.83,1.34-.16.28-.45.77-.4,1.11.01.07.04.14.08.21.2.35.56.59.94.71.96.31,2.17.22,3.17.2,2.95-.08,5.89-.19,8.84-.3,2.96-.11,5.92-.22,8.88-.31,2.96-.09,5.93-.17,8.89-.2,1.45-.02,2.89,0,4.34.02.72,0,1.45,0,2.17,0,.18,0,.38,0,.58.01.5.01,1.03.02,1.47-.15.2-.08.39-.25.39-.47,0-.15-.08-.29-.16-.41Z"/>
  <path class="cls-1" d="M243.24,286.33c-.46-1.08-1.54-1.66-2.43-2.35-.97-.76-1.91-1.55-2.84-2.36-1.82-1.59-3.58-3.24-5.33-4.9-.76-.72-1.52-1.44-2.29-2.14-3.94-3.61-8-7.27-11.8-11.02-.85-.84-3.05-3.8-3.92-4.2-.85-.39-1.17.59-1.79,1.01-4.14,2.82-4.45-1.03-4.31-4.31.09-2.05,1.27-6.78.58-8.42-.66-1.56-2.06-.5-3.08.08-2,1.13-6.67,5.79-8.5,5.68-.84-.05-1.54-.56-1.64-1.4-.26-2.07,1.33-3.24,1.49-5.31.28-3.38-1.5-2.17-3.29-.76-4.24,3.31-7.54,7.32-5.96,13.07.88,3.19,8.91,12.2,11.39,15.49,1.76,2.33,3.49,4.69,5.2,7.06.71.97,1.41,1.95,2.12,2.92.61.84,1.2,1.74,2.14,2.23,1.2.62,2.66.56,3.97.6,1.49.04,2.97.08,4.46.11,1.66.03,3.33.06,4.99.07,3.9.03,7.81-.41,11.72-.62.58-.03,1.17.01,1.75.04,2.04.1,4.08.23,6.12.35.26.01.52.03.77-.04.18-.05.36-.16.46-.32.06-.08.09-.18.09-.29,0-.09-.03-.17-.07-.25Z"/>
  <path class="cls-1" d="M140.19,194.56c2.41-.31,5.43-2.83,7.36-4.3,12.36-9.4,26.05-23.4,32.05-37.93.56-1.35,2.33-6.24-.79-5.62-2.48.49-4.69,6.31-5.98,8.49-9.05,15.3-19.24,26.82-33.65,37.34-1.21,1.56-1.24,2.31,1.01,2.02Z"/>
  <path class="cls-1" d="M152.76,215.5c-9.3,8.62-19.55,17.27-29.84,24.67-3.37,2.42-10.05,6.03-12.63,8.67-1.16,1.19-2.04,3.42.47,3.28,2.6-.15,10.29-5.11,12.82-6.73,12.74-8.14,25.74-19.06,36.67-29.51,20.44-19.54,45.63-50.1,41.67-80.47-.23-1.79-2.03-9.71-4.62-9.25-.94.17-.73,2.87-.68,3.65.1,1.6.61,3.21.77,4.81,2.85,29.17-27.64,55.12-49.36,69.8-6.12,4.14-15.02,8.36-20.34,12.87-.77.66-1.77,1.63-1.5,2.71.37,1.25,2.69.44,3.62.17,7.28-2.14,18.91-9.75,25.48-14.08,2.04-1.34,9.45-7.19,10.92-7.59,2.59-.71,1.33,1.83.47,3.01-3.21,4.4-9.76,10.15-13.9,13.99Z"/>
  <path class="cls-1" d="M220.02,80.93c7.16-1.22,6.76-12.45-1.12-12.05-8.88.46-8.23,13.64,1.12,12.05Z"/>
  <path class="cls-1" d="M254.66,85.96c-.54-.31-1.15-.8-1.82-.62-.97.47-.76,1.33-.49,2.18.73,2.31,7.14,8.29,9.55,8.2,2.19-.08,1.64-2.26.75-3.55-1.12-1.63-6.14-5.16-7.99-6.21Z"/>
  <path class="cls-1" d="M263.32,104.94c-.42-.13-.96-.22-1.37-.08-1.21.41.7,4.56,1.1,5.42,1.47,3.21,4.36,6.9,7.1,9.13.97.79,3.72,2.64,4.83,1.52.79-1.42-.32-3.25-1.07-4.52-1.14-1.93-8.84-10.94-10.59-11.47Z"/>
  <path class="cls-1" d="M276.74,160.99c.41.89,1.52,2.53,2.61,2.36,1.7-.6,1.57-2.88,1.46-4.41-.32-4.59-4.41-19.78-7.11-23.32-.43-.56-1.35-1.47-2.1-1.35-.57.09-1.02.61-1.14,1.15-.69,2.97,1.35,6.6,2.16,9.4,1.31,4.56,2.33,12.28,4.12,16.16Z"/>
  <path class="cls-1" d="M261.59,191.98c-.5,1.39-2.02,4.95.33,5.39,1.54.29,2.49-.87,3.42-1.89,6.59-7.24,8.86-28.84,4.86-37.58-.26-.58-1-1.88-1.8-1.32-.06.04-.41,1.19-.47,1.43-.72,3.04.15,7.91-.07,11.34-.54,8.62-3.48,14.84-6.28,22.63Z"/>
  <path class="cls-1" d="M74.3,83.05c-.13,0-.27-.01-.4-.04-.25-.06-.49-.2-.62-.39-.06-.09-.12-.18-.17-.28l-.05-.12c-.03-.06-.05-.12-.07-.17,0-.01,0-.03-.01-.04-.18-.5-.22-.96-.27-1.45l-.06-.58c-.01-.14-.02-.17-.03-.2,0,0-.03-.12-.04-.14l-.02-.06c-.06-.19-.18-.35-.34-.47l-.05-.04s-.04-.03-.06-.04l-.05-.03c-.89-.65-1.77-1.3-2.73-2.03l-.07-.06c-.1-.08-.2-.16-.3-.22-1.03-.63-2.02-1.4-2.94-2.15-.02-.02-.05-.04-.08-.06-.12-.08-.21-.22-.31-.46-.03-.08-.09-.21-.09-.27,0-.03,0-.06-.01-.08-.01-.07-.01-.19,0-.29.02-.27.1-.55.23-.77.13-.24.33-.45.55-.59.27-.18.6-.28.89-.28.06,0,.12,0,.17.01l.08.02c.08.02.16.04.24.07.05.02.19.08.24.11.02.02.03.02.05.03.17.1.31.2.46.32l.05.04c.26.2.5.42.76.64l.17.15.9.8.23.2.09.08.14.11c.2.15.37.26.56.33.12.05.25.08.37.08.25,0,.49-.11.67-.29.12-.13.26-.35.25-.68v-.08c.03-.1.05-.22.05-.35v-.12s-.03-1.42-.03-1.42l-.05-2.36c0-.5-.01-1.01-.01-1.52,0-.96-.01-1.95-.04-2.92l-.03-1.24v-.77c-.01-.24-.11-.47-.29-.64l-.14-.13-.41-.39-.9-.82c-.26-.24-.51-.45-.73-.61-.87-.62-1.48-1.26-2.11-2.05-.34-.42-.67-.79-1.23-1.21-.07-.05-.21-.17-.46-.44-.62-.69-1.18-1.22-1.83-1.71-.15-.11-.32-.25-.48-.39-.08-.07-.16-.14-.24-.22l-.13-.13s-.06-.07-.1-.11c-.03-.04-.05-.06-.06-.09-.1-.23-.14-.44-.12-.71.02-.22.11-.44.24-.62.13-.17.33-.31.53-.36.09-.02.17-.04.26-.04.14,0,.28.03.42.08.02,0,.04.01.06.02.02.02.04.03.05.05.05.04.09.08.14.12l2.28,1.96c.31.27.67.57,1.01.79.36.23.72.5,1.1.84.18.16.35.32.52.49,0,0,.38.38.41.41,0,0,0,.01.01.02.16.2.34.33.46.42l.08.06c.15.12.28.2.4.28.05.03.11.07.16.1.16.12.35.18.54.18.15,0,.29-.04.43-.11.31-.17.49-.5.48-.85,0-.04,0-.08,0-.11.09-.24.06-.45.04-.6-.02-.23-.04-.39-.05-.56-.01-.35-.02-.73-.02-1.11,0-.78.02-1.55.06-2.27.01-.18,0-.37,0-.56v-2.42c-.01-.21-.03-.42-.04-.62,0,0-.03-.55-.04-.7-.02-.31-.04-.61-.03-.9v-.73s.02-.36.02-.36v-.09c.04-.25,0-.62-.37-.98-.04-.04-.18-.17-.3-.27l-.28-.23c-.68-.53-1.38-1.04-2.06-1.54-.43-.31-.87-.63-1.3-.95-.07-.05-.15-.1-.22-.15-.05-.03-.09-.06-.13-.09-.22-.18-.45-.36-.67-.54-.45-.36-.88-.7-1.31-1.09-.1-.08-.33-.33-.46-.53-.08-.13-.12-.29-.11-.43.02-.21.1-.49.2-.71.12-.25.26-.45.42-.58.03-.02.08-.06.13-.09.21-.1.44-.15.66-.15.08,0,.17,0,.25.02.21.03.33.07.49.12.13.04.27.1.4.16.57.28,1.03.61,1.44.94.3.24.62.52.97.85.02.04.04.08.07.13.12.2.27.39.45.54.01,0,.08.06.08.06.16.12.35.18.54.18.06,0,.12,0,.17-.02.25-.05.47-.2.6-.42.06-.1.11-.22.13-.33v-.06c.02-.09.03-.16.04-.23l.02-.35.02-1.02v-.73c.03-.7.04-1.41.05-2.11,0-.33,0-.66-.02-1,0-.3-.02-.6-.02-.9,0-.49.01-.97.02-1.46,0-.29.02-1.13.02-1.13,0-.34.01-.69,0-1.05-.02-.47-.04-.93-.05-1.4v-.61s0-.05,0-.06c.01-.3.08-.52.19-.67.02-.03.04-.05.05-.08.02-.04.11-.11.18-.18l.03-.03h0c.08-.06.19-.13.24-.15.02,0,.06-.02.08-.03.2-.09.4-.12.67-.13.04,0,.07,0,.11,0,.1,0,.16,0,.22.01.03,0,.05,0,.08.01.1.01.19.04.34.09l.07.02c.22.08.4.2.52.35.12.16.11.6.1.8l-.02.91c0,.61-.01,1.21,0,1.81,0,.55.03,1.1.05,1.64.02.57.05,1.15.05,1.72,0,1.43-.02,2.57-.09,3.61-.03.51-.05,1.03-.06,1.54v.36s0,.32,0,.32v.39c.02.2.09.39.22.54.18.22.47.36.75.36.11,0,.22-.02.32-.06.24-.1.41-.24.52-.33h.01c.13-.07.27-.15.41-.26h-.01c.11-.07.3-.24.38-.31l.38-.35c.15-.14.29-.27.43-.41.35-.34.69-.65,1.06-.95l.34-.27.06-.05.13-.09s.08-.04.13-.06c.04-.01.09-.02.13-.03l.13-.03s.06-.01.12-.02c.02,0,.04,0,.06,0,.05,0,.11-.01.16-.01.08,0,.15,0,.23.01.26.03.52.14.72.31.2.17.35.4.4.65.1.4.03.87-.16,1.18-.01.02-.02.04-.04.06,0,.01-.18.22-.18.22l-.06.07c-.11.11-.21.22-.32.32-.21.2-.42.38-.71.61-.45.36-.92.71-1.45,1.06-.99.66-1.99,1.42-3.05,2.33-.06.05-.13.12-.2.19-.02.02-.05.05-.07.07l-.05.03s-.06.04-.16.12c-.03.02-.08.05-.14.08-.33.14-.54.46-.55.81-.02.75,0,1.51.03,2.23,0,.32.02.64.03.96l.1,3.78c0,.21,0,.43-.02.65,0,.11-.01.22-.02.33-.02.53-.03,1.1-.02,1.79v.4s.01.18.01.18l.02.29s0,.05,0,.08c0,0,0,.09,0,.09-.04.36.12.6.22.71.17.2.43.32.7.32.02,0,.03,0,.05,0,.42,0,.72-.23.82-.31l.42-.32.62-.51c.46-.38.9-.79,1.33-1.18.34-.31.69-.63,1.04-.93.06-.05.13-.11.2-.16.19-.15.38-.31.54-.49.24-.28.55-.51.88-.75.2-.15.41-.3.6-.47.04-.01.12-.03.18-.04.2-.03.47-.08.71-.27.06-.05.12-.11.19-.18.08-.09.11-.11.23-.15.01,0,.09-.02.19-.02.16,0,.33.04.48.11.26.11.6.4.75.86.07.2.1.44.08.69-.03.24-.11.48-.21.67-.1.18-.24.35-.43.54-.12.1-.23.2-.35.28-.01,0-.03.02-.04.03-.69.59-1.51,1.25-2.35,1.77-.14.09-.3.21-.49.37-.4.35-.79.69-1.19,1.03-.93.8-1.89,1.62-2.79,2.47-.12.11-.25.22-.38.33l-1.25,1.01c-.22.13-.38.34-.44.6v.05c-.02.05-.03.11-.03.17v.44s-.03,1.04-.03,1.04l-.02,2.26v.7c-.03.86-.04,1.68-.1,2.51-.06.85-.03,1.78,0,2.65l.02.59s0,.04,0,.06v.13s.02.09.02.14c0,.02,0,.17,0,.17.01.29.17.56.41.72.15.1.32.15.49.15.11,0,.22-.02.33-.06l.11-.04s.05-.02.08-.04c.1-.05.21-.11.31-.19.02-.01.11-.07.26-.21l.55-.5c.37-.34.74-.69,1.14-1.01.06-.05.13-.11.19-.16.08-.07.15-.13.22-.17,0,0,.04-.03.04-.03.09-.06.19-.13.3-.19l.1-.06c.1-.06.17-.1.26-.13l.27-.11s.07-.01.11-.02l.13-.02s.08-.02.13-.02c.07,0,.17,0,.27.02.29.04.6.19.81.41.21.22.36.55.39.87.04.32-.01.63-.15.94-.07.15-.14.28-.23.39l-.09.11-.24.26c-.11.12-.22.21-.33.32l-.07.07c-.66.56-1.4,1.06-2.11,1.54-.19.13-.38.26-.57.39-.92.64-1.69,1.22-2.35,1.8-.08.08-.15.14-.22.19-.05.04-.11.09-.16.14h0c-.17.12-.36.31-.47.64-.01.03-.02.06-.03.09-.05.24-.09.55-.11.85l-.04.88c0,.13-.02.27-.04.44,0,.02,0,.03,0,.05,0,.02-.05.18-.05.18-.02.06-.03.11-.06.16-.13.28-.3.47-.47.53-.16.06-.33.09-.51.09Z"/>
  <path class="cls-1" d="M312.06,236.42c-.1-2.73-.32-5.43-.58-8.13-.52-5.4-1.22-10.76-1.58-16.18-.3-4.52-.79-9.03-.9-13.56-.13-5.16-.02-10.31-.77-15.41-.39-2.65-.83-5.49-.6-8.11.57-6.71,0-13.06-1.72-19.17-1.13-4-1.05-7.97-.33-12.06.26-1.46.5-2.96.56-4.46.21-5.92.35-11.85.5-17.77.03-1.07.14-2.18,0-3.19-.82-6-.68-11.96-.38-18.08.51-10.47.37-21.01.56-31.52.03-1.63.34-3.25.52-4.88.18-1.64.49-3.27.52-4.91l.14-8.42.04-4.21c0-.16,0-.4,0-.6v-.62s-.04-1.24-.04-1.24c-.06-.83-.11-1.66-.2-2.49-.73-6.61-3.09-13.06-6.87-18.44-1.46-2.1-3.07-4.08-4.92-5.77-1.83-1.69-3.88-3.09-6.09-4-3.23-1.31-6.19-2.82-9.28-4.24-3.07-1.43-6.24-2.83-9.6-3.79-2.47-.72-5.03-1.3-7.62-1.6-2.31-.29-4.62-.52-6.93-.54-8.34-.07-16.74-.48-25.02.88-2.43.4-5.16.11-7.75.07-7.15-.1-14.3-.33-21.46-.34-6.09-.01-12.19.42-18.26.24-6.37-.19-12.66-.65-19.02.2-5.32.71-10.73,1.12-16.1,1.64-1.04.1-2.12.05-3.17.11-6.31.4-12.32-.94-18.47-1.4-4.5-.34-8.98-1.05-13.31-1.93C103.64.42,93.21-.3,82.51.44c-1.96.14-3.99.27-5.93.11-6.49-.53-12.94-1.15-19.28.58-.91.25-2.11.06-3.17.1-2.16.07-4.32.08-6.48.06l-1.62-.02h-.82s-.97,0-.97,0c-1.29,0-2.58.09-3.87.2-5.15.5-10.24,2.01-14.69,4.61-4.64,2.71-8.85,6.02-12.51,9.87-3.66,3.85-6.77,8.27-9.05,13.15-1,2.11-1.61,4.44-2.4,6.57-.16.45-.32.9-.47,1.36-.14.46-.26.92-.38,1.39-.26.93-.41,1.88-.57,2.83-.14.95-.22,1.91-.28,2.86-.01.48-.02.95-.03,1.43v.7s.02.59.02.59c.13,3.16.5,6.27,1.05,9.26.8,4.35.72,8.39.35,12.46-.45,5-.83,9.86-.23,14.91.35,2.94.53,6.22.06,9.06-.71,4.31-.38,8.65-.22,12.99.02.67.08,1.33.16,2,.06.52.22,1.07.71,1.35.89.52,2.22-.03,3.1-.3,2.62-.82,5.32-1.38,7.95-2.18,1.47-.45,2.94-.89,4.44-1.26,2.52-.58,5.06-1.09,7.61-1.48.52-.09,1.02-.12,1.53-.19,3.18-.49,6.4-.8,9.61-.9,1.12-.07,2.24-.04,3.36-.07,1.12,0,2.24.06,3.36.11.83.09,1.67.18,2.51.26.84.11,1.67.27,2.51.4l2.36.49c.78.2,1.56.39,2.33.6l2.1.64,2.07.71c2.15.78,4.26,1.65,6.35,2.56,1.89.83,3.75,1.69,5.63,2.52,1.45.64,2.9,1.28,4.37,1.87.66.27,1.33.54,2,.78.67.25,1.34.5,2.02.73,3.77,1.28,7.64,2.28,11.5,3.39,2.1.6,4.38,1.07,6.59,1.56,1.99.44,4,.9,5.99,1.24,2.52.42,5.1.65,7.66,1.12.17.03.34.06.51.09.2.04.45.06.63.18.39.23.6.65.65,1.04.08.62-.06,1.1-.2,1.58-.15.48-.35.93-.56,1.36-.21.44-.43.86-.67,1.27-.13.21-.25.41-.38.62-.15.19-.29.39-.44.58-.5.59-1.16,1.08-1.89,1.37-.73.3-1.5.41-2.25.46-1.5.08-2.93-.02-4.41.04-.81.01-1.65.05-2.49.08-.84,0-1.7.04-2.54.03-2.82-.02-5.62-.22-8.39-.32-1.18-.03-2.61-.2-3.87-.35-2.11-.26-4.18-.53-6.32-.77-4.28-.46-8.55-.99-12.87-1.13l-1.61-.04c-.11,0-.22,0-.33.02-.21.03-.53.1-.71.22-.29.2-.03.5.13.68l.09.11.18.21c.25.29.53.57.81.84,1,.92,2.42,1.07,3.72,1.38,1.38.32,2.76.6,4.15.84,1.31.24,2.69.45,3.93.69,3.64.69,7.34.96,11.02,1.31,2.19.21,4.37.42,6.55.59.81.06,1.61.14,2.41.19,3.2.19,6.39.22,9.55.13,1.43-.04,3.06-.28,4.57-.62.96-.23,1.93-.44,2.88-.7.95-.27,1.9-.51,2.83-.79.68-.2,1.32-.41,1.94-.62.63-.21,1.23-.46,1.85-.71,3.23-1.33,6.49-2.7,9.76-4.16,1.3-.58,2.6-1.24,3.89-1.87,1.7-.84,3.4-1.67,5.1-2.51.69-.33,1.37-.67,2.06-1,2.29-1.14,4.6-2.26,6.92-3.34,2.33-1.07,4.69-2.09,7.08-3.02.71-.27,1.44-.55,2.22-.74.77-.19,1.58-.31,2.38-.29.4,0,.79.04,1.18.09.38.05.8.13,1.17.24.75.22,1.46.49,2.17.83.41.2.84.41,1.24.72.35.26.74.68.8,1.17.03.27-.03.54-.14.78-.05.12-.13.25-.16.33-.04.08-.14.21-.21.31-.42.49-.84.82-1.28,1.18-.43.35-.87.68-1.32,1.01-.89.65-1.79,1.28-2.7,1.89-.31.21-.64.44-.94.66-1.6,1.16-3.21,2.3-4.85,3.42-.68.47-1.45,1-2.09,1.37-2.15,1.24-4.22,2.66-6.33,3.99l-1.86,1.17c-1.27.8-2.54,1.6-3.79,2.41-2.09,1.35-4.24,2.72-6.2,4.08-3.3,2.28-6.6,4.6-9.96,6.84-.62.41-1.27.88-1.77,1.26-1.25.96-2.68,1.84-4.13,2.68-2.35,1.37-4.74,2.69-7.17,3.92-1.21.62-2.46,1.22-3.77,1.71-1.3.49-2.69.86-4.1,1-2,.22-4.14.08-6.04-.02-.28-.02-.69,0-1.05.02-2.71.08-5.43.18-8.14.29-.52.02-1.07.05-1.52.1-2.1.22-4.39.32-6.67.4-.63.02-1.27-.01-1.91-.02-.56,0-1.13-.05-1.68-.03-1.89.06-3.8.12-5.67.2-3.65.15-7.29.23-10.94.13-1.04-.02-2.03-.12-3.07-.14-2.42-.05-4.85-.13-7.27-.21-1.75-.07-3.49-.11-5.26-.23-1.76-.14-3.51-.33-5.25-.63-2.96-.49-5.87-1.22-8.74-1.99-1.82-.5-3.63-.98-5.42-1.54-2.17-.67-4.34-1.42-6.49-2.06-.9-.27-1.86-.6-2.79-.85-.76-.14-1.51-.29-2.26-.48-1.26-.31-2.48-.77-3.73-1.11-.9-.25-2.08-.5-2.94-.02-.98.55-.9,1.92-.94,2.88-.06,1.58-.31,3.18-.53,4.75-.9,6.25-.64,12.93-.73,19.43-.12,8.18-.17,16.37-.1,24.55.09,9.75.41,19.49.48,29.23.03,3.87.13,7.74.05,11.6-.02,2.17.04,4.43.22,6.65.19,2.23.47,4.46.82,6.73.35,2.11.97,4.33,1.88,6.43.91,2.1,2.13,4.08,3.52,5.74,3.5,4.17,7.39,7.76,11.66,10.84,4.27,3.08,8.92,5.65,13.99,7.6l1.38.48.7.23.71.2,1.43.38c.48.11.96.2,1.45.3.97.21,1.95.31,2.94.44.49.06.99.08,1.48.11l.74.04.37.02h.31c3.26.12,6.53.07,9.81-.09,3.32-.16,6.67-.16,10-.08,1.35.03,2.7.07,4.05.1.81-.08,1.67-.14,2.44-.44.87-.34,1.57-.98,2.21-1.65.66-.69,1.32-1.37,1.98-2.06,1.42-1.46,2.87-2.88,4.34-4.29,2.98-2.84,6.03-5.61,9.03-8.42,2.87-2.69,5.7-5.43,8.35-8.34,1.68-1.84,6.71-6.7,1.58-7.42-4.01-.56-8.5,2.13-12.33,3.01-6.35,1.46-8.52-1.63-3.71-6.25,7.05-6.77,16.32-12.46,24.06-18.53,3.22-2.52,7.77-5.71,9.7-9.31,3.07-5.72-2.63-1.24-4.74-2.95-2.18-1.77,2.13-5.75,3.43-6.98,4.35-4.14,9.88-7.78,13.83-12.29.55-.63,2.72-2.96,2.13-3.78-2.3-.79-5.53,2.15-7.68.45-1.38-1.1-.36-2.48.39-3.6,2.24-3.35,9.06-7.99,12.38-10.94,4.61-4.09,9.2-8.46,13.57-12.8,1.75-1.74,9.05-8.85,9.24-10.81.21-2.06-2.31-.85-3.37-.31-2.84,1.46-9.72,7.44-12.47,7.32-2.33-.1-2.68-2.21-2.03-4.07,1.25-3.59,4.8-8.79,7.01-12,7.66-11.08,15.03-18.26,26.75-24.97,5.28-3.02,15.98-6.79,19.2-11.48,4.71-6.84,2.11-11.92-3.54-16.71-11.4-9.66-25.11-6.33-38.77-5.83-3.41.12-5.52.34-4.31-3.8,2.46-8.42,20.53-16.58,28.56-18.35,4.81-1.06,9.84-.84,14.54-2.45,4.71-1.61,7.88-5.19,12.12-7.4,13.96-7.25,34.3-3.66,47.59,3.71,5.11,2.83,8.41,5.75,14.44,7.11,1.15.26,4.55.56,5.17.91,1.01.57,1.1,1.51.41,2.38-1.79,2.24-9.31,1.46-12.01,1.68l-.42.58c.09.52.4.94.66,1.38,2.71,4.59,15.16,11.06,20.33,12.37,1.6.4,4.93.54,6.12,1.24.8.47,1.13,1.61.46,2.32-.56.59-5.82,1.57-6.98,1.77-3.08.51-6.82.5-9.76,1.14-2.79.61.18,3.95,1.1,5.14,3.46,4.49,7.98,9.88,11.78,14.08,1.12,1.24,6.17,5.72,6.42,6.77.39,1.69-.72,2.59-2.32,2.59-1.52,0-7.16-1.73-6.99.89,2.44,6.35,4.88,12.13,6.25,18.86,1.29,6.37,2.42,13.75,3.11,20.21.29,2.71,1.86,11.49-3.05,10.15-2.27-.62-3.38-4.36-4.3-4.84-.6-.32-.99.41-.97.95.32,9.1-1.94,14.1-5.67,22.1-3.46,7.45-7.71,16.72-11.75,23.75-1.06,1.85-3.03,5.44-5.65,4.36-1.81-.74-1.54-3.89-1.9-5.45-.27-1.15-.49-2.04-1.86-1.22-.75.45-4.06,8.07-4.88,9.57-1.39,2.53-5.7,9.72-7.78,11.24-2.78,2.03-4.43.06-4.87-2.73-.31-1.95-.18-7.19-2.48-2.08-1.41,3.13-6.38,16.39-6.45,19.18-.16,6.1,4.52,10.61,8.34,14.67,4.95,5.25,11.04,10.52,15.93,16.02.32.32.61.66.89,1.03.43.5.85.99,1.25,1.5.39.5.83.99,1.37,1.33,1.37.87,3.25.99,4.83,1.11,1.36.11,2.78-.34,4.15-.42,1.59-.09,3.18-.02,4.76.2.29.04.59.09.88.05.25-.04.49-.14.73-.2,1.17-.31,2.33.16,3.49.25,1.25.1,2.54.09,3.8.09,2.81,0,5.63-.29,8.36-.97,1.11-.25,2.19-.62,3.31-1.01,1.08-.44,2.2-.9,3.27-1.49,2.17-1.15,4.29-2.65,6.24-4.59,2.01-1.98,3.96-4.14,5.62-6.46,1.66-2.32,3-4.81,3.8-7.3,1.02-3.12,1.75-6.25,2.33-9.38.58-3.13,1.02-6.26,1.42-9.48.13-.89.18-1.78.23-2.67.05-.98.06-1.56.06-2.27.01-1.37-.01-2.74-.07-4.1ZM76.68,88.98c.08.18.14.24.18.43.03.15.06.3.08.45.13.85.22,1.73.21,2.6,0,.63-.01,1.26-.02,1.99.05.38.1.81.16,1.25.01.16.03.33.03.49,0,.18.02.29,0,.58-.04.5-.28.99-.64,1.35-.35.36-.87.6-1.34.65-.31.04-.64.1-1,.15-.25.03-.51.08-.83.08-.3,0-.72-.05-1.07-.24-.35-.19-.62-.52-.79-.86-.07-.16-.14-.33-.17-.48-.04-.15-.07-.3-.09-.44-.07-.45-.05-.84-.06-1.21l.02-1.11.06-2.19c.02-.99.03-2-.04-2.94v-.17s-.03-.09-.03-.09c-.01-.05-.03-.11-.06-.16-.05-.1-.14-.19-.24-.26l-1.27-.69c-1.83-.99-3.61-1.98-5.4-3.03-1.36-.8-2.8-1.56-4.21-2.35l-.94-.53-1.03-.57.07.03c-.59-.27-1.15-.62-1.63-1.04-.48-.43-.89-.92-1.24-1.44-.68-1.06-1.12-2.23-1.35-3.43-.28-1.5-.27-3.06.12-4.57.11-.44.26-.87.33-1.05.11-.28.23-.5.33-.68.09-.19.2-.33.29-.48.65-1.08,1.72-1.99,2.98-2.38.63-.18,1.28-.26,1.92-.23.32,0,.7.06,1.01.16.32.09.61.2.86.3.44.17.77.26,1.03.22.13,0,.26-.06.39-.12l.1-.06s.07-.04.08-.05c.04-.02.07-.06.11-.1.1-.13.19-.33.19-.57.01-.23-.06-.47-.17-.64-.06-.08-.12-.15-.19-.19l-.04-.03-.13-.07-.26-.15-1.06-.6c-3.09-1.75-6.11-3.54-9.07-5.38-.3-.18-.62-.37-.93-.55-.3-.18-.59-.37-.88-.56l-.11-.06s-.1-.06-.15-.09c-.1-.07-.2-.15-.29-.24-.09-.09-.17-.18-.24-.27l-.15-.19c-.19-.25-.4-.49-.62-.74-.43-.5-.91-1.02-1.32-1.65-.41-.63-.73-1.39-.8-2.18-.03-.2-.02-.39-.03-.58,0-.19.02-.37.03-.56,0-.19.03-.37.07-.56.04-.18.07-.37.11-.55.2-.73.53-1.42.97-2.04.44-.62,1.01-1.13,1.62-1.55.62-.42,1.31-.73,2.02-.92.35-.11.72-.16,1.08-.23.37-.03.73-.07,1.1-.06v-.03c.3,0,.62.07.93.1.29.02.63.1.92.19.3.09.57.21.83.33.52.24.99.51,1.44.72.71.33,1.35.52,1.91.33.29-.08.59-.23.82-.43.24-.2.42-.45.54-.73.32-.7.17-1.59-.32-2.22-.06-.08-.13-.15-.2-.23l-.25-.23c-.16-.16-.37-.3-.56-.44-.4-.28-.83-.54-1.28-.79-1.42-.79-2.97-1.49-4.46-2.43-.57-.38-1.15-.77-1.68-1.29-.14-.12-.26-.26-.38-.4-.12-.14-.25-.27-.36-.43l-.32-.47-.25-.49c-.53-1.05-.83-2.27-.71-3.48.11-1.21.58-2.38,1.32-3.32.64-.8,1.44-1.48,2.39-1.9.94-.41,1.96-.64,2.98-.61.23,0,.45.04.68.06.22.04.46.03.67.11.43.13.87.21,1.3.41.82.38,1.48.81,2.16,1.14.42.21.84.39,1.2.45.37.07.63.01.87-.17.14-.11.21-.23.27-.44.05-.21.06-.51.05-.82-.01-.32-.05-.67-.06-1.06,0-.19,0-.4.01-.62.02-.21.05-.38.07-.57.21-1.47.68-2.96,1.52-4.27,1.1-1.74,2.88-3.05,4.84-3.66.28-.1.57-.18.85-.24.28-.08.58-.12.87-.16.73-.09,1.46-.08,2.18,0,.68.06,1.36.21,2.02.4.75.24,1.48.57,2.16.98.68.42,1.3.93,1.85,1.51,1.48,1.56,2.37,3.71,2.29,5.84-.02.7-.04,1.35,0,1.93.03.28.07.56.15.75.07.2.16.31.23.37.07.05.26.11.43.12.18.01.42-.04.66-.11.5-.16,1.05-.46,1.63-.78.5-.28,1.01-.59,1.66-.85.64-.24,1.25-.41,1.92-.48,1.32-.17,2.74.07,3.94.73,1.38.75,2.46,1.99,3.03,3.44.58,1.45.63,3.12.09,4.61-.25.7-.61,1.35-1.05,1.93-.14.17-.28.34-.42.5l-.46.46-.49.42c-.16.13-.32.24-.48.37-.64.47-1.3.88-1.96,1.28-.43.25-.89.46-1.33.7-.78.42-1.55.83-2.29,1.26-.37.21-.73.44-1.08.67l-.46.32-.05.05c-.04.06-.09.12-.12.19-.23.38-.29.85-.27,1.26.02.36.13.67.32.9.04.06.1.11.15.16.05.05.15.11.23.17.08.07.16.1.23.14l.11.07.11.04c.22.09.44.11.71.06.27-.04.58-.13.92-.28.68-.28,1.42-.73,2.35-1.05.81-.28,1.6-.39,2.43-.4.82,0,1.64.16,2.36.45,1.68.67,3.05,1.95,3.8,3.53.27.55.49,1.15.63,1.77l.05.15c.09.53.14,1.15.08,1.6-.18,1.55-.85,3.13-1.94,4.26-.25.26-.53.53-.8.73-.27.22-.53.44-.81.63-.27.2-.55.4-.83.58-.28.19-.56.37-.85.53-1.14.69-2.3,1.29-3.46,1.86-1.81.89-3.64,1.67-5.33,2.64-.31.18-.62.36-.91.56l-.44.29-.42.31c-.29.21-.54.42-.71.61-.18.2-.21.32-.22.42,0,.1.02.25.12.44.11.2.22.4.32.49.11.1.13.11.24.13.11.01.32-.03.57-.11.35-.12.76-.3,1.27-.43.13-.03.28-.06.4-.07l.35-.03.35-.03h.36c.96.02,1.96.25,2.83.75.87.5,1.56,1.25,2.05,2.07.49.82.79,1.72.95,2.63.07.39.12.78.15,1.17.08,1.2-.05,2.41-.39,3.57-.17.58-.38,1.15-.67,1.69-.27.54-.61,1.06-1.01,1.53-.41.5-.9.94-1.46,1.31-.29.2-.54.33-.8.47l-.77.42-3.08,1.69c-.83.46-1.65.95-2.48,1.42-.36.2-.75.42-1.1.58-1.44.68-2.89,1.38-4.27,2-.53.25-1.06.38-1.27.44-.22.06-.37.21-.5.39-.05.08-.09.38-.05.48ZM96.39,111.35c-.5.23-1.03.4-1.55.61-.38.16-.74.35-1.12.52-.99.42-1.7.52-2.78.35-.49-.07-.97-.17-1.44-.28-.1-.02-.2-.04-.3-.06-.62-.13-1.24-.27-1.84-.43l-1.86-.53c-.25-.06-.51-.1-.76-.15-.11-.02-.22-.05-.32-.1-.59-.28-1.45-.51-2.01-.88-.04-.03-.08-.05-.11-.08-.34-.26-.32-.64-.13-.97.07-.12.14-.21.21-.26.18-.15.35-.25.54-.36.08-.1.17-.22.26-.33.3-.29.71-.35,1.08-.48.25-.09.49-.23.74-.32l.51-.17.55-.23c.51-.22,1.01-.45,1.51-.69.51-.25,1.02-.49,1.56-.68.41-.15.81-.36,1.21-.55l.28-.11,2.02-.91,1.08-.49c.1-.05.21-.1.25-.12.15-.05.23-.07.31-.11l1.7-.8c.23-.11.45-.26.68-.38.39-.2.79-.4,1.2-.59.88-.42,1.79-.78,2.71-1.07.09-.03.19-.08.28-.11.09-.03.19-.06.28-.07,1.37-.58,2.74-1.15,4.13-1.69v-.02c.06-.02.15-.03.22-.06.27-.12.54-.26.81-.38.44-.18.87-.35,1.32-.51.56-.21,1.12-.41,1.71-.59.47-.14.93-.25,1.46-.35.41-.06.78-.08,1.16-.09.61-.02,1.21-.02,1.81,0,.51.02,1.03.07,1.54.12.46.04.93.07,1.4.16.3.06.59.17.9.25.22.06.41.12.67.23.3.13.58.3.81.52l.16.18c.05.06.08.13.13.2.04.07.07.14.11.21.17.34-.05,1.04-.11,1.38-.12.72-1.1.91-1.67,1.18-.13.06-.25.16-.39.22-.17.08-.34.13-.51.2-.16.07-.31.15-.47.22-.36.17-.72.34-1.07.52-.47.24-.92.54-1.4.73-.7.27-1.35.61-2.02.93-.57.27-1.13.58-1.7.87l-1.96.95c-.15.07-.3.16-.45.24-.36.2-.72.4-1.09.59-.12.06-.26.08-.39.13-.45.19-.9.37-1.35.57-.16.07-.3.2-.46.28-.28.14-.56.26-.84.39l-1.27.56c-.35.15-.7.35-1.05.46-.41.12-.77.32-1.16.48-.14.05-.26.14-.39.21l-.03.03c-.12.05-.24.13-.35.14-.38.06-.71.25-1.05.42-.64.31-1.26.66-1.9.96ZM113.79,115.63c-.31.15-.62.31-.95.44-.25.11-.51.2-.78.29-.26.09-.53.17-.8.24-.34.11-.7.17-1.05.24-.36.05-.72.11-1.1.11-.61.03-1.14-.05-1.68-.1-.42-.05-.83-.1-1.24-.16-.67-.1-1.32-.21-1.99-.33-.57-.11-1.13-.24-1.7-.36l-.76-.16-.41-.09c-.21-.05-.42-.1-.62-.16-.52-.15-.98-.37-1.33-.6-.85-.58-.64-1.26.02-1.91.24-.23.52-.46.86-.66.21-.13.46-.26.65-.37l.39-.21.78-.42c.15-.08.29-.18.44-.26.19-.09.39-.17.58-.26.18-.09.35-.18.53-.27.4-.21.81-.41,1.21-.62.53-.28,1.05-.63,1.6-.84.79-.32,1.55-.71,2.32-1.06l1.97-.95c.75-.35,1.52-.68,2.27-1.02l.53-.25c.42-.21.84-.42,1.27-.62.14-.06.3-.09.45-.14.52-.2,1.04-.39,1.55-.6.19-.08.35-.21.54-.29.32-.14.65-.28.97-.41l1.46-.58c.4-.16.81-.37,1.21-.48.46-.13.89-.34,1.33-.51.16-.06.3-.15.46-.22l.03-.03c.13-.05.28-.14.4-.16.42-.07.81-.28,1.2-.45.73-.34,1.44-.72,2.17-1.05.57-.26,1.17-.46,1.74-.7.43-.18.84-.4,1.26-.6l.52-.23.19-.09c.08-.04.16-.05.24-.07l.31-.07c1.14-.22,2.27-.27,3.39-.19l.36.02c.74.04,1.47.12,2.19.27.76.15,1.49.4,2.21.65.3.11.61.19.93.34.13.06.28.15.39.25.23.2.46.45.64.79.17.32.19.69.11,1-.06.24-.25.4-.37.43-.04,0-.07.01-.11.02-.04.1-.1.2-.17.3,0,0-.02,0-.03.01.06.03.08.09.08.15,0,.15-.51.65-.76.77-.18.08-.36.17-.57.26-.09.1-.19.21-.28.32-.32.29-.74.38-1.13.55-.27.12-.51.3-.78.43-.42.2-.84.37-1.26.56-.58.26-1.15.52-1.72.8-.59.29-1.17.55-1.78.78-.47.17-.92.41-1.38.62l-.31.13-2.3,1.03-1.22.56c-.12.06-.23.12-.28.14-.16.06-.26.09-.35.13-.64.31-1.27.62-1.91.94-.27.13-.51.3-.77.44-.45.24-.9.46-1.36.69-1,.49-2.04.9-3.03,1.27-.1.04-.2.1-.3.14-.1.04-.2.08-.31.11-1.49.75-3,1.56-4.58,2.24v.02c-.07.03-.17.04-.25.08ZM149.22,104.38c.22,0,.43.05.54.13.29.22,1.09-.65,1.6-.67.24,0,.47,0,.75,0,.14-.04.31-.09.48-.14.51-.09,1.01.09,1.51.21.34.09.71.12,1.05.24.53.17,1.04.42,1.53.66.34.18.68.35,1.05.63l.14.11.16.15c.12.1.2.22.29.33.17.24.3.51.33.8.1.61-.26,1.18-.68,1.6-.1.09-.23.2-.35.29-.14.06-.31.13-.37.15l-.51.19c-.52.19-1.04.44-1.56.67l-.35.14-2.59,1.14-1.37.63c-.13.06-.26.13-.32.16-.18.07-.29.1-.39.15-.72.35-1.43.7-2.14,1.05-.3.15-.57.33-.87.49-.5.27-1.01.53-1.52.78-1.12.56-2.26,1.06-3.41,1.49-.12.04-.23.11-.35.15-.12.05-.23.09-.35.12l-5.14,2.44.02.02c-.1.03-.2.06-.29.11-.33.18-.66.37-1,.55l-1.59.81-2.01,1.02-1.6.78-1.25.6-2.02.96-1.74.82-1.53.77c-.33.16-.68.27-1,.44-.88.45-1.76.91-2.64,1.36-.59.29-1.19.56-1.79.84-.17.08-.33.19-.5.27-.38.19-.76.35-1.12.47-.34.11-.67.18-.96.16-.28-.02-.55-.09-.79-.29-.25-.23-.3-.45-.37-.7,0-.09-.01-.18-.02-.28-.02-.48.16-1.1.3-1.69.05-.19.1-.38.14-.56.04-.16.09-.32.14-.47.07-.22.14-.44.2-.64l.03-.14.04-.17.07-.34c.08-.45.15-.9.18-1.3.02-.32-.02-.67-.05-1.12-.03-.43-.05-.99.15-1.58.11-.34.3-.65.51-.92.22-.26.46-.49.7-.66l.24-.18.26-.11.32-.14.64-.28c.2-.09.4-.19.59-.28.47-.23.95-.46,1.42-.69.16-.07.33-.1.5-.17.58-.23,1.16-.46,1.74-.7.21-.09.39-.23.6-.33.36-.17.72-.32,1.09-.47l1.64-.68c.45-.19.91-.42,1.35-.56.52-.16,1-.39,1.49-.59.18-.07.34-.17.51-.25l.04-.03c.15-.06.31-.15.45-.18.47-.09.91-.32,1.35-.52.83-.37,1.64-.79,2.48-1.14.65-.28,1.33-.49,2-.75.49-.19.97-.41,1.46-.61.4-.16.81-.31,1.21-.47l3.37-1.26c.12-.04.23-.1.35-.14l2.15-.95c.76-.33,1.53-.64,2.31-.95.31-.13.62-.29.93-.42.14-.06.29-.11.43-.13.57-.1,1.16-.2,1.72-.24Z"/>
</svg>