<?xml version="1.0" encoding="UTF-8"?>
<svg id="Layer_11" data-name="Layer 11" xmlns="http://www.w3.org/2000/svg" viewBox="0 0 373.48 160.84">
  <defs>
    <style>
      .cls-1 {
        fill: #737438;
      }
    </style>
  </defs>
  <g>
    <g>
      <path class="cls-1" d="M37.88,2.21l19.61,47.93,15.94-38.49-3.19-9.44h38.49l-.37,6.74-4.9,1.35c-3.8.98-4.9,2.94-4.66,7.23l2.57,51.12c.25,3.8.86,5.64,5.15,6.99l4.54,1.35.37,6.74h-45.11l.37-6.74,5.76-1.35c4.05-1.1,5.39-2.82,5.15-7.11l-2.33-38.25-21.21,49.53h-10.67L23.05,30.16l-2.7,38.37c-.25,3.8.74,6.01,5.15,7.11l5.88,1.35.37,6.74H0l.37-6.74,5.03-1.35c3.68-.98,4.54-2.94,4.9-7.11l3.92-46.71c.49-6.99-.86-10.3-5.64-11.77l-3.8-1.1-.37-6.74h33.47Z"/>
      <path class="cls-1" d="M175.79,2.21l22.07,66.93c1.1,3.43,1.96,5.39,5.27,6.5l4.41,1.35.25,6.74h-44.62l.37-6.74,9.68-2.82c.61-.74.25-3.56-.74-6.62l-3.56-11.16h-25.62l-3.92,12.26c-.49,1.47-.74,2.7-.74,3.8,0,1.47.86,2.57,2.57,2.94l7.6,1.59.49,6.74h-32.73l.25-6.74,5.15-1.35c2.7-.74,4.54-2.7,5.39-5.27l22.92-62.28-3.06-5.88h28.56ZM156.3,16.3l-10.54,32.49h20.84l-10.3-32.49Z"/>
      <path class="cls-1" d="M233.54,2.21c7.36,0,17.53-1.1,24.89-1.1,19,0,30.4,7.72,30.4,20.59,0,10.54-7.48,18.14-16.92,22.68,5.52,7.97,13.73,18.02,19.49,23.78,4.78,4.66,9.19,7.85,13.36,9.19l-1.1,6.38c-2.33,1.35-6.99,2.45-11.77,2.45-9.32,0-18.39-4.29-24.89-12.87-3.8-4.9-9.81-15.2-13.85-24.03l-5.64-.12-.49,19.37c-.12,4.05.74,6.01,5.27,6.99l6.99,1.47.37,6.74h-47.07l.37-6.74,5.27-1.35c3.8-1.1,4.66-3.06,4.66-7.11l.74-51c0-3.92-.98-6.01-5.03-7.23l-4.9-1.35-.25-6.74h20.1ZM247.76,40.95l6.87-.12,2.08-.12c4.04-.12,7.72-5.76,7.72-14.71,0-11.28-5.03-16.79-12.01-16.79-.61,0-1.23,0-1.96.12-1.23.25-1.96,1.1-1.96,2.7l-.74,28.93Z"/>
      <path class="cls-1" d="M340.68,0c7.23,0,15.08,1.84,20.23,3.8l9.19-3.31c0,7.85-.49,20.72-.86,28.69l-7.11.49c-3.19-15.94-11.4-20.47-19.12-20.47-6.5,0-10.42,3.19-10.42,8.95,0,6.13,4.78,8.83,15.32,14.83,14.71,8.46,24.52,15.2,24.52,28.07,0,14.83-12.26,24.76-32.49,24.76-7.6,0-16.18-1.23-21.82-3.43l-6.99,2.82c-2.21-9.32-3.43-22.31-3.43-30.28l7.11-.49c3.31,15.57,12.99,22.07,22.92,22.07,6.99,0,10.79-3.19,10.79-8.34,0-6.87-8.34-11.16-19.61-17.78-11.16-6.62-19.12-13.12-19.12-25.5,0-16.55,13.73-24.89,30.89-24.89Z"/>
    </g>
    <g>
      <path class="cls-1" d="M34.23,101.08l-6.22,30.44h-4.61l-4.74-19.66c-.26-1.04-.74-3.3-.87-4.04-.13.74-.61,3-.87,4.04l-4.96,19.66h-4.52l-6.22-30.44h4.61l3.65,19.22c.17.91.57,3,.7,4,.17-1,.61-3.04.83-3.96l4.87-19.26h3.91l4.96,19.7c.22.83.57,2.44.74,3.52.22-1.13.48-2.83.61-3.57l3.7-19.66h4.44Z"/>
      <path class="cls-1" d="M45.15,131.52h-4.57v-30.44h4.57v30.44Z"/>
      <path class="cls-1" d="M73.02,131.52h-19.74v-30.44h4.57v25.96h15.18v4.48Z"/>
      <path class="cls-1" d="M102.29,116.3c0,10.74-6.87,15.22-14.83,15.22h-8.31v-30.44h8.31c8.18,0,14.83,4.48,14.83,15.22ZM97.64,116.3c0-6.39-2.96-10.79-10.18-10.79h-3.74v21.57h3.74c7.22,0,10.18-4.39,10.18-10.79Z"/>
      <path class="cls-1" d="M128.43,131.52h-19.74v-30.44h4.57v25.96h15.18v4.48Z"/>
      <path class="cls-1" d="M139.34,131.52h-4.57v-30.44h4.57v30.44Z"/>
      <path class="cls-1" d="M167.09,105.56h-15.05v7.96h8.74v4.48h-8.74v13.52h-4.57v-30.44h19.61v4.48Z"/>
      <path class="cls-1" d="M193.05,131.52h-20.27v-30.44h19.61v4.44h-15.05v7.52h8.74v4.44h-8.74v9.61h15.7v4.44Z"/>
      <path class="cls-1" d="M234.41,110.17c0,4.87-2.57,7.87-6.7,8.92l6.22,12.44h-5.26l-6.04-12.05h-6.87v12.05h-4.48v-30.44h13.35c5.31,0,9.79,2.83,9.79,9.09ZM229.8,110.3c0-3.17-2.09-4.91-5.18-4.91h-8.87v9.78h8.87c3.04,0,5.18-1.57,5.18-4.87Z"/>
      <path class="cls-1" d="M261.72,131.52h-20.27v-30.44h19.61v4.44h-15.05v7.52h8.74v4.44h-8.74v9.61h15.7v4.44Z"/>
      <path class="cls-1" d="M287.94,122.78c0,5.48-3.48,9.22-11.26,9.22-4.44,0-8.26-1.91-10.83-4.91l3.26-3.17c2.04,2.22,5.04,3.61,7.92,3.61,4.26,0,6.31-1.48,6.31-4.44,0-2.35-1.78-3.52-6.87-5.04-6.44-1.91-9.52-3.52-9.52-8.96s4.44-8.48,10.05-8.48c4.13,0,7.26,1.52,9.96,4.13l-3.22,3.26c-1.91-1.96-4.09-2.91-7.09-2.91-3.57,0-5.09,1.74-5.09,3.78s1.39,3.17,6.65,4.74c6,1.83,9.74,3.74,9.74,9.18Z"/>
      <path class="cls-1" d="M316.47,126.17c-2.17,3.74-5.87,5.83-10.48,5.83-7.87,0-12.87-6.48-12.87-15.7s5-15.7,12.87-15.7c4.96,0,8.26,2,10.35,5.7l-4.04,2.52c-1.57-2.48-3.17-3.65-6.31-3.65-5.31,0-8.18,4.31-8.18,11.13s2.87,11.13,8.18,11.13c3.17,0,5.13-1.3,6.7-3.78l3.78,2.52Z"/>
      <path class="cls-1" d="M345.52,118.82c0,8.52-4.13,13.18-11.7,13.18s-11.44-4.87-11.44-13.26v-17.66h4.57v17.53c0,5.74,2.39,8.83,6.96,8.83s7.05-2.96,7.05-8.52v-17.83h4.57v17.74Z"/>
      <path class="cls-1" d="M373.48,131.52h-20.27v-30.44h19.61v4.44h-15.05v7.52h8.74v4.44h-8.74v9.61h15.7v4.44Z"/>
    </g>
  </g>
  <g>
    <path class="cls-1" d="M9.85,160.84l-3.67-9c-.3-.72-.68-1.77-.82-2.31v10.95h-1.5v-13.96h1.74l3.29,8.36c.34.84.84,2.13,1,2.71.18-.6.68-1.89,1-2.71l3.33-8.36h1.7v13.96h-1.5v-10.95c-.14.54-.54,1.58-.84,2.31l-3.73,9Z"/>
    <path class="cls-1" d="M30.58,153.48c0,4.21-2.35,7.22-5.82,7.22s-5.76-2.97-5.76-7.18,2.33-7.22,5.8-7.22,5.78,2.97,5.78,7.18ZM29.02,153.52c0-3.51-1.85-5.8-4.29-5.8s-4.19,2.25-4.19,5.76,1.83,5.8,4.27,5.8,4.21-2.25,4.21-5.76Z"/>
    <path class="cls-1" d="M43.61,154.78c0,3.87-1.66,5.92-5.01,5.92s-5.04-2.01-5.04-5.88v-8.3h1.56v8.26c0,3.01,1.16,4.51,3.57,4.51s3.37-1.46,3.37-4.47v-8.3h1.56v8.26Z"/>
    <path class="cls-1" d="M47.18,160.48v-13.96h1.52l6.04,9.73c.3.48.82,1.4,1,1.75v-11.49h1.5v13.96h-1.46l-6.1-9.55c-.3-.48-.82-1.4-1-1.75v11.31h-1.5Z"/>
    <path class="cls-1" d="M69.82,147.94h-4.11v12.54h-1.55v-12.54h-4.11v-1.42h9.77v1.42Z"/>
    <path class="cls-1" d="M81.75,160.48h-1.64l-1.2-3.55h-5.76l-1.22,3.55h-1.6l4.85-13.96h1.71l4.85,13.96ZM78.44,155.51l-1.54-4.59c-.3-.92-.72-2.17-.86-2.75-.14.56-.54,1.81-.88,2.79l-1.54,4.55h4.81Z"/>
    <path class="cls-1" d="M86.3,160.48h-1.56v-13.96h1.56v13.96Z"/>
    <path class="cls-1" d="M90.07,160.48v-13.96h1.52l6.04,9.73c.3.48.82,1.4,1,1.75v-11.49h1.5v13.96h-1.46l-6.1-9.55c-.3-.48-.82-1.4-1-1.75v11.31h-1.5Z"/>
    <path class="cls-1" d="M114.42,160.48h-1.64l-1.2-3.55h-5.76l-1.22,3.55h-1.6l4.85-13.96h1.71l4.85,13.96ZM111.11,155.51l-1.54-4.59c-.3-.92-.72-2.17-.86-2.75-.14.56-.54,1.81-.88,2.79l-1.54,4.55h4.81Z"/>
    <path class="cls-1" d="M118.97,160.48h-1.56v-13.96h1.56v13.96Z"/>
    <path class="cls-1" d="M132.61,150.47c0,2.17-1.3,3.53-3.29,3.95l3.07,6.06h-1.79l-2.99-5.94h-3.31v5.94h-1.56v-13.96h5.52c2.45,0,4.35,1.26,4.35,3.95ZM131.06,150.53c0-1.71-1-2.59-2.85-2.59h-3.91v5.21h3.71c2.07,0,3.05-.86,3.05-2.61Z"/>
    <path class="cls-1" d="M144.44,160.48h-8.74v-13.96h8.44v1.42h-6.88v4.39h3.99v1.42h-3.99v5.33h7.18v1.42Z"/>
    <path class="cls-1" d="M163.23,160.48h-1.64l-1.2-3.55h-5.76l-1.22,3.55h-1.6l4.85-13.96h1.71l4.85,13.96ZM159.92,155.51l-1.54-4.59c-.3-.92-.72-2.17-.86-2.75-.14.56-.54,1.81-.88,2.79l-1.54,4.55h4.81Z"/>
    <path class="cls-1" d="M174.78,146.52l-4.75,13.96h-1.71l-4.75-13.96h1.64l3.11,9.55c.28.84.72,2.25.86,2.75.14-.5.62-1.97.88-2.79l3.13-9.51h1.59Z"/>
    <path class="cls-1" d="M179.33,160.48h-1.56v-13.96h1.56v13.96Z"/>
    <path class="cls-1" d="M193.73,160.48h-1.64l-1.2-3.55h-5.76l-1.22,3.55h-1.6l4.85-13.96h1.71l4.85,13.96ZM190.42,155.51l-1.54-4.59c-.3-.92-.72-2.17-.86-2.75-.14.56-.54,1.81-.88,2.79l-1.54,4.55h4.81Z"/>
    <path class="cls-1" d="M196.63,160.48v-13.96h1.52l6.04,9.73c.3.48.82,1.4,1,1.75v-11.49h1.5v13.96h-1.46l-6.1-9.55c-.3-.48-.82-1.4-1-1.75v11.31h-1.5Z"/>
    <path class="cls-1" d="M225.41,150.47c0,2.17-1.3,3.53-3.29,3.95l3.07,6.06h-1.79l-2.99-5.94h-3.31v5.94h-1.56v-13.96h5.52c2.45,0,4.35,1.26,4.35,3.95ZM223.85,150.53c0-1.71-1-2.59-2.85-2.59h-3.91v5.21h3.71c2.07,0,3.05-.86,3.05-2.61Z"/>
    <path class="cls-1" d="M237.24,160.48h-8.74v-13.96h8.44v1.42h-6.88v4.39h3.99v1.42h-3.99v5.33h7.18v1.42Z"/>
    <path class="cls-1" d="M248.55,156.81c0,2.19-1.71,3.89-4.63,3.89-1.89,0-3.59-.82-4.69-1.93l1.04-1.16c1.06,1.02,2.27,1.68,3.71,1.68,1.85,0,3.01-.92,3.01-2.39,0-1.3-.78-2.03-3.33-2.95-3.01-1.08-4.03-2.05-4.03-4.07,0-2.23,1.75-3.57,4.37-3.57,1.88,0,3.07.56,4.25,1.5l-1,1.22c-1.02-.84-1.96-1.3-3.35-1.3-1.92,0-2.71.96-2.71,2.05,0,1.16.52,1.82,3.31,2.81,3.09,1.12,4.05,2.15,4.05,4.23Z"/>
    <path class="cls-1" d="M261.32,158.39c-1.02,1.38-2.53,2.31-4.57,2.31-3.41,0-5.64-3.09-5.64-7.18s2.33-7.22,5.7-7.22c1.91,0,3.35.72,4.45,2.23l-1.24.94c-.9-1.22-1.74-1.75-3.25-1.75-2.39,0-4.11,2.37-4.11,5.76s1.78,5.8,4.13,5.8c1.52,0,2.55-.68,3.45-1.83l1.08.94Z"/>
    <path class="cls-1" d="M274.02,154.78c0,3.87-1.66,5.92-5.01,5.92s-5.04-2.01-5.04-5.88v-8.3h1.56v8.26c0,3.01,1.16,4.51,3.57,4.51s3.37-1.46,3.37-4.47v-8.3h1.56v8.26Z"/>
    <path class="cls-1" d="M286.33,160.48h-8.74v-13.96h8.44v1.42h-6.88v4.39h3.99v1.42h-3.99v5.33h7.18v1.42Z"/>
    <path class="cls-1" d="M303.07,156.81c0,2.19-1.71,3.89-4.63,3.89-1.89,0-3.59-.82-4.69-1.93l1.04-1.16c1.06,1.02,2.27,1.68,3.71,1.68,1.85,0,3.01-.92,3.01-2.39,0-1.3-.78-2.03-3.33-2.95-3.01-1.08-4.03-2.05-4.03-4.07,0-2.23,1.75-3.57,4.37-3.57,1.88,0,3.07.56,4.25,1.5l-1,1.22c-1.02-.84-1.96-1.3-3.35-1.3-1.92,0-2.71.96-2.71,2.05,0,1.16.52,1.82,3.31,2.81,3.09,1.12,4.05,2.15,4.05,4.23Z"/>
    <path class="cls-1" d="M317.21,153.48c0,4.21-2.35,7.22-5.82,7.22s-5.76-2.97-5.76-7.18,2.33-7.22,5.8-7.22,5.78,2.97,5.78,7.18ZM315.65,153.52c0-3.51-1.85-5.8-4.29-5.8s-4.19,2.25-4.19,5.76,1.83,5.8,4.27,5.8,4.21-2.25,4.21-5.76Z"/>
    <path class="cls-1" d="M329.9,158.39c-1.02,1.38-2.53,2.31-4.57,2.31-3.41,0-5.64-3.09-5.64-7.18s2.33-7.22,5.7-7.22c1.91,0,3.35.72,4.45,2.23l-1.24.94c-.9-1.22-1.74-1.75-3.25-1.75-2.39,0-4.11,2.37-4.11,5.76s1.78,5.8,4.13,5.8c1.52,0,2.55-.68,3.45-1.83l1.08.94Z"/>
    <path class="cls-1" d="M334.47,160.48h-1.56v-13.96h1.56v13.96Z"/>
    <path class="cls-1" d="M346.97,160.48h-8.74v-13.96h8.44v1.42h-6.88v4.39h3.99v1.42h-3.99v5.33h7.18v1.42Z"/>
    <path class="cls-1" d="M358.86,147.94h-4.11v12.54h-1.55v-12.54h-4.11v-1.42h9.77v1.42Z"/>
    <path class="cls-1" d="M371.91,146.52l-4.79,8.42v5.54h-1.56v-5.52l-4.79-8.44h1.77l2.23,4.01c.56,1.02,1.18,2.17,1.58,2.99.4-.82,1.02-1.99,1.58-2.99l2.23-4.01h1.73Z"/>
  </g>
</svg>