<?xml version="1.0" encoding="UTF-8"?>
<svg id="Layer_11" data-name="Layer 11" xmlns="http://www.w3.org/2000/svg" viewBox="0 0 571.74 143.26">
  <defs>
    <style>
      .cls-1 {
        fill: #1c5c7d;
      }
    </style>
  </defs>
  <g>
    <path class="cls-1" d="M96.74,142.05c-.13-.2-.27-.4-.4-.6-1.31-1.67-2.63-3.34-3.9-5.05-1.67-2.25-3.5-5.5-5.36-7.46-1.13-1.19-1.46-.11-2.16.85-.78,1.07-1.51,2.19-2.2,3.32-.71,1.15-1.4,2.32-2.09,3.48-.69,1.16-1.39,2.31-2.13,3.44-.26.39-.52.78-.78,1.17-.14.22-.28.44-.41.66-.08.14-.22.38-.2.55,0,.04.02.07.04.1.1.17.28.29.47.35.48.15,1.08.11,1.57.1,1.46-.04,2.92-.09,4.38-.15,1.47-.05,2.94-.11,4.41-.16,1.47-.05,2.94-.08,4.41-.1.72,0,1.44,0,2.15,0,.36,0,.72,0,1.08,0,.09,0,.19,0,.29,0,.25,0,.51,0,.73-.08.1-.04.19-.13.2-.23,0-.07-.04-.14-.08-.21Z"/>
    <path class="cls-1" d="M120.63,142.43c-.23-.54-.77-.82-1.21-1.17-.48-.38-.95-.77-1.41-1.17-.9-.79-1.77-1.61-2.65-2.43-.38-.36-.75-.71-1.14-1.06-1.96-1.79-3.97-3.61-5.85-5.47-.42-.42-1.51-1.88-1.95-2.08-.42-.19-.58.29-.89.5-2.05,1.4-2.21-.51-2.14-2.14.05-1.02.63-3.36.29-4.17-.32-.77-1.02-.25-1.53.04-.99.56-3.31,2.87-4.21,2.82-.41-.03-.76-.28-.81-.7-.13-1.03.66-1.61.74-2.63.14-1.68-.74-1.07-1.63-.38-2.1,1.64-3.74,3.63-2.96,6.48.44,1.58,4.42,6.05,5.65,7.68.87,1.16,1.73,2.33,2.58,3.5.35.48.7.97,1.05,1.45.3.41.59.86,1.06,1.11.6.31,1.32.28,1.97.3.74.02,1.47.04,2.21.05.83.02,1.65.03,2.48.03,1.93.02,3.87-.2,5.81-.31.29-.02.58,0,.87.02,1.01.05,2.02.11,3.03.17.13,0,.26.01.38-.02.09-.03.18-.08.23-.16.03-.04.05-.09.05-.14,0-.04-.02-.09-.03-.12Z"/>
    <path class="cls-1" d="M69.52,96.92c1.2-.15,2.69-1.4,3.65-2.13,6.13-4.66,12.92-11.61,15.89-18.81.28-.67,1.16-3.09-.39-2.79-1.23.24-2.33,3.13-2.96,4.21-4.49,7.59-9.54,13.3-16.69,18.52-.6.77-.61,1.14.5,1Z"/>
    <path class="cls-1" d="M75.76,107.31c-4.61,4.27-9.7,8.57-14.8,12.23-1.67,1.2-4.99,2.99-6.26,4.3-.57.59-1.01,1.7.23,1.63,1.29-.07,5.1-2.53,6.36-3.34,6.32-4.04,12.76-9.45,18.18-14.63,10.14-9.69,22.63-24.85,20.66-39.91-.12-.89-1.01-4.82-2.29-4.59-.47.08-.36,1.43-.34,1.81.05.79.3,1.59.38,2.39,1.41,14.47-13.71,27.34-24.48,34.62-3.04,2.05-7.45,4.15-10.09,6.38-.38.32-.88.81-.74,1.35.18.62,1.33.22,1.79.08,3.61-1.06,9.38-4.83,12.63-6.98,1.01-.67,4.69-3.57,5.41-3.77,1.28-.35.66.91.23,1.49-1.59,2.18-4.84,5.04-6.89,6.94Z"/>
    <path class="cls-1" d="M109.11,40.57c3.55-.61,3.35-6.18-.56-5.97-4.41.23-4.08,6.77.56,5.97Z"/>
    <path class="cls-1" d="M126.29,43.06c-.27-.15-.57-.4-.9-.31-.48.23-.38.66-.24,1.08.36,1.14,3.54,4.11,4.74,4.07,1.09-.04.81-1.12.37-1.76-.56-.81-3.05-2.56-3.96-3.08Z"/>
    <path class="cls-1" d="M130.58,52.48c-.21-.06-.48-.11-.68-.04-.6.2.35,2.26.55,2.69.73,1.59,2.16,3.42,3.52,4.53.48.39,1.85,1.31,2.39.76.39-.7-.16-1.61-.53-2.24-.57-.96-4.39-5.42-5.25-5.69Z"/>
    <path class="cls-1" d="M137.24,80.27c.2.44.76,1.25,1.3,1.17.84-.3.78-1.43.72-2.18-.16-2.28-2.19-9.81-3.53-11.56-.21-.28-.67-.73-1.04-.67-.28.04-.5.3-.57.57-.34,1.47.67,3.27,1.07,4.66.65,2.26,1.16,6.09,2.04,8.01Z"/>
    <path class="cls-1" d="M129.73,95.64c-.25.69-1,2.46.16,2.67.76.14,1.24-.43,1.7-.94,3.27-3.59,4.39-14.3,2.41-18.64-.13-.29-.5-.93-.89-.66-.03.02-.2.59-.23.71-.36,1.51.08,3.93-.03,5.63-.27,4.28-1.72,7.36-3.11,11.22Z"/>
    <path class="cls-1" d="M36.85,41.62c-.07,0-.13,0-.2-.02-.12-.03-.24-.1-.31-.19-.03-.04-.06-.09-.08-.14l-.02-.06s-.03-.06-.03-.09c0,0,0-.01,0-.02-.09-.25-.11-.48-.13-.72l-.03-.29c0-.07-.01-.09-.02-.1,0,0-.02-.06-.02-.07v-.03c-.04-.09-.1-.17-.18-.23l-.03-.02s-.02-.01-.03-.02l-.03-.02c-.44-.32-.88-.65-1.35-1.01l-.04-.03c-.05-.04-.1-.08-.15-.11-.51-.31-1-.7-1.46-1.06-.01,0-.02-.02-.04-.03-.06-.04-.1-.11-.15-.23-.02-.04-.04-.1-.05-.13,0-.01,0-.03,0-.04,0-.04,0-.1,0-.14.01-.13.05-.27.11-.38.07-.12.16-.22.27-.29.13-.09.3-.14.44-.14.03,0,.06,0,.08,0h.04s.08.03.12.04c.03.01.1.04.12.05.01,0,.01,0,.03.02.09.05.15.1.23.16l.03.02c.13.1.25.21.38.32l.08.07.45.4.11.1.05.04.07.06c.1.08.19.13.28.16.06.03.12.04.19.04.12,0,.25-.05.33-.14.06-.06.13-.17.12-.34v-.04s.02-.11.03-.17v-.06s-.02-.7-.02-.7l-.02-1.17c0-.25,0-.5,0-.75,0-.47,0-.97-.02-1.45l-.02-.61v-.38c0-.12-.06-.23-.14-.32l-.07-.07-.21-.19-.45-.41c-.13-.12-.25-.22-.36-.3-.43-.31-.73-.63-1.05-1.02-.17-.21-.33-.39-.61-.6-.03-.02-.11-.08-.23-.22-.31-.34-.59-.6-.91-.85-.08-.06-.16-.12-.24-.19-.04-.04-.08-.07-.12-.11l-.06-.06s-.03-.03-.05-.05c-.02-.02-.02-.03-.03-.05-.05-.11-.07-.22-.06-.35.01-.11.05-.22.12-.31.07-.09.17-.16.26-.18.04-.01.08-.02.13-.02.07,0,.14.01.21.04,0,0,.02,0,.03,0,0,0,.02.02.03.02.02.02.05.04.07.06l1.13.97c.16.13.33.28.5.39.18.11.36.25.55.41.09.08.17.16.26.24,0,0,.19.19.2.2,0,0,0,0,0,0,.08.1.17.16.23.21l.04.03c.07.06.14.1.2.14.03.02.05.03.08.05.08.06.17.09.27.09.07,0,.15-.02.21-.05.15-.08.25-.25.24-.42,0-.02,0-.04,0-.05.04-.12.03-.23.02-.3-.01-.11-.02-.19-.03-.28,0-.17,0-.36,0-.55,0-.39,0-.77.03-1.13,0-.09,0-.18,0-.28v-1.2c0-.1-.01-.21-.02-.31,0,0-.01-.27-.02-.35,0-.16-.02-.3-.02-.45v-.36s0-.18,0-.18v-.04c.02-.13,0-.31-.18-.48-.02-.02-.09-.08-.15-.13l-.14-.11c-.34-.26-.69-.52-1.02-.76-.21-.16-.43-.31-.64-.47-.04-.03-.07-.05-.11-.08-.02-.01-.05-.03-.07-.05-.11-.09-.22-.18-.33-.27-.22-.18-.43-.35-.65-.54-.05-.04-.16-.16-.23-.26-.04-.07-.06-.14-.05-.21,0-.11.05-.24.1-.35.06-.12.13-.22.21-.29.01-.01.04-.03.07-.04.1-.05.22-.07.33-.07.04,0,.08,0,.12,0,.1.02.16.03.24.06.06.02.13.05.2.08.28.14.51.3.71.46.15.12.31.26.48.42,0,.02.02.04.03.06.06.1.14.19.23.27,0,0,.04.03.04.03.08.06.17.09.27.09.03,0,.06,0,.09,0,.12-.02.23-.1.3-.21.03-.05.05-.11.06-.16v-.03s.02-.08.02-.12v-.17s.02-.5.02-.5v-.36c.01-.35.02-.7.02-1.05,0-.16,0-.33,0-.49,0-.15,0-.3,0-.44,0-.24,0-.48.01-.72,0-.15.01-.56.01-.56,0-.17,0-.34,0-.52-.01-.23-.02-.46-.02-.69v-.3s0-.02,0-.03c0-.15.04-.26.1-.33,0-.01.02-.03.03-.04.01-.02.05-.06.09-.09h.02s0-.02,0-.02c.04-.02.1-.06.12-.07,0,0,.03-.01.04-.01.1-.04.2-.06.33-.07.02,0,.04,0,.05,0,.05,0,.08,0,.11,0,.01,0,.03,0,.04,0,.05,0,.09.02.17.04h.03c.11.05.2.11.26.19.06.08.05.3.05.4v.45c-.01.3-.02.6-.01.9,0,.27.01.54.03.82.01.28.02.57.03.85,0,.71-.01,1.28-.04,1.79-.02.25-.03.51-.03.76v.18s0,.16,0,.16v.19c0,.1.04.19.11.27.09.11.23.18.37.18.05,0,.11,0,.16-.03.12-.05.2-.12.26-.17h0c.07-.03.13-.08.2-.13h0c.06-.04.15-.12.19-.15l.19-.17c.07-.07.14-.14.22-.2.18-.17.34-.32.52-.47l.17-.13.03-.02.06-.04s.04-.02.06-.03c.02,0,.04-.01.06-.02l.06-.02s.03,0,.06,0c0,0,.02,0,.03,0,.03,0,.05,0,.08,0,.04,0,.08,0,.11,0,.13.02.26.07.36.15.1.08.17.2.2.32.05.2.02.43-.08.59,0,0-.01.02-.02.03,0,0-.09.11-.09.11l-.03.03c-.05.06-.11.11-.16.16-.1.1-.21.19-.35.3-.22.18-.46.35-.72.52-.49.33-.99.7-1.51,1.16-.03.03-.07.06-.1.09-.01.01-.02.02-.03.03l-.03.02s-.03.02-.08.06c-.01.01-.04.03-.07.04-.16.07-.27.23-.27.4,0,.37,0,.75.01,1.11,0,.16,0,.32.01.47l.05,1.88c0,.1,0,.21,0,.32,0,.05,0,.11,0,.16,0,.26-.01.54,0,.89v.2s0,.09,0,.09v.14s0,.02,0,.04c0,0,0,.04,0,.04-.02.18.06.3.11.35.09.1.21.16.35.16,0,0,.02,0,.02,0,.21,0,.35-.12.4-.15l.21-.16.31-.25c.23-.19.45-.39.66-.58.17-.15.34-.31.52-.46.03-.03.06-.05.1-.08.09-.07.19-.15.27-.24.12-.14.27-.25.44-.37.1-.07.2-.15.3-.23.02,0,.06-.01.09-.02.1-.02.23-.04.35-.14.03-.02.06-.05.09-.09.04-.04.05-.06.11-.07,0,0,.04,0,.09,0,.08,0,.16.02.24.05.13.06.3.2.37.43.04.1.05.22.04.34-.02.12-.05.24-.11.33-.05.09-.12.17-.21.27-.06.05-.12.1-.17.14,0,0-.01,0-.02.02-.34.29-.75.62-1.16.88-.07.04-.15.1-.24.18-.2.17-.39.34-.59.51-.46.39-.94.8-1.38,1.23-.06.06-.12.11-.19.16l-.62.5c-.11.06-.19.17-.22.3v.03s-.01.05-.02.08v.22s-.02.51-.02.51v1.12s-.02.35-.02.35c0,.43-.01.83-.04,1.24-.03.42-.02.88,0,1.32v.29s.01.02.01.03v.06s0,.04,0,.07c0,0,0,.08,0,.08,0,.14.08.28.2.36.07.05.16.07.24.07.06,0,.11-.01.16-.03l.05-.02s.03-.01.04-.02c.05-.03.1-.06.16-.09.01,0,.05-.04.13-.1l.27-.25c.18-.17.37-.34.56-.5.03-.02.06-.05.1-.08.04-.04.07-.07.11-.09,0,0,.02-.01.02-.01.05-.03.09-.06.15-.09l.05-.03s.09-.05.13-.06l.14-.05s.03,0,.06-.01h.06s.04-.02.06-.02c.04,0,.09,0,.13,0,.14.02.3.09.4.21.1.11.18.28.19.43.02.16,0,.31-.07.47-.03.07-.07.14-.12.2l-.04.06-.12.13c-.05.06-.11.11-.16.16l-.04.03c-.33.28-.69.53-1.04.77-.09.06-.19.13-.28.19-.46.32-.84.61-1.17.89-.04.04-.08.07-.11.1-.02.02-.05.04-.08.07h0c-.09.06-.18.15-.23.32,0,.02,0,.03-.01.05-.03.12-.05.27-.05.42l-.02.43c0,.06,0,.13-.02.22,0,0,0,.02,0,.02,0,0-.02.09-.02.09,0,.03-.02.06-.03.08-.06.14-.15.23-.23.26-.08.03-.16.04-.25.04Z"/>
    <path class="cls-1" d="M154.76,117.68c-.05-1.35-.16-2.69-.29-4.03-.26-2.68-.6-5.34-.78-8.02-.15-2.24-.39-4.48-.45-6.72-.06-2.56,0-5.11-.38-7.64-.19-1.31-.41-2.72-.3-4.02.28-3.33,0-6.48-.85-9.51-.56-1.98-.52-3.95-.16-5.98.13-.72.25-1.47.28-2.21.11-2.94.17-5.88.25-8.81.01-.53.07-1.08,0-1.58-.41-2.98-.34-5.93-.19-8.97.25-5.19.19-10.42.28-15.63.01-.81.17-1.61.26-2.42.09-.81.24-1.62.26-2.43l.07-4.18.02-2.09c0-.08,0-.2,0-.3v-.31s-.02-.62-.02-.62c-.03-.41-.05-.82-.1-1.23-.36-3.28-1.53-6.48-3.41-9.14-.72-1.04-1.52-2.02-2.44-2.86-.91-.84-1.92-1.53-3.02-1.98-1.6-.65-3.07-1.4-4.6-2.1-1.52-.71-3.09-1.4-4.76-1.88-1.22-.36-2.49-.64-3.78-.79-1.14-.14-2.29-.26-3.44-.27-4.13-.04-8.3-.24-12.41.44-1.21.2-2.56.06-3.84.04-3.55-.05-7.09-.16-10.64-.17-3.02,0-6.05.21-9.05.12-3.16-.09-6.28-.32-9.43.1-2.64.35-5.32.56-7.98.81-.52.05-1.05.02-1.57.06-3.13.2-6.11-.47-9.16-.7-2.23-.17-4.46-.52-6.6-.96-5.1-1.03-10.27-1.39-15.58-1.02-.97.07-1.98.13-2.94.06-3.22-.26-6.42-.57-9.56.29-.45.12-1.04.03-1.57.05-1.07.04-2.14.04-3.21.03h-.8s-.41-.01-.41-.01h-.48c-.64,0-1.28.05-1.92.1-2.55.25-5.08,1-7.29,2.29-2.3,1.35-4.39,2.99-6.21,4.9-1.82,1.91-3.36,4.1-4.49,6.52-.49,1.05-.8,2.2-1.19,3.26-.08.22-.16.45-.23.67-.07.23-.13.46-.19.69-.13.46-.2.93-.28,1.4-.07.47-.11.95-.14,1.42,0,.24-.01.47-.01.71v.35s.01.29.01.29c.06,1.57.25,3.11.52,4.59.4,2.16.36,4.16.18,6.18-.22,2.48-.41,4.89-.11,7.4.17,1.46.26,3.09.03,4.49-.35,2.14-.19,4.29-.11,6.44.01.33.04.66.08.99.03.26.11.53.35.67.44.26,1.1-.01,1.54-.15,1.3-.41,2.64-.69,3.94-1.08.73-.22,1.46-.44,2.2-.62,1.25-.29,2.51-.54,3.78-.73.26-.04.51-.06.76-.09,1.58-.24,3.17-.4,4.76-.45.56-.03,1.11-.02,1.67-.03.55,0,1.11.03,1.67.05.41.04.83.09,1.25.13.42.06.83.13,1.24.2l1.17.24c.39.1.77.19,1.16.3l1.04.32,1.03.35c1.07.39,2.11.82,3.15,1.27.94.41,1.86.84,2.79,1.25.72.32,1.44.64,2.17.93.33.13.66.27.99.39.33.13.66.25,1,.36,1.87.63,3.79,1.13,5.7,1.68,1.04.3,2.17.53,3.27.77.99.22,1.98.45,2.97.62,1.25.21,2.53.32,3.8.56.08.02.17.03.25.05.1.02.22.03.31.09.19.11.3.32.32.51.04.31-.03.54-.1.78-.08.24-.17.46-.28.68-.1.22-.21.43-.33.63-.06.1-.13.21-.19.31-.07.1-.14.19-.22.29-.25.29-.57.53-.94.68-.36.15-.74.2-1.11.23-.74.04-1.45,0-2.19.02-.4,0-.82.03-1.24.04-.42,0-.84.02-1.26.01-1.4,0-2.78-.11-4.16-.16-.59-.02-1.29-.1-1.92-.17-1.04-.13-2.08-.27-3.13-.38-2.12-.23-4.24-.49-6.38-.56l-.8-.02c-.06,0-.11,0-.16.01-.1.02-.26.05-.35.11-.14.1-.01.25.06.34l.05.06.09.1c.13.14.26.28.4.41.49.46,1.2.53,1.84.68.68.16,1.37.3,2.06.42.65.12,1.33.22,1.95.34,1.8.34,3.64.48,5.47.65,1.08.1,2.17.21,3.25.29.4.03.8.07,1.2.09,1.59.09,3.17.11,4.73.06.71-.02,1.52-.14,2.27-.31.47-.11.96-.22,1.43-.35.47-.14.94-.25,1.4-.39.34-.1.65-.2.96-.31.31-.1.61-.23.92-.35,1.6-.66,3.22-1.34,4.84-2.06.64-.29,1.29-.61,1.93-.93.84-.41,1.69-.83,2.53-1.25.34-.17.68-.33,1.02-.5,1.14-.57,2.28-1.12,3.43-1.66,1.16-.53,2.32-1.03,3.51-1.5.35-.13.71-.27,1.1-.37.38-.1.79-.15,1.18-.14.2,0,.39.02.58.04.19.02.4.06.58.12.37.11.73.24,1.08.41.21.1.42.21.61.36.17.13.37.34.39.58.01.13-.02.27-.07.39-.03.06-.06.13-.08.16-.02.04-.07.1-.1.15-.21.24-.42.4-.63.59-.22.17-.43.34-.65.5-.44.32-.89.63-1.34.94-.16.11-.32.22-.47.33-.8.58-1.59,1.14-2.41,1.7-.34.23-.72.5-1.04.68-1.06.61-2.09,1.32-3.14,1.98l-.92.58c-.63.4-1.26.79-1.88,1.2-1.03.67-2.1,1.35-3.07,2.02-1.64,1.13-3.27,2.28-4.94,3.39-.31.2-.63.43-.88.63-.62.48-1.33.91-2.05,1.33-1.17.68-2.35,1.33-3.56,1.94-.6.31-1.22.61-1.87.85-.65.24-1.33.42-2.03.5-.99.11-2.05.04-2.99-.01-.14-.01-.34,0-.52,0-1.34.04-2.69.09-4.03.14-.26.01-.53.03-.76.05-1.04.11-2.18.16-3.31.2-.31.01-.63,0-.95-.01-.28,0-.56-.02-.83-.02-.94.03-1.88.06-2.81.1-1.81.08-3.62.11-5.43.07-.52-.01-1.01-.06-1.52-.07-1.2-.02-2.41-.07-3.61-.1-.87-.03-1.73-.05-2.61-.11-.87-.07-1.74-.17-2.6-.31-1.47-.24-2.91-.6-4.34-.99-.9-.25-1.8-.49-2.69-.76-1.08-.33-2.15-.71-3.22-1.02-.45-.13-.92-.3-1.38-.42-.38-.07-.75-.14-1.12-.24-.63-.16-1.23-.38-1.85-.55-.44-.12-1.03-.25-1.46,0-.48.27-.45.95-.47,1.43-.03.78-.15,1.58-.26,2.35-.45,3.1-.32,6.41-.36,9.64-.06,4.06-.09,8.12-.05,12.17.04,4.83.2,9.66.24,14.5.01,1.92.06,3.84.03,5.75-.01,1.08.02,2.2.11,3.3.1,1.11.23,2.21.41,3.34.17,1.05.48,2.15.93,3.19.45,1.04,1.06,2.02,1.74,2.84,1.73,2.07,3.67,3.85,5.78,5.38,2.12,1.53,4.42,2.8,6.94,3.77l.69.24.35.12.35.1.71.19c.24.05.48.1.72.15.48.1.97.16,1.46.22.24.03.49.04.74.06l.37.02h.18s.15.01.15.01c1.61.05,3.24.03,4.87-.05,1.64-.08,3.31-.08,4.96-.04.67.02,1.34.03,2.01.05.4-.04.83-.07,1.21-.22.43-.17.78-.49,1.1-.82.33-.34.65-.68.98-1.02.7-.72,1.42-1.43,2.15-2.13,1.48-1.41,2.99-2.78,4.48-4.18,1.42-1.33,2.83-2.69,4.14-4.13.83-.91,3.33-3.32.78-3.68-1.99-.28-4.22,1.06-6.11,1.49-3.15.72-4.23-.81-1.84-3.1,3.49-3.36,8.09-6.18,11.93-9.19,1.59-1.25,3.85-2.83,4.81-4.62,1.52-2.84-1.31-.62-2.35-1.46-1.08-.88,1.06-2.85,1.7-3.46,2.16-2.05,4.9-3.86,6.86-6.09.27-.31,1.35-1.47,1.06-1.88-1.14-.39-2.74,1.07-3.81.22-.69-.55-.18-1.23.19-1.78,1.11-1.66,4.49-3.96,6.14-5.43,2.29-2.03,4.56-4.19,6.73-6.35.87-.86,4.49-4.39,4.58-5.36.1-1.02-1.15-.42-1.67-.15-1.41.72-4.82,3.69-6.18,3.63-1.15-.05-1.33-1.1-1.01-2.02.62-1.78,2.38-4.36,3.48-5.95,3.8-5.49,7.45-9.06,13.27-12.38,2.62-1.5,7.92-3.37,9.52-5.69,2.34-3.39,1.05-5.91-1.76-8.29-5.65-4.79-12.45-3.14-19.23-2.89-1.69.06-2.74.17-2.14-1.89,1.22-4.18,10.18-8.22,14.16-9.1,2.38-.52,4.88-.42,7.21-1.21,2.34-.8,3.91-2.58,6.01-3.67,6.92-3.6,17.01-1.81,23.6,1.84,2.53,1.41,4.17,2.85,7.16,3.52.57.13,2.25.28,2.56.45.5.28.55.75.2,1.18-.89,1.11-4.62.73-5.95.84l-.21.29c.05.26.2.47.33.69,1.34,2.27,7.52,5.49,10.08,6.14.79.2,2.45.27,3.03.61.4.23.56.8.23,1.15-.28.29-2.89.78-3.46.88-1.53.25-3.38.25-4.84.57-1.38.3.09,1.96.54,2.55,1.72,2.23,3.96,4.9,5.84,6.98.55.61,3.06,2.84,3.18,3.36.19.84-.36,1.28-1.15,1.28-.75,0-3.55-.86-3.47.44,1.21,3.15,2.42,6.02,3.1,9.35.64,3.16,1.2,6.82,1.54,10.02.14,1.34.92,5.7-1.51,5.03-1.13-.31-1.68-2.16-2.13-2.4-.3-.16-.49.2-.48.47.16,4.51-.96,6.99-2.81,10.96-1.72,3.69-3.82,8.29-5.83,11.78-.53.92-1.51,2.7-2.8,2.16-.9-.37-.76-1.93-.94-2.7-.13-.57-.24-1.01-.92-.61-.37.22-2.01,4-2.42,4.74-.69,1.25-2.83,4.82-3.86,5.57-1.38,1.01-2.2.03-2.42-1.35-.15-.96-.09-3.57-1.23-1.03-.7,1.55-3.16,8.13-3.2,9.51-.08,3.03,2.24,5.26,4.14,7.28,2.45,2.6,5.47,5.22,7.9,7.94.16.16.3.33.44.51.21.25.42.49.62.75.19.25.41.49.68.66.68.43,1.61.49,2.4.55.68.05,1.38-.17,2.06-.21.79-.05,1.58-.01,2.36.1.14.02.29.04.44.02.12-.02.24-.07.36-.1.58-.16,1.16.08,1.73.12.62.05,1.26.04,1.88.04,1.4,0,2.79-.14,4.15-.48.55-.12,1.09-.31,1.64-.5.54-.22,1.09-.44,1.62-.74,1.07-.57,2.13-1.31,3.1-2.27.99-.98,1.96-2.05,2.79-3.2.82-1.15,1.49-2.38,1.89-3.62.5-1.55.87-3.1,1.15-4.65.29-1.55.5-3.1.7-4.7.06-.44.09-.88.11-1.32.03-.48.03-.77.03-1.12,0-.68,0-1.36-.03-2.04ZM38.03,44.56c.04.09.07.12.09.21.02.07.03.15.04.22.06.42.11.86.11,1.29,0,.31,0,.63-.01.99.02.19.05.4.08.62,0,.08.01.16.02.24,0,.09.01.14,0,.29-.02.25-.14.49-.32.67-.17.18-.43.3-.67.32-.15.02-.32.05-.5.07-.13.02-.25.04-.41.04-.15,0-.36-.02-.53-.12-.17-.09-.31-.26-.39-.43-.03-.08-.07-.16-.09-.24-.02-.08-.04-.15-.04-.22-.03-.22-.03-.42-.03-.6v-.55s.04-1.09.04-1.09c0-.49.02-.99-.02-1.46v-.09s-.01-.04-.01-.04c0-.03-.02-.05-.03-.08-.03-.05-.07-.1-.12-.13l-.63-.34c-.91-.49-1.79-.98-2.68-1.5-.67-.4-1.39-.78-2.09-1.16l-.47-.26-.51-.28.03.02c-.29-.13-.57-.31-.81-.52-.24-.21-.44-.45-.62-.71-.34-.52-.56-1.11-.67-1.7-.14-.75-.13-1.52.06-2.27.06-.22.13-.43.16-.52.06-.14.11-.25.16-.34.05-.09.1-.16.14-.24.32-.54.85-.99,1.48-1.18.31-.09.64-.13.95-.12.16,0,.35.03.5.08.16.04.3.1.43.15.22.08.38.13.51.11.06,0,.13-.03.2-.06l.05-.03s.03-.02.04-.03c.02-.01.03-.03.05-.05.05-.06.09-.17.1-.28,0-.12-.03-.23-.08-.32-.03-.04-.06-.08-.09-.1h-.02s-.07-.05-.07-.05l-.13-.07-.52-.3c-1.53-.87-3.03-1.76-4.5-2.67-.15-.09-.31-.18-.46-.27-.15-.09-.29-.18-.43-.28l-.05-.03s-.05-.03-.08-.05c-.05-.04-.1-.07-.14-.12-.04-.04-.08-.09-.12-.13l-.07-.1c-.09-.12-.2-.24-.31-.37-.22-.25-.45-.51-.66-.82-.2-.31-.36-.69-.4-1.08-.02-.1-.01-.19-.02-.29,0-.09.01-.19.02-.28,0-.09.01-.18.04-.28.02-.09.03-.18.06-.27.1-.36.26-.71.48-1.01.22-.31.5-.56.81-.77.31-.21.65-.36,1-.46.18-.06.36-.08.54-.11.18-.01.36-.04.55-.03h0c.16-.01.32.02.47.03.14.01.31.05.46.1.15.05.28.1.41.16.26.12.49.25.71.36.35.16.67.26.95.17.14-.04.29-.11.41-.22.12-.1.21-.22.27-.36.16-.35.09-.79-.16-1.1-.03-.04-.07-.08-.1-.11l-.13-.11c-.08-.08-.18-.15-.28-.22-.2-.14-.41-.27-.63-.39-.7-.39-1.47-.74-2.21-1.2-.28-.19-.57-.38-.83-.64-.07-.06-.13-.13-.19-.2-.06-.07-.13-.13-.18-.22l-.16-.23-.12-.24c-.26-.52-.41-1.13-.35-1.73.05-.6.29-1.18.65-1.65.32-.4.72-.74,1.18-.94.46-.21.97-.32,1.48-.3.11,0,.22.02.34.03.11.02.23.02.33.05.21.06.43.1.65.21.41.19.73.4,1.07.57.21.1.42.19.6.22.18.04.31,0,.43-.08.07-.05.1-.11.13-.22.03-.11.03-.25.02-.41,0-.16-.02-.33-.03-.52,0-.1,0-.2,0-.31,0-.11.02-.19.04-.28.1-.73.34-1.47.75-2.12.54-.86,1.43-1.51,2.4-1.82.14-.05.28-.09.42-.12.14-.04.29-.06.43-.08.36-.04.72-.04,1.08,0,.34.03.67.1,1,.2.37.12.73.28,1.07.48.34.21.64.46.92.75.73.77,1.17,1.84,1.14,2.89,0,.35-.02.67,0,.96.01.14.03.28.07.37.04.1.08.16.12.19.04.02.13.06.21.06.09,0,.21-.02.33-.05.25-.08.52-.23.81-.39.25-.14.5-.29.82-.42.32-.12.62-.2.95-.24.65-.09,1.36.04,1.96.36.68.37,1.22.99,1.5,1.71.29.72.31,1.55.04,2.29-.12.35-.3.67-.52.96-.07.08-.14.17-.21.25l-.23.23-.24.21c-.08.06-.16.12-.24.18-.32.23-.65.44-.97.63-.21.13-.44.23-.66.35-.39.21-.77.41-1.14.63-.18.11-.36.22-.54.33l-.23.16-.02.02s-.04.06-.06.09c-.11.19-.14.42-.13.62.01.18.06.33.16.45.02.03.05.06.08.08.03.03.08.06.11.09.04.03.08.05.12.07l.06.03.06.02c.11.04.22.05.35.03.13-.02.29-.06.46-.14.34-.14.71-.36,1.17-.52.4-.14.79-.19,1.2-.2.41,0,.81.08,1.17.22.83.33,1.51.97,1.89,1.75.13.27.24.57.31.88l.02.07c.04.26.07.57.04.79-.09.77-.42,1.55-.96,2.11-.13.13-.26.26-.39.36-.13.11-.27.22-.4.31-.14.1-.27.2-.41.29-.14.09-.28.18-.42.26-.57.34-1.14.64-1.72.92-.9.44-1.8.83-2.64,1.31-.15.09-.31.18-.45.28l-.22.15-.21.15c-.14.1-.27.21-.35.3-.09.1-.1.16-.11.21,0,.05.01.12.06.22.05.1.11.2.16.24.05.05.07.06.12.06.05,0,.16-.01.28-.06.17-.06.38-.15.63-.21.06-.01.14-.03.2-.04l.18-.02h.18s.18-.01.18-.01c.48,0,.97.12,1.4.37.43.25.77.62,1.01,1.02.24.41.39.85.47,1.3.03.19.06.38.07.58.04.6-.02,1.2-.19,1.77-.08.29-.19.57-.33.84-.14.27-.3.53-.5.76-.2.25-.45.47-.72.65-.14.1-.27.16-.4.23l-.38.21-1.53.84c-.41.23-.82.47-1.23.71-.18.1-.37.21-.54.29-.71.34-1.43.68-2.12.99-.26.12-.52.19-.63.22-.11.03-.19.1-.25.19-.03.04-.04.19-.02.24ZM47.8,55.65c-.25.12-.51.2-.77.3-.19.08-.37.17-.55.26-.49.21-.85.26-1.38.18-.24-.04-.48-.08-.72-.14-.05-.01-.1-.02-.15-.03-.31-.06-.61-.13-.91-.21l-.92-.26c-.12-.03-.25-.05-.38-.07-.05-.01-.11-.03-.16-.05-.29-.14-.72-.25-.99-.44-.02-.01-.04-.03-.06-.04-.17-.13-.16-.32-.06-.48.03-.06.07-.1.1-.13.09-.07.17-.12.27-.18.04-.05.08-.11.13-.16.15-.14.35-.18.53-.24.13-.04.24-.12.37-.16l.25-.08.27-.11c.25-.11.5-.22.75-.34.25-.13.51-.24.78-.34.2-.07.4-.18.6-.27l.14-.06,1-.45.54-.24c.05-.03.1-.05.12-.06.07-.03.12-.04.15-.06l.84-.4c.12-.06.22-.13.34-.19.2-.1.39-.2.59-.29.44-.21.89-.39,1.35-.53.05-.01.09-.04.14-.05.05-.02.09-.03.14-.04.68-.29,1.36-.57,2.05-.84h0s.08-.02.12-.04c.14-.06.27-.13.4-.19.22-.09.43-.17.65-.25.28-.1.56-.21.85-.29.23-.07.46-.12.72-.17.21-.03.39-.04.58-.05.3-.01.6,0,.9,0,.25.01.51.03.77.06.23.02.46.03.69.08.15.03.29.08.45.13.11.03.2.06.33.11.15.06.29.15.4.26l.08.09s.04.07.06.1c.02.03.04.07.05.11.09.17-.02.52-.05.69-.06.36-.55.45-.83.59-.07.03-.13.08-.19.11-.08.04-.17.06-.25.1-.08.03-.16.07-.23.11-.18.09-.36.17-.53.26-.23.12-.46.27-.69.36-.35.14-.67.3-1,.46-.28.14-.56.29-.84.43l-.97.47c-.08.04-.15.08-.23.12-.18.1-.36.2-.54.29-.06.03-.13.04-.19.07-.22.09-.45.19-.67.28-.08.04-.15.1-.23.14-.14.07-.28.13-.42.19l-.63.28c-.17.08-.35.17-.52.23-.2.06-.38.16-.57.24-.07.03-.13.07-.2.11h-.01c-.06.04-.12.08-.17.09-.19.03-.35.13-.52.21-.32.15-.62.33-.94.48ZM56.43,57.78c-.16.07-.31.16-.47.22-.12.05-.25.1-.39.14-.13.05-.26.08-.4.12-.17.05-.35.08-.52.12-.18.02-.36.05-.55.05-.3.01-.56-.02-.83-.05-.21-.02-.41-.05-.62-.08-.33-.05-.65-.1-.99-.16-.28-.05-.56-.12-.84-.18l-.38-.08-.2-.04c-.1-.02-.21-.05-.31-.08-.26-.08-.48-.19-.66-.3-.42-.29-.32-.63.01-.95.12-.12.26-.23.43-.33.1-.06.23-.13.32-.18l.19-.1.39-.21c.07-.04.14-.09.22-.13.09-.05.19-.08.29-.13.09-.04.18-.09.26-.14.2-.1.4-.2.6-.31.27-.14.52-.31.79-.42.39-.16.77-.35,1.15-.52l.97-.47c.37-.18.75-.34,1.13-.51l.26-.13c.21-.1.42-.21.63-.31.07-.03.15-.04.22-.07.26-.1.52-.19.77-.3.09-.04.17-.1.27-.14.16-.07.32-.14.48-.2l.72-.29c.2-.08.4-.18.6-.24.23-.06.44-.17.66-.25.08-.03.15-.07.23-.11l.02-.02c.07-.03.14-.07.2-.08.21-.03.4-.14.59-.23.36-.17.71-.36,1.08-.52.28-.13.58-.23.87-.35.21-.09.41-.2.62-.3l.26-.12.09-.04s.08-.02.12-.03l.16-.03c.56-.11,1.13-.13,1.68-.09h.18c.37.03.73.07,1.09.14.38.08.74.2,1.09.32.15.05.3.09.46.17.07.03.14.08.19.12.11.1.23.22.32.39.08.16.1.34.05.49-.03.12-.13.2-.18.21-.02,0-.04,0-.06,0-.02.05-.05.1-.08.15,0,0,0,0-.01,0,.03.01.04.05.04.08,0,.07-.25.32-.37.38-.09.04-.18.08-.28.13-.04.05-.09.1-.14.16-.16.14-.37.19-.56.27-.13.06-.26.15-.39.21-.21.1-.42.18-.63.28-.29.13-.57.26-.85.4-.29.14-.58.27-.88.39-.23.08-.46.2-.68.31l-.16.06-1.14.51-.61.28c-.06.03-.12.06-.14.07-.08.03-.13.04-.17.07-.32.15-.63.31-.95.46-.13.07-.25.15-.38.22-.22.12-.45.23-.67.34-.49.25-1.01.45-1.5.63-.05.02-.1.05-.15.07-.05.02-.1.04-.15.05-.74.37-1.49.77-2.27,1.11h0s-.09.03-.13.05ZM74,52.2c.11,0,.21.03.27.06.14.11.54-.32.79-.33.12,0,.23,0,.37,0,.07-.02.15-.05.24-.07.25-.04.5.04.75.11.17.05.35.06.52.12.26.08.52.21.76.33.17.09.34.18.52.31l.07.05.08.08c.06.05.1.11.15.17.08.12.15.25.16.4.05.3-.13.59-.34.79-.05.05-.12.1-.17.15-.07.03-.15.07-.18.08l-.25.09c-.26.09-.52.22-.77.33l-.18.07-1.28.56-.68.31c-.07.03-.13.06-.16.08-.09.03-.14.05-.19.08-.35.17-.71.35-1.06.52-.15.08-.28.17-.43.24-.25.13-.5.26-.75.39-.55.28-1.12.53-1.69.74-.06.02-.12.05-.17.08-.06.02-.11.04-.17.06l-2.55,1.21h0s-.1.04-.14.06c-.17.09-.33.19-.49.27l-.79.4-1,.51-.79.39-.62.3-1,.48-.86.4-.76.38c-.16.08-.34.14-.49.22-.44.23-.87.45-1.31.68-.29.15-.59.28-.89.42-.08.04-.17.09-.25.13-.19.09-.38.17-.56.23-.17.06-.33.09-.47.08-.14-.01-.27-.04-.39-.15-.12-.11-.15-.22-.18-.35,0-.04,0-.09,0-.14-.01-.24.08-.54.15-.84.02-.09.05-.19.07-.28.02-.08.05-.16.07-.23.04-.11.07-.22.1-.32l.02-.07.02-.09.03-.17c.04-.22.07-.45.09-.65.01-.16,0-.33-.02-.55-.01-.22-.02-.49.07-.79.05-.17.15-.32.25-.46.11-.13.23-.24.35-.33l.12-.09.13-.06.16-.07.32-.14c.1-.04.2-.09.29-.14.23-.11.47-.23.7-.34.08-.04.17-.05.25-.08.29-.11.58-.23.86-.35.1-.04.2-.11.3-.16.18-.08.36-.16.54-.23l.81-.34c.22-.09.45-.21.67-.28.26-.08.49-.2.74-.29.09-.03.17-.08.26-.13l.02-.02c.07-.03.16-.07.22-.09.23-.04.45-.16.67-.26.41-.19.81-.39,1.23-.57.32-.14.66-.24.99-.37.24-.09.48-.2.72-.3.2-.08.4-.16.6-.23l1.67-.62c.06-.02.12-.05.17-.07l1.07-.47c.38-.16.76-.32,1.14-.47.16-.06.31-.14.46-.21.07-.03.14-.05.21-.07.28-.05.57-.1.85-.12Z"/>
  </g>
  <g>
    <g>
      <path class="cls-1" d="M211.69,2.37l21.04,51.42,17.1-41.3-3.42-10.13h41.3l-.39,7.23-5.26,1.45c-4.08,1.05-5.26,3.16-5,7.76l2.76,54.84c.26,4.08.92,6.05,5.52,7.5l4.87,1.45.39,7.23h-48.4l.39-7.23,6.18-1.45c4.34-1.18,5.79-3.03,5.52-7.63l-2.5-41.03-22.75,53.13h-11.44l-21.83-53.26-2.89,41.17c-.26,4.08.79,6.44,5.52,7.63l6.31,1.45.39,7.23h-34.06l.39-7.23,5.39-1.45c3.95-1.05,4.87-3.16,5.26-7.63l4.21-50.11c.53-7.5-.92-11.05-6.05-12.63l-4.08-1.18-.39-7.23h35.9Z"/>
      <path class="cls-1" d="M359.65,2.37l23.67,71.81c1.18,3.68,2.1,5.79,5.66,6.97l4.73,1.45.26,7.23h-47.87l.39-7.23,10.39-3.02c.66-.79.26-3.81-.79-7.1l-3.81-11.97h-27.49l-4.21,13.15c-.53,1.58-.79,2.89-.79,4.08,0,1.58.92,2.76,2.76,3.16l8.15,1.71.53,7.23h-35.11l.26-7.23,5.52-1.45c2.89-.79,4.87-2.89,5.79-5.66l24.59-66.81-3.29-6.31h30.64ZM338.74,17.49l-11.31,34.85h22.36l-11.05-34.85Z"/>
      <path class="cls-1" d="M421.6,2.37c7.89,0,18.81-1.18,26.7-1.18,20.39,0,32.62,8.29,32.62,22.09,0,11.31-8.02,19.46-18.15,24.33,5.92,8.55,14.73,19.33,20.91,25.51,5.13,5,9.86,8.42,14.33,9.86l-1.18,6.84c-2.5,1.45-7.5,2.63-12.62,2.63-10,0-19.73-4.6-26.7-13.81-4.08-5.26-10.52-16.31-14.86-25.78l-6.05-.13-.53,20.78c-.13,4.34.79,6.44,5.66,7.5l7.5,1.58.39,7.23h-50.5l.39-7.23,5.66-1.45c4.08-1.18,5-3.29,5-7.63l.79-54.71c0-4.21-1.05-6.44-5.39-7.76l-5.26-1.45-.26-7.23h21.57ZM436.85,43.93l7.37-.13,2.24-.13c4.34-.13,8.29-6.18,8.29-15.78,0-12.1-5.39-18.02-12.89-18.02-.66,0-1.32,0-2.1.13-1.32.26-2.1,1.18-2.1,2.89l-.79,31.04Z"/>
      <path class="cls-1" d="M536.54,0c7.76,0,16.18,1.97,21.7,4.08l9.86-3.55c0,8.42-.53,22.23-.92,30.77l-7.63.53c-3.42-17.1-12.23-21.96-20.52-21.96-6.97,0-11.18,3.42-11.18,9.6,0,6.58,5.13,9.47,16.44,15.91,15.78,9.07,26.3,16.31,26.3,30.12,0,15.91-13.15,26.57-34.85,26.57-8.15,0-17.36-1.31-23.41-3.68l-7.5,3.02c-2.37-10-3.68-23.94-3.68-32.48l7.63-.53c3.55,16.7,13.94,23.67,24.59,23.67,7.5,0,11.57-3.42,11.57-8.94,0-7.37-8.94-11.97-21.04-19.07-11.97-7.1-20.52-14.07-20.52-27.36,0-17.75,14.73-26.7,33.14-26.7Z"/>
    </g>
    <g>
      <path class="cls-1" d="M207.78,108.44l-6.67,32.66h-4.95l-5.09-21.09c-.28-1.12-.79-3.55-.93-4.34-.14.79-.65,3.22-.93,4.34l-5.32,21.09h-4.85l-6.67-32.66h4.95l3.92,20.62c.19.98.61,3.22.75,4.29.19-1.07.65-3.27.89-4.25l5.23-20.67h4.2l5.32,21.14c.23.89.61,2.61.79,3.78.23-1.21.51-3.03.65-3.83l3.97-21.09h4.76Z"/>
      <path class="cls-1" d="M219.49,141.1h-4.9v-32.66h4.9v32.66Z"/>
      <path class="cls-1" d="M249.4,141.1h-21.18v-32.66h4.9v27.86h16.29v4.81Z"/>
      <path class="cls-1" d="M280.8,124.77c0,11.53-7.37,16.33-15.91,16.33h-8.91v-32.66h8.91c8.77,0,15.91,4.81,15.91,16.33ZM275.8,124.77c0-6.86-3.17-11.57-10.92-11.57h-4.01v23.14h4.01c7.75,0,10.92-4.71,10.92-11.57Z"/>
      <path class="cls-1" d="M308.84,141.1h-21.18v-32.66h4.9v27.86h16.29v4.81Z"/>
      <path class="cls-1" d="M320.54,141.1h-4.9v-32.66h4.9v32.66Z"/>
      <path class="cls-1" d="M350.31,113.25h-16.14v8.54h9.38v4.81h-9.38v14.51h-4.9v-32.66h21.04v4.81Z"/>
      <path class="cls-1" d="M378.17,141.1h-21.74v-32.66h21.04v4.76h-16.14v8.07h9.38v4.76h-9.38v10.31h16.84v4.76Z"/>
      <path class="cls-1" d="M422.53,118.19c0,5.23-2.75,8.45-7.19,9.57l6.67,13.34h-5.65l-6.49-12.92h-7.37v12.92h-4.81v-32.66h14.33c5.69,0,10.5,3.03,10.5,9.75ZM417.59,118.33c0-3.41-2.24-5.27-5.55-5.27h-9.52v10.5h9.52c3.27,0,5.55-1.68,5.55-5.23Z"/>
      <path class="cls-1" d="M451.83,141.1h-21.74v-32.66h21.04v4.76h-16.14v8.07h9.38v4.76h-9.38v10.31h16.84v4.76Z"/>
      <path class="cls-1" d="M479.97,131.72c0,5.88-3.73,9.89-12.09,9.89-4.76,0-8.87-2.05-11.62-5.27l3.5-3.41c2.19,2.38,5.41,3.87,8.49,3.87,4.57,0,6.77-1.59,6.77-4.76,0-2.52-1.91-3.78-7.37-5.41-6.91-2.05-10.22-3.78-10.22-9.61s4.76-9.1,10.78-9.1c4.43,0,7.79,1.63,10.69,4.43l-3.45,3.5c-2.05-2.1-4.39-3.13-7.61-3.13-3.83,0-5.46,1.87-5.46,4.06s1.49,3.41,7.14,5.09c6.44,1.96,10.45,4.01,10.45,9.85Z"/>
      <path class="cls-1" d="M510.57,135.36c-2.33,4.01-6.3,6.25-11.25,6.25-8.45,0-13.81-6.95-13.81-16.84s5.37-16.84,13.81-16.84c5.32,0,8.87,2.15,11.11,6.11l-4.34,2.71c-1.68-2.66-3.41-3.92-6.77-3.92-5.69,0-8.77,4.62-8.77,11.95s3.08,11.95,8.77,11.95c3.41,0,5.51-1.4,7.19-4.06l4.06,2.71Z"/>
      <path class="cls-1" d="M541.74,127.48c0,9.15-4.43,14.14-12.55,14.14s-12.27-5.23-12.27-14.23v-18.94h4.9v18.8c0,6.16,2.57,9.47,7.47,9.47s7.56-3.17,7.56-9.15v-19.13h4.9v19.04Z"/>
      <path class="cls-1" d="M571.74,141.1h-21.74v-32.66h21.04v4.76h-16.14v8.07h9.38v4.76h-9.38v10.31h16.84v4.76Z"/>
    </g>
  </g>
</svg>